<?xml version="1.0" encoding="UTF-8" standalone="no"?>
<!DOCTYPE svg PUBLIC "-//W3C//DTD SVG 1.1//EN"
 "http://www.w3.org/Graphics/SVG/1.1/DTD/svg11.dtd">
<!-- Generated by graphviz version 2.43.0 (0)
 -->
<!-- Title: src/tls/ca.h Pages: 1 -->
<svg width="1228pt" height="934pt"
 viewBox="0.00 0.00 1227.50 934.00" xmlns="http://www.w3.org/2000/svg" xmlns:xlink="http://www.w3.org/1999/xlink">
<g id="graph0" class="graph" transform="scale(1 1) rotate(0) translate(4 930)">
<title>src/tls/ca.h</title>
<polygon fill="white" stroke="transparent" points="-4,4 -4,-930 1223.5,-930 1223.5,4 -4,4"/>
<!-- Node1 -->
<g id="node1" class="node">
<title>Node1</title>
<g id="a_node1"><a xlink:title=" ">
<polygon fill="#bfbfbf" stroke="black" points="342.5,-906.5 342.5,-925.5 411.5,-925.5 411.5,-906.5 342.5,-906.5"/>
<text text-anchor="middle" x="377" y="-913.5" font-family="Helvetica,sans-Serif" font-size="10.00">src/tls/ca.h</text>
</a>
</g>
</g>
<!-- Node2 -->
<g id="node2" class="node">
<title>Node2</title>
<g id="a_node2"><a xlink:href="ccf__global_8cpp.html" target="_top" xlink:title=" ">
<polygon fill="white" stroke="black" points="176.5,-839.5 176.5,-869.5 287.5,-869.5 287.5,-839.5 176.5,-839.5"/>
<text text-anchor="start" x="184.5" y="-857.5" font-family="Helvetica,sans-Serif" font-size="10.00">src/apps/js_v8/tmpl</text>
<text text-anchor="middle" x="232" y="-846.5" font-family="Helvetica,sans-Serif" font-size="10.00">/ccf_global.cpp</text>
</a>
</g>
</g>
<!-- Node1&#45;&gt;Node2 -->
<g id="edge1" class="edge">
<title>Node1&#45;&gt;Node2</title>
<path fill="none" stroke="midnightblue" d="M346.76,-902.59C323.25,-892.94 290.63,-879.56 266.17,-869.52"/>
<polygon fill="midnightblue" stroke="midnightblue" points="345.64,-905.92 356.23,-906.48 348.3,-899.44 345.64,-905.92"/>
</g>
<!-- Node3 -->
<g id="node3" class="node">
<title>Node3</title>
<g id="a_node3"><a xlink:href="tls__client_8h.html" target="_top" xlink:title=" ">
<polygon fill="white" stroke="black" points="350,-783.5 350,-802.5 472,-802.5 472,-783.5 350,-783.5"/>
<text text-anchor="middle" x="411" y="-790.5" font-family="Helvetica,sans-Serif" font-size="10.00">src/clients/tls_client.h</text>
</a>
</g>
</g>
<!-- Node1&#45;&gt;Node3 -->
<g id="edge2" class="edge">
<title>Node1&#45;&gt;Node3</title>
<path fill="none" stroke="midnightblue" d="M383.4,-896.85C386.19,-888.69 389.41,-878.91 392,-870 399,-845.97 405.75,-817.22 409,-802.95"/>
<polygon fill="midnightblue" stroke="midnightblue" points="380.05,-895.84 380.07,-906.43 386.66,-898.14 380.05,-895.84"/>
</g>
<!-- Node9 -->
<g id="node9" class="node">
<title>Node9</title>
<g id="a_node9"><a xlink:href="js_2crypto_8cpp.html" target="_top" xlink:title=" ">
<polygon fill="white" stroke="black" points="463,-845 463,-864 559,-864 559,-845 463,-845"/>
<text text-anchor="middle" x="511" y="-852" font-family="Helvetica,sans-Serif" font-size="10.00">src/js/crypto.cpp</text>
</a>
</g>
</g>
<!-- Node1&#45;&gt;Node9 -->
<g id="edge9" class="edge">
<title>Node1&#45;&gt;Node9</title>
<path fill="none" stroke="midnightblue" d="M405.54,-902.33C431.55,-890.78 469.26,-874.03 491.84,-864.01"/>
<polygon fill="midnightblue" stroke="midnightblue" points="403.92,-899.22 396.2,-906.48 406.76,-905.62 403.92,-899.22"/>
</g>
<!-- Node11 -->
<g id="node11" class="node">
<title>Node11</title>
<g id="a_node11"><a xlink:href="cert_8h.html" target="_top" xlink:title=" ">
<polygon fill="white" stroke="black" points="305.5,-845 305.5,-864 382.5,-864 382.5,-845 305.5,-845"/>
<text text-anchor="middle" x="344" y="-852" font-family="Helvetica,sans-Serif" font-size="10.00">src/tls/cert.h</text>
</a>
</g>
</g>
<!-- Node1&#45;&gt;Node11 -->
<g id="edge11" class="edge">
<title>Node1&#45;&gt;Node11</title>
<path fill="none" stroke="midnightblue" d="M367.39,-897.67C361.25,-886.61 353.57,-872.75 348.72,-864.01"/>
<polygon fill="midnightblue" stroke="midnightblue" points="364.36,-899.43 372.27,-906.48 370.48,-896.03 364.36,-899.43"/>
</g>
<!-- Node4 -->
<g id="node4" class="node">
<title>Node4</title>
<g id="a_node4"><a xlink:href="rpc__tls__client_8h.html" target="_top" xlink:title=" ">
<polygon fill="white" stroke="black" points="883.5,-492.5 883.5,-522.5 984.5,-522.5 984.5,-492.5 883.5,-492.5"/>
<text text-anchor="start" x="891.5" y="-510.5" font-family="Helvetica,sans-Serif" font-size="10.00">src/clients/rpc_tls</text>
<text text-anchor="middle" x="934" y="-499.5" font-family="Helvetica,sans-Serif" font-size="10.00">_client.h</text>
</a>
</g>
</g>
<!-- Node3&#45;&gt;Node4 -->
<g id="edge3" class="edge">
<title>Node3&#45;&gt;Node4</title>
<path fill="none" stroke="midnightblue" d="M472.6,-781.73C606.87,-758.94 914,-704.35 914,-682 914,-682 914,-682 914,-624 914,-586.96 924.11,-544.21 929.95,-522.59"/>
<polygon fill="midnightblue" stroke="midnightblue" points="471.74,-778.33 462.47,-783.45 472.91,-785.23 471.74,-778.33"/>
</g>
<!-- Node5 -->
<g id="node5" class="node">
<title>Node5</title>
<g id="a_node5"><a xlink:href="perf__client_8h.html" target="_top" xlink:title=" ">
<polygon fill="white" stroke="black" points="955.5,-369.5 955.5,-399.5 1066.5,-399.5 1066.5,-369.5 955.5,-369.5"/>
<text text-anchor="start" x="963.5" y="-387.5" font-family="Helvetica,sans-Serif" font-size="10.00">src/clients/perf/perf</text>
<text text-anchor="middle" x="1011" y="-376.5" font-family="Helvetica,sans-Serif" font-size="10.00">_client.h</text>
</a>
</g>
</g>
<!-- Node4&#45;&gt;Node5 -->
<g id="edge4" class="edge">
<title>Node4&#45;&gt;Node5</title>
<path fill="none" stroke="midnightblue" d="M965.69,-486.63C976.48,-478.39 987.66,-467.95 995,-456 1005.71,-438.57 1009.27,-414.76 1010.44,-399.75"/>
<polygon fill="midnightblue" stroke="midnightblue" points="963.64,-483.8 957.59,-492.49 967.74,-489.47 963.64,-483.8"/>
</g>
<!-- Node8 -->
<g id="node8" class="node">
<title>Node8</title>
<g id="a_node8"><a xlink:href="timing_8h.html" target="_top" xlink:title=" ">
<polygon fill="white" stroke="black" points="854,-436.5 854,-455.5 986,-455.5 986,-436.5 854,-436.5"/>
<text text-anchor="middle" x="920" y="-443.5" font-family="Helvetica,sans-Serif" font-size="10.00">src/clients/perf/timing.h</text>
</a>
</g>
</g>
<!-- Node4&#45;&gt;Node8 -->
<g id="edge7" class="edge">
<title>Node4&#45;&gt;Node8</title>
<path fill="none" stroke="midnightblue" d="M928.37,-482.59C926.14,-473.08 923.7,-462.73 922.04,-455.66"/>
<polygon fill="midnightblue" stroke="midnightblue" points="924.98,-483.47 930.68,-492.4 931.8,-481.86 924.98,-483.47"/>
</g>
<!-- Node6 -->
<g id="node6" class="node">
<title>Node6</title>
<g id="a_node6"><a xlink:href="tpcc__client_8cpp.html" target="_top" xlink:title=" ">
<polygon fill="white" stroke="black" points="952,-302.5 952,-332.5 1068,-332.5 1068,-302.5 952,-302.5"/>
<text text-anchor="start" x="960" y="-320.5" font-family="Helvetica,sans-Serif" font-size="10.00">src/apps/tpcc/clients</text>
<text text-anchor="middle" x="1010" y="-309.5" font-family="Helvetica,sans-Serif" font-size="10.00">/tpcc_client.cpp</text>
</a>
</g>
</g>
<!-- Node5&#45;&gt;Node6 -->
<g id="edge5" class="edge">
<title>Node5&#45;&gt;Node6</title>
<path fill="none" stroke="midnightblue" d="M1010.62,-359.11C1010.49,-350.15 1010.34,-340.32 1010.22,-332.58"/>
<polygon fill="midnightblue" stroke="midnightblue" points="1007.13,-359.45 1010.78,-369.4 1014.13,-359.34 1007.13,-359.45"/>
</g>
<!-- Node7 -->
<g id="node7" class="node">
<title>Node7</title>
<g id="a_node7"><a xlink:href="scenario__perf__client_8cpp.html" target="_top" xlink:title=" ">
<polygon fill="white" stroke="black" points="1086.5,-302.5 1086.5,-332.5 1219.5,-332.5 1219.5,-302.5 1086.5,-302.5"/>
<text text-anchor="start" x="1094.5" y="-320.5" font-family="Helvetica,sans-Serif" font-size="10.00">src/clients/perf/scenario</text>
<text text-anchor="middle" x="1153" y="-309.5" font-family="Helvetica,sans-Serif" font-size="10.00">_perf_client.cpp</text>
</a>
</g>
</g>
<!-- Node5&#45;&gt;Node7 -->
<g id="edge6" class="edge">
<title>Node5&#45;&gt;Node7</title>
<path fill="none" stroke="midnightblue" d="M1051.13,-365.13C1073.69,-354.8 1101.42,-342.11 1122.25,-332.58"/>
<polygon fill="midnightblue" stroke="midnightblue" points="1049.45,-362.05 1041.81,-369.4 1052.36,-368.42 1049.45,-362.05"/>
</g>
<!-- Node8&#45;&gt;Node5 -->
<g id="edge8" class="edge">
<title>Node8&#45;&gt;Node5</title>
<path fill="none" stroke="midnightblue" d="M941.81,-430.74C956.27,-421.28 975.17,-408.93 989.55,-399.52"/>
<polygon fill="midnightblue" stroke="midnightblue" points="939.49,-428.07 933.04,-436.48 943.32,-433.93 939.49,-428.07"/>
</g>
<!-- Node10 -->
<g id="node10" class="node">
<title>Node10</title>
<g id="a_node10"><a xlink:href="wrap_8cpp.html" target="_top" xlink:title=" ">
<polygon fill="white" stroke="black" points="490.5,-783.5 490.5,-802.5 579.5,-802.5 579.5,-783.5 490.5,-783.5"/>
<text text-anchor="middle" x="535" y="-790.5" font-family="Helvetica,sans-Serif" font-size="10.00">src/js/wrap.cpp</text>
</a>
</g>
</g>
<!-- Node9&#45;&gt;Node10 -->
<g id="edge10" class="edge">
<title>Node9&#45;&gt;Node10</title>
<path fill="none" stroke="midnightblue" d="M518.26,-835.5C522.68,-824.55 528.11,-811.07 531.57,-802.51"/>
<polygon fill="midnightblue" stroke="midnightblue" points="514.93,-834.39 514.44,-844.98 521.43,-837.01 514.93,-834.39"/>
</g>
<!-- Node11&#45;&gt;Node3 -->
<g id="edge12" class="edge">
<title>Node11&#45;&gt;Node3</title>
<path fill="none" stroke="midnightblue" d="M361.29,-838.15C374.06,-826.81 390.98,-811.78 401.42,-802.51"/>
<polygon fill="midnightblue" stroke="midnightblue" points="358.75,-835.72 353.6,-844.98 363.4,-840.95 358.75,-835.72"/>
</g>
<!-- Node12 -->
<g id="node12" class="node">
<title>Node12</title>
<g id="a_node12"><a xlink:href="rpc__sessions_8h.html" target="_top" xlink:title=" ">
<polygon fill="white" stroke="black" points="131,-498 131,-517 277,-517 277,-498 131,-498"/>
<text text-anchor="middle" x="204" y="-505" font-family="Helvetica,sans-Serif" font-size="10.00">src/enclave/rpc_sessions.h</text>
</a>
</g>
</g>
<!-- Node11&#45;&gt;Node12 -->
<g id="edge13" class="edge">
<title>Node11&#45;&gt;Node12</title>
<path fill="none" stroke="midnightblue" d="M309.66,-841.49C279.91,-830.59 239.7,-814.51 227,-803 202.53,-780.82 191,-771.02 191,-738 191,-738 191,-738 191,-624 191,-583.84 198.86,-536.33 202.35,-517.16"/>
<polygon fill="midnightblue" stroke="midnightblue" points="308.7,-844.87 319.29,-844.98 311.08,-838.28 308.7,-844.87"/>
</g>
<!-- Node26 -->
<g id="node26" class="node">
<title>Node26</title>
<g id="a_node26"><a xlink:href="context_8h.html" target="_top" xlink:title=" ">
<polygon fill="white" stroke="black" points="236.5,-783.5 236.5,-802.5 331.5,-802.5 331.5,-783.5 236.5,-783.5"/>
<text text-anchor="middle" x="284" y="-790.5" font-family="Helvetica,sans-Serif" font-size="10.00">src/tls/context.h</text>
</a>
</g>
</g>
<!-- Node11&#45;&gt;Node26 -->
<g id="edge37" class="edge">
<title>Node11&#45;&gt;Node26</title>
<path fill="none" stroke="midnightblue" d="M328.19,-837.82C316.79,-826.52 301.84,-811.69 292.58,-802.51"/>
<polygon fill="midnightblue" stroke="midnightblue" points="325.84,-840.42 335.4,-844.98 330.77,-835.45 325.84,-840.42"/>
</g>
<!-- Node13 -->
<g id="node13" class="node">
<title>Node13</title>
<g id="a_node13"><a xlink:href="enclave_2enclave_8h.html" target="_top" xlink:title=" ">
<polygon fill="white" stroke="black" points="556,-56.5 556,-75.5 678,-75.5 678,-56.5 556,-56.5"/>
<text text-anchor="middle" x="617" y="-63.5" font-family="Helvetica,sans-Serif" font-size="10.00">src/enclave/enclave.h</text>
</a>
</g>
</g>
<!-- Node12&#45;&gt;Node13 -->
<g id="edge14" class="edge">
<title>Node12&#45;&gt;Node13</title>
<path fill="none" stroke="midnightblue" d="M138.49,-495.79C78.83,-481.85 0,-451.03 0,-385.5 0,-385.5 0,-385.5 0,-182.5 0,-126.34 400.01,-85.74 555.87,-72.05"/>
<polygon fill="midnightblue" stroke="midnightblue" points="137.73,-499.2 148.26,-497.96 139.26,-492.37 137.73,-499.2"/>
</g>
<!-- Node15 -->
<g id="node15" class="node">
<title>Node15</title>
<g id="a_node15"><a xlink:href="http__endpoint_8h.html" target="_top" xlink:title=" ">
<polygon fill="white" stroke="black" points="355.5,-436.5 355.5,-455.5 488.5,-455.5 488.5,-436.5 355.5,-436.5"/>
<text text-anchor="middle" x="422" y="-443.5" font-family="Helvetica,sans-Serif" font-size="10.00">src/http/http_endpoint.h</text>
</a>
</g>
</g>
<!-- Node12&#45;&gt;Node15 -->
<g id="edge16" class="edge">
<title>Node12&#45;&gt;Node15</title>
<path fill="none" stroke="midnightblue" d="M240.06,-495.18C280.5,-483.61 345.47,-465.93 385.93,-455.51"/>
<polygon fill="midnightblue" stroke="midnightblue" points="238.97,-491.85 230.33,-497.98 240.91,-498.57 238.97,-491.85"/>
</g>
<!-- Node16 -->
<g id="node16" class="node">
<title>Node16</title>
<g id="a_node16"><a xlink:href="node__client_8h.html" target="_top" xlink:title=" ">
<polygon fill="white" stroke="black" points="143,-436.5 143,-455.5 269,-455.5 269,-436.5 143,-436.5"/>
<text text-anchor="middle" x="206" y="-443.5" font-family="Helvetica,sans-Serif" font-size="10.00">src/node/node_client.h</text>
</a>
</g>
</g>
<!-- Node12&#45;&gt;Node16 -->
<g id="edge18" class="edge">
<title>Node12&#45;&gt;Node16</title>
<path fill="none" stroke="midnightblue" d="M204.63,-487.82C204.99,-477 205.43,-463.9 205.71,-455.51"/>
<polygon fill="midnightblue" stroke="midnightblue" points="201.12,-487.86 204.29,-497.98 208.12,-488.1 201.12,-487.86"/>
</g>
<!-- Node19 -->
<g id="node19" class="node">
<title>Node19</title>
<g id="a_node19"><a xlink:href="node__state_8h.html" target="_top" xlink:title=" ">
<polygon fill="white" stroke="black" points="325,-174 325,-193 449,-193 449,-174 325,-174"/>
<text text-anchor="middle" x="387" y="-181" font-family="Helvetica,sans-Serif" font-size="10.00">src/node/node_state.h</text>
</a>
</g>
</g>
<!-- Node12&#45;&gt;Node19 -->
<g id="edge34" class="edge">
<title>Node12&#45;&gt;Node19</title>
<path fill="none" stroke="midnightblue" d="M173.47,-493.8C135.61,-475.78 76,-438.92 76,-385.5 76,-385.5 76,-385.5 76,-316.5 76,-209.45 234.05,-187.95 324.81,-184.42"/>
<polygon fill="midnightblue" stroke="midnightblue" points="172.03,-496.99 182.58,-497.98 174.94,-490.63 172.03,-496.99"/>
</g>
<!-- Node25 -->
<g id="node25" class="node">
<title>Node25</title>
<g id="a_node25"><a xlink:href="resharing_8h.html" target="_top" xlink:title=" ">
<polygon fill="white" stroke="black" points="329,-241 329,-260 445,-260 445,-241 329,-241"/>
<text text-anchor="middle" x="387" y="-248" font-family="Helvetica,sans-Serif" font-size="10.00">src/node/resharing.h</text>
</a>
</g>
</g>
<!-- Node12&#45;&gt;Node25 -->
<g id="edge35" class="edge">
<title>Node12&#45;&gt;Node25</title>
<path fill="none" stroke="midnightblue" d="M228.64,-493.07C256.77,-478.04 304.4,-453.5 347,-436 393.8,-416.77 425.42,-441.05 455,-400 489.49,-352.15 423.04,-284.02 396.91,-260.16"/>
<polygon fill="midnightblue" stroke="midnightblue" points="226.7,-490.14 219.55,-497.96 230.01,-496.3 226.7,-490.14"/>
</g>
<!-- Node14 -->
<g id="node14" class="node">
<title>Node14</title>
<g id="a_node14"><a xlink:href="enclave_2main_8cpp.html" target="_top" xlink:title=" ">
<polygon fill="white" stroke="black" points="557,-0.5 557,-19.5 677,-19.5 677,-0.5 557,-0.5"/>
<text text-anchor="middle" x="617" y="-7.5" font-family="Helvetica,sans-Serif" font-size="10.00">src/enclave/main.cpp</text>
</a>
</g>
</g>
<!-- Node13&#45;&gt;Node14 -->
<g id="edge15" class="edge">
<title>Node13&#45;&gt;Node14</title>
<path fill="none" stroke="midnightblue" d="M617,-45.8C617,-36.91 617,-26.78 617,-19.75"/>
<polygon fill="midnightblue" stroke="midnightblue" points="613.5,-46.08 617,-56.08 620.5,-46.08 613.5,-46.08"/>
</g>
<!-- Node15&#45;&gt;Node12 -->
<g id="edge17" class="edge">
<title>Node15&#45;&gt;Node12</title>
<path fill="none" stroke="midnightblue" d="M386,-458.31C345.59,-469.86 280.61,-487.55 240.13,-497.98"/>
<polygon fill="midnightblue" stroke="midnightblue" points="387.08,-461.64 395.72,-455.51 385.14,-454.91 387.08,-461.64"/>
</g>
<!-- Node17 -->
<g id="node17" class="node">
<title>Node17</title>
<g id="a_node17"><a xlink:href="orc__requests_8h.html" target="_top" xlink:title=" ">
<polygon fill="white" stroke="black" points="326.5,-369.5 326.5,-399.5 445.5,-399.5 445.5,-369.5 326.5,-369.5"/>
<text text-anchor="start" x="334.5" y="-387.5" font-family="Helvetica,sans-Serif" font-size="10.00">src/consensus/aft/orc</text>
<text text-anchor="middle" x="386" y="-376.5" font-family="Helvetica,sans-Serif" font-size="10.00">_requests.h</text>
</a>
</g>
</g>
<!-- Node16&#45;&gt;Node17 -->
<g id="edge19" class="edge">
<title>Node16&#45;&gt;Node17</title>
<path fill="none" stroke="midnightblue" d="M241.61,-433.23C270.92,-423.54 312.54,-409.78 343.58,-399.52"/>
<polygon fill="midnightblue" stroke="midnightblue" points="240.19,-430.01 231.79,-436.48 242.38,-436.66 240.19,-430.01"/>
</g>
<!-- Node18 -->
<g id="node18" class="node">
<title>Node18</title>
<g id="a_node18"><a xlink:href="raft_8h.html" target="_top" xlink:title=" ">
<polygon fill="white" stroke="black" points="233.5,-308 233.5,-327 362.5,-327 362.5,-308 233.5,-308"/>
<text text-anchor="middle" x="298" y="-315" font-family="Helvetica,sans-Serif" font-size="10.00">src/consensus/aft/raft.h</text>
</a>
</g>
</g>
<!-- Node16&#45;&gt;Node18 -->
<g id="edge29" class="edge">
<title>Node16&#45;&gt;Node18</title>
<path fill="none" stroke="midnightblue" d="M238.39,-432.01C252.85,-424.66 268.87,-414.08 279,-400 295.21,-377.47 297.81,-343.19 298.08,-327.24"/>
<polygon fill="midnightblue" stroke="midnightblue" points="236.72,-428.93 229.19,-436.39 239.72,-435.25 236.72,-428.93"/>
</g>
<!-- Node23 -->
<g id="node23" class="node">
<title>Node23</title>
<g id="a_node23"><a xlink:href="http__node__client_8h.html" target="_top" xlink:title=" ">
<polygon fill="white" stroke="black" points="133,-235.5 133,-265.5 243,-265.5 243,-235.5 133,-235.5"/>
<text text-anchor="start" x="141" y="-253.5" font-family="Helvetica,sans-Serif" font-size="10.00">src/node/http_node</text>
<text text-anchor="middle" x="188" y="-242.5" font-family="Helvetica,sans-Serif" font-size="10.00">_client.h</text>
</a>
</g>
</g>
<!-- Node16&#45;&gt;Node23 -->
<g id="edge30" class="edge">
<title>Node16&#45;&gt;Node23</title>
<path fill="none" stroke="midnightblue" d="M170.55,-432.2C156.22,-425.06 141.16,-414.61 133,-400 107.13,-353.67 151.53,-292.79 174.95,-265.64"/>
<polygon fill="midnightblue" stroke="midnightblue" points="169.24,-435.44 179.79,-436.41 172.15,-429.08 169.24,-435.44"/>
</g>
<!-- Node24 -->
<g id="node24" class="node">
<title>Node24</title>
<g id="a_node24"><a xlink:href="retired__nodes__cleanup_8h.html" target="_top" xlink:title=" ">
<polygon fill="white" stroke="black" points="142,-369.5 142,-399.5 270,-399.5 270,-369.5 142,-369.5"/>
<text text-anchor="start" x="150" y="-387.5" font-family="Helvetica,sans-Serif" font-size="10.00">src/node/retired_nodes</text>
<text text-anchor="middle" x="206" y="-376.5" font-family="Helvetica,sans-Serif" font-size="10.00">_cleanup.h</text>
</a>
</g>
</g>
<!-- Node16&#45;&gt;Node24 -->
<g id="edge32" class="edge">
<title>Node16&#45;&gt;Node24</title>
<path fill="none" stroke="midnightblue" d="M206,-426.23C206,-417.59 206,-407.5 206,-399.52"/>
<polygon fill="midnightblue" stroke="midnightblue" points="202.5,-426.48 206,-436.48 209.5,-426.48 202.5,-426.48"/>
</g>
<!-- Node17&#45;&gt;Node18 -->
<g id="edge20" class="edge">
<title>Node17&#45;&gt;Node18</title>
<path fill="none" stroke="midnightblue" d="M358.66,-363.31C342.14,-351.1 321.93,-336.18 309.52,-327.01"/>
<polygon fill="midnightblue" stroke="midnightblue" points="356.78,-366.27 366.91,-369.4 360.94,-360.64 356.78,-366.27"/>
</g>
<!-- Node21 -->
<g id="node21" class="node">
<title>Node21</title>
<g id="a_node21"><a xlink:href="node__frontend_8h.html" target="_top" xlink:title=" ">
<polygon fill="white" stroke="black" points="539,-308 539,-327 697,-327 697,-308 539,-308"/>
<text text-anchor="middle" x="618" y="-315" font-family="Helvetica,sans-Serif" font-size="10.00">src/node/rpc/node_frontend.h</text>
</a>
</g>
</g>
<!-- Node17&#45;&gt;Node21 -->
<g id="edge25" class="edge">
<title>Node17&#45;&gt;Node21</title>
<path fill="none" stroke="midnightblue" d="M445.78,-366.75C491.16,-354.04 551.67,-337.09 587.56,-327.03"/>
<polygon fill="midnightblue" stroke="midnightblue" points="444.74,-363.41 436.05,-369.48 446.63,-370.15 444.74,-363.41"/>
</g>
<!-- Node18&#45;&gt;Node19 -->
<g id="edge21" class="edge">
<title>Node18&#45;&gt;Node19</title>
<path fill="none" stroke="midnightblue" d="M299.56,-297.81C301.78,-280.29 307.14,-254.03 320,-235 332.64,-216.29 354.54,-201.73 369.85,-193.14"/>
<polygon fill="midnightblue" stroke="midnightblue" points="296.06,-297.58 298.5,-307.89 303.03,-298.31 296.06,-297.58"/>
</g>
<!-- Node19&#45;&gt;Node13 -->
<g id="edge22" class="edge">
<title>Node19&#45;&gt;Node13</title>
<path fill="none" stroke="midnightblue" d="M391.21,-163.66C395.81,-147.54 404.78,-124.95 421,-112 459.07,-81.62 513.85,-70.99 555.82,-67.6"/>
<polygon fill="midnightblue" stroke="midnightblue" points="387.76,-163.04 388.7,-173.59 394.55,-164.76 387.76,-163.04"/>
</g>
<!-- Node20 -->
<g id="node20" class="node">
<title>Node20</title>
<g id="a_node20"><a xlink:href="gov__effects_8h.html" target="_top" xlink:title=" ">
<polygon fill="white" stroke="black" points="430,-112.5 430,-131.5 574,-131.5 574,-112.5 430,-112.5"/>
<text text-anchor="middle" x="502" y="-119.5" font-family="Helvetica,sans-Serif" font-size="10.00">src/node/rpc/gov_effects.h</text>
</a>
</g>
</g>
<!-- Node19&#45;&gt;Node20 -->
<g id="edge23" class="edge">
<title>Node19&#45;&gt;Node20</title>
<path fill="none" stroke="midnightblue" d="M412.38,-169.37C434.67,-157.83 466.44,-141.4 485.55,-131.51"/>
<polygon fill="midnightblue" stroke="midnightblue" points="410.75,-166.27 403.48,-173.98 413.97,-172.49 410.75,-166.27"/>
</g>
<!-- Node20&#45;&gt;Node13 -->
<g id="edge24" class="edge">
<title>Node20&#45;&gt;Node13</title>
<path fill="none" stroke="midnightblue" d="M529.48,-108.1C550.97,-98.01 580.22,-84.27 598.86,-75.52"/>
<polygon fill="midnightblue" stroke="midnightblue" points="527.79,-105.02 520.22,-112.44 530.76,-111.36 527.79,-105.02"/>
</g>
<!-- Node21&#45;&gt;Node13 -->
<g id="edge26" class="edge">
<title>Node21&#45;&gt;Node13</title>
<path fill="none" stroke="midnightblue" d="M617.93,-297.84C617.72,-247.64 617.18,-111.1 617.03,-75.55"/>
<polygon fill="midnightblue" stroke="midnightblue" points="614.43,-297.93 617.97,-307.91 621.43,-297.9 614.43,-297.93"/>
</g>
<!-- Node22 -->
<g id="node22" class="node">
<title>Node22</title>
<g id="a_node22"><a xlink:href="jwt__key__auto__refresh_8h.html" target="_top" xlink:title=" ">
<polygon fill="white" stroke="black" points="463.5,-235.5 463.5,-265.5 588.5,-265.5 588.5,-235.5 463.5,-235.5"/>
<text text-anchor="start" x="471.5" y="-253.5" font-family="Helvetica,sans-Serif" font-size="10.00">src/node/jwt_key_auto</text>
<text text-anchor="middle" x="526" y="-242.5" font-family="Helvetica,sans-Serif" font-size="10.00">_refresh.h</text>
</a>
</g>
</g>
<!-- Node21&#45;&gt;Node22 -->
<g id="edge27" class="edge">
<title>Node21&#45;&gt;Node22</title>
<path fill="none" stroke="midnightblue" d="M597.26,-301.85C581.91,-291 561.11,-276.3 545.94,-265.59"/>
<polygon fill="midnightblue" stroke="midnightblue" points="595.41,-304.82 605.59,-307.73 599.44,-299.1 595.41,-304.82"/>
</g>
<!-- Node22&#45;&gt;Node19 -->
<g id="edge28" class="edge">
<title>Node22&#45;&gt;Node19</title>
<path fill="none" stroke="midnightblue" d="M486.72,-231.13C459.97,-218.62 425.79,-202.64 405.19,-193.01"/>
<polygon fill="midnightblue" stroke="midnightblue" points="485.3,-234.33 495.84,-235.4 488.26,-227.99 485.3,-234.33"/>
</g>
<!-- Node23&#45;&gt;Node19 -->
<g id="edge31" class="edge">
<title>Node23&#45;&gt;Node19</title>
<path fill="none" stroke="midnightblue" d="M240.75,-232.27C279.53,-219.6 330.56,-202.93 360.96,-193.01"/>
<polygon fill="midnightblue" stroke="midnightblue" points="239.6,-228.96 231.18,-235.4 241.77,-235.62 239.6,-228.96"/>
</g>
<!-- Node24&#45;&gt;Node18 -->
<g id="edge33" class="edge">
<title>Node24&#45;&gt;Node18</title>
<path fill="none" stroke="midnightblue" d="M234.58,-363.31C251.86,-351.1 272.98,-336.18 285.96,-327.01"/>
<polygon fill="midnightblue" stroke="midnightblue" points="232.11,-360.77 225.96,-369.4 236.15,-366.48 232.11,-360.77"/>
</g>
<!-- Node25&#45;&gt;Node19 -->
<g id="edge36" class="edge">
<title>Node25&#45;&gt;Node19</title>
<path fill="none" stroke="midnightblue" d="M387,-230.54C387,-218.17 387,-202.62 387,-193.13"/>
<polygon fill="midnightblue" stroke="midnightblue" points="383.5,-230.73 387,-240.73 390.5,-230.73 383.5,-230.73"/>
</g>
<!-- Node26&#45;&gt;Node12 -->
<g id="edge38" class="edge">
<title>Node26&#45;&gt;Node12</title>
<path fill="none" stroke="midnightblue" d="M268.51,-775.85C261.42,-767.72 253.41,-757.41 248,-747 234.11,-720.3 229,-712.1 229,-682 229,-682 229,-682 229,-624 229,-583.17 213.89,-536.03 207.17,-517.06"/>
<polygon fill="midnightblue" stroke="midnightblue" points="266.1,-778.4 275.42,-783.43 271.27,-773.68 266.1,-778.4"/>
</g>
<!-- Node27 -->
<g id="node27" class="node">
<title>Node27</title>
<g id="a_node27"><a xlink:href="tls__endpoint_8h.html" target="_top" xlink:title=" ">
<polygon fill="white" stroke="black" points="408,-727.5 408,-746.5 552,-746.5 552,-727.5 408,-727.5"/>
<text text-anchor="middle" x="480" y="-734.5" font-family="Helvetica,sans-Serif" font-size="10.00">src/enclave/tls_endpoint.h</text>
</a>
</g>
</g>
<!-- Node26&#45;&gt;Node27 -->
<g id="edge39" class="edge">
<title>Node26&#45;&gt;Node27</title>
<path fill="none" stroke="midnightblue" d="M325.02,-780.7C362.01,-770.51 415.6,-755.74 449.09,-746.52"/>
<polygon fill="midnightblue" stroke="midnightblue" points="323.77,-777.41 315.06,-783.44 325.63,-784.16 323.77,-777.41"/>
</g>
<!-- Node39 -->
<g id="node39" class="node">
<title>Node39</title>
<g id="a_node39"><a xlink:href="client_8h.html" target="_top" xlink:title=" ">
<polygon fill="white" stroke="black" points="77.5,-559.5 77.5,-578.5 162.5,-578.5 162.5,-559.5 77.5,-559.5"/>
<text text-anchor="middle" x="120" y="-566.5" font-family="Helvetica,sans-Serif" font-size="10.00">src/tls/client.h</text>
</a>
</g>
</g>
<!-- Node26&#45;&gt;Node39 -->
<g id="edge64" class="edge">
<title>Node26&#45;&gt;Node39</title>
<path fill="none" stroke="midnightblue" d="M256.73,-778.46C242.99,-770.65 226.79,-759.84 215,-747 164.76,-692.28 132.36,-606.08 122.89,-578.67"/>
<polygon fill="midnightblue" stroke="midnightblue" points="255.31,-781.67 265.77,-783.37 258.66,-775.52 255.31,-781.67"/>
</g>
<!-- Node40 -->
<g id="node40" class="node">
<title>Node40</title>
<g id="a_node40"><a xlink:href="server_8h.html" target="_top" xlink:title=" ">
<polygon fill="white" stroke="black" points="257,-727.5 257,-746.5 345,-746.5 345,-727.5 257,-727.5"/>
<text text-anchor="middle" x="301" y="-734.5" font-family="Helvetica,sans-Serif" font-size="10.00">src/tls/server.h</text>
</a>
</g>
</g>
<!-- Node26&#45;&gt;Node40 -->
<g id="edge67" class="edge">
<title>Node26&#45;&gt;Node40</title>
<path fill="none" stroke="midnightblue" d="M289.86,-773.4C292.7,-764.36 295.98,-753.94 298.25,-746.75"/>
<polygon fill="midnightblue" stroke="midnightblue" points="286.47,-772.49 286.81,-783.08 293.15,-774.6 286.47,-772.49"/>
</g>
<!-- Node28 -->
<g id="node28" class="node">
<title>Node28</title>
<g id="a_node28"><a xlink:href="http__parser_8h.html" target="_top" xlink:title=" ">
<polygon fill="white" stroke="black" points="504,-615.5 504,-634.5 624,-634.5 624,-615.5 504,-615.5"/>
<text text-anchor="middle" x="564" y="-622.5" font-family="Helvetica,sans-Serif" font-size="10.00">src/http/http_parser.h</text>
</a>
</g>
</g>
<!-- Node27&#45;&gt;Node28 -->
<g id="edge40" class="edge">
<title>Node27&#45;&gt;Node28</title>
<path fill="none" stroke="midnightblue" d="M482.49,-716.94C485.06,-703.13 490.13,-684.58 500,-671 511.81,-654.74 531.36,-642.24 545.75,-634.59"/>
<polygon fill="midnightblue" stroke="midnightblue" points="478.97,-716.78 480.88,-727.2 485.89,-717.87 478.97,-716.78"/>
</g>
<!-- Node38 -->
<g id="node38" class="node">
<title>Node38</title>
<g id="a_node38"><a xlink:href="http__proc_8h.html" target="_top" xlink:title=" ">
<polygon fill="white" stroke="black" points="508.5,-671.5 508.5,-690.5 619.5,-690.5 619.5,-671.5 508.5,-671.5"/>
<text text-anchor="middle" x="564" y="-678.5" font-family="Helvetica,sans-Serif" font-size="10.00">src/http/http_proc.h</text>
</a>
</g>
</g>
<!-- Node27&#45;&gt;Node38 -->
<g id="edge62" class="edge">
<title>Node27&#45;&gt;Node38</title>
<path fill="none" stroke="midnightblue" d="M501.93,-721.9C517.34,-712 537.45,-699.07 550.54,-690.65"/>
<polygon fill="midnightblue" stroke="midnightblue" points="500.02,-718.97 493.5,-727.32 503.8,-724.86 500.02,-718.97"/>
</g>
<!-- Node28&#45;&gt;Node4 -->
<g id="edge41" class="edge">
<title>Node28&#45;&gt;Node4</title>
<path fill="none" stroke="midnightblue" d="M634.34,-616C681.78,-609.29 745.28,-597.72 799,-579 840.95,-564.39 885.98,-538.59 911.98,-522.58"/>
<polygon fill="midnightblue" stroke="midnightblue" points="633.6,-612.57 624.17,-617.4 634.55,-619.5 633.6,-612.57"/>
</g>
<!-- Node28&#45;&gt;Node15 -->
<g id="edge42" class="edge">
<title>Node28&#45;&gt;Node15</title>
<path fill="none" stroke="midnightblue" d="M493.88,-615.34C437.63,-604.29 362.16,-579.3 325,-523 317.41,-511.5 317.59,-503.61 325,-492 337.09,-473.07 359.42,-461.98 379.61,-455.55"/>
<polygon fill="midnightblue" stroke="midnightblue" points="493.32,-618.8 503.79,-617.19 494.6,-611.92 493.32,-618.8"/>
</g>
<!-- Node29 -->
<g id="node29" class="node">
<title>Node29</title>
<g id="a_node29"><a xlink:href="http__jwt_8h.html" target="_top" xlink:title=" ">
<polygon fill="white" stroke="black" points="464.5,-559.5 464.5,-578.5 569.5,-578.5 569.5,-559.5 464.5,-559.5"/>
<text text-anchor="middle" x="517" y="-566.5" font-family="Helvetica,sans-Serif" font-size="10.00">src/http/http_jwt.h</text>
</a>
</g>
</g>
<!-- Node28&#45;&gt;Node29 -->
<g id="edge43" class="edge">
<title>Node28&#45;&gt;Node29</title>
<path fill="none" stroke="midnightblue" d="M549.58,-607.43C541.34,-597.97 531.35,-586.48 524.62,-578.75"/>
<polygon fill="midnightblue" stroke="midnightblue" points="547.03,-609.84 556.24,-615.08 552.31,-605.24 547.03,-609.84"/>
</g>
<!-- Node34 -->
<g id="node34" class="node">
<title>Node34</title>
<g id="a_node34"><a xlink:href="http__rpc__context_8h.html" target="_top" xlink:title=" ">
<polygon fill="white" stroke="black" points="545.5,-498 545.5,-517 692.5,-517 692.5,-498 545.5,-498"/>
<text text-anchor="middle" x="619" y="-505" font-family="Helvetica,sans-Serif" font-size="10.00">src/http/http_rpc_context.h</text>
</a>
</g>
</g>
<!-- Node28&#45;&gt;Node34 -->
<g id="edge52" class="edge">
<title>Node28&#45;&gt;Node34</title>
<path fill="none" stroke="midnightblue" d="M572.49,-606.18C584.45,-581.06 605.82,-536.19 614.82,-517.28"/>
<polygon fill="midnightblue" stroke="midnightblue" points="569.27,-604.79 568.13,-615.32 575.59,-607.79 569.27,-604.79"/>
</g>
<!-- Node36 -->
<g id="node36" class="node">
<title>Node36</title>
<g id="a_node36"><a xlink:href="http__sig_8h.html" target="_top" xlink:title=" ">
<polygon fill="white" stroke="black" points="686,-559.5 686,-578.5 790,-578.5 790,-559.5 686,-559.5"/>
<text text-anchor="middle" x="738" y="-566.5" font-family="Helvetica,sans-Serif" font-size="10.00">src/http/http_sig.h</text>
</a>
</g>
</g>
<!-- Node28&#45;&gt;Node36 -->
<g id="edge58" class="edge">
<title>Node28&#45;&gt;Node36</title>
<path fill="none" stroke="midnightblue" d="M601.26,-612.44C634.07,-602.26 681.08,-587.66 710.56,-578.52"/>
<polygon fill="midnightblue" stroke="midnightblue" points="600.08,-609.14 591.57,-615.44 602.16,-615.82 600.08,-609.14"/>
</g>
<!-- Node30 -->
<g id="node30" class="node">
<title>Node30</title>
<g id="a_node30"><a xlink:href="jwt__auth_8cpp.html" target="_top" xlink:title=" ">
<polygon fill="white" stroke="black" points="333.5,-492.5 333.5,-522.5 488.5,-522.5 488.5,-492.5 333.5,-492.5"/>
<text text-anchor="start" x="341.5" y="-510.5" font-family="Helvetica,sans-Serif" font-size="10.00">src/endpoints/authentication</text>
<text text-anchor="middle" x="411" y="-499.5" font-family="Helvetica,sans-Serif" font-size="10.00">/jwt_auth.cpp</text>
</a>
</g>
</g>
<!-- Node29&#45;&gt;Node30 -->
<g id="edge44" class="edge">
<title>Node29&#45;&gt;Node30</title>
<path fill="none" stroke="midnightblue" d="M493.02,-554.54C476.01,-544.99 453.22,-532.2 435.98,-522.52"/>
<polygon fill="midnightblue" stroke="midnightblue" points="491.38,-557.63 501.81,-559.48 494.81,-551.53 491.38,-557.63"/>
</g>
<!-- Node31 -->
<g id="node31" class="node">
<title>Node31</title>
<g id="a_node31"><a xlink:href="frontend_8h.html" target="_top" xlink:title=" ">
<polygon fill="white" stroke="black" points="660.5,-375 660.5,-394 789.5,-394 789.5,-375 660.5,-375"/>
<text text-anchor="middle" x="725" y="-382" font-family="Helvetica,sans-Serif" font-size="10.00">src/node/rpc/frontend.h</text>
</a>
</g>
</g>
<!-- Node29&#45;&gt;Node31 -->
<g id="edge45" class="edge">
<title>Node29&#45;&gt;Node31</title>
<path fill="none" stroke="midnightblue" d="M517.93,-548.94C519.62,-532.38 524.28,-508.51 537,-492 578.09,-438.66 653.99,-407.76 695.68,-394.06"/>
<polygon fill="midnightblue" stroke="midnightblue" points="514.43,-548.83 517.17,-559.06 521.41,-549.35 514.43,-548.83"/>
</g>
<!-- Node31&#45;&gt;Node19 -->
<g id="edge46" class="edge">
<title>Node31&#45;&gt;Node19</title>
<path fill="none" stroke="midnightblue" d="M724.63,-364.57C723.41,-346.88 719.27,-320.5 706,-302 673.07,-256.1 650.13,-256.74 598,-235 547.94,-214.12 487.43,-200.75 444.08,-193.05"/>
<polygon fill="midnightblue" stroke="midnightblue" points="721.14,-364.93 725.08,-374.77 728.14,-364.62 721.14,-364.93"/>
</g>
<!-- Node31&#45;&gt;Node21 -->
<g id="edge49" class="edge">
<title>Node31&#45;&gt;Node21</title>
<path fill="none" stroke="midnightblue" d="M701.86,-369.44C680.67,-356.57 649.98,-337.93 632.2,-327.13"/>
<polygon fill="midnightblue" stroke="midnightblue" points="700.21,-372.53 710.57,-374.73 703.84,-366.55 700.21,-372.53"/>
</g>
<!-- Node32 -->
<g id="node32" class="node">
<title>Node32</title>
<g id="a_node32"><a xlink:href="member__frontend_8h.html" target="_top" xlink:title=" ">
<polygon fill="white" stroke="black" points="769,-168.5 769,-198.5 889,-198.5 889,-168.5 769,-168.5"/>
<text text-anchor="start" x="777" y="-186.5" font-family="Helvetica,sans-Serif" font-size="10.00">src/node/rpc/member</text>
<text text-anchor="middle" x="829" y="-175.5" font-family="Helvetica,sans-Serif" font-size="10.00">_frontend.h</text>
</a>
</g>
</g>
<!-- Node31&#45;&gt;Node32 -->
<g id="edge47" class="edge">
<title>Node31&#45;&gt;Node32</title>
<path fill="none" stroke="midnightblue" d="M744.62,-368.32C755.43,-359.1 768.36,-346.52 777,-333 805.53,-288.34 820.68,-226.09 826.35,-198.55"/>
<polygon fill="midnightblue" stroke="midnightblue" points="742.39,-365.63 736.88,-374.68 746.83,-371.04 742.39,-365.63"/>
</g>
<!-- Node33 -->
<g id="node33" class="node">
<title>Node33</title>
<g id="a_node33"><a xlink:href="user__frontend_8h.html" target="_top" xlink:title=" ">
<polygon fill="white" stroke="black" points="645.5,-112.5 645.5,-131.5 800.5,-131.5 800.5,-112.5 645.5,-112.5"/>
<text text-anchor="middle" x="723" y="-119.5" font-family="Helvetica,sans-Serif" font-size="10.00">src/node/rpc/user_frontend.h</text>
</a>
</g>
</g>
<!-- Node31&#45;&gt;Node33 -->
<g id="edge50" class="edge">
<title>Node31&#45;&gt;Node33</title>
<path fill="none" stroke="midnightblue" d="M725.46,-364.66C725.67,-355.17 725.9,-343.47 726,-333 726.77,-254.98 724.16,-160.65 723.28,-131.8"/>
<polygon fill="midnightblue" stroke="midnightblue" points="721.96,-364.84 725.22,-374.92 728.95,-365.01 721.96,-364.84"/>
</g>
<!-- Node32&#45;&gt;Node13 -->
<g id="edge48" class="edge">
<title>Node32&#45;&gt;Node13</title>
<path fill="none" stroke="midnightblue" d="M828.53,-158.17C826.93,-142.9 822.32,-123.91 810,-112 791.32,-93.95 727.53,-81.54 678.34,-74.39"/>
<polygon fill="midnightblue" stroke="midnightblue" points="825.06,-158.74 829.24,-168.48 832.05,-158.27 825.06,-158.74"/>
</g>
<!-- Node33&#45;&gt;Node13 -->
<g id="edge51" class="edge">
<title>Node33&#45;&gt;Node13</title>
<path fill="none" stroke="midnightblue" d="M696.94,-107.73C677.32,-97.73 650.97,-84.31 633.99,-75.65"/>
<polygon fill="midnightblue" stroke="midnightblue" points="695.47,-110.9 705.97,-112.32 698.65,-104.67 695.47,-110.9"/>
</g>
<!-- Node34&#45;&gt;Node15 -->
<g id="edge53" class="edge">
<title>Node34&#45;&gt;Node15</title>
<path fill="none" stroke="midnightblue" d="M581.02,-495.03C542.73,-483.46 484.53,-465.88 450.17,-455.51"/>
<polygon fill="midnightblue" stroke="midnightblue" points="580.19,-498.43 590.77,-497.98 582.21,-491.73 580.19,-498.43"/>
</g>
<!-- Node34&#45;&gt;Node22 -->
<g id="edge54" class="edge">
<title>Node34&#45;&gt;Node22</title>
<path fill="none" stroke="midnightblue" d="M606.88,-489.14C586.61,-459.02 546.43,-394.38 530,-333 523.85,-310.01 524.05,-282.1 524.91,-265.62"/>
<polygon fill="midnightblue" stroke="midnightblue" points="604.17,-491.38 612.71,-497.66 609.95,-487.43 604.17,-491.38"/>
</g>
<!-- Node35 -->
<g id="node35" class="node">
<title>Node35</title>
<g id="a_node35"><a xlink:href="forwarder_8h.html" target="_top" xlink:title=" ">
<polygon fill="white" stroke="black" points="658,-436.5 658,-455.5 792,-455.5 792,-436.5 658,-436.5"/>
<text text-anchor="middle" x="725" y="-443.5" font-family="Helvetica,sans-Serif" font-size="10.00">src/node/rpc/forwarder.h</text>
</a>
</g>
</g>
<!-- Node34&#45;&gt;Node35 -->
<g id="edge55" class="edge">
<title>Node34&#45;&gt;Node35</title>
<path fill="none" stroke="midnightblue" d="M642.95,-493.06C663.46,-481.54 692.38,-465.31 709.84,-455.51"/>
<polygon fill="midnightblue" stroke="midnightblue" points="641.19,-490.03 634.19,-497.98 644.62,-496.13 641.19,-490.03"/>
</g>
<!-- Node35&#45;&gt;Node13 -->
<g id="edge56" class="edge">
<title>Node35&#45;&gt;Node13</title>
<path fill="none" stroke="midnightblue" d="M778.51,-433.93C835.32,-418.67 917,-385.15 917,-318.5 917,-318.5 917,-318.5 917,-182.5 917,-132.73 874.93,-133.41 830,-112 781.89,-89.08 722.16,-77.76 678.21,-72.21"/>
<polygon fill="midnightblue" stroke="midnightblue" points="777.38,-430.6 768.57,-436.48 779.12,-437.38 777.38,-430.6"/>
</g>
<!-- Node35&#45;&gt;Node31 -->
<g id="edge57" class="edge">
<title>Node35&#45;&gt;Node31</title>
<path fill="none" stroke="midnightblue" d="M725,-426.32C725,-415.5 725,-402.4 725,-394.01"/>
<polygon fill="midnightblue" stroke="midnightblue" points="721.5,-426.48 725,-436.48 728.5,-426.48 721.5,-426.48"/>
</g>
<!-- Node36&#45;&gt;Node4 -->
<g id="edge59" class="edge">
<title>Node36&#45;&gt;Node4</title>
<path fill="none" stroke="midnightblue" d="M775.94,-556.48C807.89,-546.78 853.72,-532.87 887.81,-522.52"/>
<polygon fill="midnightblue" stroke="midnightblue" points="774.63,-553.22 766.08,-559.48 776.67,-559.92 774.63,-553.22"/>
</g>
<!-- Node36&#45;&gt;Node34 -->
<g id="edge61" class="edge">
<title>Node36&#45;&gt;Node34</title>
<path fill="none" stroke="midnightblue" d="M711.73,-554.87C688.67,-543.33 655.8,-526.9 636.02,-517.01"/>
<polygon fill="midnightblue" stroke="midnightblue" points="710.44,-558.13 720.95,-559.48 713.57,-551.87 710.44,-558.13"/>
</g>
<!-- Node37 -->
<g id="node37" class="node">
<title>Node37</title>
<g id="a_node37"><a xlink:href="sig__auth_8cpp.html" target="_top" xlink:title=" ">
<polygon fill="white" stroke="black" points="710.5,-492.5 710.5,-522.5 865.5,-522.5 865.5,-492.5 710.5,-492.5"/>
<text text-anchor="start" x="718.5" y="-510.5" font-family="Helvetica,sans-Serif" font-size="10.00">src/endpoints/authentication</text>
<text text-anchor="middle" x="788" y="-499.5" font-family="Helvetica,sans-Serif" font-size="10.00">/sig_auth.cpp</text>
</a>
</g>
</g>
<!-- Node36&#45;&gt;Node37 -->
<g id="edge60" class="edge">
<title>Node36&#45;&gt;Node37</title>
<path fill="none" stroke="midnightblue" d="M751.6,-551.81C759.3,-542.65 768.84,-531.3 776.22,-522.52"/>
<polygon fill="midnightblue" stroke="midnightblue" points="748.92,-549.57 745.16,-559.48 754.28,-554.07 748.92,-549.57"/>
</g>
<!-- Node38&#45;&gt;Node28 -->
<g id="edge63" class="edge">
<title>Node38&#45;&gt;Node28</title>
<path fill="none" stroke="midnightblue" d="M564,-660.8C564,-651.91 564,-641.78 564,-634.75"/>
<polygon fill="midnightblue" stroke="midnightblue" points="560.5,-661.08 564,-671.08 567.5,-661.08 560.5,-661.08"/>
</g>
<!-- Node39&#45;&gt;Node12 -->
<g id="edge65" class="edge">
<title>Node39&#45;&gt;Node12</title>
<path fill="none" stroke="midnightblue" d="M140.31,-553.61C156.47,-542.17 178.52,-526.55 191.99,-517.01"/>
<polygon fill="midnightblue" stroke="midnightblue" points="138.17,-550.84 132.04,-559.48 142.22,-556.55 138.17,-550.84"/>
</g>
<!-- Node39&#45;&gt;Node19 -->
<g id="edge66" class="edge">
<title>Node39&#45;&gt;Node19</title>
<path fill="none" stroke="midnightblue" d="M100.7,-552.78C76.46,-531.8 38,-491.49 38,-447 38,-447 38,-447 38,-316.5 38,-273.77 53.49,-258.76 89,-235 126.67,-209.79 249.2,-195.61 324.9,-189.05"/>
<polygon fill="midnightblue" stroke="midnightblue" points="98.68,-555.65 108.6,-559.37 103.17,-550.28 98.68,-555.65"/>
</g>
<!-- Node40&#45;&gt;Node12 -->
<g id="edge68" class="edge">
<title>Node40&#45;&gt;Node12</title>
<path fill="none" stroke="midnightblue" d="M297.12,-717.41C289.71,-684.22 271.71,-613.19 243,-559 234.5,-542.95 220.88,-526.74 212.2,-517.16"/>
<polygon fill="midnightblue" stroke="midnightblue" points="293.76,-718.45 299.29,-727.48 300.6,-716.97 293.76,-718.45"/>
</g>
</g>
</svg>
