<?xml version="1.0" encoding="UTF-8" standalone="no"?>
<!DOCTYPE svg PUBLIC "-//W3C//DTD SVG 1.1//EN"
 "http://www.w3.org/Graphics/SVG/1.1/DTD/svg11.dtd">
<!-- Generated by graphviz version 2.43.0 (0)
 -->
<!-- Title: src/ds/ccf_exception.h Pages: 1 -->
<!--zoomable 587 -->
<svg id="main" version="1.1" xmlns="http://www.w3.org/2000/svg" xmlns:xlink="http://www.w3.org/1999/xlink" xml:space="preserve" onload="init(evt)">
<style type="text/css"><![CDATA[
.edge:hover path { stroke: red; }
.edge:hover polygon { stroke: red; fill: red; }
]]></style>
<script type="text/javascript"><![CDATA[
var edges = document.getElementsByTagName('g');
if (edges && edges.length) {
  for (var i=0;i<edges.length;i++) {
    if (edges[i].id.substr(0,4)=='edge') {
      edges[i].setAttribute('class','edge');
    }
  }
}
]]></script>
        <defs>
                <circle id="rim" cx="0" cy="0" r="7"/>
                <circle id="rim2" cx="0" cy="0" r="3.5"/>
                <g id="zoomPlus">
                        <use xlink:href="#rim" fill="#404040">
                                <set attributeName="fill" to="#808080" begin="zoomplus.mouseover" end="zoomplus.mouseout"/>
                        </use>
                        <path d="M-4,0h8M0,-4v8" fill="none" stroke="white" stroke-width="1.5" pointer-events="none"/>
                </g>
                <g id="zoomMin">
                        <use xlink:href="#rim" fill="#404040">
                                <set attributeName="fill" to="#808080" begin="zoomminus.mouseover" end="zoomminus.mouseout"/>
                        </use>
                        <path d="M-4,0h8" fill="none" stroke="white" stroke-width="1.5" pointer-events="none"/>
                </g>
                <g id="dirArrow">
                        <path fill="none" stroke="white" stroke-width="1.5" d="M0,-3.0v7 M-2.5,-0.5L0,-3.0L2.5,-0.5"/>
                </g>
               <g id="resetDef">
                       <use xlink:href="#rim2" fill="#404040">
                               <set attributeName="fill" to="#808080" begin="reset.mouseover" end="reset.mouseout"/>
                       </use>
               </g>
        </defs>

<script type="text/javascript">
var viewWidth = 2464;
var viewHeight = 587;
var sectionId = 'dynsection-1';
</script>
<script xlink:href="svgpan.js"/>
<svg id="graph" class="graph">
<g id="viewport">
<title>src/ds/ccf_exception.h</title>
<polygon fill="white" stroke="transparent" points="-4,4 -4,-583 2459.5,-583 2459.5,4 -4,4"/>
<!-- Node1 -->
<g id="node1" class="node">
<title>Node1</title>
<g id="a_node1"><a xlink:title=" ">
<polygon fill="#bfbfbf" stroke="black" points="641.5,-559.5 641.5,-578.5 766.5,-578.5 766.5,-559.5 641.5,-559.5"/>
<text text-anchor="middle" x="704" y="-566.5" font-family="Helvetica,sans-Serif" font-size="10.00">src/ds/ccf_exception.h</text>
</a>
</g>
</g>
<!-- Node2 -->
<g id="node2" class="node">
<title>Node2</title>
<g id="a_node2"><a xlink:href="enclave_2main_8cpp.html" target="_top" xlink:title=" ">
<polygon fill="white" stroke="black" points="527,-0.5 527,-19.5 647,-19.5 647,-0.5 527,-0.5"/>
<text text-anchor="middle" x="587" y="-7.5" font-family="Helvetica,sans-Serif" font-size="10.00">src/enclave/main.cpp</text>
</a>
</g>
</g>
<!-- Node1&#45;&gt;Node2 -->
<g id="edge1" class="edge">
<title>Node1&#45;&gt;Node2</title>
<path fill="none" stroke="midnightblue" d="M631.04,-563.61C450.99,-551.82 0,-515.94 0,-452.5 0,-452.5 0,-452.5 0,-121 0,-67.8 377.33,-29.2 526.94,-15.98"/>
<polygon fill="midnightblue" stroke="midnightblue" points="631.01,-567.12 641.22,-564.27 631.46,-560.13 631.01,-567.12"/>
</g>
<!-- Node3 -->
<g id="node3" class="node">
<title>Node3</title>
<g id="a_node3"><a xlink:href="oe__init_8h.html" target="_top" xlink:title=" ">
<polygon fill="white" stroke="black" points="2338.5,-112.5 2338.5,-131.5 2455.5,-131.5 2455.5,-112.5 2338.5,-112.5"/>
<text text-anchor="middle" x="2397" y="-119.5" font-family="Helvetica,sans-Serif" font-size="10.00">src/enclave/oe_init.h</text>
</a>
</g>
</g>
<!-- Node1&#45;&gt;Node3 -->
<g id="edge2" class="edge">
<title>Node1&#45;&gt;Node3</title>
<path fill="none" stroke="midnightblue" d="M776.71,-566.83C1097.7,-561.19 2372,-533.69 2372,-452.5 2372,-452.5 2372,-452.5 2372,-249.5 2372,-204.5 2387.41,-152.18 2394.03,-131.78"/>
<polygon fill="midnightblue" stroke="midnightblue" points="776.53,-563.33 766.59,-567 776.65,-570.33 776.53,-563.33"/>
</g>
<!-- Node5 -->
<g id="node5" class="node">
<title>Node5</title>
<g id="a_node5"><a xlink:href="store_8h.html" target="_top" xlink:title=" ">
<polygon fill="white" stroke="black" points="662.5,-503.5 662.5,-522.5 745.5,-522.5 745.5,-503.5 662.5,-503.5"/>
<text text-anchor="middle" x="704" y="-510.5" font-family="Helvetica,sans-Serif" font-size="10.00">src/kv/store.h</text>
</a>
</g>
</g>
<!-- Node1&#45;&gt;Node5 -->
<g id="edge5" class="edge">
<title>Node1&#45;&gt;Node5</title>
<path fill="none" stroke="midnightblue" d="M704,-548.8C704,-539.91 704,-529.78 704,-522.75"/>
<polygon fill="midnightblue" stroke="midnightblue" points="700.5,-549.08 704,-559.08 707.5,-549.08 700.5,-549.08"/>
</g>
<!-- Node4 -->
<g id="node4" class="node">
<title>Node4</title>
<g id="a_node4"><a xlink:href="enclave_2enclave_8h.html" target="_top" xlink:title=" ">
<polygon fill="white" stroke="black" points="1207,-56.5 1207,-75.5 1329,-75.5 1329,-56.5 1207,-56.5"/>
<text text-anchor="middle" x="1268" y="-63.5" font-family="Helvetica,sans-Serif" font-size="10.00">src/enclave/enclave.h</text>
</a>
</g>
</g>
<!-- Node3&#45;&gt;Node4 -->
<g id="edge3" class="edge">
<title>Node3&#45;&gt;Node4</title>
<path fill="none" stroke="midnightblue" d="M2328.46,-112.39C2326.96,-112.25 2325.47,-112.12 2324,-112 1946.59,-80.74 1491.41,-70.64 1329.11,-67.89"/>
<polygon fill="midnightblue" stroke="midnightblue" points="2328.18,-115.88 2338.47,-113.37 2328.86,-108.91 2328.18,-115.88"/>
</g>
<!-- Node4&#45;&gt;Node2 -->
<g id="edge4" class="edge">
<title>Node4&#45;&gt;Node2</title>
<path fill="none" stroke="midnightblue" d="M1196.77,-59.35C1062.17,-48.68 772.73,-25.73 647.16,-15.77"/>
<polygon fill="midnightblue" stroke="midnightblue" points="1196.72,-62.86 1206.97,-60.16 1197.27,-55.88 1196.72,-62.86"/>
</g>
<!-- Node6 -->
<g id="node6" class="node">
<title>Node6</title>
<g id="a_node6"><a xlink:href="indexer_8h.html" target="_top" xlink:title=" ">
<polygon fill="white" stroke="black" points="202.5,-442 202.5,-461 325.5,-461 325.5,-442 202.5,-442"/>
<text text-anchor="middle" x="264" y="-449" font-family="Helvetica,sans-Serif" font-size="10.00">src/indexing/indexer.h</text>
</a>
</g>
</g>
<!-- Node5&#45;&gt;Node6 -->
<g id="edge6" class="edge">
<title>Node5&#45;&gt;Node6</title>
<path fill="none" stroke="midnightblue" d="M652.19,-504.99C570.72,-493.98 412.99,-472.65 325.76,-460.85"/>
<polygon fill="midnightblue" stroke="midnightblue" points="651.83,-508.48 662.21,-506.35 652.77,-501.54 651.83,-508.48"/>
</g>
<!-- Node9 -->
<g id="node9" class="node">
<title>Node9</title>
<g id="a_node9"><a xlink:href="visit__each__entry__in__map_8cpp.html" target="_top" xlink:title=" ">
<polygon fill="white" stroke="black" points="1023.5,-436.5 1023.5,-466.5 1184.5,-466.5 1184.5,-436.5 1023.5,-436.5"/>
<text text-anchor="start" x="1031.5" y="-454.5" font-family="Helvetica,sans-Serif" font-size="10.00">src/indexing/strategies</text>
<text text-anchor="middle" x="1104" y="-443.5" font-family="Helvetica,sans-Serif" font-size="10.00">/visit_each_entry_in_map.cpp</text>
</a>
</g>
</g>
<!-- Node5&#45;&gt;Node9 -->
<g id="edge11" class="edge">
<title>Node5&#45;&gt;Node9</title>
<path fill="none" stroke="midnightblue" d="M756.04,-504.4C816.77,-495.52 920.18,-480.33 1009,-467 1013.7,-466.29 1018.54,-465.57 1023.41,-464.83"/>
<polygon fill="midnightblue" stroke="midnightblue" points="755.33,-500.97 745.94,-505.88 756.35,-507.89 755.33,-500.97"/>
</g>
<!-- Node10 -->
<g id="node10" class="node">
<title>Node10</title>
<g id="a_node10"><a xlink:href="historical__queries_8h.html" target="_top" xlink:title=" ">
<polygon fill="white" stroke="black" points="38,-302.5 38,-332.5 144,-332.5 144,-302.5 38,-302.5"/>
<text text-anchor="start" x="46" y="-320.5" font-family="Helvetica,sans-Serif" font-size="10.00">src/node/historical</text>
<text text-anchor="middle" x="91" y="-309.5" font-family="Helvetica,sans-Serif" font-size="10.00">_queries.h</text>
</a>
</g>
</g>
<!-- Node5&#45;&gt;Node10 -->
<g id="edge12" class="edge">
<title>Node5&#45;&gt;Node10</title>
<path fill="none" stroke="midnightblue" d="M652.09,-509.93C530,-504.71 232,-489.77 193,-467 139.25,-435.62 107.43,-363.29 95.92,-332.64"/>
<polygon fill="midnightblue" stroke="midnightblue" points="652.17,-513.44 662.3,-510.36 652.46,-506.44 652.17,-513.44"/>
</g>
<!-- Node12 -->
<g id="node12" class="node">
<title>Node12</title>
<g id="a_node12"><a xlink:href="history_8h.html" target="_top" xlink:title=" ">
<polygon fill="white" stroke="black" points="427,-442 427,-461 529,-461 529,-442 427,-442"/>
<text text-anchor="middle" x="478" y="-449" font-family="Helvetica,sans-Serif" font-size="10.00">src/node/history.h</text>
</a>
</g>
</g>
<!-- Node5&#45;&gt;Node12 -->
<g id="edge16" class="edge">
<title>Node5&#45;&gt;Node12</title>
<path fill="none" stroke="midnightblue" d="M661.82,-500.9C617.93,-489.34 550.15,-471.5 510.32,-461.01"/>
<polygon fill="midnightblue" stroke="midnightblue" points="661.06,-504.31 671.62,-503.48 662.84,-497.54 661.06,-504.31"/>
</g>
<!-- Node20 -->
<g id="node20" class="node">
<title>Node20</title>
<g id="a_node20"><a xlink:href="frontend_8h.html" target="_top" xlink:title=" ">
<polygon fill="white" stroke="black" points="1303.5,-375 1303.5,-394 1432.5,-394 1432.5,-375 1303.5,-375"/>
<text text-anchor="middle" x="1368" y="-382" font-family="Helvetica,sans-Serif" font-size="10.00">src/node/rpc/frontend.h</text>
</a>
</g>
</g>
<!-- Node5&#45;&gt;Node20 -->
<g id="edge29" class="edge">
<title>Node5&#45;&gt;Node20</title>
<path fill="none" stroke="midnightblue" d="M756.06,-511.1C812.5,-508.39 904.13,-498.9 976,-467 996.24,-458.02 994.6,-444.62 1015,-436 1130.58,-387.17 1171.17,-420.23 1295,-400 1305.58,-398.27 1316.98,-396.14 1327.55,-394.05"/>
<polygon fill="midnightblue" stroke="midnightblue" points="755.78,-507.6 745.94,-511.53 756.08,-514.6 755.78,-507.6"/>
</g>
<!-- Node25 -->
<g id="node25" class="node">
<title>Node25</title>
<g id="a_node25"><a xlink:href="network__tables_8h.html" target="_top" xlink:title=" ">
<polygon fill="white" stroke="black" points="855,-436.5 855,-466.5 967,-466.5 967,-436.5 855,-436.5"/>
<text text-anchor="start" x="863" y="-454.5" font-family="Helvetica,sans-Serif" font-size="10.00">src/service/network</text>
<text text-anchor="middle" x="911" y="-443.5" font-family="Helvetica,sans-Serif" font-size="10.00">_tables.h</text>
</a>
</g>
</g>
<!-- Node5&#45;&gt;Node25 -->
<g id="edge39" class="edge">
<title>Node5&#45;&gt;Node25</title>
<path fill="none" stroke="midnightblue" d="M743.63,-500.61C777.4,-490.9 826.06,-476.92 862.21,-466.52"/>
<polygon fill="midnightblue" stroke="midnightblue" points="742.3,-497.35 733.66,-503.48 744.24,-504.08 742.3,-497.35"/>
</g>
<!-- Node7 -->
<g id="node7" class="node">
<title>Node7</title>
<g id="a_node7"><a xlink:href="node__state_8h.html" target="_top" xlink:title=" ">
<polygon fill="white" stroke="black" points="917,-174 917,-193 1041,-193 1041,-174 917,-174"/>
<text text-anchor="middle" x="979" y="-181" font-family="Helvetica,sans-Serif" font-size="10.00">src/node/node_state.h</text>
</a>
</g>
</g>
<!-- Node6&#45;&gt;Node7 -->
<g id="edge7" class="edge">
<title>Node6&#45;&gt;Node7</title>
<path fill="none" stroke="midnightblue" d="M248.69,-433.94C213.94,-394.4 136.23,-293.39 191,-235 215.74,-208.63 735.01,-191.42 916.81,-186.19"/>
<polygon fill="midnightblue" stroke="midnightblue" points="246.47,-436.72 255.76,-441.82 251.68,-432.04 246.47,-436.72"/>
</g>
<!-- Node7&#45;&gt;Node4 -->
<g id="edge8" class="edge">
<title>Node7&#45;&gt;Node4</title>
<path fill="none" stroke="midnightblue" d="M1010.26,-170.01C1069.3,-146.41 1195.81,-95.85 1246.42,-75.62"/>
<polygon fill="midnightblue" stroke="midnightblue" points="1008.71,-166.86 1000.72,-173.82 1011.31,-173.36 1008.71,-166.86"/>
</g>
<!-- Node8 -->
<g id="node8" class="node">
<title>Node8</title>
<g id="a_node8"><a xlink:href="gov__effects_8h.html" target="_top" xlink:title=" ">
<polygon fill="white" stroke="black" points="931,-112.5 931,-131.5 1075,-131.5 1075,-112.5 931,-112.5"/>
<text text-anchor="middle" x="1003" y="-119.5" font-family="Helvetica,sans-Serif" font-size="10.00">src/node/rpc/gov_effects.h</text>
</a>
</g>
</g>
<!-- Node7&#45;&gt;Node8 -->
<g id="edge9" class="edge">
<title>Node7&#45;&gt;Node8</title>
<path fill="none" stroke="midnightblue" d="M986.26,-164.5C990.68,-153.55 996.11,-140.07 999.57,-131.51"/>
<polygon fill="midnightblue" stroke="midnightblue" points="982.93,-163.39 982.44,-173.98 989.43,-166.01 982.93,-163.39"/>
</g>
<!-- Node8&#45;&gt;Node4 -->
<g id="edge10" class="edge">
<title>Node8&#45;&gt;Node4</title>
<path fill="none" stroke="midnightblue" d="M1054.97,-110.41C1105.05,-100.2 1179.86,-84.96 1226.21,-75.52"/>
<polygon fill="midnightblue" stroke="midnightblue" points="1054.09,-107.02 1044.99,-112.44 1055.49,-113.88 1054.09,-107.02"/>
</g>
<!-- Node10&#45;&gt;Node4 -->
<g id="edge13" class="edge">
<title>Node10&#45;&gt;Node4</title>
<path fill="none" stroke="midnightblue" d="M106.46,-294.18C120.87,-275.22 144.14,-248.93 171,-235 471.24,-79.26 587.37,-161.15 922,-112 1021.64,-97.37 1137.78,-82.76 1206.98,-74.32"/>
<polygon fill="midnightblue" stroke="midnightblue" points="103.59,-292.18 100.48,-302.3 109.23,-296.33 103.59,-292.18"/>
</g>
<!-- Node11 -->
<g id="node11" class="node">
<title>Node11</title>
<g id="a_node11"><a xlink:href="historical__transaction__fetcher_8h.html" target="_top" xlink:title=" ">
<polygon fill="white" stroke="black" points="28.5,-168.5 28.5,-198.5 153.5,-198.5 153.5,-168.5 28.5,-168.5"/>
<text text-anchor="start" x="36.5" y="-186.5" font-family="Helvetica,sans-Serif" font-size="10.00">src/indexing/historical</text>
<text text-anchor="middle" x="91" y="-175.5" font-family="Helvetica,sans-Serif" font-size="10.00">_transaction_fetcher.h</text>
</a>
</g>
</g>
<!-- Node10&#45;&gt;Node11 -->
<g id="edge14" class="edge">
<title>Node10&#45;&gt;Node11</title>
<path fill="none" stroke="midnightblue" d="M91,-292.02C91,-264.51 91,-220.79 91,-198.52"/>
<polygon fill="midnightblue" stroke="midnightblue" points="87.5,-292.37 91,-302.37 94.5,-292.37 87.5,-292.37"/>
</g>
<!-- Node11&#45;&gt;Node4 -->
<g id="edge15" class="edge">
<title>Node11&#45;&gt;Node4</title>
<path fill="none" stroke="midnightblue" d="M107.99,-160.09C122.04,-143.49 143.6,-122.06 168,-112 264.02,-72.4 990.08,-67.61 1206.99,-67.06"/>
<polygon fill="midnightblue" stroke="midnightblue" points="104.95,-158.29 101.35,-168.25 110.38,-162.71 104.95,-158.29"/>
</g>
<!-- Node12&#45;&gt;Node7 -->
<g id="edge18" class="edge">
<title>Node12&#45;&gt;Node7</title>
<path fill="none" stroke="midnightblue" d="M474.92,-432.08C468.93,-389.12 461.17,-282.39 522,-235 582.06,-188.21 806.34,-183.11 916.77,-183.55"/>
<polygon fill="midnightblue" stroke="midnightblue" points="471.46,-432.62 476.43,-441.98 478.38,-431.56 471.46,-432.62"/>
</g>
<!-- Node12&#45;&gt;Node10 -->
<g id="edge17" class="edge">
<title>Node12&#45;&gt;Node10</title>
<path fill="none" stroke="midnightblue" d="M441.15,-438.87C409.49,-428.8 362.64,-413.74 322,-400 254.12,-377.04 175.52,-349 129.72,-332.51"/>
<polygon fill="midnightblue" stroke="midnightblue" points="440.28,-442.27 450.87,-441.96 442.4,-435.59 440.28,-442.27"/>
</g>
<!-- Node13 -->
<g id="node13" class="node">
<title>Node13</title>
<g id="a_node13"><a xlink:href="snapshot__serdes_8h.html" target="_top" xlink:title=" ">
<polygon fill="white" stroke="black" points="506,-308 506,-327 658,-327 658,-308 506,-308"/>
<text text-anchor="middle" x="582" y="-315" font-family="Helvetica,sans-Serif" font-size="10.00">src/node/snapshot_serdes.h</text>
</a>
</g>
</g>
<!-- Node12&#45;&gt;Node13 -->
<g id="edge19" class="edge">
<title>Node12&#45;&gt;Node13</title>
<path fill="none" stroke="midnightblue" d="M491.27,-433.66C513.7,-405.18 558.36,-348.5 575.29,-327.02"/>
<polygon fill="midnightblue" stroke="midnightblue" points="488.26,-431.82 484.82,-441.84 493.76,-436.15 488.26,-431.82"/>
</g>
<!-- Node15 -->
<g id="node15" class="node">
<title>Node15</title>
<g id="a_node15"><a xlink:href="tx__receipt_8h.html" target="_top" xlink:title=" ">
<polygon fill="white" stroke="black" points="330.5,-375 330.5,-394 449.5,-394 449.5,-375 330.5,-375"/>
<text text-anchor="middle" x="390" y="-382" font-family="Helvetica,sans-Serif" font-size="10.00">src/node/tx_receipt.h</text>
</a>
</g>
</g>
<!-- Node12&#45;&gt;Node15 -->
<g id="edge22" class="edge">
<title>Node12&#45;&gt;Node15</title>
<path fill="none" stroke="midnightblue" d="M457.78,-435.57C440.41,-422.74 415.97,-404.69 401.68,-394.13"/>
<polygon fill="midnightblue" stroke="midnightblue" points="456.01,-438.61 466.13,-441.73 460.17,-432.98 456.01,-438.61"/>
</g>
<!-- Node14 -->
<g id="node14" class="node">
<title>Node14</title>
<g id="a_node14"><a xlink:href="snapshotter_8h.html" target="_top" xlink:title=" ">
<polygon fill="white" stroke="black" points="530.5,-241 530.5,-260 657.5,-260 657.5,-241 530.5,-241"/>
<text text-anchor="middle" x="594" y="-248" font-family="Helvetica,sans-Serif" font-size="10.00">src/node/snapshotter.h</text>
</a>
</g>
</g>
<!-- Node13&#45;&gt;Node14 -->
<g id="edge20" class="edge">
<title>Node13&#45;&gt;Node14</title>
<path fill="none" stroke="midnightblue" d="M585.5,-297.54C587.78,-285.17 590.65,-269.62 592.41,-260.13"/>
<polygon fill="midnightblue" stroke="midnightblue" points="581.99,-297.26 583.62,-307.73 588.88,-298.54 581.99,-297.26"/>
</g>
<!-- Node14&#45;&gt;Node7 -->
<g id="edge21" class="edge">
<title>Node14&#45;&gt;Node7</title>
<path fill="none" stroke="midnightblue" d="M648.98,-239.13C656.7,-237.72 664.55,-236.31 672,-235 760.59,-219.48 863.8,-202.79 925.15,-193.01"/>
<polygon fill="midnightblue" stroke="midnightblue" points="648.13,-235.73 638.93,-240.98 649.4,-242.61 648.13,-235.73"/>
</g>
<!-- Node15&#45;&gt;Node10 -->
<g id="edge26" class="edge">
<title>Node15&#45;&gt;Node10</title>
<path fill="none" stroke="midnightblue" d="M340.54,-372.75C286.34,-360.97 199.72,-342.13 144.11,-330.05"/>
<polygon fill="midnightblue" stroke="midnightblue" points="340.09,-376.23 350.6,-374.94 341.58,-369.39 340.09,-376.23"/>
</g>
<!-- Node15&#45;&gt;Node13 -->
<g id="edge28" class="edge">
<title>Node15&#45;&gt;Node13</title>
<path fill="none" stroke="midnightblue" d="M425.15,-371.6C463.21,-358.71 523,-338.47 556.7,-327.06"/>
<polygon fill="midnightblue" stroke="midnightblue" points="423.85,-368.35 415.5,-374.87 426.09,-374.98 423.85,-368.35"/>
</g>
<!-- Node16 -->
<g id="node16" class="node">
<title>Node16</title>
<g id="a_node16"><a xlink:href="src_2apps_2js__v8_2tmpl_2receipt_8h.html" target="_top" xlink:title=" ">
<polygon fill="white" stroke="black" points="200.5,-302.5 200.5,-332.5 311.5,-332.5 311.5,-302.5 200.5,-302.5"/>
<text text-anchor="start" x="208.5" y="-320.5" font-family="Helvetica,sans-Serif" font-size="10.00">src/apps/js_v8/tmpl</text>
<text text-anchor="middle" x="256" y="-309.5" font-family="Helvetica,sans-Serif" font-size="10.00">/receipt.h</text>
</a>
</g>
</g>
<!-- Node15&#45;&gt;Node16 -->
<g id="edge23" class="edge">
<title>Node15&#45;&gt;Node16</title>
<path fill="none" stroke="midnightblue" d="M363.15,-370.47C340.49,-359.49 308.14,-343.79 284.92,-332.53"/>
<polygon fill="midnightblue" stroke="midnightblue" points="361.68,-373.65 372.21,-374.87 364.74,-367.35 361.68,-373.65"/>
</g>
<!-- Node19 -->
<g id="node19" class="node">
<title>Node19</title>
<g id="a_node19"><a xlink:href="historical__queries__adapter_8cpp.html" target="_top" xlink:title=" ">
<polygon fill="white" stroke="black" points="330,-302.5 330,-332.5 450,-332.5 450,-302.5 330,-302.5"/>
<text text-anchor="start" x="338" y="-320.5" font-family="Helvetica,sans-Serif" font-size="10.00">src/node/historical</text>
<text text-anchor="middle" x="390" y="-309.5" font-family="Helvetica,sans-Serif" font-size="10.00">_queries_adapter.cpp</text>
</a>
</g>
</g>
<!-- Node15&#45;&gt;Node19 -->
<g id="edge27" class="edge">
<title>Node15&#45;&gt;Node19</title>
<path fill="none" stroke="midnightblue" d="M390,-364.41C390,-354.22 390,-341.9 390,-332.59"/>
<polygon fill="midnightblue" stroke="midnightblue" points="386.5,-364.73 390,-374.73 393.5,-364.73 386.5,-364.73"/>
</g>
<!-- Node17 -->
<g id="node17" class="node">
<title>Node17</title>
<g id="a_node17"><a xlink:href="historical__state_8cpp.html" target="_top" xlink:title=" ">
<polygon fill="white" stroke="black" points="329.5,-235.5 329.5,-265.5 444.5,-265.5 444.5,-235.5 329.5,-235.5"/>
<text text-anchor="start" x="337.5" y="-253.5" font-family="Helvetica,sans-Serif" font-size="10.00">src/apps/js_v8/tmpl</text>
<text text-anchor="middle" x="387" y="-242.5" font-family="Helvetica,sans-Serif" font-size="10.00">/historical_state.cpp</text>
</a>
</g>
</g>
<!-- Node16&#45;&gt;Node17 -->
<g id="edge24" class="edge">
<title>Node16&#45;&gt;Node17</title>
<path fill="none" stroke="midnightblue" d="M293.58,-297.85C314.29,-287.58 339.59,-275.03 358.63,-265.58"/>
<polygon fill="midnightblue" stroke="midnightblue" points="291.83,-294.82 284.43,-302.4 294.94,-301.09 291.83,-294.82"/>
</g>
<!-- Node18 -->
<g id="node18" class="node">
<title>Node18</title>
<g id="a_node18"><a xlink:href="receipt_8cpp.html" target="_top" xlink:title=" ">
<polygon fill="white" stroke="black" points="200.5,-235.5 200.5,-265.5 311.5,-265.5 311.5,-235.5 200.5,-235.5"/>
<text text-anchor="start" x="208.5" y="-253.5" font-family="Helvetica,sans-Serif" font-size="10.00">src/apps/js_v8/tmpl</text>
<text text-anchor="middle" x="256" y="-242.5" font-family="Helvetica,sans-Serif" font-size="10.00">/receipt.cpp</text>
</a>
</g>
</g>
<!-- Node16&#45;&gt;Node18 -->
<g id="edge25" class="edge">
<title>Node16&#45;&gt;Node18</title>
<path fill="none" stroke="midnightblue" d="M256,-292.11C256,-283.15 256,-273.32 256,-265.58"/>
<polygon fill="midnightblue" stroke="midnightblue" points="252.5,-292.4 256,-302.4 259.5,-292.4 252.5,-292.4"/>
</g>
<!-- Node20&#45;&gt;Node7 -->
<g id="edge30" class="edge">
<title>Node20&#45;&gt;Node7</title>
<path fill="none" stroke="midnightblue" d="M1364.16,-365C1359.33,-346.42 1349.25,-318.26 1330,-302 1283.87,-263.04 1252.66,-293.68 1199,-266 1179.63,-256.01 1180.36,-245.02 1161,-235 1119.94,-213.75 1068.89,-200.59 1031.32,-193.05"/>
<polygon fill="midnightblue" stroke="midnightblue" points="1360.79,-365.97 1366.46,-374.91 1367.6,-364.38 1360.79,-365.97"/>
</g>
<!-- Node21 -->
<g id="node21" class="node">
<title>Node21</title>
<g id="a_node21"><a xlink:href="member__frontend_8h.html" target="_top" xlink:title=" ">
<polygon fill="white" stroke="black" points="1208,-235.5 1208,-265.5 1328,-265.5 1328,-235.5 1208,-235.5"/>
<text text-anchor="start" x="1216" y="-253.5" font-family="Helvetica,sans-Serif" font-size="10.00">src/node/rpc/member</text>
<text text-anchor="middle" x="1268" y="-242.5" font-family="Helvetica,sans-Serif" font-size="10.00">_frontend.h</text>
</a>
</g>
</g>
<!-- Node20&#45;&gt;Node21 -->
<g id="edge31" class="edge">
<title>Node20&#45;&gt;Node21</title>
<path fill="none" stroke="midnightblue" d="M1371.72,-364.9C1374.19,-347.27 1375.08,-320.77 1363,-302 1352.08,-285.04 1333.47,-273.4 1315.6,-265.61"/>
<polygon fill="midnightblue" stroke="midnightblue" points="1368.26,-364.36 1370.03,-374.81 1375.16,-365.54 1368.26,-364.36"/>
</g>
<!-- Node22 -->
<g id="node22" class="node">
<title>Node22</title>
<g id="a_node22"><a xlink:href="node__frontend_8h.html" target="_top" xlink:title=" ">
<polygon fill="white" stroke="black" points="1163,-308 1163,-327 1321,-327 1321,-308 1163,-308"/>
<text text-anchor="middle" x="1242" y="-315" font-family="Helvetica,sans-Serif" font-size="10.00">src/node/rpc/node_frontend.h</text>
</a>
</g>
</g>
<!-- Node20&#45;&gt;Node22 -->
<g id="edge33" class="edge">
<title>Node20&#45;&gt;Node22</title>
<path fill="none" stroke="midnightblue" d="M1342.36,-370.27C1317.41,-357.4 1280.2,-338.21 1258.8,-327.17"/>
<polygon fill="midnightblue" stroke="midnightblue" points="1340.78,-373.39 1351.27,-374.87 1343.99,-367.17 1340.78,-373.39"/>
</g>
<!-- Node24 -->
<g id="node24" class="node">
<title>Node24</title>
<g id="a_node24"><a xlink:href="user__frontend_8h.html" target="_top" xlink:title=" ">
<polygon fill="white" stroke="black" points="1766.5,-308 1766.5,-327 1921.5,-327 1921.5,-308 1766.5,-308"/>
<text text-anchor="middle" x="1844" y="-315" font-family="Helvetica,sans-Serif" font-size="10.00">src/node/rpc/user_frontend.h</text>
</a>
</g>
</g>
<!-- Node20&#45;&gt;Node24 -->
<g id="edge37" class="edge">
<title>Node20&#45;&gt;Node24</title>
<path fill="none" stroke="midnightblue" d="M1443.06,-374.57C1521.49,-365.05 1648.04,-349.15 1757,-333 1769.27,-331.18 1782.48,-329.06 1794.82,-327.01"/>
<polygon fill="midnightblue" stroke="midnightblue" points="1442.31,-371.14 1432.8,-375.81 1443.15,-378.08 1442.31,-371.14"/>
</g>
<!-- Node21&#45;&gt;Node4 -->
<g id="edge32" class="edge">
<title>Node21&#45;&gt;Node4</title>
<path fill="none" stroke="midnightblue" d="M1268,-225.27C1268,-184.19 1268,-102.69 1268,-75.82"/>
<polygon fill="midnightblue" stroke="midnightblue" points="1264.5,-225.48 1268,-235.48 1271.5,-225.48 1264.5,-225.48"/>
</g>
<!-- Node22&#45;&gt;Node4 -->
<g id="edge34" class="edge">
<title>Node22&#45;&gt;Node4</title>
<path fill="none" stroke="midnightblue" d="M1285.98,-304.44C1305.17,-296.75 1325.81,-284.63 1337,-266 1377.31,-198.93 1302.01,-104.93 1276.22,-75.9"/>
<polygon fill="midnightblue" stroke="midnightblue" points="1284.6,-301.22 1276.43,-307.97 1287.02,-307.79 1284.6,-301.22"/>
</g>
<!-- Node23 -->
<g id="node23" class="node">
<title>Node23</title>
<g id="a_node23"><a xlink:href="jwt__key__auto__refresh_8h.html" target="_top" xlink:title=" ">
<polygon fill="white" stroke="black" points="1026.5,-235.5 1026.5,-265.5 1151.5,-265.5 1151.5,-235.5 1026.5,-235.5"/>
<text text-anchor="start" x="1034.5" y="-253.5" font-family="Helvetica,sans-Serif" font-size="10.00">src/node/jwt_key_auto</text>
<text text-anchor="middle" x="1089" y="-242.5" font-family="Helvetica,sans-Serif" font-size="10.00">_refresh.h</text>
</a>
</g>
</g>
<!-- Node22&#45;&gt;Node23 -->
<g id="edge35" class="edge">
<title>Node22&#45;&gt;Node23</title>
<path fill="none" stroke="midnightblue" d="M1212.37,-303.91C1186.46,-292.91 1148.89,-276.94 1122.02,-265.53"/>
<polygon fill="midnightblue" stroke="midnightblue" points="1211.11,-307.18 1221.68,-307.87 1213.85,-300.74 1211.11,-307.18"/>
</g>
<!-- Node23&#45;&gt;Node7 -->
<g id="edge36" class="edge">
<title>Node23&#45;&gt;Node7</title>
<path fill="none" stroke="midnightblue" d="M1056.52,-230.31C1035.57,-217.93 1009.34,-202.43 993.4,-193.01"/>
<polygon fill="midnightblue" stroke="midnightblue" points="1054.74,-233.32 1065.13,-235.4 1058.3,-227.3 1054.74,-233.32"/>
</g>
<!-- Node24&#45;&gt;Node4 -->
<g id="edge38" class="edge">
<title>Node24&#45;&gt;Node4</title>
<path fill="none" stroke="midnightblue" d="M1931.73,-312.76C2055.1,-306.6 2267.53,-292.27 2291,-266 2300.18,-255.73 2299.46,-245.87 2291,-235 2172.13,-82.34 1531.36,-67.6 1329.17,-66.8"/>
<polygon fill="midnightblue" stroke="midnightblue" points="1931.36,-309.28 1921.54,-313.26 1931.7,-316.27 1931.36,-309.28"/>
</g>
<!-- Node26 -->
<g id="node26" class="node">
<title>Node26</title>
<g id="a_node26"><a xlink:href="kv__module__loader_8cpp.html" target="_top" xlink:title=" ">
<polygon fill="white" stroke="black" points="1142.5,-369.5 1142.5,-399.5 1285.5,-399.5 1285.5,-369.5 1142.5,-369.5"/>
<text text-anchor="start" x="1150.5" y="-387.5" font-family="Helvetica,sans-Serif" font-size="10.00">src/apps/js_v8/kv_module</text>
<text text-anchor="middle" x="1214" y="-376.5" font-family="Helvetica,sans-Serif" font-size="10.00">_loader.cpp</text>
</a>
</g>
</g>
<!-- Node25&#45;&gt;Node26 -->
<g id="edge40" class="edge">
<title>Node25&#45;&gt;Node26</title>
<path fill="none" stroke="midnightblue" d="M977.18,-436.3C1028.02,-425.4 1097.88,-410.41 1148.54,-399.54"/>
<polygon fill="midnightblue" stroke="midnightblue" points="976.33,-432.91 967.28,-438.43 977.79,-439.75 976.33,-432.91"/>
</g>
<!-- Node27 -->
<g id="node27" class="node">
<title>Node27</title>
<g id="a_node27"><a xlink:href="network__state_8h.html" target="_top" xlink:title=" ">
<polygon fill="white" stroke="black" points="984,-375 984,-394 1124,-394 1124,-375 984,-375"/>
<text text-anchor="middle" x="1054" y="-382" font-family="Helvetica,sans-Serif" font-size="10.00">src/node/network_state.h</text>
</a>
</g>
</g>
<!-- Node25&#45;&gt;Node27 -->
<g id="edge41" class="edge">
<title>Node25&#45;&gt;Node27</title>
<path fill="none" stroke="midnightblue" d="M951.41,-432.13C978.93,-419.62 1014.09,-403.64 1035.28,-394.01"/>
<polygon fill="midnightblue" stroke="midnightblue" points="949.68,-429.07 942.03,-436.4 952.58,-435.44 949.68,-429.07"/>
</g>
<!-- Node38 -->
<g id="node38" class="node">
<title>Node38</title>
<g id="a_node38"><a xlink:href="genesis__gen_8h.html" target="_top" xlink:title=" ">
<polygon fill="white" stroke="black" points="856,-369.5 856,-399.5 966,-399.5 966,-369.5 856,-369.5"/>
<text text-anchor="start" x="864" y="-387.5" font-family="Helvetica,sans-Serif" font-size="10.00">src/service/genesis</text>
<text text-anchor="middle" x="911" y="-376.5" font-family="Helvetica,sans-Serif" font-size="10.00">_gen.h</text>
</a>
</g>
</g>
<!-- Node25&#45;&gt;Node38 -->
<g id="edge67" class="edge">
<title>Node25&#45;&gt;Node38</title>
<path fill="none" stroke="midnightblue" d="M911,-426.11C911,-417.15 911,-407.32 911,-399.58"/>
<polygon fill="midnightblue" stroke="midnightblue" points="907.5,-426.4 911,-436.4 914.5,-426.4 907.5,-426.4"/>
</g>
<!-- Node27&#45;&gt;Node4 -->
<g id="edge42" class="edge">
<title>Node27&#45;&gt;Node4</title>
<path fill="none" stroke="midnightblue" d="M1111.04,-373.15C1191.71,-358.5 1329.47,-333.44 1330,-333 1387.17,-285.74 1373.59,-239.8 1355,-168 1347.92,-140.67 1343.13,-133.65 1325,-112 1312.53,-97.11 1294.44,-83.85 1282,-75.65"/>
<polygon fill="midnightblue" stroke="midnightblue" points="1110.23,-369.74 1101.02,-374.97 1111.48,-376.63 1110.23,-369.74"/>
</g>
<!-- Node27&#45;&gt;Node7 -->
<g id="edge58" class="edge">
<title>Node27&#45;&gt;Node7</title>
<path fill="none" stroke="midnightblue" d="M1066.44,-366.48C1077.3,-349.34 1089.65,-322.58 1078,-302 1062.68,-274.94 1038.93,-289 1018,-266 997.73,-243.73 985.93,-209.02 981.29,-193.06"/>
<polygon fill="midnightblue" stroke="midnightblue" points="1063.44,-364.66 1060.72,-374.9 1069.23,-368.6 1063.44,-364.66"/>
</g>
<!-- Node27&#45;&gt;Node14 -->
<g id="edge66" class="edge">
<title>Node27&#45;&gt;Node14</title>
<path fill="none" stroke="midnightblue" d="M998.59,-373.13C990.68,-371.71 982.64,-370.3 975,-369 872.56,-351.62 842.43,-366.29 744,-333 689.25,-314.48 630.88,-276.89 606.17,-260.02"/>
<polygon fill="midnightblue" stroke="midnightblue" points="998.04,-376.59 1008.5,-374.93 999.29,-369.7 998.04,-376.59"/>
</g>
<!-- Node27&#45;&gt;Node22 -->
<g id="edge59" class="edge">
<title>Node27&#45;&gt;Node22</title>
<path fill="none" stroke="midnightblue" d="M1088.89,-371.44C1126.19,-358.54 1184.37,-338.42 1217.23,-327.06"/>
<polygon fill="midnightblue" stroke="midnightblue" points="1087.27,-368.29 1078.96,-374.87 1089.56,-374.91 1087.27,-368.29"/>
</g>
<!-- Node27&#45;&gt;Node24 -->
<g id="edge60" class="edge">
<title>Node27&#45;&gt;Node24</title>
<path fill="none" stroke="midnightblue" d="M1105.78,-373.17C1115.14,-371.57 1124.84,-370.09 1134,-369 1409.41,-336.21 1481.37,-363.84 1757,-333 1770.54,-331.48 1785.19,-329.27 1798.52,-327.03"/>
<polygon fill="midnightblue" stroke="midnightblue" points="1105.03,-369.75 1095.79,-374.94 1106.25,-376.64 1105.03,-369.75"/>
</g>
<!-- Node28 -->
<g id="node28" class="node">
<title>Node28</title>
<g id="a_node28"><a xlink:href="wrap_8h.html" target="_top" xlink:title=" ">
<polygon fill="white" stroke="black" points="1670,-308 1670,-327 1748,-327 1748,-308 1670,-308"/>
<text text-anchor="middle" x="1709" y="-315" font-family="Helvetica,sans-Serif" font-size="10.00">src/js/wrap.h</text>
</a>
</g>
</g>
<!-- Node27&#45;&gt;Node28 -->
<g id="edge43" class="edge">
<title>Node27&#45;&gt;Node28</title>
<path fill="none" stroke="midnightblue" d="M1107.04,-373.18C1116.02,-371.64 1125.26,-370.17 1134,-369 1334.63,-342.07 1576.65,-326.19 1669.82,-320.7"/>
<polygon fill="midnightblue" stroke="midnightblue" points="1106.3,-369.76 1097.06,-374.95 1107.52,-376.65 1106.3,-369.76"/>
</g>
<!-- Node36 -->
<g id="node36" class="node">
<title>Node36</title>
<g id="a_node36"><a xlink:href="secret__broadcast_8h.html" target="_top" xlink:title=" ">
<polygon fill="white" stroke="black" points="752.5,-308 752.5,-327 905.5,-327 905.5,-308 752.5,-308"/>
<text text-anchor="middle" x="829" y="-315" font-family="Helvetica,sans-Serif" font-size="10.00">src/node/secret_broadcast.h</text>
</a>
</g>
</g>
<!-- Node27&#45;&gt;Node36 -->
<g id="edge61" class="edge">
<title>Node27&#45;&gt;Node36</title>
<path fill="none" stroke="midnightblue" d="M1014.51,-372.09C970,-359.23 898.64,-338.62 858.64,-327.06"/>
<polygon fill="midnightblue" stroke="midnightblue" points="1013.54,-375.46 1024.12,-374.87 1015.49,-368.73 1013.54,-375.46"/>
</g>
<!-- Node37 -->
<g id="node37" class="node">
<title>Node37</title>
<g id="a_node37"><a xlink:href="share__manager_8h.html" target="_top" xlink:title=" ">
<polygon fill="white" stroke="black" points="923.5,-308 923.5,-327 1068.5,-327 1068.5,-308 923.5,-308"/>
<text text-anchor="middle" x="996" y="-315" font-family="Helvetica,sans-Serif" font-size="10.00">src/node/share_manager.h</text>
</a>
</g>
</g>
<!-- Node27&#45;&gt;Node37 -->
<g id="edge63" class="edge">
<title>Node27&#45;&gt;Node37</title>
<path fill="none" stroke="midnightblue" d="M1039.4,-367.13C1028.05,-354.42 1012.77,-337.3 1003.7,-327.13"/>
<polygon fill="midnightblue" stroke="midnightblue" points="1036.91,-369.6 1046.18,-374.73 1042.13,-364.94 1036.91,-369.6"/>
</g>
<!-- Node28&#45;&gt;Node4 -->
<g id="edge45" class="edge">
<title>Node28&#45;&gt;Node4</title>
<path fill="none" stroke="midnightblue" d="M1722,-299.28C1733.5,-281.79 1746.51,-254.56 1733,-235 1641.16,-102.05 1432.95,-73.78 1329.17,-68.14"/>
<polygon fill="midnightblue" stroke="midnightblue" points="1718.84,-297.7 1715.95,-307.89 1724.57,-301.72 1718.84,-297.7"/>
</g>
<!-- Node28&#45;&gt;Node7 -->
<g id="edge56" class="edge">
<title>Node28&#45;&gt;Node7</title>
<path fill="none" stroke="midnightblue" d="M1659.94,-307.99C1607.88,-298.7 1523.29,-282.88 1451,-266 1399.87,-254.06 1388.43,-245.58 1337,-235 1234.17,-213.85 1112.9,-198.78 1041.17,-190.88"/>
<polygon fill="midnightblue" stroke="midnightblue" points="1659.45,-311.45 1669.91,-309.76 1660.68,-304.56 1659.45,-311.45"/>
</g>
<!-- Node28&#45;&gt;Node21 -->
<g id="edge57" class="edge">
<title>Node28&#45;&gt;Node21</title>
<path fill="none" stroke="midnightblue" d="M1659.89,-309.26C1578.59,-297.28 1416.27,-273.35 1328.2,-260.37"/>
<polygon fill="midnightblue" stroke="midnightblue" points="1659.46,-312.74 1669.86,-310.73 1660.48,-305.81 1659.46,-312.74"/>
</g>
<!-- Node29 -->
<g id="node29" class="node">
<title>Node29</title>
<g id="a_node29"><a xlink:href="js__generic__base_8cpp.html" target="_top" xlink:title=" ">
<polygon fill="white" stroke="black" points="1606,-235.5 1606,-265.5 1724,-265.5 1724,-235.5 1606,-235.5"/>
<text text-anchor="start" x="1614" y="-253.5" font-family="Helvetica,sans-Serif" font-size="10.00">src/apps/js_generic</text>
<text text-anchor="middle" x="1665" y="-242.5" font-family="Helvetica,sans-Serif" font-size="10.00">/js_generic_base.cpp</text>
</a>
</g>
</g>
<!-- Node28&#45;&gt;Node29 -->
<g id="edge44" class="edge">
<title>Node28&#45;&gt;Node29</title>
<path fill="none" stroke="midnightblue" d="M1697.39,-299.35C1690.27,-288.82 1681.25,-275.5 1674.54,-265.59"/>
<polygon fill="midnightblue" stroke="midnightblue" points="1694.56,-301.41 1703.07,-307.73 1700.36,-297.49 1694.56,-301.41"/>
</g>
<!-- Node30 -->
<g id="node30" class="node">
<title>Node30</title>
<g id="a_node30"><a xlink:href="js_2consensus_8cpp.html" target="_top" xlink:title=" ">
<polygon fill="white" stroke="black" points="2166,-241 2166,-260 2282,-260 2282,-241 2166,-241"/>
<text text-anchor="middle" x="2224" y="-248" font-family="Helvetica,sans-Serif" font-size="10.00">src/js/consensus.cpp</text>
</a>
</g>
</g>
<!-- Node28&#45;&gt;Node30 -->
<g id="edge46" class="edge">
<title>Node28&#45;&gt;Node30</title>
<path fill="none" stroke="midnightblue" d="M1744.27,-305.16C1748.86,-303.96 1753.52,-302.86 1758,-302 1932.89,-268.57 1980.99,-292.88 2157,-266 2167.24,-264.44 2178.25,-262.26 2188.34,-260.07"/>
<polygon fill="midnightblue" stroke="midnightblue" points="1743.13,-301.85 1734.45,-307.93 1745.02,-308.59 1743.13,-301.85"/>
</g>
<!-- Node31 -->
<g id="node31" class="node">
<title>Node31</title>
<g id="a_node31"><a xlink:href="wrap_8cpp.html" target="_top" xlink:title=" ">
<polygon fill="white" stroke="black" points="1927.5,-174 1927.5,-193 2016.5,-193 2016.5,-174 1927.5,-174"/>
<text text-anchor="middle" x="1972" y="-181" font-family="Helvetica,sans-Serif" font-size="10.00">src/js/wrap.cpp</text>
</a>
</g>
</g>
<!-- Node28&#45;&gt;Node31 -->
<g id="edge55" class="edge">
<title>Node28&#45;&gt;Node31</title>
<path fill="none" stroke="midnightblue" d="M1726.3,-301.04C1749.94,-280.15 1791.43,-244.42 1809,-235 1847.25,-214.49 1895.1,-200.92 1929.04,-193.06"/>
<polygon fill="midnightblue" stroke="midnightblue" points="1723.9,-298.49 1718.74,-307.74 1728.55,-303.72 1723.9,-298.49"/>
</g>
<!-- Node32 -->
<g id="node32" class="node">
<title>Node32</title>
<g id="a_node32"><a xlink:href="conv_8cpp.html" target="_top" xlink:title=" ">
<polygon fill="white" stroke="black" points="1818,-241 1818,-260 1906,-260 1906,-241 1818,-241"/>
<text text-anchor="middle" x="1862" y="-248" font-family="Helvetica,sans-Serif" font-size="10.00">src/js/conv.cpp</text>
</a>
</g>
</g>
<!-- Node28&#45;&gt;Node32 -->
<g id="edge48" class="edge">
<title>Node28&#45;&gt;Node32</title>
<path fill="none" stroke="midnightblue" d="M1738.54,-303.95C1768.84,-291.08 1815.15,-271.4 1841.6,-260.17"/>
<polygon fill="midnightblue" stroke="midnightblue" points="1737.15,-300.74 1729.32,-307.87 1739.89,-307.18 1737.15,-300.74"/>
</g>
<!-- Node33 -->
<g id="node33" class="node">
<title>Node33</title>
<g id="a_node33"><a xlink:href="js_2crypto_8cpp.html" target="_top" xlink:title=" ">
<polygon fill="white" stroke="black" points="1924,-241 1924,-260 2020,-260 2020,-241 1924,-241"/>
<text text-anchor="middle" x="1972" y="-248" font-family="Helvetica,sans-Serif" font-size="10.00">src/js/crypto.cpp</text>
</a>
</g>
</g>
<!-- Node28&#45;&gt;Node33 -->
<g id="edge50" class="edge">
<title>Node28&#45;&gt;Node33</title>
<path fill="none" stroke="midnightblue" d="M1746.31,-305.2C1750.25,-304.08 1754.2,-303 1758,-302 1827.25,-283.83 1845.42,-282.83 1915,-266 1922.74,-264.13 1931.06,-262.05 1938.88,-260.07"/>
<polygon fill="midnightblue" stroke="midnightblue" points="1745.28,-301.85 1736.64,-307.99 1747.22,-308.58 1745.28,-301.85"/>
</g>
<!-- Node34 -->
<g id="node34" class="node">
<title>Node34</title>
<g id="a_node34"><a xlink:href="js_2historical_8cpp.html" target="_top" xlink:title=" ">
<polygon fill="white" stroke="black" points="2038,-241 2038,-260 2148,-260 2148,-241 2038,-241"/>
<text text-anchor="middle" x="2093" y="-248" font-family="Helvetica,sans-Serif" font-size="10.00">src/js/historical.cpp</text>
</a>
</g>
</g>
<!-- Node28&#45;&gt;Node34 -->
<g id="edge52" class="edge">
<title>Node28&#45;&gt;Node34</title>
<path fill="none" stroke="midnightblue" d="M1744.98,-305.16C1749.34,-303.99 1753.75,-302.9 1758,-302 1876.84,-276.68 1909.41,-287.45 2029,-266 2038.42,-264.31 2048.55,-262.17 2057.91,-260.05"/>
<polygon fill="midnightblue" stroke="midnightblue" points="1743.67,-301.9 1735,-307.99 1745.57,-308.63 1743.67,-301.9"/>
</g>
<!-- Node35 -->
<g id="node35" class="node">
<title>Node35</title>
<g id="a_node35"><a xlink:href="openenclave_8cpp.html" target="_top" xlink:title=" ">
<polygon fill="white" stroke="black" points="1460,-241 1460,-260 1588,-260 1588,-241 1460,-241"/>
<text text-anchor="middle" x="1524" y="-248" font-family="Helvetica,sans-Serif" font-size="10.00">src/js/openenclave.cpp</text>
</a>
</g>
</g>
<!-- Node28&#45;&gt;Node35 -->
<g id="edge54" class="edge">
<title>Node28&#45;&gt;Node35</title>
<path fill="none" stroke="midnightblue" d="M1674.66,-304.44C1637.96,-291.54 1580.71,-271.42 1548.37,-260.06"/>
<polygon fill="midnightblue" stroke="midnightblue" points="1673.84,-307.86 1684.43,-307.87 1676.16,-301.25 1673.84,-307.86"/>
</g>
<!-- Node30&#45;&gt;Node31 -->
<g id="edge47" class="edge">
<title>Node30&#45;&gt;Node31</title>
<path fill="none" stroke="midnightblue" d="M2180.98,-238.4C2131.25,-225.58 2050.45,-204.74 2005.28,-193.08"/>
<polygon fill="midnightblue" stroke="midnightblue" points="2180.24,-241.83 2190.8,-240.94 2181.99,-235.05 2180.24,-241.83"/>
</g>
<!-- Node32&#45;&gt;Node31 -->
<g id="edge49" class="edge">
<title>Node32&#45;&gt;Node31</title>
<path fill="none" stroke="midnightblue" d="M1885.5,-235.62C1907.29,-222.74 1939.04,-203.98 1957.4,-193.13"/>
<polygon fill="midnightblue" stroke="midnightblue" points="1883.66,-232.63 1876.84,-240.73 1887.22,-238.66 1883.66,-232.63"/>
</g>
<!-- Node33&#45;&gt;Node31 -->
<g id="edge51" class="edge">
<title>Node33&#45;&gt;Node31</title>
<path fill="none" stroke="midnightblue" d="M1972,-230.54C1972,-218.17 1972,-202.62 1972,-193.13"/>
<polygon fill="midnightblue" stroke="midnightblue" points="1968.5,-230.73 1972,-240.73 1975.5,-230.73 1968.5,-230.73"/>
</g>
<!-- Node34&#45;&gt;Node31 -->
<g id="edge53" class="edge">
<title>Node34&#45;&gt;Node31</title>
<path fill="none" stroke="midnightblue" d="M2067.79,-235.96C2043.8,-223.07 2008.44,-204.07 1988.06,-193.13"/>
<polygon fill="midnightblue" stroke="midnightblue" points="2066.22,-239.08 2076.68,-240.73 2069.53,-232.92 2066.22,-239.08"/>
</g>
<!-- Node36&#45;&gt;Node7 -->
<g id="edge62" class="edge">
<title>Node36&#45;&gt;Node7</title>
<path fill="none" stroke="midnightblue" d="M846.48,-301.12C878.25,-273.16 944.48,-214.88 969.32,-193.02"/>
<polygon fill="midnightblue" stroke="midnightblue" points="844.04,-298.61 838.84,-307.84 848.66,-303.86 844.04,-298.61"/>
</g>
<!-- Node37&#45;&gt;Node7 -->
<g id="edge64" class="edge">
<title>Node37&#45;&gt;Node7</title>
<path fill="none" stroke="midnightblue" d="M990.74,-297.78C988.29,-288.33 985.58,-276.64 984,-266 980.09,-239.64 979.23,-208.04 979.04,-193.12"/>
<polygon fill="midnightblue" stroke="midnightblue" points="987.42,-298.91 993.41,-307.65 994.18,-297.08 987.42,-298.91"/>
</g>
<!-- Node37&#45;&gt;Node21 -->
<g id="edge65" class="edge">
<title>Node37&#45;&gt;Node21</title>
<path fill="none" stroke="midnightblue" d="M1041.83,-305.55C1087.87,-294.55 1158.99,-277.55 1209.17,-265.56"/>
<polygon fill="midnightblue" stroke="midnightblue" points="1040.75,-302.21 1031.84,-307.94 1042.38,-309.02 1040.75,-302.21"/>
</g>
<!-- Node38&#45;&gt;Node7 -->
<g id="edge68" class="edge">
<title>Node38&#45;&gt;Node7</title>
<path fill="none" stroke="midnightblue" d="M845.58,-376.05C787.95,-366.49 717.04,-345.62 744,-302 784.77,-236.04 875.02,-205.87 931.06,-193.04"/>
<polygon fill="midnightblue" stroke="midnightblue" points="845.37,-379.56 855.79,-377.65 846.45,-372.64 845.37,-379.56"/>
</g>
<!-- Node38&#45;&gt;Node21 -->
<g id="edge69" class="edge">
<title>Node38&#45;&gt;Node21</title>
<path fill="none" stroke="midnightblue" d="M972.27,-366.75C1004.09,-357.6 1043.44,-345.59 1078,-333 1108.52,-321.88 1190.86,-285.74 1236.49,-265.52"/>
<polygon fill="midnightblue" stroke="midnightblue" points="971.31,-363.38 962.65,-369.49 973.23,-370.11 971.31,-363.38"/>
</g>
<!-- Node38&#45;&gt;Node22 -->
<g id="edge70" class="edge">
<title>Node38&#45;&gt;Node22</title>
<path fill="none" stroke="midnightblue" d="M976.14,-368.8C1058.36,-351.84 1142.73,-336.29 1194.15,-327.02"/>
<polygon fill="midnightblue" stroke="midnightblue" points="975.21,-365.42 966.13,-370.88 976.63,-372.28 975.21,-365.42"/>
</g>
<!-- Node38&#45;&gt;Node36 -->
<g id="edge71" class="edge">
<title>Node38&#45;&gt;Node36</title>
<path fill="none" stroke="midnightblue" d="M885.15,-363.01C869.93,-350.94 851.46,-336.3 839.97,-327.19"/>
<polygon fill="midnightblue" stroke="midnightblue" points="883.2,-365.93 893.21,-369.4 887.54,-360.44 883.2,-365.93"/>
</g>
<!-- Node38&#45;&gt;Node37 -->
<g id="edge72" class="edge">
<title>Node38&#45;&gt;Node37</title>
<path fill="none" stroke="midnightblue" d="M937.8,-363.01C953.58,-350.94 972.72,-336.3 984.63,-327.19"/>
<polygon fill="midnightblue" stroke="midnightblue" points="935.26,-360.54 929.44,-369.4 939.51,-366.1 935.26,-360.54"/>
</g>
</g>
</svg>
        <g id="navigator" transform="translate(0 0)" fill="#404254">
                <rect fill="#f2f5e9" fill-opacity="0.5" stroke="#606060" stroke-width=".5" x="0" y="0" width="60" height="60"/>
                <use id="zoomplus" xlink:href="#zoomPlus" x="17" y="9" onmousedown="handleZoom(evt,'in')"/>
                <use id="zoomminus" xlink:href="#zoomMin" x="42" y="9" onmousedown="handleZoom(evt,'out')"/>
                <use id="reset" xlink:href="#resetDef" x="30" y="36" onmousedown="handleReset()"/>
                <g id="arrowUp" xlink:href="#dirArrow" transform="translate(30 24)" onmousedown="handlePan(0,-1)">
                  <use xlink:href="#rim" fill="#404040">
                        <set attributeName="fill" to="#808080" begin="arrowUp.mouseover" end="arrowUp.mouseout"/>
                  </use>
                  <path fill="none" stroke="white" stroke-width="1.5" d="M0,-3.0v7 M-2.5,-0.5L0,-3.0L2.5,-0.5"/>
                </g>
                <g id="arrowRight" xlink:href="#dirArrow" transform="rotate(90) translate(36 -43)" onmousedown="handlePan(1,0)">
                  <use xlink:href="#rim" fill="#404040">
                        <set attributeName="fill" to="#808080" begin="arrowRight.mouseover" end="arrowRight.mouseout"/>
                  </use>
                  <path fill="none" stroke="white" stroke-width="1.5" d="M0,-3.0v7 M-2.5,-0.5L0,-3.0L2.5,-0.5"/>
                </g>
                <g id="arrowDown" xlink:href="#dirArrow" transform="rotate(180) translate(-30 -48)" onmousedown="handlePan(0,1)">
                  <use xlink:href="#rim" fill="#404040">
                        <set attributeName="fill" to="#808080" begin="arrowDown.mouseover" end="arrowDown.mouseout"/>
                  </use>
                  <path fill="none" stroke="white" stroke-width="1.5" d="M0,-3.0v7 M-2.5,-0.5L0,-3.0L2.5,-0.5"/>
                </g>
                <g id="arrowLeft" xlink:href="#dirArrow" transform="rotate(270) translate(-36 17)" onmousedown="handlePan(-1,0)">
                  <use xlink:href="#rim" fill="#404040">
                        <set attributeName="fill" to="#808080" begin="arrowLeft.mouseover" end="arrowLeft.mouseout"/>
                  </use>
                  <path fill="none" stroke="white" stroke-width="1.5" d="M0,-3.0v7 M-2.5,-0.5L0,-3.0L2.5,-0.5"/>
                </g>
        </g>
        <svg viewBox="0 0 15 15" width="100%" height="30px" preserveAspectRatio="xMaxYMin meet">
         <g id="arrow_out" transform="scale(0.3 0.3)">
          <a xlink:href="ccf__exception_8h__dep__incl_org.svg" target="_base">
           <rect id="button" ry="5" rx="5" y="6" x="6" height="38" width="38"
                fill="#f2f5e9" fill-opacity="0.5" stroke="#606060" stroke-width="1.0"/>
           <path id="arrow"
             d="M 11.500037,31.436501 C 11.940474,20.09759 22.043105,11.32322 32.158766,21.979434 L 37.068811,17.246167 C 37.068811,17.246167 37.088388,32 37.088388,32 L 22.160133,31.978069 C 22.160133,31.978069 26.997745,27.140456 26.997745,27.140456 C 18.528582,18.264221 13.291696,25.230495 11.500037,31.436501 z"
             style="fill:#404040;"/>
          </a>
         </g>
        </svg>
</svg>
