<?xml version="1.0" encoding="UTF-8" standalone="no"?>
<!DOCTYPE svg PUBLIC "-//W3C//DTD SVG 1.1//EN"
 "http://www.w3.org/Graphics/SVG/1.1/DTD/svg11.dtd">
<!-- Generated by graphviz version 2.43.0 (0)
 -->
<!-- Title: src/tls/cert.h Pages: 1 -->
<!--zoomable 867 -->
<svg id="main" version="1.1" xmlns="http://www.w3.org/2000/svg" xmlns:xlink="http://www.w3.org/1999/xlink" xml:space="preserve" onload="init(evt)">
<style type="text/css"><![CDATA[
.edge:hover path { stroke: red; }
.edge:hover polygon { stroke: red; fill: red; }
]]></style>
<script type="text/javascript"><![CDATA[
var edges = document.getElementsByTagName('g');
if (edges && edges.length) {
  for (var i=0;i<edges.length;i++) {
    if (edges[i].id.substr(0,4)=='edge') {
      edges[i].setAttribute('class','edge');
    }
  }
}
]]></script>
        <defs>
                <circle id="rim" cx="0" cy="0" r="7"/>
                <circle id="rim2" cx="0" cy="0" r="3.5"/>
                <g id="zoomPlus">
                        <use xlink:href="#rim" fill="#404040">
                                <set attributeName="fill" to="#808080" begin="zoomplus.mouseover" end="zoomplus.mouseout"/>
                        </use>
                        <path d="M-4,0h8M0,-4v8" fill="none" stroke="white" stroke-width="1.5" pointer-events="none"/>
                </g>
                <g id="zoomMin">
                        <use xlink:href="#rim" fill="#404040">
                                <set attributeName="fill" to="#808080" begin="zoomminus.mouseover" end="zoomminus.mouseout"/>
                        </use>
                        <path d="M-4,0h8" fill="none" stroke="white" stroke-width="1.5" pointer-events="none"/>
                </g>
                <g id="dirArrow">
                        <path fill="none" stroke="white" stroke-width="1.5" d="M0,-3.0v7 M-2.5,-0.5L0,-3.0L2.5,-0.5"/>
                </g>
               <g id="resetDef">
                       <use xlink:href="#rim2" fill="#404040">
                               <set attributeName="fill" to="#808080" begin="reset.mouseover" end="reset.mouseout"/>
                       </use>
               </g>
        </defs>

<script type="text/javascript">
var viewWidth = 1229;
var viewHeight = 867;
var sectionId = 'dynsection-1';
</script>
<script xlink:href="svgpan.js"/>
<svg id="graph" class="graph">
<g id="viewport">
<title>src/tls/cert.h</title>
<polygon fill="white" stroke="transparent" points="-4,4 -4,-863 1224.5,-863 1224.5,4 -4,4"/>
<!-- Node1 -->
<g id="node1" class="node">
<title>Node1</title>
<g id="a_node1"><a xlink:title=" ">
<polygon fill="#bfbfbf" stroke="black" points="228.5,-839.5 228.5,-858.5 305.5,-858.5 305.5,-839.5 228.5,-839.5"/>
<text text-anchor="middle" x="267" y="-846.5" font-family="Helvetica,sans-Serif" font-size="10.00">src/tls/cert.h</text>
</a>
</g>
</g>
<!-- Node2 -->
<g id="node2" class="node">
<title>Node2</title>
<g id="a_node2"><a xlink:href="tls__client_8h.html" target="_top" xlink:title=" ">
<polygon fill="white" stroke="black" points="733,-727.5 733,-746.5 855,-746.5 855,-727.5 733,-727.5"/>
<text text-anchor="middle" x="794" y="-734.5" font-family="Helvetica,sans-Serif" font-size="10.00">src/clients/tls_client.h</text>
</a>
</g>
</g>
<!-- Node1&#45;&gt;Node2 -->
<g id="edge1" class="edge">
<title>Node1&#45;&gt;Node2</title>
<path fill="none" stroke="midnightblue" d="M315.58,-837.86C418.55,-816.37 657.15,-766.56 753.03,-746.55"/>
<polygon fill="midnightblue" stroke="midnightblue" points="314.83,-834.44 305.75,-839.91 316.26,-841.29 314.83,-834.44"/>
</g>
<!-- Node8 -->
<g id="node8" class="node">
<title>Node8</title>
<g id="a_node8"><a xlink:href="rpc__sessions_8h.html" target="_top" xlink:title=" ">
<polygon fill="white" stroke="black" points="131,-498 131,-517 277,-517 277,-498 131,-498"/>
<text text-anchor="middle" x="204" y="-505" font-family="Helvetica,sans-Serif" font-size="10.00">src/enclave/rpc_sessions.h</text>
</a>
</g>
</g>
<!-- Node1&#45;&gt;Node8 -->
<g id="edge8" class="edge">
<title>Node1&#45;&gt;Node8</title>
<path fill="none" stroke="midnightblue" d="M243.25,-833.71C232.05,-825.89 219.34,-815.3 211,-803 194.03,-777.99 191,-768.23 191,-738 191,-738 191,-738 191,-624 191,-583.84 198.86,-536.33 202.35,-517.16"/>
<polygon fill="midnightblue" stroke="midnightblue" points="241.53,-836.77 251.8,-839.36 245.39,-830.93 241.53,-836.77"/>
</g>
<!-- Node22 -->
<g id="node22" class="node">
<title>Node22</title>
<g id="a_node22"><a xlink:href="context_8h.html" target="_top" xlink:title=" ">
<polygon fill="white" stroke="black" points="219.5,-783.5 219.5,-802.5 314.5,-802.5 314.5,-783.5 219.5,-783.5"/>
<text text-anchor="middle" x="267" y="-790.5" font-family="Helvetica,sans-Serif" font-size="10.00">src/tls/context.h</text>
</a>
</g>
</g>
<!-- Node1&#45;&gt;Node22 -->
<g id="edge32" class="edge">
<title>Node1&#45;&gt;Node22</title>
<path fill="none" stroke="midnightblue" d="M267,-828.8C267,-819.91 267,-809.78 267,-802.75"/>
<polygon fill="midnightblue" stroke="midnightblue" points="263.5,-829.08 267,-839.08 270.5,-829.08 263.5,-829.08"/>
</g>
<!-- Node3 -->
<g id="node3" class="node">
<title>Node3</title>
<g id="a_node3"><a xlink:href="rpc__tls__client_8h.html" target="_top" xlink:title=" ">
<polygon fill="white" stroke="black" points="883.5,-492.5 883.5,-522.5 984.5,-522.5 984.5,-492.5 883.5,-492.5"/>
<text text-anchor="start" x="891.5" y="-510.5" font-family="Helvetica,sans-Serif" font-size="10.00">src/clients/rpc_tls</text>
<text text-anchor="middle" x="934" y="-499.5" font-family="Helvetica,sans-Serif" font-size="10.00">_client.h</text>
</a>
</g>
</g>
<!-- Node2&#45;&gt;Node3 -->
<g id="edge2" class="edge">
<title>Node2&#45;&gt;Node3</title>
<path fill="none" stroke="midnightblue" d="M804.6,-718.78C831.27,-675.43 900.81,-562.43 925.31,-522.62"/>
<polygon fill="midnightblue" stroke="midnightblue" points="801.58,-717.01 799.32,-727.36 807.54,-720.68 801.58,-717.01"/>
</g>
<!-- Node4 -->
<g id="node4" class="node">
<title>Node4</title>
<g id="a_node4"><a xlink:href="perf__client_8h.html" target="_top" xlink:title=" ">
<polygon fill="white" stroke="black" points="956.5,-369.5 956.5,-399.5 1067.5,-399.5 1067.5,-369.5 956.5,-369.5"/>
<text text-anchor="start" x="964.5" y="-387.5" font-family="Helvetica,sans-Serif" font-size="10.00">src/clients/perf/perf</text>
<text text-anchor="middle" x="1012" y="-376.5" font-family="Helvetica,sans-Serif" font-size="10.00">_client.h</text>
</a>
</g>
</g>
<!-- Node3&#45;&gt;Node4 -->
<g id="edge3" class="edge">
<title>Node3&#45;&gt;Node4</title>
<path fill="none" stroke="midnightblue" d="M975.1,-487.18C987.43,-479.29 999.63,-468.93 1007,-456 1016.91,-438.63 1016.22,-414.79 1014.42,-399.77"/>
<polygon fill="midnightblue" stroke="midnightblue" points="972.97,-484.37 966.16,-492.49 976.55,-490.39 972.97,-484.37"/>
</g>
<!-- Node7 -->
<g id="node7" class="node">
<title>Node7</title>
<g id="a_node7"><a xlink:href="timing_8h.html" target="_top" xlink:title=" ">
<polygon fill="white" stroke="black" points="866,-436.5 866,-455.5 998,-455.5 998,-436.5 866,-436.5"/>
<text text-anchor="middle" x="932" y="-443.5" font-family="Helvetica,sans-Serif" font-size="10.00">src/clients/perf/timing.h</text>
</a>
</g>
</g>
<!-- Node3&#45;&gt;Node7 -->
<g id="edge6" class="edge">
<title>Node3&#45;&gt;Node7</title>
<path fill="none" stroke="midnightblue" d="M933.19,-482.29C932.87,-472.86 932.53,-462.65 932.29,-455.66"/>
<polygon fill="midnightblue" stroke="midnightblue" points="929.69,-482.52 933.53,-492.4 936.69,-482.29 929.69,-482.52"/>
</g>
<!-- Node5 -->
<g id="node5" class="node">
<title>Node5</title>
<g id="a_node5"><a xlink:href="tpcc__client_8cpp.html" target="_top" xlink:title=" ">
<polygon fill="white" stroke="black" points="953,-302.5 953,-332.5 1069,-332.5 1069,-302.5 953,-302.5"/>
<text text-anchor="start" x="961" y="-320.5" font-family="Helvetica,sans-Serif" font-size="10.00">src/apps/tpcc/clients</text>
<text text-anchor="middle" x="1011" y="-309.5" font-family="Helvetica,sans-Serif" font-size="10.00">/tpcc_client.cpp</text>
</a>
</g>
</g>
<!-- Node4&#45;&gt;Node5 -->
<g id="edge4" class="edge">
<title>Node4&#45;&gt;Node5</title>
<path fill="none" stroke="midnightblue" d="M1011.62,-359.11C1011.49,-350.15 1011.34,-340.32 1011.22,-332.58"/>
<polygon fill="midnightblue" stroke="midnightblue" points="1008.13,-359.45 1011.78,-369.4 1015.13,-359.34 1008.13,-359.45"/>
</g>
<!-- Node6 -->
<g id="node6" class="node">
<title>Node6</title>
<g id="a_node6"><a xlink:href="scenario__perf__client_8cpp.html" target="_top" xlink:title=" ">
<polygon fill="white" stroke="black" points="1087.5,-302.5 1087.5,-332.5 1220.5,-332.5 1220.5,-302.5 1087.5,-302.5"/>
<text text-anchor="start" x="1095.5" y="-320.5" font-family="Helvetica,sans-Serif" font-size="10.00">src/clients/perf/scenario</text>
<text text-anchor="middle" x="1154" y="-309.5" font-family="Helvetica,sans-Serif" font-size="10.00">_perf_client.cpp</text>
</a>
</g>
</g>
<!-- Node4&#45;&gt;Node6 -->
<g id="edge5" class="edge">
<title>Node4&#45;&gt;Node6</title>
<path fill="none" stroke="midnightblue" d="M1052.13,-365.13C1074.69,-354.8 1102.42,-342.11 1123.25,-332.58"/>
<polygon fill="midnightblue" stroke="midnightblue" points="1050.45,-362.05 1042.81,-369.4 1053.36,-368.42 1050.45,-362.05"/>
</g>
<!-- Node7&#45;&gt;Node4 -->
<g id="edge7" class="edge">
<title>Node7&#45;&gt;Node4</title>
<path fill="none" stroke="midnightblue" d="M951.54,-430.47C964.21,-421.05 980.62,-408.84 993.15,-399.52"/>
<polygon fill="midnightblue" stroke="midnightblue" points="949.4,-427.7 943.46,-436.48 953.57,-433.32 949.4,-427.7"/>
</g>
<!-- Node9 -->
<g id="node9" class="node">
<title>Node9</title>
<g id="a_node9"><a xlink:href="enclave_2enclave_8h.html" target="_top" xlink:title=" ">
<polygon fill="white" stroke="black" points="557,-56.5 557,-75.5 679,-75.5 679,-56.5 557,-56.5"/>
<text text-anchor="middle" x="618" y="-63.5" font-family="Helvetica,sans-Serif" font-size="10.00">src/enclave/enclave.h</text>
</a>
</g>
</g>
<!-- Node8&#45;&gt;Node9 -->
<g id="edge9" class="edge">
<title>Node8&#45;&gt;Node9</title>
<path fill="none" stroke="midnightblue" d="M138.49,-495.79C78.83,-481.85 0,-451.03 0,-385.5 0,-385.5 0,-385.5 0,-182.5 0,-126.25 400.65,-85.7 556.77,-72.04"/>
<polygon fill="midnightblue" stroke="midnightblue" points="137.73,-499.2 148.26,-497.96 139.26,-492.37 137.73,-499.2"/>
</g>
<!-- Node11 -->
<g id="node11" class="node">
<title>Node11</title>
<g id="a_node11"><a xlink:href="http__endpoint_8h.html" target="_top" xlink:title=" ">
<polygon fill="white" stroke="black" points="355.5,-436.5 355.5,-455.5 488.5,-455.5 488.5,-436.5 355.5,-436.5"/>
<text text-anchor="middle" x="422" y="-443.5" font-family="Helvetica,sans-Serif" font-size="10.00">src/http/http_endpoint.h</text>
</a>
</g>
</g>
<!-- Node8&#45;&gt;Node11 -->
<g id="edge11" class="edge">
<title>Node8&#45;&gt;Node11</title>
<path fill="none" stroke="midnightblue" d="M240.06,-495.18C280.5,-483.61 345.47,-465.93 385.93,-455.51"/>
<polygon fill="midnightblue" stroke="midnightblue" points="238.97,-491.85 230.33,-497.98 240.91,-498.57 238.97,-491.85"/>
</g>
<!-- Node12 -->
<g id="node12" class="node">
<title>Node12</title>
<g id="a_node12"><a xlink:href="node__client_8h.html" target="_top" xlink:title=" ">
<polygon fill="white" stroke="black" points="143,-436.5 143,-455.5 269,-455.5 269,-436.5 143,-436.5"/>
<text text-anchor="middle" x="206" y="-443.5" font-family="Helvetica,sans-Serif" font-size="10.00">src/node/node_client.h</text>
</a>
</g>
</g>
<!-- Node8&#45;&gt;Node12 -->
<g id="edge13" class="edge">
<title>Node8&#45;&gt;Node12</title>
<path fill="none" stroke="midnightblue" d="M204.63,-487.82C204.99,-477 205.43,-463.9 205.71,-455.51"/>
<polygon fill="midnightblue" stroke="midnightblue" points="201.12,-487.86 204.29,-497.98 208.12,-488.1 201.12,-487.86"/>
</g>
<!-- Node15 -->
<g id="node15" class="node">
<title>Node15</title>
<g id="a_node15"><a xlink:href="node__state_8h.html" target="_top" xlink:title=" ">
<polygon fill="white" stroke="black" points="325,-174 325,-193 449,-193 449,-174 325,-174"/>
<text text-anchor="middle" x="387" y="-181" font-family="Helvetica,sans-Serif" font-size="10.00">src/node/node_state.h</text>
</a>
</g>
</g>
<!-- Node8&#45;&gt;Node15 -->
<g id="edge29" class="edge">
<title>Node8&#45;&gt;Node15</title>
<path fill="none" stroke="midnightblue" d="M173.47,-493.8C135.61,-475.78 76,-438.92 76,-385.5 76,-385.5 76,-385.5 76,-316.5 76,-209.45 234.05,-187.95 324.81,-184.42"/>
<polygon fill="midnightblue" stroke="midnightblue" points="172.03,-496.99 182.58,-497.98 174.94,-490.63 172.03,-496.99"/>
</g>
<!-- Node21 -->
<g id="node21" class="node">
<title>Node21</title>
<g id="a_node21"><a xlink:href="resharing_8h.html" target="_top" xlink:title=" ">
<polygon fill="white" stroke="black" points="329,-241 329,-260 445,-260 445,-241 329,-241"/>
<text text-anchor="middle" x="387" y="-248" font-family="Helvetica,sans-Serif" font-size="10.00">src/node/resharing.h</text>
</a>
</g>
</g>
<!-- Node8&#45;&gt;Node21 -->
<g id="edge30" class="edge">
<title>Node8&#45;&gt;Node21</title>
<path fill="none" stroke="midnightblue" d="M228.64,-493.07C256.77,-478.04 304.4,-453.5 347,-436 393.8,-416.77 425.42,-441.05 455,-400 489.49,-352.15 423.04,-284.02 396.91,-260.16"/>
<polygon fill="midnightblue" stroke="midnightblue" points="226.7,-490.14 219.55,-497.96 230.01,-496.3 226.7,-490.14"/>
</g>
<!-- Node10 -->
<g id="node10" class="node">
<title>Node10</title>
<g id="a_node10"><a xlink:href="enclave_2main_8cpp.html" target="_top" xlink:title=" ">
<polygon fill="white" stroke="black" points="558,-0.5 558,-19.5 678,-19.5 678,-0.5 558,-0.5"/>
<text text-anchor="middle" x="618" y="-7.5" font-family="Helvetica,sans-Serif" font-size="10.00">src/enclave/main.cpp</text>
</a>
</g>
</g>
<!-- Node9&#45;&gt;Node10 -->
<g id="edge10" class="edge">
<title>Node9&#45;&gt;Node10</title>
<path fill="none" stroke="midnightblue" d="M618,-45.8C618,-36.91 618,-26.78 618,-19.75"/>
<polygon fill="midnightblue" stroke="midnightblue" points="614.5,-46.08 618,-56.08 621.5,-46.08 614.5,-46.08"/>
</g>
<!-- Node11&#45;&gt;Node8 -->
<g id="edge12" class="edge">
<title>Node11&#45;&gt;Node8</title>
<path fill="none" stroke="midnightblue" d="M386,-458.31C345.59,-469.86 280.61,-487.55 240.13,-497.98"/>
<polygon fill="midnightblue" stroke="midnightblue" points="387.08,-461.64 395.72,-455.51 385.14,-454.91 387.08,-461.64"/>
</g>
<!-- Node13 -->
<g id="node13" class="node">
<title>Node13</title>
<g id="a_node13"><a xlink:href="orc__requests_8h.html" target="_top" xlink:title=" ">
<polygon fill="white" stroke="black" points="326.5,-369.5 326.5,-399.5 445.5,-399.5 445.5,-369.5 326.5,-369.5"/>
<text text-anchor="start" x="334.5" y="-387.5" font-family="Helvetica,sans-Serif" font-size="10.00">src/consensus/aft/orc</text>
<text text-anchor="middle" x="386" y="-376.5" font-family="Helvetica,sans-Serif" font-size="10.00">_requests.h</text>
</a>
</g>
</g>
<!-- Node12&#45;&gt;Node13 -->
<g id="edge14" class="edge">
<title>Node12&#45;&gt;Node13</title>
<path fill="none" stroke="midnightblue" d="M241.61,-433.23C270.92,-423.54 312.54,-409.78 343.58,-399.52"/>
<polygon fill="midnightblue" stroke="midnightblue" points="240.19,-430.01 231.79,-436.48 242.38,-436.66 240.19,-430.01"/>
</g>
<!-- Node14 -->
<g id="node14" class="node">
<title>Node14</title>
<g id="a_node14"><a xlink:href="raft_8h.html" target="_top" xlink:title=" ">
<polygon fill="white" stroke="black" points="233.5,-308 233.5,-327 362.5,-327 362.5,-308 233.5,-308"/>
<text text-anchor="middle" x="298" y="-315" font-family="Helvetica,sans-Serif" font-size="10.00">src/consensus/aft/raft.h</text>
</a>
</g>
</g>
<!-- Node12&#45;&gt;Node14 -->
<g id="edge24" class="edge">
<title>Node12&#45;&gt;Node14</title>
<path fill="none" stroke="midnightblue" d="M238.39,-432.01C252.85,-424.66 268.87,-414.08 279,-400 295.21,-377.47 297.81,-343.19 298.08,-327.24"/>
<polygon fill="midnightblue" stroke="midnightblue" points="236.72,-428.93 229.19,-436.39 239.72,-435.25 236.72,-428.93"/>
</g>
<!-- Node19 -->
<g id="node19" class="node">
<title>Node19</title>
<g id="a_node19"><a xlink:href="http__node__client_8h.html" target="_top" xlink:title=" ">
<polygon fill="white" stroke="black" points="133,-235.5 133,-265.5 243,-265.5 243,-235.5 133,-235.5"/>
<text text-anchor="start" x="141" y="-253.5" font-family="Helvetica,sans-Serif" font-size="10.00">src/node/http_node</text>
<text text-anchor="middle" x="188" y="-242.5" font-family="Helvetica,sans-Serif" font-size="10.00">_client.h</text>
</a>
</g>
</g>
<!-- Node12&#45;&gt;Node19 -->
<g id="edge25" class="edge">
<title>Node12&#45;&gt;Node19</title>
<path fill="none" stroke="midnightblue" d="M170.55,-432.2C156.22,-425.06 141.16,-414.61 133,-400 107.13,-353.67 151.53,-292.79 174.95,-265.64"/>
<polygon fill="midnightblue" stroke="midnightblue" points="169.24,-435.44 179.79,-436.41 172.15,-429.08 169.24,-435.44"/>
</g>
<!-- Node20 -->
<g id="node20" class="node">
<title>Node20</title>
<g id="a_node20"><a xlink:href="retired__nodes__cleanup_8h.html" target="_top" xlink:title=" ">
<polygon fill="white" stroke="black" points="142,-369.5 142,-399.5 270,-399.5 270,-369.5 142,-369.5"/>
<text text-anchor="start" x="150" y="-387.5" font-family="Helvetica,sans-Serif" font-size="10.00">src/node/retired_nodes</text>
<text text-anchor="middle" x="206" y="-376.5" font-family="Helvetica,sans-Serif" font-size="10.00">_cleanup.h</text>
</a>
</g>
</g>
<!-- Node12&#45;&gt;Node20 -->
<g id="edge27" class="edge">
<title>Node12&#45;&gt;Node20</title>
<path fill="none" stroke="midnightblue" d="M206,-426.23C206,-417.59 206,-407.5 206,-399.52"/>
<polygon fill="midnightblue" stroke="midnightblue" points="202.5,-426.48 206,-436.48 209.5,-426.48 202.5,-426.48"/>
</g>
<!-- Node13&#45;&gt;Node14 -->
<g id="edge15" class="edge">
<title>Node13&#45;&gt;Node14</title>
<path fill="none" stroke="midnightblue" d="M358.66,-363.31C342.14,-351.1 321.93,-336.18 309.52,-327.01"/>
<polygon fill="midnightblue" stroke="midnightblue" points="356.78,-366.27 366.91,-369.4 360.94,-360.64 356.78,-366.27"/>
</g>
<!-- Node17 -->
<g id="node17" class="node">
<title>Node17</title>
<g id="a_node17"><a xlink:href="node__frontend_8h.html" target="_top" xlink:title=" ">
<polygon fill="white" stroke="black" points="539,-308 539,-327 697,-327 697,-308 539,-308"/>
<text text-anchor="middle" x="618" y="-315" font-family="Helvetica,sans-Serif" font-size="10.00">src/node/rpc/node_frontend.h</text>
</a>
</g>
</g>
<!-- Node13&#45;&gt;Node17 -->
<g id="edge20" class="edge">
<title>Node13&#45;&gt;Node17</title>
<path fill="none" stroke="midnightblue" d="M445.78,-366.75C491.16,-354.04 551.67,-337.09 587.56,-327.03"/>
<polygon fill="midnightblue" stroke="midnightblue" points="444.74,-363.41 436.05,-369.48 446.63,-370.15 444.74,-363.41"/>
</g>
<!-- Node14&#45;&gt;Node15 -->
<g id="edge16" class="edge">
<title>Node14&#45;&gt;Node15</title>
<path fill="none" stroke="midnightblue" d="M299.56,-297.81C301.78,-280.29 307.14,-254.03 320,-235 332.64,-216.29 354.54,-201.73 369.85,-193.14"/>
<polygon fill="midnightblue" stroke="midnightblue" points="296.06,-297.58 298.5,-307.89 303.03,-298.31 296.06,-297.58"/>
</g>
<!-- Node15&#45;&gt;Node9 -->
<g id="edge17" class="edge">
<title>Node15&#45;&gt;Node9</title>
<path fill="none" stroke="midnightblue" d="M391.49,-163.65C396.32,-147.53 405.61,-124.93 422,-112 460.24,-81.84 515.01,-71.19 556.93,-67.74"/>
<polygon fill="midnightblue" stroke="midnightblue" points="388.04,-163.02 388.83,-173.59 394.8,-164.83 388.04,-163.02"/>
</g>
<!-- Node16 -->
<g id="node16" class="node">
<title>Node16</title>
<g id="a_node16"><a xlink:href="gov__effects_8h.html" target="_top" xlink:title=" ">
<polygon fill="white" stroke="black" points="431,-112.5 431,-131.5 575,-131.5 575,-112.5 431,-112.5"/>
<text text-anchor="middle" x="503" y="-119.5" font-family="Helvetica,sans-Serif" font-size="10.00">src/node/rpc/gov_effects.h</text>
</a>
</g>
</g>
<!-- Node15&#45;&gt;Node16 -->
<g id="edge18" class="edge">
<title>Node15&#45;&gt;Node16</title>
<path fill="none" stroke="midnightblue" d="M412.6,-169.37C435.09,-157.83 467.13,-141.4 486.41,-131.51"/>
<polygon fill="midnightblue" stroke="midnightblue" points="410.92,-166.3 403.62,-173.98 414.12,-172.53 410.92,-166.3"/>
</g>
<!-- Node16&#45;&gt;Node9 -->
<g id="edge19" class="edge">
<title>Node16&#45;&gt;Node9</title>
<path fill="none" stroke="midnightblue" d="M530.48,-108.1C551.97,-98.01 581.22,-84.27 599.86,-75.52"/>
<polygon fill="midnightblue" stroke="midnightblue" points="528.79,-105.02 521.22,-112.44 531.76,-111.36 528.79,-105.02"/>
</g>
<!-- Node17&#45;&gt;Node9 -->
<g id="edge21" class="edge">
<title>Node17&#45;&gt;Node9</title>
<path fill="none" stroke="midnightblue" d="M618,-297.84C618,-247.64 618,-111.1 618,-75.55"/>
<polygon fill="midnightblue" stroke="midnightblue" points="614.5,-297.91 618,-307.91 621.5,-297.91 614.5,-297.91"/>
</g>
<!-- Node18 -->
<g id="node18" class="node">
<title>Node18</title>
<g id="a_node18"><a xlink:href="jwt__key__auto__refresh_8h.html" target="_top" xlink:title=" ">
<polygon fill="white" stroke="black" points="463.5,-235.5 463.5,-265.5 588.5,-265.5 588.5,-235.5 463.5,-235.5"/>
<text text-anchor="start" x="471.5" y="-253.5" font-family="Helvetica,sans-Serif" font-size="10.00">src/node/jwt_key_auto</text>
<text text-anchor="middle" x="526" y="-242.5" font-family="Helvetica,sans-Serif" font-size="10.00">_refresh.h</text>
</a>
</g>
</g>
<!-- Node17&#45;&gt;Node18 -->
<g id="edge22" class="edge">
<title>Node17&#45;&gt;Node18</title>
<path fill="none" stroke="midnightblue" d="M597.26,-301.85C581.91,-291 561.11,-276.3 545.94,-265.59"/>
<polygon fill="midnightblue" stroke="midnightblue" points="595.41,-304.82 605.59,-307.73 599.44,-299.1 595.41,-304.82"/>
</g>
<!-- Node18&#45;&gt;Node15 -->
<g id="edge23" class="edge">
<title>Node18&#45;&gt;Node15</title>
<path fill="none" stroke="midnightblue" d="M486.72,-231.13C459.97,-218.62 425.79,-202.64 405.19,-193.01"/>
<polygon fill="midnightblue" stroke="midnightblue" points="485.3,-234.33 495.84,-235.4 488.26,-227.99 485.3,-234.33"/>
</g>
<!-- Node19&#45;&gt;Node15 -->
<g id="edge26" class="edge">
<title>Node19&#45;&gt;Node15</title>
<path fill="none" stroke="midnightblue" d="M240.75,-232.27C279.53,-219.6 330.56,-202.93 360.96,-193.01"/>
<polygon fill="midnightblue" stroke="midnightblue" points="239.6,-228.96 231.18,-235.4 241.77,-235.62 239.6,-228.96"/>
</g>
<!-- Node20&#45;&gt;Node14 -->
<g id="edge28" class="edge">
<title>Node20&#45;&gt;Node14</title>
<path fill="none" stroke="midnightblue" d="M234.58,-363.31C251.86,-351.1 272.98,-336.18 285.96,-327.01"/>
<polygon fill="midnightblue" stroke="midnightblue" points="232.11,-360.77 225.96,-369.4 236.15,-366.48 232.11,-360.77"/>
</g>
<!-- Node21&#45;&gt;Node15 -->
<g id="edge31" class="edge">
<title>Node21&#45;&gt;Node15</title>
<path fill="none" stroke="midnightblue" d="M387,-230.54C387,-218.17 387,-202.62 387,-193.13"/>
<polygon fill="midnightblue" stroke="midnightblue" points="383.5,-230.73 387,-240.73 390.5,-230.73 383.5,-230.73"/>
</g>
<!-- Node22&#45;&gt;Node8 -->
<g id="edge33" class="edge">
<title>Node22&#45;&gt;Node8</title>
<path fill="none" stroke="midnightblue" d="M256.86,-774.43C245.6,-753.24 229,-716.19 229,-682 229,-682 229,-682 229,-624 229,-583.17 213.89,-536.03 207.17,-517.06"/>
<polygon fill="midnightblue" stroke="midnightblue" points="253.82,-776.17 261.72,-783.23 259.95,-772.78 253.82,-776.17"/>
</g>
<!-- Node23 -->
<g id="node23" class="node">
<title>Node23</title>
<g id="a_node23"><a xlink:href="tls__endpoint_8h.html" target="_top" xlink:title=" ">
<polygon fill="white" stroke="black" points="406,-727.5 406,-746.5 550,-746.5 550,-727.5 406,-727.5"/>
<text text-anchor="middle" x="478" y="-734.5" font-family="Helvetica,sans-Serif" font-size="10.00">src/enclave/tls_endpoint.h</text>
</a>
</g>
</g>
<!-- Node22&#45;&gt;Node23 -->
<g id="edge34" class="edge">
<title>Node22&#45;&gt;Node23</title>
<path fill="none" stroke="midnightblue" d="M310.14,-780.96C349.99,-770.76 408.36,-755.82 444.72,-746.52"/>
<polygon fill="midnightblue" stroke="midnightblue" points="309.25,-777.57 300.43,-783.44 310.99,-784.35 309.25,-777.57"/>
</g>
<!-- Node35 -->
<g id="node35" class="node">
<title>Node35</title>
<g id="a_node35"><a xlink:href="client_8h.html" target="_top" xlink:title=" ">
<polygon fill="white" stroke="black" points="77.5,-559.5 77.5,-578.5 162.5,-578.5 162.5,-559.5 77.5,-559.5"/>
<text text-anchor="middle" x="120" y="-566.5" font-family="Helvetica,sans-Serif" font-size="10.00">src/tls/client.h</text>
</a>
</g>
</g>
<!-- Node22&#45;&gt;Node35 -->
<g id="edge59" class="edge">
<title>Node22&#45;&gt;Node35</title>
<path fill="none" stroke="midnightblue" d="M246.62,-777.24C236.31,-769.1 224.09,-758.36 215,-747 168.8,-689.28 133.97,-605.77 123.36,-578.77"/>
<polygon fill="midnightblue" stroke="midnightblue" points="244.65,-780.14 254.72,-783.42 248.9,-774.57 244.65,-780.14"/>
</g>
<!-- Node36 -->
<g id="node36" class="node">
<title>Node36</title>
<g id="a_node36"><a xlink:href="server_8h.html" target="_top" xlink:title=" ">
<polygon fill="white" stroke="black" points="257,-671.5 257,-690.5 345,-690.5 345,-671.5 257,-671.5"/>
<text text-anchor="middle" x="301" y="-678.5" font-family="Helvetica,sans-Serif" font-size="10.00">src/tls/server.h</text>
</a>
</g>
</g>
<!-- Node22&#45;&gt;Node36 -->
<g id="edge62" class="edge">
<title>Node22&#45;&gt;Node36</title>
<path fill="none" stroke="midnightblue" d="M272.66,-773.67C280.1,-749.62 292.84,-708.39 298.34,-690.59"/>
<polygon fill="midnightblue" stroke="midnightblue" points="269.28,-772.78 269.67,-783.37 275.96,-774.85 269.28,-772.78"/>
</g>
<!-- Node24 -->
<g id="node24" class="node">
<title>Node24</title>
<g id="a_node24"><a xlink:href="http__parser_8h.html" target="_top" xlink:title=" ">
<polygon fill="white" stroke="black" points="502,-615.5 502,-634.5 622,-634.5 622,-615.5 502,-615.5"/>
<text text-anchor="middle" x="562" y="-622.5" font-family="Helvetica,sans-Serif" font-size="10.00">src/http/http_parser.h</text>
</a>
</g>
</g>
<!-- Node23&#45;&gt;Node24 -->
<g id="edge35" class="edge">
<title>Node23&#45;&gt;Node24</title>
<path fill="none" stroke="midnightblue" d="M480.49,-716.94C483.06,-703.13 488.13,-684.58 498,-671 509.81,-654.74 529.36,-642.24 543.75,-634.59"/>
<polygon fill="midnightblue" stroke="midnightblue" points="476.97,-716.78 478.88,-727.2 483.89,-717.87 476.97,-716.78"/>
</g>
<!-- Node34 -->
<g id="node34" class="node">
<title>Node34</title>
<g id="a_node34"><a xlink:href="http__proc_8h.html" target="_top" xlink:title=" ">
<polygon fill="white" stroke="black" points="506.5,-671.5 506.5,-690.5 617.5,-690.5 617.5,-671.5 506.5,-671.5"/>
<text text-anchor="middle" x="562" y="-678.5" font-family="Helvetica,sans-Serif" font-size="10.00">src/http/http_proc.h</text>
</a>
</g>
</g>
<!-- Node23&#45;&gt;Node34 -->
<g id="edge57" class="edge">
<title>Node23&#45;&gt;Node34</title>
<path fill="none" stroke="midnightblue" d="M499.93,-721.9C515.34,-712 535.45,-699.07 548.54,-690.65"/>
<polygon fill="midnightblue" stroke="midnightblue" points="498.02,-718.97 491.5,-727.32 501.8,-724.86 498.02,-718.97"/>
</g>
<!-- Node24&#45;&gt;Node3 -->
<g id="edge36" class="edge">
<title>Node24&#45;&gt;Node3</title>
<path fill="none" stroke="midnightblue" d="M632.15,-616.18C680.08,-609.52 744.52,-597.93 799,-579 840.96,-564.42 885.99,-538.61 911.98,-522.6"/>
<polygon fill="midnightblue" stroke="midnightblue" points="631.63,-612.72 622.19,-617.53 632.56,-619.66 631.63,-612.72"/>
</g>
<!-- Node24&#45;&gt;Node11 -->
<g id="edge37" class="edge">
<title>Node24&#45;&gt;Node11</title>
<path fill="none" stroke="midnightblue" d="M491.62,-614.96C435.95,-603.7 361.71,-578.61 325,-523 317.41,-511.5 317.59,-503.61 325,-492 337.09,-473.07 359.42,-461.98 379.61,-455.55"/>
<polygon fill="midnightblue" stroke="midnightblue" points="491.3,-618.46 501.78,-616.91 492.62,-611.59 491.3,-618.46"/>
</g>
<!-- Node25 -->
<g id="node25" class="node">
<title>Node25</title>
<g id="a_node25"><a xlink:href="http__jwt_8h.html" target="_top" xlink:title=" ">
<polygon fill="white" stroke="black" points="464.5,-559.5 464.5,-578.5 569.5,-578.5 569.5,-559.5 464.5,-559.5"/>
<text text-anchor="middle" x="517" y="-566.5" font-family="Helvetica,sans-Serif" font-size="10.00">src/http/http_jwt.h</text>
</a>
</g>
</g>
<!-- Node24&#45;&gt;Node25 -->
<g id="edge38" class="edge">
<title>Node24&#45;&gt;Node25</title>
<path fill="none" stroke="midnightblue" d="M547.95,-607.14C540.11,-597.74 530.67,-586.4 524.29,-578.75"/>
<polygon fill="midnightblue" stroke="midnightblue" points="545.48,-609.64 554.57,-615.08 550.86,-605.16 545.48,-609.64"/>
</g>
<!-- Node30 -->
<g id="node30" class="node">
<title>Node30</title>
<g id="a_node30"><a xlink:href="http__rpc__context_8h.html" target="_top" xlink:title=" ">
<polygon fill="white" stroke="black" points="545.5,-498 545.5,-517 692.5,-517 692.5,-498 545.5,-498"/>
<text text-anchor="middle" x="619" y="-505" font-family="Helvetica,sans-Serif" font-size="10.00">src/http/http_rpc_context.h</text>
</a>
</g>
</g>
<!-- Node24&#45;&gt;Node30 -->
<g id="edge47" class="edge">
<title>Node24&#45;&gt;Node30</title>
<path fill="none" stroke="midnightblue" d="M570.79,-606.18C583.19,-581.06 605.34,-536.19 614.67,-517.28"/>
<polygon fill="midnightblue" stroke="midnightblue" points="567.57,-604.8 566.28,-615.32 573.85,-607.9 567.57,-604.8"/>
</g>
<!-- Node32 -->
<g id="node32" class="node">
<title>Node32</title>
<g id="a_node32"><a xlink:href="http__sig_8h.html" target="_top" xlink:title=" ">
<polygon fill="white" stroke="black" points="686,-559.5 686,-578.5 790,-578.5 790,-559.5 686,-559.5"/>
<text text-anchor="middle" x="738" y="-566.5" font-family="Helvetica,sans-Serif" font-size="10.00">src/http/http_sig.h</text>
</a>
</g>
</g>
<!-- Node24&#45;&gt;Node32 -->
<g id="edge53" class="edge">
<title>Node24&#45;&gt;Node32</title>
<path fill="none" stroke="midnightblue" d="M599.69,-612.44C632.87,-602.26 680.43,-587.66 710.24,-578.52"/>
<polygon fill="midnightblue" stroke="midnightblue" points="598.42,-609.16 589.89,-615.44 600.47,-615.86 598.42,-609.16"/>
</g>
<!-- Node26 -->
<g id="node26" class="node">
<title>Node26</title>
<g id="a_node26"><a xlink:href="jwt__auth_8cpp.html" target="_top" xlink:title=" ">
<polygon fill="white" stroke="black" points="333.5,-492.5 333.5,-522.5 488.5,-522.5 488.5,-492.5 333.5,-492.5"/>
<text text-anchor="start" x="341.5" y="-510.5" font-family="Helvetica,sans-Serif" font-size="10.00">src/endpoints/authentication</text>
<text text-anchor="middle" x="411" y="-499.5" font-family="Helvetica,sans-Serif" font-size="10.00">/jwt_auth.cpp</text>
</a>
</g>
</g>
<!-- Node25&#45;&gt;Node26 -->
<g id="edge39" class="edge">
<title>Node25&#45;&gt;Node26</title>
<path fill="none" stroke="midnightblue" d="M493.02,-554.54C476.01,-544.99 453.22,-532.2 435.98,-522.52"/>
<polygon fill="midnightblue" stroke="midnightblue" points="491.38,-557.63 501.81,-559.48 494.81,-551.53 491.38,-557.63"/>
</g>
<!-- Node27 -->
<g id="node27" class="node">
<title>Node27</title>
<g id="a_node27"><a xlink:href="frontend_8h.html" target="_top" xlink:title=" ">
<polygon fill="white" stroke="black" points="660.5,-375 660.5,-394 789.5,-394 789.5,-375 660.5,-375"/>
<text text-anchor="middle" x="725" y="-382" font-family="Helvetica,sans-Serif" font-size="10.00">src/node/rpc/frontend.h</text>
</a>
</g>
</g>
<!-- Node25&#45;&gt;Node27 -->
<g id="edge40" class="edge">
<title>Node25&#45;&gt;Node27</title>
<path fill="none" stroke="midnightblue" d="M517.93,-548.94C519.62,-532.38 524.28,-508.51 537,-492 578.09,-438.66 653.99,-407.76 695.68,-394.06"/>
<polygon fill="midnightblue" stroke="midnightblue" points="514.43,-548.83 517.17,-559.06 521.41,-549.35 514.43,-548.83"/>
</g>
<!-- Node27&#45;&gt;Node15 -->
<g id="edge41" class="edge">
<title>Node27&#45;&gt;Node15</title>
<path fill="none" stroke="midnightblue" d="M724.63,-364.57C723.41,-346.88 719.27,-320.5 706,-302 673.07,-256.1 650.13,-256.74 598,-235 547.94,-214.12 487.43,-200.75 444.08,-193.05"/>
<polygon fill="midnightblue" stroke="midnightblue" points="721.14,-364.93 725.08,-374.77 728.14,-364.62 721.14,-364.93"/>
</g>
<!-- Node27&#45;&gt;Node17 -->
<g id="edge44" class="edge">
<title>Node27&#45;&gt;Node17</title>
<path fill="none" stroke="midnightblue" d="M701.86,-369.44C680.67,-356.57 649.98,-337.93 632.2,-327.13"/>
<polygon fill="midnightblue" stroke="midnightblue" points="700.21,-372.53 710.57,-374.73 703.84,-366.55 700.21,-372.53"/>
</g>
<!-- Node28 -->
<g id="node28" class="node">
<title>Node28</title>
<g id="a_node28"><a xlink:href="member__frontend_8h.html" target="_top" xlink:title=" ">
<polygon fill="white" stroke="black" points="770,-168.5 770,-198.5 890,-198.5 890,-168.5 770,-168.5"/>
<text text-anchor="start" x="778" y="-186.5" font-family="Helvetica,sans-Serif" font-size="10.00">src/node/rpc/member</text>
<text text-anchor="middle" x="830" y="-175.5" font-family="Helvetica,sans-Serif" font-size="10.00">_frontend.h</text>
</a>
</g>
</g>
<!-- Node27&#45;&gt;Node28 -->
<g id="edge42" class="edge">
<title>Node27&#45;&gt;Node28</title>
<path fill="none" stroke="midnightblue" d="M744.59,-368.3C755.39,-359.08 768.32,-346.5 777,-333 805.72,-288.33 821.35,-226.08 827.23,-198.55"/>
<polygon fill="midnightblue" stroke="midnightblue" points="742.36,-365.61 736.86,-374.67 746.81,-371.02 742.36,-365.61"/>
</g>
<!-- Node29 -->
<g id="node29" class="node">
<title>Node29</title>
<g id="a_node29"><a xlink:href="user__frontend_8h.html" target="_top" xlink:title=" ">
<polygon fill="white" stroke="black" points="646.5,-112.5 646.5,-131.5 801.5,-131.5 801.5,-112.5 646.5,-112.5"/>
<text text-anchor="middle" x="724" y="-119.5" font-family="Helvetica,sans-Serif" font-size="10.00">src/node/rpc/user_frontend.h</text>
</a>
</g>
</g>
<!-- Node27&#45;&gt;Node29 -->
<g id="edge45" class="edge">
<title>Node27&#45;&gt;Node29</title>
<path fill="none" stroke="midnightblue" d="M725.46,-364.66C725.67,-355.17 725.9,-343.47 726,-333 726.77,-254.98 724.86,-160.65 724.21,-131.8"/>
<polygon fill="midnightblue" stroke="midnightblue" points="721.96,-364.84 725.22,-374.92 728.95,-365.01 721.96,-364.84"/>
</g>
<!-- Node28&#45;&gt;Node9 -->
<g id="edge43" class="edge">
<title>Node28&#45;&gt;Node9</title>
<path fill="none" stroke="midnightblue" d="M829.53,-158.17C827.93,-142.9 823.32,-123.91 811,-112 792.32,-93.95 728.53,-81.54 679.34,-74.39"/>
<polygon fill="midnightblue" stroke="midnightblue" points="826.06,-158.74 830.24,-168.48 833.05,-158.27 826.06,-158.74"/>
</g>
<!-- Node29&#45;&gt;Node9 -->
<g id="edge46" class="edge">
<title>Node29&#45;&gt;Node9</title>
<path fill="none" stroke="midnightblue" d="M697.94,-107.73C678.32,-97.73 651.97,-84.31 634.99,-75.65"/>
<polygon fill="midnightblue" stroke="midnightblue" points="696.47,-110.9 706.97,-112.32 699.65,-104.67 696.47,-110.9"/>
</g>
<!-- Node30&#45;&gt;Node11 -->
<g id="edge48" class="edge">
<title>Node30&#45;&gt;Node11</title>
<path fill="none" stroke="midnightblue" d="M581.02,-495.03C542.73,-483.46 484.53,-465.88 450.17,-455.51"/>
<polygon fill="midnightblue" stroke="midnightblue" points="580.19,-498.43 590.77,-497.98 582.21,-491.73 580.19,-498.43"/>
</g>
<!-- Node30&#45;&gt;Node18 -->
<g id="edge49" class="edge">
<title>Node30&#45;&gt;Node18</title>
<path fill="none" stroke="midnightblue" d="M606.88,-489.14C586.61,-459.02 546.43,-394.38 530,-333 523.85,-310.01 524.05,-282.1 524.91,-265.62"/>
<polygon fill="midnightblue" stroke="midnightblue" points="604.17,-491.38 612.71,-497.66 609.95,-487.43 604.17,-491.38"/>
</g>
<!-- Node31 -->
<g id="node31" class="node">
<title>Node31</title>
<g id="a_node31"><a xlink:href="forwarder_8h.html" target="_top" xlink:title=" ">
<polygon fill="white" stroke="black" points="658,-436.5 658,-455.5 792,-455.5 792,-436.5 658,-436.5"/>
<text text-anchor="middle" x="725" y="-443.5" font-family="Helvetica,sans-Serif" font-size="10.00">src/node/rpc/forwarder.h</text>
</a>
</g>
</g>
<!-- Node30&#45;&gt;Node31 -->
<g id="edge50" class="edge">
<title>Node30&#45;&gt;Node31</title>
<path fill="none" stroke="midnightblue" d="M642.95,-493.06C663.46,-481.54 692.38,-465.31 709.84,-455.51"/>
<polygon fill="midnightblue" stroke="midnightblue" points="641.19,-490.03 634.19,-497.98 644.62,-496.13 641.19,-490.03"/>
</g>
<!-- Node31&#45;&gt;Node9 -->
<g id="edge51" class="edge">
<title>Node31&#45;&gt;Node9</title>
<path fill="none" stroke="midnightblue" d="M779.27,-433.89C836.36,-418.65 918,-385.21 918,-318.5 918,-318.5 918,-318.5 918,-182.5 918,-132.73 875.93,-133.41 831,-112 782.89,-89.08 723.16,-77.76 679.21,-72.21"/>
<polygon fill="midnightblue" stroke="midnightblue" points="778.1,-430.57 769.28,-436.44 779.83,-437.36 778.1,-430.57"/>
</g>
<!-- Node31&#45;&gt;Node27 -->
<g id="edge52" class="edge">
<title>Node31&#45;&gt;Node27</title>
<path fill="none" stroke="midnightblue" d="M725,-426.32C725,-415.5 725,-402.4 725,-394.01"/>
<polygon fill="midnightblue" stroke="midnightblue" points="721.5,-426.48 725,-436.48 728.5,-426.48 721.5,-426.48"/>
</g>
<!-- Node32&#45;&gt;Node3 -->
<g id="edge54" class="edge">
<title>Node32&#45;&gt;Node3</title>
<path fill="none" stroke="midnightblue" d="M775.94,-556.48C807.89,-546.78 853.72,-532.87 887.81,-522.52"/>
<polygon fill="midnightblue" stroke="midnightblue" points="774.63,-553.22 766.08,-559.48 776.67,-559.92 774.63,-553.22"/>
</g>
<!-- Node32&#45;&gt;Node30 -->
<g id="edge56" class="edge">
<title>Node32&#45;&gt;Node30</title>
<path fill="none" stroke="midnightblue" d="M711.73,-554.87C688.67,-543.33 655.8,-526.9 636.02,-517.01"/>
<polygon fill="midnightblue" stroke="midnightblue" points="710.44,-558.13 720.95,-559.48 713.57,-551.87 710.44,-558.13"/>
</g>
<!-- Node33 -->
<g id="node33" class="node">
<title>Node33</title>
<g id="a_node33"><a xlink:href="sig__auth_8cpp.html" target="_top" xlink:title=" ">
<polygon fill="white" stroke="black" points="710.5,-492.5 710.5,-522.5 865.5,-522.5 865.5,-492.5 710.5,-492.5"/>
<text text-anchor="start" x="718.5" y="-510.5" font-family="Helvetica,sans-Serif" font-size="10.00">src/endpoints/authentication</text>
<text text-anchor="middle" x="788" y="-499.5" font-family="Helvetica,sans-Serif" font-size="10.00">/sig_auth.cpp</text>
</a>
</g>
</g>
<!-- Node32&#45;&gt;Node33 -->
<g id="edge55" class="edge">
<title>Node32&#45;&gt;Node33</title>
<path fill="none" stroke="midnightblue" d="M751.6,-551.81C759.3,-542.65 768.84,-531.3 776.22,-522.52"/>
<polygon fill="midnightblue" stroke="midnightblue" points="748.92,-549.57 745.16,-559.48 754.28,-554.07 748.92,-549.57"/>
</g>
<!-- Node34&#45;&gt;Node24 -->
<g id="edge58" class="edge">
<title>Node34&#45;&gt;Node24</title>
<path fill="none" stroke="midnightblue" d="M562,-660.8C562,-651.91 562,-641.78 562,-634.75"/>
<polygon fill="midnightblue" stroke="midnightblue" points="558.5,-661.08 562,-671.08 565.5,-661.08 558.5,-661.08"/>
</g>
<!-- Node35&#45;&gt;Node8 -->
<g id="edge60" class="edge">
<title>Node35&#45;&gt;Node8</title>
<path fill="none" stroke="midnightblue" d="M140.31,-553.61C156.47,-542.17 178.52,-526.55 191.99,-517.01"/>
<polygon fill="midnightblue" stroke="midnightblue" points="138.17,-550.84 132.04,-559.48 142.22,-556.55 138.17,-550.84"/>
</g>
<!-- Node35&#45;&gt;Node15 -->
<g id="edge61" class="edge">
<title>Node35&#45;&gt;Node15</title>
<path fill="none" stroke="midnightblue" d="M100.7,-552.78C76.46,-531.8 38,-491.49 38,-447 38,-447 38,-447 38,-316.5 38,-273.77 53.49,-258.76 89,-235 126.67,-209.79 249.2,-195.61 324.9,-189.05"/>
<polygon fill="midnightblue" stroke="midnightblue" points="98.68,-555.65 108.6,-559.37 103.17,-550.28 98.68,-555.65"/>
</g>
<!-- Node36&#45;&gt;Node8 -->
<g id="edge63" class="edge">
<title>Node36&#45;&gt;Node8</title>
<path fill="none" stroke="midnightblue" d="M293.84,-662.15C283.85,-637.99 264.51,-593.9 243,-559 233.35,-543.35 219.82,-526.76 211.49,-517.03"/>
<polygon fill="midnightblue" stroke="midnightblue" points="290.63,-663.53 297.64,-671.47 297.11,-660.89 290.63,-663.53"/>
</g>
</g>
</svg>
        <g id="navigator" transform="translate(0 0)" fill="#404254">
                <rect fill="#f2f5e9" fill-opacity="0.5" stroke="#606060" stroke-width=".5" x="0" y="0" width="60" height="60"/>
                <use id="zoomplus" xlink:href="#zoomPlus" x="17" y="9" onmousedown="handleZoom(evt,'in')"/>
                <use id="zoomminus" xlink:href="#zoomMin" x="42" y="9" onmousedown="handleZoom(evt,'out')"/>
                <use id="reset" xlink:href="#resetDef" x="30" y="36" onmousedown="handleReset()"/>
                <g id="arrowUp" xlink:href="#dirArrow" transform="translate(30 24)" onmousedown="handlePan(0,-1)">
                  <use xlink:href="#rim" fill="#404040">
                        <set attributeName="fill" to="#808080" begin="arrowUp.mouseover" end="arrowUp.mouseout"/>
                  </use>
                  <path fill="none" stroke="white" stroke-width="1.5" d="M0,-3.0v7 M-2.5,-0.5L0,-3.0L2.5,-0.5"/>
                </g>
                <g id="arrowRight" xlink:href="#dirArrow" transform="rotate(90) translate(36 -43)" onmousedown="handlePan(1,0)">
                  <use xlink:href="#rim" fill="#404040">
                        <set attributeName="fill" to="#808080" begin="arrowRight.mouseover" end="arrowRight.mouseout"/>
                  </use>
                  <path fill="none" stroke="white" stroke-width="1.5" d="M0,-3.0v7 M-2.5,-0.5L0,-3.0L2.5,-0.5"/>
                </g>
                <g id="arrowDown" xlink:href="#dirArrow" transform="rotate(180) translate(-30 -48)" onmousedown="handlePan(0,1)">
                  <use xlink:href="#rim" fill="#404040">
                        <set attributeName="fill" to="#808080" begin="arrowDown.mouseover" end="arrowDown.mouseout"/>
                  </use>
                  <path fill="none" stroke="white" stroke-width="1.5" d="M0,-3.0v7 M-2.5,-0.5L0,-3.0L2.5,-0.5"/>
                </g>
                <g id="arrowLeft" xlink:href="#dirArrow" transform="rotate(270) translate(-36 17)" onmousedown="handlePan(-1,0)">
                  <use xlink:href="#rim" fill="#404040">
                        <set attributeName="fill" to="#808080" begin="arrowLeft.mouseover" end="arrowLeft.mouseout"/>
                  </use>
                  <path fill="none" stroke="white" stroke-width="1.5" d="M0,-3.0v7 M-2.5,-0.5L0,-3.0L2.5,-0.5"/>
                </g>
        </g>
        <svg viewBox="0 0 15 15" width="100%" height="30px" preserveAspectRatio="xMaxYMin meet">
         <g id="arrow_out" transform="scale(0.3 0.3)">
          <a xlink:href="cert_8h__dep__incl_org.svg" target="_base">
           <rect id="button" ry="5" rx="5" y="6" x="6" height="38" width="38"
                fill="#f2f5e9" fill-opacity="0.5" stroke="#606060" stroke-width="1.0"/>
           <path id="arrow"
             d="M 11.500037,31.436501 C 11.940474,20.09759 22.043105,11.32322 32.158766,21.979434 L 37.068811,17.246167 C 37.068811,17.246167 37.088388,32 37.088388,32 L 22.160133,31.978069 C 22.160133,31.978069 26.997745,27.140456 26.997745,27.140456 C 18.528582,18.264221 13.291696,25.230495 11.500037,31.436501 z"
             style="fill:#404040;"/>
          </a>
         </g>
        </svg>
</svg>
