<?xml version="1.0" encoding="UTF-8" standalone="no"?>
<!DOCTYPE svg PUBLIC "-//W3C//DTD SVG 1.1//EN"
 "http://www.w3.org/Graphics/SVG/1.1/DTD/svg11.dtd">
<!-- Generated by graphviz version 2.43.0 (0)
 -->
<!-- Title: src/tls/client.h Pages: 1 -->
<!--zoomable 565 -->
<svg id="main" version="1.1" xmlns="http://www.w3.org/2000/svg" xmlns:xlink="http://www.w3.org/1999/xlink" xml:space="preserve" onload="init(evt)">
<style type="text/css"><![CDATA[
.edge:hover path { stroke: red; }
.edge:hover polygon { stroke: red; fill: red; }
]]></style>
<script type="text/javascript"><![CDATA[
var edges = document.getElementsByTagName('g');
if (edges && edges.length) {
  for (var i=0;i<edges.length;i++) {
    if (edges[i].id.substr(0,4)=='edge') {
      edges[i].setAttribute('class','edge');
    }
  }
}
]]></script>
        <defs>
                <circle id="rim" cx="0" cy="0" r="7"/>
                <circle id="rim2" cx="0" cy="0" r="3.5"/>
                <g id="zoomPlus">
                        <use xlink:href="#rim" fill="#404040">
                                <set attributeName="fill" to="#808080" begin="zoomplus.mouseover" end="zoomplus.mouseout"/>
                        </use>
                        <path d="M-4,0h8M0,-4v8" fill="none" stroke="white" stroke-width="1.5" pointer-events="none"/>
                </g>
                <g id="zoomMin">
                        <use xlink:href="#rim" fill="#404040">
                                <set attributeName="fill" to="#808080" begin="zoomminus.mouseover" end="zoomminus.mouseout"/>
                        </use>
                        <path d="M-4,0h8" fill="none" stroke="white" stroke-width="1.5" pointer-events="none"/>
                </g>
                <g id="dirArrow">
                        <path fill="none" stroke="white" stroke-width="1.5" d="M0,-3.0v7 M-2.5,-0.5L0,-3.0L2.5,-0.5"/>
                </g>
               <g id="resetDef">
                       <use xlink:href="#rim2" fill="#404040">
                               <set attributeName="fill" to="#808080" begin="reset.mouseover" end="reset.mouseout"/>
                       </use>
               </g>
        </defs>

<script type="text/javascript">
var viewWidth = 675;
var viewHeight = 565;
var sectionId = 'dynsection-1';
</script>
<script xlink:href="svgpan.js"/>
<svg id="graph" class="graph">
<g id="viewport">
<title>src/tls/client.h</title>
<polygon fill="white" stroke="transparent" points="-4,4 -4,-561 671,-561 671,4 -4,4"/>
<!-- Node1 -->
<g id="node1" class="node">
<title>Node1</title>
<g id="a_node1"><a xlink:title=" ">
<polygon fill="#bfbfbf" stroke="black" points="23.5,-537.5 23.5,-556.5 108.5,-556.5 108.5,-537.5 23.5,-537.5"/>
<text text-anchor="middle" x="66" y="-544.5" font-family="Helvetica,sans-Serif" font-size="10.00">src/tls/client.h</text>
</a>
</g>
</g>
<!-- Node2 -->
<g id="node2" class="node">
<title>Node2</title>
<g id="a_node2"><a xlink:href="rpc__sessions_8h.html" target="_top" xlink:title=" ">
<polygon fill="white" stroke="black" points="60,-481.5 60,-500.5 206,-500.5 206,-481.5 60,-481.5"/>
<text text-anchor="middle" x="133" y="-488.5" font-family="Helvetica,sans-Serif" font-size="10.00">src/enclave/rpc_sessions.h</text>
</a>
</g>
</g>
<!-- Node1&#45;&gt;Node2 -->
<g id="edge1" class="edge">
<title>Node1&#45;&gt;Node2</title>
<path fill="none" stroke="midnightblue" d="M84.83,-530.82C96.84,-521.15 111.97,-508.95 122.04,-500.83"/>
<polygon fill="midnightblue" stroke="midnightblue" points="82.35,-528.32 76.76,-537.32 86.75,-533.77 82.35,-528.32"/>
</g>
<!-- Node9 -->
<g id="node9" class="node">
<title>Node9</title>
<g id="a_node9"><a xlink:href="node__state_8h.html" target="_top" xlink:title=" ">
<polygon fill="white" stroke="black" points="196,-168.5 196,-187.5 320,-187.5 320,-168.5 196,-168.5"/>
<text text-anchor="middle" x="258" y="-175.5" font-family="Helvetica,sans-Serif" font-size="10.00">src/node/node_state.h</text>
</a>
</g>
</g>
<!-- Node1&#45;&gt;Node9 -->
<g id="edge25" class="edge">
<title>Node1&#45;&gt;Node9</title>
<path fill="none" stroke="midnightblue" d="M49.09,-530.36C29.54,-510.48 0,-474.14 0,-436 0,-436 0,-436 0,-305.5 0,-218.57 119.53,-191.37 195.87,-182.87"/>
<polygon fill="midnightblue" stroke="midnightblue" points="46.67,-532.88 56.26,-537.37 51.56,-527.88 46.67,-532.88"/>
</g>
<!-- Node3 -->
<g id="node3" class="node">
<title>Node3</title>
<g id="a_node3"><a xlink:href="enclave_2enclave_8h.html" target="_top" xlink:title=" ">
<polygon fill="white" stroke="black" points="338,-56.5 338,-75.5 460,-75.5 460,-56.5 338,-56.5"/>
<text text-anchor="middle" x="399" y="-63.5" font-family="Helvetica,sans-Serif" font-size="10.00">src/enclave/enclave.h</text>
</a>
</g>
</g>
<!-- Node2&#45;&gt;Node3 -->
<g id="edge2" class="edge">
<title>Node2&#45;&gt;Node3</title>
<path fill="none" stroke="midnightblue" d="M216.23,-489.03C366.35,-485.02 667,-465.6 667,-374.5 667,-374.5 667,-374.5 667,-177 667,-88.1 539.25,-69.52 460.15,-66.54"/>
<polygon fill="midnightblue" stroke="midnightblue" points="216.04,-485.54 206.13,-489.29 216.22,-492.53 216.04,-485.54"/>
</g>
<!-- Node5 -->
<g id="node5" class="node">
<title>Node5</title>
<g id="a_node5"><a xlink:href="http__endpoint_8h.html" target="_top" xlink:title=" ">
<polygon fill="white" stroke="black" points="66.5,-425.5 66.5,-444.5 199.5,-444.5 199.5,-425.5 66.5,-425.5"/>
<text text-anchor="middle" x="133" y="-432.5" font-family="Helvetica,sans-Serif" font-size="10.00">src/http/http_endpoint.h</text>
</a>
</g>
</g>
<!-- Node2&#45;&gt;Node5 -->
<g id="edge4" class="edge">
<title>Node2&#45;&gt;Node5</title>
<path fill="none" stroke="midnightblue" d="M126.53,-471.1C125.9,-462.14 126.34,-451.86 127.87,-444.75"/>
<polygon fill="midnightblue" stroke="midnightblue" points="123.07,-471.62 127.83,-481.08 130.01,-470.71 123.07,-471.62"/>
</g>
<!-- Node6 -->
<g id="node6" class="node">
<title>Node6</title>
<g id="a_node6"><a xlink:href="node__client_8h.html" target="_top" xlink:title=" ">
<polygon fill="white" stroke="black" points="321,-425.5 321,-444.5 447,-444.5 447,-425.5 321,-425.5"/>
<text text-anchor="middle" x="384" y="-432.5" font-family="Helvetica,sans-Serif" font-size="10.00">src/node/node_client.h</text>
</a>
</g>
</g>
<!-- Node2&#45;&gt;Node6 -->
<g id="edge6" class="edge">
<title>Node2&#45;&gt;Node6</title>
<path fill="none" stroke="midnightblue" d="M182.82,-479.28C230.25,-469.08 300.7,-453.92 344.41,-444.52"/>
<polygon fill="midnightblue" stroke="midnightblue" points="181.81,-475.92 172.77,-481.44 183.28,-482.76 181.81,-475.92"/>
</g>
<!-- Node2&#45;&gt;Node9 -->
<g id="edge22" class="edge">
<title>Node2&#45;&gt;Node9</title>
<path fill="none" stroke="midnightblue" d="M99.94,-477.35C84.83,-470.02 67.91,-459.36 57,-445 37.37,-419.16 38,-406.95 38,-374.5 38,-374.5 38,-374.5 38,-305.5 38,-231.81 131.9,-200.41 197.01,-187.5"/>
<polygon fill="midnightblue" stroke="midnightblue" points="98.49,-480.54 109.05,-481.49 101.39,-474.17 98.49,-480.54"/>
</g>
<!-- Node15 -->
<g id="node15" class="node">
<title>Node15</title>
<g id="a_node15"><a xlink:href="resharing_8h.html" target="_top" xlink:title=" ">
<polygon fill="white" stroke="black" points="118,-230 118,-249 234,-249 234,-230 118,-230"/>
<text text-anchor="middle" x="176" y="-237" font-family="Helvetica,sans-Serif" font-size="10.00">src/node/resharing.h</text>
</a>
</g>
</g>
<!-- Node2&#45;&gt;Node15 -->
<g id="edge23" class="edge">
<title>Node2&#45;&gt;Node15</title>
<path fill="none" stroke="midnightblue" d="M170.52,-477.23C185.23,-470.16 200.59,-459.75 209,-445 218.88,-427.66 186.81,-286.61 178.11,-249.45"/>
<polygon fill="midnightblue" stroke="midnightblue" points="168.76,-474.17 161.02,-481.4 171.58,-480.58 168.76,-474.17"/>
</g>
<!-- Node4 -->
<g id="node4" class="node">
<title>Node4</title>
<g id="a_node4"><a xlink:href="enclave_2main_8cpp.html" target="_top" xlink:title=" ">
<polygon fill="white" stroke="black" points="339,-0.5 339,-19.5 459,-19.5 459,-0.5 339,-0.5"/>
<text text-anchor="middle" x="399" y="-7.5" font-family="Helvetica,sans-Serif" font-size="10.00">src/enclave/main.cpp</text>
</a>
</g>
</g>
<!-- Node3&#45;&gt;Node4 -->
<g id="edge3" class="edge">
<title>Node3&#45;&gt;Node4</title>
<path fill="none" stroke="midnightblue" d="M399,-45.8C399,-36.91 399,-26.78 399,-19.75"/>
<polygon fill="midnightblue" stroke="midnightblue" points="395.5,-46.08 399,-56.08 402.5,-46.08 395.5,-46.08"/>
</g>
<!-- Node5&#45;&gt;Node2 -->
<g id="edge5" class="edge">
<title>Node5&#45;&gt;Node2</title>
<path fill="none" stroke="midnightblue" d="M139.46,-454.69C140.11,-463.64 139.68,-473.93 138.17,-481.08"/>
<polygon fill="midnightblue" stroke="midnightblue" points="142.92,-454.2 138.13,-444.75 135.98,-455.13 142.92,-454.2"/>
</g>
<!-- Node7 -->
<g id="node7" class="node">
<title>Node7</title>
<g id="a_node7"><a xlink:href="orc__requests_8h.html" target="_top" xlink:title=" ">
<polygon fill="white" stroke="black" points="324.5,-358.5 324.5,-388.5 443.5,-388.5 443.5,-358.5 324.5,-358.5"/>
<text text-anchor="start" x="332.5" y="-376.5" font-family="Helvetica,sans-Serif" font-size="10.00">src/consensus/aft/orc</text>
<text text-anchor="middle" x="384" y="-365.5" font-family="Helvetica,sans-Serif" font-size="10.00">_requests.h</text>
</a>
</g>
</g>
<!-- Node6&#45;&gt;Node7 -->
<g id="edge7" class="edge">
<title>Node6&#45;&gt;Node7</title>
<path fill="none" stroke="midnightblue" d="M384,-415.23C384,-406.59 384,-396.5 384,-388.52"/>
<polygon fill="midnightblue" stroke="midnightblue" points="380.5,-415.48 384,-425.48 387.5,-415.48 380.5,-415.48"/>
</g>
<!-- Node8 -->
<g id="node8" class="node">
<title>Node8</title>
<g id="a_node8"><a xlink:href="raft_8h.html" target="_top" xlink:title=" ">
<polygon fill="white" stroke="black" points="509.5,-297 509.5,-316 638.5,-316 638.5,-297 509.5,-297"/>
<text text-anchor="middle" x="574" y="-304" font-family="Helvetica,sans-Serif" font-size="10.00">src/consensus/aft/raft.h</text>
</a>
</g>
</g>
<!-- Node6&#45;&gt;Node8 -->
<g id="edge17" class="edge">
<title>Node6&#45;&gt;Node8</title>
<path fill="none" stroke="midnightblue" d="M457.23,-428.4C512.31,-422.49 581.23,-410.87 599,-389 616.92,-366.94 593.9,-332.13 581.27,-316.1"/>
<polygon fill="midnightblue" stroke="midnightblue" points="456.71,-424.94 447.12,-429.44 457.43,-431.9 456.71,-424.94"/>
</g>
<!-- Node13 -->
<g id="node13" class="node">
<title>Node13</title>
<g id="a_node13"><a xlink:href="http__node__client_8h.html" target="_top" xlink:title=" ">
<polygon fill="white" stroke="black" points="205,-291.5 205,-321.5 315,-321.5 315,-291.5 205,-291.5"/>
<text text-anchor="start" x="213" y="-309.5" font-family="Helvetica,sans-Serif" font-size="10.00">src/node/http_node</text>
<text text-anchor="middle" x="260" y="-298.5" font-family="Helvetica,sans-Serif" font-size="10.00">_client.h</text>
</a>
</g>
</g>
<!-- Node6&#45;&gt;Node13 -->
<g id="edge18" class="edge">
<title>Node6&#45;&gt;Node13</title>
<path fill="none" stroke="midnightblue" d="M358.5,-420.32C344.95,-412.3 328.55,-401.33 316,-389 295.06,-368.42 277.11,-338.97 267.5,-321.68"/>
<polygon fill="midnightblue" stroke="midnightblue" points="356.92,-423.45 367.34,-425.38 360.4,-417.38 356.92,-423.45"/>
</g>
<!-- Node14 -->
<g id="node14" class="node">
<title>Node14</title>
<g id="a_node14"><a xlink:href="retired__nodes__cleanup_8h.html" target="_top" xlink:title=" ">
<polygon fill="white" stroke="black" points="462,-358.5 462,-388.5 590,-388.5 590,-358.5 462,-358.5"/>
<text text-anchor="start" x="470" y="-376.5" font-family="Helvetica,sans-Serif" font-size="10.00">src/node/retired_nodes</text>
<text text-anchor="middle" x="526" y="-365.5" font-family="Helvetica,sans-Serif" font-size="10.00">_cleanup.h</text>
</a>
</g>
</g>
<!-- Node6&#45;&gt;Node14 -->
<g id="edge20" class="edge">
<title>Node6&#45;&gt;Node14</title>
<path fill="none" stroke="midnightblue" d="M413.62,-421.59C436.64,-411.94 468.59,-398.56 492.53,-388.52"/>
<polygon fill="midnightblue" stroke="midnightblue" points="412.22,-418.38 404.35,-425.48 414.92,-424.84 412.22,-418.38"/>
</g>
<!-- Node7&#45;&gt;Node8 -->
<g id="edge8" class="edge">
<title>Node7&#45;&gt;Node8</title>
<path fill="none" stroke="midnightblue" d="M434.84,-355.11C471.8,-342.46 520.24,-325.89 549.13,-316.01"/>
<polygon fill="midnightblue" stroke="midnightblue" points="433.56,-351.85 425.23,-358.4 435.82,-358.47 433.56,-351.85"/>
</g>
<!-- Node11 -->
<g id="node11" class="node">
<title>Node11</title>
<g id="a_node11"><a xlink:href="node__frontend_8h.html" target="_top" xlink:title=" ">
<polygon fill="white" stroke="black" points="333,-297 333,-316 491,-316 491,-297 333,-297"/>
<text text-anchor="middle" x="412" y="-304" font-family="Helvetica,sans-Serif" font-size="10.00">src/node/rpc/node_frontend.h</text>
</a>
</g>
</g>
<!-- Node7&#45;&gt;Node11 -->
<g id="edge13" class="edge">
<title>Node7&#45;&gt;Node11</title>
<path fill="none" stroke="midnightblue" d="M394.15,-348.94C399.06,-337.54 404.66,-324.55 408.25,-316.19"/>
<polygon fill="midnightblue" stroke="midnightblue" points="390.82,-347.83 390.08,-358.4 397.25,-350.6 390.82,-347.83"/>
</g>
<!-- Node8&#45;&gt;Node9 -->
<g id="edge9" class="edge">
<title>Node8&#45;&gt;Node9</title>
<path fill="none" stroke="midnightblue" d="M552.79,-291.41C525.1,-273.56 474.67,-242.86 428,-224 386.67,-207.3 337.19,-195.01 302.3,-187.54"/>
<polygon fill="midnightblue" stroke="midnightblue" points="550.97,-294.41 561.26,-296.93 554.8,-288.54 550.97,-294.41"/>
</g>
<!-- Node9&#45;&gt;Node3 -->
<g id="edge10" class="edge">
<title>Node9&#45;&gt;Node3</title>
<path fill="none" stroke="midnightblue" d="M256.02,-158.16C255.58,-143.92 257.37,-124.72 268,-112 285.27,-91.34 312.51,-80.14 337.68,-74.08"/>
<polygon fill="midnightblue" stroke="midnightblue" points="252.54,-158.56 256.73,-168.29 259.53,-158.07 252.54,-158.56"/>
</g>
<!-- Node10 -->
<g id="node10" class="node">
<title>Node10</title>
<g id="a_node10"><a xlink:href="gov__effects_8h.html" target="_top" xlink:title=" ">
<polygon fill="white" stroke="black" points="277,-112.5 277,-131.5 421,-131.5 421,-112.5 277,-112.5"/>
<text text-anchor="middle" x="349" y="-119.5" font-family="Helvetica,sans-Serif" font-size="10.00">src/node/rpc/gov_effects.h</text>
</a>
</g>
</g>
<!-- Node9&#45;&gt;Node10 -->
<g id="edge11" class="edge">
<title>Node9&#45;&gt;Node10</title>
<path fill="none" stroke="midnightblue" d="M281.29,-163.18C298.04,-153.24 320.1,-140.15 334.42,-131.65"/>
<polygon fill="midnightblue" stroke="midnightblue" points="279.43,-160.21 272.62,-168.32 283.01,-166.23 279.43,-160.21"/>
</g>
<!-- Node10&#45;&gt;Node3 -->
<g id="edge12" class="edge">
<title>Node10&#45;&gt;Node3</title>
<path fill="none" stroke="midnightblue" d="M364.08,-104.72C372.89,-95.2 383.67,-83.56 390.9,-75.75"/>
<polygon fill="midnightblue" stroke="midnightblue" points="361.48,-102.37 357.26,-112.08 366.62,-107.12 361.48,-102.37"/>
</g>
<!-- Node11&#45;&gt;Node3 -->
<g id="edge14" class="edge">
<title>Node11&#45;&gt;Node3</title>
<path fill="none" stroke="midnightblue" d="M419.2,-287.25C422.56,-277.79 426.22,-265.95 428,-255 438.22,-192.27 448.88,-172.69 430,-112 425.6,-97.87 415.05,-84.25 407.48,-75.77"/>
<polygon fill="midnightblue" stroke="midnightblue" points="415.87,-286.16 415.63,-296.75 422.42,-288.62 415.87,-286.16"/>
</g>
<!-- Node12 -->
<g id="node12" class="node">
<title>Node12</title>
<g id="a_node12"><a xlink:href="jwt__key__auto__refresh_8h.html" target="_top" xlink:title=" ">
<polygon fill="white" stroke="black" points="293.5,-224.5 293.5,-254.5 418.5,-254.5 418.5,-224.5 293.5,-224.5"/>
<text text-anchor="start" x="301.5" y="-242.5" font-family="Helvetica,sans-Serif" font-size="10.00">src/node/jwt_key_auto</text>
<text text-anchor="middle" x="356" y="-231.5" font-family="Helvetica,sans-Serif" font-size="10.00">_refresh.h</text>
</a>
</g>
</g>
<!-- Node11&#45;&gt;Node12 -->
<g id="edge15" class="edge">
<title>Node11&#45;&gt;Node12</title>
<path fill="none" stroke="midnightblue" d="M397.78,-288.99C388.62,-278.36 376.85,-264.7 368.14,-254.59"/>
<polygon fill="midnightblue" stroke="midnightblue" points="395.27,-291.44 404.45,-296.73 400.57,-286.87 395.27,-291.44"/>
</g>
<!-- Node12&#45;&gt;Node9 -->
<g id="edge16" class="edge">
<title>Node12&#45;&gt;Node9</title>
<path fill="none" stroke="midnightblue" d="M324,-219.07C306.53,-208.46 285.77,-195.86 272.26,-187.66"/>
<polygon fill="midnightblue" stroke="midnightblue" points="322.41,-222.2 332.78,-224.4 326.04,-216.22 322.41,-222.2"/>
</g>
<!-- Node13&#45;&gt;Node9 -->
<g id="edge19" class="edge">
<title>Node13&#45;&gt;Node9</title>
<path fill="none" stroke="midnightblue" d="M259.61,-281.14C259.16,-252.62 258.44,-206.86 258.14,-187.79"/>
<polygon fill="midnightblue" stroke="midnightblue" points="256.12,-281.54 259.78,-291.48 263.12,-281.42 256.12,-281.54"/>
</g>
<!-- Node14&#45;&gt;Node8 -->
<g id="edge21" class="edge">
<title>Node14&#45;&gt;Node8</title>
<path fill="none" stroke="midnightblue" d="M542.38,-350.32C551.04,-338.6 561.16,-324.88 567.58,-316.19"/>
<polygon fill="midnightblue" stroke="midnightblue" points="539.54,-348.27 536.42,-358.4 545.17,-352.43 539.54,-348.27"/>
</g>
<!-- Node15&#45;&gt;Node9 -->
<g id="edge24" class="edge">
<title>Node15&#45;&gt;Node9</title>
<path fill="none" stroke="midnightblue" d="M196.27,-223.79C212,-212.38 233.25,-196.96 246.27,-187.51"/>
<polygon fill="midnightblue" stroke="midnightblue" points="193.79,-221.27 187.75,-229.98 197.9,-226.93 193.79,-221.27"/>
</g>
</g>
</svg>
        <g id="navigator" transform="translate(0 0)" fill="#404254">
                <rect fill="#f2f5e9" fill-opacity="0.5" stroke="#606060" stroke-width=".5" x="0" y="0" width="60" height="60"/>
                <use id="zoomplus" xlink:href="#zoomPlus" x="17" y="9" onmousedown="handleZoom(evt,'in')"/>
                <use id="zoomminus" xlink:href="#zoomMin" x="42" y="9" onmousedown="handleZoom(evt,'out')"/>
                <use id="reset" xlink:href="#resetDef" x="30" y="36" onmousedown="handleReset()"/>
                <g id="arrowUp" xlink:href="#dirArrow" transform="translate(30 24)" onmousedown="handlePan(0,-1)">
                  <use xlink:href="#rim" fill="#404040">
                        <set attributeName="fill" to="#808080" begin="arrowUp.mouseover" end="arrowUp.mouseout"/>
                  </use>
                  <path fill="none" stroke="white" stroke-width="1.5" d="M0,-3.0v7 M-2.5,-0.5L0,-3.0L2.5,-0.5"/>
                </g>
                <g id="arrowRight" xlink:href="#dirArrow" transform="rotate(90) translate(36 -43)" onmousedown="handlePan(1,0)">
                  <use xlink:href="#rim" fill="#404040">
                        <set attributeName="fill" to="#808080" begin="arrowRight.mouseover" end="arrowRight.mouseout"/>
                  </use>
                  <path fill="none" stroke="white" stroke-width="1.5" d="M0,-3.0v7 M-2.5,-0.5L0,-3.0L2.5,-0.5"/>
                </g>
                <g id="arrowDown" xlink:href="#dirArrow" transform="rotate(180) translate(-30 -48)" onmousedown="handlePan(0,1)">
                  <use xlink:href="#rim" fill="#404040">
                        <set attributeName="fill" to="#808080" begin="arrowDown.mouseover" end="arrowDown.mouseout"/>
                  </use>
                  <path fill="none" stroke="white" stroke-width="1.5" d="M0,-3.0v7 M-2.5,-0.5L0,-3.0L2.5,-0.5"/>
                </g>
                <g id="arrowLeft" xlink:href="#dirArrow" transform="rotate(270) translate(-36 17)" onmousedown="handlePan(-1,0)">
                  <use xlink:href="#rim" fill="#404040">
                        <set attributeName="fill" to="#808080" begin="arrowLeft.mouseover" end="arrowLeft.mouseout"/>
                  </use>
                  <path fill="none" stroke="white" stroke-width="1.5" d="M0,-3.0v7 M-2.5,-0.5L0,-3.0L2.5,-0.5"/>
                </g>
        </g>
        <svg viewBox="0 0 15 15" width="100%" height="30px" preserveAspectRatio="xMaxYMin meet">
         <g id="arrow_out" transform="scale(0.3 0.3)">
          <a xlink:href="client_8h__dep__incl_org.svg" target="_base">
           <rect id="button" ry="5" rx="5" y="6" x="6" height="38" width="38"
                fill="#f2f5e9" fill-opacity="0.5" stroke="#606060" stroke-width="1.0"/>
           <path id="arrow"
             d="M 11.500037,31.436501 C 11.940474,20.09759 22.043105,11.32322 32.158766,21.979434 L 37.068811,17.246167 C 37.068811,17.246167 37.088388,32 37.088388,32 L 22.160133,31.978069 C 22.160133,31.978069 26.997745,27.140456 26.997745,27.140456 C 18.528582,18.264221 13.291696,25.230495 11.500037,31.436501 z"
             style="fill:#404040;"/>
          </a>
         </g>
        </svg>
</svg>
