<?xml version="1.0" encoding="UTF-8" standalone="no"?>
<!DOCTYPE svg PUBLIC "-//W3C//DTD SVG 1.1//EN"
 "http://www.w3.org/Graphics/SVG/1.1/DTD/svg11.dtd">
<!-- Generated by graphviz version 2.43.0 (0)
 -->
<!-- Title: src/consensus/aft/request.h Pages: 1 -->
<svg width="2298pt" height="643pt"
 viewBox="0.00 0.00 2298.38 643.00" xmlns="http://www.w3.org/2000/svg" xmlns:xlink="http://www.w3.org/1999/xlink">
<g id="graph0" class="graph" transform="scale(1 1) rotate(0) translate(4 639)">
<title>src/consensus/aft/request.h</title>
<polygon fill="white" stroke="transparent" points="-4,4 -4,-639 2294.38,-639 2294.38,4 -4,4"/>
<!-- Node1 -->
<g id="node1" class="node">
<title>Node1</title>
<g id="a_node1"><a xlink:title=" ">
<polygon fill="#bfbfbf" stroke="black" points="771,-615.5 771,-634.5 920,-634.5 920,-615.5 771,-615.5"/>
<text text-anchor="middle" x="845.5" y="-622.5" font-family="Helvetica,sans-Serif" font-size="10.00">src/consensus/aft/request.h</text>
</a>
</g>
</g>
<!-- Node2 -->
<g id="node2" class="node">
<title>Node2</title>
<g id="a_node2"><a xlink:href="deserialise_8h.html" target="_top" xlink:title=" ">
<polygon fill="white" stroke="black" points="640,-559.5 640,-578.5 751,-578.5 751,-559.5 640,-559.5"/>
<text text-anchor="middle" x="695.5" y="-566.5" font-family="Helvetica,sans-Serif" font-size="10.00">src/kv/deserialise.h</text>
</a>
</g>
</g>
<!-- Node1&#45;&gt;Node2 -->
<g id="edge1" class="edge">
<title>Node1&#45;&gt;Node2</title>
<path fill="none" stroke="midnightblue" d="M812.28,-612.04C784.05,-601.88 744.24,-587.55 719.16,-578.52"/>
<polygon fill="midnightblue" stroke="midnightblue" points="811.14,-615.35 821.73,-615.44 813.51,-608.76 811.14,-615.35"/>
</g>
<!-- Node3 -->
<g id="node3" class="node">
<title>Node3</title>
<g id="a_node3"><a xlink:href="store_8h.html" target="_top" xlink:title=" ">
<polygon fill="white" stroke="black" points="560,-503.5 560,-522.5 643,-522.5 643,-503.5 560,-503.5"/>
<text text-anchor="middle" x="601.5" y="-510.5" font-family="Helvetica,sans-Serif" font-size="10.00">src/kv/store.h</text>
</a>
</g>
</g>
<!-- Node1&#45;&gt;Node3 -->
<g id="edge71" class="edge">
<title>Node1&#45;&gt;Node3</title>
<path fill="none" stroke="midnightblue" d="M828.56,-608.15C812.08,-593.5 785.75,-572.08 759.5,-559 722.23,-540.43 676.08,-528.4 643.3,-521.5"/>
<polygon fill="midnightblue" stroke="midnightblue" points="826.48,-610.98 836.23,-615.11 831.18,-605.8 826.48,-610.98"/>
</g>
<!-- Node20 -->
<g id="node20" class="node">
<title>Node20</title>
<g id="a_node20"><a xlink:href="frontend_8h.html" target="_top" xlink:title=" ">
<polygon fill="white" stroke="black" points="1305,-375 1305,-394 1434,-394 1434,-375 1305,-375"/>
<text text-anchor="middle" x="1369.5" y="-382" font-family="Helvetica,sans-Serif" font-size="10.00">src/node/rpc/frontend.h</text>
</a>
</g>
</g>
<!-- Node1&#45;&gt;Node20 -->
<g id="edge72" class="edge">
<title>Node1&#45;&gt;Node20</title>
<path fill="none" stroke="midnightblue" d="M873.67,-611.18C968.06,-568.22 1271.58,-430.07 1350.57,-394.12"/>
<polygon fill="midnightblue" stroke="midnightblue" points="872.11,-608.04 864.46,-615.37 875.01,-614.41 872.11,-608.04"/>
</g>
<!-- Node25 -->
<g id="node25" class="node">
<title>Node25</title>
<g id="a_node25"><a xlink:href="network__tables_8h.html" target="_top" xlink:title=" ">
<polygon fill="white" stroke="black" points="856.5,-436.5 856.5,-466.5 968.5,-466.5 968.5,-436.5 856.5,-436.5"/>
<text text-anchor="start" x="864.5" y="-454.5" font-family="Helvetica,sans-Serif" font-size="10.00">src/service/network</text>
<text text-anchor="middle" x="912.5" y="-443.5" font-family="Helvetica,sans-Serif" font-size="10.00">_tables.h</text>
</a>
</g>
</g>
<!-- Node1&#45;&gt;Node25 -->
<g id="edge73" class="edge">
<title>Node1&#45;&gt;Node25</title>
<path fill="none" stroke="midnightblue" d="M852.71,-605.54C866.17,-571.09 894.85,-497.67 906.94,-466.72"/>
<polygon fill="midnightblue" stroke="midnightblue" points="849.29,-604.67 848.91,-615.26 855.81,-607.22 849.29,-604.67"/>
</g>
<!-- Node2&#45;&gt;Node3 -->
<g id="edge2" class="edge">
<title>Node2&#45;&gt;Node3</title>
<path fill="none" stroke="midnightblue" d="M671.44,-554.18C654.14,-544.24 631.35,-531.15 616.57,-522.65"/>
<polygon fill="midnightblue" stroke="midnightblue" points="669.98,-557.38 680.4,-559.32 673.47,-551.31 669.98,-557.38"/>
</g>
<!-- Node4 -->
<g id="node4" class="node">
<title>Node4</title>
<g id="a_node4"><a xlink:href="indexer_8h.html" target="_top" xlink:title=" ">
<polygon fill="white" stroke="black" points="363,-442 363,-461 486,-461 486,-442 363,-442"/>
<text text-anchor="middle" x="424.5" y="-449" font-family="Helvetica,sans-Serif" font-size="10.00">src/indexing/indexer.h</text>
</a>
</g>
</g>
<!-- Node3&#45;&gt;Node4 -->
<g id="edge3" class="edge">
<title>Node3&#45;&gt;Node4</title>
<path fill="none" stroke="midnightblue" d="M566.49,-500.23C532.09,-488.67 480.42,-471.3 449.81,-461.01"/>
<polygon fill="midnightblue" stroke="midnightblue" points="565.55,-503.61 576.14,-503.48 567.78,-496.97 565.55,-503.61"/>
</g>
<!-- Node9 -->
<g id="node9" class="node">
<title>Node9</title>
<g id="a_node9"><a xlink:href="visit__each__entry__in__map_8cpp.html" target="_top" xlink:title=" ">
<polygon fill="white" stroke="black" points="184,-436.5 184,-466.5 345,-466.5 345,-436.5 184,-436.5"/>
<text text-anchor="start" x="192" y="-454.5" font-family="Helvetica,sans-Serif" font-size="10.00">src/indexing/strategies</text>
<text text-anchor="middle" x="264.5" y="-443.5" font-family="Helvetica,sans-Serif" font-size="10.00">/visit_each_entry_in_map.cpp</text>
</a>
</g>
</g>
<!-- Node3&#45;&gt;Node9 -->
<g id="edge9" class="edge">
<title>Node3&#45;&gt;Node9</title>
<path fill="none" stroke="midnightblue" d="M549.99,-502.91C495.14,-493.22 407.64,-477.77 343.95,-466.53"/>
<polygon fill="midnightblue" stroke="midnightblue" points="549.38,-506.35 559.84,-504.64 550.6,-499.46 549.38,-506.35"/>
</g>
<!-- Node10 -->
<g id="node10" class="node">
<title>Node10</title>
<g id="a_node10"><a xlink:href="historical__queries_8h.html" target="_top" xlink:title=" ">
<polygon fill="white" stroke="black" points="57.5,-302.5 57.5,-332.5 163.5,-332.5 163.5,-302.5 57.5,-302.5"/>
<text text-anchor="start" x="65.5" y="-320.5" font-family="Helvetica,sans-Serif" font-size="10.00">src/node/historical</text>
<text text-anchor="middle" x="110.5" y="-309.5" font-family="Helvetica,sans-Serif" font-size="10.00">_queries.h</text>
</a>
</g>
</g>
<!-- Node3&#45;&gt;Node10 -->
<g id="edge10" class="edge">
<title>Node3&#45;&gt;Node10</title>
<path fill="none" stroke="midnightblue" d="M549.69,-512.89C449.29,-513.63 232.92,-509.99 174.5,-467 129.73,-434.05 115.93,-363.24 111.97,-332.84"/>
<polygon fill="midnightblue" stroke="midnightblue" points="549.94,-516.39 559.91,-512.8 549.87,-509.39 549.94,-516.39"/>
</g>
<!-- Node12 -->
<g id="node12" class="node">
<title>Node12</title>
<g id="a_node12"><a xlink:href="history_8h.html" target="_top" xlink:title=" ">
<polygon fill="white" stroke="black" points="504.5,-442 504.5,-461 606.5,-461 606.5,-442 504.5,-442"/>
<text text-anchor="middle" x="555.5" y="-449" font-family="Helvetica,sans-Serif" font-size="10.00">src/node/history.h</text>
</a>
</g>
</g>
<!-- Node3&#45;&gt;Node12 -->
<g id="edge14" class="edge">
<title>Node3&#45;&gt;Node12</title>
<path fill="none" stroke="midnightblue" d="M588.62,-495.34C579.98,-484.17 568.97,-469.93 562.08,-461.01"/>
<polygon fill="midnightblue" stroke="midnightblue" points="586.02,-497.7 594.91,-503.48 591.56,-493.42 586.02,-497.7"/>
</g>
<!-- Node3&#45;&gt;Node20 -->
<g id="edge27" class="edge">
<title>Node3&#45;&gt;Node20</title>
<path fill="none" stroke="midnightblue" d="M653.37,-507.21C726.08,-500.18 862.32,-485.83 977.5,-467 1109.73,-445.38 1265.06,-410.12 1333.75,-394.01"/>
<polygon fill="midnightblue" stroke="midnightblue" points="652.73,-503.76 643.11,-508.2 653.4,-510.73 652.73,-503.76"/>
</g>
<!-- Node3&#45;&gt;Node25 -->
<g id="edge37" class="edge">
<title>Node3&#45;&gt;Node25</title>
<path fill="none" stroke="midnightblue" d="M653.2,-502.11C709.31,-491.37 798.62,-474.29 856.4,-463.23"/>
<polygon fill="midnightblue" stroke="midnightblue" points="652.28,-498.72 643.12,-504.04 653.6,-505.6 652.28,-498.72"/>
</g>
<!-- Node5 -->
<g id="node5" class="node">
<title>Node5</title>
<g id="a_node5"><a xlink:href="node__state_8h.html" target="_top" xlink:title=" ">
<polygon fill="white" stroke="black" points="924.5,-179.5 924.5,-198.5 1048.5,-198.5 1048.5,-179.5 924.5,-179.5"/>
<text text-anchor="middle" x="986.5" y="-186.5" font-family="Helvetica,sans-Serif" font-size="10.00">src/node/node_state.h</text>
</a>
</g>
</g>
<!-- Node4&#45;&gt;Node5 -->
<g id="edge4" class="edge">
<title>Node4&#45;&gt;Node5</title>
<path fill="none" stroke="midnightblue" d="M370.24,-439.46C341.62,-431.75 307.05,-419.3 280.5,-400 218.09,-354.62 173.58,-291.15 226.5,-235 250.31,-209.74 747.06,-195.63 924.32,-191.38"/>
<polygon fill="midnightblue" stroke="midnightblue" points="369.54,-442.89 380.09,-441.99 371.28,-436.11 369.54,-442.89"/>
</g>
<!-- Node6 -->
<g id="node6" class="node">
<title>Node6</title>
<g id="a_node6"><a xlink:href="enclave_2enclave_8h.html" target="_top" xlink:title=" ">
<polygon fill="white" stroke="black" points="1220.5,-56.5 1220.5,-75.5 1342.5,-75.5 1342.5,-56.5 1220.5,-56.5"/>
<text text-anchor="middle" x="1281.5" y="-63.5" font-family="Helvetica,sans-Serif" font-size="10.00">src/enclave/enclave.h</text>
</a>
</g>
</g>
<!-- Node5&#45;&gt;Node6 -->
<g id="edge5" class="edge">
<title>Node5&#45;&gt;Node6</title>
<path fill="none" stroke="midnightblue" d="M995.69,-170.01C1005.71,-152.32 1023.44,-126.01 1046.5,-112 1099.4,-79.87 1170.33,-69.9 1220.38,-67.17"/>
<polygon fill="midnightblue" stroke="midnightblue" points="992.37,-168.8 990.7,-179.27 998.53,-172.12 992.37,-168.8"/>
</g>
<!-- Node8 -->
<g id="node8" class="node">
<title>Node8</title>
<g id="a_node8"><a xlink:href="gov__effects_8h.html" target="_top" xlink:title=" ">
<polygon fill="white" stroke="black" points="1055.5,-118 1055.5,-137 1199.5,-137 1199.5,-118 1055.5,-118"/>
<text text-anchor="middle" x="1127.5" y="-125" font-family="Helvetica,sans-Serif" font-size="10.00">src/node/rpc/gov_effects.h</text>
</a>
</g>
</g>
<!-- Node5&#45;&gt;Node8 -->
<g id="edge7" class="edge">
<title>Node5&#45;&gt;Node8</title>
<path fill="none" stroke="midnightblue" d="M1016.17,-175.48C1043.55,-163.92 1083.48,-147.08 1107.34,-137.01"/>
<polygon fill="midnightblue" stroke="midnightblue" points="1014.55,-172.36 1006.7,-179.48 1017.28,-178.81 1014.55,-172.36"/>
</g>
<!-- Node7 -->
<g id="node7" class="node">
<title>Node7</title>
<g id="a_node7"><a xlink:href="enclave_2main_8cpp.html" target="_top" xlink:title=" ">
<polygon fill="white" stroke="black" points="1221.5,-0.5 1221.5,-19.5 1341.5,-19.5 1341.5,-0.5 1221.5,-0.5"/>
<text text-anchor="middle" x="1281.5" y="-7.5" font-family="Helvetica,sans-Serif" font-size="10.00">src/enclave/main.cpp</text>
</a>
</g>
</g>
<!-- Node6&#45;&gt;Node7 -->
<g id="edge6" class="edge">
<title>Node6&#45;&gt;Node7</title>
<path fill="none" stroke="midnightblue" d="M1281.5,-45.8C1281.5,-36.91 1281.5,-26.78 1281.5,-19.75"/>
<polygon fill="midnightblue" stroke="midnightblue" points="1278,-46.08 1281.5,-56.08 1285,-46.08 1278,-46.08"/>
</g>
<!-- Node8&#45;&gt;Node6 -->
<g id="edge8" class="edge">
<title>Node8&#45;&gt;Node6</title>
<path fill="none" stroke="midnightblue" d="M1159.12,-114.28C1189.05,-102.72 1233.19,-85.66 1259.48,-75.51"/>
<polygon fill="midnightblue" stroke="midnightblue" points="1157.63,-111.11 1149.56,-117.98 1160.15,-117.64 1157.63,-111.11"/>
</g>
<!-- Node10&#45;&gt;Node6 -->
<g id="edge11" class="edge">
<title>Node10&#45;&gt;Node6</title>
<path fill="none" stroke="midnightblue" d="M128.76,-294.66C145.98,-275.65 173.55,-249 203.5,-235 387.55,-149.01 1019.99,-89.17 1220.21,-72.03"/>
<polygon fill="midnightblue" stroke="midnightblue" points="126.03,-292.47 122.04,-302.28 131.28,-297.1 126.03,-292.47"/>
</g>
<!-- Node11 -->
<g id="node11" class="node">
<title>Node11</title>
<g id="a_node11"><a xlink:href="historical__transaction__fetcher_8h.html" target="_top" xlink:title=" ">
<polygon fill="white" stroke="black" points="0,-112.5 0,-142.5 125,-142.5 125,-112.5 0,-112.5"/>
<text text-anchor="start" x="8" y="-130.5" font-family="Helvetica,sans-Serif" font-size="10.00">src/indexing/historical</text>
<text text-anchor="middle" x="62.5" y="-119.5" font-family="Helvetica,sans-Serif" font-size="10.00">_transaction_fetcher.h</text>
</a>
</g>
</g>
<!-- Node10&#45;&gt;Node11 -->
<g id="edge12" class="edge">
<title>Node10&#45;&gt;Node11</title>
<path fill="none" stroke="midnightblue" d="M104.36,-292.47C94.21,-252.7 74.23,-174.44 66.08,-142.54"/>
<polygon fill="midnightblue" stroke="midnightblue" points="101.03,-293.55 106.89,-302.37 107.81,-291.81 101.03,-293.55"/>
</g>
<!-- Node11&#45;&gt;Node6 -->
<g id="edge13" class="edge">
<title>Node11&#45;&gt;Node6</title>
<path fill="none" stroke="midnightblue" d="M135.59,-112.47C136.9,-112.3 138.21,-112.15 139.5,-112 351.81,-87.96 1015.19,-72.52 1220.39,-68.22"/>
<polygon fill="midnightblue" stroke="midnightblue" points="134.84,-109.04 125.42,-113.87 135.8,-115.97 134.84,-109.04"/>
</g>
<!-- Node12&#45;&gt;Node5 -->
<g id="edge16" class="edge">
<title>Node12&#45;&gt;Node5</title>
<path fill="none" stroke="midnightblue" d="M512.59,-439.3C468.45,-427.6 402.83,-409.63 378.5,-400 318.06,-376.08 282.33,-388.5 248.5,-333 225.83,-295.81 218.65,-266.72 248.5,-235 271.52,-210.53 750.54,-195.99 924.27,-191.5"/>
<polygon fill="midnightblue" stroke="midnightblue" points="511.92,-442.75 522.48,-441.92 513.7,-435.98 511.92,-442.75"/>
</g>
<!-- Node12&#45;&gt;Node10 -->
<g id="edge15" class="edge">
<title>Node12&#45;&gt;Node10</title>
<path fill="none" stroke="midnightblue" d="M511.57,-439.59C505.85,-438.3 500.04,-437.07 494.5,-436 388.17,-415.46 355.84,-435.42 253.5,-400 205.97,-383.55 156.21,-351.2 129.74,-332.58"/>
<polygon fill="midnightblue" stroke="midnightblue" points="511.2,-443.09 521.73,-441.93 512.78,-436.27 511.2,-443.09"/>
</g>
<!-- Node13 -->
<g id="node13" class="node">
<title>Node13</title>
<g id="a_node13"><a xlink:href="snapshot__serdes_8h.html" target="_top" xlink:title=" ">
<polygon fill="white" stroke="black" points="525.5,-308 525.5,-327 677.5,-327 677.5,-308 525.5,-308"/>
<text text-anchor="middle" x="601.5" y="-315" font-family="Helvetica,sans-Serif" font-size="10.00">src/node/snapshot_serdes.h</text>
</a>
</g>
</g>
<!-- Node12&#45;&gt;Node13 -->
<g id="edge17" class="edge">
<title>Node12&#45;&gt;Node13</title>
<path fill="none" stroke="midnightblue" d="M561.89,-432.16C571.97,-403.23 591.17,-348.13 598.53,-327.02"/>
<polygon fill="midnightblue" stroke="midnightblue" points="558.5,-431.24 558.52,-441.84 565.11,-433.55 558.5,-431.24"/>
</g>
<!-- Node15 -->
<g id="node15" class="node">
<title>Node15</title>
<g id="a_node15"><a xlink:href="tx__receipt_8h.html" target="_top" xlink:title=" ">
<polygon fill="white" stroke="black" points="388,-375 388,-394 507,-394 507,-375 388,-375"/>
<text text-anchor="middle" x="447.5" y="-382" font-family="Helvetica,sans-Serif" font-size="10.00">src/node/tx_receipt.h</text>
</a>
</g>
</g>
<!-- Node12&#45;&gt;Node15 -->
<g id="edge20" class="edge">
<title>Node12&#45;&gt;Node15</title>
<path fill="none" stroke="midnightblue" d="M532.14,-436.44C510.75,-423.57 479.78,-404.93 461.83,-394.13"/>
<polygon fill="midnightblue" stroke="midnightblue" points="530.56,-439.58 540.93,-441.73 534.17,-433.58 530.56,-439.58"/>
</g>
<!-- Node14 -->
<g id="node14" class="node">
<title>Node14</title>
<g id="a_node14"><a xlink:href="snapshotter_8h.html" target="_top" xlink:title=" ">
<polygon fill="white" stroke="black" points="550,-241 550,-260 677,-260 677,-241 550,-241"/>
<text text-anchor="middle" x="613.5" y="-248" font-family="Helvetica,sans-Serif" font-size="10.00">src/node/snapshotter.h</text>
</a>
</g>
</g>
<!-- Node13&#45;&gt;Node14 -->
<g id="edge18" class="edge">
<title>Node13&#45;&gt;Node14</title>
<path fill="none" stroke="midnightblue" d="M605,-297.54C607.28,-285.17 610.15,-269.62 611.91,-260.13"/>
<polygon fill="midnightblue" stroke="midnightblue" points="601.49,-297.26 603.12,-307.73 608.38,-298.54 601.49,-297.26"/>
</g>
<!-- Node14&#45;&gt;Node5 -->
<g id="edge19" class="edge">
<title>Node14&#45;&gt;Node5</title>
<path fill="none" stroke="midnightblue" d="M667.9,-239.15C675.81,-237.72 683.86,-236.29 691.5,-235 772.85,-221.24 867.14,-207.18 926.8,-198.53"/>
<polygon fill="midnightblue" stroke="midnightblue" points="667.21,-235.72 658,-240.97 668.47,-242.61 667.21,-235.72"/>
</g>
<!-- Node15&#45;&gt;Node10 -->
<g id="edge24" class="edge">
<title>Node15&#45;&gt;Node10</title>
<path fill="none" stroke="midnightblue" d="M392.93,-372.97C329.7,-360.78 226.21,-340.82 163.61,-328.74"/>
<polygon fill="midnightblue" stroke="midnightblue" points="392.61,-376.48 403.1,-374.94 393.94,-369.6 392.61,-376.48"/>
</g>
<!-- Node15&#45;&gt;Node13 -->
<g id="edge26" class="edge">
<title>Node15&#45;&gt;Node13</title>
<path fill="none" stroke="midnightblue" d="M477.24,-370.95C507.73,-358.08 554.34,-338.4 580.97,-327.17"/>
<polygon fill="midnightblue" stroke="midnightblue" points="475.8,-367.76 467.95,-374.87 478.52,-374.2 475.8,-367.76"/>
</g>
<!-- Node16 -->
<g id="node16" class="node">
<title>Node16</title>
<g id="a_node16"><a xlink:href="src_2apps_2js__v8_2tmpl_2receipt_8h.html" target="_top" xlink:title=" ">
<polygon fill="white" stroke="black" points="258,-302.5 258,-332.5 369,-332.5 369,-302.5 258,-302.5"/>
<text text-anchor="start" x="266" y="-320.5" font-family="Helvetica,sans-Serif" font-size="10.00">src/apps/js_v8/tmpl</text>
<text text-anchor="middle" x="313.5" y="-309.5" font-family="Helvetica,sans-Serif" font-size="10.00">/receipt.h</text>
</a>
</g>
</g>
<!-- Node15&#45;&gt;Node16 -->
<g id="edge21" class="edge">
<title>Node15&#45;&gt;Node16</title>
<path fill="none" stroke="midnightblue" d="M420.65,-370.47C397.99,-359.49 365.64,-343.79 342.42,-332.53"/>
<polygon fill="midnightblue" stroke="midnightblue" points="419.18,-373.65 429.71,-374.87 422.24,-367.35 419.18,-373.65"/>
</g>
<!-- Node19 -->
<g id="node19" class="node">
<title>Node19</title>
<g id="a_node19"><a xlink:href="historical__queries__adapter_8cpp.html" target="_top" xlink:title=" ">
<polygon fill="white" stroke="black" points="387.5,-302.5 387.5,-332.5 507.5,-332.5 507.5,-302.5 387.5,-302.5"/>
<text text-anchor="start" x="395.5" y="-320.5" font-family="Helvetica,sans-Serif" font-size="10.00">src/node/historical</text>
<text text-anchor="middle" x="447.5" y="-309.5" font-family="Helvetica,sans-Serif" font-size="10.00">_queries_adapter.cpp</text>
</a>
</g>
</g>
<!-- Node15&#45;&gt;Node19 -->
<g id="edge25" class="edge">
<title>Node15&#45;&gt;Node19</title>
<path fill="none" stroke="midnightblue" d="M447.5,-364.41C447.5,-354.22 447.5,-341.9 447.5,-332.59"/>
<polygon fill="midnightblue" stroke="midnightblue" points="444,-364.73 447.5,-374.73 451,-364.73 444,-364.73"/>
</g>
<!-- Node17 -->
<g id="node17" class="node">
<title>Node17</title>
<g id="a_node17"><a xlink:href="historical__state_8cpp.html" target="_top" xlink:title=" ">
<polygon fill="white" stroke="black" points="258,-235.5 258,-265.5 373,-265.5 373,-235.5 258,-235.5"/>
<text text-anchor="start" x="266" y="-253.5" font-family="Helvetica,sans-Serif" font-size="10.00">src/apps/js_v8/tmpl</text>
<text text-anchor="middle" x="315.5" y="-242.5" font-family="Helvetica,sans-Serif" font-size="10.00">/historical_state.cpp</text>
</a>
</g>
</g>
<!-- Node16&#45;&gt;Node17 -->
<g id="edge22" class="edge">
<title>Node16&#45;&gt;Node17</title>
<path fill="none" stroke="midnightblue" d="M314.25,-292.11C314.53,-283.15 314.83,-273.32 315.07,-265.58"/>
<polygon fill="midnightblue" stroke="midnightblue" points="310.74,-292.29 313.93,-302.4 317.74,-292.51 310.74,-292.29"/>
</g>
<!-- Node18 -->
<g id="node18" class="node">
<title>Node18</title>
<g id="a_node18"><a xlink:href="receipt_8cpp.html" target="_top" xlink:title=" ">
<polygon fill="white" stroke="black" points="391,-235.5 391,-265.5 502,-265.5 502,-235.5 391,-235.5"/>
<text text-anchor="start" x="399" y="-253.5" font-family="Helvetica,sans-Serif" font-size="10.00">src/apps/js_v8/tmpl</text>
<text text-anchor="middle" x="446.5" y="-242.5" font-family="Helvetica,sans-Serif" font-size="10.00">/receipt.cpp</text>
</a>
</g>
</g>
<!-- Node16&#45;&gt;Node18 -->
<g id="edge23" class="edge">
<title>Node16&#45;&gt;Node18</title>
<path fill="none" stroke="midnightblue" d="M351.37,-297.99C372.45,-287.69 398.28,-275.07 417.7,-265.58"/>
<polygon fill="midnightblue" stroke="midnightblue" points="349.81,-294.86 342.36,-302.4 352.88,-301.15 349.81,-294.86"/>
</g>
<!-- Node20&#45;&gt;Node5 -->
<g id="edge28" class="edge">
<title>Node20&#45;&gt;Node5</title>
<path fill="none" stroke="midnightblue" d="M1370.33,-364.68C1370.08,-346.26 1366.7,-318.63 1350.5,-302 1306.27,-256.6 1269.02,-294.69 1212.5,-266 1193.06,-256.13 1194.03,-244.67 1174.5,-235 1134.95,-215.42 1086.42,-204.08 1048.58,-197.69"/>
<polygon fill="midnightblue" stroke="midnightblue" points="1366.83,-364.72 1370.17,-374.77 1373.83,-364.83 1366.83,-364.72"/>
</g>
<!-- Node21 -->
<g id="node21" class="node">
<title>Node21</title>
<g id="a_node21"><a xlink:href="member__frontend_8h.html" target="_top" xlink:title=" ">
<polygon fill="white" stroke="black" points="1221.5,-235.5 1221.5,-265.5 1341.5,-265.5 1341.5,-235.5 1221.5,-235.5"/>
<text text-anchor="start" x="1229.5" y="-253.5" font-family="Helvetica,sans-Serif" font-size="10.00">src/node/rpc/member</text>
<text text-anchor="middle" x="1281.5" y="-242.5" font-family="Helvetica,sans-Serif" font-size="10.00">_frontend.h</text>
</a>
</g>
</g>
<!-- Node20&#45;&gt;Node21 -->
<g id="edge29" class="edge">
<title>Node20&#45;&gt;Node21</title>
<path fill="none" stroke="midnightblue" d="M1379.09,-365.84C1387.15,-348.36 1395.59,-321.48 1383.5,-302 1372.77,-284.71 1354.16,-273.16 1335.75,-265.52"/>
<polygon fill="midnightblue" stroke="midnightblue" points="1375.89,-364.4 1374.55,-374.91 1382.15,-367.54 1375.89,-364.4"/>
</g>
<!-- Node22 -->
<g id="node22" class="node">
<title>Node22</title>
<g id="a_node22"><a xlink:href="node__frontend_8h.html" target="_top" xlink:title=" ">
<polygon fill="white" stroke="black" points="1183.5,-308 1183.5,-327 1341.5,-327 1341.5,-308 1183.5,-308"/>
<text text-anchor="middle" x="1262.5" y="-315" font-family="Helvetica,sans-Serif" font-size="10.00">src/node/rpc/node_frontend.h</text>
</a>
</g>
</g>
<!-- Node20&#45;&gt;Node22 -->
<g id="edge31" class="edge">
<title>Node20&#45;&gt;Node22</title>
<path fill="none" stroke="midnightblue" d="M1346.36,-369.44C1325.17,-356.57 1294.48,-337.93 1276.7,-327.13"/>
<polygon fill="midnightblue" stroke="midnightblue" points="1344.71,-372.53 1355.07,-374.73 1348.34,-366.55 1344.71,-372.53"/>
</g>
<!-- Node24 -->
<g id="node24" class="node">
<title>Node24</title>
<g id="a_node24"><a xlink:href="user__frontend_8h.html" target="_top" xlink:title=" ">
<polygon fill="white" stroke="black" points="1705,-308 1705,-327 1860,-327 1860,-308 1705,-308"/>
<text text-anchor="middle" x="1782.5" y="-315" font-family="Helvetica,sans-Serif" font-size="10.00">src/node/rpc/user_frontend.h</text>
</a>
</g>
</g>
<!-- Node20&#45;&gt;Node24 -->
<g id="edge35" class="edge">
<title>Node20&#45;&gt;Node24</title>
<path fill="none" stroke="midnightblue" d="M1436.02,-373.42C1501.93,-363.39 1605.73,-347.43 1695.5,-333 1707.29,-331.1 1719.98,-329.02 1731.91,-327.03"/>
<polygon fill="midnightblue" stroke="midnightblue" points="1435.14,-370.02 1425.78,-374.98 1436.19,-376.94 1435.14,-370.02"/>
</g>
<!-- Node21&#45;&gt;Node6 -->
<g id="edge30" class="edge">
<title>Node21&#45;&gt;Node6</title>
<path fill="none" stroke="midnightblue" d="M1281.5,-225.27C1281.5,-184.19 1281.5,-102.69 1281.5,-75.82"/>
<polygon fill="midnightblue" stroke="midnightblue" points="1278,-225.48 1281.5,-235.48 1285,-225.48 1278,-225.48"/>
</g>
<!-- Node22&#45;&gt;Node6 -->
<g id="edge32" class="edge">
<title>Node22&#45;&gt;Node6</title>
<path fill="none" stroke="midnightblue" d="M1302.01,-304.22C1320.17,-296.37 1339.98,-284.17 1350.5,-266 1389.71,-198.28 1315.15,-104.72 1289.63,-75.84"/>
<polygon fill="midnightblue" stroke="midnightblue" points="1300.7,-300.97 1292.72,-307.94 1303.3,-307.47 1300.7,-300.97"/>
</g>
<!-- Node23 -->
<g id="node23" class="node">
<title>Node23</title>
<g id="a_node23"><a xlink:href="jwt__key__auto__refresh_8h.html" target="_top" xlink:title=" ">
<polygon fill="white" stroke="black" points="1040,-235.5 1040,-265.5 1165,-265.5 1165,-235.5 1040,-235.5"/>
<text text-anchor="start" x="1048" y="-253.5" font-family="Helvetica,sans-Serif" font-size="10.00">src/node/jwt_key_auto</text>
<text text-anchor="middle" x="1102.5" y="-242.5" font-family="Helvetica,sans-Serif" font-size="10.00">_refresh.h</text>
</a>
</g>
</g>
<!-- Node22&#45;&gt;Node23 -->
<g id="edge33" class="edge">
<title>Node22&#45;&gt;Node23</title>
<path fill="none" stroke="midnightblue" d="M1231.87,-304.06C1204.77,-293.05 1165.25,-276.99 1137.03,-265.53"/>
<polygon fill="midnightblue" stroke="midnightblue" points="1230.67,-307.35 1241.25,-307.87 1233.31,-300.86 1230.67,-307.35"/>
</g>
<!-- Node23&#45;&gt;Node5 -->
<g id="edge34" class="edge">
<title>Node23&#45;&gt;Node5</title>
<path fill="none" stroke="midnightblue" d="M1066.03,-230.8C1045.07,-220.04 1019.73,-207.05 1003.38,-198.66"/>
<polygon fill="midnightblue" stroke="midnightblue" points="1064.51,-233.95 1075.01,-235.4 1067.71,-227.72 1064.51,-233.95"/>
</g>
<!-- Node24&#45;&gt;Node6 -->
<g id="edge36" class="edge">
<title>Node24&#45;&gt;Node6</title>
<path fill="none" stroke="midnightblue" d="M1870.12,-313.95C2006.62,-309.07 2257.29,-296.08 2284.5,-266 2293.74,-255.78 2290.38,-247.46 2284.5,-235 2228.39,-116.11 2144.56,-137.02 2015.5,-112 1887.19,-87.12 1494.59,-73.25 1342.55,-68.7"/>
<polygon fill="midnightblue" stroke="midnightblue" points="1869.97,-310.46 1860.09,-314.3 1870.21,-317.45 1869.97,-310.46"/>
</g>
<!-- Node26 -->
<g id="node26" class="node">
<title>Node26</title>
<g id="a_node26"><a xlink:href="kv__module__loader_8cpp.html" target="_top" xlink:title=" ">
<polygon fill="white" stroke="black" points="1144,-369.5 1144,-399.5 1287,-399.5 1287,-369.5 1144,-369.5"/>
<text text-anchor="start" x="1152" y="-387.5" font-family="Helvetica,sans-Serif" font-size="10.00">src/apps/js_v8/kv_module</text>
<text text-anchor="middle" x="1215.5" y="-376.5" font-family="Helvetica,sans-Serif" font-size="10.00">_loader.cpp</text>
</a>
</g>
</g>
<!-- Node25&#45;&gt;Node26 -->
<g id="edge38" class="edge">
<title>Node25&#45;&gt;Node26</title>
<path fill="none" stroke="midnightblue" d="M978.68,-436.3C1029.52,-425.4 1099.38,-410.41 1150.04,-399.54"/>
<polygon fill="midnightblue" stroke="midnightblue" points="977.83,-432.91 968.78,-438.43 979.29,-439.75 977.83,-432.91"/>
</g>
<!-- Node27 -->
<g id="node27" class="node">
<title>Node27</title>
<g id="a_node27"><a xlink:href="network__state_8h.html" target="_top" xlink:title=" ">
<polygon fill="white" stroke="black" points="985.5,-375 985.5,-394 1125.5,-394 1125.5,-375 985.5,-375"/>
<text text-anchor="middle" x="1055.5" y="-382" font-family="Helvetica,sans-Serif" font-size="10.00">src/node/network_state.h</text>
</a>
</g>
</g>
<!-- Node25&#45;&gt;Node27 -->
<g id="edge39" class="edge">
<title>Node25&#45;&gt;Node27</title>
<path fill="none" stroke="midnightblue" d="M952.91,-432.13C980.43,-419.62 1015.59,-403.64 1036.78,-394.01"/>
<polygon fill="midnightblue" stroke="midnightblue" points="951.18,-429.07 943.53,-436.4 954.08,-435.44 951.18,-429.07"/>
</g>
<!-- Node38 -->
<g id="node38" class="node">
<title>Node38</title>
<g id="a_node38"><a xlink:href="genesis__gen_8h.html" target="_top" xlink:title=" ">
<polygon fill="white" stroke="black" points="857.5,-369.5 857.5,-399.5 967.5,-399.5 967.5,-369.5 857.5,-369.5"/>
<text text-anchor="start" x="865.5" y="-387.5" font-family="Helvetica,sans-Serif" font-size="10.00">src/service/genesis</text>
<text text-anchor="middle" x="912.5" y="-376.5" font-family="Helvetica,sans-Serif" font-size="10.00">_gen.h</text>
</a>
</g>
</g>
<!-- Node25&#45;&gt;Node38 -->
<g id="edge65" class="edge">
<title>Node25&#45;&gt;Node38</title>
<path fill="none" stroke="midnightblue" d="M912.5,-426.11C912.5,-417.15 912.5,-407.32 912.5,-399.58"/>
<polygon fill="midnightblue" stroke="midnightblue" points="909,-426.4 912.5,-436.4 916,-426.4 909,-426.4"/>
</g>
<!-- Node27&#45;&gt;Node5 -->
<g id="edge56" class="edge">
<title>Node27&#45;&gt;Node5</title>
<path fill="none" stroke="midnightblue" d="M1073.69,-367.92C1090.78,-351.31 1111.88,-324.39 1098.5,-302 1081.15,-272.99 1055.89,-289.4 1031.5,-266 1010.48,-245.83 995.87,-213.74 989.74,-198.53"/>
<polygon fill="midnightblue" stroke="midnightblue" points="1071.24,-365.42 1066.26,-374.77 1075.98,-370.56 1071.24,-365.42"/>
</g>
<!-- Node27&#45;&gt;Node6 -->
<g id="edge40" class="edge">
<title>Node27&#45;&gt;Node6</title>
<path fill="none" stroke="midnightblue" d="M1111.93,-373.17C1119.84,-371.75 1127.87,-370.33 1135.5,-369 1280.65,-343.69 1445.5,-398.84 1445.5,-251.5 1445.5,-251.5 1445.5,-251.5 1445.5,-188 1445.5,-123.96 1363.52,-89.99 1315.48,-75.58"/>
<polygon fill="midnightblue" stroke="midnightblue" points="1111.24,-369.74 1102.01,-374.96 1112.48,-376.63 1111.24,-369.74"/>
</g>
<!-- Node27&#45;&gt;Node14 -->
<g id="edge64" class="edge">
<title>Node27&#45;&gt;Node14</title>
<path fill="none" stroke="midnightblue" d="M1020.08,-371.51C995.52,-362.5 962.5,-349 935.5,-333 916.45,-321.71 916.68,-311.11 896.5,-302 825.65,-270.01 736.26,-258.26 677.11,-253.95"/>
<polygon fill="midnightblue" stroke="midnightblue" points="1019.12,-374.88 1029.71,-374.97 1021.49,-368.29 1019.12,-374.88"/>
</g>
<!-- Node27&#45;&gt;Node22 -->
<g id="edge57" class="edge">
<title>Node27&#45;&gt;Node22</title>
<path fill="none" stroke="midnightblue" d="M1092.61,-371.85C1133.61,-358.97 1198.66,-338.55 1235.23,-327.06"/>
<polygon fill="midnightblue" stroke="midnightblue" points="1091.48,-368.53 1082.99,-374.87 1093.58,-375.21 1091.48,-368.53"/>
</g>
<!-- Node27&#45;&gt;Node24 -->
<g id="edge58" class="edge">
<title>Node27&#45;&gt;Node24</title>
<path fill="none" stroke="midnightblue" d="M1107.28,-373.22C1116.65,-371.61 1126.34,-370.12 1135.5,-369 1383.06,-338.71 1447.74,-361.54 1695.5,-333 1708.89,-331.46 1723.35,-329.26 1736.57,-327.05"/>
<polygon fill="midnightblue" stroke="midnightblue" points="1106.53,-369.8 1097.3,-374.99 1107.75,-376.69 1106.53,-369.8"/>
</g>
<!-- Node28 -->
<g id="node28" class="node">
<title>Node28</title>
<g id="a_node28"><a xlink:href="wrap_8h.html" target="_top" xlink:title=" ">
<polygon fill="white" stroke="black" points="1608.5,-308 1608.5,-327 1686.5,-327 1686.5,-308 1608.5,-308"/>
<text text-anchor="middle" x="1647.5" y="-315" font-family="Helvetica,sans-Serif" font-size="10.00">src/js/wrap.h</text>
</a>
</g>
</g>
<!-- Node27&#45;&gt;Node28 -->
<g id="edge41" class="edge">
<title>Node27&#45;&gt;Node28</title>
<path fill="none" stroke="midnightblue" d="M1108.87,-373.21C1117.74,-371.67 1126.87,-370.21 1135.5,-369 1311.1,-344.47 1522.21,-327.62 1608.19,-321.29"/>
<polygon fill="midnightblue" stroke="midnightblue" points="1108.23,-369.77 1098.99,-374.96 1109.45,-376.66 1108.23,-369.77"/>
</g>
<!-- Node36 -->
<g id="node36" class="node">
<title>Node36</title>
<g id="a_node36"><a xlink:href="secret__broadcast_8h.html" target="_top" xlink:title=" ">
<polygon fill="white" stroke="black" points="734,-308 734,-327 887,-327 887,-308 734,-308"/>
<text text-anchor="middle" x="810.5" y="-315" font-family="Helvetica,sans-Serif" font-size="10.00">src/node/secret_broadcast.h</text>
</a>
</g>
</g>
<!-- Node27&#45;&gt;Node36 -->
<g id="edge59" class="edge">
<title>Node27&#45;&gt;Node36</title>
<path fill="none" stroke="midnightblue" d="M1013.37,-372.32C965,-359.49 886.68,-338.71 842.85,-327.08"/>
<polygon fill="midnightblue" stroke="midnightblue" points="1012.66,-375.75 1023.22,-374.94 1014.45,-368.99 1012.66,-375.75"/>
</g>
<!-- Node37 -->
<g id="node37" class="node">
<title>Node37</title>
<g id="a_node37"><a xlink:href="share__manager_8h.html" target="_top" xlink:title=" ">
<polygon fill="white" stroke="black" points="944,-308 944,-327 1089,-327 1089,-308 944,-308"/>
<text text-anchor="middle" x="1016.5" y="-315" font-family="Helvetica,sans-Serif" font-size="10.00">src/node/share_manager.h</text>
</a>
</g>
</g>
<!-- Node27&#45;&gt;Node37 -->
<g id="edge61" class="edge">
<title>Node27&#45;&gt;Node37</title>
<path fill="none" stroke="midnightblue" d="M1045.02,-366.03C1037.47,-353.45 1027.6,-337.01 1021.68,-327.13"/>
<polygon fill="midnightblue" stroke="midnightblue" points="1042.09,-367.96 1050.24,-374.73 1048.1,-364.36 1042.09,-367.96"/>
</g>
<!-- Node28&#45;&gt;Node5 -->
<g id="edge54" class="edge">
<title>Node28&#45;&gt;Node5</title>
<path fill="none" stroke="midnightblue" d="M1606.81,-305.25C1526.97,-283.19 1356.91,-236.27 1350.5,-235 1245.56,-214.23 1121.59,-201.34 1048.76,-194.93"/>
<polygon fill="midnightblue" stroke="midnightblue" points="1605.97,-308.65 1616.54,-307.94 1607.84,-301.9 1605.97,-308.65"/>
</g>
<!-- Node28&#45;&gt;Node6 -->
<g id="edge43" class="edge">
<title>Node28&#45;&gt;Node6</title>
<path fill="none" stroke="midnightblue" d="M1682.06,-305.23C1686.87,-303.97 1691.78,-302.84 1696.5,-302 1822.08,-279.75 2348.75,-332.47 2266.5,-235 2146.79,-93.14 1538.91,-71.06 1342.67,-67.63"/>
<polygon fill="midnightblue" stroke="midnightblue" points="1681.09,-301.86 1672.42,-307.95 1683,-308.6 1681.09,-301.86"/>
</g>
<!-- Node28&#45;&gt;Node21 -->
<g id="edge55" class="edge">
<title>Node28&#45;&gt;Node21</title>
<path fill="none" stroke="midnightblue" d="M1598.24,-308.33C1540.15,-298.6 1440.69,-281.71 1355.5,-266 1350.99,-265.17 1346.34,-264.29 1341.65,-263.4"/>
<polygon fill="midnightblue" stroke="midnightblue" points="1597.81,-311.8 1608.25,-310 1598.96,-304.9 1597.81,-311.8"/>
</g>
<!-- Node29 -->
<g id="node29" class="node">
<title>Node29</title>
<g id="a_node29"><a xlink:href="js__generic__base_8cpp.html" target="_top" xlink:title=" ">
<polygon fill="white" stroke="black" points="2139.5,-235.5 2139.5,-265.5 2257.5,-265.5 2257.5,-235.5 2139.5,-235.5"/>
<text text-anchor="start" x="2147.5" y="-253.5" font-family="Helvetica,sans-Serif" font-size="10.00">src/apps/js_generic</text>
<text text-anchor="middle" x="2198.5" y="-242.5" font-family="Helvetica,sans-Serif" font-size="10.00">/js_generic_base.cpp</text>
</a>
</g>
</g>
<!-- Node28&#45;&gt;Node29 -->
<g id="edge42" class="edge">
<title>Node28&#45;&gt;Node29</title>
<path fill="none" stroke="midnightblue" d="M1682.61,-305.17C1687.25,-303.95 1691.96,-302.85 1696.5,-302 1886.74,-266.35 1939.02,-294.24 2130.5,-266 2133.37,-265.58 2136.29,-265.11 2139.24,-264.6"/>
<polygon fill="midnightblue" stroke="midnightblue" points="1681.36,-301.89 1672.69,-307.97 1683.26,-308.62 1681.36,-301.89"/>
</g>
<!-- Node30 -->
<g id="node30" class="node">
<title>Node30</title>
<g id="a_node30"><a xlink:href="js_2consensus_8cpp.html" target="_top" xlink:title=" ">
<polygon fill="white" stroke="black" points="1745.5,-241 1745.5,-260 1861.5,-260 1861.5,-241 1745.5,-241"/>
<text text-anchor="middle" x="1803.5" y="-248" font-family="Helvetica,sans-Serif" font-size="10.00">src/js/consensus.cpp</text>
</a>
</g>
</g>
<!-- Node28&#45;&gt;Node30 -->
<g id="edge44" class="edge">
<title>Node28&#45;&gt;Node30</title>
<path fill="none" stroke="midnightblue" d="M1677.62,-303.95C1708.51,-291.08 1755.73,-271.4 1782.7,-260.17"/>
<polygon fill="midnightblue" stroke="midnightblue" points="1676.1,-300.79 1668.22,-307.87 1678.79,-307.25 1676.1,-300.79"/>
</g>
<!-- Node31 -->
<g id="node31" class="node">
<title>Node31</title>
<g id="a_node31"><a xlink:href="wrap_8cpp.html" target="_top" xlink:title=" ">
<polygon fill="white" stroke="black" points="1639,-179.5 1639,-198.5 1728,-198.5 1728,-179.5 1639,-179.5"/>
<text text-anchor="middle" x="1683.5" y="-186.5" font-family="Helvetica,sans-Serif" font-size="10.00">src/js/wrap.cpp</text>
</a>
</g>
</g>
<!-- Node28&#45;&gt;Node31 -->
<g id="edge53" class="edge">
<title>Node28&#45;&gt;Node31</title>
<path fill="none" stroke="midnightblue" d="M1637.36,-298.17C1629.38,-281.15 1621.05,-255.42 1630.5,-235 1638,-218.79 1654.54,-206.28 1667.17,-198.61"/>
<polygon fill="midnightblue" stroke="midnightblue" points="1634.47,-300.2 1642.12,-307.52 1640.7,-297.02 1634.47,-300.2"/>
</g>
<!-- Node32 -->
<g id="node32" class="node">
<title>Node32</title>
<g id="a_node32"><a xlink:href="conv_8cpp.html" target="_top" xlink:title=" ">
<polygon fill="white" stroke="black" points="1639.5,-241 1639.5,-260 1727.5,-260 1727.5,-241 1639.5,-241"/>
<text text-anchor="middle" x="1683.5" y="-248" font-family="Helvetica,sans-Serif" font-size="10.00">src/js/conv.cpp</text>
</a>
</g>
</g>
<!-- Node28&#45;&gt;Node32 -->
<g id="edge46" class="edge">
<title>Node28&#45;&gt;Node32</title>
<path fill="none" stroke="midnightblue" d="M1657.38,-298.66C1664.32,-286.13 1673.3,-269.91 1678.72,-260.13"/>
<polygon fill="midnightblue" stroke="midnightblue" points="1654.14,-297.29 1652.36,-307.73 1660.26,-300.68 1654.14,-297.29"/>
</g>
<!-- Node33 -->
<g id="node33" class="node">
<title>Node33</title>
<g id="a_node33"><a xlink:href="js_2crypto_8cpp.html" target="_top" xlink:title=" ">
<polygon fill="white" stroke="black" points="1879.5,-241 1879.5,-260 1975.5,-260 1975.5,-241 1879.5,-241"/>
<text text-anchor="middle" x="1927.5" y="-248" font-family="Helvetica,sans-Serif" font-size="10.00">src/js/crypto.cpp</text>
</a>
</g>
</g>
<!-- Node28&#45;&gt;Node33 -->
<g id="edge48" class="edge">
<title>Node28&#45;&gt;Node33</title>
<path fill="none" stroke="midnightblue" d="M1684.64,-305.16C1688.63,-304.04 1692.64,-302.97 1696.5,-302 1773.1,-282.78 1793.55,-283.74 1870.5,-266 1878.46,-264.17 1887.01,-262.06 1895.01,-260.04"/>
<polygon fill="midnightblue" stroke="midnightblue" points="1683.5,-301.84 1674.86,-307.96 1685.44,-308.57 1683.5,-301.84"/>
</g>
<!-- Node34 -->
<g id="node34" class="node">
<title>Node34</title>
<g id="a_node34"><a xlink:href="js_2historical_8cpp.html" target="_top" xlink:title=" ">
<polygon fill="white" stroke="black" points="1473.5,-241 1473.5,-260 1583.5,-260 1583.5,-241 1473.5,-241"/>
<text text-anchor="middle" x="1528.5" y="-248" font-family="Helvetica,sans-Serif" font-size="10.00">src/js/historical.cpp</text>
</a>
</g>
</g>
<!-- Node28&#45;&gt;Node34 -->
<g id="edge50" class="edge">
<title>Node28&#45;&gt;Node34</title>
<path fill="none" stroke="midnightblue" d="M1622.39,-302.79C1598.81,-289.9 1564.24,-271.02 1544.29,-260.13"/>
<polygon fill="midnightblue" stroke="midnightblue" points="1621,-306.01 1631.45,-307.73 1624.35,-299.87 1621,-306.01"/>
</g>
<!-- Node35 -->
<g id="node35" class="node">
<title>Node35</title>
<g id="a_node35"><a xlink:href="openenclave_8cpp.html" target="_top" xlink:title=" ">
<polygon fill="white" stroke="black" points="1993.5,-241 1993.5,-260 2121.5,-260 2121.5,-241 1993.5,-241"/>
<text text-anchor="middle" x="2057.5" y="-248" font-family="Helvetica,sans-Serif" font-size="10.00">src/js/openenclave.cpp</text>
</a>
</g>
</g>
<!-- Node28&#45;&gt;Node35 -->
<g id="edge52" class="edge">
<title>Node28&#45;&gt;Node35</title>
<path fill="none" stroke="midnightblue" d="M1683.47,-305.13C1687.83,-303.97 1692.25,-302.89 1696.5,-302 1822.77,-275.61 1857.16,-286.58 1984.5,-266 1995.09,-264.29 2006.48,-262.16 2017.05,-260.07"/>
<polygon fill="midnightblue" stroke="midnightblue" points="1682.16,-301.86 1673.49,-307.95 1684.07,-308.6 1682.16,-301.86"/>
</g>
<!-- Node30&#45;&gt;Node31 -->
<g id="edge45" class="edge">
<title>Node30&#45;&gt;Node31</title>
<path fill="none" stroke="midnightblue" d="M1777.32,-236.52C1754.05,-224.98 1720.7,-208.44 1700.66,-198.51"/>
<polygon fill="midnightblue" stroke="midnightblue" points="1775.79,-239.67 1786.31,-240.98 1778.9,-233.4 1775.79,-239.67"/>
</g>
<!-- Node32&#45;&gt;Node31 -->
<g id="edge47" class="edge">
<title>Node32&#45;&gt;Node31</title>
<path fill="none" stroke="midnightblue" d="M1683.5,-230.82C1683.5,-220 1683.5,-206.9 1683.5,-198.51"/>
<polygon fill="midnightblue" stroke="midnightblue" points="1680,-230.98 1683.5,-240.98 1687,-230.98 1680,-230.98"/>
</g>
<!-- Node33&#45;&gt;Node31 -->
<g id="edge49" class="edge">
<title>Node33&#45;&gt;Node31</title>
<path fill="none" stroke="midnightblue" d="M1884.66,-238.54C1879.89,-237.34 1875.09,-236.14 1870.5,-235 1818.15,-222.04 1757.43,-207.53 1719.73,-198.57"/>
<polygon fill="midnightblue" stroke="midnightblue" points="1883.81,-241.93 1894.36,-240.99 1885.53,-235.15 1883.81,-241.93"/>
</g>
<!-- Node34&#45;&gt;Node31 -->
<g id="edge51" class="edge">
<title>Node34&#45;&gt;Node31</title>
<path fill="none" stroke="midnightblue" d="M1560.33,-237.28C1590.45,-225.72 1634.88,-208.66 1661.33,-198.51"/>
<polygon fill="midnightblue" stroke="midnightblue" points="1558.79,-234.12 1550.71,-240.98 1561.3,-240.66 1558.79,-234.12"/>
</g>
<!-- Node36&#45;&gt;Node5 -->
<g id="edge60" class="edge">
<title>Node36&#45;&gt;Node5</title>
<path fill="none" stroke="midnightblue" d="M831.09,-301.7C868.06,-275.13 944.59,-220.12 974.32,-198.76"/>
<polygon fill="midnightblue" stroke="midnightblue" points="828.67,-299.13 822.6,-307.81 832.76,-304.81 828.67,-299.13"/>
</g>
<!-- Node37&#45;&gt;Node5 -->
<g id="edge62" class="edge">
<title>Node37&#45;&gt;Node5</title>
<path fill="none" stroke="midnightblue" d="M1008.54,-298.25C1004.69,-288.78 1000.31,-276.94 997.5,-266 991.32,-241.98 988.31,-212.75 987.13,-198.55"/>
<polygon fill="midnightblue" stroke="midnightblue" points="1005.43,-299.89 1012.54,-307.75 1011.89,-297.17 1005.43,-299.89"/>
</g>
<!-- Node37&#45;&gt;Node21 -->
<g id="edge63" class="edge">
<title>Node37&#45;&gt;Node21</title>
<path fill="none" stroke="midnightblue" d="M1061.15,-305.55C1106.01,-294.55 1175.3,-277.55 1224.18,-265.56"/>
<polygon fill="midnightblue" stroke="midnightblue" points="1060.29,-302.15 1051.42,-307.94 1061.96,-308.95 1060.29,-302.15"/>
</g>
<!-- Node38&#45;&gt;Node5 -->
<g id="edge66" class="edge">
<title>Node38&#45;&gt;Node5</title>
<path fill="none" stroke="midnightblue" d="M847.39,-378.71C781.02,-371.05 692.08,-351.45 724.5,-302 768.43,-234.98 861.68,-207.93 924.24,-197.1"/>
<polygon fill="midnightblue" stroke="midnightblue" points="847.09,-382.19 857.41,-379.79 847.85,-375.24 847.09,-382.19"/>
</g>
<!-- Node38&#45;&gt;Node21 -->
<g id="edge67" class="edge">
<title>Node38&#45;&gt;Node21</title>
<path fill="none" stroke="midnightblue" d="M977.62,-368.43C1013.66,-359.44 1059.03,-347.05 1098.5,-333 1128.15,-322.44 1207.35,-286.07 1251.22,-265.67"/>
<polygon fill="midnightblue" stroke="midnightblue" points="976.58,-365.08 967.71,-370.88 978.26,-371.88 976.58,-365.08"/>
</g>
<!-- Node38&#45;&gt;Node22 -->
<g id="edge68" class="edge">
<title>Node38&#45;&gt;Node22</title>
<path fill="none" stroke="midnightblue" d="M977.67,-368.82C1064.67,-351.46 1154.56,-336.14 1209.91,-327.01"/>
<polygon fill="midnightblue" stroke="midnightblue" points="976.74,-365.43 967.62,-370.83 978.12,-372.3 976.74,-365.43"/>
</g>
<!-- Node38&#45;&gt;Node36 -->
<g id="edge69" class="edge">
<title>Node38&#45;&gt;Node36</title>
<path fill="none" stroke="midnightblue" d="M881.86,-363.97C862.52,-351.65 838.5,-336.35 823.85,-327.01"/>
<polygon fill="midnightblue" stroke="midnightblue" points="880.05,-366.97 890.37,-369.4 883.82,-361.07 880.05,-366.97"/>
</g>
<!-- Node38&#45;&gt;Node37 -->
<g id="edge70" class="edge">
<title>Node38&#45;&gt;Node37</title>
<path fill="none" stroke="midnightblue" d="M943.74,-363.97C963.46,-351.65 987.95,-336.35 1002.89,-327.01"/>
<polygon fill="midnightblue" stroke="midnightblue" points="941.69,-361.13 935.07,-369.4 945.4,-367.06 941.69,-361.13"/>
</g>
</g>
</svg>
