<?xml version="1.0" encoding="UTF-8" standalone="no"?>
<!DOCTYPE svg PUBLIC "-//W3C//DTD SVG 1.1//EN"
 "http://www.w3.org/Graphics/SVG/1.1/DTD/svg11.dtd">
<!-- Generated by graphviz version 2.43.0 (0)
 -->
<!-- Title: src/tls/context.h Pages: 1 -->
<svg width="1162pt" height="811pt"
 viewBox="0.00 0.00 1161.56 811.00" xmlns="http://www.w3.org/2000/svg" xmlns:xlink="http://www.w3.org/1999/xlink">
<g id="graph0" class="graph" transform="scale(1 1) rotate(0) translate(4 807)">
<title>src/tls/context.h</title>
<polygon fill="white" stroke="transparent" points="-4,4 -4,-807 1157.56,-807 1157.56,4 -4,4"/>
<!-- Node1 -->
<g id="node1" class="node">
<title>Node1</title>
<g id="a_node1"><a xlink:title=" ">
<polygon fill="#bfbfbf" stroke="black" points="152.56,-783.5 152.56,-802.5 247.56,-802.5 247.56,-783.5 152.56,-783.5"/>
<text text-anchor="middle" x="200.06" y="-790.5" font-family="Helvetica,sans-Serif" font-size="10.00">src/tls/context.h</text>
</a>
</g>
</g>
<!-- Node2 -->
<g id="node2" class="node">
<title>Node2</title>
<g id="a_node2"><a xlink:href="rpc__sessions_8h.html" target="_top" xlink:title=" ">
<polygon fill="white" stroke="black" points="91.06,-498 91.06,-517 237.06,-517 237.06,-498 91.06,-498"/>
<text text-anchor="middle" x="164.06" y="-505" font-family="Helvetica,sans-Serif" font-size="10.00">src/enclave/rpc_sessions.h</text>
</a>
</g>
</g>
<!-- Node1&#45;&gt;Node2 -->
<g id="edge1" class="edge">
<title>Node1&#45;&gt;Node2</title>
<path fill="none" stroke="midnightblue" d="M190.47,-774.4C179.8,-753.15 164.06,-716.02 164.06,-682 164.06,-682 164.06,-682 164.06,-624 164.06,-584.1 164.06,-536.44 164.06,-517.19"/>
<polygon fill="midnightblue" stroke="midnightblue" points="187.47,-776.23 195.2,-783.47 193.68,-772.99 187.47,-776.23"/>
</g>
<!-- Node16 -->
<g id="node16" class="node">
<title>Node16</title>
<g id="a_node16"><a xlink:href="tls__endpoint_8h.html" target="_top" xlink:title=" ">
<polygon fill="white" stroke="black" points="435.06,-727.5 435.06,-746.5 579.06,-746.5 579.06,-727.5 435.06,-727.5"/>
<text text-anchor="middle" x="507.06" y="-734.5" font-family="Helvetica,sans-Serif" font-size="10.00">src/enclave/tls_endpoint.h</text>
</a>
</g>
</g>
<!-- Node1&#45;&gt;Node16 -->
<g id="edge25" class="edge">
<title>Node1&#45;&gt;Node16</title>
<path fill="none" stroke="midnightblue" d="M257.79,-781.85C315.76,-771.65 404.09,-756.11 458.55,-746.53"/>
<polygon fill="midnightblue" stroke="midnightblue" points="256.93,-778.44 247.69,-783.62 258.14,-785.34 256.93,-778.44"/>
</g>
<!-- Node33 -->
<g id="node33" class="node">
<title>Node33</title>
<g id="a_node33"><a xlink:href="client_8h.html" target="_top" xlink:title=" ">
<polygon fill="white" stroke="black" points="50.56,-559.5 50.56,-578.5 135.56,-578.5 135.56,-559.5 50.56,-559.5"/>
<text text-anchor="middle" x="93.06" y="-566.5" font-family="Helvetica,sans-Serif" font-size="10.00">src/tls/client.h</text>
</a>
</g>
</g>
<!-- Node1&#45;&gt;Node33 -->
<g id="edge55" class="edge">
<title>Node1&#45;&gt;Node33</title>
<path fill="none" stroke="midnightblue" d="M179.25,-777.41C169.2,-769.44 157.7,-758.79 150.06,-747 112.85,-689.56 98.18,-605.87 94.23,-578.8"/>
<polygon fill="midnightblue" stroke="midnightblue" points="177.14,-780.21 187.23,-783.45 181.36,-774.63 177.14,-780.21"/>
</g>
<!-- Node34 -->
<g id="node34" class="node">
<title>Node34</title>
<g id="a_node34"><a xlink:href="server_8h.html" target="_top" xlink:title=" ">
<polygon fill="white" stroke="black" points="192.06,-727.5 192.06,-746.5 280.06,-746.5 280.06,-727.5 192.06,-727.5"/>
<text text-anchor="middle" x="236.06" y="-734.5" font-family="Helvetica,sans-Serif" font-size="10.00">src/tls/server.h</text>
</a>
</g>
</g>
<!-- Node1&#45;&gt;Node34 -->
<g id="edge58" class="edge">
<title>Node1&#45;&gt;Node34</title>
<path fill="none" stroke="midnightblue" d="M211.68,-774.57C217.87,-765.27 225.23,-754.25 230.22,-746.75"/>
<polygon fill="midnightblue" stroke="midnightblue" points="208.64,-772.82 206,-783.08 214.46,-776.7 208.64,-772.82"/>
</g>
<!-- Node3 -->
<g id="node3" class="node">
<title>Node3</title>
<g id="a_node3"><a xlink:href="enclave_2enclave_8h.html" target="_top" xlink:title=" ">
<polygon fill="white" stroke="black" points="499.06,-56.5 499.06,-75.5 621.06,-75.5 621.06,-56.5 499.06,-56.5"/>
<text text-anchor="middle" x="560.06" y="-63.5" font-family="Helvetica,sans-Serif" font-size="10.00">src/enclave/enclave.h</text>
</a>
</g>
</g>
<!-- Node2&#45;&gt;Node3 -->
<g id="edge2" class="edge">
<title>Node2&#45;&gt;Node3</title>
<path fill="none" stroke="midnightblue" d="M144.84,-491.57C92.85,-449.37 -42.5,-326.33 21.06,-235 77.54,-153.84 379.76,-96.26 505.31,-75.5"/>
<polygon fill="midnightblue" stroke="midnightblue" points="142.7,-494.34 152.7,-497.85 147.07,-488.87 142.7,-494.34"/>
</g>
<!-- Node5 -->
<g id="node5" class="node">
<title>Node5</title>
<g id="a_node5"><a xlink:href="http__endpoint_8h.html" target="_top" xlink:title=" ">
<polygon fill="white" stroke="black" points="325.56,-436.5 325.56,-455.5 458.56,-455.5 458.56,-436.5 325.56,-436.5"/>
<text text-anchor="middle" x="392.06" y="-443.5" font-family="Helvetica,sans-Serif" font-size="10.00">src/http/http_endpoint.h</text>
</a>
</g>
</g>
<!-- Node2&#45;&gt;Node5 -->
<g id="edge4" class="edge">
<title>Node2&#45;&gt;Node5</title>
<path fill="none" stroke="midnightblue" d="M201.48,-495.32C243.82,-483.76 312.17,-465.97 354.55,-455.51"/>
<polygon fill="midnightblue" stroke="midnightblue" points="200.54,-491.95 191.82,-497.98 202.39,-498.7 200.54,-491.95"/>
</g>
<!-- Node6 -->
<g id="node6" class="node">
<title>Node6</title>
<g id="a_node6"><a xlink:href="node__client_8h.html" target="_top" xlink:title=" ">
<polygon fill="white" stroke="black" points="181.06,-436.5 181.06,-455.5 307.06,-455.5 307.06,-436.5 181.06,-436.5"/>
<text text-anchor="middle" x="244.06" y="-443.5" font-family="Helvetica,sans-Serif" font-size="10.00">src/node/node_client.h</text>
</a>
</g>
</g>
<!-- Node2&#45;&gt;Node6 -->
<g id="edge6" class="edge">
<title>Node2&#45;&gt;Node6</title>
<path fill="none" stroke="midnightblue" d="M183.83,-491.79C199.18,-480.38 219.91,-464.96 232.62,-455.51"/>
<polygon fill="midnightblue" stroke="midnightblue" points="181.45,-489.2 175.52,-497.98 185.63,-494.82 181.45,-489.2"/>
</g>
<!-- Node9 -->
<g id="node9" class="node">
<title>Node9</title>
<g id="a_node9"><a xlink:href="node__state_8h.html" target="_top" xlink:title=" ">
<polygon fill="white" stroke="black" points="278.06,-174 278.06,-193 402.06,-193 402.06,-174 278.06,-174"/>
<text text-anchor="middle" x="340.06" y="-181" font-family="Helvetica,sans-Serif" font-size="10.00">src/node/node_state.h</text>
</a>
</g>
</g>
<!-- Node2&#45;&gt;Node9 -->
<g id="edge22" class="edge">
<title>Node2&#45;&gt;Node9</title>
<path fill="none" stroke="midnightblue" d="M159.91,-487.88C150.41,-440.03 132.32,-311.17 193.06,-235 213.5,-209.37 247.65,-196.69 277.89,-190.44"/>
<polygon fill="midnightblue" stroke="midnightblue" points="156.5,-488.69 161.98,-497.76 163.36,-487.25 156.5,-488.69"/>
</g>
<!-- Node15 -->
<g id="node15" class="node">
<title>Node15</title>
<g id="a_node15"><a xlink:href="resharing_8h.html" target="_top" xlink:title=" ">
<polygon fill="white" stroke="black" points="30.06,-241 30.06,-260 146.06,-260 146.06,-241 30.06,-241"/>
<text text-anchor="middle" x="88.06" y="-248" font-family="Helvetica,sans-Serif" font-size="10.00">src/node/resharing.h</text>
</a>
</g>
</g>
<!-- Node2&#45;&gt;Node15 -->
<g id="edge23" class="edge">
<title>Node2&#45;&gt;Node15</title>
<path fill="none" stroke="midnightblue" d="M154.21,-488.96C149.16,-479.43 143.21,-467.31 139.06,-456 112.06,-382.5 94.56,-288.98 89.54,-260.27"/>
<polygon fill="midnightblue" stroke="midnightblue" points="151.18,-490.71 159.04,-497.82 157.32,-487.36 151.18,-490.71"/>
</g>
<!-- Node4 -->
<g id="node4" class="node">
<title>Node4</title>
<g id="a_node4"><a xlink:href="enclave_2main_8cpp.html" target="_top" xlink:title=" ">
<polygon fill="white" stroke="black" points="500.06,-0.5 500.06,-19.5 620.06,-19.5 620.06,-0.5 500.06,-0.5"/>
<text text-anchor="middle" x="560.06" y="-7.5" font-family="Helvetica,sans-Serif" font-size="10.00">src/enclave/main.cpp</text>
</a>
</g>
</g>
<!-- Node3&#45;&gt;Node4 -->
<g id="edge3" class="edge">
<title>Node3&#45;&gt;Node4</title>
<path fill="none" stroke="midnightblue" d="M560.06,-45.8C560.06,-36.91 560.06,-26.78 560.06,-19.75"/>
<polygon fill="midnightblue" stroke="midnightblue" points="556.56,-46.08 560.06,-56.08 563.56,-46.08 556.56,-46.08"/>
</g>
<!-- Node5&#45;&gt;Node2 -->
<g id="edge5" class="edge">
<title>Node5&#45;&gt;Node2</title>
<path fill="none" stroke="midnightblue" d="M354.7,-458.16C312.38,-469.71 244.03,-487.5 201.62,-497.98"/>
<polygon fill="midnightblue" stroke="midnightblue" points="355.63,-461.53 364.35,-455.51 353.78,-454.78 355.63,-461.53"/>
</g>
<!-- Node7 -->
<g id="node7" class="node">
<title>Node7</title>
<g id="a_node7"><a xlink:href="orc__requests_8h.html" target="_top" xlink:title=" ">
<polygon fill="white" stroke="black" points="403.56,-369.5 403.56,-399.5 522.56,-399.5 522.56,-369.5 403.56,-369.5"/>
<text text-anchor="start" x="411.56" y="-387.5" font-family="Helvetica,sans-Serif" font-size="10.00">src/consensus/aft/orc</text>
<text text-anchor="middle" x="463.06" y="-376.5" font-family="Helvetica,sans-Serif" font-size="10.00">_requests.h</text>
</a>
</g>
</g>
<!-- Node6&#45;&gt;Node7 -->
<g id="edge7" class="edge">
<title>Node6&#45;&gt;Node7</title>
<path fill="none" stroke="midnightblue" d="M285.52,-433.73C321.27,-424.02 373.03,-409.96 411.44,-399.52"/>
<polygon fill="midnightblue" stroke="midnightblue" points="284.17,-430.48 275.43,-436.48 286,-437.23 284.17,-430.48"/>
</g>
<!-- Node8 -->
<g id="node8" class="node">
<title>Node8</title>
<g id="a_node8"><a xlink:href="raft_8h.html" target="_top" xlink:title=" ">
<polygon fill="white" stroke="black" points="256.56,-308 256.56,-327 385.56,-327 385.56,-308 256.56,-308"/>
<text text-anchor="middle" x="321.06" y="-315" font-family="Helvetica,sans-Serif" font-size="10.00">src/consensus/aft/raft.h</text>
</a>
</g>
</g>
<!-- Node6&#45;&gt;Node8 -->
<g id="edge17" class="edge">
<title>Node6&#45;&gt;Node8</title>
<path fill="none" stroke="midnightblue" d="M240.63,-426.01C238.69,-409.82 238.32,-386.45 248.06,-369 259.25,-348.95 282.14,-335.13 299.32,-327.08"/>
<polygon fill="midnightblue" stroke="midnightblue" points="237.23,-426.99 242.19,-436.35 244.16,-425.94 237.23,-426.99"/>
</g>
<!-- Node13 -->
<g id="node13" class="node">
<title>Node13</title>
<g id="a_node13"><a xlink:href="http__node__client_8h.html" target="_top" xlink:title=" ">
<polygon fill="white" stroke="black" points="202.06,-235.5 202.06,-265.5 312.06,-265.5 312.06,-235.5 202.06,-235.5"/>
<text text-anchor="start" x="210.06" y="-253.5" font-family="Helvetica,sans-Serif" font-size="10.00">src/node/http_node</text>
<text text-anchor="middle" x="257.06" y="-242.5" font-family="Helvetica,sans-Serif" font-size="10.00">_client.h</text>
</a>
</g>
</g>
<!-- Node6&#45;&gt;Node13 -->
<g id="edge18" class="edge">
<title>Node6&#45;&gt;Node13</title>
<path fill="none" stroke="midnightblue" d="M239.52,-426.6C237.75,-418.49 235.93,-408.83 235.06,-400 230.15,-350.46 244.81,-292.18 252.57,-265.78"/>
<polygon fill="midnightblue" stroke="midnightblue" points="236.14,-427.51 241.82,-436.45 242.96,-425.92 236.14,-427.51"/>
</g>
<!-- Node14 -->
<g id="node14" class="node">
<title>Node14</title>
<g id="a_node14"><a xlink:href="retired__nodes__cleanup_8h.html" target="_top" xlink:title=" ">
<polygon fill="white" stroke="black" points="257.06,-369.5 257.06,-399.5 385.06,-399.5 385.06,-369.5 257.06,-369.5"/>
<text text-anchor="start" x="265.06" y="-387.5" font-family="Helvetica,sans-Serif" font-size="10.00">src/node/retired_nodes</text>
<text text-anchor="middle" x="321.06" y="-376.5" font-family="Helvetica,sans-Serif" font-size="10.00">_cleanup.h</text>
</a>
</g>
</g>
<!-- Node6&#45;&gt;Node14 -->
<g id="edge20" class="edge">
<title>Node6&#45;&gt;Node14</title>
<path fill="none" stroke="midnightblue" d="M263.22,-430.2C275.36,-420.81 290.97,-408.75 302.91,-399.52"/>
<polygon fill="midnightblue" stroke="midnightblue" points="260.86,-427.59 255.09,-436.48 265.14,-433.13 260.86,-427.59"/>
</g>
<!-- Node7&#45;&gt;Node8 -->
<g id="edge8" class="edge">
<title>Node7&#45;&gt;Node8</title>
<path fill="none" stroke="midnightblue" d="M422.93,-365.13C395.6,-352.62 360.69,-336.64 339.64,-327.01"/>
<polygon fill="midnightblue" stroke="midnightblue" points="421.7,-368.42 432.25,-369.4 424.61,-362.05 421.7,-368.42"/>
</g>
<!-- Node11 -->
<g id="node11" class="node">
<title>Node11</title>
<g id="a_node11"><a xlink:href="node__frontend_8h.html" target="_top" xlink:title=" ">
<polygon fill="white" stroke="black" points="442.06,-308 442.06,-327 600.06,-327 600.06,-308 442.06,-308"/>
<text text-anchor="middle" x="521.06" y="-315" font-family="Helvetica,sans-Serif" font-size="10.00">src/node/rpc/node_frontend.h</text>
</a>
</g>
</g>
<!-- Node7&#45;&gt;Node11 -->
<g id="edge13" class="edge">
<title>Node7&#45;&gt;Node11</title>
<path fill="none" stroke="midnightblue" d="M482.55,-361.66C493.07,-349.86 505.47,-335.97 513.3,-327.19"/>
<polygon fill="midnightblue" stroke="midnightblue" points="479.69,-359.6 475.64,-369.4 484.91,-364.26 479.69,-359.6"/>
</g>
<!-- Node8&#45;&gt;Node9 -->
<g id="edge9" class="edge">
<title>Node8&#45;&gt;Node9</title>
<path fill="none" stroke="midnightblue" d="M323.75,-297.78C327.93,-268.75 335.81,-214.04 338.83,-193.02"/>
<polygon fill="midnightblue" stroke="midnightblue" points="320.26,-297.44 322.3,-307.84 327.19,-298.44 320.26,-297.44"/>
</g>
<!-- Node9&#45;&gt;Node3 -->
<g id="edge10" class="edge">
<title>Node9&#45;&gt;Node3</title>
<path fill="none" stroke="midnightblue" d="M344.31,-163.71C348.93,-147.62 357.91,-125.04 374.06,-112 409.21,-83.61 459.51,-72.68 498.94,-68.68"/>
<polygon fill="midnightblue" stroke="midnightblue" points="340.86,-163.06 341.77,-173.62 347.64,-164.8 340.86,-163.06"/>
</g>
<!-- Node10 -->
<g id="node10" class="node">
<title>Node10</title>
<g id="a_node10"><a xlink:href="gov__effects_8h.html" target="_top" xlink:title=" ">
<polygon fill="white" stroke="black" points="383.06,-112.5 383.06,-131.5 527.06,-131.5 527.06,-112.5 383.06,-112.5"/>
<text text-anchor="middle" x="455.06" y="-119.5" font-family="Helvetica,sans-Serif" font-size="10.00">src/node/rpc/gov_effects.h</text>
</a>
</g>
</g>
<!-- Node9&#45;&gt;Node10 -->
<g id="edge11" class="edge">
<title>Node9&#45;&gt;Node10</title>
<path fill="none" stroke="midnightblue" d="M365.44,-169.37C387.73,-157.83 419.5,-141.4 438.61,-131.51"/>
<polygon fill="midnightblue" stroke="midnightblue" points="363.81,-166.27 356.53,-173.98 367.02,-172.49 363.81,-166.27"/>
</g>
<!-- Node10&#45;&gt;Node3 -->
<g id="edge12" class="edge">
<title>Node10&#45;&gt;Node3</title>
<path fill="none" stroke="midnightblue" d="M480.87,-107.73C500.31,-97.73 526.41,-84.31 543.23,-75.65"/>
<polygon fill="midnightblue" stroke="midnightblue" points="479.22,-104.64 471.93,-112.32 482.42,-110.86 479.22,-104.64"/>
</g>
<!-- Node11&#45;&gt;Node3 -->
<g id="edge14" class="edge">
<title>Node11&#45;&gt;Node3</title>
<path fill="none" stroke="midnightblue" d="M523.97,-297.84C531.82,-247.64 553.16,-111.1 558.72,-75.55"/>
<polygon fill="midnightblue" stroke="midnightblue" points="520.49,-297.49 522.4,-307.91 527.4,-298.57 520.49,-297.49"/>
</g>
<!-- Node12 -->
<g id="node12" class="node">
<title>Node12</title>
<g id="a_node12"><a xlink:href="jwt__key__auto__refresh_8h.html" target="_top" xlink:title=" ">
<polygon fill="white" stroke="black" points="368.56,-235.5 368.56,-265.5 493.56,-265.5 493.56,-235.5 368.56,-235.5"/>
<text text-anchor="start" x="376.56" y="-253.5" font-family="Helvetica,sans-Serif" font-size="10.00">src/node/jwt_key_auto</text>
<text text-anchor="middle" x="431.06" y="-242.5" font-family="Helvetica,sans-Serif" font-size="10.00">_refresh.h</text>
</a>
</g>
</g>
<!-- Node11&#45;&gt;Node12 -->
<g id="edge15" class="edge">
<title>Node11&#45;&gt;Node12</title>
<path fill="none" stroke="midnightblue" d="M500.77,-301.85C485.75,-291 465.4,-276.3 450.57,-265.59"/>
<polygon fill="midnightblue" stroke="midnightblue" points="498.76,-304.72 508.92,-307.73 502.86,-299.04 498.76,-304.72"/>
</g>
<!-- Node12&#45;&gt;Node9 -->
<g id="edge16" class="edge">
<title>Node12&#45;&gt;Node9</title>
<path fill="none" stroke="midnightblue" d="M402.79,-229.31C385.7,-217.1 364.81,-202.18 351.97,-193.01"/>
<polygon fill="midnightblue" stroke="midnightblue" points="401.14,-232.43 411.31,-235.4 405.21,-226.74 401.14,-232.43"/>
</g>
<!-- Node13&#45;&gt;Node9 -->
<g id="edge19" class="edge">
<title>Node13&#45;&gt;Node9</title>
<path fill="none" stroke="midnightblue" d="M283.22,-229.01C298.63,-216.94 317.32,-202.3 328.96,-193.19"/>
<polygon fill="midnightblue" stroke="midnightblue" points="280.78,-226.47 275.07,-235.4 285.1,-231.99 280.78,-226.47"/>
</g>
<!-- Node14&#45;&gt;Node8 -->
<g id="edge21" class="edge">
<title>Node14&#45;&gt;Node8</title>
<path fill="none" stroke="midnightblue" d="M321.06,-359.25C321.06,-348.02 321.06,-335.38 321.06,-327.19"/>
<polygon fill="midnightblue" stroke="midnightblue" points="317.56,-359.4 321.06,-369.4 324.56,-359.4 317.56,-359.4"/>
</g>
<!-- Node15&#45;&gt;Node9 -->
<g id="edge24" class="edge">
<title>Node15&#45;&gt;Node9</title>
<path fill="none" stroke="midnightblue" d="M131.08,-238.4C180.81,-225.58 261.6,-204.74 306.78,-193.08"/>
<polygon fill="midnightblue" stroke="midnightblue" points="130.07,-235.05 121.26,-240.94 131.82,-241.83 130.07,-235.05"/>
</g>
<!-- Node17 -->
<g id="node17" class="node">
<title>Node17</title>
<g id="a_node17"><a xlink:href="http__parser_8h.html" target="_top" xlink:title=" ">
<polygon fill="white" stroke="black" points="531.06,-615.5 531.06,-634.5 651.06,-634.5 651.06,-615.5 531.06,-615.5"/>
<text text-anchor="middle" x="591.06" y="-622.5" font-family="Helvetica,sans-Serif" font-size="10.00">src/http/http_parser.h</text>
</a>
</g>
</g>
<!-- Node16&#45;&gt;Node17 -->
<g id="edge26" class="edge">
<title>Node16&#45;&gt;Node17</title>
<path fill="none" stroke="midnightblue" d="M509.55,-716.94C512.11,-703.13 517.19,-684.58 527.06,-671 538.87,-654.74 558.42,-642.24 572.8,-634.59"/>
<polygon fill="midnightblue" stroke="midnightblue" points="506.03,-716.78 507.94,-727.2 512.95,-717.87 506.03,-716.78"/>
</g>
<!-- Node32 -->
<g id="node32" class="node">
<title>Node32</title>
<g id="a_node32"><a xlink:href="http__proc_8h.html" target="_top" xlink:title=" ">
<polygon fill="white" stroke="black" points="535.56,-671.5 535.56,-690.5 646.56,-690.5 646.56,-671.5 535.56,-671.5"/>
<text text-anchor="middle" x="591.06" y="-678.5" font-family="Helvetica,sans-Serif" font-size="10.00">src/http/http_proc.h</text>
</a>
</g>
</g>
<!-- Node16&#45;&gt;Node32 -->
<g id="edge53" class="edge">
<title>Node16&#45;&gt;Node32</title>
<path fill="none" stroke="midnightblue" d="M528.99,-721.9C544.39,-712 564.5,-699.07 577.59,-690.65"/>
<polygon fill="midnightblue" stroke="midnightblue" points="527.07,-718.97 520.55,-727.32 530.86,-724.86 527.07,-718.97"/>
</g>
<!-- Node17&#45;&gt;Node5 -->
<g id="edge33" class="edge">
<title>Node17&#45;&gt;Node5</title>
<path fill="none" stroke="midnightblue" d="M520.99,-621.96C451.06,-615.73 346.91,-594.15 296.06,-523 288.05,-511.79 288.67,-503.63 296.06,-492 308.1,-473.05 330.47,-461.94 350.59,-455.5"/>
<polygon fill="midnightblue" stroke="midnightblue" points="520.8,-625.45 531.05,-622.77 521.36,-618.48 520.8,-625.45"/>
</g>
<!-- Node18 -->
<g id="node18" class="node">
<title>Node18</title>
<g id="a_node18"><a xlink:href="rpc__tls__client_8h.html" target="_top" xlink:title=" ">
<polygon fill="white" stroke="black" points="854.56,-492.5 854.56,-522.5 955.56,-522.5 955.56,-492.5 854.56,-492.5"/>
<text text-anchor="start" x="862.56" y="-510.5" font-family="Helvetica,sans-Serif" font-size="10.00">src/clients/rpc_tls</text>
<text text-anchor="middle" x="905.06" y="-499.5" font-family="Helvetica,sans-Serif" font-size="10.00">_client.h</text>
</a>
</g>
</g>
<!-- Node17&#45;&gt;Node18 -->
<g id="edge27" class="edge">
<title>Node17&#45;&gt;Node18</title>
<path fill="none" stroke="midnightblue" d="M661.3,-618.9C707.59,-613.45 768.58,-602.2 818.06,-579 847.81,-565.05 876.19,-538.8 892.05,-522.56"/>
<polygon fill="midnightblue" stroke="midnightblue" points="660.91,-615.42 651.36,-620.01 661.68,-622.38 660.91,-615.42"/>
</g>
<!-- Node23 -->
<g id="node23" class="node">
<title>Node23</title>
<g id="a_node23"><a xlink:href="http__jwt_8h.html" target="_top" xlink:title=" ">
<polygon fill="white" stroke="black" points="579.56,-559.5 579.56,-578.5 684.56,-578.5 684.56,-559.5 579.56,-559.5"/>
<text text-anchor="middle" x="632.06" y="-566.5" font-family="Helvetica,sans-Serif" font-size="10.00">src/http/http_jwt.h</text>
</a>
</g>
</g>
<!-- Node17&#45;&gt;Node23 -->
<g id="edge34" class="edge">
<title>Node17&#45;&gt;Node23</title>
<path fill="none" stroke="midnightblue" d="M604.07,-606.86C611.17,-597.5 619.66,-586.33 625.41,-578.75"/>
<polygon fill="midnightblue" stroke="midnightblue" points="601.09,-605 597.83,-615.08 606.66,-609.24 601.09,-605"/>
</g>
<!-- Node28 -->
<g id="node28" class="node">
<title>Node28</title>
<g id="a_node28"><a xlink:href="http__rpc__context_8h.html" target="_top" xlink:title=" ">
<polygon fill="white" stroke="black" points="477.56,-498 477.56,-517 624.56,-517 624.56,-498 477.56,-498"/>
<text text-anchor="middle" x="551.06" y="-505" font-family="Helvetica,sans-Serif" font-size="10.00">src/http/http_rpc_context.h</text>
</a>
</g>
</g>
<!-- Node17&#45;&gt;Node28 -->
<g id="edge43" class="edge">
<title>Node17&#45;&gt;Node28</title>
<path fill="none" stroke="midnightblue" d="M582.34,-605.96C578.59,-597.83 574.33,-588.04 571.06,-579 563.18,-557.23 556.39,-530.78 553.13,-517.31"/>
<polygon fill="midnightblue" stroke="midnightblue" points="579.26,-607.64 586.69,-615.19 585.59,-604.65 579.26,-607.64"/>
</g>
<!-- Node30 -->
<g id="node30" class="node">
<title>Node30</title>
<g id="a_node30"><a xlink:href="http__sig_8h.html" target="_top" xlink:title=" ">
<polygon fill="white" stroke="black" points="705.06,-559.5 705.06,-578.5 809.06,-578.5 809.06,-559.5 705.06,-559.5"/>
<text text-anchor="middle" x="757.06" y="-566.5" font-family="Helvetica,sans-Serif" font-size="10.00">src/http/http_sig.h</text>
</a>
</g>
</g>
<!-- Node17&#45;&gt;Node30 -->
<g id="edge49" class="edge">
<title>Node17&#45;&gt;Node30</title>
<path fill="none" stroke="midnightblue" d="M627.01,-612.3C658.29,-602.13 702.88,-587.62 730.88,-578.52"/>
<polygon fill="midnightblue" stroke="midnightblue" points="625.79,-609.02 617.36,-615.44 627.95,-615.68 625.79,-609.02"/>
</g>
<!-- Node19 -->
<g id="node19" class="node">
<title>Node19</title>
<g id="a_node19"><a xlink:href="perf__client_8h.html" target="_top" xlink:title=" ">
<polygon fill="white" stroke="black" points="920.56,-369.5 920.56,-399.5 1031.56,-399.5 1031.56,-369.5 920.56,-369.5"/>
<text text-anchor="start" x="928.56" y="-387.5" font-family="Helvetica,sans-Serif" font-size="10.00">src/clients/perf/perf</text>
<text text-anchor="middle" x="976.06" y="-376.5" font-family="Helvetica,sans-Serif" font-size="10.00">_client.h</text>
</a>
</g>
</g>
<!-- Node18&#45;&gt;Node19 -->
<g id="edge28" class="edge">
<title>Node18&#45;&gt;Node19</title>
<path fill="none" stroke="midnightblue" d="M946.44,-487.16C958.54,-479.3 970.31,-468.97 977.06,-456 986.26,-438.3 983.34,-414.56 980,-399.64"/>
<polygon fill="midnightblue" stroke="midnightblue" points="944.42,-484.29 937.65,-492.44 948.02,-490.29 944.42,-484.29"/>
</g>
<!-- Node22 -->
<g id="node22" class="node">
<title>Node22</title>
<g id="a_node22"><a xlink:href="timing_8h.html" target="_top" xlink:title=" ">
<polygon fill="white" stroke="black" points="836.06,-436.5 836.06,-455.5 968.06,-455.5 968.06,-436.5 836.06,-436.5"/>
<text text-anchor="middle" x="902.06" y="-443.5" font-family="Helvetica,sans-Serif" font-size="10.00">src/clients/perf/timing.h</text>
</a>
</g>
</g>
<!-- Node18&#45;&gt;Node22 -->
<g id="edge31" class="edge">
<title>Node18&#45;&gt;Node22</title>
<path fill="none" stroke="midnightblue" d="M903.84,-482.29C903.36,-472.86 902.85,-462.65 902.49,-455.66"/>
<polygon fill="midnightblue" stroke="midnightblue" points="900.35,-482.59 904.35,-492.4 907.34,-482.24 900.35,-482.59"/>
</g>
<!-- Node20 -->
<g id="node20" class="node">
<title>Node20</title>
<g id="a_node20"><a xlink:href="tpcc__client_8cpp.html" target="_top" xlink:title=" ">
<polygon fill="white" stroke="black" points="886.06,-302.5 886.06,-332.5 1002.06,-332.5 1002.06,-302.5 886.06,-302.5"/>
<text text-anchor="start" x="894.06" y="-320.5" font-family="Helvetica,sans-Serif" font-size="10.00">src/apps/tpcc/clients</text>
<text text-anchor="middle" x="944.06" y="-309.5" font-family="Helvetica,sans-Serif" font-size="10.00">/tpcc_client.cpp</text>
</a>
</g>
</g>
<!-- Node19&#45;&gt;Node20 -->
<g id="edge29" class="edge">
<title>Node19&#45;&gt;Node20</title>
<path fill="none" stroke="midnightblue" d="M964.63,-360.28C960.07,-351.02 954.97,-340.66 950.99,-332.58"/>
<polygon fill="midnightblue" stroke="midnightblue" points="961.56,-361.97 969.11,-369.4 967.84,-358.88 961.56,-361.97"/>
</g>
<!-- Node21 -->
<g id="node21" class="node">
<title>Node21</title>
<g id="a_node21"><a xlink:href="scenario__perf__client_8cpp.html" target="_top" xlink:title=" ">
<polygon fill="white" stroke="black" points="1020.56,-302.5 1020.56,-332.5 1153.56,-332.5 1153.56,-302.5 1020.56,-302.5"/>
<text text-anchor="start" x="1028.56" y="-320.5" font-family="Helvetica,sans-Serif" font-size="10.00">src/clients/perf/scenario</text>
<text text-anchor="middle" x="1087.06" y="-309.5" font-family="Helvetica,sans-Serif" font-size="10.00">_perf_client.cpp</text>
</a>
</g>
</g>
<!-- Node19&#45;&gt;Node21 -->
<g id="edge30" class="edge">
<title>Node19&#45;&gt;Node21</title>
<path fill="none" stroke="midnightblue" d="M1008.85,-364.3C1026.22,-354.12 1047.17,-341.85 1063.02,-332.58"/>
<polygon fill="midnightblue" stroke="midnightblue" points="1007,-361.32 1000.14,-369.4 1010.54,-367.36 1007,-361.32"/>
</g>
<!-- Node22&#45;&gt;Node19 -->
<g id="edge32" class="edge">
<title>Node22&#45;&gt;Node19</title>
<path fill="none" stroke="midnightblue" d="M920.47,-430.2C932.14,-420.81 947.14,-408.75 958.62,-399.52"/>
<polygon fill="midnightblue" stroke="midnightblue" points="918.26,-427.48 912.66,-436.48 922.65,-432.94 918.26,-427.48"/>
</g>
<!-- Node24 -->
<g id="node24" class="node">
<title>Node24</title>
<g id="a_node24"><a xlink:href="jwt__auth_8cpp.html" target="_top" xlink:title=" ">
<polygon fill="white" stroke="black" points="304.56,-492.5 304.56,-522.5 459.56,-522.5 459.56,-492.5 304.56,-492.5"/>
<text text-anchor="start" x="312.56" y="-510.5" font-family="Helvetica,sans-Serif" font-size="10.00">src/endpoints/authentication</text>
<text text-anchor="middle" x="382.06" y="-499.5" font-family="Helvetica,sans-Serif" font-size="10.00">/jwt_auth.cpp</text>
</a>
</g>
</g>
<!-- Node23&#45;&gt;Node24 -->
<g id="edge35" class="edge">
<title>Node23&#45;&gt;Node24</title>
<path fill="none" stroke="midnightblue" d="M586.29,-557.11C545.44,-547.39 485.4,-533.1 440.98,-522.52"/>
<polygon fill="midnightblue" stroke="midnightblue" points="585.7,-560.56 596.24,-559.48 587.32,-553.75 585.7,-560.56"/>
</g>
<!-- Node25 -->
<g id="node25" class="node">
<title>Node25</title>
<g id="a_node25"><a xlink:href="frontend_8h.html" target="_top" xlink:title=" ">
<polygon fill="white" stroke="black" points="594.56,-375 594.56,-394 723.56,-394 723.56,-375 594.56,-375"/>
<text text-anchor="middle" x="659.06" y="-382" font-family="Helvetica,sans-Serif" font-size="10.00">src/node/rpc/frontend.h</text>
</a>
</g>
</g>
<!-- Node23&#45;&gt;Node25 -->
<g id="edge36" class="edge">
<title>Node23&#45;&gt;Node25</title>
<path fill="none" stroke="midnightblue" d="M634.84,-549.22C640.59,-510.32 653.63,-422.21 657.77,-394.21"/>
<polygon fill="midnightblue" stroke="midnightblue" points="631.36,-548.79 633.36,-559.2 638.29,-549.82 631.36,-548.79"/>
</g>
<!-- Node25&#45;&gt;Node9 -->
<g id="edge37" class="edge">
<title>Node25&#45;&gt;Node9</title>
<path fill="none" stroke="midnightblue" d="M651.05,-365.58C642.52,-347.9 627.67,-320.87 609.06,-302 546.06,-238.15 442.54,-206.56 383.99,-193.05"/>
<polygon fill="midnightblue" stroke="midnightblue" points="647.94,-367.18 655.33,-374.77 654.29,-364.23 647.94,-367.18"/>
</g>
<!-- Node25&#45;&gt;Node11 -->
<g id="edge40" class="edge">
<title>Node25&#45;&gt;Node11</title>
<path fill="none" stroke="midnightblue" d="M631.34,-370.44C604,-357.57 563,-338.26 539.46,-327.17"/>
<polygon fill="midnightblue" stroke="midnightblue" points="630.19,-373.77 640.73,-374.87 633.18,-367.44 630.19,-373.77"/>
</g>
<!-- Node26 -->
<g id="node26" class="node">
<title>Node26</title>
<g id="a_node26"><a xlink:href="member__frontend_8h.html" target="_top" xlink:title=" ">
<polygon fill="white" stroke="black" points="694.06,-168.5 694.06,-198.5 814.06,-198.5 814.06,-168.5 694.06,-168.5"/>
<text text-anchor="start" x="702.06" y="-186.5" font-family="Helvetica,sans-Serif" font-size="10.00">src/node/rpc/member</text>
<text text-anchor="middle" x="754.06" y="-175.5" font-family="Helvetica,sans-Serif" font-size="10.00">_frontend.h</text>
</a>
</g>
</g>
<!-- Node25&#45;&gt;Node26 -->
<g id="edge38" class="edge">
<title>Node25&#45;&gt;Node26</title>
<path fill="none" stroke="midnightblue" d="M667.48,-365.86C686.1,-326.86 730.45,-233.94 747.36,-198.53"/>
<polygon fill="midnightblue" stroke="midnightblue" points="664.29,-364.42 663.14,-374.95 670.61,-367.43 664.29,-364.42"/>
</g>
<!-- Node27 -->
<g id="node27" class="node">
<title>Node27</title>
<g id="a_node27"><a xlink:href="user__frontend_8h.html" target="_top" xlink:title=" ">
<polygon fill="white" stroke="black" points="588.56,-112.5 588.56,-131.5 743.56,-131.5 743.56,-112.5 588.56,-112.5"/>
<text text-anchor="middle" x="666.06" y="-119.5" font-family="Helvetica,sans-Serif" font-size="10.00">src/node/rpc/user_frontend.h</text>
</a>
</g>
</g>
<!-- Node25&#45;&gt;Node27 -->
<g id="edge41" class="edge">
<title>Node25&#45;&gt;Node27</title>
<path fill="none" stroke="midnightblue" d="M659.56,-364.72C660.96,-312.77 664.83,-168.61 665.82,-131.7"/>
<polygon fill="midnightblue" stroke="midnightblue" points="656.06,-364.74 659.29,-374.83 663.06,-364.93 656.06,-364.74"/>
</g>
<!-- Node26&#45;&gt;Node3 -->
<g id="edge39" class="edge">
<title>Node26&#45;&gt;Node3</title>
<path fill="none" stroke="midnightblue" d="M760.63,-158.29C763.14,-143.37 763.31,-124.74 753.06,-112 736.6,-91.57 671.26,-79.51 621.12,-73.1"/>
<polygon fill="midnightblue" stroke="midnightblue" points="757.14,-157.85 758.5,-168.35 763.99,-159.29 757.14,-157.85"/>
</g>
<!-- Node27&#45;&gt;Node3 -->
<g id="edge42" class="edge">
<title>Node27&#45;&gt;Node3</title>
<path fill="none" stroke="midnightblue" d="M640,-107.73C620.37,-97.73 594.03,-84.31 577.05,-75.65"/>
<polygon fill="midnightblue" stroke="midnightblue" points="638.53,-110.9 649.03,-112.32 641.71,-104.67 638.53,-110.9"/>
</g>
<!-- Node28&#45;&gt;Node5 -->
<g id="edge44" class="edge">
<title>Node28&#45;&gt;Node5</title>
<path fill="none" stroke="midnightblue" d="M518.81,-494.43C487.91,-482.87 442.05,-465.71 414.8,-455.51"/>
<polygon fill="midnightblue" stroke="midnightblue" points="517.68,-497.75 528.28,-497.98 520.14,-491.19 517.68,-497.75"/>
</g>
<!-- Node28&#45;&gt;Node12 -->
<g id="edge45" class="edge">
<title>Node28&#45;&gt;Node12</title>
<path fill="none" stroke="midnightblue" d="M554.03,-488C557.56,-459.2 559.87,-403.42 532.06,-369 502.63,-332.59 460.39,-371.02 433.06,-333 418.85,-313.23 422.83,-283.24 426.97,-265.68"/>
<polygon fill="midnightblue" stroke="midnightblue" points="550.56,-487.53 552.63,-497.92 557.49,-488.51 550.56,-487.53"/>
</g>
<!-- Node29 -->
<g id="node29" class="node">
<title>Node29</title>
<g id="a_node29"><a xlink:href="forwarder_8h.html" target="_top" xlink:title=" ">
<polygon fill="white" stroke="black" points="681.06,-436.5 681.06,-455.5 815.06,-455.5 815.06,-436.5 681.06,-436.5"/>
<text text-anchor="middle" x="748.06" y="-443.5" font-family="Helvetica,sans-Serif" font-size="10.00">src/node/rpc/forwarder.h</text>
</a>
</g>
</g>
<!-- Node28&#45;&gt;Node29 -->
<g id="edge46" class="edge">
<title>Node28&#45;&gt;Node29</title>
<path fill="none" stroke="midnightblue" d="M589.04,-495.03C627.33,-483.46 685.53,-465.88 719.88,-455.51"/>
<polygon fill="midnightblue" stroke="midnightblue" points="587.84,-491.73 579.28,-497.98 589.87,-498.43 587.84,-491.73"/>
</g>
<!-- Node29&#45;&gt;Node3 -->
<g id="edge47" class="edge">
<title>Node29&#45;&gt;Node3</title>
<path fill="none" stroke="midnightblue" d="M769.45,-430.08C797.19,-408.8 842.06,-366.89 842.06,-318.5 842.06,-318.5 842.06,-318.5 842.06,-182.5 842.06,-138.03 810.17,-133.16 771.06,-112 724.61,-86.87 665.32,-75.77 621.42,-70.87"/>
<polygon fill="midnightblue" stroke="midnightblue" points="767.08,-427.48 761.13,-436.25 771.25,-433.11 767.08,-427.48"/>
</g>
<!-- Node29&#45;&gt;Node25 -->
<g id="edge48" class="edge">
<title>Node29&#45;&gt;Node25</title>
<path fill="none" stroke="midnightblue" d="M726.54,-430.61C709.42,-419.17 686.05,-403.55 671.79,-394.01"/>
<polygon fill="midnightblue" stroke="midnightblue" points="725.05,-433.83 735.31,-436.48 728.94,-428.01 725.05,-433.83"/>
</g>
<!-- Node30&#45;&gt;Node18 -->
<g id="edge50" class="edge">
<title>Node30&#45;&gt;Node18</title>
<path fill="none" stroke="midnightblue" d="M787.61,-555.72C811.63,-546.06 845.11,-532.6 870.18,-522.52"/>
<polygon fill="midnightblue" stroke="midnightblue" points="786.23,-552.5 778.26,-559.48 788.85,-558.99 786.23,-552.5"/>
</g>
<!-- Node30&#45;&gt;Node28 -->
<g id="edge52" class="edge">
<title>Node30&#45;&gt;Node28</title>
<path fill="none" stroke="midnightblue" d="M717.85,-556.68C677.82,-545.11 616.59,-527.43 580.52,-517.01"/>
<polygon fill="midnightblue" stroke="midnightblue" points="716.96,-560.06 727.54,-559.48 718.91,-553.34 716.96,-560.06"/>
</g>
<!-- Node31 -->
<g id="node31" class="node">
<title>Node31</title>
<g id="a_node31"><a xlink:href="sig__auth_8cpp.html" target="_top" xlink:title=" ">
<polygon fill="white" stroke="black" points="681.56,-492.5 681.56,-522.5 836.56,-522.5 836.56,-492.5 681.56,-492.5"/>
<text text-anchor="start" x="689.56" y="-510.5" font-family="Helvetica,sans-Serif" font-size="10.00">src/endpoints/authentication</text>
<text text-anchor="middle" x="759.06" y="-499.5" font-family="Helvetica,sans-Serif" font-size="10.00">/sig_auth.cpp</text>
</a>
</g>
</g>
<!-- Node30&#45;&gt;Node31 -->
<g id="edge51" class="edge">
<title>Node30&#45;&gt;Node31</title>
<path fill="none" stroke="midnightblue" d="M757.69,-549.23C757.98,-540.59 758.32,-530.5 758.59,-522.52"/>
<polygon fill="midnightblue" stroke="midnightblue" points="754.18,-549.36 757.34,-559.48 761.18,-549.6 754.18,-549.36"/>
</g>
<!-- Node32&#45;&gt;Node17 -->
<g id="edge54" class="edge">
<title>Node32&#45;&gt;Node17</title>
<path fill="none" stroke="midnightblue" d="M591.06,-660.8C591.06,-651.91 591.06,-641.78 591.06,-634.75"/>
<polygon fill="midnightblue" stroke="midnightblue" points="587.56,-661.08 591.06,-671.08 594.56,-661.08 587.56,-661.08"/>
</g>
<!-- Node33&#45;&gt;Node2 -->
<g id="edge56" class="edge">
<title>Node33&#45;&gt;Node2</title>
<path fill="none" stroke="midnightblue" d="M110.99,-552.97C124.57,-541.59 142.73,-526.37 153.9,-517.01"/>
<polygon fill="midnightblue" stroke="midnightblue" points="108.65,-550.37 103.23,-559.48 113.14,-555.73 108.65,-550.37"/>
</g>
<!-- Node33&#45;&gt;Node9 -->
<g id="edge57" class="edge">
<title>Node33&#45;&gt;Node9</title>
<path fill="none" stroke="midnightblue" d="M71.93,-553.47C45.05,-533.09 2.06,-493.25 2.06,-447 2.06,-447 2.06,-447 2.06,-316.5 2.06,-279.31 -6.17,-260.34 21.06,-235 57.39,-201.2 195.98,-190 278.05,-186.3"/>
<polygon fill="midnightblue" stroke="midnightblue" points="69.88,-556.31 80.02,-559.39 74.02,-550.66 69.88,-556.31"/>
</g>
<!-- Node34&#45;&gt;Node2 -->
<g id="edge59" class="edge">
<title>Node34&#45;&gt;Node2</title>
<path fill="none" stroke="midnightblue" d="M230.28,-717.73C215.61,-671.38 177.36,-550.53 166.79,-517.15"/>
<polygon fill="midnightblue" stroke="midnightblue" points="226.97,-718.88 233.32,-727.36 233.64,-716.77 226.97,-718.88"/>
</g>
</g>
</svg>
