<?xml version="1.0" encoding="UTF-8" standalone="no"?>
<!DOCTYPE svg PUBLIC "-//W3C//DTD SVG 1.1//EN"
 "http://www.w3.org/Graphics/SVG/1.1/DTD/svg11.dtd">
<!-- Generated by graphviz version 2.43.0 (0)
 -->
<!-- Title: src/http/http_builder.h Pages: 1 -->
<!--zoomable 889 -->
<svg id="main" version="1.1" xmlns="http://www.w3.org/2000/svg" xmlns:xlink="http://www.w3.org/1999/xlink" xml:space="preserve" onload="init(evt)">
<style type="text/css"><![CDATA[
.edge:hover path { stroke: red; }
.edge:hover polygon { stroke: red; fill: red; }
]]></style>
<script type="text/javascript"><![CDATA[
var edges = document.getElementsByTagName('g');
if (edges && edges.length) {
  for (var i=0;i<edges.length;i++) {
    if (edges[i].id.substr(0,4)=='edge') {
      edges[i].setAttribute('class','edge');
    }
  }
}
]]></script>
        <defs>
                <circle id="rim" cx="0" cy="0" r="7"/>
                <circle id="rim2" cx="0" cy="0" r="3.5"/>
                <g id="zoomPlus">
                        <use xlink:href="#rim" fill="#404040">
                                <set attributeName="fill" to="#808080" begin="zoomplus.mouseover" end="zoomplus.mouseout"/>
                        </use>
                        <path d="M-4,0h8M0,-4v8" fill="none" stroke="white" stroke-width="1.5" pointer-events="none"/>
                </g>
                <g id="zoomMin">
                        <use xlink:href="#rim" fill="#404040">
                                <set attributeName="fill" to="#808080" begin="zoomminus.mouseover" end="zoomminus.mouseout"/>
                        </use>
                        <path d="M-4,0h8" fill="none" stroke="white" stroke-width="1.5" pointer-events="none"/>
                </g>
                <g id="dirArrow">
                        <path fill="none" stroke="white" stroke-width="1.5" d="M0,-3.0v7 M-2.5,-0.5L0,-3.0L2.5,-0.5"/>
                </g>
               <g id="resetDef">
                       <use xlink:href="#rim2" fill="#404040">
                               <set attributeName="fill" to="#808080" begin="reset.mouseover" end="reset.mouseout"/>
                       </use>
               </g>
        </defs>

<script type="text/javascript">
var viewWidth = 1393;
var viewHeight = 889;
var sectionId = 'dynsection-1';
</script>
<script xlink:href="svgpan.js"/>
<svg id="graph" class="graph">
<g id="viewport">
<title>src/http/http_builder.h</title>
<polygon fill="white" stroke="transparent" points="-4,4 -4,-885 1389,-885 1389,4 -4,4"/>
<!-- Node1 -->
<g id="node1" class="node">
<title>Node1</title>
<g id="a_node1"><a xlink:title=" ">
<polygon fill="#bfbfbf" stroke="black" points="690.5,-861.5 690.5,-880.5 813.5,-880.5 813.5,-861.5 690.5,-861.5"/>
<text text-anchor="middle" x="752" y="-868.5" font-family="Helvetica,sans-Serif" font-size="10.00">src/http/http_builder.h</text>
</a>
</g>
</g>
<!-- Node2 -->
<g id="node2" class="node">
<title>Node2</title>
<g id="a_node2"><a xlink:href="rpc__tls__client_8h.html" target="_top" xlink:title=" ">
<polygon fill="white" stroke="black" points="185.5,-615.5 185.5,-645.5 286.5,-645.5 286.5,-615.5 185.5,-615.5"/>
<text text-anchor="start" x="193.5" y="-633.5" font-family="Helvetica,sans-Serif" font-size="10.00">src/clients/rpc_tls</text>
<text text-anchor="middle" x="236" y="-622.5" font-family="Helvetica,sans-Serif" font-size="10.00">_client.h</text>
</a>
</g>
</g>
<!-- Node1&#45;&gt;Node2 -->
<g id="edge1" class="edge">
<title>Node1&#45;&gt;Node2</title>
<path fill="none" stroke="midnightblue" d="M707.46,-858.95C625.22,-837.27 445.79,-784.04 313,-702 287.4,-686.19 262.63,-661.24 248.37,-645.65"/>
<polygon fill="midnightblue" stroke="midnightblue" points="706.68,-862.36 717.24,-861.49 708.44,-855.58 706.68,-862.36"/>
</g>
<!-- Node7 -->
<g id="node7" class="node">
<title>Node7</title>
<g id="a_node7"><a xlink:href="client__endpoint_8h.html" target="_top" xlink:title=" ">
<polygon fill="white" stroke="black" points="901,-738.5 901,-768.5 1003,-768.5 1003,-738.5 901,-738.5"/>
<text text-anchor="start" x="909" y="-756.5" font-family="Helvetica,sans-Serif" font-size="10.00">src/enclave/client</text>
<text text-anchor="middle" x="952" y="-745.5" font-family="Helvetica,sans-Serif" font-size="10.00">_endpoint.h</text>
</a>
</g>
</g>
<!-- Node1&#45;&gt;Node7 -->
<g id="edge7" class="edge">
<title>Node1&#45;&gt;Node7</title>
<path fill="none" stroke="midnightblue" d="M798.52,-858.71C823.53,-851.39 854.24,-840.32 879,-825 904.02,-809.51 927.46,-784.23 940.74,-768.52"/>
<polygon fill="midnightblue" stroke="midnightblue" points="797.56,-855.34 788.88,-861.42 799.46,-862.08 797.56,-855.34"/>
</g>
<!-- Node18 -->
<g id="node18" class="node">
<title>Node18</title>
<g id="a_node18"><a xlink:href="jwt__key__auto__refresh_8h.html" target="_top" xlink:title=" ">
<polygon fill="white" stroke="black" points="781.5,-235.5 781.5,-265.5 906.5,-265.5 906.5,-235.5 781.5,-235.5"/>
<text text-anchor="start" x="789.5" y="-253.5" font-family="Helvetica,sans-Serif" font-size="10.00">src/node/jwt_key_auto</text>
<text text-anchor="middle" x="844" y="-242.5" font-family="Helvetica,sans-Serif" font-size="10.00">_refresh.h</text>
</a>
</g>
</g>
<!-- Node1&#45;&gt;Node18 -->
<g id="edge56" class="edge">
<title>Node1&#45;&gt;Node18</title>
<path fill="none" stroke="midnightblue" d="M779.81,-856.82C813.27,-838.8 865,-803.09 865,-754.5 865,-754.5 865,-754.5 865,-691 865,-609.88 863,-589.62 863,-508.5 863,-508.5 863,-508.5 863,-372.5 863,-333.37 853.18,-287.98 847.66,-265.55"/>
<polygon fill="midnightblue" stroke="midnightblue" points="778.18,-853.72 770.91,-861.43 781.4,-859.94 778.18,-853.72"/>
</g>
<!-- Node22 -->
<g id="node22" class="node">
<title>Node22</title>
<g id="a_node22"><a xlink:href="http__parser_8h.html" target="_top" xlink:title=" ">
<polygon fill="white" stroke="black" points="608,-744 608,-763 728,-763 728,-744 608,-744"/>
<text text-anchor="middle" x="668" y="-751" font-family="Helvetica,sans-Serif" font-size="10.00">src/http/http_parser.h</text>
</a>
</g>
</g>
<!-- Node1&#45;&gt;Node22 -->
<g id="edge32" class="edge">
<title>Node1&#45;&gt;Node22</title>
<path fill="none" stroke="midnightblue" d="M724.7,-856.47C711.86,-848.85 697.36,-838.19 688,-825 674.3,-805.7 669.95,-777.23 668.6,-763.1"/>
<polygon fill="midnightblue" stroke="midnightblue" points="723.22,-859.65 733.65,-861.48 726.63,-853.55 723.22,-859.65"/>
</g>
<!-- Node32 -->
<g id="node32" class="node">
<title>Node32</title>
<g id="a_node32"><a xlink:href="http__proc_8h.html" target="_top" xlink:title=" ">
<polygon fill="white" stroke="black" points="696.5,-805.5 696.5,-824.5 807.5,-824.5 807.5,-805.5 696.5,-805.5"/>
<text text-anchor="middle" x="752" y="-812.5" font-family="Helvetica,sans-Serif" font-size="10.00">src/http/http_proc.h</text>
</a>
</g>
</g>
<!-- Node1&#45;&gt;Node32 -->
<g id="edge54" class="edge">
<title>Node1&#45;&gt;Node32</title>
<path fill="none" stroke="midnightblue" d="M752,-850.8C752,-841.91 752,-831.78 752,-824.75"/>
<polygon fill="midnightblue" stroke="midnightblue" points="748.5,-851.08 752,-861.08 755.5,-851.08 748.5,-851.08"/>
</g>
<!-- Node3 -->
<g id="node3" class="node">
<title>Node3</title>
<g id="a_node3"><a xlink:href="perf__client_8h.html" target="_top" xlink:title=" ">
<polygon fill="white" stroke="black" points="135.5,-492.5 135.5,-522.5 246.5,-522.5 246.5,-492.5 135.5,-492.5"/>
<text text-anchor="start" x="143.5" y="-510.5" font-family="Helvetica,sans-Serif" font-size="10.00">src/clients/perf/perf</text>
<text text-anchor="middle" x="191" y="-499.5" font-family="Helvetica,sans-Serif" font-size="10.00">_client.h</text>
</a>
</g>
</g>
<!-- Node2&#45;&gt;Node3 -->
<g id="edge2" class="edge">
<title>Node2&#45;&gt;Node3</title>
<path fill="none" stroke="midnightblue" d="M235.81,-605.22C235,-591.28 232.75,-573.69 227,-559 221.74,-545.56 212.12,-532.36 204.15,-522.82"/>
<polygon fill="midnightblue" stroke="midnightblue" points="232.33,-605.63 236.2,-615.49 239.32,-605.37 232.33,-605.63"/>
</g>
<!-- Node6 -->
<g id="node6" class="node">
<title>Node6</title>
<g id="a_node6"><a xlink:href="timing_8h.html" target="_top" xlink:title=" ">
<polygon fill="white" stroke="black" points="86,-559.5 86,-578.5 218,-578.5 218,-559.5 86,-559.5"/>
<text text-anchor="middle" x="152" y="-566.5" font-family="Helvetica,sans-Serif" font-size="10.00">src/clients/perf/timing.h</text>
</a>
</g>
</g>
<!-- Node2&#45;&gt;Node6 -->
<g id="edge5" class="edge">
<title>Node2&#45;&gt;Node6</title>
<path fill="none" stroke="midnightblue" d="M207.74,-609.48C192.94,-599 175.59,-586.71 164.22,-578.66"/>
<polygon fill="midnightblue" stroke="midnightblue" points="205.91,-612.48 216.09,-615.4 209.96,-606.76 205.91,-612.48"/>
</g>
<!-- Node4 -->
<g id="node4" class="node">
<title>Node4</title>
<g id="a_node4"><a xlink:href="tpcc__client_8cpp.html" target="_top" xlink:title=" ">
<polygon fill="white" stroke="black" points="0,-425.5 0,-455.5 116,-455.5 116,-425.5 0,-425.5"/>
<text text-anchor="start" x="8" y="-443.5" font-family="Helvetica,sans-Serif" font-size="10.00">src/apps/tpcc/clients</text>
<text text-anchor="middle" x="58" y="-432.5" font-family="Helvetica,sans-Serif" font-size="10.00">/tpcc_client.cpp</text>
</a>
</g>
</g>
<!-- Node3&#45;&gt;Node4 -->
<g id="edge3" class="edge">
<title>Node3&#45;&gt;Node4</title>
<path fill="none" stroke="midnightblue" d="M153.13,-487.99C132.05,-477.69 106.22,-465.07 86.8,-455.58"/>
<polygon fill="midnightblue" stroke="midnightblue" points="151.62,-491.15 162.14,-492.4 154.69,-484.86 151.62,-491.15"/>
</g>
<!-- Node5 -->
<g id="node5" class="node">
<title>Node5</title>
<g id="a_node5"><a xlink:href="scenario__perf__client_8cpp.html" target="_top" xlink:title=" ">
<polygon fill="white" stroke="black" points="134.5,-425.5 134.5,-455.5 267.5,-455.5 267.5,-425.5 134.5,-425.5"/>
<text text-anchor="start" x="142.5" y="-443.5" font-family="Helvetica,sans-Serif" font-size="10.00">src/clients/perf/scenario</text>
<text text-anchor="middle" x="201" y="-432.5" font-family="Helvetica,sans-Serif" font-size="10.00">_perf_client.cpp</text>
</a>
</g>
</g>
<!-- Node3&#45;&gt;Node5 -->
<g id="edge4" class="edge">
<title>Node3&#45;&gt;Node5</title>
<path fill="none" stroke="midnightblue" d="M194.71,-482.4C196.1,-473.37 197.63,-463.41 198.83,-455.58"/>
<polygon fill="midnightblue" stroke="midnightblue" points="191.23,-481.98 193.17,-492.4 198.15,-483.04 191.23,-481.98"/>
</g>
<!-- Node6&#45;&gt;Node3 -->
<g id="edge6" class="edge">
<title>Node6&#45;&gt;Node3</title>
<path fill="none" stroke="midnightblue" d="M163.17,-550.96C169.07,-541.96 176.23,-531.03 181.81,-522.52"/>
<polygon fill="midnightblue" stroke="midnightblue" points="160.14,-549.19 157.59,-559.48 166,-553.03 160.14,-549.19"/>
</g>
<!-- Node8 -->
<g id="node8" class="node">
<title>Node8</title>
<g id="a_node8"><a xlink:href="http__endpoint_8h.html" target="_top" xlink:title=" ">
<polygon fill="white" stroke="black" points="891.5,-559.5 891.5,-578.5 1024.5,-578.5 1024.5,-559.5 891.5,-559.5"/>
<text text-anchor="middle" x="958" y="-566.5" font-family="Helvetica,sans-Serif" font-size="10.00">src/http/http_endpoint.h</text>
</a>
</g>
</g>
<!-- Node7&#45;&gt;Node8 -->
<g id="edge8" class="edge">
<title>Node7&#45;&gt;Node8</title>
<path fill="none" stroke="midnightblue" d="M952.8,-728.27C954.15,-687.19 956.83,-605.69 957.71,-578.82"/>
<polygon fill="midnightblue" stroke="midnightblue" points="949.29,-728.37 952.46,-738.48 956.29,-728.6 949.29,-728.37"/>
</g>
<!-- Node9 -->
<g id="node9" class="node">
<title>Node9</title>
<g id="a_node9"><a xlink:href="rpc__sessions_8h.html" target="_top" xlink:title=" ">
<polygon fill="white" stroke="black" points="1123,-498 1123,-517 1269,-517 1269,-498 1123,-498"/>
<text text-anchor="middle" x="1196" y="-505" font-family="Helvetica,sans-Serif" font-size="10.00">src/enclave/rpc_sessions.h</text>
</a>
</g>
</g>
<!-- Node8&#45;&gt;Node9 -->
<g id="edge9" class="edge">
<title>Node8&#45;&gt;Node9</title>
<path fill="none" stroke="midnightblue" d="M997.02,-556.9C1041.29,-545.34 1112.83,-527.5 1157.07,-517.01"/>
<polygon fill="midnightblue" stroke="midnightblue" points="995.98,-553.55 987.2,-559.48 997.76,-560.32 995.98,-553.55"/>
</g>
<!-- Node9&#45;&gt;Node8 -->
<g id="edge12" class="edge">
<title>Node9&#45;&gt;Node8</title>
<path fill="none" stroke="midnightblue" d="M1157.05,-519.59C1112.81,-531.14 1041.26,-548.98 997,-559.48"/>
<polygon fill="midnightblue" stroke="midnightblue" points="1158.08,-522.93 1166.86,-517.01 1156.3,-516.16 1158.08,-522.93"/>
</g>
<!-- Node10 -->
<g id="node10" class="node">
<title>Node10</title>
<g id="a_node10"><a xlink:href="enclave_2enclave_8h.html" target="_top" xlink:title=" ">
<polygon fill="white" stroke="black" points="550,-56.5 550,-75.5 672,-75.5 672,-56.5 550,-56.5"/>
<text text-anchor="middle" x="611" y="-63.5" font-family="Helvetica,sans-Serif" font-size="10.00">src/enclave/enclave.h</text>
</a>
</g>
</g>
<!-- Node9&#45;&gt;Node10 -->
<g id="edge10" class="edge">
<title>Node9&#45;&gt;Node10</title>
<path fill="none" stroke="midnightblue" d="M1244.46,-495.2C1300.45,-478.94 1385,-443.03 1385,-374.5 1385,-374.5 1385,-374.5 1385,-182.5 1385,-110.54 854.82,-78.58 672.06,-69.7"/>
<polygon fill="midnightblue" stroke="midnightblue" points="1243.39,-491.87 1234.7,-497.93 1245.28,-498.61 1243.39,-491.87"/>
</g>
<!-- Node12 -->
<g id="node12" class="node">
<title>Node12</title>
<g id="a_node12"><a xlink:href="node__client_8h.html" target="_top" xlink:title=" ">
<polygon fill="white" stroke="black" points="1068,-431 1068,-450 1194,-450 1194,-431 1068,-431"/>
<text text-anchor="middle" x="1131" y="-438" font-family="Helvetica,sans-Serif" font-size="10.00">src/node/node_client.h</text>
</a>
</g>
</g>
<!-- Node9&#45;&gt;Node12 -->
<g id="edge13" class="edge">
<title>Node9&#45;&gt;Node12</title>
<path fill="none" stroke="midnightblue" d="M1180,-490.5C1167.25,-477.75 1149.89,-460.39 1139.63,-450.13"/>
<polygon fill="midnightblue" stroke="midnightblue" points="1177.69,-493.14 1187.23,-497.73 1182.64,-488.19 1177.69,-493.14"/>
</g>
<!-- Node15 -->
<g id="node15" class="node">
<title>Node15</title>
<g id="a_node15"><a xlink:href="node__state_8h.html" target="_top" xlink:title=" ">
<polygon fill="white" stroke="black" points="869,-174 869,-193 993,-193 993,-174 869,-174"/>
<text text-anchor="middle" x="931" y="-181" font-family="Helvetica,sans-Serif" font-size="10.00">src/node/node_state.h</text>
</a>
</g>
</g>
<!-- Node9&#45;&gt;Node15 -->
<g id="edge29" class="edge">
<title>Node9&#45;&gt;Node15</title>
<path fill="none" stroke="midnightblue" d="M1203.86,-488.17C1219.08,-449.5 1247.59,-358.53 1206,-302 1155.69,-233.63 1057.47,-204.66 993.06,-192.66"/>
<polygon fill="midnightblue" stroke="midnightblue" points="1200.54,-487.03 1199.99,-497.61 1207.02,-489.69 1200.54,-487.03"/>
</g>
<!-- Node21 -->
<g id="node21" class="node">
<title>Node21</title>
<g id="a_node21"><a xlink:href="resharing_8h.html" target="_top" xlink:title=" ">
<polygon fill="white" stroke="black" points="1241,-241 1241,-260 1357,-260 1357,-241 1241,-241"/>
<text text-anchor="middle" x="1299" y="-248" font-family="Helvetica,sans-Serif" font-size="10.00">src/node/resharing.h</text>
</a>
</g>
</g>
<!-- Node9&#45;&gt;Node21 -->
<g id="edge30" class="edge">
<title>Node9&#45;&gt;Node21</title>
<path fill="none" stroke="midnightblue" d="M1229.26,-493.49C1245.76,-485.27 1264.38,-472.95 1275,-456 1315.98,-390.56 1304.89,-289.96 1300.43,-260.12"/>
<polygon fill="midnightblue" stroke="midnightblue" points="1227.45,-490.47 1219.86,-497.86 1230.41,-496.81 1227.45,-490.47"/>
</g>
<!-- Node11 -->
<g id="node11" class="node">
<title>Node11</title>
<g id="a_node11"><a xlink:href="enclave_2main_8cpp.html" target="_top" xlink:title=" ">
<polygon fill="white" stroke="black" points="551,-0.5 551,-19.5 671,-19.5 671,-0.5 551,-0.5"/>
<text text-anchor="middle" x="611" y="-7.5" font-family="Helvetica,sans-Serif" font-size="10.00">src/enclave/main.cpp</text>
</a>
</g>
</g>
<!-- Node10&#45;&gt;Node11 -->
<g id="edge11" class="edge">
<title>Node10&#45;&gt;Node11</title>
<path fill="none" stroke="midnightblue" d="M611,-45.8C611,-36.91 611,-26.78 611,-19.75"/>
<polygon fill="midnightblue" stroke="midnightblue" points="607.5,-46.08 611,-56.08 614.5,-46.08 607.5,-46.08"/>
</g>
<!-- Node13 -->
<g id="node13" class="node">
<title>Node13</title>
<g id="a_node13"><a xlink:href="orc__requests_8h.html" target="_top" xlink:title=" ">
<polygon fill="white" stroke="black" points="891.5,-358.5 891.5,-388.5 1010.5,-388.5 1010.5,-358.5 891.5,-358.5"/>
<text text-anchor="start" x="899.5" y="-376.5" font-family="Helvetica,sans-Serif" font-size="10.00">src/consensus/aft/orc</text>
<text text-anchor="middle" x="951" y="-365.5" font-family="Helvetica,sans-Serif" font-size="10.00">_requests.h</text>
</a>
</g>
</g>
<!-- Node12&#45;&gt;Node13 -->
<g id="edge14" class="edge">
<title>Node12&#45;&gt;Node13</title>
<path fill="none" stroke="midnightblue" d="M1097.34,-427.35C1066.83,-416.33 1021.87,-400.09 989.85,-388.53"/>
<polygon fill="midnightblue" stroke="midnightblue" points="1096.5,-430.76 1107.1,-430.87 1098.88,-424.18 1096.5,-430.76"/>
</g>
<!-- Node14 -->
<g id="node14" class="node">
<title>Node14</title>
<g id="a_node14"><a xlink:href="raft_8h.html" target="_top" xlink:title=" ">
<polygon fill="white" stroke="black" points="1067.5,-302.5 1067.5,-321.5 1196.5,-321.5 1196.5,-302.5 1067.5,-302.5"/>
<text text-anchor="middle" x="1132" y="-309.5" font-family="Helvetica,sans-Serif" font-size="10.00">src/consensus/aft/raft.h</text>
</a>
</g>
</g>
<!-- Node12&#45;&gt;Node14 -->
<g id="edge24" class="edge">
<title>Node12&#45;&gt;Node14</title>
<path fill="none" stroke="midnightblue" d="M1162.68,-426.28C1178.13,-418.01 1195.23,-405.73 1204,-389 1210.4,-376.8 1210.68,-370.05 1204,-358 1194.14,-340.21 1173.99,-328.52 1157.5,-321.53"/>
<polygon fill="midnightblue" stroke="midnightblue" points="1160.76,-423.32 1153.36,-430.91 1163.87,-429.59 1160.76,-423.32"/>
</g>
<!-- Node19 -->
<g id="node19" class="node">
<title>Node19</title>
<g id="a_node19"><a xlink:href="http__node__client_8h.html" target="_top" xlink:title=" ">
<polygon fill="white" stroke="black" points="948,-235.5 948,-265.5 1058,-265.5 1058,-235.5 948,-235.5"/>
<text text-anchor="start" x="956" y="-253.5" font-family="Helvetica,sans-Serif" font-size="10.00">src/node/http_node</text>
<text text-anchor="middle" x="1003" y="-242.5" font-family="Helvetica,sans-Serif" font-size="10.00">_client.h</text>
</a>
</g>
</g>
<!-- Node12&#45;&gt;Node19 -->
<g id="edge25" class="edge">
<title>Node12&#45;&gt;Node19</title>
<path fill="none" stroke="midnightblue" d="M1103.85,-425.89C1088.65,-417.12 1070.33,-404.47 1058,-389 1027.23,-350.4 1011.68,-292.36 1005.82,-265.75"/>
<polygon fill="midnightblue" stroke="midnightblue" points="1102.38,-429.08 1112.83,-430.84 1105.76,-422.95 1102.38,-429.08"/>
</g>
<!-- Node20 -->
<g id="node20" class="node">
<title>Node20</title>
<g id="a_node20"><a xlink:href="retired__nodes__cleanup_8h.html" target="_top" xlink:title=" ">
<polygon fill="white" stroke="black" points="1067,-358.5 1067,-388.5 1195,-388.5 1195,-358.5 1067,-358.5"/>
<text text-anchor="start" x="1075" y="-376.5" font-family="Helvetica,sans-Serif" font-size="10.00">src/node/retired_nodes</text>
<text text-anchor="middle" x="1131" y="-365.5" font-family="Helvetica,sans-Serif" font-size="10.00">_cleanup.h</text>
</a>
</g>
</g>
<!-- Node12&#45;&gt;Node20 -->
<g id="edge27" class="edge">
<title>Node12&#45;&gt;Node20</title>
<path fill="none" stroke="midnightblue" d="M1131,-420.41C1131,-410.22 1131,-397.9 1131,-388.59"/>
<polygon fill="midnightblue" stroke="midnightblue" points="1127.5,-420.73 1131,-430.73 1134.5,-420.73 1127.5,-420.73"/>
</g>
<!-- Node13&#45;&gt;Node14 -->
<g id="edge15" class="edge">
<title>Node13&#45;&gt;Node14</title>
<path fill="none" stroke="midnightblue" d="M1003.57,-355.22C1037.17,-344.17 1079.29,-330.33 1105.93,-321.57"/>
<polygon fill="midnightblue" stroke="midnightblue" points="1002.3,-351.95 993.89,-358.4 1004.49,-358.6 1002.3,-351.95"/>
</g>
<!-- Node17 -->
<g id="node17" class="node">
<title>Node17</title>
<g id="a_node17"><a xlink:href="node__frontend_8h.html" target="_top" xlink:title=" ">
<polygon fill="white" stroke="black" points="639,-302.5 639,-321.5 797,-321.5 797,-302.5 639,-302.5"/>
<text text-anchor="middle" x="718" y="-309.5" font-family="Helvetica,sans-Serif" font-size="10.00">src/node/rpc/node_frontend.h</text>
</a>
</g>
</g>
<!-- Node13&#45;&gt;Node17 -->
<g id="edge20" class="edge">
<title>Node13&#45;&gt;Node17</title>
<path fill="none" stroke="midnightblue" d="M886.36,-355.99C842.53,-344.8 786.4,-330.47 751.31,-321.51"/>
<polygon fill="midnightblue" stroke="midnightblue" points="885.52,-359.39 896.08,-358.47 887.25,-352.61 885.52,-359.39"/>
</g>
<!-- Node14&#45;&gt;Node15 -->
<g id="edge16" class="edge">
<title>Node14&#45;&gt;Node15</title>
<path fill="none" stroke="midnightblue" d="M1121.11,-293.76C1109.55,-276.71 1089.82,-250.93 1067,-235 1037.16,-214.17 997.67,-200.76 968.94,-193.04"/>
<polygon fill="midnightblue" stroke="midnightblue" points="1118.25,-295.78 1126.66,-302.22 1124.1,-291.93 1118.25,-295.78"/>
</g>
<!-- Node15&#45;&gt;Node10 -->
<g id="edge17" class="edge">
<title>Node15&#45;&gt;Node10</title>
<path fill="none" stroke="midnightblue" d="M897.48,-170.4C832.61,-146.99 691.34,-96 634.95,-75.64"/>
<polygon fill="midnightblue" stroke="midnightblue" points="896.62,-173.81 907.21,-173.91 898.99,-167.23 896.62,-173.81"/>
</g>
<!-- Node16 -->
<g id="node16" class="node">
<title>Node16</title>
<g id="a_node16"><a xlink:href="gov__effects_8h.html" target="_top" xlink:title=" ">
<polygon fill="white" stroke="black" points="841,-112.5 841,-131.5 985,-131.5 985,-112.5 841,-112.5"/>
<text text-anchor="middle" x="913" y="-119.5" font-family="Helvetica,sans-Serif" font-size="10.00">src/node/rpc/gov_effects.h</text>
</a>
</g>
</g>
<!-- Node15&#45;&gt;Node16 -->
<g id="edge18" class="edge">
<title>Node15&#45;&gt;Node16</title>
<path fill="none" stroke="midnightblue" d="M925.45,-164.16C922.16,-153.27 918.14,-139.99 915.57,-131.51"/>
<polygon fill="midnightblue" stroke="midnightblue" points="922.18,-165.42 928.42,-173.98 928.88,-163.39 922.18,-165.42"/>
</g>
<!-- Node16&#45;&gt;Node10 -->
<g id="edge19" class="edge">
<title>Node16&#45;&gt;Node10</title>
<path fill="none" stroke="midnightblue" d="M855.2,-110.66C798.12,-100.46 711.88,-85.04 658.63,-75.52"/>
<polygon fill="midnightblue" stroke="midnightblue" points="854.69,-114.13 865.15,-112.44 855.92,-107.24 854.69,-114.13"/>
</g>
<!-- Node17&#45;&gt;Node10 -->
<g id="edge21" class="edge">
<title>Node17&#45;&gt;Node10</title>
<path fill="none" stroke="midnightblue" d="M710.12,-293.02C688.73,-244.25 630.18,-110.74 614.76,-75.58"/>
<polygon fill="midnightblue" stroke="midnightblue" points="706.97,-294.56 714.19,-302.32 713.38,-291.75 706.97,-294.56"/>
</g>
<!-- Node17&#45;&gt;Node18 -->
<g id="edge22" class="edge">
<title>Node17&#45;&gt;Node18</title>
<path fill="none" stroke="midnightblue" d="M745.11,-298.2C765.47,-288.58 793.34,-275.42 814.3,-265.52"/>
<polygon fill="midnightblue" stroke="midnightblue" points="743.6,-295.04 736.05,-302.48 746.59,-301.37 743.6,-295.04"/>
</g>
<!-- Node18&#45;&gt;Node15 -->
<g id="edge23" class="edge">
<title>Node18&#45;&gt;Node15</title>
<path fill="none" stroke="midnightblue" d="M870.98,-229.34C887.22,-217.21 907.06,-202.39 919.36,-193.19"/>
<polygon fill="midnightblue" stroke="midnightblue" points="868.79,-226.61 862.88,-235.4 872.98,-232.21 868.79,-226.61"/>
</g>
<!-- Node19&#45;&gt;Node15 -->
<g id="edge26" class="edge">
<title>Node19&#45;&gt;Node15</title>
<path fill="none" stroke="midnightblue" d="M979.93,-228.67C966.64,-216.67 950.63,-202.22 940.63,-193.19"/>
<polygon fill="midnightblue" stroke="midnightblue" points="977.61,-231.29 987.38,-235.4 982.3,-226.1 977.61,-231.29"/>
</g>
<!-- Node20&#45;&gt;Node14 -->
<g id="edge28" class="edge">
<title>Node20&#45;&gt;Node14</title>
<path fill="none" stroke="midnightblue" d="M1131.41,-348.29C1131.57,-338.86 1131.74,-328.65 1131.85,-321.66"/>
<polygon fill="midnightblue" stroke="midnightblue" points="1127.91,-348.34 1131.24,-358.4 1134.9,-348.46 1127.91,-348.34"/>
</g>
<!-- Node21&#45;&gt;Node15 -->
<g id="edge31" class="edge">
<title>Node21&#45;&gt;Node15</title>
<path fill="none" stroke="midnightblue" d="M1247.54,-238.94C1240.64,-237.58 1233.65,-236.24 1227,-235 1142.05,-219.2 1043.02,-202.69 983.75,-193.01"/>
<polygon fill="midnightblue" stroke="midnightblue" points="1247.05,-242.41 1257.54,-240.93 1248.42,-235.55 1247.05,-242.41"/>
</g>
<!-- Node22&#45;&gt;Node2 -->
<g id="edge33" class="edge">
<title>Node22&#45;&gt;Node2</title>
<path fill="none" stroke="midnightblue" d="M597.41,-748.17C533.59,-742.59 437.85,-730 359,-702 319.8,-688.08 278.75,-661.81 255.38,-645.57"/>
<polygon fill="midnightblue" stroke="midnightblue" points="597.5,-751.69 607.76,-749.04 598.09,-744.72 597.5,-751.69"/>
</g>
<!-- Node22&#45;&gt;Node8 -->
<g id="edge34" class="edge">
<title>Node22&#45;&gt;Node8</title>
<path fill="none" stroke="midnightblue" d="M691.78,-738.85C726.17,-718.99 791.6,-680.69 846,-646 882.85,-622.5 925.28,-593.03 945.72,-578.67"/>
<polygon fill="midnightblue" stroke="midnightblue" points="689.86,-735.92 682.94,-743.95 693.35,-741.98 689.86,-735.92"/>
</g>
<!-- Node23 -->
<g id="node23" class="node">
<title>Node23</title>
<g id="a_node23"><a xlink:href="http__jwt_8h.html" target="_top" xlink:title=" ">
<polygon fill="white" stroke="black" points="368.5,-682.5 368.5,-701.5 473.5,-701.5 473.5,-682.5 368.5,-682.5"/>
<text text-anchor="middle" x="421" y="-689.5" font-family="Helvetica,sans-Serif" font-size="10.00">src/http/http_jwt.h</text>
</a>
</g>
</g>
<!-- Node22&#45;&gt;Node23 -->
<g id="edge35" class="edge">
<title>Node22&#45;&gt;Node23</title>
<path fill="none" stroke="midnightblue" d="M622.81,-741.61C574.87,-730.07 500.13,-712.06 456.32,-701.51"/>
<polygon fill="midnightblue" stroke="midnightblue" points="622.07,-745.04 632.61,-743.98 623.71,-738.23 622.07,-745.04"/>
</g>
<!-- Node28 -->
<g id="node28" class="node">
<title>Node28</title>
<g id="a_node28"><a xlink:href="http__rpc__context_8h.html" target="_top" xlink:title=" ">
<polygon fill="white" stroke="black" points="689.5,-621 689.5,-640 836.5,-640 836.5,-621 689.5,-621"/>
<text text-anchor="middle" x="763" y="-628" font-family="Helvetica,sans-Serif" font-size="10.00">src/http/http_rpc_context.h</text>
</a>
</g>
</g>
<!-- Node22&#45;&gt;Node28 -->
<g id="edge44" class="edge">
<title>Node22&#45;&gt;Node28</title>
<path fill="none" stroke="midnightblue" d="M681.27,-735.59C701.83,-709.41 740.61,-660.02 756.23,-640.12"/>
<polygon fill="midnightblue" stroke="midnightblue" points="678.25,-733.77 674.83,-743.8 683.76,-738.09 678.25,-733.77"/>
</g>
<!-- Node30 -->
<g id="node30" class="node">
<title>Node30</title>
<g id="a_node30"><a xlink:href="http__sig_8h.html" target="_top" xlink:title=" ">
<polygon fill="white" stroke="black" points="570,-682.5 570,-701.5 674,-701.5 674,-682.5 570,-682.5"/>
<text text-anchor="middle" x="622" y="-689.5" font-family="Helvetica,sans-Serif" font-size="10.00">src/http/http_sig.h</text>
</a>
</g>
</g>
<!-- Node22&#45;&gt;Node30 -->
<g id="edge50" class="edge">
<title>Node22&#45;&gt;Node30</title>
<path fill="none" stroke="midnightblue" d="M655.12,-735.84C646.48,-724.67 635.47,-710.43 628.58,-701.51"/>
<polygon fill="midnightblue" stroke="midnightblue" points="652.52,-738.2 661.41,-743.98 658.06,-733.92 652.52,-738.2"/>
</g>
<!-- Node24 -->
<g id="node24" class="node">
<title>Node24</title>
<g id="a_node24"><a xlink:href="jwt__auth_8cpp.html" target="_top" xlink:title=" ">
<polygon fill="white" stroke="black" points="343.5,-615.5 343.5,-645.5 498.5,-645.5 498.5,-615.5 343.5,-615.5"/>
<text text-anchor="start" x="351.5" y="-633.5" font-family="Helvetica,sans-Serif" font-size="10.00">src/endpoints/authentication</text>
<text text-anchor="middle" x="421" y="-622.5" font-family="Helvetica,sans-Serif" font-size="10.00">/jwt_auth.cpp</text>
</a>
</g>
</g>
<!-- Node23&#45;&gt;Node24 -->
<g id="edge36" class="edge">
<title>Node23&#45;&gt;Node24</title>
<path fill="none" stroke="midnightblue" d="M421,-672.23C421,-663.59 421,-653.5 421,-645.52"/>
<polygon fill="midnightblue" stroke="midnightblue" points="417.5,-672.48 421,-682.48 424.5,-672.48 417.5,-672.48"/>
</g>
<!-- Node25 -->
<g id="node25" class="node">
<title>Node25</title>
<g id="a_node25"><a xlink:href="frontend_8h.html" target="_top" xlink:title=" ">
<polygon fill="white" stroke="black" points="415.5,-364 415.5,-383 544.5,-383 544.5,-364 415.5,-364"/>
<text text-anchor="middle" x="480" y="-371" font-family="Helvetica,sans-Serif" font-size="10.00">src/node/rpc/frontend.h</text>
</a>
</g>
</g>
<!-- Node23&#45;&gt;Node25 -->
<g id="edge37" class="edge">
<title>Node23&#45;&gt;Node25</title>
<path fill="none" stroke="midnightblue" d="M380.98,-678.64C364.22,-671.58 345.91,-661.05 334,-646 312.4,-618.69 315,-604.82 315,-570 315,-570 315,-570 315,-506.5 315,-437.72 403.51,-398.88 450.88,-383.02"/>
<polygon fill="midnightblue" stroke="midnightblue" points="380.02,-682.03 390.61,-682.41 382.57,-675.51 380.02,-682.03"/>
</g>
<!-- Node25&#45;&gt;Node15 -->
<g id="edge38" class="edge">
<title>Node25&#45;&gt;Node15</title>
<path fill="none" stroke="midnightblue" d="M505.33,-359.24C555.5,-333.28 671.48,-274.81 773,-235 816.43,-217.97 868.17,-202.27 900.3,-193.04"/>
<polygon fill="midnightblue" stroke="midnightblue" points="503.45,-356.27 496.19,-363.98 506.68,-362.48 503.45,-356.27"/>
</g>
<!-- Node25&#45;&gt;Node17 -->
<g id="edge41" class="edge">
<title>Node25&#45;&gt;Node17</title>
<path fill="none" stroke="midnightblue" d="M523.84,-361.54C570.04,-349.99 641.84,-332.04 683.96,-321.51"/>
<polygon fill="midnightblue" stroke="midnightblue" points="522.95,-358.15 514.1,-363.98 524.65,-364.95 522.95,-358.15"/>
</g>
<!-- Node26 -->
<g id="node26" class="node">
<title>Node26</title>
<g id="a_node26"><a xlink:href="member__frontend_8h.html" target="_top" xlink:title=" ">
<polygon fill="white" stroke="black" points="425,-168.5 425,-198.5 545,-198.5 545,-168.5 425,-168.5"/>
<text text-anchor="start" x="433" y="-186.5" font-family="Helvetica,sans-Serif" font-size="10.00">src/node/rpc/member</text>
<text text-anchor="middle" x="485" y="-175.5" font-family="Helvetica,sans-Serif" font-size="10.00">_frontend.h</text>
</a>
</g>
</g>
<!-- Node25&#45;&gt;Node26 -->
<g id="edge39" class="edge">
<title>Node25&#45;&gt;Node26</title>
<path fill="none" stroke="midnightblue" d="M480.5,-353.88C481.49,-316.33 483.73,-232.24 484.62,-198.7"/>
<polygon fill="midnightblue" stroke="midnightblue" points="477,-353.84 480.23,-363.93 483.99,-354.03 477,-353.84"/>
</g>
<!-- Node27 -->
<g id="node27" class="node">
<title>Node27</title>
<g id="a_node27"><a xlink:href="user__frontend_8h.html" target="_top" xlink:title=" ">
<polygon fill="white" stroke="black" points="327.5,-112.5 327.5,-131.5 482.5,-131.5 482.5,-112.5 327.5,-112.5"/>
<text text-anchor="middle" x="405" y="-119.5" font-family="Helvetica,sans-Serif" font-size="10.00">src/node/rpc/user_frontend.h</text>
</a>
</g>
</g>
<!-- Node25&#45;&gt;Node27 -->
<g id="edge42" class="edge">
<title>Node25&#45;&gt;Node27</title>
<path fill="none" stroke="midnightblue" d="M471.77,-354.14C458.1,-322.92 430.77,-257.18 416,-199 409.9,-174.96 406.86,-145.74 405.65,-131.55"/>
<polygon fill="midnightblue" stroke="midnightblue" points="468.74,-355.95 475.99,-363.68 475.14,-353.12 468.74,-355.95"/>
</g>
<!-- Node26&#45;&gt;Node10 -->
<g id="edge40" class="edge">
<title>Node26&#45;&gt;Node10</title>
<path fill="none" stroke="midnightblue" d="M507.08,-160.93C521.66,-146.83 541.27,-128.1 559,-112 573.14,-99.16 589.92,-84.79 600.51,-75.82"/>
<polygon fill="midnightblue" stroke="midnightblue" points="504.29,-158.77 499.55,-168.25 509.16,-163.79 504.29,-158.77"/>
</g>
<!-- Node27&#45;&gt;Node10 -->
<g id="edge43" class="edge">
<title>Node27&#45;&gt;Node10</title>
<path fill="none" stroke="midnightblue" d="M447.62,-109.83C486.51,-99.63 543.16,-84.78 578.51,-75.52"/>
<polygon fill="midnightblue" stroke="midnightblue" points="446.43,-106.52 437.64,-112.44 448.2,-113.29 446.43,-106.52"/>
</g>
<!-- Node28&#45;&gt;Node8 -->
<g id="edge45" class="edge">
<title>Node28&#45;&gt;Node8</title>
<path fill="none" stroke="midnightblue" d="M800.6,-618.03C838.49,-606.46 896.11,-588.88 930.11,-578.51"/>
<polygon fill="midnightblue" stroke="midnightblue" points="799.48,-614.71 790.94,-620.98 801.52,-621.4 799.48,-614.71"/>
</g>
<!-- Node28&#45;&gt;Node18 -->
<g id="edge46" class="edge">
<title>Node28&#45;&gt;Node18</title>
<path fill="none" stroke="midnightblue" d="M777.76,-613.15C796.09,-591.09 825,-549.76 825,-508.5 825,-508.5 825,-508.5 825,-372.5 825,-333.37 834.82,-287.98 840.34,-265.55"/>
<polygon fill="midnightblue" stroke="midnightblue" points="774.98,-611.02 771.11,-620.88 780.28,-615.58 774.98,-611.02"/>
</g>
<!-- Node29 -->
<g id="node29" class="node">
<title>Node29</title>
<g id="a_node29"><a xlink:href="forwarder_8h.html" target="_top" xlink:title=" ">
<polygon fill="white" stroke="black" points="506,-431 506,-450 640,-450 640,-431 506,-431"/>
<text text-anchor="middle" x="573" y="-438" font-family="Helvetica,sans-Serif" font-size="10.00">src/node/rpc/forwarder.h</text>
</a>
</g>
</g>
<!-- Node28&#45;&gt;Node29 -->
<g id="edge47" class="edge">
<title>Node28&#45;&gt;Node29</title>
<path fill="none" stroke="midnightblue" d="M747.06,-613.72C708.52,-575.6 611.34,-479.43 581.71,-450.12"/>
<polygon fill="midnightblue" stroke="midnightblue" points="744.77,-616.39 754.34,-620.93 749.7,-611.41 744.77,-616.39"/>
</g>
<!-- Node29&#45;&gt;Node10 -->
<g id="edge48" class="edge">
<title>Node29&#45;&gt;Node10</title>
<path fill="none" stroke="midnightblue" d="M573,-420.8C573,-396.12 573,-351.3 573,-313 573,-313 573,-313 573,-182.5 573,-140.7 595.73,-94.47 606.03,-75.66"/>
<polygon fill="midnightblue" stroke="midnightblue" points="569.5,-420.91 573,-430.91 576.5,-420.91 569.5,-420.91"/>
</g>
<!-- Node29&#45;&gt;Node25 -->
<g id="edge49" class="edge">
<title>Node29&#45;&gt;Node25</title>
<path fill="none" stroke="midnightblue" d="M552.14,-424.92C533.75,-412.07 507.59,-393.78 492.34,-383.13"/>
<polygon fill="midnightblue" stroke="midnightblue" points="550.26,-427.87 560.46,-430.73 554.27,-422.14 550.26,-427.87"/>
</g>
<!-- Node30&#45;&gt;Node2 -->
<g id="edge51" class="edge">
<title>Node30&#45;&gt;Node2</title>
<path fill="none" stroke="midnightblue" d="M560.04,-681.45C484.12,-669.75 356.95,-650.14 286.62,-639.3"/>
<polygon fill="midnightblue" stroke="midnightblue" points="559.53,-684.91 569.94,-682.98 560.59,-677.99 559.53,-684.91"/>
</g>
<!-- Node30&#45;&gt;Node28 -->
<g id="edge53" class="edge">
<title>Node30&#45;&gt;Node28</title>
<path fill="none" stroke="midnightblue" d="M651.67,-678.48C679.05,-666.92 718.98,-650.08 742.84,-640.01"/>
<polygon fill="midnightblue" stroke="midnightblue" points="650.05,-675.36 642.2,-682.48 652.78,-681.81 650.05,-675.36"/>
</g>
<!-- Node31 -->
<g id="node31" class="node">
<title>Node31</title>
<g id="a_node31"><a xlink:href="sig__auth_8cpp.html" target="_top" xlink:title=" ">
<polygon fill="white" stroke="black" points="516.5,-615.5 516.5,-645.5 671.5,-645.5 671.5,-615.5 516.5,-615.5"/>
<text text-anchor="start" x="524.5" y="-633.5" font-family="Helvetica,sans-Serif" font-size="10.00">src/endpoints/authentication</text>
<text text-anchor="middle" x="594" y="-622.5" font-family="Helvetica,sans-Serif" font-size="10.00">/sig_auth.cpp</text>
</a>
</g>
</g>
<!-- Node30&#45;&gt;Node31 -->
<g id="edge52" class="edge">
<title>Node30&#45;&gt;Node31</title>
<path fill="none" stroke="midnightblue" d="M613.71,-673.39C609.53,-664.5 604.52,-653.86 600.6,-645.52"/>
<polygon fill="midnightblue" stroke="midnightblue" points="610.56,-674.92 617.99,-682.48 616.9,-671.94 610.56,-674.92"/>
</g>
<!-- Node32&#45;&gt;Node22 -->
<g id="edge55" class="edge">
<title>Node32&#45;&gt;Node22</title>
<path fill="none" stroke="midnightblue" d="M731.69,-799.61C715.53,-788.17 693.48,-772.55 680.01,-763.01"/>
<polygon fill="midnightblue" stroke="midnightblue" points="729.78,-802.55 739.96,-805.48 733.83,-796.84 729.78,-802.55"/>
</g>
</g>
</svg>
        <g id="navigator" transform="translate(0 0)" fill="#404254">
                <rect fill="#f2f5e9" fill-opacity="0.5" stroke="#606060" stroke-width=".5" x="0" y="0" width="60" height="60"/>
                <use id="zoomplus" xlink:href="#zoomPlus" x="17" y="9" onmousedown="handleZoom(evt,'in')"/>
                <use id="zoomminus" xlink:href="#zoomMin" x="42" y="9" onmousedown="handleZoom(evt,'out')"/>
                <use id="reset" xlink:href="#resetDef" x="30" y="36" onmousedown="handleReset()"/>
                <g id="arrowUp" xlink:href="#dirArrow" transform="translate(30 24)" onmousedown="handlePan(0,-1)">
                  <use xlink:href="#rim" fill="#404040">
                        <set attributeName="fill" to="#808080" begin="arrowUp.mouseover" end="arrowUp.mouseout"/>
                  </use>
                  <path fill="none" stroke="white" stroke-width="1.5" d="M0,-3.0v7 M-2.5,-0.5L0,-3.0L2.5,-0.5"/>
                </g>
                <g id="arrowRight" xlink:href="#dirArrow" transform="rotate(90) translate(36 -43)" onmousedown="handlePan(1,0)">
                  <use xlink:href="#rim" fill="#404040">
                        <set attributeName="fill" to="#808080" begin="arrowRight.mouseover" end="arrowRight.mouseout"/>
                  </use>
                  <path fill="none" stroke="white" stroke-width="1.5" d="M0,-3.0v7 M-2.5,-0.5L0,-3.0L2.5,-0.5"/>
                </g>
                <g id="arrowDown" xlink:href="#dirArrow" transform="rotate(180) translate(-30 -48)" onmousedown="handlePan(0,1)">
                  <use xlink:href="#rim" fill="#404040">
                        <set attributeName="fill" to="#808080" begin="arrowDown.mouseover" end="arrowDown.mouseout"/>
                  </use>
                  <path fill="none" stroke="white" stroke-width="1.5" d="M0,-3.0v7 M-2.5,-0.5L0,-3.0L2.5,-0.5"/>
                </g>
                <g id="arrowLeft" xlink:href="#dirArrow" transform="rotate(270) translate(-36 17)" onmousedown="handlePan(-1,0)">
                  <use xlink:href="#rim" fill="#404040">
                        <set attributeName="fill" to="#808080" begin="arrowLeft.mouseover" end="arrowLeft.mouseout"/>
                  </use>
                  <path fill="none" stroke="white" stroke-width="1.5" d="M0,-3.0v7 M-2.5,-0.5L0,-3.0L2.5,-0.5"/>
                </g>
        </g>
        <svg viewBox="0 0 15 15" width="100%" height="30px" preserveAspectRatio="xMaxYMin meet">
         <g id="arrow_out" transform="scale(0.3 0.3)">
          <a xlink:href="http__builder_8h__dep__incl_org.svg" target="_base">
           <rect id="button" ry="5" rx="5" y="6" x="6" height="38" width="38"
                fill="#f2f5e9" fill-opacity="0.5" stroke="#606060" stroke-width="1.0"/>
           <path id="arrow"
             d="M 11.500037,31.436501 C 11.940474,20.09759 22.043105,11.32322 32.158766,21.979434 L 37.068811,17.246167 C 37.068811,17.246167 37.088388,32 37.088388,32 L 22.160133,31.978069 C 22.160133,31.978069 26.997745,27.140456 26.997745,27.140456 C 18.528582,18.264221 13.291696,25.230495 11.500037,31.436501 z"
             style="fill:#404040;"/>
          </a>
         </g>
        </svg>
</svg>
