<?xml version="1.0" encoding="UTF-8" standalone="no"?>
<!DOCTYPE svg PUBLIC "-//W3C//DTD SVG 1.1//EN"
 "http://www.w3.org/Graphics/SVG/1.1/DTD/svg11.dtd">
<!-- Generated by graphviz version 2.43.0 (0)
 -->
<!-- Title: include/ccf/receipt.h Pages: 1 -->
<svg width="1128pt" height="386pt"
 viewBox="0.00 0.00 1127.50 386.00" xmlns="http://www.w3.org/2000/svg" xmlns:xlink="http://www.w3.org/1999/xlink">
<g id="graph0" class="graph" transform="scale(1 1) rotate(0) translate(4 382)">
<title>include/ccf/receipt.h</title>
<polygon fill="white" stroke="transparent" points="-4,4 -4,-382 1123.5,-382 1123.5,4 -4,4"/>
<!-- Node1 -->
<g id="node1" class="node">
<title>Node1</title>
<g id="a_node1"><a xlink:title=" ">
<polygon fill="#bfbfbf" stroke="black" points="782,-358.5 782,-377.5 897,-377.5 897,-358.5 782,-358.5"/>
<text text-anchor="middle" x="839.5" y="-365.5" font-family="Helvetica,sans-Serif" font-size="10.00">include/ccf/receipt.h</text>
</a>
</g>
</g>
<!-- Node2 -->
<g id="node2" class="node">
<title>Node2</title>
<g id="a_node2"><a xlink:href="pem_8h.html" target="_top" xlink:title=" ">
<polygon fill="white" stroke="black" points="839.5,-302.5 839.5,-321.5 937.5,-321.5 937.5,-302.5 839.5,-302.5"/>
<text text-anchor="middle" x="888.5" y="-309.5" font-family="Helvetica,sans-Serif" font-size="10.00">ccf/crypto/pem.h</text>
</a>
</g>
</g>
<!-- Node1&#45;&gt;Node2 -->
<g id="edge1" class="edge">
<title>Node1&#45;&gt;Node2</title>
<path fill="none" stroke="midnightblue" d="M847.59,-358.08C854.66,-350.3 865.09,-338.8 873.65,-329.37"/>
<polygon fill="midnightblue" stroke="midnightblue" points="876.43,-331.51 880.56,-321.75 871.25,-326.8 876.43,-331.51"/>
</g>
<!-- Node3 -->
<g id="node3" class="node">
<title>Node3</title>
<g id="a_node3"><a xlink:href="json_8h.html" target="_top" xlink:title=" ">
<polygon fill="white" stroke="black" points="681,-241 681,-260 758,-260 758,-241 681,-241"/>
<text text-anchor="middle" x="719.5" y="-248" font-family="Helvetica,sans-Serif" font-size="10.00">ccf/ds/json.h</text>
</a>
</g>
</g>
<!-- Node1&#45;&gt;Node3 -->
<g id="edge25" class="edge">
<title>Node1&#45;&gt;Node3</title>
<path fill="none" stroke="midnightblue" d="M830.48,-358.32C810.41,-339 761.82,-292.24 736.11,-267.48"/>
<polygon fill="midnightblue" stroke="midnightblue" points="738.26,-264.7 728.62,-260.28 733.4,-269.74 738.26,-264.7"/>
</g>
<!-- Node21 -->
<g id="node21" class="node">
<title>Node21</title>
<g id="a_node21"><a xlink:href="entity__id_8h.html" target="_top" xlink:title=" ">
<polygon fill="white" stroke="black" points="643.5,-302.5 643.5,-321.5 729.5,-321.5 729.5,-302.5 643.5,-302.5"/>
<text text-anchor="middle" x="686.5" y="-309.5" font-family="Helvetica,sans-Serif" font-size="10.00">ccf/entity_id.h</text>
</a>
</g>
</g>
<!-- Node1&#45;&gt;Node21 -->
<g id="edge26" class="edge">
<title>Node1&#45;&gt;Node21</title>
<path fill="none" stroke="midnightblue" d="M815.26,-358.44C789.63,-349.4 749.01,-335.06 720.26,-324.92"/>
<polygon fill="midnightblue" stroke="midnightblue" points="721.22,-321.54 710.63,-321.52 718.89,-328.15 721.22,-321.54"/>
</g>
<!-- Node29 -->
<g id="node29" class="node">
<title>Node29</title>
<g id="a_node29"><a xlink:title=" ">
<polygon fill="white" stroke="#bfbfbf" points="955.5,-302.5 955.5,-321.5 1011.5,-321.5 1011.5,-302.5 955.5,-302.5"/>
<text text-anchor="middle" x="983.5" y="-309.5" font-family="Helvetica,sans-Serif" font-size="10.00">optional</text>
</a>
</g>
</g>
<!-- Node1&#45;&gt;Node29 -->
<g id="edge39" class="edge">
<title>Node1&#45;&gt;Node29</title>
<path fill="none" stroke="midnightblue" d="M862.32,-358.44C886.33,-349.44 924.33,-335.19 951.37,-325.05"/>
<polygon fill="midnightblue" stroke="midnightblue" points="952.66,-328.3 960.79,-321.52 950.2,-321.75 952.66,-328.3"/>
</g>
<!-- Node2&#45;&gt;Node3 -->
<g id="edge2" class="edge">
<title>Node2&#45;&gt;Node3</title>
<path fill="none" stroke="midnightblue" d="M864.29,-302.48C835.17,-292.22 786.13,-274.96 753.3,-263.4"/>
<polygon fill="midnightblue" stroke="midnightblue" points="754.26,-260.03 743.67,-260.01 751.94,-266.63 754.26,-260.03"/>
</g>
<!-- Node6 -->
<g id="node6" class="node">
<title>Node6</title>
<g id="a_node6"><a xlink:title=" ">
<polygon fill="white" stroke="#bfbfbf" points="617,-0.5 617,-19.5 664,-19.5 664,-0.5 617,-0.5"/>
<text text-anchor="middle" x="640.5" y="-7.5" font-family="Helvetica,sans-Serif" font-size="10.00">vector</text>
</a>
</g>
</g>
<!-- Node2&#45;&gt;Node6 -->
<g id="edge24" class="edge">
<title>Node2&#45;&gt;Node6</title>
<path fill="none" stroke="midnightblue" d="M929.58,-302.43C952.97,-295.79 981.51,-284.5 1001.5,-266 1031.11,-238.59 1041.5,-224.85 1041.5,-184.5 1041.5,-184.5 1041.5,-184.5 1041.5,-121 1041.5,-45.07 770.73,-19.65 674.19,-13"/>
<polygon fill="midnightblue" stroke="midnightblue" points="674.3,-9.5 664.09,-12.33 673.83,-16.49 674.3,-9.5"/>
</g>
<!-- Node12 -->
<g id="node12" class="node">
<title>Node12</title>
<g id="a_node12"><a xlink:title=" ">
<polygon fill="white" stroke="#bfbfbf" points="788,-56.5 788,-75.5 861,-75.5 861,-56.5 788,-56.5"/>
<text text-anchor="middle" x="824.5" y="-63.5" font-family="Helvetica,sans-Serif" font-size="10.00">string_view</text>
</a>
</g>
</g>
<!-- Node2&#45;&gt;Node12 -->
<g id="edge23" class="edge">
<title>Node2&#45;&gt;Node12</title>
<path fill="none" stroke="midnightblue" d="M929.97,-302.5C950.09,-296.06 972.45,-284.95 984.5,-266 991.89,-254.37 989.33,-247.9 984.5,-235 958.09,-164.4 884.79,-107.24 847.27,-81.6"/>
<polygon fill="midnightblue" stroke="midnightblue" points="848.81,-78.42 838.55,-75.77 844.92,-84.24 848.81,-78.42"/>
</g>
<!-- Node17 -->
<g id="node17" class="node">
<title>Node17</title>
<g id="a_node17"><a xlink:title=" ">
<polygon fill="white" stroke="#bfbfbf" points="1069.5,-241 1069.5,-260 1119.5,-260 1119.5,-241 1069.5,-241"/>
<text text-anchor="middle" x="1094.5" y="-248" font-family="Helvetica,sans-Serif" font-size="10.00">cstring</text>
</a>
</g>
</g>
<!-- Node2&#45;&gt;Node17 -->
<g id="edge19" class="edge">
<title>Node2&#45;&gt;Node17</title>
<path fill="none" stroke="midnightblue" d="M923.96,-302.46C957.96,-294.03 1010.6,-280.36 1055.5,-266 1057.91,-265.23 1060.39,-264.4 1062.87,-263.54"/>
<polygon fill="midnightblue" stroke="midnightblue" points="1064.12,-266.81 1072.35,-260.14 1061.76,-260.22 1064.12,-266.81"/>
</g>
<!-- Node18 -->
<g id="node18" class="node">
<title>Node18</title>
<g id="a_node18"><a xlink:title=" ">
<polygon fill="white" stroke="#bfbfbf" points="776,-241 776,-260 841,-260 841,-241 776,-241"/>
<text text-anchor="middle" x="808.5" y="-248" font-family="Helvetica,sans-Serif" font-size="10.00">exception</text>
</a>
</g>
</g>
<!-- Node2&#45;&gt;Node18 -->
<g id="edge20" class="edge">
<title>Node2&#45;&gt;Node18</title>
<path fill="none" stroke="midnightblue" d="M877.04,-302.48C864.33,-293.02 843.59,-277.6 828.25,-266.19"/>
<polygon fill="midnightblue" stroke="midnightblue" points="830.05,-263.17 819.94,-260.01 825.88,-268.79 830.05,-263.17"/>
</g>
<!-- Node19 -->
<g id="node19" class="node">
<title>Node19</title>
<g id="a_node19"><a xlink:title=" ">
<polygon fill="white" stroke="#bfbfbf" points="859.5,-241 859.5,-260 917.5,-260 917.5,-241 859.5,-241"/>
<text text-anchor="middle" x="888.5" y="-248" font-family="Helvetica,sans-Serif" font-size="10.00">memory</text>
</a>
</g>
</g>
<!-- Node2&#45;&gt;Node19 -->
<g id="edge21" class="edge">
<title>Node2&#45;&gt;Node19</title>
<path fill="none" stroke="midnightblue" d="M888.5,-302.48C888.5,-294.08 888.5,-280.98 888.5,-270.16"/>
<polygon fill="midnightblue" stroke="midnightblue" points="892,-270.01 888.5,-260.01 885,-270.01 892,-270.01"/>
</g>
<!-- Node20 -->
<g id="node20" class="node">
<title>Node20</title>
<g id="a_node20"><a xlink:title=" ">
<polygon fill="white" stroke="#bfbfbf" points="935.5,-241 935.5,-260 975.5,-260 975.5,-241 935.5,-241"/>
<text text-anchor="middle" x="955.5" y="-248" font-family="Helvetica,sans-Serif" font-size="10.00">span</text>
</a>
</g>
</g>
<!-- Node2&#45;&gt;Node20 -->
<g id="edge22" class="edge">
<title>Node2&#45;&gt;Node20</title>
<path fill="none" stroke="midnightblue" d="M898.1,-302.48C908.55,-293.2 925.47,-278.17 938.24,-266.83"/>
<polygon fill="midnightblue" stroke="midnightblue" points="940.77,-269.27 945.92,-260.01 936.12,-264.03 940.77,-269.27"/>
</g>
<!-- Node4 -->
<g id="node4" class="node">
<title>Node4</title>
<g id="a_node4"><a xlink:href="include_2ccf_2crypto_2base64_8h.html" target="_top" xlink:title=" ">
<polygon fill="white" stroke="black" points="756.5,-112.5 756.5,-131.5 868.5,-131.5 868.5,-112.5 756.5,-112.5"/>
<text text-anchor="middle" x="812.5" y="-119.5" font-family="Helvetica,sans-Serif" font-size="10.00">ccf/crypto/base64.h</text>
</a>
</g>
</g>
<!-- Node3&#45;&gt;Node4 -->
<g id="edge3" class="edge">
<title>Node3&#45;&gt;Node4</title>
<path fill="none" stroke="midnightblue" d="M734.63,-240.89C748.98,-232.03 770.26,-217.02 783.5,-199 796.27,-181.62 804.13,-157.92 808.39,-141.63"/>
<polygon fill="midnightblue" stroke="midnightblue" points="811.84,-142.25 810.78,-131.71 805.03,-140.61 811.84,-142.25"/>
</g>
<!-- Node7 -->
<g id="node7" class="node">
<title>Node7</title>
<g id="a_node7"><a xlink:href="include_2ccf_2ds_2json__schema_8h.html" target="_top" xlink:title=" ">
<polygon fill="white" stroke="black" points="491,-174 491,-193 612,-193 612,-174 491,-174"/>
<text text-anchor="middle" x="551.5" y="-181" font-family="Helvetica,sans-Serif" font-size="10.00">ccf/ds/json_schema.h</text>
</a>
</g>
</g>
<!-- Node3&#45;&gt;Node7 -->
<g id="edge6" class="edge">
<title>Node3&#45;&gt;Node7</title>
<path fill="none" stroke="midnightblue" d="M697.19,-240.87C667.99,-229.57 616.62,-209.7 583.34,-196.82"/>
<polygon fill="midnightblue" stroke="midnightblue" points="584.22,-193.41 573.63,-193.06 581.7,-199.94 584.22,-193.41"/>
</g>
<!-- Node14 -->
<g id="node14" class="node">
<title>Node14</title>
<g id="a_node14"><a xlink:title=" ">
<polygon fill="white" stroke="#bfbfbf" points="629,-56.5 629,-75.5 708,-75.5 708,-56.5 629,-56.5"/>
<text text-anchor="middle" x="668.5" y="-63.5" font-family="Helvetica,sans-Serif" font-size="10.00">fmt/format.h</text>
</a>
</g>
</g>
<!-- Node3&#45;&gt;Node14 -->
<g id="edge17" class="edge">
<title>Node3&#45;&gt;Node14</title>
<path fill="none" stroke="midnightblue" d="M717.04,-240.7C709.18,-212.57 684.56,-124.46 673.71,-85.66"/>
<polygon fill="midnightblue" stroke="midnightblue" points="677,-84.4 670.94,-75.71 670.26,-86.29 677,-84.4"/>
</g>
<!-- Node16 -->
<g id="node16" class="node">
<title>Node16</title>
<g id="a_node16"><a xlink:title=" ">
<polygon fill="white" stroke="#bfbfbf" points="718.5,-174 718.5,-193 774.5,-193 774.5,-174 718.5,-174"/>
<text text-anchor="middle" x="746.5" y="-181" font-family="Helvetica,sans-Serif" font-size="10.00">sstream</text>
</a>
</g>
</g>
<!-- Node3&#45;&gt;Node16 -->
<g id="edge18" class="edge">
<title>Node3&#45;&gt;Node16</title>
<path fill="none" stroke="midnightblue" d="M723.14,-240.73C727.19,-230.99 733.84,-214.98 739.01,-202.53"/>
<polygon fill="midnightblue" stroke="midnightblue" points="742.31,-203.7 742.92,-193.13 735.85,-201.02 742.31,-203.7"/>
</g>
<!-- Node5 -->
<g id="node5" class="node">
<title>Node5</title>
<g id="a_node5"><a xlink:title=" ">
<polygon fill="white" stroke="#bfbfbf" points="725.5,-56.5 725.5,-75.5 769.5,-75.5 769.5,-56.5 725.5,-56.5"/>
<text text-anchor="middle" x="747.5" y="-63.5" font-family="Helvetica,sans-Serif" font-size="10.00">string</text>
</a>
</g>
</g>
<!-- Node4&#45;&gt;Node5 -->
<g id="edge4" class="edge">
<title>Node4&#45;&gt;Node5</title>
<path fill="none" stroke="midnightblue" d="M802.06,-112.32C792.35,-104.26 777.68,-92.08 766,-82.37"/>
<polygon fill="midnightblue" stroke="midnightblue" points="768.06,-79.53 758.13,-75.83 763.59,-84.92 768.06,-79.53"/>
</g>
<!-- Node4&#45;&gt;Node6 -->
<g id="edge5" class="edge">
<title>Node4&#45;&gt;Node6</title>
<path fill="none" stroke="midnightblue" d="M829.88,-112.32C852.29,-100 886.47,-76.63 869.5,-56 845.15,-26.4 731.68,-15.97 674.14,-12.55"/>
<polygon fill="midnightblue" stroke="midnightblue" points="674.27,-9.05 664.09,-11.98 673.88,-16.04 674.27,-9.05"/>
</g>
<!-- Node8 -->
<g id="node8" class="node">
<title>Node8</title>
<g id="a_node8"><a xlink:href="nonstd_8h.html" target="_top" xlink:title=" ">
<polygon fill="white" stroke="black" points="406.5,-112.5 406.5,-131.5 496.5,-131.5 496.5,-112.5 406.5,-112.5"/>
<text text-anchor="middle" x="451.5" y="-119.5" font-family="Helvetica,sans-Serif" font-size="10.00">ccf/ds/nonstd.h</text>
</a>
</g>
</g>
<!-- Node7&#45;&gt;Node8 -->
<g id="edge7" class="edge">
<title>Node7&#45;&gt;Node8</title>
<path fill="none" stroke="midnightblue" d="M537.17,-173.98C520.84,-164.25 493.9,-148.23 474.59,-136.74"/>
<polygon fill="midnightblue" stroke="midnightblue" points="476.18,-133.61 465.8,-131.51 472.61,-139.63 476.18,-133.61"/>
</g>
<!-- Node7&#45;&gt;Node14 -->
<g id="edge15" class="edge">
<title>Node7&#45;&gt;Node14</title>
<path fill="none" stroke="midnightblue" d="M547.08,-173.77C540.52,-159.47 530.33,-130.75 543.5,-112 552.8,-98.76 589.46,-86.52 620.69,-78.15"/>
<polygon fill="midnightblue" stroke="midnightblue" points="621.8,-81.48 630.6,-75.58 620.04,-74.71 621.8,-81.48"/>
</g>
<!-- Node15 -->
<g id="node15" class="node">
<title>Node15</title>
<g id="a_node15"><a xlink:title=" ">
<polygon fill="white" stroke="#bfbfbf" points="552.5,-112.5 552.5,-131.5 662.5,-131.5 662.5,-112.5 552.5,-112.5"/>
<text text-anchor="middle" x="607.5" y="-119.5" font-family="Helvetica,sans-Serif" font-size="10.00">nlohmann/json.hpp</text>
</a>
</g>
</g>
<!-- Node7&#45;&gt;Node15 -->
<g id="edge16" class="edge">
<title>Node7&#45;&gt;Node15</title>
<path fill="none" stroke="midnightblue" d="M559.52,-173.98C568.09,-164.87 581.86,-150.24 592.46,-138.98"/>
<polygon fill="midnightblue" stroke="midnightblue" points="595.19,-141.19 599.49,-131.51 590.09,-136.39 595.19,-141.19"/>
</g>
<!-- Node8&#45;&gt;Node5 -->
<g id="edge11" class="edge">
<title>Node8&#45;&gt;Node5</title>
<path fill="none" stroke="midnightblue" d="M496.82,-114.91C547.77,-107.72 633.09,-94.6 715.23,-76.08"/>
<polygon fill="midnightblue" stroke="midnightblue" points="716.26,-79.44 725.23,-73.8 714.7,-72.61 716.26,-79.44"/>
</g>
<!-- Node8&#45;&gt;Node6 -->
<g id="edge14" class="edge">
<title>Node8&#45;&gt;Node6</title>
<path fill="none" stroke="midnightblue" d="M439.05,-112.33C422,-99.42 395.15,-74.64 410.5,-56 434.97,-26.28 548.92,-15.91 606.71,-12.52"/>
<polygon fill="midnightblue" stroke="midnightblue" points="607.02,-16.01 616.81,-11.97 606.63,-9.02 607.02,-16.01"/>
</g>
<!-- Node9 -->
<g id="node9" class="node">
<title>Node9</title>
<g id="a_node9"><a xlink:title=" ">
<polygon fill="white" stroke="#bfbfbf" points="419.5,-56.5 419.5,-75.5 483.5,-75.5 483.5,-56.5 419.5,-56.5"/>
<text text-anchor="middle" x="451.5" y="-63.5" font-family="Helvetica,sans-Serif" font-size="10.00">algorithm</text>
</a>
</g>
</g>
<!-- Node8&#45;&gt;Node9 -->
<g id="edge8" class="edge">
<title>Node8&#45;&gt;Node9</title>
<path fill="none" stroke="midnightblue" d="M451.5,-112.08C451.5,-105.01 451.5,-94.86 451.5,-85.99"/>
<polygon fill="midnightblue" stroke="midnightblue" points="455,-85.75 451.5,-75.75 448,-85.75 455,-85.75"/>
</g>
<!-- Node10 -->
<g id="node10" class="node">
<title>Node10</title>
<g id="a_node10"><a xlink:title=" ">
<polygon fill="white" stroke="#bfbfbf" points="501.5,-56.5 501.5,-75.5 543.5,-75.5 543.5,-56.5 501.5,-56.5"/>
<text text-anchor="middle" x="522.5" y="-63.5" font-family="Helvetica,sans-Serif" font-size="10.00">array</text>
</a>
</g>
</g>
<!-- Node8&#45;&gt;Node10 -->
<g id="edge9" class="edge">
<title>Node8&#45;&gt;Node10</title>
<path fill="none" stroke="midnightblue" d="M462.91,-112.32C473.61,-104.18 489.84,-91.84 502.66,-82.09"/>
<polygon fill="midnightblue" stroke="midnightblue" points="505.04,-84.67 510.89,-75.83 500.81,-79.1 505.04,-84.67"/>
</g>
<!-- Node11 -->
<g id="node11" class="node">
<title>Node11</title>
<g id="a_node11"><a xlink:title=" ">
<polygon fill="white" stroke="#bfbfbf" points="562,-56.5 562,-75.5 611,-75.5 611,-56.5 562,-56.5"/>
<text text-anchor="middle" x="586.5" y="-63.5" font-family="Helvetica,sans-Serif" font-size="10.00">cctype</text>
</a>
</g>
</g>
<!-- Node8&#45;&gt;Node11 -->
<g id="edge10" class="edge">
<title>Node8&#45;&gt;Node11</title>
<path fill="none" stroke="midnightblue" d="M472.89,-112.44C495.21,-103.52 530.4,-89.44 555.71,-79.32"/>
<polygon fill="midnightblue" stroke="midnightblue" points="557.22,-82.48 565.21,-75.52 554.62,-75.98 557.22,-82.48"/>
</g>
<!-- Node8&#45;&gt;Node12 -->
<g id="edge12" class="edge">
<title>Node8&#45;&gt;Node12</title>
<path fill="none" stroke="midnightblue" d="M496.58,-115.61C557.85,-108.11 671.05,-93.62 777.89,-76.02"/>
<polygon fill="midnightblue" stroke="midnightblue" points="778.58,-79.45 787.88,-74.36 777.44,-72.54 778.58,-79.45"/>
</g>
<!-- Node13 -->
<g id="node13" class="node">
<title>Node13</title>
<g id="a_node13"><a xlink:title=" ">
<polygon fill="white" stroke="#bfbfbf" points="294,-56.5 294,-75.5 363,-75.5 363,-56.5 294,-56.5"/>
<text text-anchor="middle" x="328.5" y="-63.5" font-family="Helvetica,sans-Serif" font-size="10.00">type_traits</text>
</a>
</g>
</g>
<!-- Node8&#45;&gt;Node13 -->
<g id="edge13" class="edge">
<title>Node8&#45;&gt;Node13</title>
<path fill="none" stroke="midnightblue" d="M432.01,-112.44C411.86,-103.6 380.18,-89.69 357.17,-79.59"/>
<polygon fill="midnightblue" stroke="midnightblue" points="358.46,-76.33 347.9,-75.52 355.65,-82.74 358.46,-76.33"/>
</g>
<!-- Node21&#45;&gt;Node3 -->
<g id="edge27" class="edge">
<title>Node21&#45;&gt;Node3</title>
<path fill="none" stroke="midnightblue" d="M691.23,-302.48C696.08,-293.73 703.77,-279.87 709.9,-268.81"/>
<polygon fill="midnightblue" stroke="midnightblue" points="712.99,-270.45 714.78,-260.01 706.87,-267.06 712.99,-270.45"/>
</g>
<!-- Node21&#45;&gt;Node5 -->
<g id="edge38" class="edge">
<title>Node21&#45;&gt;Node5</title>
<path fill="none" stroke="midnightblue" d="M682.37,-302.09C676.31,-287.87 666.28,-259.19 671.5,-235 684.11,-176.52 718.81,-113.9 736.63,-84.34"/>
<polygon fill="midnightblue" stroke="midnightblue" points="739.72,-85.99 741.97,-75.64 733.75,-82.33 739.72,-85.99"/>
</g>
<!-- Node22 -->
<g id="node22" class="node">
<title>Node22</title>
<g id="a_node22"><a xlink:href="blit__serialiser_8h.html" target="_top" xlink:title=" ">
<polygon fill="white" stroke="black" points="402,-235.5 402,-265.5 501,-265.5 501,-235.5 402,-235.5"/>
<text text-anchor="start" x="410" y="-253.5" font-family="Helvetica,sans-Serif" font-size="10.00">ccf/kv/serialisers</text>
<text text-anchor="middle" x="451.5" y="-242.5" font-family="Helvetica,sans-Serif" font-size="10.00">/blit_serialiser.h</text>
</a>
</g>
</g>
<!-- Node21&#45;&gt;Node22 -->
<g id="edge28" class="edge">
<title>Node21&#45;&gt;Node22</title>
<path fill="none" stroke="midnightblue" d="M652.83,-302.48C615.9,-293.12 555.91,-277.94 511.01,-266.57"/>
<polygon fill="midnightblue" stroke="midnightblue" points="511.65,-263.12 501.1,-264.06 509.93,-269.91 511.65,-263.12"/>
</g>
<!-- Node22&#45;&gt;Node8 -->
<g id="edge29" class="edge">
<title>Node22&#45;&gt;Node8</title>
<path fill="none" stroke="midnightblue" d="M451.5,-235.48C451.5,-212.72 451.5,-167.7 451.5,-142.06"/>
<polygon fill="midnightblue" stroke="midnightblue" points="455,-141.79 451.5,-131.79 448,-141.79 455,-141.79"/>
</g>
<!-- Node23 -->
<g id="node23" class="node">
<title>Node23</title>
<g id="a_node23"><a xlink:href="serialised__entry_8h.html" target="_top" xlink:title=" ">
<polygon fill="white" stroke="black" points="268,-168.5 268,-198.5 373,-198.5 373,-168.5 268,-168.5"/>
<text text-anchor="start" x="276" y="-186.5" font-family="Helvetica,sans-Serif" font-size="10.00">ccf/kv/serialisers</text>
<text text-anchor="middle" x="320.5" y="-175.5" font-family="Helvetica,sans-Serif" font-size="10.00">/serialised_entry.h</text>
</a>
</g>
</g>
<!-- Node22&#45;&gt;Node23 -->
<g id="edge30" class="edge">
<title>Node22&#45;&gt;Node23</title>
<path fill="none" stroke="midnightblue" d="M423.07,-235.4C404.02,-225.94 378.72,-213.39 358.02,-203.12"/>
<polygon fill="midnightblue" stroke="midnightblue" points="359.38,-199.89 348.87,-198.58 356.27,-206.16 359.38,-199.89"/>
</g>
<!-- Node24 -->
<g id="node24" class="node">
<title>Node24</title>
<g id="a_node24"><a xlink:href="byte__vector_8h.html" target="_top" xlink:title=" ">
<polygon fill="white" stroke="black" points="220.5,-112.5 220.5,-131.5 320.5,-131.5 320.5,-112.5 220.5,-112.5"/>
<text text-anchor="middle" x="270.5" y="-119.5" font-family="Helvetica,sans-Serif" font-size="10.00">ccf/byte_vector.h</text>
</a>
</g>
</g>
<!-- Node23&#45;&gt;Node24 -->
<g id="edge31" class="edge">
<title>Node23&#45;&gt;Node24</title>
<path fill="none" stroke="midnightblue" d="M308.65,-168.4C301.39,-159.75 292.05,-148.64 284.43,-139.58"/>
<polygon fill="midnightblue" stroke="midnightblue" points="286.89,-137.06 277.78,-131.66 281.53,-141.57 286.89,-137.06"/>
</g>
<!-- Node24&#45;&gt;Node14 -->
<g id="edge36" class="edge">
<title>Node24&#45;&gt;Node14</title>
<path fill="none" stroke="midnightblue" d="M320.61,-115.39C386.51,-107.83 506.15,-93.44 618.77,-76.04"/>
<polygon fill="midnightblue" stroke="midnightblue" points="619.61,-79.45 628.95,-74.45 618.53,-72.53 619.61,-79.45"/>
</g>
<!-- Node25 -->
<g id="node25" class="node">
<title>Node25</title>
<g id="a_node25"><a xlink:href="siphash_8h.html" target="_top" xlink:title=" ">
<polygon fill="white" stroke="black" points="14,-56.5 14,-75.5 109,-75.5 109,-56.5 14,-56.5"/>
<text text-anchor="middle" x="61.5" y="-63.5" font-family="Helvetica,sans-Serif" font-size="10.00">ccf/ds/siphash.h</text>
</a>
</g>
</g>
<!-- Node24&#45;&gt;Node25 -->
<g id="edge32" class="edge">
<title>Node24&#45;&gt;Node25</title>
<path fill="none" stroke="midnightblue" d="M237.38,-112.44C201.38,-103.14 143.73,-88.25 104.31,-78.06"/>
<polygon fill="midnightblue" stroke="midnightblue" points="105.02,-74.63 94.46,-75.52 103.27,-81.41 105.02,-74.63"/>
</g>
<!-- Node28 -->
<g id="node28" class="node">
<title>Node28</title>
<g id="a_node28"><a xlink:title=" ">
<polygon fill="white" stroke="#bfbfbf" points="127,-56.5 127,-75.5 276,-75.5 276,-56.5 127,-56.5"/>
<text text-anchor="middle" x="201.5" y="-63.5" font-family="Helvetica,sans-Serif" font-size="10.00">small_vector/SmallVector.h</text>
</a>
</g>
</g>
<!-- Node24&#45;&gt;Node28 -->
<g id="edge37" class="edge">
<title>Node24&#45;&gt;Node28</title>
<path fill="none" stroke="midnightblue" d="M259.41,-112.32C249.01,-104.18 233.24,-91.84 220.78,-82.09"/>
<polygon fill="midnightblue" stroke="midnightblue" points="222.82,-79.24 212.79,-75.83 218.51,-84.75 222.82,-79.24"/>
</g>
<!-- Node25&#45;&gt;Node6 -->
<g id="edge35" class="edge">
<title>Node25&#45;&gt;Node6</title>
<path fill="none" stroke="midnightblue" d="M109.12,-57.1C111.96,-56.71 114.76,-56.34 117.5,-56 301.64,-33.31 523.65,-18.25 606.85,-13.03"/>
<polygon fill="midnightblue" stroke="midnightblue" points="607.21,-16.52 616.98,-12.41 606.78,-9.53 607.21,-16.52"/>
</g>
<!-- Node26 -->
<g id="node26" class="node">
<title>Node26</title>
<g id="a_node26"><a xlink:title=" ">
<polygon fill="white" stroke="#bfbfbf" points="0,-0.5 0,-19.5 53,-19.5 53,-0.5 0,-0.5"/>
<text text-anchor="middle" x="26.5" y="-7.5" font-family="Helvetica,sans-Serif" font-size="10.00">cstddef</text>
</a>
</g>
</g>
<!-- Node25&#45;&gt;Node26 -->
<g id="edge33" class="edge">
<title>Node25&#45;&gt;Node26</title>
<path fill="none" stroke="midnightblue" d="M55.72,-56.08C50.83,-48.53 43.67,-37.49 37.67,-28.23"/>
<polygon fill="midnightblue" stroke="midnightblue" points="40.55,-26.24 32.17,-19.75 34.67,-30.05 40.55,-26.24"/>
</g>
<!-- Node27 -->
<g id="node27" class="node">
<title>Node27</title>
<g id="a_node27"><a xlink:title=" ">
<polygon fill="white" stroke="#bfbfbf" points="71.5,-0.5 71.5,-19.5 121.5,-19.5 121.5,-0.5 71.5,-0.5"/>
<text text-anchor="middle" x="96.5" y="-7.5" font-family="Helvetica,sans-Serif" font-size="10.00">cstdint</text>
</a>
</g>
</g>
<!-- Node25&#45;&gt;Node27 -->
<g id="edge34" class="edge">
<title>Node25&#45;&gt;Node27</title>
<path fill="none" stroke="midnightblue" d="M67.28,-56.08C72.17,-48.53 79.33,-37.49 85.33,-28.23"/>
<polygon fill="midnightblue" stroke="midnightblue" points="88.33,-30.05 90.83,-19.75 82.45,-26.24 88.33,-30.05"/>
</g>
</g>
</svg>
