<?xml version="1.0" encoding="UTF-8" standalone="no"?>
<!DOCTYPE svg PUBLIC "-//W3C//DTD SVG 1.1//EN"
 "http://www.w3.org/Graphics/SVG/1.1/DTD/svg11.dtd">
<!-- Generated by graphviz version 2.43.0 (0)
 -->
<!-- Title: Graphical Class Hierarchy Pages: 1 -->
<svg width="905pt" height="2063pt"
 viewBox="0.00 0.00 905.00 2063.00" xmlns="http://www.w3.org/2000/svg" xmlns:xlink="http://www.w3.org/1999/xlink">
<g id="graph0" class="graph" transform="scale(1 1) rotate(0) translate(4 2059)">
<title>Graphical Class Hierarchy</title>
<polygon fill="white" stroke="transparent" points="-4,4 -4,-2059 901,-2059 901,4 -4,4"/>
<!-- Node0 -->
<g id="node1" class="node">
<title>Node0</title>
<g id="a_node1"><a xlink:href="classccf_1_1AbstractRPCResponder.html" target="_top" xlink:title=" ">
<polygon fill="white" stroke="black" points="0,-1989.5 0,-2008.5 148,-2008.5 148,-1989.5 0,-1989.5"/>
<text text-anchor="middle" x="74" y="-1996.5" font-family="Helvetica,sans-Serif" font-size="10.00">ccf::AbstractRPCResponder</text>
</a>
</g>
</g>
<!-- Node1 -->
<g id="node2" class="node">
<title>Node1</title>
<g id="a_node2"><a xlink:href="classccf_1_1RPCSessions.html" target="_top" xlink:title=" ">
<polygon fill="white" stroke="black" points="233.5,-1959.5 233.5,-1978.5 331.5,-1978.5 331.5,-1959.5 233.5,-1959.5"/>
<text text-anchor="middle" x="282.5" y="-1966.5" font-family="Helvetica,sans-Serif" font-size="10.00">ccf::RPCSessions</text>
</a>
</g>
</g>
<!-- Node0&#45;&gt;Node1 -->
<g id="edge1" class="edge">
<title>Node0&#45;&gt;Node1</title>
<path fill="none" stroke="midnightblue" d="M150.66,-1988.01C178.32,-1983.99 208.82,-1979.56 233.41,-1975.99"/>
<polygon fill="midnightblue" stroke="midnightblue" points="150.01,-1984.57 140.62,-1989.47 151.02,-1991.49 150.01,-1984.57"/>
</g>
<!-- Node7 -->
<g id="node3" class="node">
<title>Node7</title>
<g id="a_node3"><a xlink:href="classccf_1_1ClientEndpoint.html" target="_top" xlink:title=" ">
<polygon fill="white" stroke="black" points="569,-1959.5 569,-1978.5 676,-1978.5 676,-1959.5 569,-1959.5"/>
<text text-anchor="middle" x="622.5" y="-1966.5" font-family="Helvetica,sans-Serif" font-size="10.00">ccf::ClientEndpoint</text>
</a>
</g>
</g>
<!-- Node6 -->
<g id="node4" class="node">
<title>Node6</title>
<g id="a_node4"><a xlink:href="classhttp_1_1HTTPClientEndpoint.html" target="_top" xlink:title=" ">
<polygon fill="white" stroke="black" points="742.5,-1959.5 742.5,-1978.5 881.5,-1978.5 881.5,-1959.5 742.5,-1959.5"/>
<text text-anchor="middle" x="812" y="-1966.5" font-family="Helvetica,sans-Serif" font-size="10.00">http::HTTPClientEndpoint</text>
</a>
</g>
</g>
<!-- Node7&#45;&gt;Node6 -->
<g id="edge2" class="edge">
<title>Node7&#45;&gt;Node6</title>
<path fill="none" stroke="midnightblue" d="M686.29,-1969C704.25,-1969 723.91,-1969 742.21,-1969"/>
<polygon fill="midnightblue" stroke="midnightblue" points="686.23,-1965.5 676.23,-1969 686.23,-1972.5 686.23,-1965.5"/>
</g>
<!-- Node2 -->
<g id="node5" class="node">
<title>Node2</title>
<g id="a_node5"><a xlink:title=" ">
<polygon fill="white" stroke="#bfbfbf" points="19.5,-1886 19.5,-1916 128.5,-1916 128.5,-1886 19.5,-1886"/>
<text text-anchor="start" x="27.5" y="-1904" font-family="Helvetica,sans-Serif" font-size="10.00">std::enable_shared</text>
<text text-anchor="middle" x="74" y="-1893" font-family="Helvetica,sans-Serif" font-size="10.00">_from_this</text>
</a>
</g>
</g>
<!-- Node2&#45;&gt;Node1 -->
<g id="edge8" class="edge">
<title>Node2&#45;&gt;Node1</title>
<path fill="none" stroke="midnightblue" d="M112.93,-1920.65C133.5,-1930.64 159.65,-1942.27 184,-1950 199.78,-1955.01 217.44,-1958.93 233.34,-1961.88"/>
<polygon fill="midnightblue" stroke="midnightblue" points="114.41,-1917.47 103.89,-1916.19 111.31,-1923.75 114.41,-1917.47"/>
</g>
<!-- Node3 -->
<g id="node6" class="node">
<title>Node3</title>
<g id="a_node6"><a xlink:href="classccf_1_1Endpoint.html" target="_top" xlink:title=" ">
<polygon fill="white" stroke="black" points="243,-1921.5 243,-1940.5 322,-1940.5 322,-1921.5 243,-1921.5"/>
<text text-anchor="middle" x="282.5" y="-1928.5" font-family="Helvetica,sans-Serif" font-size="10.00">ccf::Endpoint</text>
</a>
</g>
</g>
<!-- Node2&#45;&gt;Node3 -->
<g id="edge3" class="edge">
<title>Node2&#45;&gt;Node3</title>
<path fill="none" stroke="midnightblue" d="M139.02,-1910.3C172.97,-1915.23 213.57,-1921.13 242.73,-1925.37"/>
<polygon fill="midnightblue" stroke="midnightblue" points="139.12,-1906.78 128.72,-1908.8 138.11,-1913.71 139.12,-1906.78"/>
</g>
<!-- Node15 -->
<g id="node10" class="node">
<title>Node15</title>
<g id="a_node10"><a xlink:href="classccf_1_1Snapshotter.html" target="_top" xlink:title=" ">
<polygon fill="white" stroke="black" points="235,-1883.5 235,-1902.5 330,-1902.5 330,-1883.5 235,-1883.5"/>
<text text-anchor="middle" x="282.5" y="-1890.5" font-family="Helvetica,sans-Serif" font-size="10.00">ccf::Snapshotter</text>
</a>
</g>
</g>
<!-- Node2&#45;&gt;Node15 -->
<g id="edge9" class="edge">
<title>Node2&#45;&gt;Node15</title>
<path fill="none" stroke="midnightblue" d="M138.98,-1898.52C169.93,-1897.32 206.42,-1895.91 234.72,-1894.81"/>
<polygon fill="midnightblue" stroke="midnightblue" points="138.57,-1895.03 128.72,-1898.92 138.84,-1902.03 138.57,-1895.03"/>
</g>
<!-- Node16 -->
<g id="node11" class="node">
<title>Node16</title>
<g id="a_node11"><a xlink:href="classkv_1_1AbstractMap.html" target="_top" xlink:title=" ">
<polygon fill="white" stroke="black" points="235,-1845.5 235,-1864.5 330,-1864.5 330,-1845.5 235,-1845.5"/>
<text text-anchor="middle" x="282.5" y="-1852.5" font-family="Helvetica,sans-Serif" font-size="10.00">kv::AbstractMap</text>
</a>
</g>
</g>
<!-- Node2&#45;&gt;Node16 -->
<g id="edge10" class="edge">
<title>Node2&#45;&gt;Node16</title>
<path fill="none" stroke="midnightblue" d="M138.74,-1884.64C153.56,-1880.99 169.31,-1877.25 184,-1874 200.5,-1870.35 218.66,-1866.71 234.78,-1863.61"/>
<polygon fill="midnightblue" stroke="midnightblue" points="137.52,-1881.34 128.65,-1887.14 139.2,-1888.13 137.52,-1881.34"/>
</g>
<!-- Node4 -->
<g id="node7" class="node">
<title>Node4</title>
<g id="a_node7"><a xlink:href="classccf_1_1TLSEndpoint.html" target="_top" xlink:title=" ">
<polygon fill="white" stroke="black" points="419.5,-1921.5 419.5,-1940.5 515.5,-1940.5 515.5,-1921.5 419.5,-1921.5"/>
<text text-anchor="middle" x="467.5" y="-1928.5" font-family="Helvetica,sans-Serif" font-size="10.00">ccf::TLSEndpoint</text>
</a>
</g>
</g>
<!-- Node3&#45;&gt;Node4 -->
<g id="edge4" class="edge">
<title>Node3&#45;&gt;Node4</title>
<path fill="none" stroke="midnightblue" d="M332.66,-1931C359.56,-1931 392.72,-1931 419.3,-1931"/>
<polygon fill="midnightblue" stroke="midnightblue" points="332.31,-1927.5 322.31,-1931 332.31,-1934.5 332.31,-1927.5"/>
</g>
<!-- Node5 -->
<g id="node8" class="node">
<title>Node5</title>
<g id="a_node8"><a xlink:href="classhttp_1_1HTTPEndpoint.html" target="_top" xlink:title=" ">
<polygon fill="white" stroke="black" points="567.5,-1921.5 567.5,-1940.5 677.5,-1940.5 677.5,-1921.5 567.5,-1921.5"/>
<text text-anchor="middle" x="622.5" y="-1928.5" font-family="Helvetica,sans-Serif" font-size="10.00">http::HTTPEndpoint</text>
</a>
</g>
</g>
<!-- Node4&#45;&gt;Node5 -->
<g id="edge5" class="edge">
<title>Node4&#45;&gt;Node5</title>
<path fill="none" stroke="midnightblue" d="M525.83,-1931C539.41,-1931 553.84,-1931 567.27,-1931"/>
<polygon fill="midnightblue" stroke="midnightblue" points="525.65,-1927.5 515.65,-1931 525.65,-1934.5 525.65,-1927.5"/>
</g>
<!-- Node5&#45;&gt;Node6 -->
<g id="edge6" class="edge">
<title>Node5&#45;&gt;Node6</title>
<path fill="none" stroke="midnightblue" d="M680.78,-1942.61C707.45,-1948.01 738.78,-1954.36 764.03,-1959.48"/>
<polygon fill="midnightblue" stroke="midnightblue" points="681.31,-1939.15 670.81,-1940.59 679.92,-1946.01 681.31,-1939.15"/>
</g>
<!-- Node12 -->
<g id="node9" class="node">
<title>Node12</title>
<g id="a_node9"><a xlink:href="classhttp_1_1HTTPServerEndpoint.html" target="_top" xlink:title=" ">
<polygon fill="white" stroke="black" points="741,-1921.5 741,-1940.5 883,-1940.5 883,-1921.5 741,-1921.5"/>
<text text-anchor="middle" x="812" y="-1928.5" font-family="Helvetica,sans-Serif" font-size="10.00">http::HTTPServerEndpoint</text>
</a>
</g>
</g>
<!-- Node5&#45;&gt;Node12 -->
<g id="edge7" class="edge">
<title>Node5&#45;&gt;Node12</title>
<path fill="none" stroke="midnightblue" d="M688.11,-1931C705.11,-1931 723.53,-1931 740.81,-1931"/>
<polygon fill="midnightblue" stroke="midnightblue" points="687.73,-1927.5 677.73,-1931 687.73,-1934.5 687.73,-1927.5"/>
</g>
<!-- Node17 -->
<g id="node12" class="node">
<title>Node17</title>
<g id="a_node12"><a xlink:href="classkv_1_1untyped_1_1Map.html" target="_top" xlink:title=" ">
<polygon fill="white" stroke="black" points="417,-1845.5 417,-1864.5 518,-1864.5 518,-1845.5 417,-1845.5"/>
<text text-anchor="middle" x="467.5" y="-1852.5" font-family="Helvetica,sans-Serif" font-size="10.00">kv::untyped::Map</text>
</a>
</g>
</g>
<!-- Node16&#45;&gt;Node17 -->
<g id="edge11" class="edge">
<title>Node16&#45;&gt;Node17</title>
<path fill="none" stroke="midnightblue" d="M340.37,-1855C364.81,-1855 393.13,-1855 416.73,-1855"/>
<polygon fill="midnightblue" stroke="midnightblue" points="340.15,-1851.5 330.15,-1855 340.15,-1858.5 340.15,-1851.5"/>
</g>
<!-- Node55 -->
<g id="node13" class="node">
<title>Node55</title>
<g id="a_node13"><a xlink:href="classhttp_1_1ErrorReporter.html" target="_top" xlink:title=" ">
<polygon fill="white" stroke="black" points="20.5,-1951.5 20.5,-1970.5 127.5,-1970.5 127.5,-1951.5 20.5,-1951.5"/>
<text text-anchor="middle" x="74" y="-1958.5" font-family="Helvetica,sans-Serif" font-size="10.00">http::ErrorReporter</text>
</a>
</g>
</g>
<!-- Node55&#45;&gt;Node1 -->
<g id="edge12" class="edge">
<title>Node55&#45;&gt;Node1</title>
<path fill="none" stroke="midnightblue" d="M137.8,-1963.43C168.45,-1964.62 204.75,-1966.03 233.2,-1967.13"/>
<polygon fill="midnightblue" stroke="midnightblue" points="137.77,-1959.93 127.64,-1963.04 137.5,-1966.92 137.77,-1959.93"/>
</g>
<!-- Node18 -->
<g id="node14" class="node">
<title>Node18</title>
<g id="a_node14"><a xlink:href="structkv_1_1GetName.html" target="_top" xlink:title=" ">
<polygon fill="white" stroke="black" points="34,-956.5 34,-975.5 114,-975.5 114,-956.5 34,-956.5"/>
<text text-anchor="middle" x="74" y="-963.5" font-family="Helvetica,sans-Serif" font-size="10.00">kv::GetName</text>
</a>
</g>
</g>
<!-- Node18&#45;&gt;Node16 -->
<g id="edge46" class="edge">
<title>Node18&#45;&gt;Node16</title>
<path fill="none" stroke="midnightblue" d="M76.11,-985.75C83.24,-1109.07 124.1,-1770.27 184,-1835 196.85,-1848.89 216.55,-1854.55 234.88,-1856.49"/>
<polygon fill="midnightblue" stroke="midnightblue" points="79.59,-985.32 75.53,-975.53 72.61,-985.72 79.59,-985.32"/>
</g>
<!-- Node19 -->
<g id="node15" class="node">
<title>Node19</title>
<g id="a_node15"><a xlink:href="classkv_1_1TypedMap.html" target="_top" xlink:title=" ">
<polygon fill="white" stroke="black" points="209,-1600 209,-1630 356,-1630 356,-1600 209,-1600"/>
<text text-anchor="start" x="217" y="-1618" font-family="Helvetica,sans-Serif" font-size="10.00">kv::TypedMap&lt; MemberId,</text>
<text text-anchor="middle" x="282.5" y="-1607" font-family="Helvetica,sans-Serif" font-size="10.00"> crypto::Pem &gt;</text>
</a>
</g>
</g>
<!-- Node18&#45;&gt;Node19 -->
<g id="edge13" class="edge">
<title>Node18&#45;&gt;Node19</title>
<path fill="none" stroke="midnightblue" d="M75.65,-985.56C79.22,-1081.19 99.51,-1498.64 184,-1590 190.76,-1597.31 199.35,-1602.61 208.61,-1606.42"/>
<polygon fill="midnightblue" stroke="midnightblue" points="79.15,-985.4 75.29,-975.53 72.15,-985.65 79.15,-985.4"/>
</g>
<!-- Node20 -->
<g id="node16" class="node">
<title>Node20</title>
<g id="a_node16"><a xlink:href="classkv_1_1TypedMap.html" target="_top" xlink:title=" ">
<polygon fill="white" stroke="black" points="209,-1551 209,-1581 356,-1581 356,-1551 209,-1551"/>
<text text-anchor="start" x="217" y="-1569" font-family="Helvetica,sans-Serif" font-size="10.00">kv::TypedMap&lt; MemberId,</text>
<text text-anchor="middle" x="282.5" y="-1558" font-family="Helvetica,sans-Serif" font-size="10.00"> MemberDetails &gt;</text>
</a>
</g>
</g>
<!-- Node18&#45;&gt;Node20 -->
<g id="edge14" class="edge">
<title>Node18&#45;&gt;Node20</title>
<path fill="none" stroke="midnightblue" d="M75.98,-985.73C80.88,-1077.04 105.83,-1457.69 184,-1541 190.82,-1548.26 199.43,-1553.53 208.7,-1557.33"/>
<polygon fill="midnightblue" stroke="midnightblue" points="79.47,-985.45 75.45,-975.65 72.47,-985.82 79.47,-985.45"/>
</g>
<!-- Node21 -->
<g id="node17" class="node">
<title>Node21</title>
<g id="a_node17"><a xlink:href="classkv_1_1TypedMap.html" target="_top" xlink:title=" ">
<polygon fill="white" stroke="black" points="224.5,-1502 224.5,-1532 340.5,-1532 340.5,-1502 224.5,-1502"/>
<text text-anchor="start" x="232.5" y="-1520" font-family="Helvetica,sans-Serif" font-size="10.00">kv::TypedMap&lt; std::</text>
<text text-anchor="middle" x="282.5" y="-1509" font-family="Helvetica,sans-Serif" font-size="10.00">string, Module &gt;</text>
</a>
</g>
</g>
<!-- Node18&#45;&gt;Node21 -->
<g id="edge15" class="edge">
<title>Node18&#45;&gt;Node21</title>
<path fill="none" stroke="midnightblue" d="M76.35,-985.67C82.66,-1072.04 112.06,-1416.62 184,-1492 194.62,-1503.12 209.46,-1509.55 224.36,-1513.2"/>
<polygon fill="midnightblue" stroke="midnightblue" points="79.84,-985.38 75.64,-975.65 72.85,-985.87 79.84,-985.38"/>
</g>
<!-- Node22 -->
<g id="node18" class="node">
<title>Node22</title>
<g id="a_node18"><a xlink:href="classkv_1_1TypedMap.html" target="_top" xlink:title=" ">
<polygon fill="white" stroke="black" points="224.5,-1441.5 224.5,-1482.5 340.5,-1482.5 340.5,-1441.5 224.5,-1441.5"/>
<text text-anchor="start" x="232.5" y="-1470.5" font-family="Helvetica,sans-Serif" font-size="10.00">kv::TypedMap&lt; std::</text>
<text text-anchor="start" x="232.5" y="-1459.5" font-family="Helvetica,sans-Serif" font-size="10.00">string, std::vector</text>
<text text-anchor="middle" x="282.5" y="-1448.5" font-family="Helvetica,sans-Serif" font-size="10.00">&lt; uint8_t &gt; &gt;</text>
</a>
</g>
</g>
<!-- Node18&#45;&gt;Node22 -->
<g id="edge16" class="edge">
<title>Node18&#45;&gt;Node22</title>
<path fill="none" stroke="midnightblue" d="M77.05,-985.79C85.71,-1065.73 121.74,-1363.71 184,-1431 194.62,-1442.47 209.45,-1449.72 224.36,-1454.29"/>
<polygon fill="midnightblue" stroke="midnightblue" points="80.51,-985.21 75.97,-975.63 73.55,-985.95 80.51,-985.21"/>
</g>
<!-- Node23 -->
<g id="node19" class="node">
<title>Node23</title>
<g id="a_node19"><a xlink:href="classkv_1_1TypedMap.html" target="_top" xlink:title=" ">
<polygon fill="white" stroke="black" points="205.5,-1392 205.5,-1422 359.5,-1422 359.5,-1392 205.5,-1392"/>
<text text-anchor="start" x="213.5" y="-1410" font-family="Helvetica,sans-Serif" font-size="10.00">kv::TypedMap&lt; CodeDigest,</text>
<text text-anchor="middle" x="282.5" y="-1399" font-family="Helvetica,sans-Serif" font-size="10.00"> CodeStatus &gt;</text>
</a>
</g>
</g>
<!-- Node18&#45;&gt;Node23 -->
<g id="edge17" class="edge">
<title>Node18&#45;&gt;Node23</title>
<path fill="none" stroke="midnightblue" d="M77.51,-985.69C87.39,-1060.3 125.98,-1324.28 184,-1382 190.07,-1388.04 197.39,-1392.68 205.26,-1396.24"/>
<polygon fill="midnightblue" stroke="midnightblue" points="80.97,-985.22 76.21,-975.75 74.03,-986.12 80.97,-985.22"/>
</g>
<!-- Node24 -->
<g id="node20" class="node">
<title>Node24</title>
<g id="a_node20"><a xlink:href="classkv_1_1TypedMap.html" target="_top" xlink:title=" ">
<polygon fill="white" stroke="black" points="209,-1343 209,-1373 356,-1373 356,-1343 209,-1343"/>
<text text-anchor="start" x="217" y="-1361" font-family="Helvetica,sans-Serif" font-size="10.00">kv::TypedMap&lt; MemberId,</text>
<text text-anchor="middle" x="282.5" y="-1350" font-family="Helvetica,sans-Serif" font-size="10.00"> MemberAck &gt;</text>
</a>
</g>
</g>
<!-- Node18&#45;&gt;Node24 -->
<g id="edge18" class="edge">
<title>Node18&#45;&gt;Node24</title>
<path fill="none" stroke="midnightblue" d="M74.56,-985.86C74.33,-1047.16 82.35,-1235.11 184,-1333 191.05,-1339.79 199.68,-1344.8 208.86,-1348.49"/>
<polygon fill="midnightblue" stroke="midnightblue" points="78.06,-985.69 74.68,-975.65 71.06,-985.6 78.06,-985.69"/>
</g>
<!-- Node25 -->
<g id="node21" class="node">
<title>Node25</title>
<g id="a_node21"><a xlink:href="classkv_1_1TypedMap.html" target="_top" xlink:title=" ">
<polygon fill="white" stroke="black" points="209,-1294 209,-1324 356,-1324 356,-1294 209,-1294"/>
<text text-anchor="start" x="217" y="-1312" font-family="Helvetica,sans-Serif" font-size="10.00">kv::TypedMap&lt; MemberId,</text>
<text text-anchor="middle" x="282.5" y="-1301" font-family="Helvetica,sans-Serif" font-size="10.00"> SignedReq &gt;</text>
</a>
</g>
</g>
<!-- Node18&#45;&gt;Node25 -->
<g id="edge19" class="edge">
<title>Node18&#45;&gt;Node25</title>
<path fill="none" stroke="midnightblue" d="M75.61,-985.75C78.43,-1041.47 94.35,-1201.18 184,-1284 191.06,-1290.52 199.59,-1295.39 208.62,-1299.03"/>
<polygon fill="midnightblue" stroke="midnightblue" points="79.09,-985.35 75.18,-975.51 72.1,-985.64 79.09,-985.35"/>
</g>
<!-- Node26 -->
<g id="node22" class="node">
<title>Node26</title>
<g id="a_node22"><a xlink:href="classkv_1_1TypedMap.html" target="_top" xlink:title=" ">
<polygon fill="white" stroke="black" points="203.5,-1245 203.5,-1275 361.5,-1275 361.5,-1245 203.5,-1245"/>
<text text-anchor="start" x="211.5" y="-1263" font-family="Helvetica,sans-Serif" font-size="10.00">kv::TypedMap&lt; MemberId,</text>
<text text-anchor="middle" x="282.5" y="-1252" font-family="Helvetica,sans-Serif" font-size="10.00"> EncryptedSubmittedShare &gt;</text>
</a>
</g>
</g>
<!-- Node18&#45;&gt;Node26 -->
<g id="edge20" class="edge">
<title>Node18&#45;&gt;Node26</title>
<path fill="none" stroke="midnightblue" d="M76.99,-985.66C83.11,-1035.38 106.22,-1167 184,-1235 189.66,-1239.95 196.16,-1243.94 203.08,-1247.15"/>
<polygon fill="midnightblue" stroke="midnightblue" points="80.46,-985.14 75.85,-975.6 73.5,-985.93 80.46,-985.14"/>
</g>
<!-- Node27 -->
<g id="node23" class="node">
<title>Node27</title>
<g id="a_node23"><a xlink:href="classkv_1_1TypedMap.html" target="_top" xlink:title=" ">
<polygon fill="white" stroke="black" points="224.5,-1196 224.5,-1226 340.5,-1226 340.5,-1196 224.5,-1196"/>
<text text-anchor="start" x="232.5" y="-1214" font-family="Helvetica,sans-Serif" font-size="10.00">kv::TypedMap&lt; std::</text>
<text text-anchor="middle" x="282.5" y="-1203" font-family="Helvetica,sans-Serif" font-size="10.00">string, std::string &gt;</text>
</a>
</g>
</g>
<!-- Node18&#45;&gt;Node27 -->
<g id="edge21" class="edge">
<title>Node18&#45;&gt;Node27</title>
<path fill="none" stroke="midnightblue" d="M78.91,-985.52C88.6,-1028.64 117.88,-1132.44 184,-1186 195.47,-1195.3 210,-1201.18 224.3,-1204.89"/>
<polygon fill="midnightblue" stroke="midnightblue" points="82.33,-984.76 76.81,-975.71 75.48,-986.22 82.33,-984.76"/>
</g>
<!-- Node28 -->
<g id="node24" class="node">
<title>Node28</title>
<g id="a_node24"><a xlink:href="classkv_1_1TypedMap.html" target="_top" xlink:title=" ">
<polygon fill="white" stroke="black" points="211.5,-1147 211.5,-1177 353.5,-1177 353.5,-1147 211.5,-1147"/>
<text text-anchor="start" x="219.5" y="-1165" font-family="Helvetica,sans-Serif" font-size="10.00">kv::TypedMap&lt; JwtIssuer,</text>
<text text-anchor="middle" x="282.5" y="-1154" font-family="Helvetica,sans-Serif" font-size="10.00"> JwtIssuerMetadata &gt;</text>
</a>
</g>
</g>
<!-- Node18&#45;&gt;Node28 -->
<g id="edge22" class="edge">
<title>Node18&#45;&gt;Node28</title>
<path fill="none" stroke="midnightblue" d="M81.74,-985.21C95.28,-1020.88 129.23,-1097.31 184,-1137 192.21,-1142.95 201.7,-1147.48 211.47,-1150.94"/>
<polygon fill="midnightblue" stroke="midnightblue" points="84.92,-983.72 78.2,-975.54 78.35,-986.13 84.92,-983.72"/>
</g>
<!-- Node29 -->
<g id="node25" class="node">
<title>Node29</title>
<g id="a_node25"><a xlink:href="classkv_1_1TypedMap.html" target="_top" xlink:title=" ">
<polygon fill="white" stroke="black" points="212.5,-1098 212.5,-1128 352.5,-1128 352.5,-1098 212.5,-1098"/>
<text text-anchor="start" x="220.5" y="-1116" font-family="Helvetica,sans-Serif" font-size="10.00">kv::TypedMap&lt; JwtKeyId,</text>
<text text-anchor="middle" x="282.5" y="-1105" font-family="Helvetica,sans-Serif" font-size="10.00"> Cert &gt;</text>
</a>
</g>
</g>
<!-- Node18&#45;&gt;Node29 -->
<g id="edge23" class="edge">
<title>Node18&#45;&gt;Node29</title>
<path fill="none" stroke="midnightblue" d="M86.1,-984.14C103.54,-1011.04 139.93,-1061.2 184,-1088 192.66,-1093.27 202.4,-1097.43 212.29,-1100.72"/>
<polygon fill="midnightblue" stroke="midnightblue" points="89.05,-982.25 80.75,-975.67 83.14,-985.99 89.05,-982.25"/>
</g>
<!-- Node30 -->
<g id="node26" class="node">
<title>Node30</title>
<g id="a_node26"><a xlink:href="classkv_1_1TypedMap.html" target="_top" xlink:title=" ">
<polygon fill="white" stroke="black" points="212.5,-1049 212.5,-1079 352.5,-1079 352.5,-1049 212.5,-1049"/>
<text text-anchor="start" x="220.5" y="-1067" font-family="Helvetica,sans-Serif" font-size="10.00">kv::TypedMap&lt; JwtKeyId,</text>
<text text-anchor="middle" x="282.5" y="-1056" font-family="Helvetica,sans-Serif" font-size="10.00"> JwtIssuer &gt;</text>
</a>
</g>
</g>
<!-- Node18&#45;&gt;Node30 -->
<g id="edge24" class="edge">
<title>Node18&#45;&gt;Node30</title>
<path fill="none" stroke="midnightblue" d="M94.38,-981.98C115.29,-998.47 150.16,-1023.87 184,-1039 192.93,-1043 202.62,-1046.44 212.31,-1049.38"/>
<polygon fill="midnightblue" stroke="midnightblue" points="96.31,-979.04 86.32,-975.51 91.93,-984.5 96.31,-979.04"/>
</g>
<!-- Node31 -->
<g id="node27" class="node">
<title>Node31</title>
<g id="a_node27"><a xlink:href="classkv_1_1TypedMap.html" target="_top" xlink:title=" ">
<polygon fill="white" stroke="black" points="218,-1000 218,-1030 347,-1030 347,-1000 218,-1000"/>
<text text-anchor="start" x="226" y="-1018" font-family="Helvetica,sans-Serif" font-size="10.00">kv::TypedMap&lt; UserId,</text>
<text text-anchor="middle" x="282.5" y="-1007" font-family="Helvetica,sans-Serif" font-size="10.00"> crypto::Pem &gt;</text>
</a>
</g>
</g>
<!-- Node18&#45;&gt;Node31 -->
<g id="edge25" class="edge">
<title>Node18&#45;&gt;Node31</title>
<path fill="none" stroke="midnightblue" d="M124.31,-977.7C152.37,-984.36 187.83,-992.77 217.96,-999.92"/>
<polygon fill="midnightblue" stroke="midnightblue" points="124.87,-974.24 114.33,-975.33 123.25,-981.05 124.87,-974.24"/>
</g>
<!-- Node32 -->
<g id="node28" class="node">
<title>Node32</title>
<g id="a_node28"><a xlink:href="classkv_1_1TypedMap.html" target="_top" xlink:title=" ">
<polygon fill="white" stroke="black" points="218,-951 218,-981 347,-981 347,-951 218,-951"/>
<text text-anchor="start" x="226" y="-969" font-family="Helvetica,sans-Serif" font-size="10.00">kv::TypedMap&lt; UserId,</text>
<text text-anchor="middle" x="282.5" y="-958" font-family="Helvetica,sans-Serif" font-size="10.00"> UserDetails &gt;</text>
</a>
</g>
</g>
<!-- Node18&#45;&gt;Node32 -->
<g id="edge26" class="edge">
<title>Node18&#45;&gt;Node32</title>
<path fill="none" stroke="midnightblue" d="M124.68,-966C152.68,-966 187.96,-966 217.96,-966"/>
<polygon fill="midnightblue" stroke="midnightblue" points="124.33,-962.5 114.33,-966 124.33,-969.5 124.33,-962.5"/>
</g>
<!-- Node33 -->
<g id="node29" class="node">
<title>Node33</title>
<g id="a_node29"><a xlink:href="classkv_1_1TypedMap.html" target="_top" xlink:title=" ">
<polygon fill="white" stroke="black" points="216.5,-902 216.5,-932 348.5,-932 348.5,-902 216.5,-902"/>
<text text-anchor="start" x="224.5" y="-920" font-family="Helvetica,sans-Serif" font-size="10.00">kv::TypedMap&lt; NodeId,</text>
<text text-anchor="middle" x="282.5" y="-909" font-family="Helvetica,sans-Serif" font-size="10.00"> NodeInfo &gt;</text>
</a>
</g>
</g>
<!-- Node18&#45;&gt;Node33 -->
<g id="edge27" class="edge">
<title>Node18&#45;&gt;Node33</title>
<path fill="none" stroke="midnightblue" d="M124.31,-954.3C152.37,-947.64 187.83,-939.23 217.96,-932.08"/>
<polygon fill="midnightblue" stroke="midnightblue" points="123.25,-950.95 114.33,-956.67 124.87,-957.76 123.25,-950.95"/>
</g>
<!-- Node34 -->
<g id="node30" class="node">
<title>Node34</title>
<g id="a_node30"><a xlink:href="classkv_1_1TypedMap.html" target="_top" xlink:title=" ">
<polygon fill="white" stroke="black" points="216.5,-853 216.5,-883 348.5,-883 348.5,-853 216.5,-853"/>
<text text-anchor="start" x="224.5" y="-871" font-family="Helvetica,sans-Serif" font-size="10.00">kv::TypedMap&lt; NodeId,</text>
<text text-anchor="middle" x="282.5" y="-860" font-family="Helvetica,sans-Serif" font-size="10.00"> crypto::Pem &gt;</text>
</a>
</g>
</g>
<!-- Node18&#45;&gt;Node34 -->
<g id="edge28" class="edge">
<title>Node18&#45;&gt;Node34</title>
<path fill="none" stroke="midnightblue" d="M94.04,-949.95C114.86,-933.17 149.84,-907.21 184,-892 194.19,-887.46 205.38,-883.69 216.43,-880.59"/>
<polygon fill="midnightblue" stroke="midnightblue" points="91.79,-947.26 86.27,-956.31 96.23,-952.68 91.79,-947.26"/>
</g>
<!-- Node35 -->
<g id="node31" class="node">
<title>Node35</title>
<g id="a_node31"><a xlink:href="classkv_1_1TypedMap.html" target="_top" xlink:title=" ">
<polygon fill="white" stroke="black" points="188.5,-804 188.5,-834 376.5,-834 376.5,-804 188.5,-804"/>
<text text-anchor="start" x="196.5" y="-822" font-family="Helvetica,sans-Serif" font-size="10.00">kv::TypedMap&lt; kv::Reconfiguration</text>
<text text-anchor="middle" x="282.5" y="-811" font-family="Helvetica,sans-Serif" font-size="10.00">Id, ResharingResult &gt;</text>
</a>
</g>
</g>
<!-- Node18&#45;&gt;Node35 -->
<g id="edge29" class="edge">
<title>Node18&#45;&gt;Node35</title>
<path fill="none" stroke="midnightblue" d="M86.03,-947.66C103.38,-920.46 139.65,-869.79 184,-843 189.74,-839.53 195.97,-836.56 202.39,-834.02"/>
<polygon fill="midnightblue" stroke="midnightblue" points="83.02,-945.88 80.71,-956.22 88.96,-949.58 83.02,-945.88"/>
</g>
<!-- Node36 -->
<g id="node32" class="node">
<title>Node36</title>
<g id="a_node32"><a xlink:href="classkv_1_1TypedMap.html" target="_top" xlink:title=" ">
<polygon fill="white" stroke="black" points="225,-743.5 225,-784.5 340,-784.5 340,-743.5 225,-743.5"/>
<text text-anchor="start" x="233" y="-772.5" font-family="Helvetica,sans-Serif" font-size="10.00">kv::TypedMap&lt; tpcc</text>
<text text-anchor="start" x="233" y="-761.5" font-family="Helvetica,sans-Serif" font-size="10.00">::Stock::Key, tpcc::</text>
<text text-anchor="middle" x="282.5" y="-750.5" font-family="Helvetica,sans-Serif" font-size="10.00">Stock &gt;</text>
</a>
</g>
</g>
<!-- Node18&#45;&gt;Node36 -->
<g id="edge30" class="edge">
<title>Node18&#45;&gt;Node36</title>
<path fill="none" stroke="midnightblue" d="M82.09,-946.41C96,-910.73 130.28,-835.03 184,-794 195.89,-784.92 210.56,-778.56 224.87,-774.12"/>
<polygon fill="midnightblue" stroke="midnightblue" points="78.68,-945.53 78.42,-956.12 85.23,-948 78.68,-945.53"/>
</g>
<!-- Node37 -->
<g id="node33" class="node">
<title>Node37</title>
<g id="a_node33"><a xlink:href="classkv_1_1TypedMap.html" target="_top" xlink:title=" ">
<polygon fill="white" stroke="black" points="219,-683.5 219,-724.5 346,-724.5 346,-683.5 219,-683.5"/>
<text text-anchor="start" x="227" y="-712.5" font-family="Helvetica,sans-Serif" font-size="10.00">kv::TypedMap&lt; tpcc</text>
<text text-anchor="start" x="227" y="-701.5" font-family="Helvetica,sans-Serif" font-size="10.00">::Warehouse::Key, tpcc</text>
<text text-anchor="middle" x="282.5" y="-690.5" font-family="Helvetica,sans-Serif" font-size="10.00">::Warehouse &gt;</text>
</a>
</g>
</g>
<!-- Node18&#45;&gt;Node37 -->
<g id="edge31" class="edge">
<title>Node18&#45;&gt;Node37</title>
<path fill="none" stroke="midnightblue" d="M78.64,-946.29C87.91,-901.72 116.61,-792.51 184,-734 193.96,-725.35 206.38,-719.19 218.99,-714.81"/>
<polygon fill="midnightblue" stroke="midnightblue" points="75.15,-945.9 76.65,-956.39 82.02,-947.25 75.15,-945.9"/>
</g>
<!-- Node38 -->
<g id="node34" class="node">
<title>Node38</title>
<g id="a_node34"><a xlink:href="classkv_1_1TypedMap.html" target="_top" xlink:title=" ">
<polygon fill="white" stroke="black" points="225,-623.5 225,-664.5 340,-664.5 340,-623.5 225,-623.5"/>
<text text-anchor="start" x="233" y="-652.5" font-family="Helvetica,sans-Serif" font-size="10.00">kv::TypedMap&lt; tpcc</text>
<text text-anchor="start" x="233" y="-641.5" font-family="Helvetica,sans-Serif" font-size="10.00">::District::Key, tpcc</text>
<text text-anchor="middle" x="282.5" y="-630.5" font-family="Helvetica,sans-Serif" font-size="10.00">::District &gt;</text>
</a>
</g>
</g>
<!-- Node18&#45;&gt;Node38 -->
<g id="edge32" class="edge">
<title>Node18&#45;&gt;Node38</title>
<path fill="none" stroke="midnightblue" d="M76.51,-946.31C81.57,-894.09 102.57,-750.78 184,-674 195.21,-663.43 210.06,-656.58 224.78,-652.14"/>
<polygon fill="midnightblue" stroke="midnightblue" points="73.02,-946.01 75.63,-956.28 79.99,-946.62 73.02,-946.01"/>
</g>
<!-- Node39 -->
<g id="node35" class="node">
<title>Node39</title>
<g id="a_node35"><a xlink:href="classkv_1_1TypedMap.html" target="_top" xlink:title=" ">
<polygon fill="white" stroke="black" points="225,-563.5 225,-604.5 340,-604.5 340,-563.5 225,-563.5"/>
<text text-anchor="start" x="233" y="-592.5" font-family="Helvetica,sans-Serif" font-size="10.00">kv::TypedMap&lt; tpcc</text>
<text text-anchor="start" x="233" y="-581.5" font-family="Helvetica,sans-Serif" font-size="10.00">::History::Key, tpcc</text>
<text text-anchor="middle" x="282.5" y="-570.5" font-family="Helvetica,sans-Serif" font-size="10.00">::History &gt;</text>
</a>
</g>
</g>
<!-- Node18&#45;&gt;Node39 -->
<g id="edge33" class="edge">
<title>Node18&#45;&gt;Node39</title>
<path fill="none" stroke="midnightblue" d="M75.07,-945.98C76.37,-886.55 88.49,-709.33 184,-614 195.03,-602.99 210,-596 224.89,-591.58"/>
<polygon fill="midnightblue" stroke="midnightblue" points="71.56,-946.19 74.93,-956.24 78.56,-946.29 71.56,-946.19"/>
</g>
<!-- Node40 -->
<g id="node36" class="node">
<title>Node40</title>
<g id="a_node36"><a xlink:href="classkv_1_1TypedMap.html" target="_top" xlink:title=" ">
<polygon fill="white" stroke="black" points="222.5,-503.5 222.5,-544.5 342.5,-544.5 342.5,-503.5 222.5,-503.5"/>
<text text-anchor="start" x="230.5" y="-532.5" font-family="Helvetica,sans-Serif" font-size="10.00">kv::TypedMap&lt; tpcc</text>
<text text-anchor="start" x="230.5" y="-521.5" font-family="Helvetica,sans-Serif" font-size="10.00">::Customer::Key, tpcc</text>
<text text-anchor="middle" x="282.5" y="-510.5" font-family="Helvetica,sans-Serif" font-size="10.00">::Customer &gt;</text>
</a>
</g>
</g>
<!-- Node18&#45;&gt;Node40 -->
<g id="edge34" class="edge">
<title>Node18&#45;&gt;Node40</title>
<path fill="none" stroke="midnightblue" d="M77.68,-946.12C88.08,-871.91 127.92,-612.36 184,-554 194.25,-543.34 208.18,-536.44 222.31,-531.98"/>
<polygon fill="midnightblue" stroke="midnightblue" points="74.17,-946 76.27,-956.38 81.1,-946.95 74.17,-946"/>
</g>
<!-- Node41 -->
<g id="node37" class="node">
<title>Node41</title>
<g id="a_node37"><a xlink:href="classkv_1_1TypedMap.html" target="_top" xlink:title=" ">
<polygon fill="white" stroke="black" points="225,-443.5 225,-484.5 340,-484.5 340,-443.5 225,-443.5"/>
<text text-anchor="start" x="233" y="-472.5" font-family="Helvetica,sans-Serif" font-size="10.00">kv::TypedMap&lt; tpcc</text>
<text text-anchor="start" x="233" y="-461.5" font-family="Helvetica,sans-Serif" font-size="10.00">::Order::Key, tpcc::</text>
<text text-anchor="middle" x="282.5" y="-450.5" font-family="Helvetica,sans-Serif" font-size="10.00">Order &gt;</text>
</a>
</g>
</g>
<!-- Node18&#45;&gt;Node41 -->
<g id="edge35" class="edge">
<title>Node18&#45;&gt;Node41</title>
<path fill="none" stroke="midnightblue" d="M76.99,-945.9C85.41,-864.7 120.64,-562.06 184,-494 194.74,-482.46 209.8,-475.32 224.87,-470.91"/>
<polygon fill="midnightblue" stroke="midnightblue" points="73.47,-945.91 75.94,-956.22 80.43,-946.62 73.47,-945.91"/>
</g>
<!-- Node42 -->
<g id="node38" class="node">
<title>Node42</title>
<g id="a_node38"><a xlink:href="classkv_1_1TypedMap.html" target="_top" xlink:title=" ">
<polygon fill="white" stroke="black" points="222.5,-383.5 222.5,-424.5 342.5,-424.5 342.5,-383.5 222.5,-383.5"/>
<text text-anchor="start" x="230.5" y="-412.5" font-family="Helvetica,sans-Serif" font-size="10.00">kv::TypedMap&lt; tpcc</text>
<text text-anchor="start" x="230.5" y="-401.5" font-family="Helvetica,sans-Serif" font-size="10.00">::OrderLine::Key, tpcc</text>
<text text-anchor="middle" x="282.5" y="-390.5" font-family="Helvetica,sans-Serif" font-size="10.00">::OrderLine &gt;</text>
</a>
</g>
</g>
<!-- Node18&#45;&gt;Node42 -->
<g id="edge36" class="edge">
<title>Node18&#45;&gt;Node42</title>
<path fill="none" stroke="midnightblue" d="M76.4,-946.19C82.95,-859.2 113.19,-511.99 184,-434 194.06,-422.92 208.1,-415.89 222.4,-411.43"/>
<polygon fill="midnightblue" stroke="midnightblue" points="72.9,-946.05 75.66,-956.28 79.88,-946.56 72.9,-946.05"/>
</g>
<!-- Node43 -->
<g id="node39" class="node">
<title>Node43</title>
<g id="a_node39"><a xlink:href="classkv_1_1TypedMap.html" target="_top" xlink:title=" ">
<polygon fill="white" stroke="black" points="221.5,-323.5 221.5,-364.5 343.5,-364.5 343.5,-323.5 221.5,-323.5"/>
<text text-anchor="start" x="229.5" y="-352.5" font-family="Helvetica,sans-Serif" font-size="10.00">kv::TypedMap&lt; tpcc</text>
<text text-anchor="start" x="229.5" y="-341.5" font-family="Helvetica,sans-Serif" font-size="10.00">::NewOrder::Key, tpcc</text>
<text text-anchor="middle" x="282.5" y="-330.5" font-family="Helvetica,sans-Serif" font-size="10.00">::NewOrder &gt;</text>
</a>
</g>
</g>
<!-- Node18&#45;&gt;Node43 -->
<g id="edge37" class="edge">
<title>Node18&#45;&gt;Node43</title>
<path fill="none" stroke="midnightblue" d="M75.96,-946.06C80.85,-852.96 105.81,-461.87 184,-374 193.77,-363.02 207.46,-356 221.49,-351.54"/>
<polygon fill="midnightblue" stroke="midnightblue" points="72.46,-945.95 75.45,-956.11 79.45,-946.3 72.46,-945.95"/>
</g>
<!-- Node44 -->
<g id="node40" class="node">
<title>Node44</title>
<g id="a_node40"><a xlink:href="classkv_1_1TypedMap.html" target="_top" xlink:title=" ">
<polygon fill="white" stroke="black" points="215,-274 215,-304 350,-304 350,-274 215,-274"/>
<text text-anchor="start" x="223" y="-292" font-family="Helvetica,sans-Serif" font-size="10.00">kv::TypedMap&lt; tpcc</text>
<text text-anchor="middle" x="282.5" y="-281" font-family="Helvetica,sans-Serif" font-size="10.00">::Item::Key, tpcc::Item &gt;</text>
</a>
</g>
</g>
<!-- Node18&#45;&gt;Node44 -->
<g id="edge38" class="edge">
<title>Node18&#45;&gt;Node44</title>
<path fill="none" stroke="midnightblue" d="M75.51,-945.88C78.41,-846.58 96.09,-409.75 184,-314 192.27,-304.99 203.31,-299.04 214.98,-295.14"/>
<polygon fill="midnightblue" stroke="midnightblue" points="72,-945.95 75.23,-956.04 79,-946.14 72,-945.95"/>
</g>
<!-- Node45 -->
<g id="node41" class="node">
<title>Node45</title>
<g id="a_node41"><a xlink:href="classkv_1_1TypedValue.html" target="_top" xlink:title=" ">
<polygon fill="white" stroke="black" points="224.5,-225 224.5,-255 340.5,-255 340.5,-225 224.5,-225"/>
<text text-anchor="start" x="232.5" y="-243" font-family="Helvetica,sans-Serif" font-size="10.00">kv::TypedValue&lt; std</text>
<text text-anchor="middle" x="282.5" y="-232" font-family="Helvetica,sans-Serif" font-size="10.00">::string &gt;</text>
</a>
</g>
</g>
<!-- Node18&#45;&gt;Node45 -->
<g id="edge39" class="edge">
<title>Node18&#45;&gt;Node45</title>
<path fill="none" stroke="midnightblue" d="M75.22,-945.99C76.79,-842.36 89.13,-367.54 184,-264 194.42,-252.63 209.29,-246.25 224.29,-242.77"/>
<polygon fill="midnightblue" stroke="midnightblue" points="71.72,-946.23 75.09,-956.27 78.72,-946.32 71.72,-946.23"/>
</g>
<!-- Node46 -->
<g id="node42" class="node">
<title>Node46</title>
<g id="a_node42"><a xlink:href="classkv_1_1TypedValue.html" target="_top" xlink:title=" ">
<polygon fill="white" stroke="black" points="208,-176 208,-206 357,-206 357,-176 208,-176"/>
<text text-anchor="start" x="216" y="-194" font-family="Helvetica,sans-Serif" font-size="10.00">kv::TypedValue&lt; Encrypted</text>
<text text-anchor="middle" x="282.5" y="-183" font-family="Helvetica,sans-Serif" font-size="10.00">LedgerSecretInfo &gt;</text>
</a>
</g>
</g>
<!-- Node18&#45;&gt;Node46 -->
<g id="edge40" class="edge">
<title>Node18&#45;&gt;Node46</title>
<path fill="none" stroke="midnightblue" d="M75,-946.3C75.41,-839.1 82.68,-326.68 184,-215 190.56,-207.77 198.91,-202.55 207.97,-198.82"/>
<polygon fill="midnightblue" stroke="midnightblue" points="71.5,-946.36 74.98,-956.37 78.5,-946.37 71.5,-946.36"/>
</g>
<!-- Node47 -->
<g id="node43" class="node">
<title>Node47</title>
<g id="a_node43"><a xlink:href="classkv_1_1TypedValue.html" target="_top" xlink:title=" ">
<polygon fill="white" stroke="black" points="199,-137.5 199,-156.5 366,-156.5 366,-137.5 199,-137.5"/>
<text text-anchor="middle" x="282.5" y="-144.5" font-family="Helvetica,sans-Serif" font-size="10.00">kv::TypedValue&lt; ServiceInfo &gt;</text>
</a>
</g>
</g>
<!-- Node18&#45;&gt;Node47 -->
<g id="edge41" class="edge">
<title>Node18&#45;&gt;Node47</title>
<path fill="none" stroke="midnightblue" d="M74.72,-946.35C73.53,-834.91 73.38,-283.12 184,-166 188.26,-161.49 193.26,-157.87 198.69,-154.98"/>
<polygon fill="midnightblue" stroke="midnightblue" points="71.22,-946.53 74.84,-956.49 78.22,-946.45 71.22,-946.53"/>
</g>
<!-- Node48 -->
<g id="node44" class="node">
<title>Node48</title>
<g id="a_node44"><a xlink:href="classkv_1_1TypedValue.html" target="_top" xlink:title=" ">
<polygon fill="white" stroke="black" points="197.5,-88 197.5,-118 367.5,-118 367.5,-88 197.5,-88"/>
<text text-anchor="start" x="205.5" y="-106" font-family="Helvetica,sans-Serif" font-size="10.00">kv::TypedValue&lt; LedgerSecrets</text>
<text text-anchor="middle" x="282.5" y="-95" font-family="Helvetica,sans-Serif" font-size="10.00">ForNodes &gt;</text>
</a>
</g>
</g>
<!-- Node18&#45;&gt;Node48 -->
<g id="edge42" class="edge">
<title>Node18&#45;&gt;Node48</title>
<path fill="none" stroke="midnightblue" d="M74.69,-946.24C73.3,-831.79 72.01,-254.52 184,-128 187.82,-123.68 192.28,-120.06 197.14,-117.03"/>
<polygon fill="midnightblue" stroke="midnightblue" points="71.19,-946.41 74.83,-956.36 78.19,-946.31 71.19,-946.41"/>
</g>
<!-- Node49 -->
<g id="node45" class="node">
<title>Node49</title>
<g id="a_node45"><a xlink:href="classkv_1_1TypedValue.html" target="_top" xlink:title=" ">
<polygon fill="white" stroke="black" points="209.5,-39 209.5,-69 355.5,-69 355.5,-39 209.5,-39"/>
<text text-anchor="start" x="217.5" y="-57" font-family="Helvetica,sans-Serif" font-size="10.00">kv::TypedValue&lt; Snapshot</text>
<text text-anchor="middle" x="282.5" y="-46" font-family="Helvetica,sans-Serif" font-size="10.00">Hash &gt;</text>
</a>
</g>
</g>
<!-- Node18&#45;&gt;Node49 -->
<g id="edge43" class="edge">
<title>Node18&#45;&gt;Node49</title>
<path fill="none" stroke="midnightblue" d="M76.09,-946.23C83.18,-821.39 124.14,-145.46 184,-78 190.83,-70.31 199.69,-64.89 209.28,-61.1"/>
<polygon fill="midnightblue" stroke="midnightblue" points="72.6,-946.1 75.53,-956.28 79.59,-946.49 72.6,-946.1"/>
</g>
<!-- Node50 -->
<g id="node46" class="node">
<title>Node50</title>
<g id="a_node46"><a xlink:href="classkv_1_1TypedValue.html" target="_top" xlink:title=" ">
<polygon fill="white" stroke="black" points="184,-0.5 184,-19.5 381,-19.5 381,-0.5 184,-0.5"/>
<text text-anchor="middle" x="282.5" y="-7.5" font-family="Helvetica,sans-Serif" font-size="10.00">kv::TypedValue&lt; PrimarySignature &gt;</text>
</a>
</g>
</g>
<!-- Node18&#45;&gt;Node50 -->
<g id="edge44" class="edge">
<title>Node18&#45;&gt;Node50</title>
<path fill="none" stroke="midnightblue" d="M75.91,-946.31C82.07,-817.58 119.19,-98.98 184,-29 187.4,-25.33 191.28,-22.25 195.49,-19.67"/>
<polygon fill="midnightblue" stroke="midnightblue" points="72.42,-946.17 75.44,-956.32 79.41,-946.5 72.42,-946.17"/>
</g>
<!-- Node51 -->
<g id="node47" class="node">
<title>Node51</title>
<g id="a_node47"><a xlink:href="classkv_1_1TypedValue.html" target="_top" xlink:title=" ">
<polygon fill="white" stroke="black" points="222,-1796 222,-1826 343,-1826 343,-1796 222,-1796"/>
<text text-anchor="start" x="230" y="-1814" font-family="Helvetica,sans-Serif" font-size="10.00">kv::TypedValue&lt; std</text>
<text text-anchor="middle" x="282.5" y="-1803" font-family="Helvetica,sans-Serif" font-size="10.00">::vector&lt; uint8_t &gt; &gt;</text>
</a>
</g>
</g>
<!-- Node18&#45;&gt;Node51 -->
<g id="edge45" class="edge">
<title>Node18&#45;&gt;Node51</title>
<path fill="none" stroke="midnightblue" d="M74.75,-986.03C73.75,-1099.68 74.42,-1662.56 184,-1786 193.74,-1796.98 207.59,-1803.44 221.8,-1807.17"/>
<polygon fill="midnightblue" stroke="midnightblue" points="78.25,-985.73 74.86,-975.7 71.25,-985.66 78.25,-985.73"/>
</g>
<!-- Node52 -->
<g id="node48" class="node">
<title>Node52</title>
<g id="a_node48"><a xlink:href="classkv_1_1TypedMap.html" target="_top" xlink:title=" ">
<polygon fill="white" stroke="black" points="211.5,-1747 211.5,-1777 353.5,-1777 353.5,-1747 211.5,-1747"/>
<text text-anchor="start" x="219.5" y="-1765" font-family="Helvetica,sans-Serif" font-size="10.00">kv::TypedMap&lt; K, V,</text>
<text text-anchor="middle" x="282.5" y="-1754" font-family="Helvetica,sans-Serif" font-size="10.00"> KSerialiser, VSerialiser &gt;</text>
</a>
</g>
</g>
<!-- Node18&#45;&gt;Node52 -->
<g id="edge47" class="edge">
<title>Node18&#45;&gt;Node52</title>
<path fill="none" stroke="midnightblue" d="M74.94,-985.86C75,-1095.04 80.7,-1621.59 184,-1737 191.34,-1745.2 200.98,-1750.88 211.33,-1754.78"/>
<polygon fill="midnightblue" stroke="midnightblue" points="78.44,-985.63 74.95,-975.62 71.44,-985.62 78.44,-985.63"/>
</g>
<!-- Node53 -->
<g id="node49" class="node">
<title>Node53</title>
<g id="a_node49"><a xlink:href="classkv_1_1TypedSet.html" target="_top" xlink:title=" ">
<polygon fill="white" stroke="black" points="203.5,-1698 203.5,-1728 361.5,-1728 361.5,-1698 203.5,-1698"/>
<text text-anchor="start" x="211.5" y="-1716" font-family="Helvetica,sans-Serif" font-size="10.00">kv::TypedSet&lt; K, KSerialiser,</text>
<text text-anchor="middle" x="282.5" y="-1705" font-family="Helvetica,sans-Serif" font-size="10.00"> Unit &gt;</text>
</a>
</g>
</g>
<!-- Node18&#45;&gt;Node53 -->
<g id="edge48" class="edge">
<title>Node18&#45;&gt;Node53</title>
<path fill="none" stroke="midnightblue" d="M75.15,-986.24C76.35,-1092.04 87.13,-1580.8 184,-1688 189.39,-1693.96 195.99,-1698.59 203.19,-1702.17"/>
<polygon fill="midnightblue" stroke="midnightblue" points="78.65,-985.96 75.05,-975.99 71.65,-986.03 78.65,-985.96"/>
</g>
<!-- Node54 -->
<g id="node50" class="node">
<title>Node54</title>
<g id="a_node50"><a xlink:href="classkv_1_1TypedValue.html" target="_top" xlink:title=" ">
<polygon fill="white" stroke="black" points="227.5,-1649 227.5,-1679 337.5,-1679 337.5,-1649 227.5,-1649"/>
<text text-anchor="start" x="235.5" y="-1667" font-family="Helvetica,sans-Serif" font-size="10.00">kv::TypedValue&lt; V,</text>
<text text-anchor="middle" x="282.5" y="-1656" font-family="Helvetica,sans-Serif" font-size="10.00"> VSerialiser, Unit &gt;</text>
</a>
</g>
</g>
<!-- Node18&#45;&gt;Node54 -->
<g id="edge49" class="edge">
<title>Node18&#45;&gt;Node54</title>
<path fill="none" stroke="midnightblue" d="M75.38,-985.81C77.74,-1086.4 93.3,-1539.7 184,-1639 195.14,-1651.19 211.34,-1657.79 227.35,-1661.26"/>
<polygon fill="midnightblue" stroke="midnightblue" points="78.88,-985.71 75.17,-975.79 71.88,-985.87 78.88,-985.71"/>
</g>
<!-- Node13 -->
<g id="node51" class="node">
<title>Node13</title>
<g id="a_node51"><a xlink:href="classhttp_1_1RequestProcessor.html" target="_top" xlink:title=" ">
<polygon fill="white" stroke="black" points="558,-1883.5 558,-1902.5 687,-1902.5 687,-1883.5 558,-1883.5"/>
<text text-anchor="middle" x="622.5" y="-1890.5" font-family="Helvetica,sans-Serif" font-size="10.00">http::RequestProcessor</text>
</a>
</g>
</g>
<!-- Node13&#45;&gt;Node12 -->
<g id="edge50" class="edge">
<title>Node13&#45;&gt;Node12</title>
<path fill="none" stroke="midnightblue" d="M680.78,-1904.61C707.45,-1910.01 738.78,-1916.36 764.03,-1921.48"/>
<polygon fill="midnightblue" stroke="midnightblue" points="681.31,-1901.15 670.81,-1902.59 679.92,-1908.01 681.31,-1901.15"/>
</g>
<!-- Node14 -->
<g id="node52" class="node">
<title>Node14</title>
<g id="a_node52"><a xlink:href="structhttp_1_1SimpleRequestProcessor.html" target="_top" xlink:title=" ">
<polygon fill="white" stroke="black" points="730.5,-1883.5 730.5,-1902.5 893.5,-1902.5 893.5,-1883.5 730.5,-1883.5"/>
<text text-anchor="middle" x="812" y="-1890.5" font-family="Helvetica,sans-Serif" font-size="10.00">http::SimpleRequestProcessor</text>
</a>
</g>
</g>
<!-- Node13&#45;&gt;Node14 -->
<g id="edge51" class="edge">
<title>Node13&#45;&gt;Node14</title>
<path fill="none" stroke="midnightblue" d="M697.42,-1893C708.17,-1893 719.29,-1893 730.17,-1893"/>
<polygon fill="midnightblue" stroke="midnightblue" points="697.24,-1889.5 687.24,-1893 697.24,-1896.5 697.24,-1889.5"/>
</g>
<!-- Node8 -->
<g id="node53" class="node">
<title>Node8</title>
<g id="a_node53"><a xlink:href="classhttp_1_1ResponseProcessor.html" target="_top" xlink:title=" ">
<polygon fill="white" stroke="black" points="554,-1997.5 554,-2016.5 691,-2016.5 691,-1997.5 554,-1997.5"/>
<text text-anchor="middle" x="622.5" y="-2004.5" font-family="Helvetica,sans-Serif" font-size="10.00">http::ResponseProcessor</text>
</a>
</g>
</g>
<!-- Node8&#45;&gt;Node6 -->
<g id="edge53" class="edge">
<title>Node8&#45;&gt;Node6</title>
<path fill="none" stroke="midnightblue" d="M680.78,-1995.39C707.45,-1989.99 738.78,-1983.64 764.03,-1978.52"/>
<polygon fill="midnightblue" stroke="midnightblue" points="679.92,-1991.99 670.81,-1997.41 681.31,-1998.85 679.92,-1991.99"/>
</g>
<!-- Node9 -->
<g id="node54" class="node">
<title>Node9</title>
<g id="a_node54"><a xlink:href="classclient_1_1HttpRpcTlsClient.html" target="_top" xlink:title=" ">
<polygon fill="white" stroke="black" points="746.5,-2035.5 746.5,-2054.5 877.5,-2054.5 877.5,-2035.5 746.5,-2035.5"/>
<text text-anchor="middle" x="812" y="-2042.5" font-family="Helvetica,sans-Serif" font-size="10.00">client::HttpRpcTlsClient</text>
</a>
</g>
</g>
<!-- Node8&#45;&gt;Node9 -->
<g id="edge52" class="edge">
<title>Node8&#45;&gt;Node9</title>
<path fill="none" stroke="midnightblue" d="M680.78,-2018.61C707.45,-2024.01 738.78,-2030.36 764.03,-2035.48"/>
<polygon fill="midnightblue" stroke="midnightblue" points="681.31,-2015.15 670.81,-2016.59 679.92,-2022.01 681.31,-2015.15"/>
</g>
<!-- Node11 -->
<g id="node55" class="node">
<title>Node11</title>
<g id="a_node55"><a xlink:href="structhttp_1_1SimpleResponseProcessor.html" target="_top" xlink:title=" ">
<polygon fill="white" stroke="black" points="727,-1997.5 727,-2016.5 897,-2016.5 897,-1997.5 727,-1997.5"/>
<text text-anchor="middle" x="812" y="-2004.5" font-family="Helvetica,sans-Serif" font-size="10.00">http::SimpleResponseProcessor</text>
</a>
</g>
</g>
<!-- Node8&#45;&gt;Node11 -->
<g id="edge54" class="edge">
<title>Node8&#45;&gt;Node11</title>
<path fill="none" stroke="midnightblue" d="M701.32,-2007C709.71,-2007 718.28,-2007 726.75,-2007"/>
<polygon fill="midnightblue" stroke="midnightblue" points="701.19,-2003.5 691.19,-2007 701.19,-2010.5 701.19,-2003.5"/>
</g>
<!-- Node10 -->
<g id="node56" class="node">
<title>Node10</title>
<g id="a_node56"><a xlink:href="classclient_1_1TlsClient.html" target="_top" xlink:title=" ">
<polygon fill="white" stroke="black" points="576.5,-2035.5 576.5,-2054.5 668.5,-2054.5 668.5,-2035.5 576.5,-2035.5"/>
<text text-anchor="middle" x="622.5" y="-2042.5" font-family="Helvetica,sans-Serif" font-size="10.00">client::TlsClient</text>
</a>
</g>
</g>
<!-- Node10&#45;&gt;Node9 -->
<g id="edge55" class="edge">
<title>Node10&#45;&gt;Node9</title>
<path fill="none" stroke="midnightblue" d="M678.97,-2045C700.07,-2045 724.3,-2045 746.19,-2045"/>
<polygon fill="midnightblue" stroke="midnightblue" points="678.89,-2041.5 668.89,-2045 678.89,-2048.5 678.89,-2041.5"/>
</g>
</g>
</svg>
