<?xml version="1.0" encoding="UTF-8" standalone="no"?>
<!DOCTYPE svg PUBLIC "-//W3C//DTD SVG 1.1//EN"
 "http://www.w3.org/Graphics/SVG/1.1/DTD/svg11.dtd">
<!-- Generated by graphviz version 2.43.0 (0)
 -->
<!-- Title: src/enclave/interface.h Pages: 1 -->
<svg width="1421pt" height="420pt"
 viewBox="0.00 0.00 1420.91 420.00" xmlns="http://www.w3.org/2000/svg" xmlns:xlink="http://www.w3.org/1999/xlink">
<g id="graph0" class="graph" transform="scale(1 1) rotate(0) translate(4 416)">
<title>src/enclave/interface.h</title>
<polygon fill="white" stroke="transparent" points="-4,4 -4,-416 1416.91,-416 1416.91,4 -4,4"/>
<!-- Node1 -->
<g id="node1" class="node">
<title>Node1</title>
<g id="a_node1"><a xlink:title=" ">
<polygon fill="#bfbfbf" stroke="black" points="1045.41,-392.5 1045.41,-411.5 1173.41,-411.5 1173.41,-392.5 1045.41,-392.5"/>
<text text-anchor="middle" x="1109.41" y="-399.5" font-family="Helvetica,sans-Serif" font-size="10.00">src/enclave/interface.h</text>
</a>
</g>
</g>
<!-- Node2 -->
<g id="node2" class="node">
<title>Node2</title>
<g id="a_node2"><a xlink:href="oversized_8h.html" target="_top" xlink:title=" ">
<polygon fill="white" stroke="black" points="818.91,-336.5 818.91,-355.5 905.91,-355.5 905.91,-336.5 818.91,-336.5"/>
<text text-anchor="middle" x="862.41" y="-343.5" font-family="Helvetica,sans-Serif" font-size="10.00">ds/oversized.h</text>
</a>
</g>
</g>
<!-- Node1&#45;&gt;Node2 -->
<g id="edge1" class="edge">
<title>Node1&#45;&gt;Node2</title>
<path fill="none" stroke="midnightblue" d="M1070.27,-392.44C1027.18,-383.02 957.85,-367.87 911.24,-357.68"/>
<polygon fill="midnightblue" stroke="midnightblue" points="911.88,-354.23 901.37,-355.52 910.39,-361.07 911.88,-354.23"/>
</g>
<!-- Node19 -->
<g id="node19" class="node">
<title>Node19</title>
<g id="a_node19"><a xlink:href="ring__buffer__types_8h.html" target="_top" xlink:title=" ">
<polygon fill="white" stroke="black" points="843.41,-168.5 843.41,-187.5 953.41,-187.5 953.41,-168.5 843.41,-168.5"/>
<text text-anchor="middle" x="898.41" y="-175.5" font-family="Helvetica,sans-Serif" font-size="10.00">ring_buffer_types.h</text>
</a>
</g>
</g>
<!-- Node1&#45;&gt;Node19 -->
<g id="edge65" class="edge">
<title>Node1&#45;&gt;Node19</title>
<path fill="none" stroke="midnightblue" d="M1103.54,-392.15C1085.2,-364.94 1026.52,-280.87 964.41,-224 951.57,-212.24 935.45,-201.2 922.36,-192.99"/>
<polygon fill="midnightblue" stroke="midnightblue" points="923.81,-189.77 913.45,-187.55 920.16,-195.75 923.81,-189.77"/>
</g>
<!-- Node24 -->
<g id="node24" class="node">
<title>Node24</title>
<g id="a_node24"><a xlink:title=" ">
<polygon fill="white" stroke="#bfbfbf" points="941.91,-0.5 941.91,-19.5 988.91,-19.5 988.91,-0.5 941.91,-0.5"/>
<text text-anchor="middle" x="965.41" y="-7.5" font-family="Helvetica,sans-Serif" font-size="10.00">vector</text>
</a>
</g>
</g>
<!-- Node1&#45;&gt;Node24 -->
<g id="edge67" class="edge">
<title>Node1&#45;&gt;Node24</title>
<path fill="none" stroke="midnightblue" d="M1133.51,-392.41C1169.84,-377.75 1234.41,-344.19 1234.41,-291 1234.41,-291 1234.41,-291 1234.41,-121 1234.41,-87.31 1222.99,-75.35 1195.41,-56 1164.2,-34.1 1055.41,-20.15 999.36,-14.24"/>
<polygon fill="midnightblue" stroke="midnightblue" points="999.53,-10.74 989.22,-13.2 998.81,-17.7 999.53,-10.74"/>
</g>
<!-- Node42 -->
<g id="node42" class="node">
<title>Node42</title>
<g id="a_node42"><a xlink:title=" ">
<polygon fill="white" stroke="#bfbfbf" points="1262.41,-336.5 1262.41,-355.5 1312.41,-355.5 1312.41,-336.5 1262.41,-336.5"/>
<text text-anchor="middle" x="1287.41" y="-343.5" font-family="Helvetica,sans-Serif" font-size="10.00">chrono</text>
</a>
</g>
</g>
<!-- Node1&#45;&gt;Node42 -->
<g id="edge66" class="edge">
<title>Node1&#45;&gt;Node42</title>
<path fill="none" stroke="midnightblue" d="M1137.62,-392.44C1168.71,-383.01 1218.77,-367.82 1252.36,-357.63"/>
<polygon fill="midnightblue" stroke="midnightblue" points="1253.66,-360.9 1262.22,-354.64 1251.63,-354.2 1253.66,-360.9"/>
</g>
<!-- Node3 -->
<g id="node3" class="node">
<title>Node3</title>
<g id="a_node3"><a xlink:href="messaging_8h.html" target="_top" xlink:title=" ">
<polygon fill="white" stroke="black" points="869.91,-280.5 869.91,-299.5 948.91,-299.5 948.91,-280.5 869.91,-280.5"/>
<text text-anchor="middle" x="909.41" y="-287.5" font-family="Helvetica,sans-Serif" font-size="10.00">messaging.h</text>
</a>
</g>
</g>
<!-- Node2&#45;&gt;Node3 -->
<g id="edge2" class="edge">
<title>Node2&#45;&gt;Node3</title>
<path fill="none" stroke="midnightblue" d="M870.17,-336.08C876.95,-328.3 886.95,-316.8 895.17,-307.37"/>
<polygon fill="midnightblue" stroke="midnightblue" points="897.87,-309.59 901.79,-299.75 892.59,-305 897.87,-309.59"/>
</g>
<!-- Node6 -->
<g id="node6" class="node">
<title>Node6</title>
<g id="a_node6"><a xlink:title=" ">
<polygon fill="white" stroke="#bfbfbf" points="78.91,-112.5 78.91,-131.5 157.91,-131.5 157.91,-112.5 78.91,-112.5"/>
<text text-anchor="middle" x="118.41" y="-119.5" font-family="Helvetica,sans-Serif" font-size="10.00">fmt/format.h</text>
</a>
</g>
</g>
<!-- Node2&#45;&gt;Node6 -->
<g id="edge63" class="edge">
<title>Node2&#45;&gt;Node6</title>
<path fill="none" stroke="midnightblue" d="M818.89,-343.59C664.53,-337.61 147.07,-308.69 47.41,-188 30.83,-167.92 60.75,-148.19 86.7,-135.84"/>
<polygon fill="midnightblue" stroke="midnightblue" points="88.33,-138.94 95.99,-131.63 85.44,-132.57 88.33,-138.94"/>
</g>
<!-- Node18 -->
<g id="node18" class="node">
<title>Node18</title>
<g id="a_node18"><a xlink:href="ring__buffer_8h.html" target="_top" xlink:title=" ">
<polygon fill="white" stroke="black" points="753.91,-224.5 753.91,-243.5 830.91,-243.5 830.91,-224.5 753.91,-224.5"/>
<text text-anchor="middle" x="792.41" y="-231.5" font-family="Helvetica,sans-Serif" font-size="10.00">ring_buffer.h</text>
</a>
</g>
</g>
<!-- Node2&#45;&gt;Node18 -->
<g id="edge61" class="edge">
<title>Node2&#45;&gt;Node18</title>
<path fill="none" stroke="midnightblue" d="M818.72,-339.6C793.94,-334.06 764.88,-322.81 749.41,-300 737.84,-282.93 755.29,-263.14 771.31,-249.93"/>
<polygon fill="midnightblue" stroke="midnightblue" points="773.63,-252.56 779.39,-243.66 769.34,-247.02 773.63,-252.56"/>
</g>
<!-- Node33 -->
<g id="node33" class="node">
<title>Node33</title>
<g id="a_node33"><a xlink:href="serialized_8h.html" target="_top" xlink:title=" ">
<polygon fill="white" stroke="black" points="928.91,-56.5 928.91,-75.5 1001.91,-75.5 1001.91,-56.5 928.91,-56.5"/>
<text text-anchor="middle" x="965.41" y="-63.5" font-family="Helvetica,sans-Serif" font-size="10.00">serialized.h</text>
</a>
</g>
</g>
<!-- Node2&#45;&gt;Node33 -->
<g id="edge62" class="edge">
<title>Node2&#45;&gt;Node33</title>
<path fill="none" stroke="midnightblue" d="M905.97,-343.67C974.16,-339 1098.41,-318.97 1098.41,-235 1098.41,-235 1098.41,-235 1098.41,-177 1098.41,-126.73 1041.28,-95.1 1001.91,-79.27"/>
<polygon fill="midnightblue" stroke="midnightblue" points="1002.92,-75.91 992.33,-75.59 1000.4,-82.45 1002.92,-75.91"/>
</g>
<!-- Node41 -->
<g id="node41" class="node">
<title>Node41</title>
<g id="a_node41"><a xlink:title=" ">
<polygon fill="white" stroke="#bfbfbf" points="758.91,-280.5 758.91,-299.5 851.91,-299.5 851.91,-280.5 758.91,-280.5"/>
<text text-anchor="middle" x="805.41" y="-287.5" font-family="Helvetica,sans-Serif" font-size="10.00">unordered_map</text>
</a>
</g>
</g>
<!-- Node2&#45;&gt;Node41 -->
<g id="edge64" class="edge">
<title>Node2&#45;&gt;Node41</title>
<path fill="none" stroke="midnightblue" d="M853.25,-336.32C844.91,-328.42 832.38,-316.55 822.23,-306.94"/>
<polygon fill="midnightblue" stroke="midnightblue" points="824.4,-304.17 814.74,-299.83 819.59,-309.25 824.4,-304.17"/>
</g>
<!-- Node4 -->
<g id="node4" class="node">
<title>Node4</title>
<g id="a_node4"><a xlink:href="logger_8h.html" target="_top" xlink:title=" ">
<polygon fill="white" stroke="black" points="383.91,-224.5 383.91,-243.5 470.91,-243.5 470.91,-224.5 383.91,-224.5"/>
<text text-anchor="middle" x="427.41" y="-231.5" font-family="Helvetica,sans-Serif" font-size="10.00">ccf/ds/logger.h</text>
</a>
</g>
</g>
<!-- Node3&#45;&gt;Node4 -->
<g id="edge3" class="edge">
<title>Node3&#45;&gt;Node4</title>
<path fill="none" stroke="midnightblue" d="M869.87,-281.46C866.68,-280.94 863.49,-280.44 860.41,-280 724.46,-260.48 563.33,-246 481.27,-239.24"/>
<polygon fill="midnightblue" stroke="midnightblue" points="481.44,-235.74 471.19,-238.41 480.87,-242.72 481.44,-235.74"/>
</g>
<!-- Node10 -->
<g id="node10" class="node">
<title>Node10</title>
<g id="a_node10"><a xlink:title=" ">
<polygon fill="white" stroke="#bfbfbf" points="12.41,-112.5 12.41,-131.5 50.41,-131.5 50.41,-112.5 12.41,-112.5"/>
<text text-anchor="middle" x="31.41" y="-119.5" font-family="Helvetica,sans-Serif" font-size="10.00">map</text>
</a>
</g>
</g>
<!-- Node3&#45;&gt;Node10 -->
<g id="edge59" class="edge">
<title>Node3&#45;&gt;Node10</title>
<path fill="none" stroke="midnightblue" d="M869.89,-281.36C866.69,-280.86 863.5,-280.4 860.41,-280 680.07,-256.83 180.51,-311.87 47.41,-188 34.8,-176.26 31.43,-156.33 30.83,-141.62"/>
<polygon fill="midnightblue" stroke="midnightblue" points="34.33,-141.61 30.8,-131.62 27.33,-141.63 34.33,-141.61"/>
</g>
<!-- Node3&#45;&gt;Node18 -->
<g id="edge19" class="edge">
<title>Node3&#45;&gt;Node18</title>
<path fill="none" stroke="midnightblue" d="M890.87,-280.44C871.79,-271.64 841.84,-257.81 819.98,-247.72"/>
<polygon fill="midnightblue" stroke="midnightblue" points="821.41,-244.53 810.86,-243.52 818.48,-250.88 821.41,-244.53"/>
</g>
<!-- Node35 -->
<g id="node35" class="node">
<title>Node35</title>
<g id="a_node35"><a xlink:title=" ">
<polygon fill="white" stroke="#bfbfbf" points="1276.91,-0.5 1276.91,-19.5 1341.91,-19.5 1341.91,-0.5 1276.91,-0.5"/>
<text text-anchor="middle" x="1309.41" y="-7.5" font-family="Helvetica,sans-Serif" font-size="10.00">stdexcept</text>
</a>
</g>
</g>
<!-- Node3&#45;&gt;Node35 -->
<g id="edge60" class="edge">
<title>Node3&#45;&gt;Node35</title>
<path fill="none" stroke="midnightblue" d="M949.16,-285.16C1044.17,-273.6 1283.93,-229.77 1383.41,-76 1397.56,-54.13 1368.68,-35.28 1342.97,-23.59"/>
<polygon fill="midnightblue" stroke="midnightblue" points="1344.29,-20.35 1333.72,-19.62 1341.53,-26.78 1344.29,-20.35"/>
</g>
<!-- Node38 -->
<g id="node38" class="node">
<title>Node38</title>
<g id="a_node38"><a xlink:title=" ">
<polygon fill="white" stroke="#bfbfbf" points="904.41,-112.5 904.41,-131.5 954.41,-131.5 954.41,-112.5 904.41,-112.5"/>
<text text-anchor="middle" x="929.41" y="-119.5" font-family="Helvetica,sans-Serif" font-size="10.00">atomic</text>
</a>
</g>
</g>
<!-- Node3&#45;&gt;Node38 -->
<g id="edge57" class="edge">
<title>Node3&#45;&gt;Node38</title>
<path fill="none" stroke="midnightblue" d="M926.61,-280.39C939.66,-272.79 956.64,-260.39 964.41,-244 969.38,-233.5 973.36,-199.54 962.41,-168 958.77,-157.52 951.78,-147.4 945.17,-139.43"/>
<polygon fill="midnightblue" stroke="midnightblue" points="947.57,-136.86 938.31,-131.7 942.33,-141.5 947.57,-136.86"/>
</g>
<!-- Node40 -->
<g id="node40" class="node">
<title>Node40</title>
<g id="a_node40"><a xlink:title=" ">
<polygon fill="white" stroke="#bfbfbf" points="848.91,-224.5 848.91,-243.5 955.91,-243.5 955.91,-224.5 848.91,-224.5"/>
<text text-anchor="middle" x="902.41" y="-231.5" font-family="Helvetica,sans-Serif" font-size="10.00">condition_variable</text>
</a>
</g>
</g>
<!-- Node3&#45;&gt;Node40 -->
<g id="edge58" class="edge">
<title>Node3&#45;&gt;Node40</title>
<path fill="none" stroke="midnightblue" d="M908.26,-280.08C907.33,-272.93 905.99,-262.64 904.83,-253.69"/>
<polygon fill="midnightblue" stroke="midnightblue" points="908.3,-253.22 903.55,-243.75 901.36,-254.12 908.3,-253.22"/>
</g>
<!-- Node5 -->
<g id="node5" class="node">
<title>Node5</title>
<g id="a_node5"><a xlink:href="enum__formatter_8h.html" target="_top" xlink:title=" ">
<polygon fill="white" stroke="black" points="64.41,-168.5 64.41,-187.5 200.41,-187.5 200.41,-168.5 64.41,-168.5"/>
<text text-anchor="middle" x="132.41" y="-175.5" font-family="Helvetica,sans-Serif" font-size="10.00">ccf/ds/enum_formatter.h</text>
</a>
</g>
</g>
<!-- Node4&#45;&gt;Node5 -->
<g id="edge4" class="edge">
<title>Node4&#45;&gt;Node5</title>
<path fill="none" stroke="midnightblue" d="M383.88,-225.03C332.17,-215.57 245.78,-199.75 188.95,-189.35"/>
<polygon fill="midnightblue" stroke="midnightblue" points="189.51,-185.89 179.04,-187.54 188.25,-192.78 189.51,-185.89"/>
</g>
<!-- Node4&#45;&gt;Node6 -->
<g id="edge13" class="edge">
<title>Node4&#45;&gt;Node6</title>
<path fill="none" stroke="midnightblue" d="M383.84,-230.92C290.29,-226.01 76.91,-212.25 55.41,-188 39.03,-169.52 66.5,-149.24 90.15,-136.33"/>
<polygon fill="midnightblue" stroke="midnightblue" points="92,-139.31 99.26,-131.6 88.77,-133.1 92,-139.31"/>
</g>
<!-- Node7 -->
<g id="node7" class="node">
<title>Node7</title>
<g id="a_node7"><a xlink:href="thread__ids_8h.html" target="_top" xlink:title=" ">
<polygon fill="white" stroke="black" points="218.41,-168.5 218.41,-187.5 326.41,-187.5 326.41,-168.5 218.41,-168.5"/>
<text text-anchor="middle" x="272.41" y="-175.5" font-family="Helvetica,sans-Serif" font-size="10.00">ccf/ds/thread_ids.h</text>
</a>
</g>
</g>
<!-- Node4&#45;&gt;Node7 -->
<g id="edge6" class="edge">
<title>Node4&#45;&gt;Node7</title>
<path fill="none" stroke="midnightblue" d="M402.85,-224.44C376.89,-215.4 335.74,-201.06 306.61,-190.92"/>
<polygon fill="midnightblue" stroke="midnightblue" points="307.45,-187.5 296.86,-187.52 305.15,-194.11 307.45,-187.5"/>
</g>
<!-- Node12 -->
<g id="node12" class="node">
<title>Node12</title>
<g id="a_node12"><a xlink:title=" ">
<polygon fill="white" stroke="#bfbfbf" points="344.91,-168.5 344.91,-187.5 423.91,-187.5 423.91,-168.5 344.91,-168.5"/>
<text text-anchor="middle" x="384.41" y="-175.5" font-family="Helvetica,sans-Serif" font-size="10.00">fmt/chrono.h</text>
</a>
</g>
</g>
<!-- Node4&#45;&gt;Node12 -->
<g id="edge12" class="edge">
<title>Node4&#45;&gt;Node12</title>
<path fill="none" stroke="midnightblue" d="M420.31,-224.08C414.17,-216.38 405.14,-205.03 397.67,-195.65"/>
<polygon fill="midnightblue" stroke="midnightblue" points="400.35,-193.39 391.38,-187.75 394.87,-197.75 400.35,-193.39"/>
</g>
<!-- Node13 -->
<g id="node13" class="node">
<title>Node13</title>
<g id="a_node13"><a xlink:title=" ">
<polygon fill="white" stroke="#bfbfbf" points="441.41,-168.5 441.41,-187.5 501.41,-187.5 501.41,-168.5 441.41,-168.5"/>
<text text-anchor="middle" x="471.41" y="-175.5" font-family="Helvetica,sans-Serif" font-size="10.00">iostream</text>
</a>
</g>
</g>
<!-- Node4&#45;&gt;Node13 -->
<g id="edge14" class="edge">
<title>Node4&#45;&gt;Node13</title>
<path fill="none" stroke="midnightblue" d="M434.68,-224.08C440.96,-216.38 450.2,-205.03 457.84,-195.65"/>
<polygon fill="midnightblue" stroke="midnightblue" points="460.68,-197.71 464.28,-187.75 455.25,-193.29 460.68,-197.71"/>
</g>
<!-- Node14 -->
<g id="node14" class="node">
<title>Node14</title>
<g id="a_node14"><a xlink:title=" ">
<polygon fill="white" stroke="#bfbfbf" points="519.41,-168.5 519.41,-187.5 629.41,-187.5 629.41,-168.5 519.41,-168.5"/>
<text text-anchor="middle" x="574.41" y="-175.5" font-family="Helvetica,sans-Serif" font-size="10.00">nlohmann/json.hpp</text>
</a>
</g>
</g>
<!-- Node4&#45;&gt;Node14 -->
<g id="edge15" class="edge">
<title>Node4&#45;&gt;Node14</title>
<path fill="none" stroke="midnightblue" d="M450.7,-224.44C475.22,-215.44 514.01,-201.19 541.61,-191.05"/>
<polygon fill="midnightblue" stroke="midnightblue" points="543.05,-194.25 551.23,-187.52 540.63,-187.68 543.05,-194.25"/>
</g>
<!-- Node15 -->
<g id="node15" class="node">
<title>Node15</title>
<g id="a_node15"><a xlink:title=" ">
<polygon fill="white" stroke="#bfbfbf" points="490.41,-112.5 490.41,-131.5 546.41,-131.5 546.41,-112.5 490.41,-112.5"/>
<text text-anchor="middle" x="518.41" y="-119.5" font-family="Helvetica,sans-Serif" font-size="10.00">optional</text>
</a>
</g>
</g>
<!-- Node4&#45;&gt;Node15 -->
<g id="edge16" class="edge">
<title>Node4&#45;&gt;Node15</title>
<path fill="none" stroke="midnightblue" d="M471.22,-229.99C526.76,-225.15 617.79,-213.48 638.41,-188 644,-181.09 643.47,-175.31 638.41,-168 628.72,-154.01 587.77,-140.68 556.38,-132.21"/>
<polygon fill="midnightblue" stroke="midnightblue" points="557.14,-128.79 546.58,-129.63 555.36,-135.56 557.14,-128.79"/>
</g>
<!-- Node16 -->
<g id="node16" class="node">
<title>Node16</title>
<g id="a_node16"><a xlink:title=" ">
<polygon fill="white" stroke="#bfbfbf" points="685.41,-168.5 685.41,-187.5 741.41,-187.5 741.41,-168.5 685.41,-168.5"/>
<text text-anchor="middle" x="713.41" y="-175.5" font-family="Helvetica,sans-Serif" font-size="10.00">sstream</text>
</a>
</g>
</g>
<!-- Node4&#45;&gt;Node16 -->
<g id="edge17" class="edge">
<title>Node4&#45;&gt;Node16</title>
<path fill="none" stroke="midnightblue" d="M471.12,-225.33C520,-216.66 601.5,-201.93 671.41,-188 672.65,-187.75 673.9,-187.5 675.17,-187.24"/>
<polygon fill="midnightblue" stroke="midnightblue" points="675.89,-190.67 684.97,-185.21 674.47,-183.81 675.89,-190.67"/>
</g>
<!-- Node17 -->
<g id="node17" class="node">
<title>Node17</title>
<g id="a_node17"><a xlink:title=" ">
<polygon fill="white" stroke="#bfbfbf" points="328.91,-0.5 328.91,-19.5 397.91,-19.5 397.91,-0.5 328.91,-0.5"/>
<text text-anchor="middle" x="363.41" y="-7.5" font-family="Helvetica,sans-Serif" font-size="10.00">type_traits</text>
</a>
</g>
</g>
<!-- Node4&#45;&gt;Node17 -->
<g id="edge18" class="edge">
<title>Node4&#45;&gt;Node17</title>
<path fill="none" stroke="midnightblue" d="M383.6,-231.98C296.28,-229.29 104.12,-219.82 47.41,-188 19.81,-172.51 13.76,-161.91 3.41,-132 0.51,-123.6 -1.96,-119.08 3.41,-112 41.7,-61.49 231.03,-29.27 318.71,-16.83"/>
<polygon fill="midnightblue" stroke="midnightblue" points="319.21,-20.29 328.63,-15.44 318.24,-13.36 319.21,-20.29"/>
</g>
<!-- Node5&#45;&gt;Node6 -->
<g id="edge5" class="edge">
<title>Node5&#45;&gt;Node6</title>
<path fill="none" stroke="midnightblue" d="M130.1,-168.08C128.24,-160.93 125.58,-150.64 123.26,-141.69"/>
<polygon fill="midnightblue" stroke="midnightblue" points="126.58,-140.55 120.68,-131.75 119.8,-142.31 126.58,-140.55"/>
</g>
<!-- Node7&#45;&gt;Node6 -->
<g id="edge7" class="edge">
<title>Node7&#45;&gt;Node6</title>
<path fill="none" stroke="midnightblue" d="M248.01,-168.44C222.21,-159.4 181.33,-145.06 152.39,-134.92"/>
<polygon fill="midnightblue" stroke="midnightblue" points="153.29,-131.52 142.7,-131.52 150.98,-138.13 153.29,-131.52"/>
</g>
<!-- Node8 -->
<g id="node8" class="node">
<title>Node8</title>
<g id="a_node8"><a xlink:title=" ">
<polygon fill="white" stroke="#bfbfbf" points="242.41,-112.5 242.41,-131.5 328.41,-131.5 328.41,-112.5 242.41,-112.5"/>
<text text-anchor="middle" x="285.41" y="-119.5" font-family="Helvetica,sans-Serif" font-size="10.00">fmt/ostream.h</text>
</a>
</g>
</g>
<!-- Node7&#45;&gt;Node8 -->
<g id="edge8" class="edge">
<title>Node7&#45;&gt;Node8</title>
<path fill="none" stroke="midnightblue" d="M274.56,-168.08C276.28,-160.93 278.76,-150.64 280.91,-141.69"/>
<polygon fill="midnightblue" stroke="midnightblue" points="284.37,-142.29 283.3,-131.75 277.56,-140.65 284.37,-142.29"/>
</g>
<!-- Node9 -->
<g id="node9" class="node">
<title>Node9</title>
<g id="a_node9"><a xlink:title=" ">
<polygon fill="white" stroke="#bfbfbf" points="346.41,-112.5 346.41,-131.5 390.41,-131.5 390.41,-112.5 346.41,-112.5"/>
<text text-anchor="middle" x="368.41" y="-119.5" font-family="Helvetica,sans-Serif" font-size="10.00">limits</text>
</a>
</g>
</g>
<!-- Node7&#45;&gt;Node9 -->
<g id="edge9" class="edge">
<title>Node7&#45;&gt;Node9</title>
<path fill="none" stroke="midnightblue" d="M287.84,-168.32C302.95,-159.82 326.23,-146.73 343.88,-136.8"/>
<polygon fill="midnightblue" stroke="midnightblue" points="346.03,-139.61 353.03,-131.65 342.59,-133.51 346.03,-139.61"/>
</g>
<!-- Node7&#45;&gt;Node10 -->
<g id="edge10" class="edge">
<title>Node7&#45;&gt;Node10</title>
<path fill="none" stroke="midnightblue" d="M233.08,-168.46C192.15,-159.53 126.24,-145.03 69.41,-132 66.56,-131.35 63.59,-130.66 60.63,-129.96"/>
<polygon fill="midnightblue" stroke="midnightblue" points="61.27,-126.52 50.73,-127.63 59.66,-133.33 61.27,-126.52"/>
</g>
<!-- Node11 -->
<g id="node11" class="node">
<title>Node11</title>
<g id="a_node11"><a xlink:title=" ">
<polygon fill="white" stroke="#bfbfbf" points="176.41,-112.5 176.41,-131.5 224.41,-131.5 224.41,-112.5 176.41,-112.5"/>
<text text-anchor="middle" x="200.41" y="-119.5" font-family="Helvetica,sans-Serif" font-size="10.00">thread</text>
</a>
</g>
</g>
<!-- Node7&#45;&gt;Node11 -->
<g id="edge11" class="edge">
<title>Node7&#45;&gt;Node11</title>
<path fill="none" stroke="midnightblue" d="M260.84,-168.32C249.99,-160.18 233.53,-147.84 220.53,-138.09"/>
<polygon fill="midnightblue" stroke="midnightblue" points="222.29,-135.03 212.19,-131.83 218.09,-140.63 222.29,-135.03"/>
</g>
<!-- Node18&#45;&gt;Node19 -->
<g id="edge20" class="edge">
<title>Node18&#45;&gt;Node19</title>
<path fill="none" stroke="midnightblue" d="M809.44,-224.32C826.44,-215.66 852.79,-202.24 872.4,-192.25"/>
<polygon fill="midnightblue" stroke="midnightblue" points="874.1,-195.31 881.42,-187.65 870.92,-189.08 874.1,-195.31"/>
</g>
<!-- Node34 -->
<g id="node34" class="node">
<title>Node34</title>
<g id="a_node34"><a xlink:title=" ">
<polygon fill="white" stroke="#bfbfbf" points="826.41,-0.5 826.41,-19.5 876.41,-19.5 876.41,-0.5 826.41,-0.5"/>
<text text-anchor="middle" x="851.41" y="-7.5" font-family="Helvetica,sans-Serif" font-size="10.00">cstring</text>
</a>
</g>
</g>
<!-- Node18&#45;&gt;Node34 -->
<g id="edge55" class="edge">
<title>Node18&#45;&gt;Node34</title>
<path fill="none" stroke="midnightblue" d="M831.04,-225.32C878.63,-215.48 954.22,-198.45 962.41,-188 983.25,-161.42 977.88,-142.53 963.41,-112 952.59,-89.17 938.34,-92.74 919.41,-76 901.01,-59.72 880.74,-40.12 867.17,-26.73"/>
<polygon fill="midnightblue" stroke="midnightblue" points="869.58,-24.19 860.01,-19.63 864.65,-29.16 869.58,-24.19"/>
</g>
<!-- Node39 -->
<g id="node39" class="node">
<title>Node39</title>
<g id="a_node39"><a xlink:title=" ">
<polygon fill="white" stroke="#bfbfbf" points="759.91,-168.5 759.91,-187.5 824.91,-187.5 824.91,-168.5 759.91,-168.5"/>
<text text-anchor="middle" x="792.41" y="-175.5" font-family="Helvetica,sans-Serif" font-size="10.00">functional</text>
</a>
</g>
</g>
<!-- Node18&#45;&gt;Node39 -->
<g id="edge56" class="edge">
<title>Node18&#45;&gt;Node39</title>
<path fill="none" stroke="midnightblue" d="M792.41,-224.08C792.41,-217.01 792.41,-206.86 792.41,-197.99"/>
<polygon fill="midnightblue" stroke="midnightblue" points="795.91,-197.75 792.41,-187.75 788.91,-197.75 795.91,-197.75"/>
</g>
<!-- Node19&#45;&gt;Node6 -->
<g id="edge51" class="edge">
<title>Node19&#45;&gt;Node6</title>
<path fill="none" stroke="midnightblue" d="M843.13,-169.03C839.84,-168.65 836.59,-168.31 833.41,-168 541.65,-139.97 463.54,-166.24 168.08,-131.9"/>
<polygon fill="midnightblue" stroke="midnightblue" points="168.27,-128.4 157.93,-130.71 167.45,-135.35 168.27,-128.4"/>
</g>
<!-- Node19&#45;&gt;Node15 -->
<g id="edge52" class="edge">
<title>Node19&#45;&gt;Node15</title>
<path fill="none" stroke="midnightblue" d="M843.1,-169.32C839.82,-168.87 836.57,-168.43 833.41,-168 712.13,-151.61 681.01,-152.84 560.41,-132 559.17,-131.79 557.91,-131.56 556.64,-131.33"/>
<polygon fill="midnightblue" stroke="midnightblue" points="557.3,-127.89 546.82,-129.41 555.96,-134.76 557.3,-127.89"/>
</g>
<!-- Node20 -->
<g id="node20" class="node">
<title>Node20</title>
<g id="a_node20"><a xlink:href="include_2ccf_2ds_2hash_8h.html" target="_top" xlink:title=" ">
<polygon fill="white" stroke="black" points="1126.41,-112.5 1126.41,-131.5 1206.41,-131.5 1206.41,-112.5 1126.41,-112.5"/>
<text text-anchor="middle" x="1166.41" y="-119.5" font-family="Helvetica,sans-Serif" font-size="10.00">ccf/ds/hash.h</text>
</a>
</g>
</g>
<!-- Node19&#45;&gt;Node20 -->
<g id="edge21" class="edge">
<title>Node19&#45;&gt;Node20</title>
<path fill="none" stroke="midnightblue" d="M940.88,-168.44C988.52,-158.84 1065.72,-143.29 1116.28,-133.1"/>
<polygon fill="midnightblue" stroke="midnightblue" points="1117.22,-136.48 1126.33,-131.08 1115.84,-129.62 1117.22,-136.48"/>
</g>
<!-- Node19&#45;&gt;Node24 -->
<g id="edge54" class="edge">
<title>Node19&#45;&gt;Node24</title>
<path fill="none" stroke="midnightblue" d="M896.69,-168.48C894.47,-155.96 891.32,-131.92 895.41,-112 900.86,-85.47 904.11,-78.34 919.41,-56 926.95,-44.99 937.47,-34.46 946.54,-26.36"/>
<polygon fill="midnightblue" stroke="midnightblue" points="949.04,-28.82 954.35,-19.65 944.48,-23.52 949.04,-28.82"/>
</g>
<!-- Node27 -->
<g id="node27" class="node">
<title>Node27</title>
<g id="a_node27"><a xlink:href="nonstd_8h.html" target="_top" xlink:title=" ">
<polygon fill="white" stroke="black" points="494.41,-56.5 494.41,-75.5 584.41,-75.5 584.41,-56.5 494.41,-56.5"/>
<text text-anchor="middle" x="539.41" y="-63.5" font-family="Helvetica,sans-Serif" font-size="10.00">ccf/ds/nonstd.h</text>
</a>
</g>
</g>
<!-- Node19&#45;&gt;Node27 -->
<g id="edge30" class="edge">
<title>Node19&#45;&gt;Node27</title>
<path fill="none" stroke="midnightblue" d="M843.22,-169.2C758.06,-157.09 603.78,-134.87 598.41,-132 577.71,-120.92 560.56,-99.65 550.18,-84.45"/>
<polygon fill="midnightblue" stroke="midnightblue" points="553.02,-82.39 544.63,-75.92 547.15,-86.21 553.02,-82.39"/>
</g>
<!-- Node30 -->
<g id="node30" class="node">
<title>Node30</title>
<g id="a_node30"><a xlink:title=" ">
<polygon fill="white" stroke="#bfbfbf" points="717.41,-0.5 717.41,-19.5 761.41,-19.5 761.41,-0.5 717.41,-0.5"/>
<text text-anchor="middle" x="739.41" y="-7.5" font-family="Helvetica,sans-Serif" font-size="10.00">string</text>
</a>
</g>
</g>
<!-- Node19&#45;&gt;Node30 -->
<g id="edge53" class="edge">
<title>Node19&#45;&gt;Node30</title>
<path fill="none" stroke="midnightblue" d="M843.18,-169.1C789.41,-160.74 712.03,-146.74 685.41,-132 655.17,-115.25 644.35,-108.06 631.41,-76 628.08,-67.76 626.48,-63.4 631.41,-56 635.94,-49.2 677.4,-33.19 707.6,-22.22"/>
<polygon fill="midnightblue" stroke="midnightblue" points="709.12,-25.39 717.35,-18.71 706.75,-18.81 709.12,-25.39"/>
</g>
<!-- Node32 -->
<g id="node32" class="node">
<title>Node32</title>
<g id="a_node32"><a xlink:href="serializer_8h.html" target="_top" xlink:title=" ">
<polygon fill="white" stroke="black" points="694.41,-112.5 694.41,-131.5 764.41,-131.5 764.41,-112.5 694.41,-112.5"/>
<text text-anchor="middle" x="729.41" y="-119.5" font-family="Helvetica,sans-Serif" font-size="10.00">serializer.h</text>
</a>
</g>
</g>
<!-- Node19&#45;&gt;Node32 -->
<g id="edge38" class="edge">
<title>Node19&#45;&gt;Node32</title>
<path fill="none" stroke="midnightblue" d="M871.63,-168.44C843.08,-159.32 797.68,-144.81 765.87,-134.65"/>
<polygon fill="midnightblue" stroke="midnightblue" points="766.66,-131.23 756.06,-131.52 764.52,-137.89 766.66,-131.23"/>
</g>
<!-- Node19&#45;&gt;Node38 -->
<g id="edge50" class="edge">
<title>Node19&#45;&gt;Node38</title>
<path fill="none" stroke="midnightblue" d="M903.53,-168.08C907.82,-160.61 914.07,-149.72 919.35,-140.52"/>
<polygon fill="midnightblue" stroke="midnightblue" points="922.44,-142.17 924.39,-131.75 916.37,-138.68 922.44,-142.17"/>
</g>
<!-- Node21 -->
<g id="node21" class="node">
<title>Node21</title>
<g id="a_node21"><a xlink:href="siphash_8h.html" target="_top" xlink:title=" ">
<polygon fill="white" stroke="black" points="1262.91,-56.5 1262.91,-75.5 1357.91,-75.5 1357.91,-56.5 1262.91,-56.5"/>
<text text-anchor="middle" x="1310.41" y="-63.5" font-family="Helvetica,sans-Serif" font-size="10.00">ccf/ds/siphash.h</text>
</a>
</g>
</g>
<!-- Node20&#45;&gt;Node21 -->
<g id="edge22" class="edge">
<title>Node20&#45;&gt;Node21</title>
<path fill="none" stroke="midnightblue" d="M1189.23,-112.44C1213.24,-103.44 1251.24,-89.19 1278.28,-79.05"/>
<polygon fill="midnightblue" stroke="midnightblue" points="1279.57,-82.3 1287.7,-75.52 1277.11,-75.75 1279.57,-82.3"/>
</g>
<!-- Node23 -->
<g id="node23" class="node">
<title>Node23</title>
<g id="a_node23"><a xlink:title=" ">
<polygon fill="white" stroke="#bfbfbf" points="1208.41,-0.5 1208.41,-19.5 1258.41,-19.5 1258.41,-0.5 1208.41,-0.5"/>
<text text-anchor="middle" x="1233.41" y="-7.5" font-family="Helvetica,sans-Serif" font-size="10.00">cstdint</text>
</a>
</g>
</g>
<!-- Node20&#45;&gt;Node23 -->
<g id="edge27" class="edge">
<title>Node20&#45;&gt;Node23</title>
<path fill="none" stroke="midnightblue" d="M1206.82,-117.8C1259.61,-112.69 1347.68,-100.63 1367.41,-76 1372.97,-69.06 1372.6,-63.22 1367.41,-56 1361.44,-47.69 1306.35,-31.1 1268.69,-20.55"/>
<polygon fill="midnightblue" stroke="midnightblue" points="1269.16,-17.05 1258.59,-17.75 1267.29,-23.8 1269.16,-17.05"/>
</g>
<!-- Node20&#45;&gt;Node24 -->
<g id="edge29" class="edge">
<title>Node20&#45;&gt;Node24</title>
<path fill="none" stroke="midnightblue" d="M1171.68,-112.35C1179.18,-98.78 1190.67,-72.36 1177.41,-56 1155.38,-28.8 1053.35,-17.36 999.27,-13.15"/>
<polygon fill="midnightblue" stroke="midnightblue" points="999.37,-9.65 989.14,-12.4 998.85,-16.63 999.37,-9.65"/>
</g>
<!-- Node25 -->
<g id="node25" class="node">
<title>Node25</title>
<g id="a_node25"><a xlink:title=" ">
<polygon fill="white" stroke="#bfbfbf" points="657.41,-0.5 657.41,-19.5 699.41,-19.5 699.41,-0.5 657.41,-0.5"/>
<text text-anchor="middle" x="678.41" y="-7.5" font-family="Helvetica,sans-Serif" font-size="10.00">array</text>
</a>
</g>
</g>
<!-- Node20&#45;&gt;Node25 -->
<g id="edge26" class="edge">
<title>Node20&#45;&gt;Node25</title>
<path fill="none" stroke="midnightblue" d="M1126,-114.65C1076.92,-106.7 991.73,-92.16 919.41,-76 827.77,-55.53 803.33,-46.95 709.32,-20.21"/>
<polygon fill="midnightblue" stroke="midnightblue" points="710.27,-16.84 699.69,-17.48 708.36,-23.57 710.27,-16.84"/>
</g>
<!-- Node26 -->
<g id="node26" class="node">
<title>Node26</title>
<g id="a_node26"><a xlink:title=" ">
<polygon fill="white" stroke="#bfbfbf" points="1019.91,-56.5 1019.91,-75.5 1168.91,-75.5 1168.91,-56.5 1019.91,-56.5"/>
<text text-anchor="middle" x="1094.41" y="-63.5" font-family="Helvetica,sans-Serif" font-size="10.00">small_vector/SmallVector.h</text>
</a>
</g>
</g>
<!-- Node20&#45;&gt;Node26 -->
<g id="edge28" class="edge">
<title>Node20&#45;&gt;Node26</title>
<path fill="none" stroke="midnightblue" d="M1154.84,-112.32C1143.99,-104.18 1127.53,-91.84 1114.53,-82.09"/>
<polygon fill="midnightblue" stroke="midnightblue" points="1116.29,-79.03 1106.19,-75.83 1112.09,-84.63 1116.29,-79.03"/>
</g>
<!-- Node22 -->
<g id="node22" class="node">
<title>Node22</title>
<g id="a_node22"><a xlink:title=" ">
<polygon fill="white" stroke="#bfbfbf" points="1359.91,-0.5 1359.91,-19.5 1412.91,-19.5 1412.91,-0.5 1359.91,-0.5"/>
<text text-anchor="middle" x="1386.41" y="-7.5" font-family="Helvetica,sans-Serif" font-size="10.00">cstddef</text>
</a>
</g>
</g>
<!-- Node21&#45;&gt;Node22 -->
<g id="edge23" class="edge">
<title>Node21&#45;&gt;Node22</title>
<path fill="none" stroke="midnightblue" d="M1322.62,-56.32C1334.19,-48.11 1351.79,-35.6 1365.57,-25.81"/>
<polygon fill="midnightblue" stroke="midnightblue" points="1367.85,-28.48 1373.98,-19.83 1363.8,-22.77 1367.85,-28.48"/>
</g>
<!-- Node21&#45;&gt;Node23 -->
<g id="edge24" class="edge">
<title>Node21&#45;&gt;Node23</title>
<path fill="none" stroke="midnightblue" d="M1298.04,-56.32C1286.25,-48.06 1268.28,-35.45 1254.28,-25.63"/>
<polygon fill="midnightblue" stroke="midnightblue" points="1255.95,-22.53 1245.75,-19.65 1251.93,-28.26 1255.95,-22.53"/>
</g>
<!-- Node21&#45;&gt;Node24 -->
<g id="edge25" class="edge">
<title>Node21&#45;&gt;Node24</title>
<path fill="none" stroke="midnightblue" d="M1262.8,-57.55C1192.03,-46.47 1060.82,-25.93 999.12,-16.28"/>
<polygon fill="midnightblue" stroke="midnightblue" points="999.56,-12.8 989.14,-14.71 998.48,-19.72 999.56,-12.8"/>
</g>
<!-- Node27&#45;&gt;Node17 -->
<g id="edge36" class="edge">
<title>Node27&#45;&gt;Node17</title>
<path fill="none" stroke="midnightblue" d="M511.52,-56.44C481.66,-47.28 434.1,-32.69 400.96,-22.52"/>
<polygon fill="midnightblue" stroke="midnightblue" points="401.76,-19.1 391.17,-19.52 399.7,-25.8 401.76,-19.1"/>
</g>
<!-- Node27&#45;&gt;Node24 -->
<g id="edge37" class="edge">
<title>Node27&#45;&gt;Node24</title>
<path fill="none" stroke="midnightblue" d="M584.6,-59.27C670.49,-48.38 855.55,-24.93 931.66,-15.28"/>
<polygon fill="midnightblue" stroke="midnightblue" points="932.17,-18.74 941.65,-14.01 931.29,-11.8 932.17,-18.74"/>
</g>
<!-- Node27&#45;&gt;Node25 -->
<g id="edge32" class="edge">
<title>Node27&#45;&gt;Node25</title>
<path fill="none" stroke="midnightblue" d="M561.44,-56.44C584.79,-47.37 621.83,-32.98 647.97,-22.83"/>
<polygon fill="midnightblue" stroke="midnightblue" points="649.35,-26.05 657.4,-19.16 646.81,-19.52 649.35,-26.05"/>
</g>
<!-- Node28 -->
<g id="node28" class="node">
<title>Node28</title>
<g id="a_node28"><a xlink:title=" ">
<polygon fill="white" stroke="#bfbfbf" points="507.41,-0.5 507.41,-19.5 571.41,-19.5 571.41,-0.5 507.41,-0.5"/>
<text text-anchor="middle" x="539.41" y="-7.5" font-family="Helvetica,sans-Serif" font-size="10.00">algorithm</text>
</a>
</g>
</g>
<!-- Node27&#45;&gt;Node28 -->
<g id="edge31" class="edge">
<title>Node27&#45;&gt;Node28</title>
<path fill="none" stroke="midnightblue" d="M539.41,-56.08C539.41,-49.01 539.41,-38.86 539.41,-29.99"/>
<polygon fill="midnightblue" stroke="midnightblue" points="542.91,-29.75 539.41,-19.75 535.91,-29.75 542.91,-29.75"/>
</g>
<!-- Node29 -->
<g id="node29" class="node">
<title>Node29</title>
<g id="a_node29"><a xlink:title=" ">
<polygon fill="white" stroke="#bfbfbf" points="589.91,-0.5 589.91,-19.5 638.91,-19.5 638.91,-0.5 589.91,-0.5"/>
<text text-anchor="middle" x="614.41" y="-7.5" font-family="Helvetica,sans-Serif" font-size="10.00">cctype</text>
</a>
</g>
</g>
<!-- Node27&#45;&gt;Node29 -->
<g id="edge33" class="edge">
<title>Node27&#45;&gt;Node29</title>
<path fill="none" stroke="midnightblue" d="M551.46,-56.32C562.87,-48.11 580.24,-35.6 593.85,-25.81"/>
<polygon fill="midnightblue" stroke="midnightblue" points="596.07,-28.52 602.14,-19.83 591.98,-22.84 596.07,-28.52"/>
</g>
<!-- Node27&#45;&gt;Node30 -->
<g id="edge34" class="edge">
<title>Node27&#45;&gt;Node30</title>
<path fill="none" stroke="midnightblue" d="M572.5,-56.42C604.62,-48.05 654.98,-34.78 707.29,-20.27"/>
<polygon fill="midnightblue" stroke="midnightblue" points="708.38,-23.6 717.08,-17.55 706.5,-16.86 708.38,-23.6"/>
</g>
<!-- Node31 -->
<g id="node31" class="node">
<title>Node31</title>
<g id="a_node31"><a xlink:title=" ">
<polygon fill="white" stroke="#bfbfbf" points="415.91,-0.5 415.91,-19.5 488.91,-19.5 488.91,-0.5 415.91,-0.5"/>
<text text-anchor="middle" x="452.41" y="-7.5" font-family="Helvetica,sans-Serif" font-size="10.00">string_view</text>
</a>
</g>
</g>
<!-- Node27&#45;&gt;Node31 -->
<g id="edge35" class="edge">
<title>Node27&#45;&gt;Node31</title>
<path fill="none" stroke="midnightblue" d="M525.43,-56.32C511.86,-47.9 491.03,-34.97 475.09,-25.07"/>
<polygon fill="midnightblue" stroke="midnightblue" points="476.7,-21.95 466.35,-19.65 473.01,-27.9 476.7,-21.95"/>
</g>
<!-- Node32&#45;&gt;Node17 -->
<g id="edge48" class="edge">
<title>Node32&#45;&gt;Node17</title>
<path fill="none" stroke="midnightblue" d="M694.2,-117.93C645.98,-112.96 557.19,-101.06 485.41,-76 448.21,-63.01 408.54,-39.94 384.87,-25.07"/>
<polygon fill="midnightblue" stroke="midnightblue" points="386.65,-22.05 376.34,-19.62 382.88,-27.95 386.65,-22.05"/>
</g>
<!-- Node32&#45;&gt;Node24 -->
<g id="edge49" class="edge">
<title>Node32&#45;&gt;Node24</title>
<path fill="none" stroke="midnightblue" d="M747.93,-112.37C789.2,-93.13 888.93,-46.65 937.67,-23.93"/>
<polygon fill="midnightblue" stroke="midnightblue" points="939.39,-26.99 946.98,-19.59 936.44,-20.64 939.39,-26.99"/>
</g>
<!-- Node32&#45;&gt;Node27 -->
<g id="edge39" class="edge">
<title>Node32&#45;&gt;Node27</title>
<path fill="none" stroke="midnightblue" d="M699.31,-112.44C666.79,-103.2 614.83,-88.44 579.02,-78.26"/>
<polygon fill="midnightblue" stroke="midnightblue" points="579.95,-74.88 569.38,-75.52 578.04,-81.62 579.95,-74.88"/>
</g>
<!-- Node32&#45;&gt;Node33 -->
<g id="edge40" class="edge">
<title>Node32&#45;&gt;Node33</title>
<path fill="none" stroke="midnightblue" d="M764.49,-112.97C805.43,-103.61 873.31,-88.07 918.7,-77.69"/>
<polygon fill="midnightblue" stroke="midnightblue" points="919.62,-81.07 928.59,-75.43 918.06,-74.25 919.62,-81.07"/>
</g>
<!-- Node36 -->
<g id="node36" class="node">
<title>Node36</title>
<g id="a_node36"><a xlink:title=" ">
<polygon fill="white" stroke="#bfbfbf" points="700.41,-56.5 700.41,-75.5 758.41,-75.5 758.41,-56.5 700.41,-56.5"/>
<text text-anchor="middle" x="729.41" y="-63.5" font-family="Helvetica,sans-Serif" font-size="10.00">memory</text>
</a>
</g>
</g>
<!-- Node32&#45;&gt;Node36 -->
<g id="edge46" class="edge">
<title>Node32&#45;&gt;Node36</title>
<path fill="none" stroke="midnightblue" d="M729.41,-112.08C729.41,-105.01 729.41,-94.86 729.41,-85.99"/>
<polygon fill="midnightblue" stroke="midnightblue" points="732.91,-85.75 729.41,-75.75 725.91,-85.75 732.91,-85.75"/>
</g>
<!-- Node37 -->
<g id="node37" class="node">
<title>Node37</title>
<g id="a_node37"><a xlink:title=" ">
<polygon fill="white" stroke="#bfbfbf" points="640.91,-56.5 640.91,-75.5 681.91,-75.5 681.91,-56.5 640.91,-56.5"/>
<text text-anchor="middle" x="661.41" y="-63.5" font-family="Helvetica,sans-Serif" font-size="10.00">tuple</text>
</a>
</g>
</g>
<!-- Node32&#45;&gt;Node37 -->
<g id="edge47" class="edge">
<title>Node32&#45;&gt;Node37</title>
<path fill="none" stroke="midnightblue" d="M718.49,-112.32C708.24,-104.18 692.69,-91.84 680.41,-82.09"/>
<polygon fill="midnightblue" stroke="midnightblue" points="682.54,-79.31 672.54,-75.83 678.19,-84.79 682.54,-79.31"/>
</g>
<!-- Node33&#45;&gt;Node23 -->
<g id="edge41" class="edge">
<title>Node33&#45;&gt;Node23</title>
<path fill="none" stroke="midnightblue" d="M1002.11,-57.6C1053.88,-47.17 1147.69,-28.27 1198.48,-18.04"/>
<polygon fill="midnightblue" stroke="midnightblue" points="1199.22,-21.46 1208.34,-16.05 1197.84,-14.6 1199.22,-21.46"/>
</g>
<!-- Node33&#45;&gt;Node24 -->
<g id="edge45" class="edge">
<title>Node33&#45;&gt;Node24</title>
<path fill="none" stroke="midnightblue" d="M965.41,-56.08C965.41,-49.01 965.41,-38.86 965.41,-29.99"/>
<polygon fill="midnightblue" stroke="midnightblue" points="968.91,-29.75 965.41,-19.75 961.91,-29.75 968.91,-29.75"/>
</g>
<!-- Node33&#45;&gt;Node30 -->
<g id="edge44" class="edge">
<title>Node33&#45;&gt;Node30</title>
<path fill="none" stroke="midnightblue" d="M929.6,-56.44C886.11,-46.05 813.41,-28.68 771.62,-18.7"/>
<polygon fill="midnightblue" stroke="midnightblue" points="772.24,-15.24 761.7,-16.32 770.61,-22.05 772.24,-15.24"/>
</g>
<!-- Node33&#45;&gt;Node34 -->
<g id="edge42" class="edge">
<title>Node33&#45;&gt;Node34</title>
<path fill="none" stroke="midnightblue" d="M947.35,-56.44C928.84,-47.68 899.83,-33.94 878.56,-23.86"/>
<polygon fill="midnightblue" stroke="midnightblue" points="879.93,-20.63 869.39,-19.52 876.93,-26.96 879.93,-20.63"/>
</g>
<!-- Node33&#45;&gt;Node35 -->
<g id="edge43" class="edge">
<title>Node33&#45;&gt;Node35</title>
<path fill="none" stroke="midnightblue" d="M1002.22,-57.46C1004.99,-56.95 1007.74,-56.45 1010.41,-56 1121.01,-37.21 1152.15,-39.93 1267.01,-19.95"/>
<polygon fill="midnightblue" stroke="midnightblue" points="1267.65,-23.39 1276.9,-18.21 1266.44,-16.49 1267.65,-23.39"/>
</g>
</g>
</svg>
