<?xml version="1.0" encoding="UTF-8" standalone="no"?>
<!DOCTYPE svg PUBLIC "-//W3C//DTD SVG 1.1//EN"
 "http://www.w3.org/Graphics/SVG/1.1/DTD/svg11.dtd">
<!-- Generated by graphviz version 2.43.0 (0)
 -->
<!-- Title: src/host/lfs_file_handler.h Pages: 1 -->
<svg width="1814pt" height="386pt"
 viewBox="0.00 0.00 1814.00 386.00" xmlns="http://www.w3.org/2000/svg" xmlns:xlink="http://www.w3.org/1999/xlink">
<g id="graph0" class="graph" transform="scale(1 1) rotate(0) translate(4 382)">
<title>src/host/lfs_file_handler.h</title>
<polygon fill="white" stroke="transparent" points="-4,4 -4,-382 1810,-382 1810,4 -4,4"/>
<!-- Node1 -->
<g id="node1" class="node">
<title>Node1</title>
<g id="a_node1"><a xlink:title=" ">
<polygon fill="#bfbfbf" stroke="black" points="826,-358.5 826,-377.5 966,-377.5 966,-358.5 826,-358.5"/>
<text text-anchor="middle" x="896" y="-365.5" font-family="Helvetica,sans-Serif" font-size="10.00">src/host/lfs_file_handler.h</text>
</a>
</g>
</g>
<!-- Node2 -->
<g id="node2" class="node">
<title>Node2</title>
<g id="a_node2"><a xlink:href="messaging_8h.html" target="_top" xlink:title=" ">
<polygon fill="white" stroke="black" points="494.5,-302.5 494.5,-321.5 587.5,-321.5 587.5,-302.5 494.5,-302.5"/>
<text text-anchor="middle" x="541" y="-309.5" font-family="Helvetica,sans-Serif" font-size="10.00">ds/messaging.h</text>
</a>
</g>
</g>
<!-- Node1&#45;&gt;Node2 -->
<g id="edge1" class="edge">
<title>Node1&#45;&gt;Node2</title>
<path fill="none" stroke="midnightblue" d="M839.75,-358.44C773.59,-348.38 664.38,-331.77 597.93,-321.66"/>
<polygon fill="midnightblue" stroke="midnightblue" points="598.06,-318.14 587.64,-320.1 597,-325.06 598.06,-318.14"/>
</g>
<!-- Node40 -->
<g id="node40" class="node">
<title>Node40</title>
<g id="a_node40"><a xlink:href="lfs__ringbuffer__types_8h.html" target="_top" xlink:title=" ">
<polygon fill="white" stroke="black" points="1009,-235.5 1009,-265.5 1135,-265.5 1135,-235.5 1009,-235.5"/>
<text text-anchor="start" x="1017" y="-253.5" font-family="Helvetica,sans-Serif" font-size="10.00">indexing/lfs_ringbuffer</text>
<text text-anchor="middle" x="1072" y="-242.5" font-family="Helvetica,sans-Serif" font-size="10.00">_types.h</text>
</a>
</g>
</g>
<!-- Node1&#45;&gt;Node40 -->
<g id="edge60" class="edge">
<title>Node1&#45;&gt;Node40</title>
<path fill="none" stroke="midnightblue" d="M890.64,-358.44C882.97,-345 871.15,-318.76 884,-302 891.36,-292.4 949.32,-277.74 998.96,-266.68"/>
<polygon fill="midnightblue" stroke="midnightblue" points="999.74,-270.09 1008.76,-264.52 998.24,-263.26 999.74,-270.09"/>
</g>
<!-- Node43 -->
<g id="node43" class="node">
<title>Node43</title>
<g id="a_node43"><a xlink:title=" ">
<polygon fill="white" stroke="#bfbfbf" points="893,-302.5 893,-321.5 961,-321.5 961,-302.5 893,-302.5"/>
<text text-anchor="middle" x="927" y="-309.5" font-family="Helvetica,sans-Serif" font-size="10.00">filesystem</text>
</a>
</g>
</g>
<!-- Node1&#45;&gt;Node43 -->
<g id="edge67" class="edge">
<title>Node1&#45;&gt;Node43</title>
<path fill="none" stroke="midnightblue" d="M901.12,-358.08C905.41,-350.61 911.66,-339.72 916.94,-330.52"/>
<polygon fill="midnightblue" stroke="midnightblue" points="920.03,-332.17 921.98,-321.75 913.96,-328.68 920.03,-332.17"/>
</g>
<!-- Node44 -->
<g id="node44" class="node">
<title>Node44</title>
<g id="a_node44"><a xlink:title=" ">
<polygon fill="white" stroke="#bfbfbf" points="979.5,-302.5 979.5,-321.5 1034.5,-321.5 1034.5,-302.5 979.5,-302.5"/>
<text text-anchor="middle" x="1007" y="-309.5" font-family="Helvetica,sans-Serif" font-size="10.00">fstream</text>
</a>
</g>
</g>
<!-- Node1&#45;&gt;Node44 -->
<g id="edge68" class="edge">
<title>Node1&#45;&gt;Node44</title>
<path fill="none" stroke="midnightblue" d="M913.83,-358.32C931.72,-349.62 959.48,-336.12 980.05,-326.11"/>
<polygon fill="midnightblue" stroke="midnightblue" points="981.75,-329.18 989.21,-321.65 978.69,-322.88 981.75,-329.18"/>
</g>
<!-- Node3 -->
<g id="node3" class="node">
<title>Node3</title>
<g id="a_node3"><a xlink:href="logger_8h.html" target="_top" xlink:title=" ">
<polygon fill="white" stroke="black" points="497.5,-241 497.5,-260 584.5,-260 584.5,-241 497.5,-241"/>
<text text-anchor="middle" x="541" y="-248" font-family="Helvetica,sans-Serif" font-size="10.00">ccf/ds/logger.h</text>
</a>
</g>
</g>
<!-- Node2&#45;&gt;Node3 -->
<g id="edge2" class="edge">
<title>Node2&#45;&gt;Node3</title>
<path fill="none" stroke="midnightblue" d="M541,-302.48C541,-294.08 541,-280.98 541,-270.16"/>
<polygon fill="midnightblue" stroke="midnightblue" points="544.5,-270.01 541,-260.01 537.5,-270.01 544.5,-270.01"/>
</g>
<!-- Node9 -->
<g id="node9" class="node">
<title>Node9</title>
<g id="a_node9"><a xlink:title=" ">
<polygon fill="white" stroke="#bfbfbf" points="89,-123.5 89,-142.5 127,-142.5 127,-123.5 89,-123.5"/>
<text text-anchor="middle" x="108" y="-130.5" font-family="Helvetica,sans-Serif" font-size="10.00">map</text>
</a>
</g>
</g>
<!-- Node2&#45;&gt;Node9 -->
<g id="edge58" class="edge">
<title>Node2&#45;&gt;Node9</title>
<path fill="none" stroke="midnightblue" d="M494.36,-307.4C383.9,-297.8 111.48,-267.52 57,-199 43.14,-181.57 64.84,-161.38 84.07,-148.18"/>
<polygon fill="midnightblue" stroke="midnightblue" points="86.12,-151.03 92.6,-142.65 82.3,-145.16 86.12,-151.03"/>
</g>
<!-- Node17 -->
<g id="node17" class="node">
<title>Node17</title>
<g id="a_node17"><a xlink:href="ring__buffer_8h.html" target="_top" xlink:title=" ">
<polygon fill="white" stroke="black" points="913.5,-241 913.5,-260 990.5,-260 990.5,-241 913.5,-241"/>
<text text-anchor="middle" x="952" y="-248" font-family="Helvetica,sans-Serif" font-size="10.00">ring_buffer.h</text>
</a>
</g>
</g>
<!-- Node2&#45;&gt;Node17 -->
<g id="edge18" class="edge">
<title>Node2&#45;&gt;Node17</title>
<path fill="none" stroke="midnightblue" d="M587.68,-307.26C656.34,-301.29 788.4,-287.96 899,-266 903.83,-265.04 908.87,-263.88 913.84,-262.63"/>
<polygon fill="midnightblue" stroke="midnightblue" points="915.07,-265.93 923.85,-260 913.28,-259.16 915.07,-265.93"/>
</g>
<!-- Node34 -->
<g id="node34" class="node">
<title>Node34</title>
<g id="a_node34"><a xlink:title=" ">
<polygon fill="white" stroke="#bfbfbf" points="258.5,-0.5 258.5,-19.5 323.5,-19.5 323.5,-0.5 258.5,-0.5"/>
<text text-anchor="middle" x="291" y="-7.5" font-family="Helvetica,sans-Serif" font-size="10.00">stdexcept</text>
</a>
</g>
</g>
<!-- Node2&#45;&gt;Node34 -->
<g id="edge59" class="edge">
<title>Node2&#45;&gt;Node34</title>
<path fill="none" stroke="midnightblue" d="M494.41,-310.46C363.18,-307.7 0,-290.94 0,-190 0,-190 0,-190 0,-132 0,-25.83 167.18,-11.09 248.11,-10.18"/>
<polygon fill="midnightblue" stroke="midnightblue" points="248.48,-13.67 258.47,-10.13 248.45,-6.67 248.48,-13.67"/>
</g>
<!-- Node37 -->
<g id="node37" class="node">
<title>Node37</title>
<g id="a_node37"><a xlink:title=" ">
<polygon fill="white" stroke="#bfbfbf" points="940,-123.5 940,-142.5 990,-142.5 990,-123.5 940,-123.5"/>
<text text-anchor="middle" x="965" y="-130.5" font-family="Helvetica,sans-Serif" font-size="10.00">atomic</text>
</a>
</g>
</g>
<!-- Node2&#45;&gt;Node37 -->
<g id="edge56" class="edge">
<title>Node2&#45;&gt;Node37</title>
<path fill="none" stroke="midnightblue" d="M569.32,-302.48C624.48,-285.52 749.69,-245.14 850,-199 883.51,-183.59 920.31,-161.88 943.03,-147.88"/>
<polygon fill="midnightblue" stroke="midnightblue" points="944.94,-150.82 951.58,-142.56 941.24,-144.87 944.94,-150.82"/>
</g>
<!-- Node39 -->
<g id="node39" class="node">
<title>Node39</title>
<g id="a_node39"><a xlink:title=" ">
<polygon fill="white" stroke="#bfbfbf" points="372.5,-241 372.5,-260 479.5,-260 479.5,-241 372.5,-241"/>
<text text-anchor="middle" x="426" y="-248" font-family="Helvetica,sans-Serif" font-size="10.00">condition_variable</text>
</a>
</g>
</g>
<!-- Node2&#45;&gt;Node39 -->
<g id="edge57" class="edge">
<title>Node2&#45;&gt;Node39</title>
<path fill="none" stroke="midnightblue" d="M524.52,-302.48C505.39,-292.58 473.63,-276.14 451.35,-264.62"/>
<polygon fill="midnightblue" stroke="midnightblue" points="452.94,-261.5 442.45,-260.01 449.72,-267.71 452.94,-261.5"/>
</g>
<!-- Node4 -->
<g id="node4" class="node">
<title>Node4</title>
<g id="a_node4"><a xlink:href="enum__formatter_8h.html" target="_top" xlink:title=" ">
<polygon fill="white" stroke="black" points="178,-179.5 178,-198.5 314,-198.5 314,-179.5 178,-179.5"/>
<text text-anchor="middle" x="246" y="-186.5" font-family="Helvetica,sans-Serif" font-size="10.00">ccf/ds/enum_formatter.h</text>
</a>
</g>
</g>
<!-- Node3&#45;&gt;Node4 -->
<g id="edge3" class="edge">
<title>Node3&#45;&gt;Node4</title>
<path fill="none" stroke="midnightblue" d="M511.4,-240.93C503.8,-238.86 495.62,-236.75 488,-235 427.73,-221.18 358.27,-208.6 309.27,-200.28"/>
<polygon fill="midnightblue" stroke="midnightblue" points="309.58,-196.78 299.13,-198.57 308.41,-203.69 309.58,-196.78"/>
</g>
<!-- Node5 -->
<g id="node5" class="node">
<title>Node5</title>
<g id="a_node5"><a xlink:title=" ">
<polygon fill="white" stroke="#bfbfbf" points="206.5,-123.5 206.5,-142.5 285.5,-142.5 285.5,-123.5 206.5,-123.5"/>
<text text-anchor="middle" x="246" y="-130.5" font-family="Helvetica,sans-Serif" font-size="10.00">fmt/format.h</text>
</a>
</g>
</g>
<!-- Node3&#45;&gt;Node5 -->
<g id="edge12" class="edge">
<title>Node3&#45;&gt;Node5</title>
<path fill="none" stroke="midnightblue" d="M512.86,-240.93C504.88,-238.74 496.15,-236.57 488,-235 417.94,-221.55 216.53,-252.2 169,-199 150.67,-178.49 183.9,-158.65 212.27,-146.4"/>
<polygon fill="midnightblue" stroke="midnightblue" points="213.71,-149.59 221.63,-142.55 211.05,-143.12 213.71,-149.59"/>
</g>
<!-- Node6 -->
<g id="node6" class="node">
<title>Node6</title>
<g id="a_node6"><a xlink:href="thread__ids_8h.html" target="_top" xlink:title=" ">
<polygon fill="white" stroke="black" points="332,-179.5 332,-198.5 440,-198.5 440,-179.5 332,-179.5"/>
<text text-anchor="middle" x="386" y="-186.5" font-family="Helvetica,sans-Serif" font-size="10.00">ccf/ds/thread_ids.h</text>
</a>
</g>
</g>
<!-- Node3&#45;&gt;Node6 -->
<g id="edge5" class="edge">
<title>Node3&#45;&gt;Node6</title>
<path fill="none" stroke="midnightblue" d="M518.79,-240.98C492.32,-230.81 447.89,-213.76 417.78,-202.2"/>
<polygon fill="midnightblue" stroke="midnightblue" points="418.76,-198.83 408.17,-198.51 416.25,-205.36 418.76,-198.83"/>
</g>
<!-- Node11 -->
<g id="node11" class="node">
<title>Node11</title>
<g id="a_node11"><a xlink:title=" ">
<polygon fill="white" stroke="#bfbfbf" points="458.5,-179.5 458.5,-198.5 537.5,-198.5 537.5,-179.5 458.5,-179.5"/>
<text text-anchor="middle" x="498" y="-186.5" font-family="Helvetica,sans-Serif" font-size="10.00">fmt/chrono.h</text>
</a>
</g>
</g>
<!-- Node3&#45;&gt;Node11 -->
<g id="edge11" class="edge">
<title>Node3&#45;&gt;Node11</title>
<path fill="none" stroke="midnightblue" d="M534.84,-240.98C528.39,-232.05 518.1,-217.81 510.03,-206.64"/>
<polygon fill="midnightblue" stroke="midnightblue" points="512.84,-204.56 504.15,-198.51 507.17,-208.66 512.84,-204.56"/>
</g>
<!-- Node12 -->
<g id="node12" class="node">
<title>Node12</title>
<g id="a_node12"><a xlink:title=" ">
<polygon fill="white" stroke="#bfbfbf" points="555,-179.5 555,-198.5 615,-198.5 615,-179.5 555,-179.5"/>
<text text-anchor="middle" x="585" y="-186.5" font-family="Helvetica,sans-Serif" font-size="10.00">iostream</text>
</a>
</g>
</g>
<!-- Node3&#45;&gt;Node12 -->
<g id="edge13" class="edge">
<title>Node3&#45;&gt;Node12</title>
<path fill="none" stroke="midnightblue" d="M547.3,-240.98C553.9,-232.05 564.44,-217.81 572.69,-206.64"/>
<polygon fill="midnightblue" stroke="midnightblue" points="575.58,-208.63 578.71,-198.51 569.95,-204.47 575.58,-208.63"/>
</g>
<!-- Node13 -->
<g id="node13" class="node">
<title>Node13</title>
<g id="a_node13"><a xlink:title=" ">
<polygon fill="white" stroke="#bfbfbf" points="633,-179.5 633,-198.5 743,-198.5 743,-179.5 633,-179.5"/>
<text text-anchor="middle" x="688" y="-186.5" font-family="Helvetica,sans-Serif" font-size="10.00">nlohmann/json.hpp</text>
</a>
</g>
</g>
<!-- Node3&#45;&gt;Node13 -->
<g id="edge14" class="edge">
<title>Node3&#45;&gt;Node13</title>
<path fill="none" stroke="midnightblue" d="M562.06,-240.98C587.06,-230.86 628.94,-213.9 657.49,-202.35"/>
<polygon fill="midnightblue" stroke="midnightblue" points="659.02,-205.51 666.98,-198.51 656.39,-199.02 659.02,-205.51"/>
</g>
<!-- Node14 -->
<g id="node14" class="node">
<title>Node14</title>
<g id="a_node14"><a xlink:title=" ">
<polygon fill="white" stroke="#bfbfbf" points="856,-123.5 856,-142.5 912,-142.5 912,-123.5 856,-123.5"/>
<text text-anchor="middle" x="884" y="-130.5" font-family="Helvetica,sans-Serif" font-size="10.00">optional</text>
</a>
</g>
</g>
<!-- Node3&#45;&gt;Node14 -->
<g id="edge15" class="edge">
<title>Node3&#45;&gt;Node14</title>
<path fill="none" stroke="midnightblue" d="M584.85,-250C642.81,-248.87 746.5,-240.51 823,-199 843.95,-187.63 861.77,-166.41 872.65,-151.31"/>
<polygon fill="midnightblue" stroke="midnightblue" points="875.69,-153.06 878.49,-142.84 869.93,-149.09 875.69,-153.06"/>
</g>
<!-- Node15 -->
<g id="node15" class="node">
<title>Node15</title>
<g id="a_node15"><a xlink:title=" ">
<polygon fill="white" stroke="#bfbfbf" points="66,-179.5 66,-198.5 122,-198.5 122,-179.5 66,-179.5"/>
<text text-anchor="middle" x="94" y="-186.5" font-family="Helvetica,sans-Serif" font-size="10.00">sstream</text>
</a>
</g>
</g>
<!-- Node3&#45;&gt;Node15 -->
<g id="edge16" class="edge">
<title>Node3&#45;&gt;Node15</title>
<path fill="none" stroke="midnightblue" d="M513.14,-240.95C505.09,-238.73 496.25,-236.54 488,-235 333.41,-206.15 291.34,-223.51 136,-199 134.76,-198.8 133.5,-198.59 132.22,-198.37"/>
<polygon fill="midnightblue" stroke="midnightblue" points="132.86,-194.93 122.39,-196.52 131.57,-201.81 132.86,-194.93"/>
</g>
<!-- Node16 -->
<g id="node16" class="node">
<title>Node16</title>
<g id="a_node16"><a xlink:title=" ">
<polygon fill="white" stroke="#bfbfbf" points="1251.5,-0.5 1251.5,-19.5 1320.5,-19.5 1320.5,-0.5 1251.5,-0.5"/>
<text text-anchor="middle" x="1286" y="-7.5" font-family="Helvetica,sans-Serif" font-size="10.00">type_traits</text>
</a>
</g>
</g>
<!-- Node3&#45;&gt;Node16 -->
<g id="edge17" class="edge">
<title>Node3&#45;&gt;Node16</title>
<path fill="none" stroke="midnightblue" d="M584.65,-247.36C629.74,-243.35 700.58,-231.85 752,-199 820.26,-155.39 793.85,-94.73 865,-56 936.51,-17.08 1144.25,-31.54 1241.18,-19.97"/>
<polygon fill="midnightblue" stroke="midnightblue" points="1241.89,-23.41 1251.33,-18.6 1240.95,-16.47 1241.89,-23.41"/>
</g>
<!-- Node4&#45;&gt;Node5 -->
<g id="edge4" class="edge">
<title>Node4&#45;&gt;Node5</title>
<path fill="none" stroke="midnightblue" d="M246,-179.08C246,-172.01 246,-161.86 246,-152.99"/>
<polygon fill="midnightblue" stroke="midnightblue" points="249.5,-152.75 246,-142.75 242.5,-152.75 249.5,-152.75"/>
</g>
<!-- Node6&#45;&gt;Node5 -->
<g id="edge6" class="edge">
<title>Node6&#45;&gt;Node5</title>
<path fill="none" stroke="midnightblue" d="M363.82,-179.44C340.57,-170.48 303.85,-156.31 277.58,-146.18"/>
<polygon fill="midnightblue" stroke="midnightblue" points="278.67,-142.85 268.08,-142.52 276.15,-149.38 278.67,-142.85"/>
</g>
<!-- Node7 -->
<g id="node7" class="node">
<title>Node7</title>
<g id="a_node7"><a xlink:title=" ">
<polygon fill="white" stroke="#bfbfbf" points="304,-123.5 304,-142.5 390,-142.5 390,-123.5 304,-123.5"/>
<text text-anchor="middle" x="347" y="-130.5" font-family="Helvetica,sans-Serif" font-size="10.00">fmt/ostream.h</text>
</a>
</g>
</g>
<!-- Node6&#45;&gt;Node7 -->
<g id="edge7" class="edge">
<title>Node6&#45;&gt;Node7</title>
<path fill="none" stroke="midnightblue" d="M379.56,-179.08C374.05,-171.46 365.97,-160.26 359.24,-150.94"/>
<polygon fill="midnightblue" stroke="midnightblue" points="362.01,-148.81 353.32,-142.75 356.34,-152.91 362.01,-148.81"/>
</g>
<!-- Node8 -->
<g id="node8" class="node">
<title>Node8</title>
<g id="a_node8"><a xlink:title=" ">
<polygon fill="white" stroke="#bfbfbf" points="408,-123.5 408,-142.5 452,-142.5 452,-123.5 408,-123.5"/>
<text text-anchor="middle" x="430" y="-130.5" font-family="Helvetica,sans-Serif" font-size="10.00">limits</text>
</a>
</g>
</g>
<!-- Node6&#45;&gt;Node8 -->
<g id="edge8" class="edge">
<title>Node6&#45;&gt;Node8</title>
<path fill="none" stroke="midnightblue" d="M393.27,-179.08C399.54,-171.38 408.79,-160.03 416.43,-150.65"/>
<polygon fill="midnightblue" stroke="midnightblue" points="419.27,-152.71 422.87,-142.75 413.84,-148.29 419.27,-152.71"/>
</g>
<!-- Node6&#45;&gt;Node9 -->
<g id="edge9" class="edge">
<title>Node6&#45;&gt;Node9</title>
<path fill="none" stroke="midnightblue" d="M341.95,-179.44C284.61,-168.31 185.98,-149.15 137.14,-139.66"/>
<polygon fill="midnightblue" stroke="midnightblue" points="137.72,-136.21 127.23,-137.74 136.38,-143.08 137.72,-136.21"/>
</g>
<!-- Node10 -->
<g id="node10" class="node">
<title>Node10</title>
<g id="a_node10"><a xlink:title=" ">
<polygon fill="white" stroke="#bfbfbf" points="470,-123.5 470,-142.5 518,-142.5 518,-123.5 470,-123.5"/>
<text text-anchor="middle" x="494" y="-130.5" font-family="Helvetica,sans-Serif" font-size="10.00">thread</text>
</a>
</g>
</g>
<!-- Node6&#45;&gt;Node10 -->
<g id="edge10" class="edge">
<title>Node6&#45;&gt;Node10</title>
<path fill="none" stroke="midnightblue" d="M403.35,-179.32C420.67,-170.66 447.52,-157.24 467.5,-147.25"/>
<polygon fill="midnightblue" stroke="midnightblue" points="469.31,-150.26 476.69,-142.65 466.18,-144 469.31,-150.26"/>
</g>
<!-- Node18 -->
<g id="node18" class="node">
<title>Node18</title>
<g id="a_node18"><a xlink:href="ring__buffer__types_8h.html" target="_top" xlink:title=" ">
<polygon fill="white" stroke="black" points="1010,-179.5 1010,-198.5 1120,-198.5 1120,-179.5 1010,-179.5"/>
<text text-anchor="middle" x="1065" y="-186.5" font-family="Helvetica,sans-Serif" font-size="10.00">ring_buffer_types.h</text>
</a>
</g>
</g>
<!-- Node17&#45;&gt;Node18 -->
<g id="edge19" class="edge">
<title>Node17&#45;&gt;Node18</title>
<path fill="none" stroke="midnightblue" d="M968.19,-240.98C986.9,-231.12 1017.92,-214.79 1039.8,-203.27"/>
<polygon fill="midnightblue" stroke="midnightblue" points="1041.62,-206.27 1048.84,-198.51 1038.36,-200.07 1041.62,-206.27"/>
</g>
<!-- Node33 -->
<g id="node33" class="node">
<title>Node33</title>
<g id="a_node33"><a xlink:title=" ">
<polygon fill="white" stroke="#bfbfbf" points="635,-0.5 635,-19.5 685,-19.5 685,-0.5 635,-0.5"/>
<text text-anchor="middle" x="660" y="-7.5" font-family="Helvetica,sans-Serif" font-size="10.00">cstring</text>
</a>
</g>
</g>
<!-- Node17&#45;&gt;Node33 -->
<g id="edge54" class="edge">
<title>Node17&#45;&gt;Node33</title>
<path fill="none" stroke="midnightblue" d="M922.35,-240.94C864.99,-222.75 738.95,-174.6 676,-87 663.98,-70.27 660.61,-46.45 659.84,-29.95"/>
<polygon fill="midnightblue" stroke="midnightblue" points="663.34,-29.81 659.66,-19.88 656.34,-29.94 663.34,-29.81"/>
</g>
<!-- Node38 -->
<g id="node38" class="node">
<title>Node38</title>
<g id="a_node38"><a xlink:title=" ">
<polygon fill="white" stroke="#bfbfbf" points="919.5,-179.5 919.5,-198.5 984.5,-198.5 984.5,-179.5 919.5,-179.5"/>
<text text-anchor="middle" x="952" y="-186.5" font-family="Helvetica,sans-Serif" font-size="10.00">functional</text>
</a>
</g>
</g>
<!-- Node17&#45;&gt;Node38 -->
<g id="edge55" class="edge">
<title>Node17&#45;&gt;Node38</title>
<path fill="none" stroke="midnightblue" d="M952,-240.98C952,-232.58 952,-219.48 952,-208.66"/>
<polygon fill="midnightblue" stroke="midnightblue" points="955.5,-208.51 952,-198.51 948.5,-208.51 955.5,-208.51"/>
</g>
<!-- Node18&#45;&gt;Node5 -->
<g id="edge50" class="edge">
<title>Node18&#45;&gt;Node5</title>
<path fill="none" stroke="midnightblue" d="M1009.62,-180.66C1004.01,-180.05 998.4,-179.48 993,-179 686.89,-152.01 605.27,-178.55 295.68,-142.9"/>
<polygon fill="midnightblue" stroke="midnightblue" points="295.85,-139.39 285.51,-141.71 295.04,-146.35 295.85,-139.39"/>
</g>
<!-- Node18&#45;&gt;Node14 -->
<g id="edge51" class="edge">
<title>Node18&#45;&gt;Node14</title>
<path fill="none" stroke="midnightblue" d="M1036.32,-179.44C1005.38,-170.21 955.98,-155.48 921.87,-145.3"/>
<polygon fill="midnightblue" stroke="midnightblue" points="922.83,-141.93 912.25,-142.43 920.83,-148.64 922.83,-141.93"/>
</g>
<!-- Node19 -->
<g id="node19" class="node">
<title>Node19</title>
<g id="a_node19"><a xlink:href="include_2ccf_2ds_2hash_8h.html" target="_top" xlink:title=" ">
<polygon fill="white" stroke="black" points="1013,-123.5 1013,-142.5 1093,-142.5 1093,-123.5 1013,-123.5"/>
<text text-anchor="middle" x="1053" y="-130.5" font-family="Helvetica,sans-Serif" font-size="10.00">ccf/ds/hash.h</text>
</a>
</g>
</g>
<!-- Node18&#45;&gt;Node19 -->
<g id="edge20" class="edge">
<title>Node18&#45;&gt;Node19</title>
<path fill="none" stroke="midnightblue" d="M1063.02,-179.08C1061.43,-171.93 1059.14,-161.64 1057.15,-152.69"/>
<polygon fill="midnightblue" stroke="midnightblue" points="1060.53,-151.75 1054.94,-142.75 1053.7,-153.27 1060.53,-151.75"/>
</g>
<!-- Node23 -->
<g id="node23" class="node">
<title>Node23</title>
<g id="a_node23"><a xlink:title=" ">
<polygon fill="white" stroke="#bfbfbf" points="1186.5,-0.5 1186.5,-19.5 1233.5,-19.5 1233.5,-0.5 1186.5,-0.5"/>
<text text-anchor="middle" x="1210" y="-7.5" font-family="Helvetica,sans-Serif" font-size="10.00">vector</text>
</a>
</g>
</g>
<!-- Node18&#45;&gt;Node23 -->
<g id="edge53" class="edge">
<title>Node18&#45;&gt;Node23</title>
<path fill="none" stroke="midnightblue" d="M1073.39,-179.38C1089.87,-162.31 1127.37,-122.73 1156,-87 1171.59,-67.54 1187.97,-43.99 1198.54,-28.31"/>
<polygon fill="midnightblue" stroke="midnightblue" points="1201.67,-29.93 1204.32,-19.67 1195.85,-26.04 1201.67,-29.93"/>
</g>
<!-- Node26 -->
<g id="node26" class="node">
<title>Node26</title>
<g id="a_node26"><a xlink:href="nonstd_8h.html" target="_top" xlink:title=" ">
<polygon fill="white" stroke="black" points="1497,-62 1497,-81 1587,-81 1587,-62 1497,-62"/>
<text text-anchor="middle" x="1542" y="-69" font-family="Helvetica,sans-Serif" font-size="10.00">ccf/ds/nonstd.h</text>
</a>
</g>
</g>
<!-- Node18&#45;&gt;Node26 -->
<g id="edge29" class="edge">
<title>Node18&#45;&gt;Node26</title>
<path fill="none" stroke="midnightblue" d="M1120.16,-181.77C1175.9,-174.81 1264.24,-161.97 1339,-143 1401.71,-127.09 1472.6,-100.38 1511.82,-84.81"/>
<polygon fill="midnightblue" stroke="midnightblue" points="1513.34,-87.98 1521.32,-81.01 1510.74,-81.48 1513.34,-87.98"/>
</g>
<!-- Node29 -->
<g id="node29" class="node">
<title>Node29</title>
<g id="a_node29"><a xlink:title=" ">
<polygon fill="white" stroke="#bfbfbf" points="1640,-0.5 1640,-19.5 1684,-19.5 1684,-0.5 1640,-0.5"/>
<text text-anchor="middle" x="1662" y="-7.5" font-family="Helvetica,sans-Serif" font-size="10.00">string</text>
</a>
</g>
</g>
<!-- Node18&#45;&gt;Node29 -->
<g id="edge52" class="edge">
<title>Node18&#45;&gt;Node29</title>
<path fill="none" stroke="midnightblue" d="M1120.01,-182.6C1239.15,-170.09 1516.64,-136.42 1596,-87 1620.03,-72.03 1640.08,-45.58 1651.56,-28.16"/>
<polygon fill="midnightblue" stroke="midnightblue" points="1654.62,-29.87 1657.03,-19.55 1648.71,-26.12 1654.62,-29.87"/>
</g>
<!-- Node31 -->
<g id="node31" class="node">
<title>Node31</title>
<g id="a_node31"><a xlink:href="serializer_8h.html" target="_top" xlink:title=" ">
<polygon fill="white" stroke="black" points="1260,-123.5 1260,-142.5 1330,-142.5 1330,-123.5 1260,-123.5"/>
<text text-anchor="middle" x="1295" y="-130.5" font-family="Helvetica,sans-Serif" font-size="10.00">serializer.h</text>
</a>
</g>
</g>
<!-- Node18&#45;&gt;Node31 -->
<g id="edge37" class="edge">
<title>Node18&#45;&gt;Node31</title>
<path fill="none" stroke="midnightblue" d="M1101.44,-179.44C1141.67,-170 1206.45,-154.79 1249.85,-144.6"/>
<polygon fill="midnightblue" stroke="midnightblue" points="1250.92,-147.94 1259.86,-142.25 1249.32,-141.13 1250.92,-147.94"/>
</g>
<!-- Node18&#45;&gt;Node37 -->
<g id="edge49" class="edge">
<title>Node18&#45;&gt;Node37</title>
<path fill="none" stroke="midnightblue" d="M1048.93,-179.32C1033.04,-170.74 1008.49,-157.49 990.04,-147.52"/>
<polygon fill="midnightblue" stroke="midnightblue" points="991.49,-144.33 981.03,-142.65 988.16,-150.49 991.49,-144.33"/>
</g>
<!-- Node20 -->
<g id="node20" class="node">
<title>Node20</title>
<g id="a_node20"><a xlink:href="siphash_8h.html" target="_top" xlink:title=" ">
<polygon fill="white" stroke="black" points="685.5,-62 685.5,-81 780.5,-81 780.5,-62 685.5,-62"/>
<text text-anchor="middle" x="733" y="-69" font-family="Helvetica,sans-Serif" font-size="10.00">ccf/ds/siphash.h</text>
</a>
</g>
</g>
<!-- Node19&#45;&gt;Node20 -->
<g id="edge21" class="edge">
<title>Node19&#45;&gt;Node20</title>
<path fill="none" stroke="midnightblue" d="M1012.8,-124.52C956.15,-113.99 852.63,-94.74 788.64,-82.84"/>
<polygon fill="midnightblue" stroke="midnightblue" points="789.19,-79.39 778.72,-81 787.91,-86.27 789.19,-79.39"/>
</g>
<!-- Node22 -->
<g id="node22" class="node">
<title>Node22</title>
<g id="a_node22"><a xlink:title=" ">
<polygon fill="white" stroke="#bfbfbf" points="822,-0.5 822,-19.5 872,-19.5 872,-0.5 822,-0.5"/>
<text text-anchor="middle" x="847" y="-7.5" font-family="Helvetica,sans-Serif" font-size="10.00">cstdint</text>
</a>
</g>
</g>
<!-- Node19&#45;&gt;Node22 -->
<g id="edge26" class="edge">
<title>Node19&#45;&gt;Node22</title>
<path fill="none" stroke="midnightblue" d="M1012.89,-124.71C960.86,-114.9 875.46,-97.48 865,-87 850.14,-72.1 846.68,-47.34 846.26,-30.14"/>
<polygon fill="midnightblue" stroke="midnightblue" points="849.77,-29.7 846.35,-19.66 842.77,-29.63 849.77,-29.7"/>
</g>
<!-- Node19&#45;&gt;Node23 -->
<g id="edge28" class="edge">
<title>Node19&#45;&gt;Node23</title>
<path fill="none" stroke="midnightblue" d="M1067.63,-123.46C1082.08,-114.82 1104.64,-100.8 1123,-87 1148.62,-67.74 1176.17,-42.9 1193.24,-26.96"/>
<polygon fill="midnightblue" stroke="midnightblue" points="1195.85,-29.31 1200.73,-19.91 1191.05,-24.22 1195.85,-29.31"/>
</g>
<!-- Node24 -->
<g id="node24" class="node">
<title>Node24</title>
<g id="a_node24"><a xlink:title=" ">
<polygon fill="white" stroke="#bfbfbf" points="1339,-0.5 1339,-19.5 1381,-19.5 1381,-0.5 1339,-0.5"/>
<text text-anchor="middle" x="1360" y="-7.5" font-family="Helvetica,sans-Serif" font-size="10.00">array</text>
</a>
</g>
</g>
<!-- Node19&#45;&gt;Node24 -->
<g id="edge25" class="edge">
<title>Node19&#45;&gt;Node24</title>
<path fill="none" stroke="midnightblue" d="M1074.59,-123.49C1128.11,-102.4 1267.09,-47.62 1329.21,-23.13"/>
<polygon fill="midnightblue" stroke="midnightblue" points="1330.82,-26.26 1338.84,-19.34 1328.26,-19.75 1330.82,-26.26"/>
</g>
<!-- Node25 -->
<g id="node25" class="node">
<title>Node25</title>
<g id="a_node25"><a xlink:title=" ">
<polygon fill="white" stroke="#bfbfbf" points="874.5,-62 874.5,-81 1023.5,-81 1023.5,-62 874.5,-62"/>
<text text-anchor="middle" x="949" y="-69" font-family="Helvetica,sans-Serif" font-size="10.00">small_vector/SmallVector.h</text>
</a>
</g>
</g>
<!-- Node19&#45;&gt;Node25 -->
<g id="edge27" class="edge">
<title>Node19&#45;&gt;Node25</title>
<path fill="none" stroke="midnightblue" d="M1038.1,-123.48C1021.03,-113.71 992.84,-97.58 972.74,-86.08"/>
<polygon fill="midnightblue" stroke="midnightblue" points="974.29,-82.94 963.87,-81.01 970.81,-89.01 974.29,-82.94"/>
</g>
<!-- Node21 -->
<g id="node21" class="node">
<title>Node21</title>
<g id="a_node21"><a xlink:title=" ">
<polygon fill="white" stroke="#bfbfbf" points="706.5,-0.5 706.5,-19.5 759.5,-19.5 759.5,-0.5 706.5,-0.5"/>
<text text-anchor="middle" x="733" y="-7.5" font-family="Helvetica,sans-Serif" font-size="10.00">cstddef</text>
</a>
</g>
</g>
<!-- Node20&#45;&gt;Node21 -->
<g id="edge22" class="edge">
<title>Node20&#45;&gt;Node21</title>
<path fill="none" stroke="midnightblue" d="M733,-61.98C733,-53.58 733,-40.48 733,-29.66"/>
<polygon fill="midnightblue" stroke="midnightblue" points="736.5,-29.51 733,-19.51 729.5,-29.51 736.5,-29.51"/>
</g>
<!-- Node20&#45;&gt;Node22 -->
<g id="edge23" class="edge">
<title>Node20&#45;&gt;Node22</title>
<path fill="none" stroke="midnightblue" d="M749.33,-61.98C768.21,-52.12 799.51,-35.79 821.58,-24.27"/>
<polygon fill="midnightblue" stroke="midnightblue" points="823.45,-27.24 830.7,-19.51 820.21,-21.03 823.45,-27.24"/>
</g>
<!-- Node20&#45;&gt;Node23 -->
<g id="edge24" class="edge">
<title>Node20&#45;&gt;Node23</title>
<path fill="none" stroke="midnightblue" d="M765.99,-62C775.32,-59.81 785.52,-57.62 795,-56 935.66,-32.02 1105.44,-18.31 1176.34,-13.25"/>
<polygon fill="midnightblue" stroke="midnightblue" points="1176.73,-16.73 1186.46,-12.54 1176.24,-9.75 1176.73,-16.73"/>
</g>
<!-- Node26&#45;&gt;Node16 -->
<g id="edge35" class="edge">
<title>Node26&#45;&gt;Node16</title>
<path fill="none" stroke="midnightblue" d="M1507.7,-61.97C1499.61,-59.99 1491.01,-57.9 1483,-56 1430.71,-43.6 1370.47,-29.93 1330.51,-20.95"/>
<polygon fill="midnightblue" stroke="midnightblue" points="1331.08,-17.49 1320.56,-18.71 1329.55,-24.32 1331.08,-17.49"/>
</g>
<!-- Node26&#45;&gt;Node23 -->
<g id="edge36" class="edge">
<title>Node26&#45;&gt;Node23</title>
<path fill="none" stroke="midnightblue" d="M1509.66,-61.98C1501.03,-59.87 1491.69,-57.72 1483,-56 1380.28,-35.72 1350.29,-41.83 1243.59,-19.89"/>
<polygon fill="midnightblue" stroke="midnightblue" points="1244.22,-16.45 1233.71,-17.82 1242.78,-23.3 1244.22,-16.45"/>
</g>
<!-- Node26&#45;&gt;Node24 -->
<g id="edge31" class="edge">
<title>Node26&#45;&gt;Node24</title>
<path fill="none" stroke="midnightblue" d="M1515.92,-61.98C1482.91,-51.18 1426.12,-32.62 1390.95,-21.12"/>
<polygon fill="midnightblue" stroke="midnightblue" points="1391.8,-17.71 1381.21,-17.93 1389.62,-24.37 1391.8,-17.71"/>
</g>
<!-- Node27 -->
<g id="node27" class="node">
<title>Node27</title>
<g id="a_node27"><a xlink:title=" ">
<polygon fill="white" stroke="#bfbfbf" points="1558,-0.5 1558,-19.5 1622,-19.5 1622,-0.5 1558,-0.5"/>
<text text-anchor="middle" x="1590" y="-7.5" font-family="Helvetica,sans-Serif" font-size="10.00">algorithm</text>
</a>
</g>
</g>
<!-- Node26&#45;&gt;Node27 -->
<g id="edge30" class="edge">
<title>Node26&#45;&gt;Node27</title>
<path fill="none" stroke="midnightblue" d="M1548.88,-61.98C1556.15,-52.96 1567.8,-38.52 1576.84,-27.31"/>
<polygon fill="midnightblue" stroke="midnightblue" points="1579.58,-29.49 1583.14,-19.51 1574.13,-25.09 1579.58,-29.49"/>
</g>
<!-- Node28 -->
<g id="node28" class="node">
<title>Node28</title>
<g id="a_node28"><a xlink:title=" ">
<polygon fill="white" stroke="#bfbfbf" points="1399.5,-0.5 1399.5,-19.5 1448.5,-19.5 1448.5,-0.5 1399.5,-0.5"/>
<text text-anchor="middle" x="1424" y="-7.5" font-family="Helvetica,sans-Serif" font-size="10.00">cctype</text>
</a>
</g>
</g>
<!-- Node26&#45;&gt;Node28 -->
<g id="edge32" class="edge">
<title>Node26&#45;&gt;Node28</title>
<path fill="none" stroke="midnightblue" d="M1525.09,-61.98C1505.47,-52.08 1472.87,-35.64 1450.01,-24.12"/>
<polygon fill="midnightblue" stroke="midnightblue" points="1451.38,-20.89 1440.88,-19.51 1448.23,-27.14 1451.38,-20.89"/>
</g>
<!-- Node26&#45;&gt;Node29 -->
<g id="edge33" class="edge">
<title>Node26&#45;&gt;Node29</title>
<path fill="none" stroke="midnightblue" d="M1559.19,-61.98C1579.24,-52.03 1612.6,-35.49 1635.86,-23.96"/>
<polygon fill="midnightblue" stroke="midnightblue" points="1637.43,-27.09 1644.84,-19.51 1634.32,-20.82 1637.43,-27.09"/>
</g>
<!-- Node30 -->
<g id="node30" class="node">
<title>Node30</title>
<g id="a_node30"><a xlink:title=" ">
<polygon fill="white" stroke="#bfbfbf" points="1466.5,-0.5 1466.5,-19.5 1539.5,-19.5 1539.5,-0.5 1466.5,-0.5"/>
<text text-anchor="middle" x="1503" y="-7.5" font-family="Helvetica,sans-Serif" font-size="10.00">string_view</text>
</a>
</g>
</g>
<!-- Node26&#45;&gt;Node30 -->
<g id="edge34" class="edge">
<title>Node26&#45;&gt;Node30</title>
<path fill="none" stroke="midnightblue" d="M1536.41,-61.98C1530.62,-53.14 1521.41,-39.09 1514.13,-27.98"/>
<polygon fill="midnightblue" stroke="midnightblue" points="1516.99,-25.95 1508.58,-19.51 1511.13,-29.79 1516.99,-25.95"/>
</g>
<!-- Node31&#45;&gt;Node16 -->
<g id="edge47" class="edge">
<title>Node31&#45;&gt;Node16</title>
<path fill="none" stroke="midnightblue" d="M1294.35,-123.3C1292.91,-103.85 1289.38,-56.49 1287.41,-29.9"/>
<polygon fill="midnightblue" stroke="midnightblue" points="1290.87,-29.34 1286.64,-19.62 1283.89,-29.86 1290.87,-29.34"/>
</g>
<!-- Node31&#45;&gt;Node23 -->
<g id="edge48" class="edge">
<title>Node31&#45;&gt;Node23</title>
<path fill="none" stroke="midnightblue" d="M1288.89,-123.3C1274.92,-103.41 1240.45,-54.35 1222.05,-28.15"/>
<polygon fill="midnightblue" stroke="midnightblue" points="1224.67,-25.79 1216.06,-19.62 1218.94,-29.82 1224.67,-25.79"/>
</g>
<!-- Node31&#45;&gt;Node26 -->
<g id="edge38" class="edge">
<title>Node31&#45;&gt;Node26</title>
<path fill="none" stroke="midnightblue" d="M1330.13,-123.54C1373.9,-112.99 1448.76,-94.96 1496.78,-83.39"/>
<polygon fill="midnightblue" stroke="midnightblue" points="1497.69,-86.77 1506.59,-81.03 1496.05,-79.97 1497.69,-86.77"/>
</g>
<!-- Node32 -->
<g id="node32" class="node">
<title>Node32</title>
<g id="a_node32"><a xlink:href="serialized_8h.html" target="_top" xlink:title=" ">
<polygon fill="white" stroke="black" points="1041.5,-62 1041.5,-81 1114.5,-81 1114.5,-62 1041.5,-62"/>
<text text-anchor="middle" x="1078" y="-69" font-family="Helvetica,sans-Serif" font-size="10.00">serialized.h</text>
</a>
</g>
</g>
<!-- Node31&#45;&gt;Node32 -->
<g id="edge39" class="edge">
<title>Node31&#45;&gt;Node32</title>
<path fill="none" stroke="midnightblue" d="M1263.91,-123.48C1225.72,-113 1160.83,-95.21 1118.7,-83.66"/>
<polygon fill="midnightblue" stroke="midnightblue" points="1119.6,-80.28 1109.03,-81.01 1117.75,-87.03 1119.6,-80.28"/>
</g>
<!-- Node35 -->
<g id="node35" class="node">
<title>Node35</title>
<g id="a_node35"><a xlink:title=" ">
<polygon fill="white" stroke="#bfbfbf" points="1383,-62 1383,-81 1441,-81 1441,-62 1383,-62"/>
<text text-anchor="middle" x="1412" y="-69" font-family="Helvetica,sans-Serif" font-size="10.00">memory</text>
</a>
</g>
</g>
<!-- Node31&#45;&gt;Node35 -->
<g id="edge45" class="edge">
<title>Node31&#45;&gt;Node35</title>
<path fill="none" stroke="midnightblue" d="M1311.76,-123.48C1331.22,-113.58 1363.55,-97.14 1386.21,-85.62"/>
<polygon fill="midnightblue" stroke="midnightblue" points="1387.94,-88.66 1395.27,-81.01 1384.77,-82.42 1387.94,-88.66"/>
</g>
<!-- Node36 -->
<g id="node36" class="node">
<title>Node36</title>
<g id="a_node36"><a xlink:title=" ">
<polygon fill="white" stroke="#bfbfbf" points="1323.5,-62 1323.5,-81 1364.5,-81 1364.5,-62 1323.5,-62"/>
<text text-anchor="middle" x="1344" y="-69" font-family="Helvetica,sans-Serif" font-size="10.00">tuple</text>
</a>
</g>
</g>
<!-- Node31&#45;&gt;Node36 -->
<g id="edge46" class="edge">
<title>Node31&#45;&gt;Node36</title>
<path fill="none" stroke="midnightblue" d="M1302.02,-123.48C1309.44,-114.46 1321.33,-100.02 1330.57,-88.81"/>
<polygon fill="midnightblue" stroke="midnightblue" points="1333.34,-90.95 1336.99,-81.01 1327.93,-86.5 1333.34,-90.95"/>
</g>
<!-- Node32&#45;&gt;Node22 -->
<g id="edge40" class="edge">
<title>Node32&#45;&gt;Node22</title>
<path fill="none" stroke="midnightblue" d="M1051.82,-61.91C1045.36,-59.89 1038.45,-57.8 1032,-56 980.2,-41.55 919.51,-27.29 882.16,-18.82"/>
<polygon fill="midnightblue" stroke="midnightblue" points="882.8,-15.37 872.27,-16.58 881.26,-22.2 882.8,-15.37"/>
</g>
<!-- Node32&#45;&gt;Node23 -->
<g id="edge44" class="edge">
<title>Node32&#45;&gt;Node23</title>
<path fill="none" stroke="midnightblue" d="M1096.91,-61.98C1119.16,-51.95 1156.31,-35.2 1181.93,-23.65"/>
<polygon fill="midnightblue" stroke="midnightblue" points="1183.44,-26.81 1191.12,-19.51 1180.57,-20.43 1183.44,-26.81"/>
</g>
<!-- Node32&#45;&gt;Node29 -->
<g id="edge43" class="edge">
<title>Node32&#45;&gt;Node29</title>
<path fill="none" stroke="midnightblue" d="M1114.75,-68.07C1218.53,-61.05 1513.33,-40.12 1629.73,-19.84"/>
<polygon fill="midnightblue" stroke="midnightblue" points="1630.56,-23.25 1639.77,-18.01 1629.31,-16.36 1630.56,-23.25"/>
</g>
<!-- Node32&#45;&gt;Node33 -->
<g id="edge41" class="edge">
<title>Node32&#45;&gt;Node33</title>
<path fill="none" stroke="midnightblue" d="M1053.89,-61.91C1046.9,-59.69 1039.21,-57.51 1032,-56 885.43,-25.34 844.52,-45.75 697,-20 696.41,-19.9 695.82,-19.79 695.22,-19.68"/>
<polygon fill="midnightblue" stroke="midnightblue" points="695.89,-16.24 685.38,-17.64 694.47,-23.1 695.89,-16.24"/>
</g>
<!-- Node32&#45;&gt;Node34 -->
<g id="edge42" class="edge">
<title>Node32&#45;&gt;Node34</title>
<path fill="none" stroke="midnightblue" d="M1054.88,-62C1047.65,-59.67 1039.57,-57.4 1032,-56 896.6,-30.94 470.96,-16.36 333.95,-12.23"/>
<polygon fill="midnightblue" stroke="midnightblue" points="333.94,-8.73 323.84,-11.93 333.73,-15.72 333.94,-8.73"/>
</g>
<!-- Node40&#45;&gt;Node18 -->
<g id="edge61" class="edge">
<title>Node40&#45;&gt;Node18</title>
<path fill="none" stroke="midnightblue" d="M1070.34,-235.4C1069.41,-227.47 1068.23,-217.46 1067.22,-208.86"/>
<polygon fill="midnightblue" stroke="midnightblue" points="1070.66,-208.18 1066.02,-198.66 1063.71,-209 1070.66,-208.18"/>
</g>
<!-- Node41 -->
<g id="node41" class="node">
<title>Node41</title>
<g id="a_node41"><a xlink:href="lfs__interface_8h.html" target="_top" xlink:title=" ">
<polygon fill="white" stroke="black" points="1619.5,-123.5 1619.5,-142.5 1750.5,-142.5 1750.5,-123.5 1619.5,-123.5"/>
<text text-anchor="middle" x="1685" y="-130.5" font-family="Helvetica,sans-Serif" font-size="10.00">indexing/lfs_interface.h</text>
</a>
</g>
</g>
<!-- Node40&#45;&gt;Node41 -->
<g id="edge62" class="edge">
<title>Node40&#45;&gt;Node41</title>
<path fill="none" stroke="midnightblue" d="M1135.01,-237.63C1255.27,-214.97 1515.68,-165.9 1629.68,-144.42"/>
<polygon fill="midnightblue" stroke="midnightblue" points="1630.41,-147.85 1639.59,-142.56 1629.12,-140.97 1630.41,-147.85"/>
</g>
<!-- Node41&#45;&gt;Node23 -->
<g id="edge66" class="edge">
<title>Node41&#45;&gt;Node23</title>
<path fill="none" stroke="midnightblue" d="M1619.5,-124.72C1579.91,-118.48 1529.29,-107.17 1488,-87 1468.42,-77.43 1469.83,-65.05 1450,-56 1367.87,-18.51 1336.26,-38.84 1243.5,-19.86"/>
<polygon fill="midnightblue" stroke="midnightblue" points="1244.24,-16.43 1233.73,-17.76 1242.77,-23.28 1244.24,-16.43"/>
</g>
<!-- Node41&#45;&gt;Node29 -->
<g id="edge65" class="edge">
<title>Node41&#45;&gt;Node29</title>
<path fill="none" stroke="midnightblue" d="M1683.35,-123.3C1679.63,-103.76 1670.57,-56.06 1665.53,-29.55"/>
<polygon fill="midnightblue" stroke="midnightblue" points="1668.95,-28.79 1663.64,-19.62 1662.07,-30.1 1668.95,-28.79"/>
</g>
<!-- Node41&#45;&gt;Node35 -->
<g id="edge64" class="edge">
<title>Node41&#45;&gt;Node35</title>
<path fill="none" stroke="midnightblue" d="M1630.63,-123.45C1583.74,-115.57 1514.39,-102.75 1455,-87 1451.8,-86.15 1448.5,-85.19 1445.2,-84.18"/>
<polygon fill="midnightblue" stroke="midnightblue" points="1446.08,-80.78 1435.49,-81.04 1443.93,-87.45 1446.08,-80.78"/>
</g>
<!-- Node42 -->
<g id="node42" class="node">
<title>Node42</title>
<g id="a_node42"><a xlink:href="node__subsystem__interface_8h.html" target="_top" xlink:title=" ">
<polygon fill="white" stroke="black" points="1690,-56.5 1690,-86.5 1806,-86.5 1806,-56.5 1690,-56.5"/>
<text text-anchor="start" x="1698" y="-74.5" font-family="Helvetica,sans-Serif" font-size="10.00">ccf/node_subsystem</text>
<text text-anchor="middle" x="1748" y="-63.5" font-family="Helvetica,sans-Serif" font-size="10.00">_interface.h</text>
</a>
</g>
</g>
<!-- Node41&#45;&gt;Node42 -->
<g id="edge63" class="edge">
<title>Node41&#45;&gt;Node42</title>
<path fill="none" stroke="midnightblue" d="M1694.03,-123.48C1702.24,-115.72 1714.71,-103.94 1725.59,-93.66"/>
<polygon fill="midnightblue" stroke="midnightblue" points="1728.29,-95.93 1733.15,-86.52 1723.48,-90.84 1728.29,-95.93"/>
</g>
</g>
</svg>
