<?xml version="1.0" encoding="UTF-8" standalone="no"?>
<!DOCTYPE svg PUBLIC "-//W3C//DTD SVG 1.1//EN"
 "http://www.w3.org/Graphics/SVG/1.1/DTD/svg11.dtd">
<!-- Generated by graphviz version 2.43.0 (0)
 -->
<!-- Title: src/host/load_monitor.h Pages: 1 -->
<svg width="1834pt" height="364pt"
 viewBox="0.00 0.00 1833.56 364.00" xmlns="http://www.w3.org/2000/svg" xmlns:xlink="http://www.w3.org/1999/xlink">
<g id="graph0" class="graph" transform="scale(1 1) rotate(0) translate(4 360)">
<title>src/host/load_monitor.h</title>
<polygon fill="white" stroke="transparent" points="-4,4 -4,-360 1829.56,-360 1829.56,4 -4,4"/>
<!-- Node1 -->
<g id="node1" class="node">
<title>Node1</title>
<g id="a_node1"><a xlink:title=" ">
<polygon fill="#bfbfbf" stroke="black" points="1431.06,-336.5 1431.06,-355.5 1562.06,-355.5 1562.06,-336.5 1431.06,-336.5"/>
<text text-anchor="middle" x="1496.56" y="-343.5" font-family="Helvetica,sans-Serif" font-size="10.00">src/host/load_monitor.h</text>
</a>
</g>
</g>
<!-- Node2 -->
<g id="node2" class="node">
<title>Node2</title>
<g id="a_node2"><a xlink:href="messaging_8h.html" target="_top" xlink:title=" ">
<polygon fill="white" stroke="black" points="1363.06,-280.5 1363.06,-299.5 1456.06,-299.5 1456.06,-280.5 1363.06,-280.5"/>
<text text-anchor="middle" x="1409.56" y="-287.5" font-family="Helvetica,sans-Serif" font-size="10.00">ds/messaging.h</text>
</a>
</g>
</g>
<!-- Node1&#45;&gt;Node2 -->
<g id="edge1" class="edge">
<title>Node1&#45;&gt;Node2</title>
<path fill="none" stroke="midnightblue" d="M1482.58,-336.32C1469.01,-327.9 1448.18,-314.97 1432.23,-305.07"/>
<polygon fill="midnightblue" stroke="midnightblue" points="1433.85,-301.95 1423.5,-299.65 1430.15,-307.9 1433.85,-301.95"/>
</g>
<!-- Node40 -->
<g id="node40" class="node">
<title>Node40</title>
<g id="a_node40"><a xlink:href="timer_8h.html" target="_top" xlink:title=" ">
<polygon fill="white" stroke="black" points="1706.06,-280.5 1706.06,-299.5 1757.06,-299.5 1757.06,-280.5 1706.06,-280.5"/>
<text text-anchor="middle" x="1731.56" y="-287.5" font-family="Helvetica,sans-Serif" font-size="10.00">timer.h</text>
</a>
</g>
</g>
<!-- Node1&#45;&gt;Node40 -->
<g id="edge60" class="edge">
<title>Node1&#45;&gt;Node40</title>
<path fill="none" stroke="midnightblue" d="M1533.8,-336.44C1578.25,-326.23 1652.06,-309.27 1695.83,-299.21"/>
<polygon fill="midnightblue" stroke="midnightblue" points="1696.79,-302.58 1705.75,-296.93 1695.22,-295.76 1696.79,-302.58"/>
</g>
<!-- Node3 -->
<g id="node3" class="node">
<title>Node3</title>
<g id="a_node3"><a xlink:href="logger_8h.html" target="_top" xlink:title=" ">
<polygon fill="white" stroke="black" points="1151.06,-224.5 1151.06,-243.5 1238.06,-243.5 1238.06,-224.5 1151.06,-224.5"/>
<text text-anchor="middle" x="1194.56" y="-231.5" font-family="Helvetica,sans-Serif" font-size="10.00">ccf/ds/logger.h</text>
</a>
</g>
</g>
<!-- Node2&#45;&gt;Node3 -->
<g id="edge2" class="edge">
<title>Node2&#45;&gt;Node3</title>
<path fill="none" stroke="midnightblue" d="M1375.49,-280.44C1338.38,-271.12 1278.9,-256.18 1238.35,-246"/>
<polygon fill="midnightblue" stroke="midnightblue" points="1239.02,-242.56 1228.47,-243.52 1237.31,-249.35 1239.02,-242.56"/>
</g>
<!-- Node9 -->
<g id="node9" class="node">
<title>Node9</title>
<g id="a_node9"><a xlink:title=" ">
<polygon fill="white" stroke="#bfbfbf" points="1550.56,-112.5 1550.56,-131.5 1588.56,-131.5 1588.56,-112.5 1550.56,-112.5"/>
<text text-anchor="middle" x="1569.56" y="-119.5" font-family="Helvetica,sans-Serif" font-size="10.00">map</text>
</a>
</g>
</g>
<!-- Node2&#45;&gt;Node9 -->
<g id="edge58" class="edge">
<title>Node2&#45;&gt;Node9</title>
<path fill="none" stroke="midnightblue" d="M1456.14,-281.48C1506.57,-270.57 1584.62,-245.04 1620.56,-188 1632.19,-169.54 1611.99,-150.07 1593.69,-137.31"/>
<polygon fill="midnightblue" stroke="midnightblue" points="1595.28,-134.17 1585,-131.61 1591.44,-140.02 1595.28,-134.17"/>
</g>
<!-- Node17 -->
<g id="node17" class="node">
<title>Node17</title>
<g id="a_node17"><a xlink:href="ring__buffer_8h.html" target="_top" xlink:title=" ">
<polygon fill="white" stroke="black" points="687.06,-224.5 687.06,-243.5 764.06,-243.5 764.06,-224.5 687.06,-224.5"/>
<text text-anchor="middle" x="725.56" y="-231.5" font-family="Helvetica,sans-Serif" font-size="10.00">ring_buffer.h</text>
</a>
</g>
</g>
<!-- Node2&#45;&gt;Node17 -->
<g id="edge18" class="edge">
<title>Node2&#45;&gt;Node17</title>
<path fill="none" stroke="midnightblue" d="M1362.71,-287.22C1257.79,-282.88 996.1,-270.16 778.56,-244 777.26,-243.84 775.94,-243.68 774.61,-243.5"/>
<polygon fill="midnightblue" stroke="midnightblue" points="774.68,-239.98 764.28,-242.02 773.69,-246.91 774.68,-239.98"/>
</g>
<!-- Node34 -->
<g id="node34" class="node">
<title>Node34</title>
<g id="a_node34"><a xlink:title=" ">
<polygon fill="white" stroke="#bfbfbf" points="1264.06,-0.5 1264.06,-19.5 1329.06,-19.5 1329.06,-0.5 1264.06,-0.5"/>
<text text-anchor="middle" x="1296.56" y="-7.5" font-family="Helvetica,sans-Serif" font-size="10.00">stdexcept</text>
</a>
</g>
</g>
<!-- Node2&#45;&gt;Node34 -->
<g id="edge59" class="edge">
<title>Node2&#45;&gt;Node34</title>
<path fill="none" stroke="midnightblue" d="M1456.24,-289.85C1533.03,-288.56 1677.56,-273.55 1677.56,-179 1677.56,-179 1677.56,-179 1677.56,-121 1677.56,-51.26 1438.98,-23.01 1339.41,-14.26"/>
<polygon fill="midnightblue" stroke="midnightblue" points="1339.64,-10.77 1329.37,-13.4 1339.04,-17.74 1339.64,-10.77"/>
</g>
<!-- Node37 -->
<g id="node37" class="node">
<title>Node37</title>
<g id="a_node37"><a xlink:title=" ">
<polygon fill="white" stroke="#bfbfbf" points="691.56,-112.5 691.56,-131.5 741.56,-131.5 741.56,-112.5 691.56,-112.5"/>
<text text-anchor="middle" x="716.56" y="-119.5" font-family="Helvetica,sans-Serif" font-size="10.00">atomic</text>
</a>
</g>
</g>
<!-- Node2&#45;&gt;Node37 -->
<g id="edge56" class="edge">
<title>Node2&#45;&gt;Node37</title>
<path fill="none" stroke="midnightblue" d="M1363,-284.97C1265.98,-275.63 1035.96,-248.5 852.56,-188 811.39,-174.42 766.55,-151.2 740.04,-136.5"/>
<polygon fill="midnightblue" stroke="midnightblue" points="741.57,-133.34 731.14,-131.5 738.14,-139.45 741.57,-133.34"/>
</g>
<!-- Node39 -->
<g id="node39" class="node">
<title>Node39</title>
<g id="a_node39"><a xlink:title=" ">
<polygon fill="white" stroke="#bfbfbf" points="1356.06,-224.5 1356.06,-243.5 1463.06,-243.5 1463.06,-224.5 1356.06,-224.5"/>
<text text-anchor="middle" x="1409.56" y="-231.5" font-family="Helvetica,sans-Serif" font-size="10.00">condition_variable</text>
</a>
</g>
</g>
<!-- Node2&#45;&gt;Node39 -->
<g id="edge57" class="edge">
<title>Node2&#45;&gt;Node39</title>
<path fill="none" stroke="midnightblue" d="M1409.56,-280.08C1409.56,-273.01 1409.56,-262.86 1409.56,-253.99"/>
<polygon fill="midnightblue" stroke="midnightblue" points="1413.06,-253.75 1409.56,-243.75 1406.06,-253.75 1413.06,-253.75"/>
</g>
<!-- Node4 -->
<g id="node4" class="node">
<title>Node4</title>
<g id="a_node4"><a xlink:href="enum__formatter_8h.html" target="_top" xlink:title=" ">
<polygon fill="white" stroke="black" points="1174.56,-168.5 1174.56,-187.5 1310.56,-187.5 1310.56,-168.5 1174.56,-168.5"/>
<text text-anchor="middle" x="1242.56" y="-175.5" font-family="Helvetica,sans-Serif" font-size="10.00">ccf/ds/enum_formatter.h</text>
</a>
</g>
</g>
<!-- Node3&#45;&gt;Node4 -->
<g id="edge3" class="edge">
<title>Node3&#45;&gt;Node4</title>
<path fill="none" stroke="midnightblue" d="M1202.49,-224.08C1209.41,-216.3 1219.63,-204.8 1228.01,-195.37"/>
<polygon fill="midnightblue" stroke="midnightblue" points="1230.75,-197.55 1234.78,-187.75 1225.52,-192.9 1230.75,-197.55"/>
</g>
<!-- Node5 -->
<g id="node5" class="node">
<title>Node5</title>
<g id="a_node5"><a xlink:title=" ">
<polygon fill="white" stroke="#bfbfbf" points="1133.06,-112.5 1133.06,-131.5 1212.06,-131.5 1212.06,-112.5 1133.06,-112.5"/>
<text text-anchor="middle" x="1172.56" y="-119.5" font-family="Helvetica,sans-Serif" font-size="10.00">fmt/format.h</text>
</a>
</g>
</g>
<!-- Node3&#45;&gt;Node5 -->
<g id="edge12" class="edge">
<title>Node3&#45;&gt;Node5</title>
<path fill="none" stroke="midnightblue" d="M1186.89,-224.46C1179.78,-215.93 1169.71,-202.09 1165.56,-188 1161.05,-172.69 1163.61,-154.59 1166.83,-141.38"/>
<polygon fill="midnightblue" stroke="midnightblue" points="1170.24,-142.18 1169.55,-131.6 1163.5,-140.3 1170.24,-142.18"/>
</g>
<!-- Node6 -->
<g id="node6" class="node">
<title>Node6</title>
<g id="a_node6"><a xlink:href="thread__ids_8h.html" target="_top" xlink:title=" ">
<polygon fill="white" stroke="black" points="1328.56,-168.5 1328.56,-187.5 1436.56,-187.5 1436.56,-168.5 1328.56,-168.5"/>
<text text-anchor="middle" x="1382.56" y="-175.5" font-family="Helvetica,sans-Serif" font-size="10.00">ccf/ds/thread_ids.h</text>
</a>
</g>
</g>
<!-- Node3&#45;&gt;Node6 -->
<g id="edge5" class="edge">
<title>Node3&#45;&gt;Node6</title>
<path fill="none" stroke="midnightblue" d="M1224.35,-224.44C1256.39,-215.24 1307.49,-200.56 1342.91,-190.39"/>
<polygon fill="midnightblue" stroke="midnightblue" points="1344.27,-193.64 1352.91,-187.52 1342.33,-186.91 1344.27,-193.64"/>
</g>
<!-- Node11 -->
<g id="node11" class="node">
<title>Node11</title>
<g id="a_node11"><a xlink:title=" ">
<polygon fill="white" stroke="#bfbfbf" points="1455.06,-168.5 1455.06,-187.5 1534.06,-187.5 1534.06,-168.5 1455.06,-168.5"/>
<text text-anchor="middle" x="1494.56" y="-175.5" font-family="Helvetica,sans-Serif" font-size="10.00">fmt/chrono.h</text>
</a>
</g>
</g>
<!-- Node3&#45;&gt;Node11 -->
<g id="edge11" class="edge">
<title>Node3&#45;&gt;Node11</title>
<path fill="none" stroke="midnightblue" d="M1238.1,-225.25C1286.11,-216.7 1365.93,-202.43 1444.86,-188.12"/>
<polygon fill="midnightblue" stroke="midnightblue" points="1445.77,-191.51 1454.98,-186.28 1444.52,-184.63 1445.77,-191.51"/>
</g>
<!-- Node12 -->
<g id="node12" class="node">
<title>Node12</title>
<g id="a_node12"><a xlink:title=" ">
<polygon fill="white" stroke="#bfbfbf" points="1551.56,-168.5 1551.56,-187.5 1611.56,-187.5 1611.56,-168.5 1551.56,-168.5"/>
<text text-anchor="middle" x="1581.56" y="-175.5" font-family="Helvetica,sans-Serif" font-size="10.00">iostream</text>
</a>
</g>
</g>
<!-- Node3&#45;&gt;Node12 -->
<g id="edge13" class="edge">
<title>Node3&#45;&gt;Node12</title>
<path fill="none" stroke="midnightblue" d="M1238.31,-228.84C1302.76,-222.39 1427.17,-208.7 1541.38,-188.26"/>
<polygon fill="midnightblue" stroke="midnightblue" points="1542.12,-191.69 1551.34,-186.46 1540.87,-184.8 1542.12,-191.69"/>
</g>
<!-- Node13 -->
<g id="node13" class="node">
<title>Node13</title>
<g id="a_node13"><a xlink:title=" ">
<polygon fill="white" stroke="#bfbfbf" points="934.56,-168.5 934.56,-187.5 1044.56,-187.5 1044.56,-168.5 934.56,-168.5"/>
<text text-anchor="middle" x="989.56" y="-175.5" font-family="Helvetica,sans-Serif" font-size="10.00">nlohmann/json.hpp</text>
</a>
</g>
</g>
<!-- Node3&#45;&gt;Node13 -->
<g id="edge14" class="edge">
<title>Node3&#45;&gt;Node13</title>
<path fill="none" stroke="midnightblue" d="M1162.08,-224.44C1126.84,-215.16 1070.46,-200.31 1031.8,-190.13"/>
<polygon fill="midnightblue" stroke="midnightblue" points="1032.45,-186.68 1021.89,-187.52 1030.67,-193.45 1032.45,-186.68"/>
</g>
<!-- Node14 -->
<g id="node14" class="node">
<title>Node14</title>
<g id="a_node14"><a xlink:title=" ">
<polygon fill="white" stroke="#bfbfbf" points="767.56,-112.5 767.56,-131.5 823.56,-131.5 823.56,-112.5 767.56,-112.5"/>
<text text-anchor="middle" x="795.56" y="-119.5" font-family="Helvetica,sans-Serif" font-size="10.00">optional</text>
</a>
</g>
</g>
<!-- Node3&#45;&gt;Node14 -->
<g id="edge15" class="edge">
<title>Node3&#45;&gt;Node14</title>
<path fill="none" stroke="midnightblue" d="M1151.03,-232.46C1090.94,-230.41 980.07,-221.85 892.56,-188 862.04,-176.19 831.44,-153.43 813,-138.22"/>
<polygon fill="midnightblue" stroke="midnightblue" points="815.1,-135.41 805.2,-131.64 810.58,-140.76 815.1,-135.41"/>
</g>
<!-- Node15 -->
<g id="node15" class="node">
<title>Node15</title>
<g id="a_node15"><a xlink:title=" ">
<polygon fill="white" stroke="#bfbfbf" points="1062.56,-168.5 1062.56,-187.5 1118.56,-187.5 1118.56,-168.5 1062.56,-168.5"/>
<text text-anchor="middle" x="1090.56" y="-175.5" font-family="Helvetica,sans-Serif" font-size="10.00">sstream</text>
</a>
</g>
</g>
<!-- Node3&#45;&gt;Node15 -->
<g id="edge16" class="edge">
<title>Node3&#45;&gt;Node15</title>
<path fill="none" stroke="midnightblue" d="M1177.85,-224.32C1161.25,-215.7 1135.56,-202.36 1116.34,-192.39"/>
<polygon fill="midnightblue" stroke="midnightblue" points="1117.72,-189.16 1107.23,-187.65 1114.49,-195.37 1117.72,-189.16"/>
</g>
<!-- Node16 -->
<g id="node16" class="node">
<title>Node16</title>
<g id="a_node16"><a xlink:title=" ">
<polygon fill="white" stroke="#bfbfbf" points="796.06,-0.5 796.06,-19.5 865.06,-19.5 865.06,-0.5 796.06,-0.5"/>
<text text-anchor="middle" x="830.56" y="-7.5" font-family="Helvetica,sans-Serif" font-size="10.00">type_traits</text>
</a>
</g>
</g>
<!-- Node3&#45;&gt;Node16 -->
<g id="edge17" class="edge">
<title>Node3&#45;&gt;Node16</title>
<path fill="none" stroke="midnightblue" d="M1150.82,-230.33C1084.11,-225.49 960.92,-213.35 925.56,-188 870.33,-148.41 844.14,-66.55 834.78,-29.7"/>
<polygon fill="midnightblue" stroke="midnightblue" points="838.14,-28.71 832.4,-19.8 831.33,-30.35 838.14,-28.71"/>
</g>
<!-- Node4&#45;&gt;Node5 -->
<g id="edge4" class="edge">
<title>Node4&#45;&gt;Node5</title>
<path fill="none" stroke="midnightblue" d="M1231.31,-168.32C1220.76,-160.18 1204.76,-147.84 1192.12,-138.09"/>
<polygon fill="midnightblue" stroke="midnightblue" points="1194.07,-135.17 1184.01,-131.83 1189.79,-140.71 1194.07,-135.17"/>
</g>
<!-- Node6&#45;&gt;Node5 -->
<g id="edge6" class="edge">
<title>Node6&#45;&gt;Node5</title>
<path fill="none" stroke="midnightblue" d="M1349.28,-168.44C1313.11,-159.14 1255.18,-144.25 1215.58,-134.06"/>
<polygon fill="midnightblue" stroke="midnightblue" points="1216.24,-130.62 1205.68,-131.52 1214.49,-137.4 1216.24,-130.62"/>
</g>
<!-- Node7 -->
<g id="node7" class="node">
<title>Node7</title>
<g id="a_node7"><a xlink:title=" ">
<polygon fill="white" stroke="#bfbfbf" points="1256.56,-112.5 1256.56,-131.5 1342.56,-131.5 1342.56,-112.5 1256.56,-112.5"/>
<text text-anchor="middle" x="1299.56" y="-119.5" font-family="Helvetica,sans-Serif" font-size="10.00">fmt/ostream.h</text>
</a>
</g>
</g>
<!-- Node6&#45;&gt;Node7 -->
<g id="edge7" class="edge">
<title>Node6&#45;&gt;Node7</title>
<path fill="none" stroke="midnightblue" d="M1369.22,-168.32C1356.4,-159.98 1336.77,-147.21 1321.62,-137.35"/>
<polygon fill="midnightblue" stroke="midnightblue" points="1323.15,-134.17 1312.86,-131.65 1319.34,-140.04 1323.15,-134.17"/>
</g>
<!-- Node8 -->
<g id="node8" class="node">
<title>Node8</title>
<g id="a_node8"><a xlink:title=" ">
<polygon fill="white" stroke="#bfbfbf" points="1360.56,-112.5 1360.56,-131.5 1404.56,-131.5 1404.56,-112.5 1360.56,-112.5"/>
<text text-anchor="middle" x="1382.56" y="-119.5" font-family="Helvetica,sans-Serif" font-size="10.00">limits</text>
</a>
</g>
</g>
<!-- Node6&#45;&gt;Node8 -->
<g id="edge8" class="edge">
<title>Node6&#45;&gt;Node8</title>
<path fill="none" stroke="midnightblue" d="M1382.56,-168.08C1382.56,-161.01 1382.56,-150.86 1382.56,-141.99"/>
<polygon fill="midnightblue" stroke="midnightblue" points="1386.06,-141.75 1382.56,-131.75 1379.06,-141.75 1386.06,-141.75"/>
</g>
<!-- Node6&#45;&gt;Node9 -->
<g id="edge9" class="edge">
<title>Node6&#45;&gt;Node9</title>
<path fill="none" stroke="midnightblue" d="M1412.19,-168.44C1447.28,-158.31 1505.37,-141.54 1540.3,-131.45"/>
<polygon fill="midnightblue" stroke="midnightblue" points="1541.71,-134.69 1550.34,-128.55 1539.77,-127.96 1541.71,-134.69"/>
</g>
<!-- Node10 -->
<g id="node10" class="node">
<title>Node10</title>
<g id="a_node10"><a xlink:title=" ">
<polygon fill="white" stroke="#bfbfbf" points="1422.56,-112.5 1422.56,-131.5 1470.56,-131.5 1470.56,-112.5 1422.56,-112.5"/>
<text text-anchor="middle" x="1446.56" y="-119.5" font-family="Helvetica,sans-Serif" font-size="10.00">thread</text>
</a>
</g>
</g>
<!-- Node6&#45;&gt;Node10 -->
<g id="edge10" class="edge">
<title>Node6&#45;&gt;Node10</title>
<path fill="none" stroke="midnightblue" d="M1392.84,-168.32C1402.4,-160.26 1416.84,-148.08 1428.34,-138.37"/>
<polygon fill="midnightblue" stroke="midnightblue" points="1430.7,-140.96 1436.09,-131.83 1426.19,-135.61 1430.7,-140.96"/>
</g>
<!-- Node18 -->
<g id="node18" class="node">
<title>Node18</title>
<g id="a_node18"><a xlink:href="ring__buffer__types_8h.html" target="_top" xlink:title=" ">
<polygon fill="white" stroke="black" points="567.56,-168.5 567.56,-187.5 677.56,-187.5 677.56,-168.5 567.56,-168.5"/>
<text text-anchor="middle" x="622.56" y="-175.5" font-family="Helvetica,sans-Serif" font-size="10.00">ring_buffer_types.h</text>
</a>
</g>
</g>
<!-- Node17&#45;&gt;Node18 -->
<g id="edge19" class="edge">
<title>Node17&#45;&gt;Node18</title>
<path fill="none" stroke="midnightblue" d="M709.01,-224.32C692.57,-215.7 667.13,-202.36 648.09,-192.39"/>
<polygon fill="midnightblue" stroke="midnightblue" points="649.55,-189.2 639.07,-187.65 646.3,-195.4 649.55,-189.2"/>
</g>
<!-- Node33 -->
<g id="node33" class="node">
<title>Node33</title>
<g id="a_node33"><a xlink:title=" ">
<polygon fill="white" stroke="#bfbfbf" points="707.56,-0.5 707.56,-19.5 757.56,-19.5 757.56,-0.5 707.56,-0.5"/>
<text text-anchor="middle" x="732.56" y="-7.5" font-family="Helvetica,sans-Serif" font-size="10.00">cstring</text>
</a>
</g>
</g>
<!-- Node17&#45;&gt;Node33 -->
<g id="edge54" class="edge">
<title>Node17&#45;&gt;Node33</title>
<path fill="none" stroke="midnightblue" d="M740.97,-224.26C765.79,-209.18 813.75,-175.63 832.56,-132 843.6,-106.4 811.18,-56.72 810.56,-56 798.39,-41.87 780.64,-31.14 765.14,-23.71"/>
<polygon fill="midnightblue" stroke="midnightblue" points="766.4,-20.44 755.85,-19.51 763.52,-26.82 766.4,-20.44"/>
</g>
<!-- Node38 -->
<g id="node38" class="node">
<title>Node38</title>
<g id="a_node38"><a xlink:title=" ">
<polygon fill="white" stroke="#bfbfbf" points="696.06,-168.5 696.06,-187.5 761.06,-187.5 761.06,-168.5 696.06,-168.5"/>
<text text-anchor="middle" x="728.56" y="-175.5" font-family="Helvetica,sans-Serif" font-size="10.00">functional</text>
</a>
</g>
</g>
<!-- Node17&#45;&gt;Node38 -->
<g id="edge55" class="edge">
<title>Node17&#45;&gt;Node38</title>
<path fill="none" stroke="midnightblue" d="M726.06,-224.08C726.45,-217.01 727.01,-206.86 727.51,-197.99"/>
<polygon fill="midnightblue" stroke="midnightblue" points="731.01,-197.93 728.07,-187.75 724.02,-197.54 731.01,-197.93"/>
</g>
<!-- Node18&#45;&gt;Node5 -->
<g id="edge50" class="edge">
<title>Node18&#45;&gt;Node5</title>
<path fill="none" stroke="midnightblue" d="M677.7,-169.08C680.69,-168.7 683.66,-168.34 686.56,-168 845.65,-149.46 1034.76,-133.77 1122.83,-126.82"/>
<polygon fill="midnightblue" stroke="midnightblue" points="1123.11,-130.31 1132.81,-126.04 1122.56,-123.33 1123.11,-130.31"/>
</g>
<!-- Node18&#45;&gt;Node14 -->
<g id="edge51" class="edge">
<title>Node18&#45;&gt;Node14</title>
<path fill="none" stroke="midnightblue" d="M649.97,-168.44C679.33,-159.28 726.08,-144.69 758.66,-134.52"/>
<polygon fill="midnightblue" stroke="midnightblue" points="759.77,-137.84 768.28,-131.52 757.69,-131.16 759.77,-137.84"/>
</g>
<!-- Node19 -->
<g id="node19" class="node">
<title>Node19</title>
<g id="a_node19"><a xlink:href="include_2ccf_2ds_2hash_8h.html" target="_top" xlink:title=" ">
<polygon fill="white" stroke="black" points="213.56,-112.5 213.56,-131.5 293.56,-131.5 293.56,-112.5 213.56,-112.5"/>
<text text-anchor="middle" x="253.56" y="-119.5" font-family="Helvetica,sans-Serif" font-size="10.00">ccf/ds/hash.h</text>
</a>
</g>
</g>
<!-- Node18&#45;&gt;Node19 -->
<g id="edge20" class="edge">
<title>Node18&#45;&gt;Node19</title>
<path fill="none" stroke="midnightblue" d="M567.32,-168.92C495.99,-158.48 372.85,-140.46 303.96,-130.38"/>
<polygon fill="midnightblue" stroke="midnightblue" points="304.2,-126.87 293.8,-128.89 303.19,-133.8 304.2,-126.87"/>
</g>
<!-- Node23 -->
<g id="node23" class="node">
<title>Node23</title>
<g id="a_node23"><a xlink:title=" ">
<polygon fill="white" stroke="#bfbfbf" points="329.06,-0.5 329.06,-19.5 376.06,-19.5 376.06,-0.5 329.06,-0.5"/>
<text text-anchor="middle" x="352.56" y="-7.5" font-family="Helvetica,sans-Serif" font-size="10.00">vector</text>
</a>
</g>
</g>
<!-- Node18&#45;&gt;Node23 -->
<g id="edge53" class="edge">
<title>Node18&#45;&gt;Node23</title>
<path fill="none" stroke="midnightblue" d="M592.1,-168.39C546.92,-154.51 461.09,-123.82 401.56,-76 385.09,-62.77 371.14,-42.82 362.39,-28.52"/>
<polygon fill="midnightblue" stroke="midnightblue" points="365.28,-26.52 357.2,-19.67 359.24,-30.06 365.28,-26.52"/>
</g>
<!-- Node26 -->
<g id="node26" class="node">
<title>Node26</title>
<g id="a_node26"><a xlink:href="nonstd_8h.html" target="_top" xlink:title=" ">
<polygon fill="white" stroke="black" points="446.56,-56.5 446.56,-75.5 536.56,-75.5 536.56,-56.5 446.56,-56.5"/>
<text text-anchor="middle" x="491.56" y="-63.5" font-family="Helvetica,sans-Serif" font-size="10.00">ccf/ds/nonstd.h</text>
</a>
</g>
</g>
<!-- Node18&#45;&gt;Node26 -->
<g id="edge29" class="edge">
<title>Node18&#45;&gt;Node26</title>
<path fill="none" stroke="midnightblue" d="M605.97,-168.36C590.79,-160.06 568.09,-146.65 550.56,-132 533.1,-117.41 515.94,-97.73 504.67,-83.86"/>
<polygon fill="midnightblue" stroke="midnightblue" points="507.13,-81.34 498.16,-75.69 501.66,-85.7 507.13,-81.34"/>
</g>
<!-- Node29 -->
<g id="node29" class="node">
<title>Node29</title>
<g id="a_node29"><a xlink:title=" ">
<polygon fill="white" stroke="#bfbfbf" points="635.56,-0.5 635.56,-19.5 679.56,-19.5 679.56,-0.5 635.56,-0.5"/>
<text text-anchor="middle" x="657.56" y="-7.5" font-family="Helvetica,sans-Serif" font-size="10.00">string</text>
</a>
</g>
</g>
<!-- Node18&#45;&gt;Node29 -->
<g id="edge52" class="edge">
<title>Node18&#45;&gt;Node29</title>
<path fill="none" stroke="midnightblue" d="M612.25,-168.2C603.34,-159.89 591.07,-146.57 585.56,-132 573.6,-100.4 567,-85.45 583.56,-56 592.65,-39.83 610.17,-28.79 625.88,-21.7"/>
<polygon fill="midnightblue" stroke="midnightblue" points="627.44,-24.84 635.34,-17.78 624.76,-18.37 627.44,-24.84"/>
</g>
<!-- Node31 -->
<g id="node31" class="node">
<title>Node31</title>
<g id="a_node31"><a xlink:href="serializer_8h.html" target="_top" xlink:title=" ">
<polygon fill="white" stroke="black" points="594.56,-112.5 594.56,-131.5 664.56,-131.5 664.56,-112.5 594.56,-112.5"/>
<text text-anchor="middle" x="629.56" y="-119.5" font-family="Helvetica,sans-Serif" font-size="10.00">serializer.h</text>
</a>
</g>
</g>
<!-- Node18&#45;&gt;Node31 -->
<g id="edge37" class="edge">
<title>Node18&#45;&gt;Node31</title>
<path fill="none" stroke="midnightblue" d="M623.72,-168.08C624.64,-160.93 625.98,-150.64 627.14,-141.69"/>
<polygon fill="midnightblue" stroke="midnightblue" points="630.61,-142.12 628.43,-131.75 623.67,-141.22 630.61,-142.12"/>
</g>
<!-- Node18&#45;&gt;Node37 -->
<g id="edge49" class="edge">
<title>Node18&#45;&gt;Node37</title>
<path fill="none" stroke="midnightblue" d="M637.66,-168.32C652.46,-159.82 675.25,-146.73 692.54,-136.8"/>
<polygon fill="midnightblue" stroke="midnightblue" points="694.57,-139.67 701.49,-131.65 691.08,-133.6 694.57,-139.67"/>
</g>
<!-- Node20 -->
<g id="node20" class="node">
<title>Node20</title>
<g id="a_node20"><a xlink:href="siphash_8h.html" target="_top" xlink:title=" ">
<polygon fill="white" stroke="black" points="15.06,-56.5 15.06,-75.5 110.06,-75.5 110.06,-56.5 15.06,-56.5"/>
<text text-anchor="middle" x="62.56" y="-63.5" font-family="Helvetica,sans-Serif" font-size="10.00">ccf/ds/siphash.h</text>
</a>
</g>
</g>
<!-- Node19&#45;&gt;Node20 -->
<g id="edge21" class="edge">
<title>Node19&#45;&gt;Node20</title>
<path fill="none" stroke="midnightblue" d="M223.3,-112.44C190.6,-103.2 138.38,-88.44 102.38,-78.26"/>
<polygon fill="midnightblue" stroke="midnightblue" points="103.26,-74.87 92.68,-75.52 101.35,-81.61 103.26,-74.87"/>
</g>
<!-- Node22 -->
<g id="node22" class="node">
<title>Node22</title>
<g id="a_node22"><a xlink:title=" ">
<polygon fill="white" stroke="#bfbfbf" points="72.56,-0.5 72.56,-19.5 122.56,-19.5 122.56,-0.5 72.56,-0.5"/>
<text text-anchor="middle" x="97.56" y="-7.5" font-family="Helvetica,sans-Serif" font-size="10.00">cstdint</text>
</a>
</g>
</g>
<!-- Node19&#45;&gt;Node22 -->
<g id="edge26" class="edge">
<title>Node19&#45;&gt;Node22</title>
<path fill="none" stroke="midnightblue" d="M213.41,-119.73C150.1,-116.79 31.57,-107.16 5.56,-76 -15.03,-51.34 28.69,-31.56 62.67,-20.55"/>
<polygon fill="midnightblue" stroke="midnightblue" points="63.85,-23.85 72.37,-17.56 61.78,-17.16 63.85,-23.85"/>
</g>
<!-- Node19&#45;&gt;Node23 -->
<g id="edge28" class="edge">
<title>Node19&#45;&gt;Node23</title>
<path fill="none" stroke="midnightblue" d="M264.18,-112.18C274.46,-103.44 290.23,-89.45 302.56,-76 316.63,-60.65 330.94,-41.62 340.63,-28.13"/>
<polygon fill="midnightblue" stroke="midnightblue" points="343.61,-29.97 346.53,-19.79 337.9,-25.93 343.61,-29.97"/>
</g>
<!-- Node24 -->
<g id="node24" class="node">
<title>Node24</title>
<g id="a_node24"><a xlink:title=" ">
<polygon fill="white" stroke="#bfbfbf" points="268.56,-0.5 268.56,-19.5 310.56,-19.5 310.56,-0.5 268.56,-0.5"/>
<text text-anchor="middle" x="289.56" y="-7.5" font-family="Helvetica,sans-Serif" font-size="10.00">array</text>
</a>
</g>
</g>
<!-- Node19&#45;&gt;Node24 -->
<g id="edge25" class="edge">
<title>Node19&#45;&gt;Node24</title>
<path fill="none" stroke="midnightblue" d="M262.11,-112.22C269.78,-103.73 280.58,-90.1 285.56,-76 290.81,-61.16 291.53,-43.24 291.1,-29.97"/>
<polygon fill="midnightblue" stroke="midnightblue" points="294.58,-29.49 290.51,-19.71 287.59,-29.9 294.58,-29.49"/>
</g>
<!-- Node25 -->
<g id="node25" class="node">
<title>Node25</title>
<g id="a_node25"><a xlink:title=" ">
<polygon fill="white" stroke="#bfbfbf" points="128.06,-56.5 128.06,-75.5 277.06,-75.5 277.06,-56.5 128.06,-56.5"/>
<text text-anchor="middle" x="202.56" y="-63.5" font-family="Helvetica,sans-Serif" font-size="10.00">small_vector/SmallVector.h</text>
</a>
</g>
</g>
<!-- Node19&#45;&gt;Node25 -->
<g id="edge27" class="edge">
<title>Node19&#45;&gt;Node25</title>
<path fill="none" stroke="midnightblue" d="M245.14,-112.08C237.71,-104.22 226.71,-92.57 217.75,-83.08"/>
<polygon fill="midnightblue" stroke="midnightblue" points="220.24,-80.62 210.82,-75.75 215.15,-85.42 220.24,-80.62"/>
</g>
<!-- Node21 -->
<g id="node21" class="node">
<title>Node21</title>
<g id="a_node21"><a xlink:title=" ">
<polygon fill="white" stroke="#bfbfbf" points="1.06,-0.5 1.06,-19.5 54.06,-19.5 54.06,-0.5 1.06,-0.5"/>
<text text-anchor="middle" x="27.56" y="-7.5" font-family="Helvetica,sans-Serif" font-size="10.00">cstddef</text>
</a>
</g>
</g>
<!-- Node20&#45;&gt;Node21 -->
<g id="edge22" class="edge">
<title>Node20&#45;&gt;Node21</title>
<path fill="none" stroke="midnightblue" d="M56.78,-56.08C51.89,-48.53 44.73,-37.49 38.73,-28.23"/>
<polygon fill="midnightblue" stroke="midnightblue" points="41.61,-26.24 33.23,-19.75 35.73,-30.05 41.61,-26.24"/>
</g>
<!-- Node20&#45;&gt;Node22 -->
<g id="edge23" class="edge">
<title>Node20&#45;&gt;Node22</title>
<path fill="none" stroke="midnightblue" d="M68.34,-56.08C73.23,-48.53 80.39,-37.49 86.39,-28.23"/>
<polygon fill="midnightblue" stroke="midnightblue" points="89.39,-30.05 91.89,-19.75 83.51,-26.24 89.39,-30.05"/>
</g>
<!-- Node20&#45;&gt;Node23 -->
<g id="edge24" class="edge">
<title>Node20&#45;&gt;Node23</title>
<path fill="none" stroke="midnightblue" d="M110.23,-57.2C169.11,-47.47 266.89,-31.02 318.79,-19.96"/>
<polygon fill="midnightblue" stroke="midnightblue" points="319.82,-23.32 328.83,-17.75 318.31,-16.48 319.82,-23.32"/>
</g>
<!-- Node26&#45;&gt;Node16 -->
<g id="edge35" class="edge">
<title>Node26&#45;&gt;Node16</title>
<path fill="none" stroke="midnightblue" d="M536.58,-57.83C601.54,-47.48 720.88,-28.47 785.74,-18.14"/>
<polygon fill="midnightblue" stroke="midnightblue" points="786.34,-21.59 795.66,-16.56 785.24,-14.68 786.34,-21.59"/>
</g>
<!-- Node26&#45;&gt;Node23 -->
<g id="edge36" class="edge">
<title>Node26&#45;&gt;Node23</title>
<path fill="none" stroke="midnightblue" d="M469.53,-56.44C446.46,-47.48 410,-33.31 383.92,-23.18"/>
<polygon fill="midnightblue" stroke="midnightblue" points="385.07,-19.88 374.48,-19.52 382.54,-26.4 385.07,-19.88"/>
</g>
<!-- Node26&#45;&gt;Node24 -->
<g id="edge31" class="edge">
<title>Node26&#45;&gt;Node24</title>
<path fill="none" stroke="midnightblue" d="M457.52,-56.48C424.79,-48.19 373.69,-35.04 320.74,-20.26"/>
<polygon fill="midnightblue" stroke="midnightblue" points="321.41,-16.82 310.84,-17.49 319.52,-23.56 321.41,-16.82"/>
</g>
<!-- Node27 -->
<g id="node27" class="node">
<title>Node27</title>
<g id="a_node27"><a xlink:title=" ">
<polygon fill="white" stroke="#bfbfbf" points="394.56,-0.5 394.56,-19.5 458.56,-19.5 458.56,-0.5 394.56,-0.5"/>
<text text-anchor="middle" x="426.56" y="-7.5" font-family="Helvetica,sans-Serif" font-size="10.00">algorithm</text>
</a>
</g>
</g>
<!-- Node26&#45;&gt;Node27 -->
<g id="edge30" class="edge">
<title>Node26&#45;&gt;Node27</title>
<path fill="none" stroke="midnightblue" d="M481.12,-56.32C471.41,-48.26 456.74,-36.08 445.06,-26.37"/>
<polygon fill="midnightblue" stroke="midnightblue" points="447.12,-23.53 437.19,-19.83 442.65,-28.92 447.12,-23.53"/>
</g>
<!-- Node28 -->
<g id="node28" class="node">
<title>Node28</title>
<g id="a_node28"><a xlink:title=" ">
<polygon fill="white" stroke="#bfbfbf" points="477.06,-0.5 477.06,-19.5 526.06,-19.5 526.06,-0.5 477.06,-0.5"/>
<text text-anchor="middle" x="501.56" y="-7.5" font-family="Helvetica,sans-Serif" font-size="10.00">cctype</text>
</a>
</g>
</g>
<!-- Node26&#45;&gt;Node28 -->
<g id="edge32" class="edge">
<title>Node26&#45;&gt;Node28</title>
<path fill="none" stroke="midnightblue" d="M493.21,-56.08C494.54,-48.93 496.44,-38.64 498.1,-29.69"/>
<polygon fill="midnightblue" stroke="midnightblue" points="501.56,-30.22 499.94,-19.75 494.68,-28.95 501.56,-30.22"/>
</g>
<!-- Node26&#45;&gt;Node29 -->
<g id="edge33" class="edge">
<title>Node26&#45;&gt;Node29</title>
<path fill="none" stroke="midnightblue" d="M517.86,-56.44C547.15,-46.92 594.47,-31.52 625.8,-21.33"/>
<polygon fill="midnightblue" stroke="midnightblue" points="626.94,-24.64 635.36,-18.22 624.77,-17.99 626.94,-24.64"/>
</g>
<!-- Node30 -->
<g id="node30" class="node">
<title>Node30</title>
<g id="a_node30"><a xlink:title=" ">
<polygon fill="white" stroke="#bfbfbf" points="544.06,-0.5 544.06,-19.5 617.06,-19.5 617.06,-0.5 544.06,-0.5"/>
<text text-anchor="middle" x="580.56" y="-7.5" font-family="Helvetica,sans-Serif" font-size="10.00">string_view</text>
</a>
</g>
</g>
<!-- Node26&#45;&gt;Node30 -->
<g id="edge34" class="edge">
<title>Node26&#45;&gt;Node30</title>
<path fill="none" stroke="midnightblue" d="M505.86,-56.32C519.74,-47.9 541.05,-34.97 557.36,-25.07"/>
<polygon fill="midnightblue" stroke="midnightblue" points="559.56,-27.83 566.3,-19.65 555.93,-21.85 559.56,-27.83"/>
</g>
<!-- Node31&#45;&gt;Node16 -->
<g id="edge47" class="edge">
<title>Node31&#45;&gt;Node16</title>
<path fill="none" stroke="midnightblue" d="M664.73,-114.19C714.32,-104.3 799.95,-86.04 810.56,-76 823.14,-64.09 827.87,-44.47 829.62,-29.9"/>
<polygon fill="midnightblue" stroke="midnightblue" points="833.14,-29.79 830.47,-19.54 826.16,-29.22 833.14,-29.79"/>
</g>
<!-- Node31&#45;&gt;Node23 -->
<g id="edge48" class="edge">
<title>Node31&#45;&gt;Node23</title>
<path fill="none" stroke="midnightblue" d="M594.46,-117.28C554.81,-112.07 489.1,-100.36 437.56,-76 410.96,-63.43 384.73,-41.53 368.61,-26.66"/>
<polygon fill="midnightblue" stroke="midnightblue" points="370.82,-23.93 361.14,-19.61 366.01,-29.02 370.82,-23.93"/>
</g>
<!-- Node31&#45;&gt;Node26 -->
<g id="edge38" class="edge">
<title>Node31&#45;&gt;Node26</title>
<path fill="none" stroke="midnightblue" d="M607.69,-112.44C584.78,-103.48 548.58,-89.31 522.69,-79.18"/>
<polygon fill="midnightblue" stroke="midnightblue" points="523.91,-75.9 513.32,-75.52 521.36,-82.42 523.91,-75.9"/>
</g>
<!-- Node32 -->
<g id="node32" class="node">
<title>Node32</title>
<g id="a_node32"><a xlink:href="serialized_8h.html" target="_top" xlink:title=" ">
<polygon fill="white" stroke="black" points="593.06,-56.5 593.06,-75.5 666.06,-75.5 666.06,-56.5 593.06,-56.5"/>
<text text-anchor="middle" x="629.56" y="-63.5" font-family="Helvetica,sans-Serif" font-size="10.00">serialized.h</text>
</a>
</g>
</g>
<!-- Node31&#45;&gt;Node32 -->
<g id="edge39" class="edge">
<title>Node31&#45;&gt;Node32</title>
<path fill="none" stroke="midnightblue" d="M629.56,-112.08C629.56,-105.01 629.56,-94.86 629.56,-85.99"/>
<polygon fill="midnightblue" stroke="midnightblue" points="633.06,-85.75 629.56,-75.75 626.06,-85.75 633.06,-85.75"/>
</g>
<!-- Node35 -->
<g id="node35" class="node">
<title>Node35</title>
<g id="a_node35"><a xlink:title=" ">
<polygon fill="white" stroke="#bfbfbf" points="684.56,-56.5 684.56,-75.5 742.56,-75.5 742.56,-56.5 684.56,-56.5"/>
<text text-anchor="middle" x="713.56" y="-63.5" font-family="Helvetica,sans-Serif" font-size="10.00">memory</text>
</a>
</g>
</g>
<!-- Node31&#45;&gt;Node35 -->
<g id="edge45" class="edge">
<title>Node31&#45;&gt;Node35</title>
<path fill="none" stroke="midnightblue" d="M643.06,-112.32C656.16,-103.9 676.27,-90.97 691.67,-81.07"/>
<polygon fill="midnightblue" stroke="midnightblue" points="693.58,-84.01 700.1,-75.65 689.79,-78.12 693.58,-84.01"/>
</g>
<!-- Node36 -->
<g id="node36" class="node">
<title>Node36</title>
<g id="a_node36"><a xlink:title=" ">
<polygon fill="white" stroke="#bfbfbf" points="761.06,-56.5 761.06,-75.5 802.06,-75.5 802.06,-56.5 761.06,-56.5"/>
<text text-anchor="middle" x="781.56" y="-63.5" font-family="Helvetica,sans-Serif" font-size="10.00">tuple</text>
</a>
</g>
</g>
<!-- Node31&#45;&gt;Node36 -->
<g id="edge46" class="edge">
<title>Node31&#45;&gt;Node36</title>
<path fill="none" stroke="midnightblue" d="M653.64,-112.44C680.15,-103.03 722.8,-87.87 751.49,-77.68"/>
<polygon fill="midnightblue" stroke="midnightblue" points="752.75,-80.95 761,-74.3 750.41,-74.35 752.75,-80.95"/>
</g>
<!-- Node32&#45;&gt;Node22 -->
<g id="edge40" class="edge">
<title>Node32&#45;&gt;Node22</title>
<path fill="none" stroke="midnightblue" d="M592.77,-61C578.08,-59.42 561.02,-57.61 545.56,-56 392.16,-40.08 209.11,-21.97 133.23,-14.5"/>
<polygon fill="midnightblue" stroke="midnightblue" points="133.12,-10.97 122.83,-13.48 132.44,-17.94 133.12,-10.97"/>
</g>
<!-- Node32&#45;&gt;Node23 -->
<g id="edge44" class="edge">
<title>Node32&#45;&gt;Node23</title>
<path fill="none" stroke="midnightblue" d="M592.99,-59.24C547.06,-51.79 465.66,-37.87 386.44,-20.04"/>
<polygon fill="midnightblue" stroke="midnightblue" points="386.82,-16.53 376.29,-17.73 385.27,-23.36 386.82,-16.53"/>
</g>
<!-- Node32&#45;&gt;Node29 -->
<g id="edge43" class="edge">
<title>Node32&#45;&gt;Node29</title>
<path fill="none" stroke="midnightblue" d="M634.18,-56.08C638.02,-48.69 643.58,-37.95 648.32,-28.81"/>
<polygon fill="midnightblue" stroke="midnightblue" points="651.53,-30.24 653.02,-19.75 645.31,-27.02 651.53,-30.24"/>
</g>
<!-- Node32&#45;&gt;Node33 -->
<g id="edge41" class="edge">
<title>Node32&#45;&gt;Node33</title>
<path fill="none" stroke="midnightblue" d="M646.11,-56.32C662.55,-47.7 687.99,-34.36 707.03,-24.39"/>
<polygon fill="midnightblue" stroke="midnightblue" points="708.82,-27.4 716.05,-19.65 705.57,-21.2 708.82,-27.4"/>
</g>
<!-- Node32&#45;&gt;Node34 -->
<g id="edge42" class="edge">
<title>Node32&#45;&gt;Node34</title>
<path fill="none" stroke="midnightblue" d="M666.15,-57.43C669.33,-56.9 672.49,-56.41 675.56,-56 891.58,-27.15 1152.52,-15.83 1253.64,-12.32"/>
<polygon fill="midnightblue" stroke="midnightblue" points="1253.89,-15.82 1263.76,-11.98 1253.65,-8.82 1253.89,-15.82"/>
</g>
<!-- Node41 -->
<g id="node41" class="node">
<title>Node41</title>
<g id="a_node41"><a xlink:href="proxy_8h.html" target="_top" xlink:title=" ">
<polygon fill="white" stroke="black" points="1705.56,-224.5 1705.56,-243.5 1757.56,-243.5 1757.56,-224.5 1705.56,-224.5"/>
<text text-anchor="middle" x="1731.56" y="-231.5" font-family="Helvetica,sans-Serif" font-size="10.00">proxy.h</text>
</a>
</g>
</g>
<!-- Node40&#45;&gt;Node41 -->
<g id="edge61" class="edge">
<title>Node40&#45;&gt;Node41</title>
<path fill="none" stroke="midnightblue" d="M1731.56,-280.08C1731.56,-273.01 1731.56,-262.86 1731.56,-253.99"/>
<polygon fill="midnightblue" stroke="midnightblue" points="1735.06,-253.75 1731.56,-243.75 1728.06,-253.75 1735.06,-253.75"/>
</g>
<!-- Node43 -->
<g id="node43" class="node">
<title>Node43</title>
<g id="a_node43"><a xlink:title=" ">
<polygon fill="white" stroke="#bfbfbf" points="1775.56,-224.5 1775.56,-243.5 1825.56,-243.5 1825.56,-224.5 1775.56,-224.5"/>
<text text-anchor="middle" x="1800.56" y="-231.5" font-family="Helvetica,sans-Serif" font-size="10.00">chrono</text>
</a>
</g>
</g>
<!-- Node40&#45;&gt;Node43 -->
<g id="edge63" class="edge">
<title>Node40&#45;&gt;Node43</title>
<path fill="none" stroke="midnightblue" d="M1742.65,-280.32C1753.05,-272.18 1768.82,-259.84 1781.28,-250.09"/>
<polygon fill="midnightblue" stroke="midnightblue" points="1783.55,-252.75 1789.27,-243.83 1779.24,-247.24 1783.55,-252.75"/>
</g>
<!-- Node42 -->
<g id="node42" class="node">
<title>Node42</title>
<g id="a_node42"><a xlink:title=" ">
<polygon fill="white" stroke="#bfbfbf" points="1713.06,-168.5 1713.06,-187.5 1750.06,-187.5 1750.06,-168.5 1713.06,-168.5"/>
<text text-anchor="middle" x="1731.56" y="-175.5" font-family="Helvetica,sans-Serif" font-size="10.00">uv.h</text>
</a>
</g>
</g>
<!-- Node41&#45;&gt;Node42 -->
<g id="edge62" class="edge">
<title>Node41&#45;&gt;Node42</title>
<path fill="none" stroke="midnightblue" d="M1731.56,-224.08C1731.56,-217.01 1731.56,-206.86 1731.56,-197.99"/>
<polygon fill="midnightblue" stroke="midnightblue" points="1735.06,-197.75 1731.56,-187.75 1728.06,-197.75 1735.06,-197.75"/>
</g>
</g>
</svg>
