<?xml version="1.0" encoding="UTF-8" standalone="no"?>
<!DOCTYPE svg PUBLIC "-//W3C//DTD SVG 1.1//EN"
 "http://www.w3.org/Graphics/SVG/1.1/DTD/svg11.dtd">
<!-- Generated by graphviz version 2.43.0 (0)
 -->
<!-- Title: samples/apps/logging/logging_schema.h Pages: 1 -->
<!--zoomable 453 -->
<svg id="main" version="1.1" xmlns="http://www.w3.org/2000/svg" xmlns:xlink="http://www.w3.org/1999/xlink" xml:space="preserve" onload="init(evt)">
<style type="text/css"><![CDATA[
.edge:hover path { stroke: red; }
.edge:hover polygon { stroke: red; fill: red; }
]]></style>
<script type="text/javascript"><![CDATA[
var edges = document.getElementsByTagName('g');
if (edges && edges.length) {
  for (var i=0;i<edges.length;i++) {
    if (edges[i].id.substr(0,4)=='edge') {
      edges[i].setAttribute('class','edge');
    }
  }
}
]]></script>
        <defs>
                <circle id="rim" cx="0" cy="0" r="7"/>
                <circle id="rim2" cx="0" cy="0" r="3.5"/>
                <g id="zoomPlus">
                        <use xlink:href="#rim" fill="#404040">
                                <set attributeName="fill" to="#808080" begin="zoomplus.mouseover" end="zoomplus.mouseout"/>
                        </use>
                        <path d="M-4,0h8M0,-4v8" fill="none" stroke="white" stroke-width="1.5" pointer-events="none"/>
                </g>
                <g id="zoomMin">
                        <use xlink:href="#rim" fill="#404040">
                                <set attributeName="fill" to="#808080" begin="zoomminus.mouseover" end="zoomminus.mouseout"/>
                        </use>
                        <path d="M-4,0h8" fill="none" stroke="white" stroke-width="1.5" pointer-events="none"/>
                </g>
                <g id="dirArrow">
                        <path fill="none" stroke="white" stroke-width="1.5" d="M0,-3.0v7 M-2.5,-0.5L0,-3.0L2.5,-0.5"/>
                </g>
               <g id="resetDef">
                       <use xlink:href="#rim2" fill="#404040">
                               <set attributeName="fill" to="#808080" begin="reset.mouseover" end="reset.mouseout"/>
                       </use>
               </g>
        </defs>

<script type="text/javascript">
var viewWidth = 1219;
var viewHeight = 453;
var sectionId = 'dynsection-0';
</script>
<script xlink:href="svgpan.js"/>
<svg id="graph" class="graph">
<g id="viewport">
<title>samples/apps/logging/logging_schema.h</title>
<polygon fill="white" stroke="transparent" points="-4,4 -4,-449 1214.5,-449 1214.5,4 -4,4"/>
<!-- Node1 -->
<g id="node1" class="node">
<title>Node1</title>
<g id="a_node1"><a xlink:title=" ">
<polygon fill="#bfbfbf" stroke="black" points="465.5,-414.5 465.5,-444.5 588.5,-444.5 588.5,-414.5 465.5,-414.5"/>
<text text-anchor="start" x="473.5" y="-432.5" font-family="Helvetica,sans-Serif" font-size="10.00">samples/apps/logging</text>
<text text-anchor="middle" x="527" y="-421.5" font-family="Helvetica,sans-Serif" font-size="10.00">/logging_schema.h</text>
</a>
</g>
</g>
<!-- Node2 -->
<g id="node2" class="node">
<title>Node2</title>
<g id="a_node2"><a xlink:href="json_8h.html" target="_top" xlink:title=" ">
<polygon fill="white" stroke="black" points="491.5,-241 491.5,-260 568.5,-260 568.5,-241 491.5,-241"/>
<text text-anchor="middle" x="530" y="-248" font-family="Helvetica,sans-Serif" font-size="10.00">ccf/ds/json.h</text>
</a>
</g>
</g>
<!-- Node1&#45;&gt;Node2 -->
<g id="edge1" class="edge">
<title>Node1&#45;&gt;Node2</title>
<path fill="none" stroke="midnightblue" d="M521.9,-414.13C518.63,-404.14 514.69,-390.44 513,-378 507.77,-339.54 517.66,-294.48 524.42,-269.87"/>
<polygon fill="midnightblue" stroke="midnightblue" points="527.83,-270.67 527.24,-260.09 521.11,-268.73 527.83,-270.67"/>
</g>
<!-- Node16 -->
<g id="node16" class="node">
<title>Node16</title>
<g id="a_node16"><a xlink:href="include_2ccf_2receipt_8h.html" target="_top" xlink:title=" ">
<polygon fill="white" stroke="black" points="522.5,-358.5 522.5,-377.5 599.5,-377.5 599.5,-358.5 522.5,-358.5"/>
<text text-anchor="middle" x="561" y="-365.5" font-family="Helvetica,sans-Serif" font-size="10.00">ccf/receipt.h</text>
</a>
</g>
</g>
<!-- Node1&#45;&gt;Node16 -->
<g id="edge18" class="edge">
<title>Node1&#45;&gt;Node16</title>
<path fill="none" stroke="midnightblue" d="M535.06,-414.4C539.85,-406.02 545.96,-395.33 551.04,-386.42"/>
<polygon fill="midnightblue" stroke="midnightblue" points="554.13,-388.08 556.05,-377.66 548.05,-384.6 554.13,-388.08"/>
</g>
<!-- Node3 -->
<g id="node3" class="node">
<title>Node3</title>
<g id="a_node3"><a xlink:href="include_2ccf_2crypto_2base64_8h.html" target="_top" xlink:title=" ">
<polygon fill="white" stroke="black" points="717,-112.5 717,-131.5 829,-131.5 829,-112.5 717,-112.5"/>
<text text-anchor="middle" x="773" y="-119.5" font-family="Helvetica,sans-Serif" font-size="10.00">ccf/crypto/base64.h</text>
</a>
</g>
</g>
<!-- Node2&#45;&gt;Node3 -->
<g id="edge2" class="edge">
<title>Node2&#45;&gt;Node3</title>
<path fill="none" stroke="midnightblue" d="M559.1,-240.99C587.08,-232.27 630.14,-217.39 665,-199 698.53,-181.3 733.81,-154.76 754.59,-138.18"/>
<polygon fill="midnightblue" stroke="midnightblue" points="756.98,-140.74 762.55,-131.74 752.58,-135.3 756.98,-140.74"/>
</g>
<!-- Node6 -->
<g id="node6" class="node">
<title>Node6</title>
<g id="a_node6"><a xlink:href="include_2ccf_2ds_2json__schema_8h.html" target="_top" xlink:title=" ">
<polygon fill="white" stroke="black" points="460.5,-174 460.5,-193 581.5,-193 581.5,-174 460.5,-174"/>
<text text-anchor="middle" x="521" y="-181" font-family="Helvetica,sans-Serif" font-size="10.00">ccf/ds/json_schema.h</text>
</a>
</g>
</g>
<!-- Node2&#45;&gt;Node6 -->
<g id="edge5" class="edge">
<title>Node2&#45;&gt;Node6</title>
<path fill="none" stroke="midnightblue" d="M528.79,-240.73C527.46,-231.18 525.31,-215.62 523.6,-203.28"/>
<polygon fill="midnightblue" stroke="midnightblue" points="527.03,-202.55 522.19,-193.13 520.1,-203.51 527.03,-202.55"/>
</g>
<!-- Node13 -->
<g id="node13" class="node">
<title>Node13</title>
<g id="a_node13"><a xlink:title=" ">
<polygon fill="white" stroke="#bfbfbf" points="415.5,-56.5 415.5,-75.5 494.5,-75.5 494.5,-56.5 415.5,-56.5"/>
<text text-anchor="middle" x="455" y="-63.5" font-family="Helvetica,sans-Serif" font-size="10.00">fmt/format.h</text>
</a>
</g>
</g>
<!-- Node2&#45;&gt;Node13 -->
<g id="edge16" class="edge">
<title>Node2&#45;&gt;Node13</title>
<path fill="none" stroke="midnightblue" d="M507.93,-240.88C489.96,-232.73 465.29,-218.8 451,-199 427.94,-167.06 425.47,-150.46 434,-112 436.12,-102.43 440.51,-92.48 444.72,-84.37"/>
<polygon fill="midnightblue" stroke="midnightblue" points="447.82,-86 449.62,-75.56 441.7,-82.6 447.82,-86"/>
</g>
<!-- Node15 -->
<g id="node15" class="node">
<title>Node15</title>
<g id="a_node15"><a xlink:title=" ">
<polygon fill="white" stroke="#bfbfbf" points="600,-174 600,-193 656,-193 656,-174 600,-174"/>
<text text-anchor="middle" x="628" y="-181" font-family="Helvetica,sans-Serif" font-size="10.00">sstream</text>
</a>
</g>
</g>
<!-- Node2&#45;&gt;Node15 -->
<g id="edge17" class="edge">
<title>Node2&#45;&gt;Node15</title>
<path fill="none" stroke="midnightblue" d="M543.22,-240.73C559.45,-229.96 587.22,-211.55 606.53,-198.74"/>
<polygon fill="midnightblue" stroke="midnightblue" points="608.59,-201.57 614.99,-193.13 604.72,-195.74 608.59,-201.57"/>
</g>
<!-- Node4 -->
<g id="node4" class="node">
<title>Node4</title>
<g id="a_node4"><a xlink:title=" ">
<polygon fill="white" stroke="#bfbfbf" points="886,-56.5 886,-75.5 930,-75.5 930,-56.5 886,-56.5"/>
<text text-anchor="middle" x="908" y="-63.5" font-family="Helvetica,sans-Serif" font-size="10.00">string</text>
</a>
</g>
</g>
<!-- Node3&#45;&gt;Node4 -->
<g id="edge3" class="edge">
<title>Node3&#45;&gt;Node4</title>
<path fill="none" stroke="midnightblue" d="M794.39,-112.44C816.71,-103.52 851.9,-89.44 877.21,-79.32"/>
<polygon fill="midnightblue" stroke="midnightblue" points="878.72,-82.48 886.71,-75.52 876.12,-75.98 878.72,-82.48"/>
</g>
<!-- Node5 -->
<g id="node5" class="node">
<title>Node5</title>
<g id="a_node5"><a xlink:title=" ">
<polygon fill="white" stroke="#bfbfbf" points="667.5,-0.5 667.5,-19.5 714.5,-19.5 714.5,-0.5 667.5,-0.5"/>
<text text-anchor="middle" x="691" y="-7.5" font-family="Helvetica,sans-Serif" font-size="10.00">vector</text>
</a>
</g>
</g>
<!-- Node3&#45;&gt;Node5 -->
<g id="edge4" class="edge">
<title>Node3&#45;&gt;Node5</title>
<path fill="none" stroke="midnightblue" d="M793.39,-112.34C818.14,-100.58 854.61,-78.45 838,-56 812.11,-21 759.53,-12.33 724.78,-10.65"/>
<polygon fill="midnightblue" stroke="midnightblue" points="724.73,-7.15 714.62,-10.33 724.51,-14.14 724.73,-7.15"/>
</g>
<!-- Node7 -->
<g id="node7" class="node">
<title>Node7</title>
<g id="a_node7"><a xlink:href="nonstd_8h.html" target="_top" xlink:title=" ">
<polygon fill="white" stroke="black" points="609,-112.5 609,-131.5 699,-131.5 699,-112.5 609,-112.5"/>
<text text-anchor="middle" x="654" y="-119.5" font-family="Helvetica,sans-Serif" font-size="10.00">ccf/ds/nonstd.h</text>
</a>
</g>
</g>
<!-- Node6&#45;&gt;Node7 -->
<g id="edge6" class="edge">
<title>Node6&#45;&gt;Node7</title>
<path fill="none" stroke="midnightblue" d="M540.06,-173.98C562.47,-163.95 599.91,-147.2 625.71,-135.65"/>
<polygon fill="midnightblue" stroke="midnightblue" points="627.28,-138.79 634.98,-131.51 624.42,-132.4 627.28,-138.79"/>
</g>
<!-- Node6&#45;&gt;Node13 -->
<g id="edge14" class="edge">
<title>Node6&#45;&gt;Node13</title>
<path fill="none" stroke="midnightblue" d="M532.6,-173.84C549.23,-160.33 576.34,-133.58 562,-112 549.04,-92.49 525.8,-81.42 504.28,-75.15"/>
<polygon fill="midnightblue" stroke="midnightblue" points="505.12,-71.75 494.56,-72.59 503.34,-78.52 505.12,-71.75"/>
</g>
<!-- Node14 -->
<g id="node14" class="node">
<title>Node14</title>
<g id="a_node14"><a xlink:title=" ">
<polygon fill="white" stroke="#bfbfbf" points="443,-112.5 443,-131.5 553,-131.5 553,-112.5 443,-112.5"/>
<text text-anchor="middle" x="498" y="-119.5" font-family="Helvetica,sans-Serif" font-size="10.00">nlohmann/json.hpp</text>
</a>
</g>
</g>
<!-- Node6&#45;&gt;Node14 -->
<g id="edge15" class="edge">
<title>Node6&#45;&gt;Node14</title>
<path fill="none" stroke="midnightblue" d="M517.7,-173.98C514.39,-165.4 509.18,-151.93 504.95,-140.98"/>
<polygon fill="midnightblue" stroke="midnightblue" points="508.16,-139.57 501.29,-131.51 501.63,-142.1 508.16,-139.57"/>
</g>
<!-- Node7&#45;&gt;Node4 -->
<g id="edge10" class="edge">
<title>Node7&#45;&gt;Node4</title>
<path fill="none" stroke="midnightblue" d="M694.25,-112.44C744.47,-101.77 829.37,-83.72 875.61,-73.89"/>
<polygon fill="midnightblue" stroke="midnightblue" points="876.63,-77.25 885.68,-71.75 875.17,-70.4 876.63,-77.25"/>
</g>
<!-- Node7&#45;&gt;Node5 -->
<g id="edge13" class="edge">
<title>Node7&#45;&gt;Node5</title>
<path fill="none" stroke="midnightblue" d="M608.77,-112.44C569.05,-102.82 520.69,-84.7 542,-56 568.35,-20.51 621.86,-12 657.07,-10.48"/>
<polygon fill="midnightblue" stroke="midnightblue" points="657.45,-13.98 667.35,-10.22 657.26,-6.98 657.45,-13.98"/>
</g>
<!-- Node8 -->
<g id="node8" class="node">
<title>Node8</title>
<g id="a_node8"><a xlink:title=" ">
<polygon fill="white" stroke="#bfbfbf" points="551,-56.5 551,-75.5 615,-75.5 615,-56.5 551,-56.5"/>
<text text-anchor="middle" x="583" y="-63.5" font-family="Helvetica,sans-Serif" font-size="10.00">algorithm</text>
</a>
</g>
</g>
<!-- Node7&#45;&gt;Node8 -->
<g id="edge7" class="edge">
<title>Node7&#45;&gt;Node8</title>
<path fill="none" stroke="midnightblue" d="M642.59,-112.32C631.89,-104.18 615.66,-91.84 602.84,-82.09"/>
<polygon fill="midnightblue" stroke="midnightblue" points="604.69,-79.1 594.61,-75.83 600.46,-84.67 604.69,-79.1"/>
</g>
<!-- Node9 -->
<g id="node9" class="node">
<title>Node9</title>
<g id="a_node9"><a xlink:title=" ">
<polygon fill="white" stroke="#bfbfbf" points="633,-56.5 633,-75.5 675,-75.5 675,-56.5 633,-56.5"/>
<text text-anchor="middle" x="654" y="-63.5" font-family="Helvetica,sans-Serif" font-size="10.00">array</text>
</a>
</g>
</g>
<!-- Node7&#45;&gt;Node9 -->
<g id="edge8" class="edge">
<title>Node7&#45;&gt;Node9</title>
<path fill="none" stroke="midnightblue" d="M654,-112.08C654,-105.01 654,-94.86 654,-85.99"/>
<polygon fill="midnightblue" stroke="midnightblue" points="657.5,-85.75 654,-75.75 650.5,-85.75 657.5,-85.75"/>
</g>
<!-- Node10 -->
<g id="node10" class="node">
<title>Node10</title>
<g id="a_node10"><a xlink:title=" ">
<polygon fill="white" stroke="#bfbfbf" points="693.5,-56.5 693.5,-75.5 742.5,-75.5 742.5,-56.5 693.5,-56.5"/>
<text text-anchor="middle" x="718" y="-63.5" font-family="Helvetica,sans-Serif" font-size="10.00">cctype</text>
</a>
</g>
</g>
<!-- Node7&#45;&gt;Node10 -->
<g id="edge9" class="edge">
<title>Node7&#45;&gt;Node10</title>
<path fill="none" stroke="midnightblue" d="M664.28,-112.32C673.84,-104.26 688.28,-92.08 699.78,-82.37"/>
<polygon fill="midnightblue" stroke="midnightblue" points="702.14,-84.96 707.53,-75.83 697.63,-79.61 702.14,-84.96"/>
</g>
<!-- Node11 -->
<g id="node11" class="node">
<title>Node11</title>
<g id="a_node11"><a xlink:title=" ">
<polygon fill="white" stroke="#bfbfbf" points="324.5,-56.5 324.5,-75.5 397.5,-75.5 397.5,-56.5 324.5,-56.5"/>
<text text-anchor="middle" x="361" y="-63.5" font-family="Helvetica,sans-Serif" font-size="10.00">string_view</text>
</a>
</g>
</g>
<!-- Node7&#45;&gt;Node11 -->
<g id="edge11" class="edge">
<title>Node7&#45;&gt;Node11</title>
<path fill="none" stroke="midnightblue" d="M608.7,-113.03C561.08,-104.6 483.72,-90.74 408.01,-76.36"/>
<polygon fill="midnightblue" stroke="midnightblue" points="408.3,-72.85 397.83,-74.42 407,-79.73 408.3,-72.85"/>
</g>
<!-- Node12 -->
<g id="node12" class="node">
<title>Node12</title>
<g id="a_node12"><a xlink:title=" ">
<polygon fill="white" stroke="#bfbfbf" points="760.5,-56.5 760.5,-75.5 829.5,-75.5 829.5,-56.5 760.5,-56.5"/>
<text text-anchor="middle" x="795" y="-63.5" font-family="Helvetica,sans-Serif" font-size="10.00">type_traits</text>
</a>
</g>
</g>
<!-- Node7&#45;&gt;Node12 -->
<g id="edge12" class="edge">
<title>Node7&#45;&gt;Node12</title>
<path fill="none" stroke="midnightblue" d="M676.34,-112.44C699.75,-103.48 736.74,-89.31 763.19,-79.18"/>
<polygon fill="midnightblue" stroke="midnightblue" points="764.68,-82.36 772.76,-75.52 762.17,-75.82 764.68,-82.36"/>
</g>
<!-- Node16&#45;&gt;Node2 -->
<g id="edge27" class="edge">
<title>Node16&#45;&gt;Node2</title>
<path fill="none" stroke="midnightblue" d="M558.67,-358.32C553.67,-339.67 541.79,-295.44 535,-270.13"/>
<polygon fill="midnightblue" stroke="midnightblue" points="538.33,-269.03 532.36,-260.28 531.57,-270.85 538.33,-269.03"/>
</g>
<!-- Node17 -->
<g id="node17" class="node">
<title>Node17</title>
<g id="a_node17"><a xlink:href="pem_8h.html" target="_top" xlink:title=" ">
<polygon fill="white" stroke="black" points="223,-302.5 223,-321.5 321,-321.5 321,-302.5 223,-302.5"/>
<text text-anchor="middle" x="272" y="-309.5" font-family="Helvetica,sans-Serif" font-size="10.00">ccf/crypto/pem.h</text>
</a>
</g>
</g>
<!-- Node16&#45;&gt;Node17 -->
<g id="edge19" class="edge">
<title>Node16&#45;&gt;Node17</title>
<path fill="none" stroke="midnightblue" d="M522.32,-359.77C472.27,-350.42 384.7,-334.06 327.54,-323.38"/>
<polygon fill="midnightblue" stroke="midnightblue" points="328.06,-319.91 317.59,-321.52 326.77,-326.79 328.06,-319.91"/>
</g>
<!-- Node22 -->
<g id="node22" class="node">
<title>Node22</title>
<g id="a_node22"><a xlink:href="entity__id_8h.html" target="_top" xlink:title=" ">
<polygon fill="white" stroke="black" points="638,-302.5 638,-321.5 724,-321.5 724,-302.5 638,-302.5"/>
<text text-anchor="middle" x="681" y="-309.5" font-family="Helvetica,sans-Serif" font-size="10.00">ccf/entity_id.h</text>
</a>
</g>
</g>
<!-- Node16&#45;&gt;Node22 -->
<g id="edge28" class="edge">
<title>Node16&#45;&gt;Node22</title>
<path fill="none" stroke="midnightblue" d="M580.01,-358.44C599.59,-349.64 630.31,-335.81 652.73,-325.72"/>
<polygon fill="midnightblue" stroke="midnightblue" points="654.39,-328.81 662.07,-321.52 651.52,-322.43 654.39,-328.81"/>
</g>
<!-- Node30 -->
<g id="node30" class="node">
<title>Node30</title>
<g id="a_node30"><a xlink:title=" ">
<polygon fill="white" stroke="#bfbfbf" points="560,-302.5 560,-321.5 616,-321.5 616,-302.5 560,-302.5"/>
<text text-anchor="middle" x="588" y="-309.5" font-family="Helvetica,sans-Serif" font-size="10.00">optional</text>
</a>
</g>
</g>
<!-- Node16&#45;&gt;Node30 -->
<g id="edge41" class="edge">
<title>Node16&#45;&gt;Node30</title>
<path fill="none" stroke="midnightblue" d="M565.46,-358.08C569.15,-350.69 574.52,-339.95 579.09,-330.81"/>
<polygon fill="midnightblue" stroke="midnightblue" points="582.28,-332.26 583.62,-321.75 576.02,-329.13 582.28,-332.26"/>
</g>
<!-- Node17&#45;&gt;Node2 -->
<g id="edge20" class="edge">
<title>Node17&#45;&gt;Node2</title>
<path fill="none" stroke="midnightblue" d="M308.97,-302.48C354.85,-291.89 433.15,-273.84 483.18,-262.3"/>
<polygon fill="midnightblue" stroke="midnightblue" points="484.15,-265.67 493.1,-260.01 482.57,-258.85 484.15,-265.67"/>
</g>
<!-- Node17&#45;&gt;Node5 -->
<g id="edge26" class="edge">
<title>Node17&#45;&gt;Node5</title>
<path fill="none" stroke="midnightblue" d="M274.85,-302.21C281.2,-281.79 296,-229.43 296,-184.5 296,-184.5 296,-184.5 296,-121 296,-90.9 292.03,-75.45 315,-56 366.18,-12.65 574.67,-9.82 657.16,-10.45"/>
<polygon fill="midnightblue" stroke="midnightblue" points="657.23,-13.95 667.26,-10.55 657.3,-6.95 657.23,-13.95"/>
</g>
<!-- Node17&#45;&gt;Node11 -->
<g id="edge25" class="edge">
<title>Node17&#45;&gt;Node11</title>
<path fill="none" stroke="midnightblue" d="M281.52,-302.26C290.18,-293.79 302.69,-280.18 310,-266 341.56,-204.79 354.53,-122.7 358.99,-86.05"/>
<polygon fill="midnightblue" stroke="midnightblue" points="362.5,-86.17 360.16,-75.83 355.55,-85.37 362.5,-86.17"/>
</g>
<!-- Node18 -->
<g id="node18" class="node">
<title>Node18</title>
<g id="a_node18"><a xlink:title=" ">
<polygon fill="white" stroke="#bfbfbf" points="0,-241 0,-260 50,-260 50,-241 0,-241"/>
<text text-anchor="middle" x="25" y="-248" font-family="Helvetica,sans-Serif" font-size="10.00">cstring</text>
</a>
</g>
</g>
<!-- Node17&#45;&gt;Node18 -->
<g id="edge21" class="edge">
<title>Node17&#45;&gt;Node18</title>
<path fill="none" stroke="midnightblue" d="M222.66,-303.39C179.03,-295.99 113.97,-283.34 59,-266 57.07,-265.39 55.1,-264.71 53.13,-263.99"/>
<polygon fill="midnightblue" stroke="midnightblue" points="54.04,-260.59 43.46,-260.14 51.46,-267.09 54.04,-260.59"/>
</g>
<!-- Node19 -->
<g id="node19" class="node">
<title>Node19</title>
<g id="a_node19"><a xlink:title=" ">
<polygon fill="white" stroke="#bfbfbf" points="68.5,-241 68.5,-260 133.5,-260 133.5,-241 68.5,-241"/>
<text text-anchor="middle" x="101" y="-248" font-family="Helvetica,sans-Serif" font-size="10.00">exception</text>
</a>
</g>
</g>
<!-- Node17&#45;&gt;Node19 -->
<g id="edge22" class="edge">
<title>Node17&#45;&gt;Node19</title>
<path fill="none" stroke="midnightblue" d="M247.5,-302.48C218.04,-292.22 168.42,-274.96 135.2,-263.4"/>
<polygon fill="midnightblue" stroke="midnightblue" points="136.05,-259.99 125.45,-260.01 133.75,-266.6 136.05,-259.99"/>
</g>
<!-- Node20 -->
<g id="node20" class="node">
<title>Node20</title>
<g id="a_node20"><a xlink:title=" ">
<polygon fill="white" stroke="#bfbfbf" points="152,-241 152,-260 210,-260 210,-241 152,-241"/>
<text text-anchor="middle" x="181" y="-248" font-family="Helvetica,sans-Serif" font-size="10.00">memory</text>
</a>
</g>
</g>
<!-- Node17&#45;&gt;Node20 -->
<g id="edge23" class="edge">
<title>Node17&#45;&gt;Node20</title>
<path fill="none" stroke="midnightblue" d="M258.96,-302.48C244.23,-292.84 220.03,-277.02 202.49,-265.55"/>
<polygon fill="midnightblue" stroke="midnightblue" points="204.3,-262.55 194.01,-260.01 200.47,-268.41 204.3,-262.55"/>
</g>
<!-- Node21 -->
<g id="node21" class="node">
<title>Node21</title>
<g id="a_node21"><a xlink:title=" ">
<polygon fill="white" stroke="#bfbfbf" points="228,-241 228,-260 268,-260 268,-241 228,-241"/>
<text text-anchor="middle" x="248" y="-248" font-family="Helvetica,sans-Serif" font-size="10.00">span</text>
</a>
</g>
</g>
<!-- Node17&#45;&gt;Node21 -->
<g id="edge24" class="edge">
<title>Node17&#45;&gt;Node21</title>
<path fill="none" stroke="midnightblue" d="M268.56,-302.48C265.1,-293.9 259.67,-280.43 255.25,-269.48"/>
<polygon fill="midnightblue" stroke="midnightblue" points="258.42,-267.97 251.43,-260.01 251.93,-270.59 258.42,-267.97"/>
</g>
<!-- Node22&#45;&gt;Node2 -->
<g id="edge29" class="edge">
<title>Node22&#45;&gt;Node2</title>
<path fill="none" stroke="midnightblue" d="M659.37,-302.48C633.58,-292.31 590.29,-275.26 560.96,-263.7"/>
<polygon fill="midnightblue" stroke="midnightblue" points="562.18,-260.42 551.59,-260.01 559.62,-266.93 562.18,-260.42"/>
</g>
<!-- Node22&#45;&gt;Node4 -->
<g id="edge40" class="edge">
<title>Node22&#45;&gt;Node4</title>
<path fill="none" stroke="midnightblue" d="M713.74,-302.46C763.12,-288.18 857.29,-255.35 918,-199 948.93,-170.3 972.77,-150.72 956,-112 950.73,-99.84 940.38,-89.46 930.64,-81.74"/>
<polygon fill="midnightblue" stroke="midnightblue" points="932.5,-78.77 922.37,-75.67 928.36,-84.41 932.5,-78.77"/>
</g>
<!-- Node23 -->
<g id="node23" class="node">
<title>Node23</title>
<g id="a_node23"><a xlink:href="blit__serialiser_8h.html" target="_top" xlink:title=" ">
<polygon fill="white" stroke="black" points="634.5,-235.5 634.5,-265.5 733.5,-265.5 733.5,-235.5 634.5,-235.5"/>
<text text-anchor="start" x="642.5" y="-253.5" font-family="Helvetica,sans-Serif" font-size="10.00">ccf/kv/serialisers</text>
<text text-anchor="middle" x="684" y="-242.5" font-family="Helvetica,sans-Serif" font-size="10.00">/blit_serialiser.h</text>
</a>
</g>
</g>
<!-- Node22&#45;&gt;Node23 -->
<g id="edge30" class="edge">
<title>Node22&#45;&gt;Node23</title>
<path fill="none" stroke="midnightblue" d="M681.43,-302.48C681.78,-295.47 682.3,-285.19 682.78,-275.7"/>
<polygon fill="midnightblue" stroke="midnightblue" points="686.28,-275.69 683.29,-265.52 679.29,-275.33 686.28,-275.69"/>
</g>
<!-- Node23&#45;&gt;Node7 -->
<g id="edge31" class="edge">
<title>Node23&#45;&gt;Node7</title>
<path fill="none" stroke="midnightblue" d="M680.75,-235.35C677,-219.09 670.64,-191.6 665,-168 662.92,-159.29 660.57,-149.64 658.57,-141.52"/>
<polygon fill="midnightblue" stroke="midnightblue" points="661.93,-140.49 656.14,-131.62 655.13,-142.17 661.93,-140.49"/>
</g>
<!-- Node24 -->
<g id="node24" class="node">
<title>Node24</title>
<g id="a_node24"><a xlink:href="serialised__entry_8h.html" target="_top" xlink:title=" ">
<polygon fill="white" stroke="black" points="804.5,-168.5 804.5,-198.5 909.5,-198.5 909.5,-168.5 804.5,-168.5"/>
<text text-anchor="start" x="812.5" y="-186.5" font-family="Helvetica,sans-Serif" font-size="10.00">ccf/kv/serialisers</text>
<text text-anchor="middle" x="857" y="-175.5" font-family="Helvetica,sans-Serif" font-size="10.00">/serialised_entry.h</text>
</a>
</g>
</g>
<!-- Node23&#45;&gt;Node24 -->
<g id="edge32" class="edge">
<title>Node23&#45;&gt;Node24</title>
<path fill="none" stroke="midnightblue" d="M721.54,-235.4C747.5,-225.64 782.22,-212.59 810.02,-202.15"/>
<polygon fill="midnightblue" stroke="midnightblue" points="811.4,-205.37 819.53,-198.58 808.94,-198.82 811.4,-205.37"/>
</g>
<!-- Node25 -->
<g id="node25" class="node">
<title>Node25</title>
<g id="a_node25"><a xlink:href="byte__vector_8h.html" target="_top" xlink:title=" ">
<polygon fill="white" stroke="black" points="847,-112.5 847,-131.5 947,-131.5 947,-112.5 847,-112.5"/>
<text text-anchor="middle" x="897" y="-119.5" font-family="Helvetica,sans-Serif" font-size="10.00">ccf/byte_vector.h</text>
</a>
</g>
</g>
<!-- Node24&#45;&gt;Node25 -->
<g id="edge33" class="edge">
<title>Node24&#45;&gt;Node25</title>
<path fill="none" stroke="midnightblue" d="M866.48,-168.4C872.17,-159.93 879.45,-149.1 885.48,-140.14"/>
<polygon fill="midnightblue" stroke="midnightblue" points="888.51,-141.91 891.18,-131.66 882.7,-138 888.51,-141.91"/>
</g>
<!-- Node25&#45;&gt;Node13 -->
<g id="edge38" class="edge">
<title>Node25&#45;&gt;Node13</title>
<path fill="none" stroke="midnightblue" d="M846.8,-113.22C843.83,-112.8 840.88,-112.39 838,-112 718.8,-95.91 578.27,-80.24 505.06,-72.33"/>
<polygon fill="midnightblue" stroke="midnightblue" points="505.07,-68.81 494.75,-71.21 504.32,-75.77 505.07,-68.81"/>
</g>
<!-- Node26 -->
<g id="node26" class="node">
<title>Node26</title>
<g id="a_node26"><a xlink:href="siphash_8h.html" target="_top" xlink:title=" ">
<polygon fill="white" stroke="black" points="948.5,-56.5 948.5,-75.5 1043.5,-75.5 1043.5,-56.5 948.5,-56.5"/>
<text text-anchor="middle" x="996" y="-63.5" font-family="Helvetica,sans-Serif" font-size="10.00">ccf/ds/siphash.h</text>
</a>
</g>
</g>
<!-- Node25&#45;&gt;Node26 -->
<g id="edge34" class="edge">
<title>Node25&#45;&gt;Node26</title>
<path fill="none" stroke="midnightblue" d="M912.91,-112.32C928.64,-103.74 952.94,-90.49 971.21,-80.52"/>
<polygon fill="midnightblue" stroke="midnightblue" points="973.03,-83.52 980.13,-75.65 969.68,-77.37 973.03,-83.52"/>
</g>
<!-- Node29 -->
<g id="node29" class="node">
<title>Node29</title>
<g id="a_node29"><a xlink:title=" ">
<polygon fill="white" stroke="#bfbfbf" points="1061.5,-56.5 1061.5,-75.5 1210.5,-75.5 1210.5,-56.5 1061.5,-56.5"/>
<text text-anchor="middle" x="1136" y="-63.5" font-family="Helvetica,sans-Serif" font-size="10.00">small_vector/SmallVector.h</text>
</a>
</g>
</g>
<!-- Node25&#45;&gt;Node29 -->
<g id="edge39" class="edge">
<title>Node25&#45;&gt;Node29</title>
<path fill="none" stroke="midnightblue" d="M934.87,-112.44C976.48,-103.04 1043.37,-87.93 1088.47,-77.74"/>
<polygon fill="midnightblue" stroke="midnightblue" points="1089.32,-81.13 1098.31,-75.52 1087.78,-74.31 1089.32,-81.13"/>
</g>
<!-- Node26&#45;&gt;Node5 -->
<g id="edge37" class="edge">
<title>Node26&#45;&gt;Node5</title>
<path fill="none" stroke="midnightblue" d="M948.34,-56.56C886.3,-45.58 779.38,-26.65 724.96,-17.01"/>
<polygon fill="midnightblue" stroke="midnightblue" points="725.26,-13.51 714.81,-15.21 724.04,-20.4 725.26,-13.51"/>
</g>
<!-- Node27 -->
<g id="node27" class="node">
<title>Node27</title>
<g id="a_node27"><a xlink:title=" ">
<polygon fill="white" stroke="#bfbfbf" points="1004.5,-0.5 1004.5,-19.5 1057.5,-19.5 1057.5,-0.5 1004.5,-0.5"/>
<text text-anchor="middle" x="1031" y="-7.5" font-family="Helvetica,sans-Serif" font-size="10.00">cstddef</text>
</a>
</g>
</g>
<!-- Node26&#45;&gt;Node27 -->
<g id="edge35" class="edge">
<title>Node26&#45;&gt;Node27</title>
<path fill="none" stroke="midnightblue" d="M1001.78,-56.08C1006.67,-48.53 1013.83,-37.49 1019.83,-28.23"/>
<polygon fill="midnightblue" stroke="midnightblue" points="1022.83,-30.05 1025.33,-19.75 1016.95,-26.24 1022.83,-30.05"/>
</g>
<!-- Node28 -->
<g id="node28" class="node">
<title>Node28</title>
<g id="a_node28"><a xlink:title=" ">
<polygon fill="white" stroke="#bfbfbf" points="936,-0.5 936,-19.5 986,-19.5 986,-0.5 936,-0.5"/>
<text text-anchor="middle" x="961" y="-7.5" font-family="Helvetica,sans-Serif" font-size="10.00">cstdint</text>
</a>
</g>
</g>
<!-- Node26&#45;&gt;Node28 -->
<g id="edge36" class="edge">
<title>Node26&#45;&gt;Node28</title>
<path fill="none" stroke="midnightblue" d="M990.22,-56.08C985.33,-48.53 978.17,-37.49 972.17,-28.23"/>
<polygon fill="midnightblue" stroke="midnightblue" points="975.05,-26.24 966.67,-19.75 969.17,-30.05 975.05,-26.24"/>
</g>
</g>
</svg>
        <g id="navigator" transform="translate(0 0)" fill="#404254">
                <rect fill="#f2f5e9" fill-opacity="0.5" stroke="#606060" stroke-width=".5" x="0" y="0" width="60" height="60"/>
                <use id="zoomplus" xlink:href="#zoomPlus" x="17" y="9" onmousedown="handleZoom(evt,'in')"/>
                <use id="zoomminus" xlink:href="#zoomMin" x="42" y="9" onmousedown="handleZoom(evt,'out')"/>
                <use id="reset" xlink:href="#resetDef" x="30" y="36" onmousedown="handleReset()"/>
                <g id="arrowUp" xlink:href="#dirArrow" transform="translate(30 24)" onmousedown="handlePan(0,-1)">
                  <use xlink:href="#rim" fill="#404040">
                        <set attributeName="fill" to="#808080" begin="arrowUp.mouseover" end="arrowUp.mouseout"/>
                  </use>
                  <path fill="none" stroke="white" stroke-width="1.5" d="M0,-3.0v7 M-2.5,-0.5L0,-3.0L2.5,-0.5"/>
                </g>
                <g id="arrowRight" xlink:href="#dirArrow" transform="rotate(90) translate(36 -43)" onmousedown="handlePan(1,0)">
                  <use xlink:href="#rim" fill="#404040">
                        <set attributeName="fill" to="#808080" begin="arrowRight.mouseover" end="arrowRight.mouseout"/>
                  </use>
                  <path fill="none" stroke="white" stroke-width="1.5" d="M0,-3.0v7 M-2.5,-0.5L0,-3.0L2.5,-0.5"/>
                </g>
                <g id="arrowDown" xlink:href="#dirArrow" transform="rotate(180) translate(-30 -48)" onmousedown="handlePan(0,1)">
                  <use xlink:href="#rim" fill="#404040">
                        <set attributeName="fill" to="#808080" begin="arrowDown.mouseover" end="arrowDown.mouseout"/>
                  </use>
                  <path fill="none" stroke="white" stroke-width="1.5" d="M0,-3.0v7 M-2.5,-0.5L0,-3.0L2.5,-0.5"/>
                </g>
                <g id="arrowLeft" xlink:href="#dirArrow" transform="rotate(270) translate(-36 17)" onmousedown="handlePan(-1,0)">
                  <use xlink:href="#rim" fill="#404040">
                        <set attributeName="fill" to="#808080" begin="arrowLeft.mouseover" end="arrowLeft.mouseout"/>
                  </use>
                  <path fill="none" stroke="white" stroke-width="1.5" d="M0,-3.0v7 M-2.5,-0.5L0,-3.0L2.5,-0.5"/>
                </g>
        </g>
        <svg viewBox="0 0 15 15" width="100%" height="30px" preserveAspectRatio="xMaxYMin meet">
         <g id="arrow_out" transform="scale(0.3 0.3)">
          <a xlink:href="logging__schema_8h__incl_org.svg" target="_base">
           <rect id="button" ry="5" rx="5" y="6" x="6" height="38" width="38"
                fill="#f2f5e9" fill-opacity="0.5" stroke="#606060" stroke-width="1.0"/>
           <path id="arrow"
             d="M 11.500037,31.436501 C 11.940474,20.09759 22.043105,11.32322 32.158766,21.979434 L 37.068811,17.246167 C 37.068811,17.246167 37.088388,32 37.088388,32 L 22.160133,31.978069 C 22.160133,31.978069 26.997745,27.140456 26.997745,27.140456 C 18.528582,18.264221 13.291696,25.230495 11.500037,31.436501 z"
             style="fill:#404040;"/>
          </a>
         </g>
        </svg>
</svg>
