<?xml version="1.0" encoding="UTF-8" standalone="no"?>
<!DOCTYPE svg PUBLIC "-//W3C//DTD SVG 1.1//EN"
 "http://www.w3.org/Graphics/SVG/1.1/DTD/svg11.dtd">
<!-- Generated by graphviz version 2.43.0 (0)
 -->
<!-- Title: src/ds/messaging.h Pages: 1 -->
<svg width="1441pt" height="308pt"
 viewBox="0.00 0.00 1440.50 308.00" xmlns="http://www.w3.org/2000/svg" xmlns:xlink="http://www.w3.org/1999/xlink">
<g id="graph0" class="graph" transform="scale(1 1) rotate(0) translate(4 304)">
<title>src/ds/messaging.h</title>
<polygon fill="white" stroke="transparent" points="-4,4 -4,-304 1436.5,-304 1436.5,4 -4,4"/>
<!-- Node1 -->
<g id="node1" class="node">
<title>Node1</title>
<g id="a_node1"><a xlink:title=" ">
<polygon fill="#bfbfbf" stroke="black" points="1112,-280.5 1112,-299.5 1222,-299.5 1222,-280.5 1112,-280.5"/>
<text text-anchor="middle" x="1167" y="-287.5" font-family="Helvetica,sans-Serif" font-size="10.00">src/ds/messaging.h</text>
</a>
</g>
</g>
<!-- Node2 -->
<g id="node2" class="node">
<title>Node2</title>
<g id="a_node2"><a xlink:href="logger_8h.html" target="_top" xlink:title=" ">
<polygon fill="white" stroke="black" points="500.5,-224.5 500.5,-243.5 587.5,-243.5 587.5,-224.5 500.5,-224.5"/>
<text text-anchor="middle" x="544" y="-231.5" font-family="Helvetica,sans-Serif" font-size="10.00">ccf/ds/logger.h</text>
</a>
</g>
</g>
<!-- Node1&#45;&gt;Node2 -->
<g id="edge1" class="edge">
<title>Node1&#45;&gt;Node2</title>
<path fill="none" stroke="midnightblue" d="M1111.99,-284.23C993.5,-273.96 715.41,-249.86 597.91,-239.67"/>
<polygon fill="midnightblue" stroke="midnightblue" points="597.99,-236.17 587.72,-238.79 597.38,-243.14 597.99,-236.17"/>
</g>
<!-- Node8 -->
<g id="node8" class="node">
<title>Node8</title>
<g id="a_node8"><a xlink:title=" ">
<polygon fill="white" stroke="#bfbfbf" points="0,-112.5 0,-131.5 38,-131.5 38,-112.5 0,-112.5"/>
<text text-anchor="middle" x="19" y="-119.5" font-family="Helvetica,sans-Serif" font-size="10.00">map</text>
</a>
</g>
</g>
<!-- Node1&#45;&gt;Node8 -->
<g id="edge57" class="edge">
<title>Node1&#45;&gt;Node8</title>
<path fill="none" stroke="midnightblue" d="M1111.93,-287.75C896.75,-282.37 120.55,-258.19 38,-188 24.72,-176.71 20.45,-156.71 19.21,-141.86"/>
<polygon fill="midnightblue" stroke="midnightblue" points="22.7,-141.58 18.75,-131.74 15.71,-141.89 22.7,-141.58"/>
</g>
<!-- Node16 -->
<g id="node16" class="node">
<title>Node16</title>
<g id="a_node16"><a xlink:href="ring__buffer_8h.html" target="_top" xlink:title=" ">
<polygon fill="white" stroke="black" points="1162.5,-224.5 1162.5,-243.5 1239.5,-243.5 1239.5,-224.5 1162.5,-224.5"/>
<text text-anchor="middle" x="1201" y="-231.5" font-family="Helvetica,sans-Serif" font-size="10.00">ring_buffer.h</text>
</a>
</g>
</g>
<!-- Node1&#45;&gt;Node16 -->
<g id="edge17" class="edge">
<title>Node1&#45;&gt;Node16</title>
<path fill="none" stroke="midnightblue" d="M1172.61,-280.08C1177.37,-272.53 1184.32,-261.49 1190.15,-252.23"/>
<polygon fill="midnightblue" stroke="midnightblue" points="1193.12,-254.08 1195.49,-243.75 1187.2,-250.35 1193.12,-254.08"/>
</g>
<!-- Node33 -->
<g id="node33" class="node">
<title>Node33</title>
<g id="a_node33"><a xlink:title=" ">
<polygon fill="white" stroke="#bfbfbf" points="1264.5,-0.5 1264.5,-19.5 1329.5,-19.5 1329.5,-0.5 1264.5,-0.5"/>
<text text-anchor="middle" x="1297" y="-7.5" font-family="Helvetica,sans-Serif" font-size="10.00">stdexcept</text>
</a>
</g>
</g>
<!-- Node1&#45;&gt;Node33 -->
<g id="edge58" class="edge">
<title>Node1&#45;&gt;Node33</title>
<path fill="none" stroke="midnightblue" d="M1192.68,-280.47C1230.57,-266.07 1297,-233.1 1297,-179 1297,-179 1297,-179 1297,-121 1297,-88.95 1297,-51.64 1297,-29.75"/>
<polygon fill="midnightblue" stroke="midnightblue" points="1300.5,-29.56 1297,-19.56 1293.5,-29.56 1300.5,-29.56"/>
</g>
<!-- Node36 -->
<g id="node36" class="node">
<title>Node36</title>
<g id="a_node36"><a xlink:title=" ">
<polygon fill="white" stroke="#bfbfbf" points="1181,-112.5 1181,-131.5 1231,-131.5 1231,-112.5 1181,-112.5"/>
<text text-anchor="middle" x="1206" y="-119.5" font-family="Helvetica,sans-Serif" font-size="10.00">atomic</text>
</a>
</g>
</g>
<!-- Node1&#45;&gt;Node36 -->
<g id="edge55" class="edge">
<title>Node1&#45;&gt;Node36</title>
<path fill="none" stroke="midnightblue" d="M1163.29,-280.25C1155.1,-259.56 1137.63,-206.45 1156,-168 1161.9,-155.65 1172.88,-145.18 1183.04,-137.45"/>
<polygon fill="midnightblue" stroke="midnightblue" points="1185.13,-140.26 1191.27,-131.63 1181.08,-134.55 1185.13,-140.26"/>
</g>
<!-- Node38 -->
<g id="node38" class="node">
<title>Node38</title>
<g id="a_node38"><a xlink:title=" ">
<polygon fill="white" stroke="#bfbfbf" points="1325.5,-224.5 1325.5,-243.5 1432.5,-243.5 1432.5,-224.5 1325.5,-224.5"/>
<text text-anchor="middle" x="1379" y="-231.5" font-family="Helvetica,sans-Serif" font-size="10.00">condition_variable</text>
</a>
</g>
</g>
<!-- Node1&#45;&gt;Node38 -->
<g id="edge56" class="edge">
<title>Node1&#45;&gt;Node38</title>
<path fill="none" stroke="midnightblue" d="M1200.59,-280.44C1237.19,-271.12 1295.84,-256.18 1335.83,-246"/>
<polygon fill="midnightblue" stroke="midnightblue" points="1336.74,-249.38 1345.57,-243.52 1335.01,-242.59 1336.74,-249.38"/>
</g>
<!-- Node3 -->
<g id="node3" class="node">
<title>Node3</title>
<g id="a_node3"><a xlink:href="enum__formatter_8h.html" target="_top" xlink:title=" ">
<polygon fill="white" stroke="black" points="173,-168.5 173,-187.5 309,-187.5 309,-168.5 173,-168.5"/>
<text text-anchor="middle" x="241" y="-175.5" font-family="Helvetica,sans-Serif" font-size="10.00">ccf/ds/enum_formatter.h</text>
</a>
</g>
</g>
<!-- Node2&#45;&gt;Node3 -->
<g id="edge2" class="edge">
<title>Node2&#45;&gt;Node3</title>
<path fill="none" stroke="midnightblue" d="M500.26,-225.21C447.13,-215.74 357.31,-199.73 298.59,-189.26"/>
<polygon fill="midnightblue" stroke="midnightblue" points="299.18,-185.81 288.72,-187.5 297.95,-192.71 299.18,-185.81"/>
</g>
<!-- Node4 -->
<g id="node4" class="node">
<title>Node4</title>
<g id="a_node4"><a xlink:title=" ">
<polygon fill="white" stroke="#bfbfbf" points="293.5,-112.5 293.5,-131.5 372.5,-131.5 372.5,-112.5 293.5,-112.5"/>
<text text-anchor="middle" x="333" y="-119.5" font-family="Helvetica,sans-Serif" font-size="10.00">fmt/format.h</text>
</a>
</g>
</g>
<!-- Node2&#45;&gt;Node4 -->
<g id="edge11" class="edge">
<title>Node2&#45;&gt;Node4</title>
<path fill="none" stroke="midnightblue" d="M500.49,-227.45C451.81,-220.43 377.02,-206.92 356,-188 342.81,-176.13 337.19,-156.22 334.78,-141.55"/>
<polygon fill="midnightblue" stroke="midnightblue" points="338.25,-141.05 333.51,-131.58 331.31,-141.95 338.25,-141.05"/>
</g>
<!-- Node5 -->
<g id="node5" class="node">
<title>Node5</title>
<g id="a_node5"><a xlink:href="thread__ids_8h.html" target="_top" xlink:title=" ">
<polygon fill="white" stroke="black" points="47,-168.5 47,-187.5 155,-187.5 155,-168.5 47,-168.5"/>
<text text-anchor="middle" x="101" y="-175.5" font-family="Helvetica,sans-Serif" font-size="10.00">ccf/ds/thread_ids.h</text>
</a>
</g>
</g>
<!-- Node2&#45;&gt;Node5 -->
<g id="edge4" class="edge">
<title>Node2&#45;&gt;Node5</title>
<path fill="none" stroke="midnightblue" d="M500.36,-228.18C431.45,-220.49 292.96,-204.72 165.24,-188.14"/>
<polygon fill="midnightblue" stroke="midnightblue" points="165.65,-184.66 155.28,-186.84 164.75,-191.6 165.65,-184.66"/>
</g>
<!-- Node10 -->
<g id="node10" class="node">
<title>Node10</title>
<g id="a_node10"><a xlink:title=" ">
<polygon fill="white" stroke="#bfbfbf" points="365.5,-168.5 365.5,-187.5 444.5,-187.5 444.5,-168.5 365.5,-168.5"/>
<text text-anchor="middle" x="405" y="-175.5" font-family="Helvetica,sans-Serif" font-size="10.00">fmt/chrono.h</text>
</a>
</g>
</g>
<!-- Node2&#45;&gt;Node10 -->
<g id="edge10" class="edge">
<title>Node2&#45;&gt;Node10</title>
<path fill="none" stroke="midnightblue" d="M521.98,-224.44C498.9,-215.48 462.44,-201.31 436.36,-191.18"/>
<polygon fill="midnightblue" stroke="midnightblue" points="437.51,-187.88 426.92,-187.52 434.98,-194.4 437.51,-187.88"/>
</g>
<!-- Node11 -->
<g id="node11" class="node">
<title>Node11</title>
<g id="a_node11"><a xlink:title=" ">
<polygon fill="white" stroke="#bfbfbf" points="462,-168.5 462,-187.5 522,-187.5 522,-168.5 462,-168.5"/>
<text text-anchor="middle" x="492" y="-175.5" font-family="Helvetica,sans-Serif" font-size="10.00">iostream</text>
</a>
</g>
</g>
<!-- Node2&#45;&gt;Node11 -->
<g id="edge12" class="edge">
<title>Node2&#45;&gt;Node11</title>
<path fill="none" stroke="midnightblue" d="M535.41,-224.08C527.84,-216.22 516.62,-204.57 507.49,-195.08"/>
<polygon fill="midnightblue" stroke="midnightblue" points="509.88,-192.53 500.43,-187.75 504.84,-197.38 509.88,-192.53"/>
</g>
<!-- Node12 -->
<g id="node12" class="node">
<title>Node12</title>
<g id="a_node12"><a xlink:title=" ">
<polygon fill="white" stroke="#bfbfbf" points="540,-168.5 540,-187.5 650,-187.5 650,-168.5 540,-168.5"/>
<text text-anchor="middle" x="595" y="-175.5" font-family="Helvetica,sans-Serif" font-size="10.00">nlohmann/json.hpp</text>
</a>
</g>
</g>
<!-- Node2&#45;&gt;Node12 -->
<g id="edge13" class="edge">
<title>Node2&#45;&gt;Node12</title>
<path fill="none" stroke="midnightblue" d="M552.42,-224.08C559.85,-216.22 570.85,-204.57 579.81,-195.08"/>
<polygon fill="midnightblue" stroke="midnightblue" points="582.41,-197.42 586.74,-187.75 577.32,-192.62 582.41,-197.42"/>
</g>
<!-- Node13 -->
<g id="node13" class="node">
<title>Node13</title>
<g id="a_node13"><a xlink:title=" ">
<polygon fill="white" stroke="#bfbfbf" points="467,-112.5 467,-131.5 523,-131.5 523,-112.5 467,-112.5"/>
<text text-anchor="middle" x="495" y="-119.5" font-family="Helvetica,sans-Serif" font-size="10.00">optional</text>
</a>
</g>
</g>
<!-- Node2&#45;&gt;Node13 -->
<g id="edge14" class="edge">
<title>Node2&#45;&gt;Node13</title>
<path fill="none" stroke="midnightblue" d="M587.68,-232.19C655.56,-229.41 774.47,-217.56 733,-168 705.59,-135.24 591,-140.56 533.32,-131.86"/>
<polygon fill="midnightblue" stroke="midnightblue" points="533.7,-128.37 523.24,-130.06 532.47,-135.26 533.7,-128.37"/>
</g>
<!-- Node14 -->
<g id="node14" class="node">
<title>Node14</title>
<g id="a_node14"><a xlink:title=" ">
<polygon fill="white" stroke="#bfbfbf" points="668,-168.5 668,-187.5 724,-187.5 724,-168.5 668,-168.5"/>
<text text-anchor="middle" x="696" y="-175.5" font-family="Helvetica,sans-Serif" font-size="10.00">sstream</text>
</a>
</g>
</g>
<!-- Node2&#45;&gt;Node14 -->
<g id="edge15" class="edge">
<title>Node2&#45;&gt;Node14</title>
<path fill="none" stroke="midnightblue" d="M568.08,-224.44C593.54,-215.4 633.89,-201.06 662.46,-190.92"/>
<polygon fill="midnightblue" stroke="midnightblue" points="663.78,-194.16 672.03,-187.52 661.43,-187.57 663.78,-194.16"/>
</g>
<!-- Node15 -->
<g id="node15" class="node">
<title>Node15</title>
<g id="a_node15"><a xlink:title=" ">
<polygon fill="white" stroke="#bfbfbf" points="942.5,-0.5 942.5,-19.5 1011.5,-19.5 1011.5,-0.5 942.5,-0.5"/>
<text text-anchor="middle" x="977" y="-7.5" font-family="Helvetica,sans-Serif" font-size="10.00">type_traits</text>
</a>
</g>
</g>
<!-- Node2&#45;&gt;Node15 -->
<g id="edge16" class="edge">
<title>Node2&#45;&gt;Node15</title>
<path fill="none" stroke="midnightblue" d="M587.56,-232.71C671.27,-231.31 850.63,-224.08 899,-188 905.87,-182.88 951.39,-73.35 969.55,-29.2"/>
<polygon fill="midnightblue" stroke="midnightblue" points="972.88,-30.29 973.44,-19.71 966.41,-27.63 972.88,-30.29"/>
</g>
<!-- Node3&#45;&gt;Node4 -->
<g id="edge3" class="edge">
<title>Node3&#45;&gt;Node4</title>
<path fill="none" stroke="midnightblue" d="M255.78,-168.32C270.27,-159.82 292.57,-146.73 309.49,-136.8"/>
<polygon fill="midnightblue" stroke="midnightblue" points="311.4,-139.74 318.26,-131.65 307.86,-133.7 311.4,-139.74"/>
</g>
<!-- Node5&#45;&gt;Node4 -->
<g id="edge5" class="edge">
<title>Node5&#45;&gt;Node4</title>
<path fill="none" stroke="midnightblue" d="M137.76,-168.44C178.06,-159.06 242.81,-143.99 286.58,-133.8"/>
<polygon fill="midnightblue" stroke="midnightblue" points="287.46,-137.19 296.41,-131.52 285.88,-130.37 287.46,-137.19"/>
</g>
<!-- Node6 -->
<g id="node6" class="node">
<title>Node6</title>
<g id="a_node6"><a xlink:title=" ">
<polygon fill="white" stroke="#bfbfbf" points="122,-112.5 122,-131.5 208,-131.5 208,-112.5 122,-112.5"/>
<text text-anchor="middle" x="165" y="-119.5" font-family="Helvetica,sans-Serif" font-size="10.00">fmt/ostream.h</text>
</a>
</g>
</g>
<!-- Node5&#45;&gt;Node6 -->
<g id="edge6" class="edge">
<title>Node5&#45;&gt;Node6</title>
<path fill="none" stroke="midnightblue" d="M111.28,-168.32C120.84,-160.26 135.28,-148.08 146.78,-138.37"/>
<polygon fill="midnightblue" stroke="midnightblue" points="149.14,-140.96 154.53,-131.83 144.63,-135.61 149.14,-140.96"/>
</g>
<!-- Node7 -->
<g id="node7" class="node">
<title>Node7</title>
<g id="a_node7"><a xlink:title=" ">
<polygon fill="white" stroke="#bfbfbf" points="226,-112.5 226,-131.5 270,-131.5 270,-112.5 226,-112.5"/>
<text text-anchor="middle" x="248" y="-119.5" font-family="Helvetica,sans-Serif" font-size="10.00">limits</text>
</a>
</g>
</g>
<!-- Node5&#45;&gt;Node7 -->
<g id="edge7" class="edge">
<title>Node5&#45;&gt;Node7</title>
<path fill="none" stroke="midnightblue" d="M124.29,-168.44C149.1,-159.33 188.51,-144.85 216.17,-134.69"/>
<polygon fill="midnightblue" stroke="midnightblue" points="217.6,-137.9 225.78,-131.16 215.19,-131.33 217.6,-137.9"/>
</g>
<!-- Node5&#45;&gt;Node8 -->
<g id="edge8" class="edge">
<title>Node5&#45;&gt;Node8</title>
<path fill="none" stroke="midnightblue" d="M87.83,-168.32C75.15,-159.98 55.77,-147.21 40.79,-137.35"/>
<polygon fill="midnightblue" stroke="midnightblue" points="42.42,-134.23 32.14,-131.65 38.57,-140.08 42.42,-134.23"/>
</g>
<!-- Node9 -->
<g id="node9" class="node">
<title>Node9</title>
<g id="a_node9"><a xlink:title=" ">
<polygon fill="white" stroke="#bfbfbf" points="56,-112.5 56,-131.5 104,-131.5 104,-112.5 56,-112.5"/>
<text text-anchor="middle" x="80" y="-119.5" font-family="Helvetica,sans-Serif" font-size="10.00">thread</text>
</a>
</g>
</g>
<!-- Node5&#45;&gt;Node9 -->
<g id="edge9" class="edge">
<title>Node5&#45;&gt;Node9</title>
<path fill="none" stroke="midnightblue" d="M97.53,-168.08C94.69,-160.77 90.57,-150.18 87.04,-141.1"/>
<polygon fill="midnightblue" stroke="midnightblue" points="90.29,-139.8 83.4,-131.75 83.77,-142.34 90.29,-139.8"/>
</g>
<!-- Node17 -->
<g id="node17" class="node">
<title>Node17</title>
<g id="a_node17"><a xlink:href="ring__buffer__types_8h.html" target="_top" xlink:title=" ">
<polygon fill="white" stroke="black" points="780,-168.5 780,-187.5 890,-187.5 890,-168.5 780,-168.5"/>
<text text-anchor="middle" x="835" y="-175.5" font-family="Helvetica,sans-Serif" font-size="10.00">ring_buffer_types.h</text>
</a>
</g>
</g>
<!-- Node16&#45;&gt;Node17 -->
<g id="edge18" class="edge">
<title>Node16&#45;&gt;Node17</title>
<path fill="none" stroke="midnightblue" d="M1162.18,-227.27C1099.67,-218.05 976.06,-199.81 899.96,-188.58"/>
<polygon fill="midnightblue" stroke="midnightblue" points="900.41,-185.11 890,-187.12 899.38,-192.04 900.41,-185.11"/>
</g>
<!-- Node32 -->
<g id="node32" class="node">
<title>Node32</title>
<g id="a_node32"><a xlink:title=" ">
<polygon fill="white" stroke="#bfbfbf" points="1196,-0.5 1196,-19.5 1246,-19.5 1246,-0.5 1196,-0.5"/>
<text text-anchor="middle" x="1221" y="-7.5" font-family="Helvetica,sans-Serif" font-size="10.00">cstring</text>
</a>
</g>
</g>
<!-- Node16&#45;&gt;Node32 -->
<g id="edge53" class="edge">
<title>Node16&#45;&gt;Node32</title>
<path fill="none" stroke="midnightblue" d="M1211.65,-224.28C1220.83,-216.03 1233.46,-202.74 1239,-188 1259.6,-133.19 1239.82,-62.5 1228.17,-29.5"/>
<polygon fill="midnightblue" stroke="midnightblue" points="1231.35,-28 1224.6,-19.83 1224.78,-30.42 1231.35,-28"/>
</g>
<!-- Node37 -->
<g id="node37" class="node">
<title>Node37</title>
<g id="a_node37"><a xlink:title=" ">
<polygon fill="white" stroke="#bfbfbf" points="1165.5,-168.5 1165.5,-187.5 1230.5,-187.5 1230.5,-168.5 1165.5,-168.5"/>
<text text-anchor="middle" x="1198" y="-175.5" font-family="Helvetica,sans-Serif" font-size="10.00">functional</text>
</a>
</g>
</g>
<!-- Node16&#45;&gt;Node37 -->
<g id="edge54" class="edge">
<title>Node16&#45;&gt;Node37</title>
<path fill="none" stroke="midnightblue" d="M1200.5,-224.08C1200.11,-217.01 1199.55,-206.86 1199.05,-197.99"/>
<polygon fill="midnightblue" stroke="midnightblue" points="1202.54,-197.54 1198.49,-187.75 1195.55,-197.93 1202.54,-197.54"/>
</g>
<!-- Node17&#45;&gt;Node4 -->
<g id="edge49" class="edge">
<title>Node17&#45;&gt;Node4</title>
<path fill="none" stroke="midnightblue" d="M779.84,-171.07C681.52,-160.49 477.45,-138.54 382.98,-128.38"/>
<polygon fill="midnightblue" stroke="midnightblue" points="383.15,-124.87 372.83,-127.28 382.4,-131.83 383.15,-124.87"/>
</g>
<!-- Node17&#45;&gt;Node13 -->
<g id="edge50" class="edge">
<title>Node17&#45;&gt;Node13</title>
<path fill="none" stroke="midnightblue" d="M779.75,-169.41C709.91,-159.72 592.52,-143.07 533.25,-132.06"/>
<polygon fill="midnightblue" stroke="midnightblue" points="533.7,-128.59 523.22,-130.15 532.39,-135.46 533.7,-128.59"/>
</g>
<!-- Node18 -->
<g id="node18" class="node">
<title>Node18</title>
<g id="a_node18"><a xlink:href="include_2ccf_2ds_2hash_8h.html" target="_top" xlink:title=" ">
<polygon fill="white" stroke="black" points="541,-112.5 541,-131.5 621,-131.5 621,-112.5 541,-112.5"/>
<text text-anchor="middle" x="581" y="-119.5" font-family="Helvetica,sans-Serif" font-size="10.00">ccf/ds/hash.h</text>
</a>
</g>
</g>
<!-- Node17&#45;&gt;Node18 -->
<g id="edge19" class="edge">
<title>Node17&#45;&gt;Node18</title>
<path fill="none" stroke="midnightblue" d="M794.75,-168.44C750.35,-159 678.85,-143.8 630.91,-133.61"/>
<polygon fill="midnightblue" stroke="midnightblue" points="631.57,-130.17 621.06,-131.52 630.11,-137.02 631.57,-130.17"/>
</g>
<!-- Node22 -->
<g id="node22" class="node">
<title>Node22</title>
<g id="a_node22"><a xlink:title=" ">
<polygon fill="white" stroke="#bfbfbf" points="636.5,-0.5 636.5,-19.5 683.5,-19.5 683.5,-0.5 636.5,-0.5"/>
<text text-anchor="middle" x="660" y="-7.5" font-family="Helvetica,sans-Serif" font-size="10.00">vector</text>
</a>
</g>
</g>
<!-- Node17&#45;&gt;Node22 -->
<g id="edge52" class="edge">
<title>Node17&#45;&gt;Node22</title>
<path fill="none" stroke="midnightblue" d="M827.14,-168.48C808.37,-148.29 759.23,-96.19 715,-56 703.47,-45.52 689.94,-34.44 679.18,-25.89"/>
<polygon fill="midnightblue" stroke="midnightblue" points="681.26,-23.07 671.24,-19.64 676.93,-28.57 681.26,-23.07"/>
</g>
<!-- Node25 -->
<g id="node25" class="node">
<title>Node25</title>
<g id="a_node25"><a xlink:href="nonstd_8h.html" target="_top" xlink:title=" ">
<polygon fill="white" stroke="black" points="800,-56.5 800,-75.5 890,-75.5 890,-56.5 800,-56.5"/>
<text text-anchor="middle" x="845" y="-63.5" font-family="Helvetica,sans-Serif" font-size="10.00">ccf/ds/nonstd.h</text>
</a>
</g>
</g>
<!-- Node17&#45;&gt;Node25 -->
<g id="edge28" class="edge">
<title>Node17&#45;&gt;Node25</title>
<path fill="none" stroke="midnightblue" d="M835.78,-168.37C837.4,-150.62 841.12,-109.67 843.31,-85.6"/>
<polygon fill="midnightblue" stroke="midnightblue" points="846.8,-85.87 844.22,-75.59 839.83,-85.23 846.8,-85.87"/>
</g>
<!-- Node28 -->
<g id="node28" class="node">
<title>Node28</title>
<g id="a_node28"><a xlink:title=" ">
<polygon fill="white" stroke="#bfbfbf" points="1134,-0.5 1134,-19.5 1178,-19.5 1178,-0.5 1134,-0.5"/>
<text text-anchor="middle" x="1156" y="-7.5" font-family="Helvetica,sans-Serif" font-size="10.00">string</text>
</a>
</g>
</g>
<!-- Node17&#45;&gt;Node28 -->
<g id="edge51" class="edge">
<title>Node17&#45;&gt;Node28</title>
<path fill="none" stroke="midnightblue" d="M890.27,-170.1C983.22,-157.21 1164.33,-126.15 1201,-76 1213.42,-59.02 1194.83,-39.07 1177.92,-25.79"/>
<polygon fill="midnightblue" stroke="midnightblue" points="1179.52,-22.63 1169.4,-19.51 1175.37,-28.26 1179.52,-22.63"/>
</g>
<!-- Node30 -->
<g id="node30" class="node">
<title>Node30</title>
<g id="a_node30"><a xlink:href="serializer_8h.html" target="_top" xlink:title=" ">
<polygon fill="white" stroke="black" points="946,-112.5 946,-131.5 1016,-131.5 1016,-112.5 946,-112.5"/>
<text text-anchor="middle" x="981" y="-119.5" font-family="Helvetica,sans-Serif" font-size="10.00">serializer.h</text>
</a>
</g>
</g>
<!-- Node17&#45;&gt;Node30 -->
<g id="edge36" class="edge">
<title>Node17&#45;&gt;Node30</title>
<path fill="none" stroke="midnightblue" d="M858.13,-168.44C882.48,-159.44 921.01,-145.19 948.42,-135.05"/>
<polygon fill="midnightblue" stroke="midnightblue" points="949.81,-138.27 957.97,-131.52 947.38,-131.7 949.81,-138.27"/>
</g>
<!-- Node17&#45;&gt;Node36 -->
<g id="edge48" class="edge">
<title>Node17&#45;&gt;Node36</title>
<path fill="none" stroke="midnightblue" d="M890.17,-171.1C956.25,-163.66 1070.16,-149.7 1167,-132 1168.27,-131.77 1169.56,-131.52 1170.86,-131.27"/>
<polygon fill="midnightblue" stroke="midnightblue" points="1171.83,-134.64 1180.9,-129.15 1170.39,-127.79 1171.83,-134.64"/>
</g>
<!-- Node19 -->
<g id="node19" class="node">
<title>Node19</title>
<g id="a_node19"><a xlink:href="siphash_8h.html" target="_top" xlink:title=" ">
<polygon fill="white" stroke="black" points="368.5,-56.5 368.5,-75.5 463.5,-75.5 463.5,-56.5 368.5,-56.5"/>
<text text-anchor="middle" x="416" y="-63.5" font-family="Helvetica,sans-Serif" font-size="10.00">ccf/ds/siphash.h</text>
</a>
</g>
</g>
<!-- Node18&#45;&gt;Node19 -->
<g id="edge20" class="edge">
<title>Node18&#45;&gt;Node19</title>
<path fill="none" stroke="midnightblue" d="M554.86,-112.44C526.98,-103.32 482.65,-88.81 451.6,-78.65"/>
<polygon fill="midnightblue" stroke="midnightblue" points="452.62,-75.3 442.02,-75.52 450.44,-81.95 452.62,-75.3"/>
</g>
<!-- Node21 -->
<g id="node21" class="node">
<title>Node21</title>
<g id="a_node21"><a xlink:title=" ">
<polygon fill="white" stroke="#bfbfbf" points="494,-0.5 494,-19.5 544,-19.5 544,-0.5 494,-0.5"/>
<text text-anchor="middle" x="519" y="-7.5" font-family="Helvetica,sans-Serif" font-size="10.00">cstdint</text>
</a>
</g>
</g>
<!-- Node18&#45;&gt;Node21 -->
<g id="edge25" class="edge">
<title>Node18&#45;&gt;Node21</title>
<path fill="none" stroke="midnightblue" d="M559.19,-112.45C544.06,-105.22 525.05,-93.26 516,-76 508.47,-61.63 510.33,-42.93 513.42,-29.28"/>
<polygon fill="midnightblue" stroke="midnightblue" points="516.81,-30.15 516,-19.59 510.04,-28.35 516.81,-30.15"/>
</g>
<!-- Node18&#45;&gt;Node22 -->
<g id="edge27" class="edge">
<title>Node18&#45;&gt;Node22</title>
<path fill="none" stroke="midnightblue" d="M570.63,-112.21C556.74,-99.34 535.24,-74.87 548,-56 565.4,-30.25 600.23,-19.23 626.46,-14.52"/>
<polygon fill="midnightblue" stroke="midnightblue" points="627.05,-17.97 636.38,-12.96 625.96,-11.06 627.05,-17.97"/>
</g>
<!-- Node23 -->
<g id="node23" class="node">
<title>Node23</title>
<g id="a_node23"><a xlink:title=" ">
<polygon fill="white" stroke="#bfbfbf" points="434,-0.5 434,-19.5 476,-19.5 476,-0.5 434,-0.5"/>
<text text-anchor="middle" x="455" y="-7.5" font-family="Helvetica,sans-Serif" font-size="10.00">array</text>
</a>
</g>
</g>
<!-- Node18&#45;&gt;Node23 -->
<g id="edge24" class="edge">
<title>Node18&#45;&gt;Node23</title>
<path fill="none" stroke="midnightblue" d="M540.93,-113.54C477.77,-101.69 361.89,-79.54 359,-76 353.37,-69.12 354.23,-63.5 359,-56 366.54,-44.14 399.25,-30.41 424.42,-21.27"/>
<polygon fill="midnightblue" stroke="midnightblue" points="425.71,-24.53 433.96,-17.89 423.37,-17.93 425.71,-24.53"/>
</g>
<!-- Node24 -->
<g id="node24" class="node">
<title>Node24</title>
<g id="a_node24"><a xlink:title=" ">
<polygon fill="white" stroke="#bfbfbf" points="557.5,-56.5 557.5,-75.5 706.5,-75.5 706.5,-56.5 557.5,-56.5"/>
<text text-anchor="middle" x="632" y="-63.5" font-family="Helvetica,sans-Serif" font-size="10.00">small_vector/SmallVector.h</text>
</a>
</g>
</g>
<!-- Node18&#45;&gt;Node24 -->
<g id="edge26" class="edge">
<title>Node18&#45;&gt;Node24</title>
<path fill="none" stroke="midnightblue" d="M589.42,-112.08C596.85,-104.22 607.85,-92.57 616.81,-83.08"/>
<polygon fill="midnightblue" stroke="midnightblue" points="619.41,-85.42 623.74,-75.75 614.32,-80.62 619.41,-85.42"/>
</g>
<!-- Node20 -->
<g id="node20" class="node">
<title>Node20</title>
<g id="a_node20"><a xlink:title=" ">
<polygon fill="white" stroke="#bfbfbf" points="362.5,-0.5 362.5,-19.5 415.5,-19.5 415.5,-0.5 362.5,-0.5"/>
<text text-anchor="middle" x="389" y="-7.5" font-family="Helvetica,sans-Serif" font-size="10.00">cstddef</text>
</a>
</g>
</g>
<!-- Node19&#45;&gt;Node20 -->
<g id="edge21" class="edge">
<title>Node19&#45;&gt;Node20</title>
<path fill="none" stroke="midnightblue" d="M411.54,-56.08C407.85,-48.69 402.48,-37.95 397.91,-28.81"/>
<polygon fill="midnightblue" stroke="midnightblue" points="400.98,-27.13 393.38,-19.75 394.72,-30.26 400.98,-27.13"/>
</g>
<!-- Node19&#45;&gt;Node21 -->
<g id="edge22" class="edge">
<title>Node19&#45;&gt;Node21</title>
<path fill="none" stroke="midnightblue" d="M432.55,-56.32C448.99,-47.7 474.43,-34.36 493.47,-24.39"/>
<polygon fill="midnightblue" stroke="midnightblue" points="495.26,-27.4 502.49,-19.65 492.01,-21.2 495.26,-27.4"/>
</g>
<!-- Node19&#45;&gt;Node22 -->
<g id="edge23" class="edge">
<title>Node19&#45;&gt;Node22</title>
<path fill="none" stroke="midnightblue" d="M454.66,-56.44C502.04,-45.96 581.52,-28.37 626.44,-18.43"/>
<polygon fill="midnightblue" stroke="midnightblue" points="627.27,-21.83 636.27,-16.25 625.75,-14.99 627.27,-21.83"/>
</g>
<!-- Node25&#45;&gt;Node15 -->
<g id="edge34" class="edge">
<title>Node25&#45;&gt;Node15</title>
<path fill="none" stroke="midnightblue" d="M865.92,-56.44C887.74,-47.52 922.15,-33.44 946.89,-23.32"/>
<polygon fill="midnightblue" stroke="midnightblue" points="948.25,-26.54 956.18,-19.52 945.6,-20.06 948.25,-26.54"/>
</g>
<!-- Node25&#45;&gt;Node22 -->
<g id="edge35" class="edge">
<title>Node25&#45;&gt;Node22</title>
<path fill="none" stroke="midnightblue" d="M815.69,-56.44C782.4,-46.73 728.19,-30.9 693.32,-20.73"/>
<polygon fill="midnightblue" stroke="midnightblue" points="694.18,-17.33 683.6,-17.89 692.22,-24.05 694.18,-17.33"/>
</g>
<!-- Node25&#45;&gt;Node23 -->
<g id="edge30" class="edge">
<title>Node25&#45;&gt;Node23</title>
<path fill="none" stroke="midnightblue" d="M799.98,-61.8C733.31,-56.54 604.31,-44.32 486.13,-19.92"/>
<polygon fill="midnightblue" stroke="midnightblue" points="486.7,-16.46 476.19,-17.84 485.26,-23.32 486.7,-16.46"/>
</g>
<!-- Node26 -->
<g id="node26" class="node">
<title>Node26</title>
<g id="a_node26"><a xlink:title=" ">
<polygon fill="white" stroke="#bfbfbf" points="793,-0.5 793,-19.5 857,-19.5 857,-0.5 793,-0.5"/>
<text text-anchor="middle" x="825" y="-7.5" font-family="Helvetica,sans-Serif" font-size="10.00">algorithm</text>
</a>
</g>
</g>
<!-- Node25&#45;&gt;Node26 -->
<g id="edge29" class="edge">
<title>Node25&#45;&gt;Node26</title>
<path fill="none" stroke="midnightblue" d="M841.7,-56.08C839.02,-48.85 835.15,-38.41 831.81,-29.4"/>
<polygon fill="midnightblue" stroke="midnightblue" points="835,-27.91 828.24,-19.75 828.43,-30.34 835,-27.91"/>
</g>
<!-- Node27 -->
<g id="node27" class="node">
<title>Node27</title>
<g id="a_node27"><a xlink:title=" ">
<polygon fill="white" stroke="#bfbfbf" points="875.5,-0.5 875.5,-19.5 924.5,-19.5 924.5,-0.5 875.5,-0.5"/>
<text text-anchor="middle" x="900" y="-7.5" font-family="Helvetica,sans-Serif" font-size="10.00">cctype</text>
</a>
</g>
</g>
<!-- Node25&#45;&gt;Node27 -->
<g id="edge31" class="edge">
<title>Node25&#45;&gt;Node27</title>
<path fill="none" stroke="midnightblue" d="M854.08,-56.08C862.17,-48.14 874.2,-36.34 883.91,-26.8"/>
<polygon fill="midnightblue" stroke="midnightblue" points="886.4,-29.25 891.09,-19.75 881.5,-24.26 886.4,-29.25"/>
</g>
<!-- Node25&#45;&gt;Node28 -->
<g id="edge32" class="edge">
<title>Node25&#45;&gt;Node28</title>
<path fill="none" stroke="midnightblue" d="M890.22,-57.15C953.85,-46.1 1068.21,-26.24 1123.85,-16.58"/>
<polygon fill="midnightblue" stroke="midnightblue" points="1124.59,-20.01 1133.85,-14.85 1123.39,-13.11 1124.59,-20.01"/>
</g>
<!-- Node29 -->
<g id="node29" class="node">
<title>Node29</title>
<g id="a_node29"><a xlink:title=" ">
<polygon fill="white" stroke="#bfbfbf" points="701.5,-0.5 701.5,-19.5 774.5,-19.5 774.5,-0.5 701.5,-0.5"/>
<text text-anchor="middle" x="738" y="-7.5" font-family="Helvetica,sans-Serif" font-size="10.00">string_view</text>
</a>
</g>
</g>
<!-- Node25&#45;&gt;Node29 -->
<g id="edge33" class="edge">
<title>Node25&#45;&gt;Node29</title>
<path fill="none" stroke="midnightblue" d="M827.81,-56.32C810.65,-47.66 784.05,-34.24 764.25,-24.25"/>
<polygon fill="midnightblue" stroke="midnightblue" points="765.65,-21.04 755.15,-19.65 762.5,-27.28 765.65,-21.04"/>
</g>
<!-- Node30&#45;&gt;Node15 -->
<g id="edge46" class="edge">
<title>Node30&#45;&gt;Node15</title>
<path fill="none" stroke="midnightblue" d="M979.51,-112.41C978.02,-103.38 975.85,-88.74 975,-76 973.97,-60.49 974.63,-42.86 975.45,-29.88"/>
<polygon fill="midnightblue" stroke="midnightblue" points="978.95,-30.07 976.19,-19.84 971.97,-29.56 978.95,-30.07"/>
</g>
<!-- Node30&#45;&gt;Node22 -->
<g id="edge47" class="edge">
<title>Node30&#45;&gt;Node22</title>
<path fill="none" stroke="midnightblue" d="M945.99,-115.19C907.33,-108.2 843.61,-95 791,-76 780.36,-72.16 721.03,-42.16 685.97,-24.28"/>
<polygon fill="midnightblue" stroke="midnightblue" points="687.28,-21.02 676.79,-19.6 684.1,-27.26 687.28,-21.02"/>
</g>
<!-- Node30&#45;&gt;Node25 -->
<g id="edge37" class="edge">
<title>Node30&#45;&gt;Node25</title>
<path fill="none" stroke="midnightblue" d="M959.45,-112.44C936.97,-103.52 901.51,-89.44 876.02,-79.32"/>
<polygon fill="midnightblue" stroke="midnightblue" points="877.03,-75.95 866.45,-75.52 874.45,-82.46 877.03,-75.95"/>
</g>
<!-- Node31 -->
<g id="node31" class="node">
<title>Node31</title>
<g id="a_node31"><a xlink:href="serialized_8h.html" target="_top" xlink:title=" ">
<polygon fill="white" stroke="black" points="1119.5,-56.5 1119.5,-75.5 1192.5,-75.5 1192.5,-56.5 1119.5,-56.5"/>
<text text-anchor="middle" x="1156" y="-63.5" font-family="Helvetica,sans-Serif" font-size="10.00">serialized.h</text>
</a>
</g>
</g>
<!-- Node30&#45;&gt;Node31 -->
<g id="edge38" class="edge">
<title>Node30&#45;&gt;Node31</title>
<path fill="none" stroke="midnightblue" d="M1008.73,-112.44C1038.43,-103.28 1085.72,-88.69 1118.67,-78.52"/>
<polygon fill="midnightblue" stroke="midnightblue" points="1119.88,-81.81 1128.4,-75.52 1117.81,-75.12 1119.88,-81.81"/>
</g>
<!-- Node34 -->
<g id="node34" class="node">
<title>Node34</title>
<g id="a_node34"><a xlink:title=" ">
<polygon fill="white" stroke="#bfbfbf" points="984,-56.5 984,-75.5 1042,-75.5 1042,-56.5 984,-56.5"/>
<text text-anchor="middle" x="1013" y="-63.5" font-family="Helvetica,sans-Serif" font-size="10.00">memory</text>
</a>
</g>
</g>
<!-- Node30&#45;&gt;Node34 -->
<g id="edge44" class="edge">
<title>Node30&#45;&gt;Node34</title>
<path fill="none" stroke="midnightblue" d="M986.28,-112.08C990.71,-104.61 997.16,-93.72 1002.62,-84.52"/>
<polygon fill="midnightblue" stroke="midnightblue" points="1005.73,-86.14 1007.81,-75.75 999.71,-82.57 1005.73,-86.14"/>
</g>
<!-- Node35 -->
<g id="node35" class="node">
<title>Node35</title>
<g id="a_node35"><a xlink:title=" ">
<polygon fill="white" stroke="#bfbfbf" points="1060.5,-56.5 1060.5,-75.5 1101.5,-75.5 1101.5,-56.5 1060.5,-56.5"/>
<text text-anchor="middle" x="1081" y="-63.5" font-family="Helvetica,sans-Serif" font-size="10.00">tuple</text>
</a>
</g>
</g>
<!-- Node30&#45;&gt;Node35 -->
<g id="edge45" class="edge">
<title>Node30&#45;&gt;Node35</title>
<path fill="none" stroke="midnightblue" d="M997.07,-112.32C1012.96,-103.74 1037.51,-90.49 1055.96,-80.52"/>
<polygon fill="midnightblue" stroke="midnightblue" points="1057.84,-83.49 1064.97,-75.65 1054.51,-77.33 1057.84,-83.49"/>
</g>
<!-- Node31&#45;&gt;Node21 -->
<g id="edge39" class="edge">
<title>Node31&#45;&gt;Node21</title>
<path fill="none" stroke="midnightblue" d="M1119.41,-57.43C1116.23,-56.9 1113.06,-56.41 1110,-56 896.66,-27.28 841.59,-36.94 627,-20 602.77,-18.09 575.5,-15.81 554.42,-14.03"/>
<polygon fill="midnightblue" stroke="midnightblue" points="554.57,-10.53 544.31,-13.17 553.98,-17.51 554.57,-10.53"/>
</g>
<!-- Node31&#45;&gt;Node22 -->
<g id="edge43" class="edge">
<title>Node31&#45;&gt;Node22</title>
<path fill="none" stroke="midnightblue" d="M1119.4,-57.47C1116.23,-56.93 1113.06,-56.43 1110,-56 928.59,-30.52 877.25,-52.59 693.63,-19.99"/>
<polygon fill="midnightblue" stroke="midnightblue" points="694.11,-16.52 683.65,-18.19 692.87,-23.41 694.11,-16.52"/>
</g>
<!-- Node31&#45;&gt;Node28 -->
<g id="edge42" class="edge">
<title>Node31&#45;&gt;Node28</title>
<path fill="none" stroke="midnightblue" d="M1156,-56.08C1156,-49.01 1156,-38.86 1156,-29.99"/>
<polygon fill="midnightblue" stroke="midnightblue" points="1159.5,-29.75 1156,-19.75 1152.5,-29.75 1159.5,-29.75"/>
</g>
<!-- Node31&#45;&gt;Node32 -->
<g id="edge40" class="edge">
<title>Node31&#45;&gt;Node32</title>
<path fill="none" stroke="midnightblue" d="M1166.44,-56.32C1176.15,-48.26 1190.82,-36.08 1202.5,-26.37"/>
<polygon fill="midnightblue" stroke="midnightblue" points="1204.91,-28.92 1210.37,-19.83 1200.44,-23.53 1204.91,-28.92"/>
</g>
<!-- Node31&#45;&gt;Node33 -->
<g id="edge41" class="edge">
<title>Node31&#45;&gt;Node33</title>
<path fill="none" stroke="midnightblue" d="M1178.34,-56.44C1201.75,-47.48 1238.74,-33.31 1265.19,-23.18"/>
<polygon fill="midnightblue" stroke="midnightblue" points="1266.68,-26.36 1274.76,-19.52 1264.17,-19.82 1266.68,-26.36"/>
</g>
</g>
</svg>
