<?xml version="1.0" encoding="UTF-8" standalone="no"?>
<!DOCTYPE svg PUBLIC "-//W3C//DTD SVG 1.1//EN"
 "http://www.w3.org/Graphics/SVG/1.1/DTD/svg11.dtd">
<!-- Generated by graphviz version 2.43.0 (0)
 -->
<!-- Title: src/tls/msg_types.h Pages: 1 -->
<!--zoomable 945 -->
<svg id="main" version="1.1" xmlns="http://www.w3.org/2000/svg" xmlns:xlink="http://www.w3.org/1999/xlink" xml:space="preserve" onload="init(evt)">
<style type="text/css"><![CDATA[
.edge:hover path { stroke: red; }
.edge:hover polygon { stroke: red; fill: red; }
]]></style>
<script type="text/javascript"><![CDATA[
var edges = document.getElementsByTagName('g');
if (edges && edges.length) {
  for (var i=0;i<edges.length;i++) {
    if (edges[i].id.substr(0,4)=='edge') {
      edges[i].setAttribute('class','edge');
    }
  }
}
]]></script>
        <defs>
                <circle id="rim" cx="0" cy="0" r="7"/>
                <circle id="rim2" cx="0" cy="0" r="3.5"/>
                <g id="zoomPlus">
                        <use xlink:href="#rim" fill="#404040">
                                <set attributeName="fill" to="#808080" begin="zoomplus.mouseover" end="zoomplus.mouseout"/>
                        </use>
                        <path d="M-4,0h8M0,-4v8" fill="none" stroke="white" stroke-width="1.5" pointer-events="none"/>
                </g>
                <g id="zoomMin">
                        <use xlink:href="#rim" fill="#404040">
                                <set attributeName="fill" to="#808080" begin="zoomminus.mouseover" end="zoomminus.mouseout"/>
                        </use>
                        <path d="M-4,0h8" fill="none" stroke="white" stroke-width="1.5" pointer-events="none"/>
                </g>
                <g id="dirArrow">
                        <path fill="none" stroke="white" stroke-width="1.5" d="M0,-3.0v7 M-2.5,-0.5L0,-3.0L2.5,-0.5"/>
                </g>
               <g id="resetDef">
                       <use xlink:href="#rim2" fill="#404040">
                               <set attributeName="fill" to="#808080" begin="reset.mouseover" end="reset.mouseout"/>
                       </use>
               </g>
        </defs>

<script type="text/javascript">
var viewWidth = 1080;
var viewHeight = 945;
var sectionId = 'dynsection-1';
</script>
<script xlink:href="svgpan.js"/>
<svg id="graph" class="graph">
<g id="viewport">
<title>src/tls/msg_types.h</title>
<polygon fill="white" stroke="transparent" points="-4,4 -4,-941 1075.65,-941 1075.65,4 -4,4"/>
<!-- Node1 -->
<g id="node1" class="node">
<title>Node1</title>
<g id="a_node1"><a xlink:title=" ">
<polygon fill="#bfbfbf" stroke="black" points="448.5,-917.5 448.5,-936.5 559.5,-936.5 559.5,-917.5 448.5,-917.5"/>
<text text-anchor="middle" x="504" y="-924.5" font-family="Helvetica,sans-Serif" font-size="10.00">src/tls/msg_types.h</text>
</a>
</g>
</g>
<!-- Node2 -->
<g id="node2" class="node">
<title>Node2</title>
<g id="a_node2"><a xlink:href="client__endpoint_8h.html" target="_top" xlink:title=" ">
<polygon fill="white" stroke="black" points="336,-738.5 336,-768.5 438,-768.5 438,-738.5 336,-738.5"/>
<text text-anchor="start" x="344" y="-756.5" font-family="Helvetica,sans-Serif" font-size="10.00">src/enclave/client</text>
<text text-anchor="middle" x="387" y="-745.5" font-family="Helvetica,sans-Serif" font-size="10.00">_endpoint.h</text>
</a>
</g>
</g>
<!-- Node1&#45;&gt;Node2 -->
<g id="edge1" class="edge">
<title>Node1&#45;&gt;Node2</title>
<path fill="none" stroke="midnightblue" d="M467.86,-913.3C452.04,-906.07 434.51,-895.51 423,-881 396.04,-847.01 389.27,-793.79 387.57,-768.61"/>
<polygon fill="midnightblue" stroke="midnightblue" points="466.84,-916.67 477.41,-917.37 469.59,-910.23 466.84,-916.67"/>
</g>
<!-- Node17 -->
<g id="node17" class="node">
<title>Node17</title>
<g id="a_node17"><a xlink:href="tls__endpoint_8h.html" target="_top" xlink:title=" ">
<polygon fill="white" stroke="black" points="432,-861.5 432,-880.5 576,-880.5 576,-861.5 432,-861.5"/>
<text text-anchor="middle" x="504" y="-868.5" font-family="Helvetica,sans-Serif" font-size="10.00">src/enclave/tls_endpoint.h</text>
</a>
</g>
</g>
<!-- Node1&#45;&gt;Node17 -->
<g id="edge26" class="edge">
<title>Node1&#45;&gt;Node17</title>
<path fill="none" stroke="midnightblue" d="M504,-906.8C504,-897.91 504,-887.78 504,-880.75"/>
<polygon fill="midnightblue" stroke="midnightblue" points="500.5,-907.08 504,-917.08 507.5,-907.08 500.5,-907.08"/>
</g>
<!-- Node34 -->
<g id="node34" class="node">
<title>Node34</title>
<g id="a_node34"><a xlink:href="rpc__connections_8h.html" target="_top" xlink:title=" ">
<polygon fill="white" stroke="black" points="594,-861.5 594,-880.5 740,-880.5 740,-861.5 594,-861.5"/>
<text text-anchor="middle" x="667" y="-868.5" font-family="Helvetica,sans-Serif" font-size="10.00">src/host/rpc_connections.h</text>
</a>
</g>
</g>
<!-- Node1&#45;&gt;Node34 -->
<g id="edge56" class="edge">
<title>Node1&#45;&gt;Node34</title>
<path fill="none" stroke="midnightblue" d="M539.7,-914.17C570.4,-904 613.92,-889.59 641.29,-880.52"/>
<polygon fill="midnightblue" stroke="midnightblue" points="538.22,-910.98 529.83,-917.44 540.42,-917.62 538.22,-910.98"/>
</g>
<!-- Node3 -->
<g id="node3" class="node">
<title>Node3</title>
<g id="a_node3"><a xlink:href="http__endpoint_8h.html" target="_top" xlink:title=" ">
<polygon fill="white" stroke="black" points="331.5,-559.5 331.5,-578.5 464.5,-578.5 464.5,-559.5 331.5,-559.5"/>
<text text-anchor="middle" x="398" y="-566.5" font-family="Helvetica,sans-Serif" font-size="10.00">src/http/http_endpoint.h</text>
</a>
</g>
</g>
<!-- Node2&#45;&gt;Node3 -->
<g id="edge2" class="edge">
<title>Node2&#45;&gt;Node3</title>
<path fill="none" stroke="midnightblue" d="M385.63,-728.12C384.44,-700.56 383.53,-654.4 388,-615 389.46,-602.12 393.08,-587.52 395.54,-578.54"/>
<polygon fill="midnightblue" stroke="midnightblue" points="382.15,-728.57 386.12,-738.39 389.14,-728.23 382.15,-728.57"/>
</g>
<!-- Node4 -->
<g id="node4" class="node">
<title>Node4</title>
<g id="a_node4"><a xlink:href="rpc__sessions_8h.html" target="_top" xlink:title=" ">
<polygon fill="white" stroke="black" points="325,-498 325,-517 471,-517 471,-498 325,-498"/>
<text text-anchor="middle" x="398" y="-505" font-family="Helvetica,sans-Serif" font-size="10.00">src/enclave/rpc_sessions.h</text>
</a>
</g>
</g>
<!-- Node3&#45;&gt;Node4 -->
<g id="edge3" class="edge">
<title>Node3&#45;&gt;Node4</title>
<path fill="none" stroke="midnightblue" d="M391.68,-549.32C390.8,-538.5 391.27,-525.4 393.1,-517.01"/>
<polygon fill="midnightblue" stroke="midnightblue" points="388.25,-550.05 393.1,-559.48 395.19,-549.09 388.25,-550.05"/>
</g>
<!-- Node4&#45;&gt;Node3 -->
<g id="edge6" class="edge">
<title>Node4&#45;&gt;Node3</title>
<path fill="none" stroke="midnightblue" d="M404.31,-527.16C405.2,-537.98 404.73,-551.08 402.9,-559.48"/>
<polygon fill="midnightblue" stroke="midnightblue" points="407.75,-526.43 402.9,-517.01 400.81,-527.4 407.75,-526.43"/>
</g>
<!-- Node5 -->
<g id="node5" class="node">
<title>Node5</title>
<g id="a_node5"><a xlink:href="enclave_2enclave_8h.html" target="_top" xlink:title=" ">
<polygon fill="white" stroke="black" points="641,-56.5 641,-75.5 763,-75.5 763,-56.5 641,-56.5"/>
<text text-anchor="middle" x="702" y="-63.5" font-family="Helvetica,sans-Serif" font-size="10.00">src/enclave/enclave.h</text>
</a>
</g>
</g>
<!-- Node4&#45;&gt;Node5 -->
<g id="edge4" class="edge">
<title>Node4&#45;&gt;Node5</title>
<path fill="none" stroke="midnightblue" d="M318.75,-496.58C202.66,-479.8 0,-440.99 0,-374.5 0,-374.5 0,-374.5 0,-182.5 0,-117.81 470.14,-81.65 640.93,-70.64"/>
<polygon fill="midnightblue" stroke="midnightblue" points="318.28,-500.05 328.67,-497.99 319.27,-493.12 318.28,-500.05"/>
</g>
<!-- Node7 -->
<g id="node7" class="node">
<title>Node7</title>
<g id="a_node7"><a xlink:href="node__client_8h.html" target="_top" xlink:title=" ">
<polygon fill="white" stroke="black" points="209,-431 209,-450 335,-450 335,-431 209,-431"/>
<text text-anchor="middle" x="272" y="-438" font-family="Helvetica,sans-Serif" font-size="10.00">src/node/node_client.h</text>
</a>
</g>
</g>
<!-- Node4&#45;&gt;Node7 -->
<g id="edge7" class="edge">
<title>Node4&#45;&gt;Node7</title>
<path fill="none" stroke="midnightblue" d="M372.36,-493.27C347.41,-480.4 310.2,-461.21 288.8,-450.17"/>
<polygon fill="midnightblue" stroke="midnightblue" points="370.78,-496.39 381.27,-497.87 373.99,-490.17 370.78,-496.39"/>
</g>
<!-- Node10 -->
<g id="node10" class="node">
<title>Node10</title>
<g id="a_node10"><a xlink:href="node__state_8h.html" target="_top" xlink:title=" ">
<polygon fill="white" stroke="black" points="414,-174 414,-193 538,-193 538,-174 414,-174"/>
<text text-anchor="middle" x="476" y="-181" font-family="Helvetica,sans-Serif" font-size="10.00">src/node/node_state.h</text>
</a>
</g>
</g>
<!-- Node4&#45;&gt;Node10 -->
<g id="edge23" class="edge">
<title>Node4&#45;&gt;Node10</title>
<path fill="none" stroke="midnightblue" d="M393.18,-488.07C382.23,-442.1 359.77,-319.98 405,-235 415.66,-214.97 438.2,-201.08 455.05,-193"/>
<polygon fill="midnightblue" stroke="midnightblue" points="389.8,-488.96 395.61,-497.82 396.59,-487.27 389.8,-488.96"/>
</g>
<!-- Node16 -->
<g id="node16" class="node">
<title>Node16</title>
<g id="a_node16"><a xlink:href="resharing_8h.html" target="_top" xlink:title=" ">
<polygon fill="white" stroke="black" points="414,-241 414,-260 530,-260 530,-241 414,-241"/>
<text text-anchor="middle" x="472" y="-248" font-family="Helvetica,sans-Serif" font-size="10.00">src/node/resharing.h</text>
</a>
</g>
</g>
<!-- Node4&#45;&gt;Node16 -->
<g id="edge24" class="edge">
<title>Node4&#45;&gt;Node16</title>
<path fill="none" stroke="midnightblue" d="M403.35,-488.07C418.08,-437.3 458.88,-296.72 469.46,-260.24"/>
<polygon fill="midnightblue" stroke="midnightblue" points="399.97,-487.14 400.55,-497.72 406.7,-489.09 399.97,-487.14"/>
</g>
<!-- Node6 -->
<g id="node6" class="node">
<title>Node6</title>
<g id="a_node6"><a xlink:href="enclave_2main_8cpp.html" target="_top" xlink:title=" ">
<polygon fill="white" stroke="black" points="642,-0.5 642,-19.5 762,-19.5 762,-0.5 642,-0.5"/>
<text text-anchor="middle" x="702" y="-7.5" font-family="Helvetica,sans-Serif" font-size="10.00">src/enclave/main.cpp</text>
</a>
</g>
</g>
<!-- Node5&#45;&gt;Node6 -->
<g id="edge5" class="edge">
<title>Node5&#45;&gt;Node6</title>
<path fill="none" stroke="midnightblue" d="M702,-45.8C702,-36.91 702,-26.78 702,-19.75"/>
<polygon fill="midnightblue" stroke="midnightblue" points="698.5,-46.08 702,-56.08 705.5,-46.08 698.5,-46.08"/>
</g>
<!-- Node8 -->
<g id="node8" class="node">
<title>Node8</title>
<g id="a_node8"><a xlink:href="orc__requests_8h.html" target="_top" xlink:title=" ">
<polygon fill="white" stroke="black" points="212.5,-358.5 212.5,-388.5 331.5,-388.5 331.5,-358.5 212.5,-358.5"/>
<text text-anchor="start" x="220.5" y="-376.5" font-family="Helvetica,sans-Serif" font-size="10.00">src/consensus/aft/orc</text>
<text text-anchor="middle" x="272" y="-365.5" font-family="Helvetica,sans-Serif" font-size="10.00">_requests.h</text>
</a>
</g>
</g>
<!-- Node7&#45;&gt;Node8 -->
<g id="edge8" class="edge">
<title>Node7&#45;&gt;Node8</title>
<path fill="none" stroke="midnightblue" d="M272,-420.41C272,-410.22 272,-397.9 272,-388.59"/>
<polygon fill="midnightblue" stroke="midnightblue" points="268.5,-420.73 272,-430.73 275.5,-420.73 268.5,-420.73"/>
</g>
<!-- Node9 -->
<g id="node9" class="node">
<title>Node9</title>
<g id="a_node9"><a xlink:href="raft_8h.html" target="_top" xlink:title=" ">
<polygon fill="white" stroke="black" points="125.5,-302.5 125.5,-321.5 254.5,-321.5 254.5,-302.5 125.5,-302.5"/>
<text text-anchor="middle" x="190" y="-309.5" font-family="Helvetica,sans-Serif" font-size="10.00">src/consensus/aft/raft.h</text>
</a>
</g>
</g>
<!-- Node7&#45;&gt;Node9 -->
<g id="edge18" class="edge">
<title>Node7&#45;&gt;Node9</title>
<path fill="none" stroke="midnightblue" d="M244.14,-425.86C229.58,-417.29 212.81,-404.84 203,-389 189.76,-367.6 188.95,-336.64 189.46,-321.71"/>
<polygon fill="midnightblue" stroke="midnightblue" points="242.84,-429.15 253.28,-430.93 246.23,-423.02 242.84,-429.15"/>
</g>
<!-- Node14 -->
<g id="node14" class="node">
<title>Node14</title>
<g id="a_node14"><a xlink:href="http__node__client_8h.html" target="_top" xlink:title=" ">
<polygon fill="white" stroke="black" points="248,-235.5 248,-265.5 358,-265.5 358,-235.5 248,-235.5"/>
<text text-anchor="start" x="256" y="-253.5" font-family="Helvetica,sans-Serif" font-size="10.00">src/node/http_node</text>
<text text-anchor="middle" x="303" y="-242.5" font-family="Helvetica,sans-Serif" font-size="10.00">_client.h</text>
</a>
</g>
</g>
<!-- Node7&#45;&gt;Node14 -->
<g id="edge19" class="edge">
<title>Node7&#45;&gt;Node14</title>
<path fill="none" stroke="midnightblue" d="M301.11,-426.03C315.63,-417.62 331.82,-405.27 340,-389 361.1,-347.04 330.5,-291.62 313.32,-265.84"/>
<polygon fill="midnightblue" stroke="midnightblue" points="299.04,-423.17 291.9,-430.99 302.36,-429.33 299.04,-423.17"/>
</g>
<!-- Node15 -->
<g id="node15" class="node">
<title>Node15</title>
<g id="a_node15"><a xlink:href="retired__nodes__cleanup_8h.html" target="_top" xlink:title=" ">
<polygon fill="white" stroke="black" points="28,-358.5 28,-388.5 156,-388.5 156,-358.5 28,-358.5"/>
<text text-anchor="start" x="36" y="-376.5" font-family="Helvetica,sans-Serif" font-size="10.00">src/node/retired_nodes</text>
<text text-anchor="middle" x="92" y="-365.5" font-family="Helvetica,sans-Serif" font-size="10.00">_cleanup.h</text>
</a>
</g>
</g>
<!-- Node7&#45;&gt;Node15 -->
<g id="edge21" class="edge">
<title>Node7&#45;&gt;Node15</title>
<path fill="none" stroke="midnightblue" d="M238.34,-427.35C207.83,-416.33 162.87,-400.09 130.85,-388.53"/>
<polygon fill="midnightblue" stroke="midnightblue" points="237.5,-430.76 248.1,-430.87 239.88,-424.18 237.5,-430.76"/>
</g>
<!-- Node8&#45;&gt;Node9 -->
<g id="edge9" class="edge">
<title>Node8&#45;&gt;Node9</title>
<path fill="none" stroke="midnightblue" d="M244.41,-352.48C229.97,-342 213.03,-329.71 201.93,-321.66"/>
<polygon fill="midnightblue" stroke="midnightblue" points="242.42,-355.36 252.57,-358.4 246.53,-349.69 242.42,-355.36"/>
</g>
<!-- Node12 -->
<g id="node12" class="node">
<title>Node12</title>
<g id="a_node12"><a xlink:href="node__frontend_8h.html" target="_top" xlink:title=" ">
<polygon fill="white" stroke="black" points="640,-302.5 640,-321.5 798,-321.5 798,-302.5 640,-302.5"/>
<text text-anchor="middle" x="719" y="-309.5" font-family="Helvetica,sans-Serif" font-size="10.00">src/node/rpc/node_frontend.h</text>
</a>
</g>
</g>
<!-- Node8&#45;&gt;Node12 -->
<g id="edge14" class="edge">
<title>Node8&#45;&gt;Node12</title>
<path fill="none" stroke="midnightblue" d="M341.98,-363.18C427.73,-351.77 571.83,-332.59 654.84,-321.54"/>
<polygon fill="midnightblue" stroke="midnightblue" points="341.27,-359.75 331.82,-364.54 342.19,-366.69 341.27,-359.75"/>
</g>
<!-- Node9&#45;&gt;Node10 -->
<g id="edge10" class="edge">
<title>Node9&#45;&gt;Node10</title>
<path fill="none" stroke="midnightblue" d="M196.92,-292.64C204.53,-275.06 218.46,-249.18 239,-235 290.76,-199.28 362.9,-188.06 413.95,-184.9"/>
<polygon fill="midnightblue" stroke="midnightblue" points="193.51,-291.75 193,-302.33 200,-294.38 193.51,-291.75"/>
</g>
<!-- Node10&#45;&gt;Node5 -->
<g id="edge11" class="edge">
<title>Node10&#45;&gt;Node5</title>
<path fill="none" stroke="midnightblue" d="M481.34,-163.67C486.89,-147.55 497.17,-124.95 514,-112 550.18,-84.17 600.98,-73.21 640.65,-69.05"/>
<polygon fill="midnightblue" stroke="midnightblue" points="477.88,-163 478.23,-173.59 484.56,-165.1 477.88,-163"/>
</g>
<!-- Node11 -->
<g id="node11" class="node">
<title>Node11</title>
<g id="a_node11"><a xlink:href="gov__effects_8h.html" target="_top" xlink:title=" ">
<polygon fill="white" stroke="black" points="523,-112.5 523,-131.5 667,-131.5 667,-112.5 523,-112.5"/>
<text text-anchor="middle" x="595" y="-119.5" font-family="Helvetica,sans-Serif" font-size="10.00">src/node/rpc/gov_effects.h</text>
</a>
</g>
</g>
<!-- Node10&#45;&gt;Node11 -->
<g id="edge12" class="edge">
<title>Node10&#45;&gt;Node11</title>
<path fill="none" stroke="midnightblue" d="M502.27,-169.37C525.33,-157.83 558.2,-141.4 577.98,-131.51"/>
<polygon fill="midnightblue" stroke="midnightblue" points="500.43,-166.37 493.05,-173.98 503.56,-172.63 500.43,-166.37"/>
</g>
<!-- Node11&#45;&gt;Node5 -->
<g id="edge13" class="edge">
<title>Node11&#45;&gt;Node5</title>
<path fill="none" stroke="midnightblue" d="M621.3,-107.73C641.11,-97.73 667.71,-84.31 684.85,-75.65"/>
<polygon fill="midnightblue" stroke="midnightblue" points="619.54,-104.69 612.19,-112.32 622.7,-110.94 619.54,-104.69"/>
</g>
<!-- Node12&#45;&gt;Node5 -->
<g id="edge15" class="edge">
<title>Node12&#45;&gt;Node5</title>
<path fill="none" stroke="midnightblue" d="M720.52,-291.84C722.94,-256.17 726.43,-177.29 716,-112 713.94,-99.07 708.98,-84.73 705.56,-75.78"/>
<polygon fill="midnightblue" stroke="midnightblue" points="717,-291.96 719.76,-302.19 723.98,-292.48 717,-291.96"/>
</g>
<!-- Node13 -->
<g id="node13" class="node">
<title>Node13</title>
<g id="a_node13"><a xlink:href="jwt__key__auto__refresh_8h.html" target="_top" xlink:title=" ">
<polygon fill="white" stroke="black" points="548.5,-235.5 548.5,-265.5 673.5,-265.5 673.5,-235.5 548.5,-235.5"/>
<text text-anchor="start" x="556.5" y="-253.5" font-family="Helvetica,sans-Serif" font-size="10.00">src/node/jwt_key_auto</text>
<text text-anchor="middle" x="611" y="-242.5" font-family="Helvetica,sans-Serif" font-size="10.00">_refresh.h</text>
</a>
</g>
</g>
<!-- Node12&#45;&gt;Node13 -->
<g id="edge16" class="edge">
<title>Node12&#45;&gt;Node13</title>
<path fill="none" stroke="midnightblue" d="M694.57,-297.54C677.24,-287.99 654.02,-275.2 636.45,-265.52"/>
<polygon fill="midnightblue" stroke="midnightblue" points="693.08,-300.72 703.53,-302.48 696.46,-294.58 693.08,-300.72"/>
</g>
<!-- Node13&#45;&gt;Node10 -->
<g id="edge17" class="edge">
<title>Node13&#45;&gt;Node10</title>
<path fill="none" stroke="midnightblue" d="M572.51,-230.97C546.58,-218.48 513.59,-202.6 493.67,-193.01"/>
<polygon fill="midnightblue" stroke="midnightblue" points="571.18,-234.21 581.71,-235.4 574.22,-227.9 571.18,-234.21"/>
</g>
<!-- Node14&#45;&gt;Node10 -->
<g id="edge20" class="edge">
<title>Node14&#45;&gt;Node10</title>
<path fill="none" stroke="midnightblue" d="M350.15,-231.78C383.7,-219.18 427.27,-202.81 453.36,-193.01"/>
<polygon fill="midnightblue" stroke="midnightblue" points="348.67,-228.6 340.54,-235.4 351.13,-235.16 348.67,-228.6"/>
</g>
<!-- Node15&#45;&gt;Node9 -->
<g id="edge22" class="edge">
<title>Node15&#45;&gt;Node9</title>
<path fill="none" stroke="midnightblue" d="M124,-353.07C141.47,-342.46 162.23,-329.86 175.74,-321.66"/>
<polygon fill="midnightblue" stroke="midnightblue" points="121.96,-350.22 115.22,-358.4 125.59,-356.2 121.96,-350.22"/>
</g>
<!-- Node16&#45;&gt;Node10 -->
<g id="edge25" class="edge">
<title>Node16&#45;&gt;Node10</title>
<path fill="none" stroke="midnightblue" d="M473.17,-230.54C473.93,-218.17 474.88,-202.62 475.47,-193.13"/>
<polygon fill="midnightblue" stroke="midnightblue" points="469.66,-230.54 472.54,-240.73 476.65,-230.97 469.66,-230.54"/>
</g>
<!-- Node18 -->
<g id="node18" class="node">
<title>Node18</title>
<g id="a_node18"><a xlink:href="http__parser_8h.html" target="_top" xlink:title=" ">
<polygon fill="white" stroke="black" points="528,-744 528,-763 648,-763 648,-744 528,-744"/>
<text text-anchor="middle" x="588" y="-751" font-family="Helvetica,sans-Serif" font-size="10.00">src/http/http_parser.h</text>
</a>
</g>
</g>
<!-- Node17&#45;&gt;Node18 -->
<g id="edge27" class="edge">
<title>Node17&#45;&gt;Node18</title>
<path fill="none" stroke="midnightblue" d="M531.3,-856.47C544.14,-848.85 558.64,-838.19 568,-825 581.7,-805.7 586.05,-777.23 587.4,-763.1"/>
<polygon fill="midnightblue" stroke="midnightblue" points="529.37,-853.55 522.35,-861.48 532.78,-859.65 529.37,-853.55"/>
</g>
<!-- Node33 -->
<g id="node33" class="node">
<title>Node33</title>
<g id="a_node33"><a xlink:href="http__proc_8h.html" target="_top" xlink:title=" ">
<polygon fill="white" stroke="black" points="448.5,-805.5 448.5,-824.5 559.5,-824.5 559.5,-805.5 448.5,-805.5"/>
<text text-anchor="middle" x="504" y="-812.5" font-family="Helvetica,sans-Serif" font-size="10.00">src/http/http_proc.h</text>
</a>
</g>
</g>
<!-- Node17&#45;&gt;Node33 -->
<g id="edge54" class="edge">
<title>Node17&#45;&gt;Node33</title>
<path fill="none" stroke="midnightblue" d="M504,-850.8C504,-841.91 504,-831.78 504,-824.75"/>
<polygon fill="midnightblue" stroke="midnightblue" points="500.5,-851.08 504,-861.08 507.5,-851.08 500.5,-851.08"/>
</g>
<!-- Node18&#45;&gt;Node3 -->
<g id="edge34" class="edge">
<title>Node18&#45;&gt;Node3</title>
<path fill="none" stroke="midnightblue" d="M555.35,-739.98C517.57,-723.86 456.08,-692.29 421,-646 405.35,-625.34 400.28,-594.04 398.69,-578.87"/>
<polygon fill="midnightblue" stroke="midnightblue" points="554.29,-743.33 564.87,-743.93 556.97,-736.87 554.29,-743.33"/>
</g>
<!-- Node19 -->
<g id="node19" class="node">
<title>Node19</title>
<g id="a_node19"><a xlink:href="rpc__tls__client_8h.html" target="_top" xlink:title=" ">
<polygon fill="white" stroke="black" points="768.5,-615.5 768.5,-645.5 869.5,-645.5 869.5,-615.5 768.5,-615.5"/>
<text text-anchor="start" x="776.5" y="-633.5" font-family="Helvetica,sans-Serif" font-size="10.00">src/clients/rpc_tls</text>
<text text-anchor="middle" x="819" y="-622.5" font-family="Helvetica,sans-Serif" font-size="10.00">_client.h</text>
</a>
</g>
</g>
<!-- Node18&#45;&gt;Node19 -->
<g id="edge28" class="edge">
<title>Node18&#45;&gt;Node19</title>
<path fill="none" stroke="midnightblue" d="M622.9,-740.38C648.21,-731.09 682.95,-717.3 712,-702 744.28,-685 779.12,-660.85 799.98,-645.69"/>
<polygon fill="midnightblue" stroke="midnightblue" points="621.56,-737.14 613.35,-743.83 623.95,-743.72 621.56,-737.14"/>
</g>
<!-- Node24 -->
<g id="node24" class="node">
<title>Node24</title>
<g id="a_node24"><a xlink:href="http__jwt_8h.html" target="_top" xlink:title=" ">
<polygon fill="white" stroke="black" points="912.5,-682.5 912.5,-701.5 1017.5,-701.5 1017.5,-682.5 912.5,-682.5"/>
<text text-anchor="middle" x="965" y="-689.5" font-family="Helvetica,sans-Serif" font-size="10.00">src/http/http_jwt.h</text>
</a>
</g>
</g>
<!-- Node18&#45;&gt;Node24 -->
<g id="edge35" class="edge">
<title>Node18&#45;&gt;Node24</title>
<path fill="none" stroke="midnightblue" d="M652.05,-742.39C725.37,-730.82 844.11,-712.08 912.3,-701.32"/>
<polygon fill="midnightblue" stroke="midnightblue" points="651.35,-738.96 642.01,-743.98 652.44,-745.87 651.35,-738.96"/>
</g>
<!-- Node29 -->
<g id="node29" class="node">
<title>Node29</title>
<g id="a_node29"><a xlink:href="http__rpc__context_8h.html" target="_top" xlink:title=" ">
<polygon fill="white" stroke="black" points="430.5,-621 430.5,-640 577.5,-640 577.5,-621 430.5,-621"/>
<text text-anchor="middle" x="504" y="-628" font-family="Helvetica,sans-Serif" font-size="10.00">src/http/http_rpc_context.h</text>
</a>
</g>
</g>
<!-- Node18&#45;&gt;Node29 -->
<g id="edge44" class="edge">
<title>Node18&#45;&gt;Node29</title>
<path fill="none" stroke="midnightblue" d="M576.02,-735.25C557.79,-708.98 523.74,-659.93 509.99,-640.12"/>
<polygon fill="midnightblue" stroke="midnightblue" points="573.38,-737.58 581.96,-743.8 579.13,-733.59 573.38,-737.58"/>
</g>
<!-- Node31 -->
<g id="node31" class="node">
<title>Node31</title>
<g id="a_node31"><a xlink:href="http__sig_8h.html" target="_top" xlink:title=" ">
<polygon fill="white" stroke="black" points="599,-682.5 599,-701.5 703,-701.5 703,-682.5 599,-682.5"/>
<text text-anchor="middle" x="651" y="-689.5" font-family="Helvetica,sans-Serif" font-size="10.00">src/http/http_sig.h</text>
</a>
</g>
</g>
<!-- Node18&#45;&gt;Node31 -->
<g id="edge50" class="edge">
<title>Node18&#45;&gt;Node31</title>
<path fill="none" stroke="midnightblue" d="M604.6,-736.82C616.57,-725.52 632.27,-710.69 641.99,-701.51"/>
<polygon fill="midnightblue" stroke="midnightblue" points="601.89,-734.56 597.03,-743.98 606.7,-739.65 601.89,-734.56"/>
</g>
<!-- Node20 -->
<g id="node20" class="node">
<title>Node20</title>
<g id="a_node20"><a xlink:href="perf__client_8h.html" target="_top" xlink:title=" ">
<polygon fill="white" stroke="black" points="792.5,-492.5 792.5,-522.5 903.5,-522.5 903.5,-492.5 792.5,-492.5"/>
<text text-anchor="start" x="800.5" y="-510.5" font-family="Helvetica,sans-Serif" font-size="10.00">src/clients/perf/perf</text>
<text text-anchor="middle" x="848" y="-499.5" font-family="Helvetica,sans-Serif" font-size="10.00">_client.h</text>
</a>
</g>
</g>
<!-- Node19&#45;&gt;Node20 -->
<g id="edge29" class="edge">
<title>Node19&#45;&gt;Node20</title>
<path fill="none" stroke="midnightblue" d="M814.18,-605.23C812.37,-591.42 811.66,-573.95 816,-559 819.88,-545.64 828.46,-532.43 835.76,-522.88"/>
<polygon fill="midnightblue" stroke="midnightblue" points="810.77,-606.08 815.8,-615.41 817.69,-604.98 810.77,-606.08"/>
</g>
<!-- Node23 -->
<g id="node23" class="node">
<title>Node23</title>
<g id="a_node23"><a xlink:href="timing_8h.html" target="_top" xlink:title=" ">
<polygon fill="white" stroke="black" points="825,-559.5 825,-578.5 957,-578.5 957,-559.5 825,-559.5"/>
<text text-anchor="middle" x="891" y="-566.5" font-family="Helvetica,sans-Serif" font-size="10.00">src/clients/perf/timing.h</text>
</a>
</g>
</g>
<!-- Node19&#45;&gt;Node23 -->
<g id="edge32" class="edge">
<title>Node19&#45;&gt;Node23</title>
<path fill="none" stroke="midnightblue" d="M843.94,-608.89C856.46,-598.54 870.96,-586.56 880.52,-578.66"/>
<polygon fill="midnightblue" stroke="midnightblue" points="841.54,-606.33 836.06,-615.4 846,-611.73 841.54,-606.33"/>
</g>
<!-- Node21 -->
<g id="node21" class="node">
<title>Node21</title>
<g id="a_node21"><a xlink:href="tpcc__client_8cpp.html" target="_top" xlink:title=" ">
<polygon fill="white" stroke="black" points="768,-425.5 768,-455.5 884,-455.5 884,-425.5 768,-425.5"/>
<text text-anchor="start" x="776" y="-443.5" font-family="Helvetica,sans-Serif" font-size="10.00">src/apps/tpcc/clients</text>
<text text-anchor="middle" x="826" y="-432.5" font-family="Helvetica,sans-Serif" font-size="10.00">/tpcc_client.cpp</text>
</a>
</g>
</g>
<!-- Node20&#45;&gt;Node21 -->
<g id="edge30" class="edge">
<title>Node20&#45;&gt;Node21</title>
<path fill="none" stroke="midnightblue" d="M839.94,-482.7C836.86,-473.59 833.44,-463.49 830.76,-455.58"/>
<polygon fill="midnightblue" stroke="midnightblue" points="836.71,-484.05 843.23,-492.4 843.34,-481.8 836.71,-484.05"/>
</g>
<!-- Node22 -->
<g id="node22" class="node">
<title>Node22</title>
<g id="a_node22"><a xlink:href="scenario__perf__client_8cpp.html" target="_top" xlink:title=" ">
<polygon fill="white" stroke="black" points="902.5,-425.5 902.5,-455.5 1035.5,-455.5 1035.5,-425.5 902.5,-425.5"/>
<text text-anchor="start" x="910.5" y="-443.5" font-family="Helvetica,sans-Serif" font-size="10.00">src/clients/perf/scenario</text>
<text text-anchor="middle" x="969" y="-432.5" font-family="Helvetica,sans-Serif" font-size="10.00">_perf_client.cpp</text>
</a>
</g>
</g>
<!-- Node20&#45;&gt;Node22 -->
<g id="edge31" class="edge">
<title>Node20&#45;&gt;Node22</title>
<path fill="none" stroke="midnightblue" d="M883.23,-487.57C902.26,-477.35 925.37,-464.94 942.8,-455.58"/>
<polygon fill="midnightblue" stroke="midnightblue" points="881.41,-484.58 874.26,-492.4 884.72,-490.75 881.41,-484.58"/>
</g>
<!-- Node23&#45;&gt;Node20 -->
<g id="edge33" class="edge">
<title>Node23&#45;&gt;Node20</title>
<path fill="none" stroke="midnightblue" d="M878.89,-551.25C872.34,-542.19 864.35,-531.12 858.13,-522.52"/>
<polygon fill="midnightblue" stroke="midnightblue" points="876.14,-553.42 884.84,-559.48 881.82,-549.32 876.14,-553.42"/>
</g>
<!-- Node25 -->
<g id="node25" class="node">
<title>Node25</title>
<g id="a_node25"><a xlink:href="jwt__auth_8cpp.html" target="_top" xlink:title=" ">
<polygon fill="white" stroke="black" points="887.5,-615.5 887.5,-645.5 1042.5,-645.5 1042.5,-615.5 887.5,-615.5"/>
<text text-anchor="start" x="895.5" y="-633.5" font-family="Helvetica,sans-Serif" font-size="10.00">src/endpoints/authentication</text>
<text text-anchor="middle" x="965" y="-622.5" font-family="Helvetica,sans-Serif" font-size="10.00">/jwt_auth.cpp</text>
</a>
</g>
</g>
<!-- Node24&#45;&gt;Node25 -->
<g id="edge36" class="edge">
<title>Node24&#45;&gt;Node25</title>
<path fill="none" stroke="midnightblue" d="M965,-672.23C965,-663.59 965,-653.5 965,-645.52"/>
<polygon fill="midnightblue" stroke="midnightblue" points="961.5,-672.48 965,-682.48 968.5,-672.48 961.5,-672.48"/>
</g>
<!-- Node26 -->
<g id="node26" class="node">
<title>Node26</title>
<g id="a_node26"><a xlink:href="frontend_8h.html" target="_top" xlink:title=" ">
<polygon fill="white" stroke="black" points="780.5,-364 780.5,-383 909.5,-383 909.5,-364 780.5,-364"/>
<text text-anchor="middle" x="845" y="-371" font-family="Helvetica,sans-Serif" font-size="10.00">src/node/rpc/frontend.h</text>
</a>
</g>
</g>
<!-- Node24&#45;&gt;Node26 -->
<g id="edge37" class="edge">
<title>Node24&#45;&gt;Node26</title>
<path fill="none" stroke="midnightblue" d="M1005.02,-678.64C1021.78,-671.58 1040.09,-661.05 1052,-646 1073.6,-618.69 1071,-604.82 1071,-570 1071,-570 1071,-570 1071,-506.5 1071,-468.48 1072.7,-451.05 1045,-425 1008.87,-391.02 953.29,-379.03 909.89,-375.18"/>
<polygon fill="midnightblue" stroke="midnightblue" points="1003.43,-675.51 995.39,-682.41 1005.98,-682.03 1003.43,-675.51"/>
</g>
<!-- Node26&#45;&gt;Node10 -->
<g id="edge38" class="edge">
<title>Node26&#45;&gt;Node10</title>
<path fill="none" stroke="midnightblue" d="M838.58,-354.17C832.43,-338.73 821.88,-316.84 807,-302 733.61,-228.78 611.73,-200.99 538.12,-190.58"/>
<polygon fill="midnightblue" stroke="midnightblue" points="835.35,-355.53 842.14,-363.67 841.91,-353.07 835.35,-355.53"/>
</g>
<!-- Node26&#45;&gt;Node12 -->
<g id="edge41" class="edge">
<title>Node26&#45;&gt;Node12</title>
<path fill="none" stroke="midnightblue" d="M817.84,-359.67C793.39,-348.13 758.15,-331.49 737.02,-321.51"/>
<polygon fill="midnightblue" stroke="midnightblue" points="816.41,-362.87 826.95,-363.98 819.4,-356.54 816.41,-362.87"/>
</g>
<!-- Node27 -->
<g id="node27" class="node">
<title>Node27</title>
<g id="a_node27"><a xlink:href="member__frontend_8h.html" target="_top" xlink:title=" ">
<polygon fill="white" stroke="black" points="901,-168.5 901,-198.5 1021,-198.5 1021,-168.5 901,-168.5"/>
<text text-anchor="start" x="909" y="-186.5" font-family="Helvetica,sans-Serif" font-size="10.00">src/node/rpc/member</text>
<text text-anchor="middle" x="961" y="-175.5" font-family="Helvetica,sans-Serif" font-size="10.00">_frontend.h</text>
</a>
</g>
</g>
<!-- Node26&#45;&gt;Node27 -->
<g id="edge39" class="edge">
<title>Node26&#45;&gt;Node27</title>
<path fill="none" stroke="midnightblue" d="M856.26,-355.61C862.71,-345.84 870.91,-333.29 878,-322 906.04,-277.38 937.91,-223.7 952.68,-198.66"/>
<polygon fill="midnightblue" stroke="midnightblue" points="853.31,-353.71 850.7,-363.98 859.14,-357.58 853.31,-353.71"/>
</g>
<!-- Node28 -->
<g id="node28" class="node">
<title>Node28</title>
<g id="a_node28"><a xlink:href="user__frontend_8h.html" target="_top" xlink:title=" ">
<polygon fill="white" stroke="black" points="786.5,-112.5 786.5,-131.5 941.5,-131.5 941.5,-112.5 786.5,-112.5"/>
<text text-anchor="middle" x="864" y="-119.5" font-family="Helvetica,sans-Serif" font-size="10.00">src/node/rpc/user_frontend.h</text>
</a>
</g>
</g>
<!-- Node26&#45;&gt;Node28 -->
<g id="edge42" class="edge">
<title>Node26&#45;&gt;Node28</title>
<path fill="none" stroke="midnightblue" d="M846.42,-353.84C850.24,-303.64 860.64,-167.1 863.35,-131.55"/>
<polygon fill="midnightblue" stroke="midnightblue" points="842.92,-353.67 845.65,-363.91 849.9,-354.21 842.92,-353.67"/>
</g>
<!-- Node27&#45;&gt;Node5 -->
<g id="edge40" class="edge">
<title>Node27&#45;&gt;Node5</title>
<path fill="none" stroke="midnightblue" d="M964.17,-157.99C964.7,-142.8 962.52,-123.97 951,-112 925.67,-85.69 828.23,-74.58 763.02,-70.02"/>
<polygon fill="midnightblue" stroke="midnightblue" points="960.66,-158.02 963.41,-168.25 967.64,-158.54 960.66,-158.02"/>
</g>
<!-- Node28&#45;&gt;Node5 -->
<g id="edge43" class="edge">
<title>Node28&#45;&gt;Node5</title>
<path fill="none" stroke="midnightblue" d="M828.52,-109.17C798.01,-99 754.76,-84.59 727.55,-75.52"/>
<polygon fill="midnightblue" stroke="midnightblue" points="827.74,-112.6 838.33,-112.44 829.95,-105.96 827.74,-112.6"/>
</g>
<!-- Node29&#45;&gt;Node3 -->
<g id="edge45" class="edge">
<title>Node29&#45;&gt;Node3</title>
<path fill="none" stroke="midnightblue" d="M480.05,-616.06C459.54,-604.54 430.62,-588.31 413.16,-578.51"/>
<polygon fill="midnightblue" stroke="midnightblue" points="478.38,-619.13 488.81,-620.98 481.81,-613.03 478.38,-619.13"/>
</g>
<!-- Node29&#45;&gt;Node13 -->
<g id="edge46" class="edge">
<title>Node29&#45;&gt;Node13</title>
<path fill="none" stroke="midnightblue" d="M505.24,-610.95C506.72,-587.21 509,-544.82 509,-508.5 509,-508.5 509,-508.5 509,-372.5 509,-324.28 556.94,-285.31 587.09,-265.57"/>
<polygon fill="midnightblue" stroke="midnightblue" points="501.75,-610.79 504.59,-621 508.73,-611.24 501.75,-610.79"/>
</g>
<!-- Node30 -->
<g id="node30" class="node">
<title>Node30</title>
<g id="a_node30"><a xlink:href="forwarder_8h.html" target="_top" xlink:title=" ">
<polygon fill="white" stroke="black" points="545,-431 545,-450 679,-450 679,-431 545,-431"/>
<text text-anchor="middle" x="612" y="-438" font-family="Helvetica,sans-Serif" font-size="10.00">src/node/rpc/forwarder.h</text>
</a>
</g>
</g>
<!-- Node29&#45;&gt;Node30 -->
<g id="edge47" class="edge">
<title>Node29&#45;&gt;Node30</title>
<path fill="none" stroke="midnightblue" d="M513.9,-612.26C536.35,-573.19 590.42,-479.06 607.05,-450.12"/>
<polygon fill="midnightblue" stroke="midnightblue" points="510.87,-610.52 508.92,-620.93 516.94,-614.01 510.87,-610.52"/>
</g>
<!-- Node30&#45;&gt;Node5 -->
<g id="edge48" class="edge">
<title>Node30&#45;&gt;Node5</title>
<path fill="none" stroke="midnightblue" d="M610.1,-420.66C608.21,-392.64 608.31,-339.29 631,-302 645.42,-278.3 668.02,-289.96 682,-266 719.62,-201.52 708.16,-104.98 703.52,-75.72"/>
<polygon fill="midnightblue" stroke="midnightblue" points="606.65,-421.33 610.97,-431 613.62,-420.74 606.65,-421.33"/>
</g>
<!-- Node30&#45;&gt;Node26 -->
<g id="edge49" class="edge">
<title>Node30&#45;&gt;Node26</title>
<path fill="none" stroke="midnightblue" d="M652.61,-428.17C698.68,-415.32 772.8,-394.64 814.3,-383.06"/>
<polygon fill="midnightblue" stroke="midnightblue" points="651.63,-424.81 642.94,-430.87 653.51,-431.55 651.63,-424.81"/>
</g>
<!-- Node31&#45;&gt;Node19 -->
<g id="edge51" class="edge">
<title>Node31&#45;&gt;Node19</title>
<path fill="none" stroke="midnightblue" d="M684.59,-679.1C711.93,-669.42 750.57,-655.74 779.41,-645.52"/>
<polygon fill="midnightblue" stroke="midnightblue" points="683.33,-675.84 675.07,-682.48 685.67,-682.44 683.33,-675.84"/>
</g>
<!-- Node31&#45;&gt;Node29 -->
<g id="edge53" class="edge">
<title>Node31&#45;&gt;Node29</title>
<path fill="none" stroke="midnightblue" d="M620.44,-678.63C591.88,-667.07 550,-650.12 525.02,-640.01"/>
<polygon fill="midnightblue" stroke="midnightblue" points="619.36,-681.97 629.94,-682.48 621.98,-675.48 619.36,-681.97"/>
</g>
<!-- Node32 -->
<g id="node32" class="node">
<title>Node32</title>
<g id="a_node32"><a xlink:href="sig__auth_8cpp.html" target="_top" xlink:title=" ">
<polygon fill="white" stroke="black" points="595.5,-615.5 595.5,-645.5 750.5,-645.5 750.5,-615.5 595.5,-615.5"/>
<text text-anchor="start" x="603.5" y="-633.5" font-family="Helvetica,sans-Serif" font-size="10.00">src/endpoints/authentication</text>
<text text-anchor="middle" x="673" y="-622.5" font-family="Helvetica,sans-Serif" font-size="10.00">/sig_auth.cpp</text>
</a>
</g>
</g>
<!-- Node31&#45;&gt;Node32 -->
<g id="edge52" class="edge">
<title>Node31&#45;&gt;Node32</title>
<path fill="none" stroke="midnightblue" d="M657.72,-672.82C660.97,-664.04 664.8,-653.68 667.82,-645.52"/>
<polygon fill="midnightblue" stroke="midnightblue" points="654.34,-671.88 654.15,-682.48 660.9,-674.31 654.34,-671.88"/>
</g>
<!-- Node33&#45;&gt;Node18 -->
<g id="edge55" class="edge">
<title>Node33&#45;&gt;Node18</title>
<path fill="none" stroke="midnightblue" d="M524.31,-799.61C540.47,-788.17 562.52,-772.55 575.99,-763.01"/>
<polygon fill="midnightblue" stroke="midnightblue" points="522.17,-796.84 516.04,-805.48 526.22,-802.55 522.17,-796.84"/>
</g>
<!-- Node35 -->
<g id="node35" class="node">
<title>Node35</title>
<g id="a_node35"><a xlink:href="host_2main_8cpp.html" target="_top" xlink:title=" ">
<polygon fill="white" stroke="black" points="616.5,-805.5 616.5,-824.5 719.5,-824.5 719.5,-805.5 616.5,-805.5"/>
<text text-anchor="middle" x="668" y="-812.5" font-family="Helvetica,sans-Serif" font-size="10.00">src/host/main.cpp</text>
</a>
</g>
</g>
<!-- Node34&#45;&gt;Node35 -->
<g id="edge57" class="edge">
<title>Node34&#45;&gt;Node35</title>
<path fill="none" stroke="midnightblue" d="M667.36,-850.8C667.52,-841.91 667.71,-831.78 667.84,-824.75"/>
<polygon fill="midnightblue" stroke="midnightblue" points="663.85,-851.02 667.17,-861.08 670.85,-851.15 663.85,-851.02"/>
</g>
</g>
</svg>
        <g id="navigator" transform="translate(0 0)" fill="#404254">
                <rect fill="#f2f5e9" fill-opacity="0.5" stroke="#606060" stroke-width=".5" x="0" y="0" width="60" height="60"/>
                <use id="zoomplus" xlink:href="#zoomPlus" x="17" y="9" onmousedown="handleZoom(evt,'in')"/>
                <use id="zoomminus" xlink:href="#zoomMin" x="42" y="9" onmousedown="handleZoom(evt,'out')"/>
                <use id="reset" xlink:href="#resetDef" x="30" y="36" onmousedown="handleReset()"/>
                <g id="arrowUp" xlink:href="#dirArrow" transform="translate(30 24)" onmousedown="handlePan(0,-1)">
                  <use xlink:href="#rim" fill="#404040">
                        <set attributeName="fill" to="#808080" begin="arrowUp.mouseover" end="arrowUp.mouseout"/>
                  </use>
                  <path fill="none" stroke="white" stroke-width="1.5" d="M0,-3.0v7 M-2.5,-0.5L0,-3.0L2.5,-0.5"/>
                </g>
                <g id="arrowRight" xlink:href="#dirArrow" transform="rotate(90) translate(36 -43)" onmousedown="handlePan(1,0)">
                  <use xlink:href="#rim" fill="#404040">
                        <set attributeName="fill" to="#808080" begin="arrowRight.mouseover" end="arrowRight.mouseout"/>
                  </use>
                  <path fill="none" stroke="white" stroke-width="1.5" d="M0,-3.0v7 M-2.5,-0.5L0,-3.0L2.5,-0.5"/>
                </g>
                <g id="arrowDown" xlink:href="#dirArrow" transform="rotate(180) translate(-30 -48)" onmousedown="handlePan(0,1)">
                  <use xlink:href="#rim" fill="#404040">
                        <set attributeName="fill" to="#808080" begin="arrowDown.mouseover" end="arrowDown.mouseout"/>
                  </use>
                  <path fill="none" stroke="white" stroke-width="1.5" d="M0,-3.0v7 M-2.5,-0.5L0,-3.0L2.5,-0.5"/>
                </g>
                <g id="arrowLeft" xlink:href="#dirArrow" transform="rotate(270) translate(-36 17)" onmousedown="handlePan(-1,0)">
                  <use xlink:href="#rim" fill="#404040">
                        <set attributeName="fill" to="#808080" begin="arrowLeft.mouseover" end="arrowLeft.mouseout"/>
                  </use>
                  <path fill="none" stroke="white" stroke-width="1.5" d="M0,-3.0v7 M-2.5,-0.5L0,-3.0L2.5,-0.5"/>
                </g>
        </g>
        <svg viewBox="0 0 15 15" width="100%" height="30px" preserveAspectRatio="xMaxYMin meet">
         <g id="arrow_out" transform="scale(0.3 0.3)">
          <a xlink:href="msg__types_8h__dep__incl_org.svg" target="_base">
           <rect id="button" ry="5" rx="5" y="6" x="6" height="38" width="38"
                fill="#f2f5e9" fill-opacity="0.5" stroke="#606060" stroke-width="1.0"/>
           <path id="arrow"
             d="M 11.500037,31.436501 C 11.940474,20.09759 22.043105,11.32322 32.158766,21.979434 L 37.068811,17.246167 C 37.068811,17.246167 37.088388,32 37.088388,32 L 22.160133,31.978069 C 22.160133,31.978069 26.997745,27.140456 26.997745,27.140456 C 18.528582,18.264221 13.291696,25.230495 11.500037,31.436501 z"
             style="fill:#404040;"/>
          </a>
         </g>
        </svg>
</svg>
