<?xml version="1.0" encoding="UTF-8" standalone="no"?>
<!DOCTYPE svg PUBLIC "-//W3C//DTD SVG 1.1//EN"
 "http://www.w3.org/Graphics/SVG/1.1/DTD/svg11.dtd">
<!-- Generated by graphviz version 2.43.0 (0)
 -->
<!-- Title: src/service/tables/node_signature.h Pages: 1 -->
<svg width="2512pt" height="732pt"
 viewBox="0.00 0.00 2511.83 732.00" xmlns="http://www.w3.org/2000/svg" xmlns:xlink="http://www.w3.org/1999/xlink">
<g id="graph0" class="graph" transform="scale(1 1) rotate(0) translate(4 728)">
<title>src/service/tables/node_signature.h</title>
<polygon fill="white" stroke="transparent" points="-4,4 -4,-728 2507.83,-728 2507.83,4 -4,4"/>
<!-- Node1 -->
<g id="node1" class="node">
<title>Node1</title>
<g id="a_node1"><a xlink:title=" ">
<polygon fill="#bfbfbf" stroke="black" points="918,-693.5 918,-723.5 1022,-723.5 1022,-693.5 918,-693.5"/>
<text text-anchor="start" x="926" y="-711.5" font-family="Helvetica,sans-Serif" font-size="10.00">src/service/tables</text>
<text text-anchor="middle" x="970" y="-700.5" font-family="Helvetica,sans-Serif" font-size="10.00">/node_signature.h</text>
</a>
</g>
</g>
<!-- Node2 -->
<g id="node2" class="node">
<title>Node2</title>
<g id="a_node2"><a xlink:href="historical__queries_8h.html" target="_top" xlink:title=" ">
<polygon fill="white" stroke="black" points="0,-302.5 0,-332.5 106,-332.5 106,-302.5 0,-302.5"/>
<text text-anchor="start" x="8" y="-320.5" font-family="Helvetica,sans-Serif" font-size="10.00">src/node/historical</text>
<text text-anchor="middle" x="53" y="-309.5" font-family="Helvetica,sans-Serif" font-size="10.00">_queries.h</text>
</a>
</g>
</g>
<!-- Node1&#45;&gt;Node2 -->
<g id="edge1" class="edge">
<title>Node1&#45;&gt;Node2</title>
<path fill="none" stroke="midnightblue" d="M907.55,-705.35C702.97,-697.48 66,-666.14 66,-581 66,-581 66,-581 66,-450.5 66,-407.44 59.06,-356.85 55.32,-332.71"/>
<polygon fill="midnightblue" stroke="midnightblue" points="907.69,-708.86 917.82,-705.74 907.96,-701.86 907.69,-708.86"/>
</g>
<!-- Node6 -->
<g id="node6" class="node">
<title>Node6</title>
<g id="a_node6"><a xlink:href="backup__signatures_8h.html" target="_top" xlink:title=" ">
<polygon fill="white" stroke="black" points="1628.5,-503.5 1628.5,-533.5 1747.5,-533.5 1747.5,-503.5 1628.5,-503.5"/>
<text text-anchor="start" x="1636.5" y="-521.5" font-family="Helvetica,sans-Serif" font-size="10.00">src/service/tables</text>
<text text-anchor="middle" x="1688" y="-510.5" font-family="Helvetica,sans-Serif" font-size="10.00">/backup_signatures.h</text>
</a>
</g>
</g>
<!-- Node1&#45;&gt;Node6 -->
<g id="edge6" class="edge">
<title>Node1&#45;&gt;Node6</title>
<path fill="none" stroke="midnightblue" d="M1032.08,-694.76C1127.34,-674.81 1315.02,-633.9 1472,-590 1534.3,-572.58 1605.43,-548.54 1648.5,-533.52"/>
<polygon fill="midnightblue" stroke="midnightblue" points="1031.12,-691.38 1022.04,-696.86 1032.55,-698.24 1031.12,-691.38"/>
</g>
<!-- Node28 -->
<g id="node28" class="node">
<title>Node28</title>
<g id="a_node28"><a xlink:href="signatures_8h.html" target="_top" xlink:title=" ">
<polygon fill="white" stroke="black" points="858,-626.5 858,-656.5 960,-656.5 960,-626.5 858,-626.5"/>
<text text-anchor="start" x="866" y="-644.5" font-family="Helvetica,sans-Serif" font-size="10.00">src/service/tables</text>
<text text-anchor="middle" x="909" y="-633.5" font-family="Helvetica,sans-Serif" font-size="10.00">/signatures.h</text>
</a>
</g>
</g>
<!-- Node1&#45;&gt;Node28 -->
<g id="edge50" class="edge">
<title>Node1&#45;&gt;Node28</title>
<path fill="none" stroke="midnightblue" d="M949.85,-686.02C940.76,-676.34 930.28,-665.17 922.21,-656.58"/>
<polygon fill="midnightblue" stroke="midnightblue" points="947.37,-688.5 956.76,-693.4 952.47,-683.71 947.37,-688.5"/>
</g>
<!-- Node43 -->
<g id="node43" class="node">
<title>Node43</title>
<g id="a_node43"><a xlink:href="view__change_8h.html" target="_top" xlink:title=" ">
<polygon fill="white" stroke="black" points="1068,-626.5 1068,-656.5 1170,-656.5 1170,-626.5 1068,-626.5"/>
<text text-anchor="start" x="1076" y="-644.5" font-family="Helvetica,sans-Serif" font-size="10.00">src/service/tables</text>
<text text-anchor="middle" x="1119" y="-633.5" font-family="Helvetica,sans-Serif" font-size="10.00">/view_change.h</text>
</a>
</g>
</g>
<!-- Node1&#45;&gt;Node43 -->
<g id="edge81" class="edge">
<title>Node1&#45;&gt;Node43</title>
<path fill="none" stroke="midnightblue" d="M1011.79,-689.27C1035.52,-678.92 1064.78,-666.15 1086.73,-656.58"/>
<polygon fill="midnightblue" stroke="midnightblue" points="1010.1,-686.19 1002.33,-693.4 1012.9,-692.61 1010.1,-686.19"/>
</g>
<!-- Node3 -->
<g id="node3" class="node">
<title>Node3</title>
<g id="a_node3"><a xlink:href="enclave_2enclave_8h.html" target="_top" xlink:title=" ">
<polygon fill="white" stroke="black" points="931,-56.5 931,-75.5 1053,-75.5 1053,-56.5 931,-56.5"/>
<text text-anchor="middle" x="992" y="-63.5" font-family="Helvetica,sans-Serif" font-size="10.00">src/enclave/enclave.h</text>
</a>
</g>
</g>
<!-- Node2&#45;&gt;Node3 -->
<g id="edge2" class="edge">
<title>Node2&#45;&gt;Node3</title>
<path fill="none" stroke="midnightblue" d="M57.03,-292.27C60.87,-274.93 68.06,-251.78 81,-235 144.49,-152.66 180.53,-142.26 280,-112 400.87,-75.23 781.23,-68.49 930.76,-67.26"/>
<polygon fill="midnightblue" stroke="midnightblue" points="53.57,-291.72 55.04,-302.21 60.43,-293.09 53.57,-291.72"/>
</g>
<!-- Node5 -->
<g id="node5" class="node">
<title>Node5</title>
<g id="a_node5"><a xlink:href="historical__transaction__fetcher_8h.html" target="_top" xlink:title=" ">
<polygon fill="white" stroke="black" points="289.5,-112.5 289.5,-142.5 414.5,-142.5 414.5,-112.5 289.5,-112.5"/>
<text text-anchor="start" x="297.5" y="-130.5" font-family="Helvetica,sans-Serif" font-size="10.00">src/indexing/historical</text>
<text text-anchor="middle" x="352" y="-119.5" font-family="Helvetica,sans-Serif" font-size="10.00">_transaction_fetcher.h</text>
</a>
</g>
</g>
<!-- Node2&#45;&gt;Node5 -->
<g id="edge4" class="edge">
<title>Node2&#45;&gt;Node5</title>
<path fill="none" stroke="midnightblue" d="M65.36,-293.68C76.01,-275.77 92.84,-251.23 113,-235 170.15,-189 250.31,-158.65 301.71,-142.52"/>
<polygon fill="midnightblue" stroke="midnightblue" points="62.31,-291.95 60.36,-302.36 68.38,-295.44 62.31,-291.95"/>
</g>
<!-- Node4 -->
<g id="node4" class="node">
<title>Node4</title>
<g id="a_node4"><a xlink:href="enclave_2main_8cpp.html" target="_top" xlink:title=" ">
<polygon fill="white" stroke="black" points="932,-0.5 932,-19.5 1052,-19.5 1052,-0.5 932,-0.5"/>
<text text-anchor="middle" x="992" y="-7.5" font-family="Helvetica,sans-Serif" font-size="10.00">src/enclave/main.cpp</text>
</a>
</g>
</g>
<!-- Node3&#45;&gt;Node4 -->
<g id="edge3" class="edge">
<title>Node3&#45;&gt;Node4</title>
<path fill="none" stroke="midnightblue" d="M992,-45.8C992,-36.91 992,-26.78 992,-19.75"/>
<polygon fill="midnightblue" stroke="midnightblue" points="988.5,-46.08 992,-56.08 995.5,-46.08 988.5,-46.08"/>
</g>
<!-- Node5&#45;&gt;Node3 -->
<g id="edge5" class="edge">
<title>Node5&#45;&gt;Node3</title>
<path fill="none" stroke="midnightblue" d="M424.55,-119.76C551.56,-107.95 811.95,-83.74 930.63,-72.71"/>
<polygon fill="midnightblue" stroke="midnightblue" points="424.16,-116.28 414.53,-120.69 424.81,-123.25 424.16,-116.28"/>
</g>
<!-- Node7 -->
<g id="node7" class="node">
<title>Node7</title>
<g id="a_node7"><a xlink:href="network__tables_8h.html" target="_top" xlink:title=" ">
<polygon fill="white" stroke="black" points="1094,-436.5 1094,-466.5 1206,-466.5 1206,-436.5 1094,-436.5"/>
<text text-anchor="start" x="1102" y="-454.5" font-family="Helvetica,sans-Serif" font-size="10.00">src/service/network</text>
<text text-anchor="middle" x="1150" y="-443.5" font-family="Helvetica,sans-Serif" font-size="10.00">_tables.h</text>
</a>
</g>
</g>
<!-- Node6&#45;&gt;Node7 -->
<g id="edge7" class="edge">
<title>Node6&#45;&gt;Node7</title>
<path fill="none" stroke="midnightblue" d="M1618.24,-509.07C1510.38,-496.04 1305.25,-471.26 1206.24,-459.3"/>
<polygon fill="midnightblue" stroke="midnightblue" points="1618.02,-512.57 1628.37,-510.3 1618.86,-505.62 1618.02,-512.57"/>
</g>
<!-- Node8 -->
<g id="node8" class="node">
<title>Node8</title>
<g id="a_node8"><a xlink:href="kv__module__loader_8cpp.html" target="_top" xlink:title=" ">
<polygon fill="white" stroke="black" points="1405.5,-369.5 1405.5,-399.5 1548.5,-399.5 1548.5,-369.5 1405.5,-369.5"/>
<text text-anchor="start" x="1413.5" y="-387.5" font-family="Helvetica,sans-Serif" font-size="10.00">src/apps/js_v8/kv_module</text>
<text text-anchor="middle" x="1477" y="-376.5" font-family="Helvetica,sans-Serif" font-size="10.00">_loader.cpp</text>
</a>
</g>
</g>
<!-- Node7&#45;&gt;Node8 -->
<g id="edge8" class="edge">
<title>Node7&#45;&gt;Node8</title>
<path fill="none" stroke="midnightblue" d="M1216.25,-437.33C1271.49,-426.35 1350.01,-410.74 1406.43,-399.53"/>
<polygon fill="midnightblue" stroke="midnightblue" points="1215.34,-433.94 1206.21,-439.33 1216.7,-440.81 1215.34,-433.94"/>
</g>
<!-- Node9 -->
<g id="node9" class="node">
<title>Node9</title>
<g id="a_node9"><a xlink:href="network__state_8h.html" target="_top" xlink:title=" ">
<polygon fill="white" stroke="black" points="1247,-375 1247,-394 1387,-394 1387,-375 1247,-375"/>
<text text-anchor="middle" x="1317" y="-382" font-family="Helvetica,sans-Serif" font-size="10.00">src/node/network_state.h</text>
</a>
</g>
</g>
<!-- Node7&#45;&gt;Node9 -->
<g id="edge9" class="edge">
<title>Node7&#45;&gt;Node9</title>
<path fill="none" stroke="midnightblue" d="M1195.93,-432.62C1228.26,-420.04 1270.07,-403.77 1295.14,-394.01"/>
<polygon fill="midnightblue" stroke="midnightblue" points="1194.29,-429.51 1186.24,-436.4 1196.83,-436.03 1194.29,-429.51"/>
</g>
<!-- Node27 -->
<g id="node27" class="node">
<title>Node27</title>
<g id="a_node27"><a xlink:href="genesis__gen_8h.html" target="_top" xlink:title=" ">
<polygon fill="white" stroke="black" points="1095,-369.5 1095,-399.5 1205,-399.5 1205,-369.5 1095,-369.5"/>
<text text-anchor="start" x="1103" y="-387.5" font-family="Helvetica,sans-Serif" font-size="10.00">src/service/genesis</text>
<text text-anchor="middle" x="1150" y="-376.5" font-family="Helvetica,sans-Serif" font-size="10.00">_gen.h</text>
</a>
</g>
</g>
<!-- Node7&#45;&gt;Node27 -->
<g id="edge44" class="edge">
<title>Node7&#45;&gt;Node27</title>
<path fill="none" stroke="midnightblue" d="M1150,-426.11C1150,-417.15 1150,-407.32 1150,-399.58"/>
<polygon fill="midnightblue" stroke="midnightblue" points="1146.5,-426.4 1150,-436.4 1153.5,-426.4 1146.5,-426.4"/>
</g>
<!-- Node9&#45;&gt;Node3 -->
<g id="edge10" class="edge">
<title>Node9&#45;&gt;Node3</title>
<path fill="none" stroke="midnightblue" d="M1370.88,-373.09C1439.64,-359.68 1550.74,-337.55 1559,-333 1603.19,-308.67 1638,-301.95 1638,-251.5 1638,-251.5 1638,-251.5 1638,-188 1638,-128.84 1214.1,-86.13 1053.07,-72.04"/>
<polygon fill="midnightblue" stroke="midnightblue" points="1370.21,-369.65 1361.06,-375 1371.54,-376.52 1370.21,-369.65"/>
</g>
<!-- Node10 -->
<g id="node10" class="node">
<title>Node10</title>
<g id="a_node10"><a xlink:href="wrap_8h.html" target="_top" xlink:title=" ">
<polygon fill="white" stroke="black" points="1970,-308 1970,-327 2048,-327 2048,-308 1970,-308"/>
<text text-anchor="middle" x="2009" y="-315" font-family="Helvetica,sans-Serif" font-size="10.00">src/js/wrap.h</text>
</a>
</g>
</g>
<!-- Node9&#45;&gt;Node10 -->
<g id="edge11" class="edge">
<title>Node9&#45;&gt;Node10</title>
<path fill="none" stroke="midnightblue" d="M1369.06,-373.19C1378.02,-371.63 1387.26,-370.16 1396,-369 1611.68,-340.39 1872.35,-325.33 1969.77,-320.38"/>
<polygon fill="midnightblue" stroke="midnightblue" points="1368.33,-369.76 1359.11,-374.97 1369.57,-376.65 1368.33,-369.76"/>
</g>
<!-- Node18 -->
<g id="node18" class="node">
<title>Node18</title>
<g id="a_node18"><a xlink:href="node__state_8h.html" target="_top" xlink:title=" ">
<polygon fill="white" stroke="black" points="1021,-179.5 1021,-198.5 1145,-198.5 1145,-179.5 1021,-179.5"/>
<text text-anchor="middle" x="1083" y="-186.5" font-family="Helvetica,sans-Serif" font-size="10.00">src/node/node_state.h</text>
</a>
</g>
</g>
<!-- Node9&#45;&gt;Node18 -->
<g id="edge30" class="edge">
<title>Node9&#45;&gt;Node18</title>
<path fill="none" stroke="midnightblue" d="M1371.72,-372.99C1436.57,-360.27 1536.61,-339.73 1542,-333 1550.61,-322.24 1548.15,-314.33 1542,-302 1519.9,-257.7 1498.92,-253.51 1453,-235 1398.61,-213.08 1235.76,-199.64 1145.3,-193.66"/>
<polygon fill="midnightblue" stroke="midnightblue" points="1370.78,-369.61 1361.63,-374.96 1372.12,-376.48 1370.78,-369.61"/>
</g>
<!-- Node21 -->
<g id="node21" class="node">
<title>Node21</title>
<g id="a_node21"><a xlink:href="node__frontend_8h.html" target="_top" xlink:title=" ">
<polygon fill="white" stroke="black" points="888,-308 888,-327 1046,-327 1046,-308 888,-308"/>
<text text-anchor="middle" x="967" y="-315" font-family="Helvetica,sans-Serif" font-size="10.00">src/node/rpc/node_frontend.h</text>
</a>
</g>
</g>
<!-- Node9&#45;&gt;Node21 -->
<g id="edge31" class="edge">
<title>Node9&#45;&gt;Node21</title>
<path fill="none" stroke="midnightblue" d="M1260.66,-373.04C1191.82,-360.25 1076.67,-338.87 1012.94,-327.03"/>
<polygon fill="midnightblue" stroke="midnightblue" points="1260.41,-376.55 1270.88,-374.94 1261.69,-369.67 1260.41,-376.55"/>
</g>
<!-- Node23 -->
<g id="node23" class="node">
<title>Node23</title>
<g id="a_node23"><a xlink:href="user__frontend_8h.html" target="_top" xlink:title=" ">
<polygon fill="white" stroke="black" points="714.5,-308 714.5,-327 869.5,-327 869.5,-308 714.5,-308"/>
<text text-anchor="middle" x="792" y="-315" font-family="Helvetica,sans-Serif" font-size="10.00">src/node/rpc/user_frontend.h</text>
</a>
</g>
</g>
<!-- Node9&#45;&gt;Node23 -->
<g id="edge35" class="edge">
<title>Node9&#45;&gt;Node23</title>
<path fill="none" stroke="midnightblue" d="M1248.91,-373.59C1237.27,-371.99 1225.3,-370.4 1214,-369 1065.39,-350.56 1027.36,-353.32 879,-333 866.41,-331.28 852.84,-329.15 840.24,-327.05"/>
<polygon fill="midnightblue" stroke="midnightblue" points="1248.64,-377.09 1259.03,-375 1249.61,-370.16 1248.64,-377.09"/>
</g>
<!-- Node24 -->
<g id="node24" class="node">
<title>Node24</title>
<g id="a_node24"><a xlink:href="secret__broadcast_8h.html" target="_top" xlink:title=" ">
<polygon fill="white" stroke="black" points="1178.5,-308 1178.5,-327 1331.5,-327 1331.5,-308 1178.5,-308"/>
<text text-anchor="middle" x="1255" y="-315" font-family="Helvetica,sans-Serif" font-size="10.00">src/node/secret_broadcast.h</text>
</a>
</g>
</g>
<!-- Node9&#45;&gt;Node24 -->
<g id="edge37" class="edge">
<title>Node9&#45;&gt;Node24</title>
<path fill="none" stroke="midnightblue" d="M1301.74,-367.5C1289.58,-354.75 1273.02,-337.39 1263.23,-327.13"/>
<polygon fill="midnightblue" stroke="midnightblue" points="1299.2,-369.91 1308.64,-374.73 1304.27,-365.08 1299.2,-369.91"/>
</g>
<!-- Node25 -->
<g id="node25" class="node">
<title>Node25</title>
<g id="a_node25"><a xlink:href="share__manager_8h.html" target="_top" xlink:title=" ">
<polygon fill="white" stroke="black" points="1388.5,-308 1388.5,-327 1533.5,-327 1533.5,-308 1388.5,-308"/>
<text text-anchor="middle" x="1461" y="-315" font-family="Helvetica,sans-Serif" font-size="10.00">src/node/share_manager.h</text>
</a>
</g>
</g>
<!-- Node9&#45;&gt;Node25 -->
<g id="edge39" class="edge">
<title>Node9&#45;&gt;Node25</title>
<path fill="none" stroke="midnightblue" d="M1345.55,-370.61C1374.07,-357.74 1417.12,-338.31 1441.8,-327.17"/>
<polygon fill="midnightblue" stroke="midnightblue" points="1343.8,-367.56 1336.12,-374.87 1346.68,-373.94 1343.8,-367.56"/>
</g>
<!-- Node26 -->
<g id="node26" class="node">
<title>Node26</title>
<g id="a_node26"><a xlink:href="snapshotter_8h.html" target="_top" xlink:title=" ">
<polygon fill="white" stroke="black" points="1140.5,-241 1140.5,-260 1267.5,-260 1267.5,-241 1140.5,-241"/>
<text text-anchor="middle" x="1204" y="-248" font-family="Helvetica,sans-Serif" font-size="10.00">src/node/snapshotter.h</text>
</a>
</g>
</g>
<!-- Node9&#45;&gt;Node26 -->
<g id="edge42" class="edge">
<title>Node9&#45;&gt;Node26</title>
<path fill="none" stroke="midnightblue" d="M1329.7,-366.24C1340.91,-348.71 1353.53,-321.45 1340,-302 1328.32,-285.2 1276.67,-269.38 1240.5,-260.07"/>
<polygon fill="midnightblue" stroke="midnightblue" points="1326.56,-364.64 1323.8,-374.86 1332.33,-368.59 1326.56,-364.64"/>
</g>
<!-- Node10&#45;&gt;Node3 -->
<g id="edge13" class="edge">
<title>Node10&#45;&gt;Node3</title>
<path fill="none" stroke="midnightblue" d="M2058.31,-315.07C2176.43,-311.12 2467.96,-298.2 2497,-266 2506.23,-255.77 2505.94,-245.48 2497,-235 2401.55,-123.12 1323.26,-78.47 1053.09,-69"/>
<polygon fill="midnightblue" stroke="midnightblue" points="2057.98,-311.57 2048.1,-315.4 2058.21,-318.57 2057.98,-311.57"/>
</g>
<!-- Node11 -->
<g id="node11" class="node">
<title>Node11</title>
<g id="a_node11"><a xlink:href="js__generic__base_8cpp.html" target="_top" xlink:title=" ">
<polygon fill="white" stroke="black" points="1704,-235.5 1704,-265.5 1822,-265.5 1822,-235.5 1704,-235.5"/>
<text text-anchor="start" x="1712" y="-253.5" font-family="Helvetica,sans-Serif" font-size="10.00">src/apps/js_generic</text>
<text text-anchor="middle" x="1763" y="-242.5" font-family="Helvetica,sans-Serif" font-size="10.00">/js_generic_base.cpp</text>
</a>
</g>
</g>
<!-- Node10&#45;&gt;Node11 -->
<g id="edge12" class="edge">
<title>Node10&#45;&gt;Node11</title>
<path fill="none" stroke="midnightblue" d="M1966.76,-305.34C1925.1,-294.33 1861.3,-277.47 1816.21,-265.56"/>
<polygon fill="midnightblue" stroke="midnightblue" points="1966.02,-308.76 1976.59,-307.94 1967.81,-302 1966.02,-308.76"/>
</g>
<!-- Node12 -->
<g id="node12" class="node">
<title>Node12</title>
<g id="a_node12"><a xlink:href="js_2consensus_8cpp.html" target="_top" xlink:title=" ">
<polygon fill="white" stroke="black" points="2120,-241 2120,-260 2236,-260 2236,-241 2120,-241"/>
<text text-anchor="middle" x="2178" y="-248" font-family="Helvetica,sans-Serif" font-size="10.00">src/js/consensus.cpp</text>
</a>
</g>
</g>
<!-- Node10&#45;&gt;Node12 -->
<g id="edge14" class="edge">
<title>Node10&#45;&gt;Node12</title>
<path fill="none" stroke="midnightblue" d="M2040.8,-304.27C2074.34,-291.37 2126.32,-271.38 2155.73,-260.06"/>
<polygon fill="midnightblue" stroke="midnightblue" points="2039.52,-301.01 2031.44,-307.87 2042.03,-307.55 2039.52,-301.01"/>
</g>
<!-- Node13 -->
<g id="node13" class="node">
<title>Node13</title>
<g id="a_node13"><a xlink:href="wrap_8cpp.html" target="_top" xlink:title=" ">
<polygon fill="white" stroke="black" points="2047.5,-179.5 2047.5,-198.5 2136.5,-198.5 2136.5,-179.5 2047.5,-179.5"/>
<text text-anchor="middle" x="2092" y="-186.5" font-family="Helvetica,sans-Serif" font-size="10.00">src/js/wrap.cpp</text>
</a>
</g>
</g>
<!-- Node10&#45;&gt;Node13 -->
<g id="edge23" class="edge">
<title>Node10&#45;&gt;Node13</title>
<path fill="none" stroke="midnightblue" d="M2034.02,-302.4C2047.48,-293.59 2063.26,-281.07 2073,-266 2086.88,-244.53 2090.62,-213.61 2091.63,-198.69"/>
<polygon fill="midnightblue" stroke="midnightblue" points="2031.83,-299.64 2025.18,-307.89 2035.52,-305.59 2031.83,-299.64"/>
</g>
<!-- Node14 -->
<g id="node14" class="node">
<title>Node14</title>
<g id="a_node14"><a xlink:href="conv_8cpp.html" target="_top" xlink:title=" ">
<polygon fill="white" stroke="black" points="2400,-241 2400,-260 2488,-260 2488,-241 2400,-241"/>
<text text-anchor="middle" x="2444" y="-248" font-family="Helvetica,sans-Serif" font-size="10.00">src/js/conv.cpp</text>
</a>
</g>
</g>
<!-- Node10&#45;&gt;Node14 -->
<g id="edge16" class="edge">
<title>Node10&#45;&gt;Node14</title>
<path fill="none" stroke="midnightblue" d="M2058.34,-312.14C2131.47,-305.18 2272.72,-289.88 2391,-266 2399.04,-264.38 2407.66,-262.21 2415.56,-260.04"/>
<polygon fill="midnightblue" stroke="midnightblue" points="2057.69,-308.68 2048.06,-313.1 2058.34,-315.65 2057.69,-308.68"/>
</g>
<!-- Node15 -->
<g id="node15" class="node">
<title>Node15</title>
<g id="a_node15"><a xlink:href="js_2crypto_8cpp.html" target="_top" xlink:title=" ">
<polygon fill="white" stroke="black" points="1840,-241 1840,-260 1936,-260 1936,-241 1840,-241"/>
<text text-anchor="middle" x="1888" y="-248" font-family="Helvetica,sans-Serif" font-size="10.00">src/js/crypto.cpp</text>
</a>
</g>
</g>
<!-- Node10&#45;&gt;Node15 -->
<g id="edge18" class="edge">
<title>Node10&#45;&gt;Node15</title>
<path fill="none" stroke="midnightblue" d="M1983.79,-302.96C1959.8,-290.07 1924.44,-271.07 1904.06,-260.13"/>
<polygon fill="midnightblue" stroke="midnightblue" points="1982.22,-306.08 1992.68,-307.73 1985.53,-299.92 1982.22,-306.08"/>
</g>
<!-- Node16 -->
<g id="node16" class="node">
<title>Node16</title>
<g id="a_node16"><a xlink:href="js_2historical_8cpp.html" target="_top" xlink:title=" ">
<polygon fill="white" stroke="black" points="1954,-241 1954,-260 2064,-260 2064,-241 1954,-241"/>
<text text-anchor="middle" x="2009" y="-248" font-family="Helvetica,sans-Serif" font-size="10.00">src/js/historical.cpp</text>
</a>
</g>
</g>
<!-- Node10&#45;&gt;Node16 -->
<g id="edge20" class="edge">
<title>Node10&#45;&gt;Node16</title>
<path fill="none" stroke="midnightblue" d="M2009,-297.54C2009,-285.17 2009,-269.62 2009,-260.13"/>
<polygon fill="midnightblue" stroke="midnightblue" points="2005.5,-297.73 2009,-307.73 2012.5,-297.73 2005.5,-297.73"/>
</g>
<!-- Node17 -->
<g id="node17" class="node">
<title>Node17</title>
<g id="a_node17"><a xlink:href="openenclave_8cpp.html" target="_top" xlink:title=" ">
<polygon fill="white" stroke="black" points="2254,-241 2254,-260 2382,-260 2382,-241 2254,-241"/>
<text text-anchor="middle" x="2318" y="-248" font-family="Helvetica,sans-Serif" font-size="10.00">src/js/openenclave.cpp</text>
</a>
</g>
</g>
<!-- Node10&#45;&gt;Node17 -->
<g id="edge22" class="edge">
<title>Node10&#45;&gt;Node17</title>
<path fill="none" stroke="midnightblue" d="M2058.23,-306.14C2118.86,-293.39 2220.75,-271.96 2277.22,-260.08"/>
<polygon fill="midnightblue" stroke="midnightblue" points="2057.2,-302.78 2048.14,-308.27 2058.64,-309.63 2057.2,-302.78"/>
</g>
<!-- Node10&#45;&gt;Node18 -->
<g id="edge24" class="edge">
<title>Node10&#45;&gt;Node18</title>
<path fill="none" stroke="midnightblue" d="M1959.83,-311.76C1897.45,-305.04 1786.93,-290.7 1695,-266 1657.77,-256 1651.57,-243.6 1614,-235 1447.61,-196.91 1245.25,-190.35 1145.19,-189.66"/>
<polygon fill="midnightblue" stroke="midnightblue" points="1959.47,-315.25 1969.78,-312.82 1960.21,-308.28 1959.47,-315.25"/>
</g>
<!-- Node20 -->
<g id="node20" class="node">
<title>Node20</title>
<g id="a_node20"><a xlink:href="member__frontend_8h.html" target="_top" xlink:title=" ">
<polygon fill="white" stroke="black" points="1324,-235.5 1324,-265.5 1444,-265.5 1444,-235.5 1324,-235.5"/>
<text text-anchor="start" x="1332" y="-253.5" font-family="Helvetica,sans-Serif" font-size="10.00">src/node/rpc/member</text>
<text text-anchor="middle" x="1384" y="-242.5" font-family="Helvetica,sans-Serif" font-size="10.00">_frontend.h</text>
</a>
</g>
</g>
<!-- Node10&#45;&gt;Node20 -->
<g id="edge28" class="edge">
<title>Node10&#45;&gt;Node20</title>
<path fill="none" stroke="midnightblue" d="M1959.79,-311.38C1846.51,-299.6 1567.61,-270.6 1444.3,-257.77"/>
<polygon fill="midnightblue" stroke="midnightblue" points="1959.6,-314.88 1969.9,-312.43 1960.32,-307.92 1959.6,-314.88"/>
</g>
<!-- Node12&#45;&gt;Node13 -->
<g id="edge15" class="edge">
<title>Node12&#45;&gt;Node13</title>
<path fill="none" stroke="midnightblue" d="M2157.2,-235.11C2140.66,-223.67 2118.08,-208.05 2104.3,-198.51"/>
<polygon fill="midnightblue" stroke="midnightblue" points="2155.46,-238.16 2165.68,-240.98 2159.45,-232.41 2155.46,-238.16"/>
</g>
<!-- Node14&#45;&gt;Node13 -->
<g id="edge17" class="edge">
<title>Node14&#45;&gt;Node13</title>
<path fill="none" stroke="midnightblue" d="M2405.48,-238.39C2400.62,-237.16 2395.71,-236 2391,-235 2301.5,-216.09 2195.31,-202.08 2136.62,-195.05"/>
<polygon fill="midnightblue" stroke="midnightblue" points="2404.71,-241.81 2415.27,-240.98 2406.49,-235.04 2404.71,-241.81"/>
</g>
<!-- Node15&#45;&gt;Node13 -->
<g id="edge19" class="edge">
<title>Node15&#45;&gt;Node13</title>
<path fill="none" stroke="midnightblue" d="M1927.08,-238.1C1966.72,-226.54 2027.18,-208.91 2062.83,-198.51"/>
<polygon fill="midnightblue" stroke="midnightblue" points="1925.85,-234.82 1917.23,-240.98 1927.81,-241.54 1925.85,-234.82"/>
</g>
<!-- Node16&#45;&gt;Node13 -->
<g id="edge21" class="edge">
<title>Node16&#45;&gt;Node13</title>
<path fill="none" stroke="midnightblue" d="M2029.07,-235.11C2045.03,-223.67 2066.83,-208.05 2080.13,-198.51"/>
<polygon fill="midnightblue" stroke="midnightblue" points="2026.98,-232.3 2020.89,-240.98 2031.06,-237.99 2026.98,-232.3"/>
</g>
<!-- Node18&#45;&gt;Node3 -->
<g id="edge25" class="edge">
<title>Node18&#45;&gt;Node3</title>
<path fill="none" stroke="midnightblue" d="M1085.01,-169.09C1085.78,-152.62 1084.43,-128.81 1073,-112 1060.79,-94.04 1038.93,-82.51 1021,-75.62"/>
<polygon fill="midnightblue" stroke="midnightblue" points="1081.52,-168.9 1084.24,-179.14 1088.49,-169.44 1081.52,-168.9"/>
</g>
<!-- Node19 -->
<g id="node19" class="node">
<title>Node19</title>
<g id="a_node19"><a xlink:href="gov__effects_8h.html" target="_top" xlink:title=" ">
<polygon fill="white" stroke="black" points="920,-118 920,-137 1064,-137 1064,-118 920,-118"/>
<text text-anchor="middle" x="992" y="-125" font-family="Helvetica,sans-Serif" font-size="10.00">src/node/rpc/gov_effects.h</text>
</a>
</g>
</g>
<!-- Node18&#45;&gt;Node19 -->
<g id="edge26" class="edge">
<title>Node18&#45;&gt;Node19</title>
<path fill="none" stroke="midnightblue" d="M1061.48,-173.93C1043.94,-162.46 1019.73,-146.63 1005.01,-137.01"/>
<polygon fill="midnightblue" stroke="midnightblue" points="1059.68,-176.93 1069.96,-179.48 1063.51,-171.07 1059.68,-176.93"/>
</g>
<!-- Node19&#45;&gt;Node3 -->
<g id="edge27" class="edge">
<title>Node19&#45;&gt;Node3</title>
<path fill="none" stroke="midnightblue" d="M992,-107.82C992,-97 992,-83.9 992,-75.51"/>
<polygon fill="midnightblue" stroke="midnightblue" points="988.5,-107.98 992,-117.98 995.5,-107.98 988.5,-107.98"/>
</g>
<!-- Node20&#45;&gt;Node3 -->
<g id="edge29" class="edge">
<title>Node20&#45;&gt;Node3</title>
<path fill="none" stroke="midnightblue" d="M1345.66,-231.05C1290.12,-204.4 1183.97,-153.75 1093,-112 1064.91,-99.11 1032.2,-84.63 1011.8,-75.67"/>
<polygon fill="midnightblue" stroke="midnightblue" points="1344.24,-234.25 1354.77,-235.43 1347.27,-227.94 1344.24,-234.25"/>
</g>
<!-- Node21&#45;&gt;Node3 -->
<g id="edge32" class="edge">
<title>Node21&#45;&gt;Node3</title>
<path fill="none" stroke="midnightblue" d="M943.39,-302.22C931.27,-293.45 917.68,-281.02 911,-266 883.18,-203.46 876.29,-170.99 911,-112 921.77,-93.7 942.97,-82.31 960.98,-75.56"/>
<polygon fill="midnightblue" stroke="midnightblue" points="941.6,-305.23 951.84,-307.95 945.53,-299.44 941.6,-305.23"/>
</g>
<!-- Node22 -->
<g id="node22" class="node">
<title>Node22</title>
<g id="a_node22"><a xlink:href="jwt__key__auto__refresh_8h.html" target="_top" xlink:title=" ">
<polygon fill="white" stroke="black" points="920.5,-235.5 920.5,-265.5 1045.5,-265.5 1045.5,-235.5 920.5,-235.5"/>
<text text-anchor="start" x="928.5" y="-253.5" font-family="Helvetica,sans-Serif" font-size="10.00">src/node/jwt_key_auto</text>
<text text-anchor="middle" x="983" y="-242.5" font-family="Helvetica,sans-Serif" font-size="10.00">_refresh.h</text>
</a>
</g>
</g>
<!-- Node21&#45;&gt;Node22 -->
<g id="edge33" class="edge">
<title>Node21&#45;&gt;Node22</title>
<path fill="none" stroke="midnightblue" d="M971.62,-297.74C974.14,-287.49 977.22,-275 979.53,-265.59"/>
<polygon fill="midnightblue" stroke="midnightblue" points="968.15,-297.19 969.16,-307.73 974.95,-298.86 968.15,-297.19"/>
</g>
<!-- Node22&#45;&gt;Node18 -->
<g id="edge34" class="edge">
<title>Node22&#45;&gt;Node18</title>
<path fill="none" stroke="midnightblue" d="M1015.66,-230.07C1033.48,-219.46 1054.67,-206.86 1068.45,-198.66"/>
<polygon fill="midnightblue" stroke="midnightblue" points="1013.5,-227.28 1006.7,-235.4 1017.08,-233.29 1013.5,-227.28"/>
</g>
<!-- Node23&#45;&gt;Node3 -->
<g id="edge36" class="edge">
<title>Node23&#45;&gt;Node3</title>
<path fill="none" stroke="midnightblue" d="M796.43,-298.11C806.73,-258.93 835.81,-166.42 892,-112 910.6,-93.99 937.66,-82.41 958.94,-75.52"/>
<polygon fill="midnightblue" stroke="midnightblue" points="793.02,-297.31 793.97,-307.86 799.81,-299.02 793.02,-297.31"/>
</g>
<!-- Node24&#45;&gt;Node18 -->
<g id="edge38" class="edge">
<title>Node24&#45;&gt;Node18</title>
<path fill="none" stroke="midnightblue" d="M1208.54,-305.08C1183.54,-297.2 1153.34,-284.71 1131,-266 1108.27,-246.96 1092.84,-214.32 1086.39,-198.75"/>
<polygon fill="midnightblue" stroke="midnightblue" points="1207.6,-308.46 1218.19,-307.98 1209.62,-301.75 1207.6,-308.46"/>
</g>
<!-- Node25&#45;&gt;Node18 -->
<g id="edge40" class="edge">
<title>Node25&#45;&gt;Node18</title>
<path fill="none" stroke="midnightblue" d="M1416.28,-305.3C1386.5,-296.82 1347.1,-283.63 1315,-266 1295.59,-255.34 1295.93,-244.64 1276,-235 1234.8,-215.08 1184.32,-203.71 1145.32,-197.39"/>
<polygon fill="midnightblue" stroke="midnightblue" points="1415.41,-308.69 1425.98,-307.99 1417.28,-301.94 1415.41,-308.69"/>
</g>
<!-- Node25&#45;&gt;Node20 -->
<g id="edge41" class="edge">
<title>Node25&#45;&gt;Node20</title>
<path fill="none" stroke="midnightblue" d="M1442.92,-301.24C1430.14,-290.45 1413.14,-276.1 1400.69,-265.59"/>
<polygon fill="midnightblue" stroke="midnightblue" points="1440.72,-303.96 1450.62,-307.73 1445.23,-298.61 1440.72,-303.96"/>
</g>
<!-- Node26&#45;&gt;Node18 -->
<g id="edge43" class="edge">
<title>Node26&#45;&gt;Node18</title>
<path fill="none" stroke="midnightblue" d="M1177.61,-236.52C1154.14,-224.98 1120.51,-208.44 1100.3,-198.51"/>
<polygon fill="midnightblue" stroke="midnightblue" points="1176.15,-239.7 1186.66,-240.98 1179.23,-233.42 1176.15,-239.7"/>
</g>
<!-- Node27&#45;&gt;Node18 -->
<g id="edge45" class="edge">
<title>Node27&#45;&gt;Node18</title>
<path fill="none" stroke="midnightblue" d="M1139.29,-360.13C1128.83,-336.68 1112.92,-299.35 1102,-266 1094.13,-241.96 1087.67,-212.73 1084.72,-198.55"/>
<polygon fill="midnightblue" stroke="midnightblue" points="1136.12,-361.6 1143.41,-369.28 1142.5,-358.72 1136.12,-361.6"/>
</g>
<!-- Node27&#45;&gt;Node20 -->
<g id="edge46" class="edge">
<title>Node27&#45;&gt;Node20</title>
<path fill="none" stroke="midnightblue" d="M1149.23,-359.14C1150.01,-341 1154.14,-316.89 1169,-302 1190.5,-280.46 1268.01,-266.22 1323.8,-258.5"/>
<polygon fill="midnightblue" stroke="midnightblue" points="1145.73,-359.24 1149.1,-369.28 1152.73,-359.32 1145.73,-359.24"/>
</g>
<!-- Node27&#45;&gt;Node21 -->
<g id="edge47" class="edge">
<title>Node27&#45;&gt;Node21</title>
<path fill="none" stroke="midnightblue" d="M1100.58,-365.95C1065.04,-353.32 1018.66,-336.85 990.95,-327.01"/>
<polygon fill="midnightblue" stroke="midnightblue" points="1099.7,-369.35 1110.29,-369.4 1102.04,-362.75 1099.7,-369.35"/>
</g>
<!-- Node27&#45;&gt;Node24 -->
<g id="edge48" class="edge">
<title>Node27&#45;&gt;Node24</title>
<path fill="none" stroke="midnightblue" d="M1181.54,-363.97C1201.45,-351.65 1226.17,-336.35 1241.26,-327.01"/>
<polygon fill="midnightblue" stroke="midnightblue" points="1179.44,-361.16 1172.78,-369.4 1183.13,-367.11 1179.44,-361.16"/>
</g>
<!-- Node27&#45;&gt;Node25 -->
<g id="edge49" class="edge">
<title>Node27&#45;&gt;Node25</title>
<path fill="none" stroke="midnightblue" d="M1215.28,-369.86C1277.1,-356.94 1367.99,-337.94 1420.15,-327.04"/>
<polygon fill="midnightblue" stroke="midnightblue" points="1214.31,-366.48 1205.24,-371.95 1215.75,-373.33 1214.31,-366.48"/>
</g>
<!-- Node28&#45;&gt;Node7 -->
<g id="edge80" class="edge">
<title>Node28&#45;&gt;Node7</title>
<path fill="none" stroke="midnightblue" d="M935.07,-620.16C984.3,-581.76 1089.8,-499.46 1132,-466.54"/>
<polygon fill="midnightblue" stroke="midnightblue" points="932.85,-617.46 927.11,-626.37 937.15,-622.98 932.85,-617.46"/>
</g>
<!-- Node29 -->
<g id="node29" class="node">
<title>Node29</title>
<g id="a_node29"><a xlink:href="raft_8h.html" target="_top" xlink:title=" ">
<polygon fill="white" stroke="black" points="574.5,-509 574.5,-528 703.5,-528 703.5,-509 574.5,-509"/>
<text text-anchor="middle" x="639" y="-516" font-family="Helvetica,sans-Serif" font-size="10.00">src/consensus/aft/raft.h</text>
</a>
</g>
</g>
<!-- Node28&#45;&gt;Node29 -->
<g id="edge51" class="edge">
<title>Node28&#45;&gt;Node29</title>
<path fill="none" stroke="midnightblue" d="M848.02,-624.02C819.22,-615.36 784.72,-603.68 755,-590 714.97,-571.57 671.53,-542.45 651.01,-528.09"/>
<polygon fill="midnightblue" stroke="midnightblue" points="847.37,-627.48 857.95,-626.96 849.35,-620.77 847.37,-627.48"/>
</g>
<!-- Node30 -->
<g id="node30" class="node">
<title>Node30</title>
<g id="a_node30"><a xlink:href="deserialise_8h.html" target="_top" xlink:title=" ">
<polygon fill="white" stroke="black" points="764.5,-570.5 764.5,-589.5 875.5,-589.5 875.5,-570.5 764.5,-570.5"/>
<text text-anchor="middle" x="820" y="-577.5" font-family="Helvetica,sans-Serif" font-size="10.00">src/kv/deserialise.h</text>
</a>
</g>
</g>
<!-- Node28&#45;&gt;Node30 -->
<g id="edge53" class="edge">
<title>Node28&#45;&gt;Node30</title>
<path fill="none" stroke="midnightblue" d="M879.5,-620.78C863.72,-610.23 845.1,-597.78 832.95,-589.66"/>
<polygon fill="midnightblue" stroke="midnightblue" points="877.65,-623.75 887.91,-626.4 881.54,-617.93 877.65,-623.75"/>
</g>
<!-- Node34 -->
<g id="node34" class="node">
<title>Node34</title>
<g id="a_node34"><a xlink:href="history_8h.html" target="_top" xlink:title=" ">
<polygon fill="white" stroke="black" points="387,-442 387,-461 489,-461 489,-442 387,-442"/>
<text text-anchor="middle" x="438" y="-449" font-family="Helvetica,sans-Serif" font-size="10.00">src/node/history.h</text>
</a>
</g>
</g>
<!-- Node28&#45;&gt;Node34 -->
<g id="edge77" class="edge">
<title>Node28&#45;&gt;Node34</title>
<path fill="none" stroke="midnightblue" d="M847.68,-627.92C777.04,-612 658.66,-580.86 565,-534 520.02,-511.49 471.07,-476.9 449.41,-461.01"/>
<polygon fill="midnightblue" stroke="midnightblue" points="847.23,-631.4 857.75,-630.16 848.75,-624.57 847.23,-631.4"/>
</g>
<!-- Node42 -->
<g id="node42" class="node">
<title>Node42</title>
<g id="a_node42"><a xlink:href="src_2node_2hooks_8h.html" target="_top" xlink:title=" ">
<polygon fill="white" stroke="black" points="1364.5,-570.5 1364.5,-589.5 1463.5,-589.5 1463.5,-570.5 1364.5,-570.5"/>
<text text-anchor="middle" x="1414" y="-577.5" font-family="Helvetica,sans-Serif" font-size="10.00">src/node/hooks.h</text>
</a>
</g>
</g>
<!-- Node28&#45;&gt;Node42 -->
<g id="edge78" class="edge">
<title>Node28&#45;&gt;Node42</title>
<path fill="none" stroke="midnightblue" d="M970.26,-633.28C1071.34,-621.37 1271.13,-597.83 1364.16,-586.87"/>
<polygon fill="midnightblue" stroke="midnightblue" points="969.72,-629.82 960.2,-634.47 970.54,-636.77 969.72,-629.82"/>
</g>
<!-- Node29&#45;&gt;Node18 -->
<g id="edge52" class="edge">
<title>Node29&#45;&gt;Node18</title>
<path fill="none" stroke="midnightblue" d="M632.4,-499.34C623.84,-474.14 610,-426.99 610,-385.5 610,-385.5 610,-385.5 610,-316.5 610,-258.82 657.87,-257.44 711,-235 765.38,-212.03 929.64,-199.01 1020.64,-193.38"/>
<polygon fill="midnightblue" stroke="midnightblue" points="629.17,-500.72 635.79,-508.99 635.77,-498.4 629.17,-500.72"/>
</g>
<!-- Node31 -->
<g id="node31" class="node">
<title>Node31</title>
<g id="a_node31"><a xlink:href="store_8h.html" target="_top" xlink:title=" ">
<polygon fill="white" stroke="black" points="749.5,-509 749.5,-528 832.5,-528 832.5,-509 749.5,-509"/>
<text text-anchor="middle" x="791" y="-516" font-family="Helvetica,sans-Serif" font-size="10.00">src/kv/store.h</text>
</a>
</g>
</g>
<!-- Node30&#45;&gt;Node31 -->
<g id="edge54" class="edge">
<title>Node30&#45;&gt;Node31</title>
<path fill="none" stroke="midnightblue" d="M811.39,-561.33C806.03,-550.33 799.37,-536.66 795.15,-528.01"/>
<polygon fill="midnightblue" stroke="midnightblue" points="808.32,-563.02 815.85,-570.48 814.61,-559.95 808.32,-563.02"/>
</g>
<!-- Node31&#45;&gt;Node2 -->
<g id="edge58" class="edge">
<title>Node31&#45;&gt;Node2</title>
<path fill="none" stroke="midnightblue" d="M739.22,-507.43C730.17,-505.83 720.82,-504.28 712,-503 467.62,-467.45 386.67,-510.84 166,-400 128.61,-381.22 90.15,-350.6 69.14,-332.72"/>
<polygon fill="midnightblue" stroke="midnightblue" points="738.81,-510.91 749.28,-509.24 740.06,-504.02 738.81,-510.91"/>
</g>
<!-- Node31&#45;&gt;Node7 -->
<g id="edge76" class="edge">
<title>Node31&#45;&gt;Node7</title>
<path fill="none" stroke="midnightblue" d="M842.4,-508.19C909.06,-496.12 1024.95,-475.14 1093.86,-462.67"/>
<polygon fill="midnightblue" stroke="midnightblue" points="841.75,-504.75 832.53,-509.98 843,-511.64 841.75,-504.75"/>
</g>
<!-- Node32 -->
<g id="node32" class="node">
<title>Node32</title>
<g id="a_node32"><a xlink:href="indexer_8h.html" target="_top" xlink:title=" ">
<polygon fill="white" stroke="black" points="639.5,-442 639.5,-461 762.5,-461 762.5,-442 639.5,-442"/>
<text text-anchor="middle" x="701" y="-449" font-family="Helvetica,sans-Serif" font-size="10.00">src/indexing/indexer.h</text>
</a>
</g>
</g>
<!-- Node31&#45;&gt;Node32 -->
<g id="edge55" class="edge">
<title>Node31&#45;&gt;Node32</title>
<path fill="none" stroke="midnightblue" d="M770.32,-502.57C752.56,-489.74 727.56,-471.69 712.95,-461.13"/>
<polygon fill="midnightblue" stroke="midnightblue" points="768.71,-505.72 778.86,-508.73 772.8,-500.04 768.71,-505.72"/>
</g>
<!-- Node33 -->
<g id="node33" class="node">
<title>Node33</title>
<g id="a_node33"><a xlink:href="visit__each__entry__in__map_8cpp.html" target="_top" xlink:title=" ">
<polygon fill="white" stroke="black" points="819.5,-436.5 819.5,-466.5 980.5,-466.5 980.5,-436.5 819.5,-436.5"/>
<text text-anchor="start" x="827.5" y="-454.5" font-family="Helvetica,sans-Serif" font-size="10.00">src/indexing/strategies</text>
<text text-anchor="middle" x="900" y="-443.5" font-family="Helvetica,sans-Serif" font-size="10.00">/visit_each_entry_in_map.cpp</text>
</a>
</g>
</g>
<!-- Node31&#45;&gt;Node33 -->
<g id="edge57" class="edge">
<title>Node31&#45;&gt;Node33</title>
<path fill="none" stroke="midnightblue" d="M814.3,-503.6C832.61,-492.69 857.99,-477.55 876.37,-466.59"/>
<polygon fill="midnightblue" stroke="midnightblue" points="812.5,-500.61 805.7,-508.73 816.08,-506.62 812.5,-500.61"/>
</g>
<!-- Node31&#45;&gt;Node34 -->
<g id="edge59" class="edge">
<title>Node31&#45;&gt;Node34</title>
<path fill="none" stroke="midnightblue" d="M739.31,-507.98C670.63,-495.34 550.31,-473.18 484.4,-461.04"/>
<polygon fill="midnightblue" stroke="midnightblue" points="739,-511.48 749.47,-509.85 740.27,-504.6 739,-511.48"/>
</g>
<!-- Node41 -->
<g id="node41" class="node">
<title>Node41</title>
<g id="a_node41"><a xlink:href="frontend_8h.html" target="_top" xlink:title=" ">
<polygon fill="white" stroke="black" points="727.5,-375 727.5,-394 856.5,-394 856.5,-375 727.5,-375"/>
<text text-anchor="middle" x="792" y="-382" font-family="Helvetica,sans-Serif" font-size="10.00">src/node/rpc/frontend.h</text>
</a>
</g>
</g>
<!-- Node31&#45;&gt;Node41 -->
<g id="edge71" class="edge">
<title>Node31&#45;&gt;Node41</title>
<path fill="none" stroke="midnightblue" d="M791.14,-498.78C791.36,-469.75 791.78,-415.04 791.94,-394.02"/>
<polygon fill="midnightblue" stroke="midnightblue" points="787.64,-498.81 791.07,-508.84 794.64,-498.87 787.64,-498.81"/>
</g>
<!-- Node32&#45;&gt;Node18 -->
<g id="edge56" class="edge">
<title>Node32&#45;&gt;Node18</title>
<path fill="none" stroke="midnightblue" d="M695.92,-431.81C689.02,-402.91 679.35,-346.1 696,-302 710.01,-264.88 720.04,-253.76 755,-235 799.69,-211.01 938.67,-198.71 1020.68,-193.38"/>
<polygon fill="midnightblue" stroke="midnightblue" points="692.59,-432.93 698.45,-441.75 699.37,-431.2 692.59,-432.93"/>
</g>
<!-- Node34&#45;&gt;Node2 -->
<g id="edge60" class="edge">
<title>Node34&#45;&gt;Node2</title>
<path fill="none" stroke="midnightblue" d="M388.82,-439.72C349.46,-430.59 293.1,-416.4 245,-400 213.98,-389.42 130.85,-353.06 84.8,-332.66"/>
<polygon fill="midnightblue" stroke="midnightblue" points="388.16,-443.16 398.69,-441.98 389.73,-436.34 388.16,-443.16"/>
</g>
<!-- Node34&#45;&gt;Node18 -->
<g id="edge61" class="edge">
<title>Node34&#45;&gt;Node18</title>
<path fill="none" stroke="midnightblue" d="M428.96,-432.64C415.24,-402.76 393.5,-341.97 421,-302 488.43,-203.99 869.22,-191.07 1020.77,-189.86"/>
<polygon fill="midnightblue" stroke="midnightblue" points="425.89,-434.35 433.38,-441.84 432.2,-431.31 425.89,-434.35"/>
</g>
<!-- Node35 -->
<g id="node35" class="node">
<title>Node35</title>
<g id="a_node35"><a xlink:href="snapshot__serdes_8h.html" target="_top" xlink:title=" ">
<polygon fill="white" stroke="black" points="430,-308 430,-327 582,-327 582,-308 430,-308"/>
<text text-anchor="middle" x="506" y="-315" font-family="Helvetica,sans-Serif" font-size="10.00">src/node/snapshot_serdes.h</text>
</a>
</g>
</g>
<!-- Node34&#45;&gt;Node35 -->
<g id="edge62" class="edge">
<title>Node34&#45;&gt;Node35</title>
<path fill="none" stroke="midnightblue" d="M447.06,-432.92C461.85,-404.2 490.64,-348.32 501.61,-327.02"/>
<polygon fill="midnightblue" stroke="midnightblue" points="443.93,-431.35 442.46,-441.84 450.15,-434.55 443.93,-431.35"/>
</g>
<!-- Node36 -->
<g id="node36" class="node">
<title>Node36</title>
<g id="a_node36"><a xlink:href="tx__receipt_8h.html" target="_top" xlink:title=" ">
<polygon fill="white" stroke="black" points="254.5,-375 254.5,-394 373.5,-394 373.5,-375 254.5,-375"/>
<text text-anchor="middle" x="314" y="-382" font-family="Helvetica,sans-Serif" font-size="10.00">src/node/tx_receipt.h</text>
</a>
</g>
</g>
<!-- Node34&#45;&gt;Node36 -->
<g id="edge64" class="edge">
<title>Node34&#45;&gt;Node36</title>
<path fill="none" stroke="midnightblue" d="M412.44,-437.1C387.89,-424.23 351.51,-405.16 330.53,-394.17"/>
<polygon fill="midnightblue" stroke="midnightblue" points="411.05,-440.33 421.53,-441.87 414.3,-434.13 411.05,-440.33"/>
</g>
<!-- Node35&#45;&gt;Node26 -->
<g id="edge63" class="edge">
<title>Node35&#45;&gt;Node26</title>
<path fill="none" stroke="midnightblue" d="M592.44,-308.65C700.44,-298.82 890.9,-281.4 1054,-266 1082.26,-263.33 1113.51,-260.32 1140.14,-257.74"/>
<polygon fill="midnightblue" stroke="midnightblue" points="591.89,-305.19 582.25,-309.58 592.53,-312.16 591.89,-305.19"/>
</g>
<!-- Node36&#45;&gt;Node2 -->
<g id="edge68" class="edge">
<title>Node36&#45;&gt;Node2</title>
<path fill="none" stroke="midnightblue" d="M269.8,-372.49C224.55,-361.22 154.22,-343.71 106.01,-331.7"/>
<polygon fill="midnightblue" stroke="midnightblue" points="269.06,-375.92 279.61,-374.94 270.75,-369.12 269.06,-375.92"/>
</g>
<!-- Node36&#45;&gt;Node35 -->
<g id="edge70" class="edge">
<title>Node36&#45;&gt;Node35</title>
<path fill="none" stroke="midnightblue" d="M349.15,-371.6C387.21,-358.71 447,-338.47 480.7,-327.06"/>
<polygon fill="midnightblue" stroke="midnightblue" points="347.85,-368.35 339.5,-374.87 350.09,-374.98 347.85,-368.35"/>
</g>
<!-- Node37 -->
<g id="node37" class="node">
<title>Node37</title>
<g id="a_node37"><a xlink:href="src_2apps_2js__v8_2tmpl_2receipt_8h.html" target="_top" xlink:title=" ">
<polygon fill="white" stroke="black" points="124.5,-302.5 124.5,-332.5 235.5,-332.5 235.5,-302.5 124.5,-302.5"/>
<text text-anchor="start" x="132.5" y="-320.5" font-family="Helvetica,sans-Serif" font-size="10.00">src/apps/js_v8/tmpl</text>
<text text-anchor="middle" x="180" y="-309.5" font-family="Helvetica,sans-Serif" font-size="10.00">/receipt.h</text>
</a>
</g>
</g>
<!-- Node36&#45;&gt;Node37 -->
<g id="edge65" class="edge">
<title>Node36&#45;&gt;Node37</title>
<path fill="none" stroke="midnightblue" d="M287.15,-370.47C264.49,-359.49 232.14,-343.79 208.92,-332.53"/>
<polygon fill="midnightblue" stroke="midnightblue" points="285.68,-373.65 296.21,-374.87 288.74,-367.35 285.68,-373.65"/>
</g>
<!-- Node40 -->
<g id="node40" class="node">
<title>Node40</title>
<g id="a_node40"><a xlink:href="historical__queries__adapter_8cpp.html" target="_top" xlink:title=" ">
<polygon fill="white" stroke="black" points="254,-302.5 254,-332.5 374,-332.5 374,-302.5 254,-302.5"/>
<text text-anchor="start" x="262" y="-320.5" font-family="Helvetica,sans-Serif" font-size="10.00">src/node/historical</text>
<text text-anchor="middle" x="314" y="-309.5" font-family="Helvetica,sans-Serif" font-size="10.00">_queries_adapter.cpp</text>
</a>
</g>
</g>
<!-- Node36&#45;&gt;Node40 -->
<g id="edge69" class="edge">
<title>Node36&#45;&gt;Node40</title>
<path fill="none" stroke="midnightblue" d="M314,-364.41C314,-354.22 314,-341.9 314,-332.59"/>
<polygon fill="midnightblue" stroke="midnightblue" points="310.5,-364.73 314,-374.73 317.5,-364.73 310.5,-364.73"/>
</g>
<!-- Node38 -->
<g id="node38" class="node">
<title>Node38</title>
<g id="a_node38"><a xlink:href="historical__state_8cpp.html" target="_top" xlink:title=" ">
<polygon fill="white" stroke="black" points="251.5,-235.5 251.5,-265.5 366.5,-265.5 366.5,-235.5 251.5,-235.5"/>
<text text-anchor="start" x="259.5" y="-253.5" font-family="Helvetica,sans-Serif" font-size="10.00">src/apps/js_v8/tmpl</text>
<text text-anchor="middle" x="309" y="-242.5" font-family="Helvetica,sans-Serif" font-size="10.00">/historical_state.cpp</text>
</a>
</g>
</g>
<!-- Node37&#45;&gt;Node38 -->
<g id="edge66" class="edge">
<title>Node37&#45;&gt;Node38</title>
<path fill="none" stroke="midnightblue" d="M217.01,-297.85C237.4,-287.58 262.31,-275.03 281.06,-265.58"/>
<polygon fill="midnightblue" stroke="midnightblue" points="215.35,-294.77 207.99,-302.4 218.5,-301.02 215.35,-294.77"/>
</g>
<!-- Node39 -->
<g id="node39" class="node">
<title>Node39</title>
<g id="a_node39"><a xlink:href="receipt_8cpp.html" target="_top" xlink:title=" ">
<polygon fill="white" stroke="black" points="122.5,-235.5 122.5,-265.5 233.5,-265.5 233.5,-235.5 122.5,-235.5"/>
<text text-anchor="start" x="130.5" y="-253.5" font-family="Helvetica,sans-Serif" font-size="10.00">src/apps/js_v8/tmpl</text>
<text text-anchor="middle" x="178" y="-242.5" font-family="Helvetica,sans-Serif" font-size="10.00">/receipt.cpp</text>
</a>
</g>
</g>
<!-- Node37&#45;&gt;Node39 -->
<g id="edge67" class="edge">
<title>Node37&#45;&gt;Node39</title>
<path fill="none" stroke="midnightblue" d="M179.25,-292.11C178.97,-283.15 178.67,-273.32 178.43,-265.58"/>
<polygon fill="midnightblue" stroke="midnightblue" points="175.76,-292.51 179.57,-302.4 182.76,-292.29 175.76,-292.51"/>
</g>
<!-- Node41&#45;&gt;Node18 -->
<g id="edge72" class="edge">
<title>Node41&#45;&gt;Node18</title>
<path fill="none" stroke="midnightblue" d="M752.43,-370.89C734.61,-363.01 715.29,-350.88 705,-333 698.13,-321.06 696.9,-313.15 705,-302 742.76,-250.01 928.45,-214.04 1024.78,-198.55"/>
<polygon fill="midnightblue" stroke="midnightblue" points="751.53,-374.3 762.11,-374.84 754.18,-367.82 751.53,-374.3"/>
</g>
<!-- Node41&#45;&gt;Node20 -->
<g id="edge73" class="edge">
<title>Node41&#45;&gt;Node20</title>
<path fill="none" stroke="midnightblue" d="M857.14,-373.34C910.67,-364.42 988.28,-350.22 1055,-333 1098,-321.9 1107.13,-313.59 1150,-302 1208.58,-286.17 1276.45,-271.97 1323.96,-262.69"/>
<polygon fill="midnightblue" stroke="midnightblue" points="856.4,-369.91 847.1,-374.99 857.54,-376.82 856.4,-369.91"/>
</g>
<!-- Node41&#45;&gt;Node21 -->
<g id="edge74" class="edge">
<title>Node41&#45;&gt;Node21</title>
<path fill="none" stroke="midnightblue" d="M824.93,-371.27C859.66,-358.37 913.49,-338.38 943.94,-327.06"/>
<polygon fill="midnightblue" stroke="midnightblue" points="823.39,-368.11 815.24,-374.87 825.83,-374.67 823.39,-368.11"/>
</g>
<!-- Node41&#45;&gt;Node23 -->
<g id="edge75" class="edge">
<title>Node41&#45;&gt;Node23</title>
<path fill="none" stroke="midnightblue" d="M792,-364.54C792,-352.17 792,-336.62 792,-327.13"/>
<polygon fill="midnightblue" stroke="midnightblue" points="788.5,-364.73 792,-374.73 795.5,-364.73 788.5,-364.73"/>
</g>
<!-- Node42&#45;&gt;Node18 -->
<g id="edge79" class="edge">
<title>Node42&#45;&gt;Node18</title>
<path fill="none" stroke="midnightblue" d="M1464.78,-567.7C1519.86,-552.1 1600,-518.12 1600,-452.5 1600,-452.5 1600,-452.5 1600,-316.5 1600,-258.82 1552.28,-257.11 1499,-235 1436.6,-209.11 1245.27,-197.08 1145.3,-192.45"/>
<polygon fill="midnightblue" stroke="midnightblue" points="1463.55,-564.41 1454.82,-570.4 1465.39,-571.17 1463.55,-564.41"/>
</g>
<!-- Node43&#45;&gt;Node7 -->
<g id="edge82" class="edge">
<title>Node43&#45;&gt;Node7</title>
<path fill="none" stroke="midnightblue" d="M1122.96,-616.47C1129.52,-576.7 1142.42,-498.44 1147.69,-466.54"/>
<polygon fill="midnightblue" stroke="midnightblue" points="1119.5,-615.93 1121.33,-626.37 1126.41,-617.07 1119.5,-615.93"/>
</g>
</g>
</svg>
