<?xml version="1.0" encoding="UTF-8" standalone="no"?>
<!DOCTYPE svg PUBLIC "-//W3C//DTD SVG 1.1//EN"
 "http://www.w3.org/Graphics/SVG/1.1/DTD/svg11.dtd">
<!-- Generated by graphviz version 2.43.0 (0)
 -->
<!-- Title: src/ds/non_blocking.h Pages: 1 -->
<svg width="983pt" height="308pt"
 viewBox="0.00 0.00 982.50 308.00" xmlns="http://www.w3.org/2000/svg" xmlns:xlink="http://www.w3.org/1999/xlink">
<g id="graph0" class="graph" transform="scale(1 1) rotate(0) translate(4 304)">
<title>src/ds/non_blocking.h</title>
<polygon fill="white" stroke="transparent" points="-4,4 -4,-304 978.5,-304 978.5,4 -4,4"/>
<!-- Node1 -->
<g id="node1" class="node">
<title>Node1</title>
<g id="a_node1"><a xlink:title=" ">
<polygon fill="#bfbfbf" stroke="black" points="545.5,-280.5 545.5,-299.5 667.5,-299.5 667.5,-280.5 545.5,-280.5"/>
<text text-anchor="middle" x="606.5" y="-287.5" font-family="Helvetica,sans-Serif" font-size="10.00">src/ds/non_blocking.h</text>
</a>
</g>
</g>
<!-- Node2 -->
<g id="node2" class="node">
<title>Node2</title>
<g id="a_node2"><a xlink:href="ring__buffer_8h.html" target="_top" xlink:title=" ">
<polygon fill="white" stroke="black" points="635,-224.5 635,-243.5 712,-243.5 712,-224.5 635,-224.5"/>
<text text-anchor="middle" x="673.5" y="-231.5" font-family="Helvetica,sans-Serif" font-size="10.00">ring_buffer.h</text>
</a>
</g>
</g>
<!-- Node1&#45;&gt;Node2 -->
<g id="edge1" class="edge">
<title>Node1&#45;&gt;Node2</title>
<path fill="none" stroke="midnightblue" d="M617.26,-280.32C627.27,-272.26 642.39,-260.08 654.43,-250.37"/>
<polygon fill="midnightblue" stroke="midnightblue" points="656.95,-252.83 662.54,-243.83 652.56,-247.38 656.95,-252.83"/>
</g>
<!-- Node8 -->
<g id="node8" class="node">
<title>Node8</title>
<g id="a_node8"><a xlink:title=" ">
<polygon fill="white" stroke="#bfbfbf" points="451,-0.5 451,-19.5 498,-19.5 498,-0.5 451,-0.5"/>
<text text-anchor="middle" x="474.5" y="-7.5" font-family="Helvetica,sans-Serif" font-size="10.00">vector</text>
</a>
</g>
</g>
<!-- Node1&#45;&gt;Node8 -->
<g id="edge42" class="edge">
<title>Node1&#45;&gt;Node8</title>
<path fill="none" stroke="midnightblue" d="M562.28,-280.44C511.91,-267.83 436.5,-238.94 436.5,-179 436.5,-179 436.5,-179 436.5,-121 436.5,-86.81 453.1,-49.76 464.36,-28.57"/>
<polygon fill="midnightblue" stroke="midnightblue" points="467.45,-30.22 469.22,-19.77 461.32,-26.83 467.45,-30.22"/>
</g>
<!-- Node21 -->
<g id="node21" class="node">
<title>Node21</title>
<g id="a_node21"><a xlink:title=" ">
<polygon fill="white" stroke="#bfbfbf" points="30.5,-56.5 30.5,-75.5 88.5,-75.5 88.5,-56.5 30.5,-56.5"/>
<text text-anchor="middle" x="59.5" y="-63.5" font-family="Helvetica,sans-Serif" font-size="10.00">memory</text>
</a>
</g>
</g>
<!-- Node1&#45;&gt;Node21 -->
<g id="edge41" class="edge">
<title>Node1&#45;&gt;Node21</title>
<path fill="none" stroke="midnightblue" d="M559.94,-280.49C522.25,-272.91 468.12,-260.49 422.5,-244 289.11,-195.79 139.86,-113.25 83.11,-80.74"/>
<polygon fill="midnightblue" stroke="midnightblue" points="84.62,-77.57 74.21,-75.61 81.13,-83.63 84.62,-77.57"/>
</g>
<!-- Node24 -->
<g id="node24" class="node">
<title>Node24</title>
<g id="a_node24"><a xlink:title=" ">
<polygon fill="white" stroke="#bfbfbf" points="743,-112.5 743,-131.5 822,-131.5 822,-112.5 743,-112.5"/>
<text text-anchor="middle" x="782.5" y="-119.5" font-family="Helvetica,sans-Serif" font-size="10.00">fmt/format.h</text>
</a>
</g>
</g>
<!-- Node1&#45;&gt;Node24 -->
<g id="edge40" class="edge">
<title>Node1&#45;&gt;Node24</title>
<path fill="none" stroke="midnightblue" d="M605.54,-280.36C603.62,-258.5 601.77,-200.4 631.5,-168 638.86,-159.98 695.49,-144.52 737.24,-133.99"/>
<polygon fill="midnightblue" stroke="midnightblue" points="738.11,-137.38 746.96,-131.56 736.41,-130.59 738.11,-137.38"/>
</g>
<!-- Node27 -->
<g id="node27" class="node">
<title>Node27</title>
<g id="a_node27"><a xlink:title=" ">
<polygon fill="white" stroke="#bfbfbf" points="730,-224.5 730,-243.5 777,-243.5 777,-224.5 730,-224.5"/>
<text text-anchor="middle" x="753.5" y="-231.5" font-family="Helvetica,sans-Serif" font-size="10.00">deque</text>
</a>
</g>
</g>
<!-- Node1&#45;&gt;Node27 -->
<g id="edge39" class="edge">
<title>Node1&#45;&gt;Node27</title>
<path fill="none" stroke="midnightblue" d="M629.79,-280.44C654.31,-271.44 693.1,-257.19 720.7,-247.05"/>
<polygon fill="midnightblue" stroke="midnightblue" points="722.14,-250.25 730.32,-243.52 719.72,-243.68 722.14,-250.25"/>
</g>
<!-- Node3 -->
<g id="node3" class="node">
<title>Node3</title>
<g id="a_node3"><a xlink:href="ring__buffer__types_8h.html" target="_top" xlink:title=" ">
<polygon fill="white" stroke="black" points="468.5,-168.5 468.5,-187.5 578.5,-187.5 578.5,-168.5 468.5,-168.5"/>
<text text-anchor="middle" x="523.5" y="-175.5" font-family="Helvetica,sans-Serif" font-size="10.00">ring_buffer_types.h</text>
</a>
</g>
</g>
<!-- Node2&#45;&gt;Node3 -->
<g id="edge2" class="edge">
<title>Node2&#45;&gt;Node3</title>
<path fill="none" stroke="midnightblue" d="M649.73,-224.44C624.61,-215.4 584.79,-201.06 556.6,-190.92"/>
<polygon fill="midnightblue" stroke="midnightblue" points="557.75,-187.61 547.16,-187.52 555.38,-194.2 557.75,-187.61"/>
</g>
<!-- Node19 -->
<g id="node19" class="node">
<title>Node19</title>
<g id="a_node19"><a xlink:title=" ">
<polygon fill="white" stroke="#bfbfbf" points="924.5,-0.5 924.5,-19.5 974.5,-19.5 974.5,-0.5 924.5,-0.5"/>
<text text-anchor="middle" x="949.5" y="-7.5" font-family="Helvetica,sans-Serif" font-size="10.00">cstring</text>
</a>
</g>
</g>
<!-- Node2&#45;&gt;Node19 -->
<g id="edge37" class="edge">
<title>Node2&#45;&gt;Node19</title>
<path fill="none" stroke="midnightblue" d="M694.3,-224.49C740.31,-204.74 851.9,-151.64 918.5,-76 930.48,-62.39 938.84,-43.34 943.83,-29.38"/>
<polygon fill="midnightblue" stroke="midnightblue" points="947.16,-30.47 947,-19.87 940.52,-28.25 947.16,-30.47"/>
</g>
<!-- Node26 -->
<g id="node26" class="node">
<title>Node26</title>
<g id="a_node26"><a xlink:title=" ">
<polygon fill="white" stroke="#bfbfbf" points="641,-168.5 641,-187.5 706,-187.5 706,-168.5 641,-168.5"/>
<text text-anchor="middle" x="673.5" y="-175.5" font-family="Helvetica,sans-Serif" font-size="10.00">functional</text>
</a>
</g>
</g>
<!-- Node2&#45;&gt;Node26 -->
<g id="edge38" class="edge">
<title>Node2&#45;&gt;Node26</title>
<path fill="none" stroke="midnightblue" d="M673.5,-224.08C673.5,-217.01 673.5,-206.86 673.5,-197.99"/>
<polygon fill="midnightblue" stroke="midnightblue" points="677,-197.75 673.5,-187.75 670,-197.75 677,-197.75"/>
</g>
<!-- Node4 -->
<g id="node4" class="node">
<title>Node4</title>
<g id="a_node4"><a xlink:href="include_2ccf_2ds_2hash_8h.html" target="_top" xlink:title=" ">
<polygon fill="white" stroke="black" points="644.5,-112.5 644.5,-131.5 724.5,-131.5 724.5,-112.5 644.5,-112.5"/>
<text text-anchor="middle" x="684.5" y="-119.5" font-family="Helvetica,sans-Serif" font-size="10.00">ccf/ds/hash.h</text>
</a>
</g>
</g>
<!-- Node3&#45;&gt;Node4 -->
<g id="edge3" class="edge">
<title>Node3&#45;&gt;Node4</title>
<path fill="none" stroke="midnightblue" d="M549.01,-168.44C576.1,-159.36 619.09,-144.94 649.37,-134.78"/>
<polygon fill="midnightblue" stroke="midnightblue" points="650.74,-138.01 659.11,-131.52 648.51,-131.38 650.74,-138.01"/>
</g>
<!-- Node3&#45;&gt;Node8 -->
<g id="edge36" class="edge">
<title>Node3&#45;&gt;Node8</title>
<path fill="none" stroke="midnightblue" d="M516.05,-168.34C509.05,-159.72 498.89,-145.82 493.5,-132 480.09,-97.61 476.13,-54.22 474.97,-29.85"/>
<polygon fill="midnightblue" stroke="midnightblue" points="478.46,-29.41 474.6,-19.54 471.46,-29.66 478.46,-29.41"/>
</g>
<!-- Node11 -->
<g id="node11" class="node">
<title>Node11</title>
<g id="a_node11"><a xlink:href="nonstd_8h.html" target="_top" xlink:title=" ">
<polygon fill="white" stroke="black" points="144.5,-56.5 144.5,-75.5 234.5,-75.5 234.5,-56.5 144.5,-56.5"/>
<text text-anchor="middle" x="189.5" y="-63.5" font-family="Helvetica,sans-Serif" font-size="10.00">ccf/ds/nonstd.h</text>
</a>
</g>
</g>
<!-- Node3&#45;&gt;Node11 -->
<g id="edge12" class="edge">
<title>Node3&#45;&gt;Node11</title>
<path fill="none" stroke="midnightblue" d="M468.28,-175.42C390.45,-172.13 253.69,-162.11 215.5,-132 201.35,-120.85 194.87,-100.82 191.92,-85.93"/>
<polygon fill="midnightblue" stroke="midnightblue" points="195.33,-85.1 190.29,-75.78 188.42,-86.21 195.33,-85.1"/>
</g>
<!-- Node14 -->
<g id="node14" class="node">
<title>Node14</title>
<g id="a_node14"><a xlink:title=" ">
<polygon fill="white" stroke="#bfbfbf" points="387.5,-0.5 387.5,-19.5 431.5,-19.5 431.5,-0.5 387.5,-0.5"/>
<text text-anchor="middle" x="409.5" y="-7.5" font-family="Helvetica,sans-Serif" font-size="10.00">string</text>
</a>
</g>
</g>
<!-- Node3&#45;&gt;Node14 -->
<g id="edge35" class="edge">
<title>Node3&#45;&gt;Node14</title>
<path fill="none" stroke="midnightblue" d="M515.04,-168.43C506.59,-159.66 493.46,-145.44 483.5,-132 457.59,-97.03 432.18,-52.67 418.93,-28.55"/>
<polygon fill="midnightblue" stroke="midnightblue" points="421.89,-26.66 414.04,-19.55 415.74,-30 421.89,-26.66"/>
</g>
<!-- Node17 -->
<g id="node17" class="node">
<title>Node17</title>
<g id="a_node17"><a xlink:href="serializer_8h.html" target="_top" xlink:title=" ">
<polygon fill="white" stroke="black" points="224.5,-112.5 224.5,-131.5 294.5,-131.5 294.5,-112.5 224.5,-112.5"/>
<text text-anchor="middle" x="259.5" y="-119.5" font-family="Helvetica,sans-Serif" font-size="10.00">serializer.h</text>
</a>
</g>
</g>
<!-- Node3&#45;&gt;Node17 -->
<g id="edge20" class="edge">
<title>Node3&#45;&gt;Node17</title>
<path fill="none" stroke="midnightblue" d="M481.67,-168.44C433.38,-158.57 354.26,-142.38 304.62,-132.23"/>
<polygon fill="midnightblue" stroke="midnightblue" points="305.3,-128.8 294.8,-130.22 303.9,-135.65 305.3,-128.8"/>
</g>
<!-- Node23 -->
<g id="node23" class="node">
<title>Node23</title>
<g id="a_node23"><a xlink:title=" ">
<polygon fill="white" stroke="#bfbfbf" points="502.5,-112.5 502.5,-131.5 552.5,-131.5 552.5,-112.5 502.5,-112.5"/>
<text text-anchor="middle" x="527.5" y="-119.5" font-family="Helvetica,sans-Serif" font-size="10.00">atomic</text>
</a>
</g>
</g>
<!-- Node3&#45;&gt;Node23 -->
<g id="edge32" class="edge">
<title>Node3&#45;&gt;Node23</title>
<path fill="none" stroke="midnightblue" d="M524.16,-168.08C524.68,-161.01 525.44,-150.86 526.09,-141.99"/>
<polygon fill="midnightblue" stroke="midnightblue" points="529.6,-141.98 526.85,-131.75 522.62,-141.47 529.6,-141.98"/>
</g>
<!-- Node3&#45;&gt;Node24 -->
<g id="edge33" class="edge">
<title>Node3&#45;&gt;Node24</title>
<path fill="none" stroke="midnightblue" d="M564.54,-168.44C610.22,-158.92 684.02,-143.53 732.89,-133.34"/>
<polygon fill="midnightblue" stroke="midnightblue" points="733.85,-136.72 742.93,-131.25 732.42,-129.87 733.85,-136.72"/>
</g>
<!-- Node25 -->
<g id="node25" class="node">
<title>Node25</title>
<g id="a_node25"><a xlink:title=" ">
<polygon fill="white" stroke="#bfbfbf" points="570.5,-112.5 570.5,-131.5 626.5,-131.5 626.5,-112.5 570.5,-112.5"/>
<text text-anchor="middle" x="598.5" y="-119.5" font-family="Helvetica,sans-Serif" font-size="10.00">optional</text>
</a>
</g>
</g>
<!-- Node3&#45;&gt;Node25 -->
<g id="edge34" class="edge">
<title>Node3&#45;&gt;Node25</title>
<path fill="none" stroke="midnightblue" d="M535.55,-168.32C546.96,-160.11 564.33,-147.6 577.93,-137.81"/>
<polygon fill="midnightblue" stroke="midnightblue" points="580.16,-140.52 586.23,-131.83 576.07,-134.84 580.16,-140.52"/>
</g>
<!-- Node5 -->
<g id="node5" class="node">
<title>Node5</title>
<g id="a_node5"><a xlink:href="siphash_8h.html" target="_top" xlink:title=" ">
<polygon fill="white" stroke="black" points="799,-56.5 799,-75.5 894,-75.5 894,-56.5 799,-56.5"/>
<text text-anchor="middle" x="846.5" y="-63.5" font-family="Helvetica,sans-Serif" font-size="10.00">ccf/ds/siphash.h</text>
</a>
</g>
</g>
<!-- Node4&#45;&gt;Node5 -->
<g id="edge4" class="edge">
<title>Node4&#45;&gt;Node5</title>
<path fill="none" stroke="midnightblue" d="M710.17,-112.44C737.42,-103.36 780.68,-88.94 811.15,-78.78"/>
<polygon fill="midnightblue" stroke="midnightblue" points="812.57,-82 820.95,-75.52 810.36,-75.36 812.57,-82"/>
</g>
<!-- Node7 -->
<g id="node7" class="node">
<title>Node7</title>
<g id="a_node7"><a xlink:title=" ">
<polygon fill="white" stroke="#bfbfbf" points="762.5,-0.5 762.5,-19.5 812.5,-19.5 812.5,-0.5 762.5,-0.5"/>
<text text-anchor="middle" x="787.5" y="-7.5" font-family="Helvetica,sans-Serif" font-size="10.00">cstdint</text>
</a>
</g>
</g>
<!-- Node4&#45;&gt;Node7 -->
<g id="edge9" class="edge">
<title>Node4&#45;&gt;Node7</title>
<path fill="none" stroke="midnightblue" d="M724.53,-113.43C786.95,-101.55 900.66,-79.49 903.5,-76 909.12,-69.11 908.52,-63.33 903.5,-56 898.62,-48.87 854.55,-33.08 822.17,-22.24"/>
<polygon fill="midnightblue" stroke="midnightblue" points="823.15,-18.88 812.55,-19.05 820.94,-25.52 823.15,-18.88"/>
</g>
<!-- Node4&#45;&gt;Node8 -->
<g id="edge11" class="edge">
<title>Node4&#45;&gt;Node8</title>
<path fill="none" stroke="midnightblue" d="M646.84,-112.48C608.04,-103.25 550.63,-88.22 531.5,-76 512.2,-63.67 495.66,-42.95 485.44,-28.22"/>
<polygon fill="midnightblue" stroke="midnightblue" points="488.13,-25.94 479.68,-19.55 482.3,-29.82 488.13,-25.94"/>
</g>
<!-- Node9 -->
<g id="node9" class="node">
<title>Node9</title>
<g id="a_node9"><a xlink:title=" ">
<polygon fill="white" stroke="#bfbfbf" points="327.5,-0.5 327.5,-19.5 369.5,-19.5 369.5,-0.5 327.5,-0.5"/>
<text text-anchor="middle" x="348.5" y="-7.5" font-family="Helvetica,sans-Serif" font-size="10.00">array</text>
</a>
</g>
</g>
<!-- Node4&#45;&gt;Node9 -->
<g id="edge8" class="edge">
<title>Node4&#45;&gt;Node9</title>
<path fill="none" stroke="midnightblue" d="M644.33,-112.77C607.52,-104.8 551.74,-91.65 504.5,-76 458.26,-60.68 406.38,-37.89 375.63,-23.77"/>
<polygon fill="midnightblue" stroke="midnightblue" points="376.96,-20.53 366.42,-19.5 374.02,-26.88 376.96,-20.53"/>
</g>
<!-- Node10 -->
<g id="node10" class="node">
<title>Node10</title>
<g id="a_node10"><a xlink:title=" ">
<polygon fill="white" stroke="#bfbfbf" points="632,-56.5 632,-75.5 781,-75.5 781,-56.5 632,-56.5"/>
<text text-anchor="middle" x="706.5" y="-63.5" font-family="Helvetica,sans-Serif" font-size="10.00">small_vector/SmallVector.h</text>
</a>
</g>
</g>
<!-- Node4&#45;&gt;Node10 -->
<g id="edge10" class="edge">
<title>Node4&#45;&gt;Node10</title>
<path fill="none" stroke="midnightblue" d="M688.13,-112.08C691.11,-104.77 695.43,-94.18 699.12,-85.1"/>
<polygon fill="midnightblue" stroke="midnightblue" points="702.4,-86.33 702.93,-75.75 695.92,-83.69 702.4,-86.33"/>
</g>
<!-- Node6 -->
<g id="node6" class="node">
<title>Node6</title>
<g id="a_node6"><a xlink:title=" ">
<polygon fill="white" stroke="#bfbfbf" points="831,-0.5 831,-19.5 884,-19.5 884,-0.5 831,-0.5"/>
<text text-anchor="middle" x="857.5" y="-7.5" font-family="Helvetica,sans-Serif" font-size="10.00">cstddef</text>
</a>
</g>
</g>
<!-- Node5&#45;&gt;Node6 -->
<g id="edge5" class="edge">
<title>Node5&#45;&gt;Node6</title>
<path fill="none" stroke="midnightblue" d="M848.32,-56.08C849.77,-48.93 851.87,-38.64 853.69,-29.69"/>
<polygon fill="midnightblue" stroke="midnightblue" points="857.15,-30.25 855.72,-19.75 850.29,-28.85 857.15,-30.25"/>
</g>
<!-- Node5&#45;&gt;Node7 -->
<g id="edge6" class="edge">
<title>Node5&#45;&gt;Node7</title>
<path fill="none" stroke="midnightblue" d="M837.02,-56.32C828.3,-48.34 815.16,-36.31 804.6,-26.65"/>
<polygon fill="midnightblue" stroke="midnightblue" points="806.89,-24 797.15,-19.83 802.17,-29.17 806.89,-24"/>
</g>
<!-- Node5&#45;&gt;Node8 -->
<g id="edge7" class="edge">
<title>Node5&#45;&gt;Node8</title>
<path fill="none" stroke="midnightblue" d="M798.92,-57.43C795.73,-56.94 792.57,-56.46 789.5,-56 676.74,-39.11 648.34,-36.32 535.5,-20 526.67,-18.72 517.12,-17.32 508.25,-16.02"/>
<polygon fill="midnightblue" stroke="midnightblue" points="508.65,-12.54 498.25,-14.54 507.63,-19.46 508.65,-12.54"/>
</g>
<!-- Node11&#45;&gt;Node8 -->
<g id="edge19" class="edge">
<title>Node11&#45;&gt;Node8</title>
<path fill="none" stroke="midnightblue" d="M234.75,-57.34C296.01,-46.9 402.09,-28.51 440.5,-20 440.6,-19.98 440.71,-19.95 440.81,-19.93"/>
<polygon fill="midnightblue" stroke="midnightblue" points="441.87,-23.28 450.78,-17.54 440.24,-16.47 441.87,-23.28"/>
</g>
<!-- Node11&#45;&gt;Node9 -->
<g id="edge14" class="edge">
<title>Node11&#45;&gt;Node9</title>
<path fill="none" stroke="midnightblue" d="M214.69,-56.44C242.7,-46.93 287.93,-31.57 317.94,-21.38"/>
<polygon fill="midnightblue" stroke="midnightblue" points="319.14,-24.67 327.49,-18.14 316.89,-18.04 319.14,-24.67"/>
</g>
<!-- Node12 -->
<g id="node12" class="node">
<title>Node12</title>
<g id="a_node12"><a xlink:title=" ">
<polygon fill="white" stroke="#bfbfbf" points="245.5,-0.5 245.5,-19.5 309.5,-19.5 309.5,-0.5 245.5,-0.5"/>
<text text-anchor="middle" x="277.5" y="-7.5" font-family="Helvetica,sans-Serif" font-size="10.00">algorithm</text>
</a>
</g>
</g>
<!-- Node11&#45;&gt;Node12 -->
<g id="edge13" class="edge">
<title>Node11&#45;&gt;Node12</title>
<path fill="none" stroke="midnightblue" d="M203.64,-56.32C217.37,-47.9 238.44,-34.97 254.56,-25.07"/>
<polygon fill="midnightblue" stroke="midnightblue" points="256.7,-27.87 263.4,-19.65 253.04,-21.9 256.7,-27.87"/>
</g>
<!-- Node13 -->
<g id="node13" class="node">
<title>Node13</title>
<g id="a_node13"><a xlink:title=" ">
<polygon fill="white" stroke="#bfbfbf" points="87,-0.5 87,-19.5 136,-19.5 136,-0.5 87,-0.5"/>
<text text-anchor="middle" x="111.5" y="-7.5" font-family="Helvetica,sans-Serif" font-size="10.00">cctype</text>
</a>
</g>
</g>
<!-- Node11&#45;&gt;Node13 -->
<g id="edge15" class="edge">
<title>Node11&#45;&gt;Node13</title>
<path fill="none" stroke="midnightblue" d="M176.97,-56.32C164.91,-47.98 146.47,-35.21 132.23,-25.35"/>
<polygon fill="midnightblue" stroke="midnightblue" points="134.22,-22.47 124,-19.65 130.23,-28.22 134.22,-22.47"/>
</g>
<!-- Node11&#45;&gt;Node14 -->
<g id="edge16" class="edge">
<title>Node11&#45;&gt;Node14</title>
<path fill="none" stroke="midnightblue" d="M227.65,-56.49C263.82,-48.3 319.93,-35.26 377.23,-20.24"/>
<polygon fill="midnightblue" stroke="midnightblue" points="378.41,-23.55 387.19,-17.62 376.62,-16.79 378.41,-23.55"/>
</g>
<!-- Node15 -->
<g id="node15" class="node">
<title>Node15</title>
<g id="a_node15"><a xlink:title=" ">
<polygon fill="white" stroke="#bfbfbf" points="154,-0.5 154,-19.5 227,-19.5 227,-0.5 154,-0.5"/>
<text text-anchor="middle" x="190.5" y="-7.5" font-family="Helvetica,sans-Serif" font-size="10.00">string_view</text>
</a>
</g>
</g>
<!-- Node11&#45;&gt;Node15 -->
<g id="edge17" class="edge">
<title>Node11&#45;&gt;Node15</title>
<path fill="none" stroke="midnightblue" d="M189.67,-56.08C189.8,-49.01 189.98,-38.86 190.15,-29.99"/>
<polygon fill="midnightblue" stroke="midnightblue" points="193.65,-29.81 190.34,-19.75 186.65,-29.68 193.65,-29.81"/>
</g>
<!-- Node16 -->
<g id="node16" class="node">
<title>Node16</title>
<g id="a_node16"><a xlink:title=" ">
<polygon fill="white" stroke="#bfbfbf" points="0,-0.5 0,-19.5 69,-19.5 69,-0.5 0,-0.5"/>
<text text-anchor="middle" x="34.5" y="-7.5" font-family="Helvetica,sans-Serif" font-size="10.00">type_traits</text>
</a>
</g>
</g>
<!-- Node11&#45;&gt;Node16 -->
<g id="edge18" class="edge">
<title>Node11&#45;&gt;Node16</title>
<path fill="none" stroke="midnightblue" d="M164.94,-56.44C138.98,-47.4 97.83,-33.06 68.7,-22.92"/>
<polygon fill="midnightblue" stroke="midnightblue" points="69.54,-19.5 58.95,-19.52 67.24,-26.11 69.54,-19.5"/>
</g>
<!-- Node17&#45;&gt;Node8 -->
<g id="edge31" class="edge">
<title>Node17&#45;&gt;Node8</title>
<path fill="none" stroke="midnightblue" d="M276.37,-112.37C313.81,-93.21 404.07,-47.04 448.67,-24.22"/>
<polygon fill="midnightblue" stroke="midnightblue" points="450.4,-27.26 457.71,-19.59 447.21,-21.03 450.4,-27.26"/>
</g>
<!-- Node17&#45;&gt;Node11 -->
<g id="edge21" class="edge">
<title>Node17&#45;&gt;Node11</title>
<path fill="none" stroke="midnightblue" d="M248.25,-112.32C237.7,-104.18 221.7,-91.84 209.06,-82.09"/>
<polygon fill="midnightblue" stroke="midnightblue" points="211.01,-79.17 200.95,-75.83 206.73,-84.71 211.01,-79.17"/>
</g>
<!-- Node17&#45;&gt;Node16 -->
<g id="edge30" class="edge">
<title>Node17&#45;&gt;Node16</title>
<path fill="none" stroke="midnightblue" d="M230.43,-112.48C204.81,-104.51 166.79,-91.5 135.5,-76 105.85,-61.31 74.15,-39.85 54.33,-25.67"/>
<polygon fill="midnightblue" stroke="midnightblue" points="56.26,-22.74 46.11,-19.71 52.16,-28.41 56.26,-22.74"/>
</g>
<!-- Node18 -->
<g id="node18" class="node">
<title>Node18</title>
<g id="a_node18"><a xlink:href="serialized_8h.html" target="_top" xlink:title=" ">
<polygon fill="white" stroke="black" points="541,-56.5 541,-75.5 614,-75.5 614,-56.5 541,-56.5"/>
<text text-anchor="middle" x="577.5" y="-63.5" font-family="Helvetica,sans-Serif" font-size="10.00">serialized.h</text>
</a>
</g>
</g>
<!-- Node17&#45;&gt;Node18 -->
<g id="edge22" class="edge">
<title>Node17&#45;&gt;Node18</title>
<path fill="none" stroke="midnightblue" d="M294.75,-115.01C352.31,-105.24 466.5,-85.85 530.76,-74.94"/>
<polygon fill="midnightblue" stroke="midnightblue" points="531.35,-78.39 540.63,-73.26 530.18,-71.49 531.35,-78.39"/>
</g>
<!-- Node17&#45;&gt;Node21 -->
<g id="edge28" class="edge">
<title>Node17&#45;&gt;Node21</title>
<path fill="none" stroke="midnightblue" d="M227.81,-112.44C192.87,-103.01 136.63,-87.83 98.89,-77.63"/>
<polygon fill="midnightblue" stroke="midnightblue" points="99.33,-74.13 88.76,-74.9 97.51,-80.89 99.33,-74.13"/>
</g>
<!-- Node22 -->
<g id="node22" class="node">
<title>Node22</title>
<g id="a_node22"><a xlink:title=" ">
<polygon fill="white" stroke="#bfbfbf" points="253,-56.5 253,-75.5 294,-75.5 294,-56.5 253,-56.5"/>
<text text-anchor="middle" x="273.5" y="-63.5" font-family="Helvetica,sans-Serif" font-size="10.00">tuple</text>
</a>
</g>
</g>
<!-- Node17&#45;&gt;Node22 -->
<g id="edge29" class="edge">
<title>Node17&#45;&gt;Node22</title>
<path fill="none" stroke="midnightblue" d="M261.81,-112.08C263.67,-104.93 266.34,-94.64 268.65,-85.69"/>
<polygon fill="midnightblue" stroke="midnightblue" points="272.11,-86.31 271.23,-75.75 265.33,-84.55 272.11,-86.31"/>
</g>
<!-- Node18&#45;&gt;Node7 -->
<g id="edge23" class="edge">
<title>Node18&#45;&gt;Node7</title>
<path fill="none" stroke="midnightblue" d="M610.78,-56.44C649.5,-46.49 713.16,-30.12 752.58,-19.98"/>
<polygon fill="midnightblue" stroke="midnightblue" points="753.48,-23.36 762.29,-17.48 751.73,-16.58 753.48,-23.36"/>
</g>
<!-- Node18&#45;&gt;Node8 -->
<g id="edge27" class="edge">
<title>Node18&#45;&gt;Node8</title>
<path fill="none" stroke="midnightblue" d="M560.95,-56.32C544.51,-47.7 519.07,-34.36 500.03,-24.39"/>
<polygon fill="midnightblue" stroke="midnightblue" points="501.49,-21.2 491.01,-19.65 498.24,-27.4 501.49,-21.2"/>
</g>
<!-- Node18&#45;&gt;Node14 -->
<g id="edge26" class="edge">
<title>Node18&#45;&gt;Node14</title>
<path fill="none" stroke="midnightblue" d="M550.88,-56.44C521.16,-46.89 473.08,-31.44 441.38,-21.25"/>
<polygon fill="midnightblue" stroke="midnightblue" points="442.29,-17.86 431.7,-18.14 440.15,-24.53 442.29,-17.86"/>
</g>
<!-- Node18&#45;&gt;Node19 -->
<g id="edge24" class="edge">
<title>Node18&#45;&gt;Node19</title>
<path fill="none" stroke="midnightblue" d="M614.12,-57.63C617.29,-57.05 620.45,-56.5 623.5,-56 742.96,-36.37 773.73,-37.61 893.5,-20 900.31,-19 907.57,-17.87 914.53,-16.77"/>
<polygon fill="midnightblue" stroke="midnightblue" points="915.12,-20.22 924.43,-15.18 914,-13.31 915.12,-20.22"/>
</g>
<!-- Node20 -->
<g id="node20" class="node">
<title>Node20</title>
<g id="a_node20"><a xlink:title=" ">
<polygon fill="white" stroke="#bfbfbf" points="545,-0.5 545,-19.5 610,-19.5 610,-0.5 545,-0.5"/>
<text text-anchor="middle" x="577.5" y="-7.5" font-family="Helvetica,sans-Serif" font-size="10.00">stdexcept</text>
</a>
</g>
</g>
<!-- Node18&#45;&gt;Node20 -->
<g id="edge25" class="edge">
<title>Node18&#45;&gt;Node20</title>
<path fill="none" stroke="midnightblue" d="M577.5,-56.08C577.5,-49.01 577.5,-38.86 577.5,-29.99"/>
<polygon fill="midnightblue" stroke="midnightblue" points="581,-29.75 577.5,-19.75 574,-29.75 581,-29.75"/>
</g>
</g>
</svg>
