<?xml version="1.0" encoding="UTF-8" standalone="no"?>
<!DOCTYPE svg PUBLIC "-//W3C//DTD SVG 1.1//EN"
 "http://www.w3.org/Graphics/SVG/1.1/DTD/svg11.dtd">
<!-- Generated by graphviz version 2.43.0 (0)
 -->
<!-- Title: src/ds/oversized.h Pages: 1 -->
<svg width="1704pt" height="364pt"
 viewBox="0.00 0.00 1704.00 364.00" xmlns="http://www.w3.org/2000/svg" xmlns:xlink="http://www.w3.org/1999/xlink">
<g id="graph0" class="graph" transform="scale(1 1) rotate(0) translate(4 360)">
<title>src/ds/oversized.h</title>
<polygon fill="white" stroke="transparent" points="-4,4 -4,-360 1700,-360 1700,4 -4,4"/>
<!-- Node1 -->
<g id="node1" class="node">
<title>Node1</title>
<g id="a_node1"><a xlink:title=" ">
<polygon fill="#bfbfbf" stroke="black" points="883,-336.5 883,-355.5 987,-355.5 987,-336.5 883,-336.5"/>
<text text-anchor="middle" x="935" y="-343.5" font-family="Helvetica,sans-Serif" font-size="10.00">src/ds/oversized.h</text>
</a>
</g>
</g>
<!-- Node2 -->
<g id="node2" class="node">
<title>Node2</title>
<g id="a_node2"><a xlink:href="messaging_8h.html" target="_top" xlink:title=" ">
<polygon fill="white" stroke="black" points="895.5,-280.5 895.5,-299.5 974.5,-299.5 974.5,-280.5 895.5,-280.5"/>
<text text-anchor="middle" x="935" y="-287.5" font-family="Helvetica,sans-Serif" font-size="10.00">messaging.h</text>
</a>
</g>
</g>
<!-- Node1&#45;&gt;Node2 -->
<g id="edge1" class="edge">
<title>Node1&#45;&gt;Node2</title>
<path fill="none" stroke="midnightblue" d="M935,-336.08C935,-329.01 935,-318.86 935,-309.99"/>
<polygon fill="midnightblue" stroke="midnightblue" points="938.5,-309.75 935,-299.75 931.5,-309.75 938.5,-309.75"/>
</g>
<!-- Node5 -->
<g id="node5" class="node">
<title>Node5</title>
<g id="a_node5"><a xlink:title=" ">
<polygon fill="white" stroke="#bfbfbf" points="1000.5,-112.5 1000.5,-131.5 1079.5,-131.5 1079.5,-112.5 1000.5,-112.5"/>
<text text-anchor="middle" x="1040" y="-119.5" font-family="Helvetica,sans-Serif" font-size="10.00">fmt/format.h</text>
</a>
</g>
</g>
<!-- Node1&#45;&gt;Node5 -->
<g id="edge62" class="edge">
<title>Node1&#45;&gt;Node5</title>
<path fill="none" stroke="midnightblue" d="M987.14,-338.34C1113.8,-320.99 1431.9,-269.95 1494,-188 1499.37,-180.92 1499.97,-174.59 1494,-168 1467.25,-138.47 1202.07,-127.56 1089.8,-124.24"/>
<polygon fill="midnightblue" stroke="midnightblue" points="1089.84,-120.74 1079.74,-123.95 1089.64,-127.74 1089.84,-120.74"/>
</g>
<!-- Node17 -->
<g id="node17" class="node">
<title>Node17</title>
<g id="a_node17"><a xlink:href="ring__buffer_8h.html" target="_top" xlink:title=" ">
<polygon fill="white" stroke="black" points="469.5,-224.5 469.5,-243.5 546.5,-243.5 546.5,-224.5 469.5,-224.5"/>
<text text-anchor="middle" x="508" y="-231.5" font-family="Helvetica,sans-Serif" font-size="10.00">ring_buffer.h</text>
</a>
</g>
</g>
<!-- Node1&#45;&gt;Node17 -->
<g id="edge60" class="edge">
<title>Node1&#45;&gt;Node17</title>
<path fill="none" stroke="midnightblue" d="M901.85,-336.46C825.31,-316.74 636.31,-268.05 551,-246.08"/>
<polygon fill="midnightblue" stroke="midnightblue" points="551.69,-242.64 541.13,-243.53 549.94,-249.42 551.69,-242.64"/>
</g>
<!-- Node32 -->
<g id="node32" class="node">
<title>Node32</title>
<g id="a_node32"><a xlink:href="serialized_8h.html" target="_top" xlink:title=" ">
<polygon fill="white" stroke="black" points="435.5,-56.5 435.5,-75.5 508.5,-75.5 508.5,-56.5 435.5,-56.5"/>
<text text-anchor="middle" x="472" y="-63.5" font-family="Helvetica,sans-Serif" font-size="10.00">serialized.h</text>
</a>
</g>
</g>
<!-- Node1&#45;&gt;Node32 -->
<g id="edge61" class="edge">
<title>Node1&#45;&gt;Node32</title>
<path fill="none" stroke="midnightblue" d="M882.9,-341.86C726.37,-331.73 271,-296.93 271,-235 271,-235 271,-235 271,-177 271,-107.06 365.82,-81.3 425.21,-72.03"/>
<polygon fill="midnightblue" stroke="midnightblue" points="425.74,-75.49 435.13,-70.58 424.73,-68.56 425.74,-75.49"/>
</g>
<!-- Node40 -->
<g id="node40" class="node">
<title>Node40</title>
<g id="a_node40"><a xlink:title=" ">
<polygon fill="white" stroke="#bfbfbf" points="1541.5,-280.5 1541.5,-299.5 1634.5,-299.5 1634.5,-280.5 1541.5,-280.5"/>
<text text-anchor="middle" x="1588" y="-287.5" font-family="Helvetica,sans-Serif" font-size="10.00">unordered_map</text>
</a>
</g>
</g>
<!-- Node1&#45;&gt;Node40 -->
<g id="edge63" class="edge">
<title>Node1&#45;&gt;Node40</title>
<path fill="none" stroke="midnightblue" d="M987.38,-342.26C1090.77,-336.59 1328.27,-322.19 1527,-300 1528.46,-299.84 1529.94,-299.66 1531.44,-299.49"/>
<polygon fill="midnightblue" stroke="midnightblue" points="1531.94,-302.95 1541.42,-298.22 1531.06,-296.01 1531.94,-302.95"/>
</g>
<!-- Node3 -->
<g id="node3" class="node">
<title>Node3</title>
<g id="a_node3"><a xlink:href="logger_8h.html" target="_top" xlink:title=" ">
<polygon fill="white" stroke="black" points="996.5,-224.5 996.5,-243.5 1083.5,-243.5 1083.5,-224.5 996.5,-224.5"/>
<text text-anchor="middle" x="1040" y="-231.5" font-family="Helvetica,sans-Serif" font-size="10.00">ccf/ds/logger.h</text>
</a>
</g>
</g>
<!-- Node2&#45;&gt;Node3 -->
<g id="edge2" class="edge">
<title>Node2&#45;&gt;Node3</title>
<path fill="none" stroke="midnightblue" d="M951.87,-280.32C968.71,-271.66 994.81,-258.24 1014.24,-248.25"/>
<polygon fill="midnightblue" stroke="midnightblue" points="1015.88,-251.34 1023.17,-243.65 1012.68,-245.12 1015.88,-251.34"/>
</g>
<!-- Node9 -->
<g id="node9" class="node">
<title>Node9</title>
<g id="a_node9"><a xlink:title=" ">
<polygon fill="white" stroke="#bfbfbf" points="1658,-112.5 1658,-131.5 1696,-131.5 1696,-112.5 1658,-112.5"/>
<text text-anchor="middle" x="1677" y="-119.5" font-family="Helvetica,sans-Serif" font-size="10.00">map</text>
</a>
</g>
</g>
<!-- Node2&#45;&gt;Node9 -->
<g id="edge58" class="edge">
<title>Node2&#45;&gt;Node9</title>
<path fill="none" stroke="midnightblue" d="M974.85,-288.93C1110.92,-287.87 1554.43,-277.49 1658,-188 1671.19,-176.61 1675.47,-156.62 1676.74,-141.8"/>
<polygon fill="midnightblue" stroke="midnightblue" points="1680.24,-141.87 1677.23,-131.72 1673.25,-141.54 1680.24,-141.87"/>
</g>
<!-- Node2&#45;&gt;Node17 -->
<g id="edge18" class="edge">
<title>Node2&#45;&gt;Node17</title>
<path fill="none" stroke="midnightblue" d="M895.34,-284.87C826.96,-277.6 682.52,-261.62 561,-244 559.7,-243.81 558.38,-243.62 557.06,-243.42"/>
<polygon fill="midnightblue" stroke="midnightblue" points="557.17,-239.89 546.75,-241.8 556.09,-246.81 557.17,-239.89"/>
</g>
<!-- Node34 -->
<g id="node34" class="node">
<title>Node34</title>
<g id="a_node34"><a xlink:title=" ">
<polygon fill="white" stroke="#bfbfbf" points="469.5,-0.5 469.5,-19.5 534.5,-19.5 534.5,-0.5 469.5,-0.5"/>
<text text-anchor="middle" x="502" y="-7.5" font-family="Helvetica,sans-Serif" font-size="10.00">stdexcept</text>
</a>
</g>
</g>
<!-- Node2&#45;&gt;Node34 -->
<g id="edge59" class="edge">
<title>Node2&#45;&gt;Node34</title>
<path fill="none" stroke="midnightblue" d="M895.44,-285.37C801.93,-275.71 575,-245.41 575,-179 575,-179 575,-179 575,-121 575,-81.78 542.38,-45.84 520.75,-26.32"/>
<polygon fill="midnightblue" stroke="midnightblue" points="522.93,-23.58 513.09,-19.67 518.35,-28.87 522.93,-23.58"/>
</g>
<!-- Node37 -->
<g id="node37" class="node">
<title>Node37</title>
<g id="a_node37"><a xlink:title=" ">
<polygon fill="white" stroke="#bfbfbf" points="805,-112.5 805,-131.5 855,-131.5 855,-112.5 805,-112.5"/>
<text text-anchor="middle" x="830" y="-119.5" font-family="Helvetica,sans-Serif" font-size="10.00">atomic</text>
</a>
</g>
</g>
<!-- Node2&#45;&gt;Node37 -->
<g id="edge56" class="edge">
<title>Node2&#45;&gt;Node37</title>
<path fill="none" stroke="midnightblue" d="M929.35,-280.08C912.61,-253.61 863.02,-175.21 840.89,-140.21"/>
<polygon fill="midnightblue" stroke="midnightblue" points="843.72,-138.15 835.42,-131.57 837.81,-141.89 843.72,-138.15"/>
</g>
<!-- Node39 -->
<g id="node39" class="node">
<title>Node39</title>
<g id="a_node39"><a xlink:title=" ">
<polygon fill="white" stroke="#bfbfbf" points="1101.5,-224.5 1101.5,-243.5 1208.5,-243.5 1208.5,-224.5 1101.5,-224.5"/>
<text text-anchor="middle" x="1155" y="-231.5" font-family="Helvetica,sans-Serif" font-size="10.00">condition_variable</text>
</a>
</g>
</g>
<!-- Node2&#45;&gt;Node39 -->
<g id="edge57" class="edge">
<title>Node2&#45;&gt;Node39</title>
<path fill="none" stroke="midnightblue" d="M969.86,-280.44C1007.92,-271.1 1068.96,-256.12 1110.46,-245.93"/>
<polygon fill="midnightblue" stroke="midnightblue" points="1111.43,-249.3 1120.3,-243.52 1109.76,-242.5 1111.43,-249.3"/>
</g>
<!-- Node4 -->
<g id="node4" class="node">
<title>Node4</title>
<g id="a_node4"><a xlink:href="enum__formatter_8h.html" target="_top" xlink:title=" ">
<polygon fill="white" stroke="black" points="972,-168.5 972,-187.5 1108,-187.5 1108,-168.5 972,-168.5"/>
<text text-anchor="middle" x="1040" y="-175.5" font-family="Helvetica,sans-Serif" font-size="10.00">ccf/ds/enum_formatter.h</text>
</a>
</g>
</g>
<!-- Node3&#45;&gt;Node4 -->
<g id="edge3" class="edge">
<title>Node3&#45;&gt;Node4</title>
<path fill="none" stroke="midnightblue" d="M1040,-224.08C1040,-217.01 1040,-206.86 1040,-197.99"/>
<polygon fill="midnightblue" stroke="midnightblue" points="1043.5,-197.75 1040,-187.75 1036.5,-197.75 1043.5,-197.75"/>
</g>
<!-- Node3&#45;&gt;Node5 -->
<g id="edge12" class="edge">
<title>Node3&#45;&gt;Node5</title>
<path fill="none" stroke="midnightblue" d="M1014.27,-224.47C986.56,-213.76 948.29,-193.64 963,-168 971.62,-152.99 987.39,-142.5 1002.43,-135.46"/>
<polygon fill="midnightblue" stroke="midnightblue" points="1003.82,-138.67 1011.63,-131.51 1001.06,-132.24 1003.82,-138.67"/>
</g>
<!-- Node6 -->
<g id="node6" class="node">
<title>Node6</title>
<g id="a_node6"><a xlink:href="thread__ids_8h.html" target="_top" xlink:title=" ">
<polygon fill="white" stroke="black" points="1541,-168.5 1541,-187.5 1649,-187.5 1649,-168.5 1541,-168.5"/>
<text text-anchor="middle" x="1595" y="-175.5" font-family="Helvetica,sans-Serif" font-size="10.00">ccf/ds/thread_ids.h</text>
</a>
</g>
</g>
<!-- Node3&#45;&gt;Node6 -->
<g id="edge5" class="edge">
<title>Node3&#45;&gt;Node6</title>
<path fill="none" stroke="midnightblue" d="M1083.63,-225.31C1086.8,-224.84 1089.95,-224.4 1093,-224 1098.37,-223.3 1396,-196.74 1530.38,-184.76"/>
<polygon fill="midnightblue" stroke="midnightblue" points="1530.89,-188.23 1540.54,-183.85 1530.27,-181.26 1530.89,-188.23"/>
</g>
<!-- Node11 -->
<g id="node11" class="node">
<title>Node11</title>
<g id="a_node11"><a xlink:title=" ">
<polygon fill="white" stroke="#bfbfbf" points="1126.5,-168.5 1126.5,-187.5 1205.5,-187.5 1205.5,-168.5 1126.5,-168.5"/>
<text text-anchor="middle" x="1166" y="-175.5" font-family="Helvetica,sans-Serif" font-size="10.00">fmt/chrono.h</text>
</a>
</g>
</g>
<!-- Node3&#45;&gt;Node11 -->
<g id="edge11" class="edge">
<title>Node3&#45;&gt;Node11</title>
<path fill="none" stroke="midnightblue" d="M1059.97,-224.44C1080.61,-215.6 1113.06,-201.69 1136.63,-191.59"/>
<polygon fill="midnightblue" stroke="midnightblue" points="1138.32,-194.67 1146.13,-187.52 1135.56,-188.24 1138.32,-194.67"/>
</g>
<!-- Node12 -->
<g id="node12" class="node">
<title>Node12</title>
<g id="a_node12"><a xlink:title=" ">
<polygon fill="white" stroke="#bfbfbf" points="1223,-168.5 1223,-187.5 1283,-187.5 1283,-168.5 1223,-168.5"/>
<text text-anchor="middle" x="1253" y="-175.5" font-family="Helvetica,sans-Serif" font-size="10.00">iostream</text>
</a>
</g>
</g>
<!-- Node3&#45;&gt;Node12 -->
<g id="edge13" class="edge">
<title>Node3&#45;&gt;Node12</title>
<path fill="none" stroke="midnightblue" d="M1073.75,-224.44C1111.6,-214.85 1172.93,-199.3 1213.12,-189.11"/>
<polygon fill="midnightblue" stroke="midnightblue" points="1214.02,-192.49 1222.85,-186.64 1212.3,-185.71 1214.02,-192.49"/>
</g>
<!-- Node13 -->
<g id="node13" class="node">
<title>Node13</title>
<g id="a_node13"><a xlink:title=" ">
<polygon fill="white" stroke="#bfbfbf" points="1301,-168.5 1301,-187.5 1411,-187.5 1411,-168.5 1301,-168.5"/>
<text text-anchor="middle" x="1356" y="-175.5" font-family="Helvetica,sans-Serif" font-size="10.00">nlohmann/json.hpp</text>
</a>
</g>
</g>
<!-- Node3&#45;&gt;Node13 -->
<g id="edge14" class="edge">
<title>Node3&#45;&gt;Node13</title>
<path fill="none" stroke="midnightblue" d="M1083.61,-225.55C1138.78,-216.12 1234.06,-199.84 1296.05,-189.25"/>
<polygon fill="midnightblue" stroke="midnightblue" points="1296.81,-192.67 1306.08,-187.53 1295.63,-185.77 1296.81,-192.67"/>
</g>
<!-- Node14 -->
<g id="node14" class="node">
<title>Node14</title>
<g id="a_node14"><a xlink:title=" ">
<polygon fill="white" stroke="#bfbfbf" points="873,-112.5 873,-131.5 929,-131.5 929,-112.5 873,-112.5"/>
<text text-anchor="middle" x="901" y="-119.5" font-family="Helvetica,sans-Serif" font-size="10.00">optional</text>
</a>
</g>
</g>
<!-- Node3&#45;&gt;Node14 -->
<g id="edge15" class="edge">
<title>Node3&#45;&gt;Node14</title>
<path fill="none" stroke="midnightblue" d="M996.19,-232.81C961.74,-230.05 915.75,-220.04 892,-188 881.96,-174.45 886.54,-154.83 892.19,-140.69"/>
<polygon fill="midnightblue" stroke="midnightblue" points="895.4,-142.09 896.3,-131.54 889.02,-139.23 895.4,-142.09"/>
</g>
<!-- Node15 -->
<g id="node15" class="node">
<title>Node15</title>
<g id="a_node15"><a xlink:title=" ">
<polygon fill="white" stroke="#bfbfbf" points="1429,-168.5 1429,-187.5 1485,-187.5 1485,-168.5 1429,-168.5"/>
<text text-anchor="middle" x="1457" y="-175.5" font-family="Helvetica,sans-Serif" font-size="10.00">sstream</text>
</a>
</g>
</g>
<!-- Node3&#45;&gt;Node15 -->
<g id="edge16" class="edge">
<title>Node3&#45;&gt;Node15</title>
<path fill="none" stroke="midnightblue" d="M1083.64,-225.38C1086.81,-224.89 1089.95,-224.43 1093,-224 1234.55,-204.21 1274.23,-212.92 1418.67,-188.03"/>
<polygon fill="midnightblue" stroke="midnightblue" points="1419.55,-191.43 1428.8,-186.26 1418.34,-184.53 1419.55,-191.43"/>
</g>
<!-- Node16 -->
<g id="node16" class="node">
<title>Node16</title>
<g id="a_node16"><a xlink:title=" ">
<polygon fill="white" stroke="#bfbfbf" points="936.5,-0.5 936.5,-19.5 1005.5,-19.5 1005.5,-0.5 936.5,-0.5"/>
<text text-anchor="middle" x="971" y="-7.5" font-family="Helvetica,sans-Serif" font-size="10.00">type_traits</text>
</a>
</g>
</g>
<!-- Node3&#45;&gt;Node16 -->
<g id="edge17" class="edge">
<title>Node3&#45;&gt;Node16</title>
<path fill="none" stroke="midnightblue" d="M1007.01,-224.44C988.54,-217.77 967.05,-206.45 956,-188 925.55,-137.15 949.28,-62.88 963,-29.03"/>
<polygon fill="midnightblue" stroke="midnightblue" points="966.34,-30.11 967.02,-19.53 959.89,-27.38 966.34,-30.11"/>
</g>
<!-- Node4&#45;&gt;Node5 -->
<g id="edge4" class="edge">
<title>Node4&#45;&gt;Node5</title>
<path fill="none" stroke="midnightblue" d="M1040,-168.08C1040,-161.01 1040,-150.86 1040,-141.99"/>
<polygon fill="midnightblue" stroke="midnightblue" points="1043.5,-141.75 1040,-131.75 1036.5,-141.75 1043.5,-141.75"/>
</g>
<!-- Node6&#45;&gt;Node5 -->
<g id="edge6" class="edge">
<title>Node6&#45;&gt;Node5</title>
<path fill="none" stroke="midnightblue" d="M1540.83,-169.63C1536.16,-169.06 1531.5,-168.51 1527,-168 1367.31,-150.06 1177.57,-134.05 1089.48,-126.92"/>
<polygon fill="midnightblue" stroke="midnightblue" points="1089.76,-123.43 1079.51,-126.12 1089.19,-130.41 1089.76,-123.43"/>
</g>
<!-- Node7 -->
<g id="node7" class="node">
<title>Node7</title>
<g id="a_node7"><a xlink:title=" ">
<polygon fill="white" stroke="#bfbfbf" points="1426,-112.5 1426,-131.5 1512,-131.5 1512,-112.5 1426,-112.5"/>
<text text-anchor="middle" x="1469" y="-119.5" font-family="Helvetica,sans-Serif" font-size="10.00">fmt/ostream.h</text>
</a>
</g>
</g>
<!-- Node6&#45;&gt;Node7 -->
<g id="edge7" class="edge">
<title>Node6&#45;&gt;Node7</title>
<path fill="none" stroke="midnightblue" d="M1575.03,-168.44C1554.39,-159.6 1521.94,-145.69 1498.37,-135.59"/>
<polygon fill="midnightblue" stroke="midnightblue" points="1499.44,-132.24 1488.87,-131.52 1496.68,-138.67 1499.44,-132.24"/>
</g>
<!-- Node8 -->
<g id="node8" class="node">
<title>Node8</title>
<g id="a_node8"><a xlink:title=" ">
<polygon fill="white" stroke="#bfbfbf" points="1530,-112.5 1530,-131.5 1574,-131.5 1574,-112.5 1530,-112.5"/>
<text text-anchor="middle" x="1552" y="-119.5" font-family="Helvetica,sans-Serif" font-size="10.00">limits</text>
</a>
</g>
</g>
<!-- Node6&#45;&gt;Node8 -->
<g id="edge8" class="edge">
<title>Node6&#45;&gt;Node8</title>
<path fill="none" stroke="midnightblue" d="M1587.9,-168.08C1581.76,-160.38 1572.73,-149.03 1565.26,-139.65"/>
<polygon fill="midnightblue" stroke="midnightblue" points="1567.94,-137.39 1558.97,-131.75 1562.46,-141.75 1567.94,-137.39"/>
</g>
<!-- Node6&#45;&gt;Node9 -->
<g id="edge9" class="edge">
<title>Node6&#45;&gt;Node9</title>
<path fill="none" stroke="midnightblue" d="M1608.17,-168.32C1620.85,-159.98 1640.23,-147.21 1655.21,-137.35"/>
<polygon fill="midnightblue" stroke="midnightblue" points="1657.43,-140.08 1663.86,-131.65 1653.58,-134.23 1657.43,-140.08"/>
</g>
<!-- Node10 -->
<g id="node10" class="node">
<title>Node10</title>
<g id="a_node10"><a xlink:title=" ">
<polygon fill="white" stroke="#bfbfbf" points="1592,-112.5 1592,-131.5 1640,-131.5 1640,-112.5 1592,-112.5"/>
<text text-anchor="middle" x="1616" y="-119.5" font-family="Helvetica,sans-Serif" font-size="10.00">thread</text>
</a>
</g>
</g>
<!-- Node6&#45;&gt;Node10 -->
<g id="edge10" class="edge">
<title>Node6&#45;&gt;Node10</title>
<path fill="none" stroke="midnightblue" d="M1598.47,-168.08C1601.31,-160.77 1605.43,-150.18 1608.96,-141.1"/>
<polygon fill="midnightblue" stroke="midnightblue" points="1612.23,-142.34 1612.6,-131.75 1605.71,-139.8 1612.23,-142.34"/>
</g>
<!-- Node18 -->
<g id="node18" class="node">
<title>Node18</title>
<g id="a_node18"><a xlink:href="ring__buffer__types_8h.html" target="_top" xlink:title=" ">
<polygon fill="white" stroke="black" points="659,-168.5 659,-187.5 769,-187.5 769,-168.5 659,-168.5"/>
<text text-anchor="middle" x="714" y="-175.5" font-family="Helvetica,sans-Serif" font-size="10.00">ring_buffer_types.h</text>
</a>
</g>
</g>
<!-- Node17&#45;&gt;Node18 -->
<g id="edge19" class="edge">
<title>Node17&#45;&gt;Node18</title>
<path fill="none" stroke="midnightblue" d="M540.64,-224.44C576.05,-215.16 632.71,-200.31 671.55,-190.13"/>
<polygon fill="midnightblue" stroke="midnightblue" points="672.73,-193.44 681.51,-187.52 670.95,-186.67 672.73,-193.44"/>
</g>
<!-- Node33 -->
<g id="node33" class="node">
<title>Node33</title>
<g id="a_node33"><a xlink:title=" ">
<polygon fill="white" stroke="#bfbfbf" points="0,-0.5 0,-19.5 50,-19.5 50,-0.5 0,-0.5"/>
<text text-anchor="middle" x="25" y="-7.5" font-family="Helvetica,sans-Serif" font-size="10.00">cstring</text>
</a>
</g>
</g>
<!-- Node17&#45;&gt;Node33 -->
<g id="edge54" class="edge">
<title>Node17&#45;&gt;Node33</title>
<path fill="none" stroke="midnightblue" d="M469.37,-225.55C403.02,-211.97 263.93,-180.09 154,-132 110.14,-112.82 95.35,-110.34 62,-76 48.88,-62.49 38.75,-43.43 32.43,-29.44"/>
<polygon fill="midnightblue" stroke="midnightblue" points="35.51,-27.72 28.36,-19.9 29.07,-30.47 35.51,-27.72"/>
</g>
<!-- Node38 -->
<g id="node38" class="node">
<title>Node38</title>
<g id="a_node38"><a xlink:title=" ">
<polygon fill="white" stroke="#bfbfbf" points="475.5,-168.5 475.5,-187.5 540.5,-187.5 540.5,-168.5 475.5,-168.5"/>
<text text-anchor="middle" x="508" y="-175.5" font-family="Helvetica,sans-Serif" font-size="10.00">functional</text>
</a>
</g>
</g>
<!-- Node17&#45;&gt;Node38 -->
<g id="edge55" class="edge">
<title>Node17&#45;&gt;Node38</title>
<path fill="none" stroke="midnightblue" d="M508,-224.08C508,-217.01 508,-206.86 508,-197.99"/>
<polygon fill="midnightblue" stroke="midnightblue" points="511.5,-197.75 508,-187.75 504.5,-197.75 511.5,-197.75"/>
</g>
<!-- Node18&#45;&gt;Node5 -->
<g id="edge50" class="edge">
<title>Node18&#45;&gt;Node5</title>
<path fill="none" stroke="midnightblue" d="M765.66,-168.44C827.26,-158.24 929.52,-141.3 990.27,-131.24"/>
<polygon fill="midnightblue" stroke="midnightblue" points="991.09,-134.65 1000.38,-129.56 989.94,-127.74 991.09,-134.65"/>
</g>
<!-- Node18&#45;&gt;Node14 -->
<g id="edge51" class="edge">
<title>Node18&#45;&gt;Node14</title>
<path fill="none" stroke="midnightblue" d="M743.63,-168.44C775.88,-159.13 827.53,-144.22 862.8,-134.03"/>
<polygon fill="midnightblue" stroke="midnightblue" points="864.1,-137.3 872.73,-131.16 862.15,-130.57 864.1,-137.3"/>
</g>
<!-- Node19 -->
<g id="node19" class="node">
<title>Node19</title>
<g id="a_node19"><a xlink:href="include_2ccf_2ds_2hash_8h.html" target="_top" xlink:title=" ">
<polygon fill="white" stroke="black" points="163,-112.5 163,-131.5 243,-131.5 243,-112.5 163,-112.5"/>
<text text-anchor="middle" x="203" y="-119.5" font-family="Helvetica,sans-Serif" font-size="10.00">ccf/ds/hash.h</text>
</a>
</g>
</g>
<!-- Node18&#45;&gt;Node19 -->
<g id="edge20" class="edge">
<title>Node18&#45;&gt;Node19</title>
<path fill="none" stroke="midnightblue" d="M658.83,-171.17C558.85,-160.61 349.22,-138.45 253.1,-128.29"/>
<polygon fill="midnightblue" stroke="midnightblue" points="253.36,-124.8 243.05,-127.23 252.63,-131.76 253.36,-124.8"/>
</g>
<!-- Node23 -->
<g id="node23" class="node">
<title>Node23</title>
<g id="a_node23"><a xlink:title=" ">
<polygon fill="white" stroke="#bfbfbf" points="393.5,-0.5 393.5,-19.5 440.5,-19.5 440.5,-0.5 393.5,-0.5"/>
<text text-anchor="middle" x="417" y="-7.5" font-family="Helvetica,sans-Serif" font-size="10.00">vector</text>
</a>
</g>
</g>
<!-- Node18&#45;&gt;Node23 -->
<g id="edge53" class="edge">
<title>Node18&#45;&gt;Node23</title>
<path fill="none" stroke="midnightblue" d="M658.8,-174.19C592.59,-167.64 483.36,-146.14 426,-76 415.53,-63.2 414.04,-44.01 414.71,-29.8"/>
<polygon fill="midnightblue" stroke="midnightblue" points="418.21,-29.95 415.59,-19.68 411.24,-29.34 418.21,-29.95"/>
</g>
<!-- Node26 -->
<g id="node26" class="node">
<title>Node26</title>
<g id="a_node26"><a xlink:href="nonstd_8h.html" target="_top" xlink:title=" ">
<polygon fill="white" stroke="black" points="815,-56.5 815,-75.5 905,-75.5 905,-56.5 815,-56.5"/>
<text text-anchor="middle" x="860" y="-63.5" font-family="Helvetica,sans-Serif" font-size="10.00">ccf/ds/nonstd.h</text>
</a>
</g>
</g>
<!-- Node18&#45;&gt;Node26 -->
<g id="edge29" class="edge">
<title>Node18&#45;&gt;Node26</title>
<path fill="none" stroke="midnightblue" d="M724.46,-168.39C739.91,-155.75 769.8,-131.57 796,-112 810.01,-101.53 826.12,-90.21 838.67,-81.55"/>
<polygon fill="midnightblue" stroke="midnightblue" points="840.84,-84.3 847.1,-75.75 836.87,-78.53 840.84,-84.3"/>
</g>
<!-- Node29 -->
<g id="node29" class="node">
<title>Node29</title>
<g id="a_node29"><a xlink:title=" ">
<polygon fill="white" stroke="#bfbfbf" points="574,-0.5 574,-19.5 618,-19.5 618,-0.5 574,-0.5"/>
<text text-anchor="middle" x="596" y="-7.5" font-family="Helvetica,sans-Serif" font-size="10.00">string</text>
</a>
</g>
</g>
<!-- Node18&#45;&gt;Node29 -->
<g id="edge52" class="edge">
<title>Node18&#45;&gt;Node29</title>
<path fill="none" stroke="midnightblue" d="M704.26,-168.25C694.88,-159.57 680.61,-145.62 670,-132 643.26,-97.66 618.17,-53.06 605.2,-28.73"/>
<polygon fill="midnightblue" stroke="midnightblue" points="608.17,-26.86 600.41,-19.64 601.97,-30.12 608.17,-26.86"/>
</g>
<!-- Node31 -->
<g id="node31" class="node">
<title>Node31</title>
<g id="a_node31"><a xlink:href="serializer_8h.html" target="_top" xlink:title=" ">
<polygon fill="white" stroke="black" points="679,-112.5 679,-131.5 749,-131.5 749,-112.5 679,-112.5"/>
<text text-anchor="middle" x="714" y="-119.5" font-family="Helvetica,sans-Serif" font-size="10.00">serializer.h</text>
</a>
</g>
</g>
<!-- Node18&#45;&gt;Node31 -->
<g id="edge37" class="edge">
<title>Node18&#45;&gt;Node31</title>
<path fill="none" stroke="midnightblue" d="M714,-168.08C714,-161.01 714,-150.86 714,-141.99"/>
<polygon fill="midnightblue" stroke="midnightblue" points="717.5,-141.75 714,-131.75 710.5,-141.75 717.5,-141.75"/>
</g>
<!-- Node18&#45;&gt;Node37 -->
<g id="edge49" class="edge">
<title>Node18&#45;&gt;Node37</title>
<path fill="none" stroke="midnightblue" d="M732.38,-168.44C751.22,-159.68 780.73,-145.94 802.38,-135.86"/>
<polygon fill="midnightblue" stroke="midnightblue" points="804.12,-138.91 811.71,-131.52 801.16,-132.56 804.12,-138.91"/>
</g>
<!-- Node20 -->
<g id="node20" class="node">
<title>Node20</title>
<g id="a_node20"><a xlink:href="siphash_8h.html" target="_top" xlink:title=" ">
<polygon fill="white" stroke="black" points="79.5,-56.5 79.5,-75.5 174.5,-75.5 174.5,-56.5 79.5,-56.5"/>
<text text-anchor="middle" x="127" y="-63.5" font-family="Helvetica,sans-Serif" font-size="10.00">ccf/ds/siphash.h</text>
</a>
</g>
</g>
<!-- Node19&#45;&gt;Node20 -->
<g id="edge21" class="edge">
<title>Node19&#45;&gt;Node20</title>
<path fill="none" stroke="midnightblue" d="M190.79,-112.32C179.22,-104.11 161.62,-91.6 147.84,-81.81"/>
<polygon fill="midnightblue" stroke="midnightblue" points="149.61,-78.77 139.43,-75.83 145.56,-84.48 149.61,-78.77"/>
</g>
<!-- Node22 -->
<g id="node22" class="node">
<title>Node22</title>
<g id="a_node22"><a xlink:title=" ">
<polygon fill="white" stroke="#bfbfbf" points="79,-0.5 79,-19.5 129,-19.5 129,-0.5 79,-0.5"/>
<text text-anchor="middle" x="104" y="-7.5" font-family="Helvetica,sans-Serif" font-size="10.00">cstdint</text>
</a>
</g>
</g>
<!-- Node19&#45;&gt;Node22 -->
<g id="edge26" class="edge">
<title>Node19&#45;&gt;Node22</title>
<path fill="none" stroke="midnightblue" d="M162.87,-119.35C131.92,-115.7 90.96,-105.22 70,-76 58.83,-60.43 72.54,-40.71 85.74,-27.09"/>
<polygon fill="midnightblue" stroke="midnightblue" points="88.47,-29.31 93.26,-19.86 83.62,-24.27 88.47,-29.31"/>
</g>
<!-- Node19&#45;&gt;Node23 -->
<g id="edge28" class="edge">
<title>Node19&#45;&gt;Node23</title>
<path fill="none" stroke="midnightblue" d="M202.77,-112.45C202.89,-98.55 205.26,-71.05 221,-56 244.02,-33.98 333.85,-20.48 383.52,-14.55"/>
<polygon fill="midnightblue" stroke="midnightblue" points="383.93,-18.03 393.47,-13.4 383.13,-11.07 383.93,-18.03"/>
</g>
<!-- Node24 -->
<g id="node24" class="node">
<title>Node24</title>
<g id="a_node24"><a xlink:title=" ">
<polygon fill="white" stroke="#bfbfbf" points="636,-0.5 636,-19.5 678,-19.5 678,-0.5 636,-0.5"/>
<text text-anchor="middle" x="657" y="-7.5" font-family="Helvetica,sans-Serif" font-size="10.00">array</text>
</a>
</g>
</g>
<!-- Node19&#45;&gt;Node24 -->
<g id="edge25" class="edge">
<title>Node19&#45;&gt;Node24</title>
<path fill="none" stroke="midnightblue" d="M243.2,-118.99C303.72,-115.14 421.31,-104.4 517,-76 559.97,-63.25 606.56,-39.41 633.69,-24.41"/>
<polygon fill="midnightblue" stroke="midnightblue" points="635.43,-27.45 642.44,-19.51 632.01,-21.35 635.43,-27.45"/>
</g>
<!-- Node25 -->
<g id="node25" class="node">
<title>Node25</title>
<g id="a_node25"><a xlink:title=" ">
<polygon fill="white" stroke="#bfbfbf" points="230.5,-56.5 230.5,-75.5 379.5,-75.5 379.5,-56.5 230.5,-56.5"/>
<text text-anchor="middle" x="305" y="-63.5" font-family="Helvetica,sans-Serif" font-size="10.00">small_vector/SmallVector.h</text>
</a>
</g>
</g>
<!-- Node19&#45;&gt;Node25 -->
<g id="edge27" class="edge">
<title>Node19&#45;&gt;Node25</title>
<path fill="none" stroke="midnightblue" d="M219.39,-112.32C235.67,-103.7 260.87,-90.36 279.72,-80.39"/>
<polygon fill="midnightblue" stroke="midnightblue" points="281.45,-83.43 288.65,-75.65 278.18,-77.24 281.45,-83.43"/>
</g>
<!-- Node21 -->
<g id="node21" class="node">
<title>Node21</title>
<g id="a_node21"><a xlink:title=" ">
<polygon fill="white" stroke="#bfbfbf" points="147.5,-0.5 147.5,-19.5 200.5,-19.5 200.5,-0.5 147.5,-0.5"/>
<text text-anchor="middle" x="174" y="-7.5" font-family="Helvetica,sans-Serif" font-size="10.00">cstddef</text>
</a>
</g>
</g>
<!-- Node20&#45;&gt;Node21 -->
<g id="edge22" class="edge">
<title>Node20&#45;&gt;Node21</title>
<path fill="none" stroke="midnightblue" d="M134.76,-56.08C141.54,-48.3 151.54,-36.8 159.76,-27.37"/>
<polygon fill="midnightblue" stroke="midnightblue" points="162.46,-29.59 166.38,-19.75 157.18,-25 162.46,-29.59"/>
</g>
<!-- Node20&#45;&gt;Node22 -->
<g id="edge23" class="edge">
<title>Node20&#45;&gt;Node22</title>
<path fill="none" stroke="midnightblue" d="M123.2,-56.08C120.09,-48.77 115.58,-38.18 111.71,-29.1"/>
<polygon fill="midnightblue" stroke="midnightblue" points="114.87,-27.58 107.73,-19.75 108.43,-30.32 114.87,-27.58"/>
</g>
<!-- Node20&#45;&gt;Node23 -->
<g id="edge24" class="edge">
<title>Node20&#45;&gt;Node23</title>
<path fill="none" stroke="midnightblue" d="M172.95,-56.44C231.52,-45.54 331.4,-26.94 383.36,-17.26"/>
<polygon fill="midnightblue" stroke="midnightblue" points="384.19,-20.67 393.38,-15.4 382.91,-13.79 384.19,-20.67"/>
</g>
<!-- Node26&#45;&gt;Node16 -->
<g id="edge35" class="edge">
<title>Node26&#45;&gt;Node16</title>
<path fill="none" stroke="midnightblue" d="M877.83,-56.32C895.72,-47.62 923.48,-34.12 944.05,-24.11"/>
<polygon fill="midnightblue" stroke="midnightblue" points="945.75,-27.18 953.21,-19.65 942.69,-20.88 945.75,-27.18"/>
</g>
<!-- Node26&#45;&gt;Node23 -->
<g id="edge36" class="edge">
<title>Node26&#45;&gt;Node23</title>
<path fill="none" stroke="midnightblue" d="M814.95,-57.28C811.92,-56.83 808.92,-56.39 806,-56 652.79,-35.28 612.75,-43.87 460,-20 456.93,-19.52 453.76,-18.97 450.58,-18.37"/>
<polygon fill="midnightblue" stroke="midnightblue" points="451.07,-14.9 440.58,-16.39 449.7,-21.77 451.07,-14.9"/>
</g>
<!-- Node26&#45;&gt;Node24 -->
<g id="edge31" class="edge">
<title>Node26&#45;&gt;Node24</title>
<path fill="none" stroke="midnightblue" d="M825.76,-56.49C792.84,-48.22 741.44,-35.08 688.23,-20.27"/>
<polygon fill="midnightblue" stroke="midnightblue" points="688.85,-16.81 678.28,-17.49 686.96,-23.55 688.85,-16.81"/>
</g>
<!-- Node27 -->
<g id="node27" class="node">
<title>Node27</title>
<g id="a_node27"><a xlink:title=" ">
<polygon fill="white" stroke="#bfbfbf" points="696,-0.5 696,-19.5 760,-19.5 760,-0.5 696,-0.5"/>
<text text-anchor="middle" x="728" y="-7.5" font-family="Helvetica,sans-Serif" font-size="10.00">algorithm</text>
</a>
</g>
</g>
<!-- Node26&#45;&gt;Node27 -->
<g id="edge30" class="edge">
<title>Node26&#45;&gt;Node27</title>
<path fill="none" stroke="midnightblue" d="M839.08,-56.44C817.26,-47.52 782.85,-33.44 758.11,-23.32"/>
<polygon fill="midnightblue" stroke="midnightblue" points="759.4,-20.06 748.82,-19.52 756.75,-26.54 759.4,-20.06"/>
</g>
<!-- Node28 -->
<g id="node28" class="node">
<title>Node28</title>
<g id="a_node28"><a xlink:title=" ">
<polygon fill="white" stroke="#bfbfbf" points="778.5,-0.5 778.5,-19.5 827.5,-19.5 827.5,-0.5 778.5,-0.5"/>
<text text-anchor="middle" x="803" y="-7.5" font-family="Helvetica,sans-Serif" font-size="10.00">cctype</text>
</a>
</g>
</g>
<!-- Node26&#45;&gt;Node28 -->
<g id="edge32" class="edge">
<title>Node26&#45;&gt;Node28</title>
<path fill="none" stroke="midnightblue" d="M850.84,-56.32C842.5,-48.42 829.97,-36.55 819.82,-26.94"/>
<polygon fill="midnightblue" stroke="midnightblue" points="821.99,-24.17 812.32,-19.83 817.18,-29.25 821.99,-24.17"/>
</g>
<!-- Node26&#45;&gt;Node29 -->
<g id="edge33" class="edge">
<title>Node26&#45;&gt;Node29</title>
<path fill="none" stroke="midnightblue" d="M814.82,-56.78C761.54,-47.01 675.19,-30.9 628.23,-20.09"/>
<polygon fill="midnightblue" stroke="midnightblue" points="628.82,-16.63 618.29,-17.74 627.21,-23.45 628.82,-16.63"/>
</g>
<!-- Node30 -->
<g id="node30" class="node">
<title>Node30</title>
<g id="a_node30"><a xlink:title=" ">
<polygon fill="white" stroke="#bfbfbf" points="845.5,-0.5 845.5,-19.5 918.5,-19.5 918.5,-0.5 845.5,-0.5"/>
<text text-anchor="middle" x="882" y="-7.5" font-family="Helvetica,sans-Serif" font-size="10.00">string_view</text>
</a>
</g>
</g>
<!-- Node26&#45;&gt;Node30 -->
<g id="edge34" class="edge">
<title>Node26&#45;&gt;Node30</title>
<path fill="none" stroke="midnightblue" d="M863.63,-56.08C866.61,-48.77 870.93,-38.18 874.62,-29.1"/>
<polygon fill="midnightblue" stroke="midnightblue" points="877.9,-30.33 878.43,-19.75 871.42,-27.69 877.9,-30.33"/>
</g>
<!-- Node31&#45;&gt;Node16 -->
<g id="edge47" class="edge">
<title>Node31&#45;&gt;Node16</title>
<path fill="none" stroke="midnightblue" d="M749.13,-115.78C798.77,-107.96 886.46,-92.36 914,-76 933.69,-64.3 950.16,-43.46 960.25,-28.53"/>
<polygon fill="midnightblue" stroke="midnightblue" points="963.45,-30.02 965.93,-19.72 957.57,-26.23 963.45,-30.02"/>
</g>
<!-- Node31&#45;&gt;Node23 -->
<g id="edge48" class="edge">
<title>Node31&#45;&gt;Node23</title>
<path fill="none" stroke="midnightblue" d="M690.69,-112.37C638.1,-92.89 510.09,-45.48 449.64,-23.09"/>
<polygon fill="midnightblue" stroke="midnightblue" points="450.79,-19.78 440.2,-19.59 448.36,-26.35 450.79,-19.78"/>
</g>
<!-- Node31&#45;&gt;Node26 -->
<g id="edge38" class="edge">
<title>Node31&#45;&gt;Node26</title>
<path fill="none" stroke="midnightblue" d="M737.13,-112.44C761.48,-103.44 800.01,-89.19 827.42,-79.05"/>
<polygon fill="midnightblue" stroke="midnightblue" points="828.81,-82.27 836.97,-75.52 826.38,-75.7 828.81,-82.27"/>
</g>
<!-- Node31&#45;&gt;Node32 -->
<g id="edge39" class="edge">
<title>Node31&#45;&gt;Node32</title>
<path fill="none" stroke="midnightblue" d="M678.81,-113.15C636.55,-103.72 565.53,-87.87 518.71,-77.42"/>
<polygon fill="midnightblue" stroke="midnightblue" points="519.34,-73.98 508.82,-75.22 517.82,-80.81 519.34,-73.98"/>
</g>
<!-- Node35 -->
<g id="node35" class="node">
<title>Node35</title>
<g id="a_node35"><a xlink:title=" ">
<polygon fill="white" stroke="#bfbfbf" points="739,-56.5 739,-75.5 797,-75.5 797,-56.5 739,-56.5"/>
<text text-anchor="middle" x="768" y="-63.5" font-family="Helvetica,sans-Serif" font-size="10.00">memory</text>
</a>
</g>
</g>
<!-- Node31&#45;&gt;Node35 -->
<g id="edge45" class="edge">
<title>Node31&#45;&gt;Node35</title>
<path fill="none" stroke="midnightblue" d="M722.92,-112.08C730.78,-104.22 742.43,-92.57 751.92,-83.08"/>
<polygon fill="midnightblue" stroke="midnightblue" points="754.65,-85.3 759.25,-75.75 749.7,-80.35 754.65,-85.3"/>
</g>
<!-- Node36 -->
<g id="node36" class="node">
<title>Node36</title>
<g id="a_node36"><a xlink:title=" ">
<polygon fill="white" stroke="#bfbfbf" points="679.5,-56.5 679.5,-75.5 720.5,-75.5 720.5,-56.5 679.5,-56.5"/>
<text text-anchor="middle" x="700" y="-63.5" font-family="Helvetica,sans-Serif" font-size="10.00">tuple</text>
</a>
</g>
</g>
<!-- Node31&#45;&gt;Node36 -->
<g id="edge46" class="edge">
<title>Node31&#45;&gt;Node36</title>
<path fill="none" stroke="midnightblue" d="M711.69,-112.08C709.83,-104.93 707.16,-94.64 704.85,-85.69"/>
<polygon fill="midnightblue" stroke="midnightblue" points="708.17,-84.55 702.27,-75.75 701.39,-86.31 708.17,-84.55"/>
</g>
<!-- Node32&#45;&gt;Node22 -->
<g id="edge40" class="edge">
<title>Node32&#45;&gt;Node22</title>
<path fill="none" stroke="midnightblue" d="M435.4,-60.65C364.48,-52.14 209.8,-33.11 138.99,-19.94"/>
<polygon fill="midnightblue" stroke="midnightblue" points="139.65,-16.5 129.17,-18.04 138.32,-23.37 139.65,-16.5"/>
</g>
<!-- Node32&#45;&gt;Node23 -->
<g id="edge44" class="edge">
<title>Node32&#45;&gt;Node23</title>
<path fill="none" stroke="midnightblue" d="M462.92,-56.08C454.83,-48.14 442.8,-36.34 433.09,-26.8"/>
<polygon fill="midnightblue" stroke="midnightblue" points="435.5,-24.26 425.91,-19.75 430.6,-29.25 435.5,-24.26"/>
</g>
<!-- Node32&#45;&gt;Node29 -->
<g id="edge43" class="edge">
<title>Node32&#45;&gt;Node29</title>
<path fill="none" stroke="midnightblue" d="M491.65,-56.44C511.96,-47.6 543.9,-33.69 567.1,-23.59"/>
<polygon fill="midnightblue" stroke="midnightblue" points="568.67,-26.72 576.44,-19.52 565.88,-20.3 568.67,-26.72"/>
</g>
<!-- Node32&#45;&gt;Node33 -->
<g id="edge41" class="edge">
<title>Node32&#45;&gt;Node33</title>
<path fill="none" stroke="midnightblue" d="M435.4,-61.09C343.11,-51.19 105.65,-25.55 70,-20 66.77,-19.5 63.42,-18.93 60.08,-18.32"/>
<polygon fill="midnightblue" stroke="midnightblue" points="60.64,-14.86 50.16,-16.43 59.33,-21.74 60.64,-14.86"/>
</g>
<!-- Node32&#45;&gt;Node34 -->
<g id="edge42" class="edge">
<title>Node32&#45;&gt;Node34</title>
<path fill="none" stroke="midnightblue" d="M476.95,-56.08C481.1,-48.61 487.15,-37.72 492.27,-28.52"/>
<polygon fill="midnightblue" stroke="midnightblue" points="495.34,-30.19 497.14,-19.75 489.22,-26.79 495.34,-30.19"/>
</g>
</g>
</svg>
