<?xml version="1.0" encoding="UTF-8" standalone="no"?>
<!DOCTYPE svg PUBLIC "-//W3C//DTD SVG 1.1//EN"
 "http://www.w3.org/Graphics/SVG/1.1/DTD/svg11.dtd">
<!-- Generated by graphviz version 2.43.0 (0)
 -->
<!-- Title: src/host/process_launcher.h Pages: 1 -->
<svg width="1553pt" height="476pt"
 viewBox="0.00 0.00 1553.00 476.00" xmlns="http://www.w3.org/2000/svg" xmlns:xlink="http://www.w3.org/1999/xlink">
<g id="graph0" class="graph" transform="scale(1 1) rotate(0) translate(4 472)">
<title>src/host/process_launcher.h</title>
<polygon fill="white" stroke="transparent" points="-4,4 -4,-472 1549,-472 1549,4 -4,4"/>
<!-- Node1 -->
<g id="node1" class="node">
<title>Node1</title>
<g id="a_node1"><a xlink:title=" ">
<polygon fill="#bfbfbf" stroke="black" points="1302.5,-448.5 1302.5,-467.5 1453.5,-467.5 1453.5,-448.5 1302.5,-448.5"/>
<text text-anchor="middle" x="1378" y="-455.5" font-family="Helvetica,sans-Serif" font-size="10.00">src/host/process_launcher.h</text>
</a>
</g>
</g>
<!-- Node2 -->
<g id="node2" class="node">
<title>Node2</title>
<g id="a_node2"><a xlink:href="messaging_8h.html" target="_top" xlink:title=" ">
<polygon fill="white" stroke="black" points="953.5,-280.5 953.5,-299.5 1046.5,-299.5 1046.5,-280.5 953.5,-280.5"/>
<text text-anchor="middle" x="1000" y="-287.5" font-family="Helvetica,sans-Serif" font-size="10.00">ds/messaging.h</text>
</a>
</g>
</g>
<!-- Node1&#45;&gt;Node2 -->
<g id="edge1" class="edge">
<title>Node1&#45;&gt;Node2</title>
<path fill="none" stroke="midnightblue" d="M1323.82,-448.44C1286.39,-441.41 1235.97,-429.68 1194,-412 1125.16,-383 1052.7,-331.25 1019.14,-305.87"/>
<polygon fill="midnightblue" stroke="midnightblue" points="1021.17,-303.02 1011.1,-299.73 1016.92,-308.58 1021.17,-303.02"/>
</g>
<!-- Node40 -->
<g id="node40" class="node">
<title>Node40</title>
<g id="a_node40"><a xlink:href="interface_8h.html" target="_top" xlink:title=" ">
<polygon fill="white" stroke="black" points="1203,-392.5 1203,-411.5 1313,-411.5 1313,-392.5 1203,-392.5"/>
<text text-anchor="middle" x="1258" y="-399.5" font-family="Helvetica,sans-Serif" font-size="10.00">enclave/interface.h</text>
</a>
</g>
</g>
<!-- Node1&#45;&gt;Node40 -->
<g id="edge60" class="edge">
<title>Node1&#45;&gt;Node40</title>
<path fill="none" stroke="midnightblue" d="M1358.99,-448.44C1339.41,-439.64 1308.69,-425.81 1286.27,-415.72"/>
<polygon fill="midnightblue" stroke="midnightblue" points="1287.48,-412.43 1276.93,-411.52 1284.61,-418.81 1287.48,-412.43"/>
</g>
<!-- Node42 -->
<g id="node42" class="node">
<title>Node42</title>
<g id="a_node42"><a xlink:title=" ">
<polygon fill="white" stroke="#bfbfbf" points="1336.5,-280.5 1336.5,-299.5 1429.5,-299.5 1429.5,-280.5 1336.5,-280.5"/>
<text text-anchor="middle" x="1383" y="-287.5" font-family="Helvetica,sans-Serif" font-size="10.00">unordered_map</text>
</a>
</g>
</g>
<!-- Node1&#45;&gt;Node42 -->
<g id="edge72" class="edge">
<title>Node1&#45;&gt;Node42</title>
<path fill="none" stroke="midnightblue" d="M1378.27,-448.08C1379.06,-421.95 1381.37,-345.21 1382.44,-309.58"/>
<polygon fill="midnightblue" stroke="midnightblue" points="1385.94,-309.67 1382.74,-299.57 1378.94,-309.46 1385.94,-309.67"/>
</g>
<!-- Node43 -->
<g id="node43" class="node">
<title>Node43</title>
<g id="a_node43"><a xlink:title=" ">
<polygon fill="white" stroke="#bfbfbf" points="1320,-336.5 1320,-355.5 1370,-355.5 1370,-336.5 1320,-336.5"/>
<text text-anchor="middle" x="1345" y="-343.5" font-family="Helvetica,sans-Serif" font-size="10.00">chrono</text>
</a>
</g>
</g>
<!-- Node1&#45;&gt;Node43 -->
<g id="edge70" class="edge">
<title>Node1&#45;&gt;Node43</title>
<path fill="none" stroke="midnightblue" d="M1375.41,-448.37C1370.06,-430.54 1357.69,-389.3 1350.48,-365.27"/>
<polygon fill="midnightblue" stroke="midnightblue" points="1353.8,-364.16 1347.58,-355.59 1347.1,-366.18 1353.8,-364.16"/>
</g>
<!-- Node44 -->
<g id="node44" class="node">
<title>Node44</title>
<g id="a_node44"><a xlink:title=" ">
<polygon fill="white" stroke="#bfbfbf" points="1426.5,-392.5 1426.5,-411.5 1473.5,-411.5 1473.5,-392.5 1426.5,-392.5"/>
<text text-anchor="middle" x="1450" y="-399.5" font-family="Helvetica,sans-Serif" font-size="10.00">queue</text>
</a>
</g>
</g>
<!-- Node1&#45;&gt;Node44 -->
<g id="edge71" class="edge">
<title>Node1&#45;&gt;Node44</title>
<path fill="none" stroke="midnightblue" d="M1389.57,-448.32C1400.42,-440.18 1416.88,-427.84 1429.88,-418.09"/>
<polygon fill="midnightblue" stroke="midnightblue" points="1432.32,-420.63 1438.22,-411.83 1428.12,-415.03 1432.32,-420.63"/>
</g>
<!-- Node45 -->
<g id="node45" class="node">
<title>Node45</title>
<g id="a_node45"><a xlink:title=" ">
<polygon fill="white" stroke="#bfbfbf" points="1491.5,-392.5 1491.5,-411.5 1528.5,-411.5 1528.5,-392.5 1491.5,-392.5"/>
<text text-anchor="middle" x="1510" y="-399.5" font-family="Helvetica,sans-Serif" font-size="10.00">uv.h</text>
</a>
</g>
</g>
<!-- Node1&#45;&gt;Node45 -->
<g id="edge73" class="edge">
<title>Node1&#45;&gt;Node45</title>
<path fill="none" stroke="midnightblue" d="M1398.92,-448.44C1421.38,-439.25 1457.19,-424.61 1482.05,-414.43"/>
<polygon fill="midnightblue" stroke="midnightblue" points="1483.39,-417.67 1491.32,-410.64 1480.74,-411.19 1483.39,-417.67"/>
</g>
<!-- Node3 -->
<g id="node3" class="node">
<title>Node3</title>
<g id="a_node3"><a xlink:href="logger_8h.html" target="_top" xlink:title=" ">
<polygon fill="white" stroke="black" points="468.5,-224.5 468.5,-243.5 555.5,-243.5 555.5,-224.5 468.5,-224.5"/>
<text text-anchor="middle" x="512" y="-231.5" font-family="Helvetica,sans-Serif" font-size="10.00">ccf/ds/logger.h</text>
</a>
</g>
</g>
<!-- Node2&#45;&gt;Node3 -->
<g id="edge2" class="edge">
<title>Node2&#45;&gt;Node3</title>
<path fill="none" stroke="midnightblue" d="M953.21,-283.82C862.29,-273.76 662.26,-251.63 565.93,-240.97"/>
<polygon fill="midnightblue" stroke="midnightblue" points="566.15,-237.47 555.83,-239.85 565.38,-244.43 566.15,-237.47"/>
</g>
<!-- Node9 -->
<g id="node9" class="node">
<title>Node9</title>
<g id="a_node9"><a xlink:title=" ">
<polygon fill="white" stroke="#bfbfbf" points="0,-112.5 0,-131.5 38,-131.5 38,-112.5 0,-112.5"/>
<text text-anchor="middle" x="19" y="-119.5" font-family="Helvetica,sans-Serif" font-size="10.00">map</text>
</a>
</g>
</g>
<!-- Node2&#45;&gt;Node9 -->
<g id="edge58" class="edge">
<title>Node2&#45;&gt;Node9</title>
<path fill="none" stroke="midnightblue" d="M953.37,-287.18C770.42,-279.62 108.2,-248.26 38,-188 24.78,-176.65 20.5,-156.65 19.24,-141.83"/>
<polygon fill="midnightblue" stroke="midnightblue" points="22.73,-141.55 18.76,-131.73 15.73,-141.88 22.73,-141.55"/>
</g>
<!-- Node17 -->
<g id="node17" class="node">
<title>Node17</title>
<g id="a_node17"><a xlink:href="ring__buffer_8h.html" target="_top" xlink:title=" ">
<polygon fill="white" stroke="black" points="1278.5,-224.5 1278.5,-243.5 1355.5,-243.5 1355.5,-224.5 1278.5,-224.5"/>
<text text-anchor="middle" x="1317" y="-231.5" font-family="Helvetica,sans-Serif" font-size="10.00">ring_buffer.h</text>
</a>
</g>
</g>
<!-- Node2&#45;&gt;Node17 -->
<g id="edge18" class="edge">
<title>Node2&#45;&gt;Node17</title>
<path fill="none" stroke="midnightblue" d="M1046.77,-281.03C1106.04,-270.94 1207.69,-253.62 1268,-243.35"/>
<polygon fill="midnightblue" stroke="midnightblue" points="1268.76,-246.77 1278.03,-241.64 1267.58,-239.87 1268.76,-246.77"/>
</g>
<!-- Node34 -->
<g id="node34" class="node">
<title>Node34</title>
<g id="a_node34"><a xlink:title=" ">
<polygon fill="white" stroke="#bfbfbf" points="1407.5,-0.5 1407.5,-19.5 1472.5,-19.5 1472.5,-0.5 1407.5,-0.5"/>
<text text-anchor="middle" x="1440" y="-7.5" font-family="Helvetica,sans-Serif" font-size="10.00">stdexcept</text>
</a>
</g>
</g>
<!-- Node2&#45;&gt;Node34 -->
<g id="edge59" class="edge">
<title>Node2&#45;&gt;Node34</title>
<path fill="none" stroke="midnightblue" d="M1019.41,-280.47C1106.75,-242.04 1459.26,-86.49 1466,-76 1475.7,-60.9 1465.56,-41.6 1455.24,-27.96"/>
<polygon fill="midnightblue" stroke="midnightblue" points="1457.69,-25.43 1448.64,-19.92 1452.28,-29.87 1457.69,-25.43"/>
</g>
<!-- Node37 -->
<g id="node37" class="node">
<title>Node37</title>
<g id="a_node37"><a xlink:title=" ">
<polygon fill="white" stroke="#bfbfbf" points="1088,-112.5 1088,-131.5 1138,-131.5 1138,-112.5 1088,-112.5"/>
<text text-anchor="middle" x="1113" y="-119.5" font-family="Helvetica,sans-Serif" font-size="10.00">atomic</text>
</a>
</g>
</g>
<!-- Node2&#45;&gt;Node37 -->
<g id="edge56" class="edge">
<title>Node2&#45;&gt;Node37</title>
<path fill="none" stroke="midnightblue" d="M1013.65,-280.38C1025.74,-272.19 1043.26,-258.94 1055,-244 1080.45,-211.61 1098.42,-166.23 1107.09,-141.27"/>
<polygon fill="midnightblue" stroke="midnightblue" points="1110.46,-142.22 1110.33,-131.63 1103.83,-140 1110.46,-142.22"/>
</g>
<!-- Node39 -->
<g id="node39" class="node">
<title>Node39</title>
<g id="a_node39"><a xlink:title=" ">
<polygon fill="white" stroke="#bfbfbf" points="939.5,-224.5 939.5,-243.5 1046.5,-243.5 1046.5,-224.5 939.5,-224.5"/>
<text text-anchor="middle" x="993" y="-231.5" font-family="Helvetica,sans-Serif" font-size="10.00">condition_variable</text>
</a>
</g>
</g>
<!-- Node2&#45;&gt;Node39 -->
<g id="edge57" class="edge">
<title>Node2&#45;&gt;Node39</title>
<path fill="none" stroke="midnightblue" d="M998.84,-280.08C997.92,-272.93 996.58,-262.64 995.42,-253.69"/>
<polygon fill="midnightblue" stroke="midnightblue" points="998.89,-253.22 994.13,-243.75 991.95,-254.12 998.89,-253.22"/>
</g>
<!-- Node4 -->
<g id="node4" class="node">
<title>Node4</title>
<g id="a_node4"><a xlink:href="enum__formatter_8h.html" target="_top" xlink:title=" ">
<polygon fill="white" stroke="black" points="514,-168.5 514,-187.5 650,-187.5 650,-168.5 514,-168.5"/>
<text text-anchor="middle" x="582" y="-175.5" font-family="Helvetica,sans-Serif" font-size="10.00">ccf/ds/enum_formatter.h</text>
</a>
</g>
</g>
<!-- Node3&#45;&gt;Node4 -->
<g id="edge3" class="edge">
<title>Node3&#45;&gt;Node4</title>
<path fill="none" stroke="midnightblue" d="M523.25,-224.32C533.8,-216.18 549.8,-203.84 562.44,-194.09"/>
<polygon fill="midnightblue" stroke="midnightblue" points="564.77,-196.71 570.55,-187.83 560.49,-191.17 564.77,-196.71"/>
</g>
<!-- Node5 -->
<g id="node5" class="node">
<title>Node5</title>
<g id="a_node5"><a xlink:title=" ">
<polygon fill="white" stroke="#bfbfbf" points="508.5,-112.5 508.5,-131.5 587.5,-131.5 587.5,-112.5 508.5,-112.5"/>
<text text-anchor="middle" x="548" y="-119.5" font-family="Helvetica,sans-Serif" font-size="10.00">fmt/format.h</text>
</a>
</g>
</g>
<!-- Node3&#45;&gt;Node5 -->
<g id="edge12" class="edge">
<title>Node3&#45;&gt;Node5</title>
<path fill="none" stroke="midnightblue" d="M468.46,-233.36C391.41,-232.98 235.94,-227.22 202,-188 196.18,-181.28 196.13,-174.68 202,-168 221.25,-146.09 407.33,-131.68 498.36,-125.88"/>
<polygon fill="midnightblue" stroke="midnightblue" points="498.68,-129.37 508.44,-125.25 498.24,-122.38 498.68,-129.37"/>
</g>
<!-- Node6 -->
<g id="node6" class="node">
<title>Node6</title>
<g id="a_node6"><a xlink:href="thread__ids_8h.html" target="_top" xlink:title=" ">
<polygon fill="white" stroke="black" points="47,-168.5 47,-187.5 155,-187.5 155,-168.5 47,-168.5"/>
<text text-anchor="middle" x="101" y="-175.5" font-family="Helvetica,sans-Serif" font-size="10.00">ccf/ds/thread_ids.h</text>
</a>
</g>
</g>
<!-- Node3&#45;&gt;Node6 -->
<g id="edge5" class="edge">
<title>Node3&#45;&gt;Node6</title>
<path fill="none" stroke="midnightblue" d="M468.41,-227.3C403.26,-218.77 276.63,-202.18 169,-188 167.74,-187.83 166.46,-187.67 165.18,-187.5"/>
<polygon fill="midnightblue" stroke="midnightblue" points="165.56,-184.02 155.19,-186.18 164.65,-190.96 165.56,-184.02"/>
</g>
<!-- Node11 -->
<g id="node11" class="node">
<title>Node11</title>
<g id="a_node11"><a xlink:title=" ">
<polygon fill="white" stroke="#bfbfbf" points="211.5,-168.5 211.5,-187.5 290.5,-187.5 290.5,-168.5 211.5,-168.5"/>
<text text-anchor="middle" x="251" y="-175.5" font-family="Helvetica,sans-Serif" font-size="10.00">fmt/chrono.h</text>
</a>
</g>
</g>
<!-- Node3&#45;&gt;Node11 -->
<g id="edge11" class="edge">
<title>Node3&#45;&gt;Node11</title>
<path fill="none" stroke="midnightblue" d="M470.64,-224.44C424.52,-214.9 349.93,-199.47 300.68,-189.28"/>
<polygon fill="midnightblue" stroke="midnightblue" points="301.38,-185.85 290.88,-187.25 299.96,-192.7 301.38,-185.85"/>
</g>
<!-- Node12 -->
<g id="node12" class="node">
<title>Node12</title>
<g id="a_node12"><a xlink:title=" ">
<polygon fill="white" stroke="#bfbfbf" points="308,-168.5 308,-187.5 368,-187.5 368,-168.5 308,-168.5"/>
<text text-anchor="middle" x="338" y="-175.5" font-family="Helvetica,sans-Serif" font-size="10.00">iostream</text>
</a>
</g>
</g>
<!-- Node3&#45;&gt;Node12 -->
<g id="edge13" class="edge">
<title>Node3&#45;&gt;Node12</title>
<path fill="none" stroke="midnightblue" d="M484.43,-224.44C454.9,-215.28 407.88,-200.69 375.12,-190.52"/>
<polygon fill="midnightblue" stroke="midnightblue" points="376.03,-187.14 365.44,-187.52 373.96,-193.82 376.03,-187.14"/>
</g>
<!-- Node13 -->
<g id="node13" class="node">
<title>Node13</title>
<g id="a_node13"><a xlink:title=" ">
<polygon fill="white" stroke="#bfbfbf" points="386,-168.5 386,-187.5 496,-187.5 496,-168.5 386,-168.5"/>
<text text-anchor="middle" x="441" y="-175.5" font-family="Helvetica,sans-Serif" font-size="10.00">nlohmann/json.hpp</text>
</a>
</g>
</g>
<!-- Node3&#45;&gt;Node13 -->
<g id="edge14" class="edge">
<title>Node3&#45;&gt;Node13</title>
<path fill="none" stroke="midnightblue" d="M500.59,-224.32C489.89,-216.18 473.66,-203.84 460.84,-194.09"/>
<polygon fill="midnightblue" stroke="midnightblue" points="462.69,-191.1 452.61,-187.83 458.46,-196.67 462.69,-191.1"/>
</g>
<!-- Node14 -->
<g id="node14" class="node">
<title>Node14</title>
<g id="a_node14"><a xlink:title=" ">
<polygon fill="white" stroke="#bfbfbf" points="644,-112.5 644,-131.5 700,-131.5 700,-112.5 644,-112.5"/>
<text text-anchor="middle" x="672" y="-119.5" font-family="Helvetica,sans-Serif" font-size="10.00">optional</text>
</a>
</g>
</g>
<!-- Node3&#45;&gt;Node14 -->
<g id="edge15" class="edge">
<title>Node3&#45;&gt;Node14</title>
<path fill="none" stroke="midnightblue" d="M555.63,-232.92C629.09,-231.75 772.53,-224.7 804,-188 809.79,-181.25 809.17,-175.23 804,-168 798.3,-160.04 747.08,-144.16 710.16,-133.56"/>
<polygon fill="midnightblue" stroke="midnightblue" points="710.75,-130.09 700.17,-130.72 708.83,-136.82 710.75,-130.09"/>
</g>
<!-- Node15 -->
<g id="node15" class="node">
<title>Node15</title>
<g id="a_node15"><a xlink:title=" ">
<polygon fill="white" stroke="#bfbfbf" points="668,-168.5 668,-187.5 724,-187.5 724,-168.5 668,-168.5"/>
<text text-anchor="middle" x="696" y="-175.5" font-family="Helvetica,sans-Serif" font-size="10.00">sstream</text>
</a>
</g>
</g>
<!-- Node3&#45;&gt;Node15 -->
<g id="edge16" class="edge">
<title>Node3&#45;&gt;Node15</title>
<path fill="none" stroke="midnightblue" d="M541.16,-224.44C572.79,-215.16 623.41,-200.3 658.11,-190.12"/>
<polygon fill="midnightblue" stroke="midnightblue" points="659.28,-193.43 667.89,-187.25 657.31,-186.71 659.28,-193.43"/>
</g>
<!-- Node16 -->
<g id="node16" class="node">
<title>Node16</title>
<g id="a_node16"><a xlink:title=" ">
<polygon fill="white" stroke="#bfbfbf" points="493.5,-0.5 493.5,-19.5 562.5,-19.5 562.5,-0.5 493.5,-0.5"/>
<text text-anchor="middle" x="528" y="-7.5" font-family="Helvetica,sans-Serif" font-size="10.00">type_traits</text>
</a>
</g>
</g>
<!-- Node3&#45;&gt;Node16 -->
<g id="edge17" class="edge">
<title>Node3&#45;&gt;Node16</title>
<path fill="none" stroke="midnightblue" d="M555.89,-230.46C613.82,-226.08 711.08,-214.84 733,-188 738.62,-181.12 738.09,-175.29 733,-168 706.44,-129.95 675.93,-153.85 635,-132 597.67,-112.07 584.84,-108.71 558,-76 546.68,-62.2 538.62,-43.43 533.72,-29.61"/>
<polygon fill="midnightblue" stroke="midnightblue" points="536.93,-28.17 530.47,-19.77 530.29,-30.36 536.93,-28.17"/>
</g>
<!-- Node4&#45;&gt;Node5 -->
<g id="edge4" class="edge">
<title>Node4&#45;&gt;Node5</title>
<path fill="none" stroke="midnightblue" d="M576.39,-168.08C571.63,-160.53 564.68,-149.49 558.85,-140.23"/>
<polygon fill="midnightblue" stroke="midnightblue" points="561.8,-138.35 553.51,-131.75 555.88,-142.08 561.8,-138.35"/>
</g>
<!-- Node6&#45;&gt;Node5 -->
<g id="edge6" class="edge">
<title>Node6&#45;&gt;Node5</title>
<path fill="none" stroke="midnightblue" d="M155.18,-169.76C159.85,-169.16 164.51,-168.56 169,-168 286.96,-153.19 425.75,-137.04 498.22,-128.7"/>
<polygon fill="midnightblue" stroke="midnightblue" points="498.89,-132.14 508.42,-127.52 498.09,-125.19 498.89,-132.14"/>
</g>
<!-- Node7 -->
<g id="node7" class="node">
<title>Node7</title>
<g id="a_node7"><a xlink:title=" ">
<polygon fill="white" stroke="#bfbfbf" points="56,-112.5 56,-131.5 142,-131.5 142,-112.5 56,-112.5"/>
<text text-anchor="middle" x="99" y="-119.5" font-family="Helvetica,sans-Serif" font-size="10.00">fmt/ostream.h</text>
</a>
</g>
</g>
<!-- Node6&#45;&gt;Node7 -->
<g id="edge7" class="edge">
<title>Node6&#45;&gt;Node7</title>
<path fill="none" stroke="midnightblue" d="M100.67,-168.08C100.41,-161.01 100.03,-150.86 99.7,-141.99"/>
<polygon fill="midnightblue" stroke="midnightblue" points="103.19,-141.61 99.32,-131.75 96.2,-141.87 103.19,-141.61"/>
</g>
<!-- Node8 -->
<g id="node8" class="node">
<title>Node8</title>
<g id="a_node8"><a xlink:title=" ">
<polygon fill="white" stroke="#bfbfbf" points="160,-112.5 160,-131.5 204,-131.5 204,-112.5 160,-112.5"/>
<text text-anchor="middle" x="182" y="-119.5" font-family="Helvetica,sans-Serif" font-size="10.00">limits</text>
</a>
</g>
</g>
<!-- Node6&#45;&gt;Node8 -->
<g id="edge8" class="edge">
<title>Node6&#45;&gt;Node8</title>
<path fill="none" stroke="midnightblue" d="M114.01,-168.32C126.53,-159.98 145.68,-147.21 160.47,-137.35"/>
<polygon fill="midnightblue" stroke="midnightblue" points="162.64,-140.11 169.02,-131.65 158.76,-134.29 162.64,-140.11"/>
</g>
<!-- Node6&#45;&gt;Node9 -->
<g id="edge9" class="edge">
<title>Node6&#45;&gt;Node9</title>
<path fill="none" stroke="midnightblue" d="M87.83,-168.32C75.15,-159.98 55.77,-147.21 40.79,-137.35"/>
<polygon fill="midnightblue" stroke="midnightblue" points="42.42,-134.23 32.14,-131.65 38.57,-140.08 42.42,-134.23"/>
</g>
<!-- Node10 -->
<g id="node10" class="node">
<title>Node10</title>
<g id="a_node10"><a xlink:title=" ">
<polygon fill="white" stroke="#bfbfbf" points="222,-112.5 222,-131.5 270,-131.5 270,-112.5 222,-112.5"/>
<text text-anchor="middle" x="246" y="-119.5" font-family="Helvetica,sans-Serif" font-size="10.00">thread</text>
</a>
</g>
</g>
<!-- Node6&#45;&gt;Node10 -->
<g id="edge10" class="edge">
<title>Node6&#45;&gt;Node10</title>
<path fill="none" stroke="midnightblue" d="M123.98,-168.44C148.16,-159.44 186.42,-145.19 213.65,-135.05"/>
<polygon fill="midnightblue" stroke="midnightblue" points="214.98,-138.29 223.13,-131.52 212.54,-131.73 214.98,-138.29"/>
</g>
<!-- Node18 -->
<g id="node18" class="node">
<title>Node18</title>
<g id="a_node18"><a xlink:href="ring__buffer__types_8h.html" target="_top" xlink:title=" ">
<polygon fill="white" stroke="black" points="856,-168.5 856,-187.5 966,-187.5 966,-168.5 856,-168.5"/>
<text text-anchor="middle" x="911" y="-175.5" font-family="Helvetica,sans-Serif" font-size="10.00">ring_buffer_types.h</text>
</a>
</g>
</g>
<!-- Node17&#45;&gt;Node18 -->
<g id="edge19" class="edge">
<title>Node17&#45;&gt;Node18</title>
<path fill="none" stroke="midnightblue" d="M1278.44,-227.87C1208.92,-218.62 1061.87,-199.07 976.38,-187.7"/>
<polygon fill="midnightblue" stroke="midnightblue" points="976.64,-184.2 966.26,-186.35 975.72,-191.14 976.64,-184.2"/>
</g>
<!-- Node33 -->
<g id="node33" class="node">
<title>Node33</title>
<g id="a_node33"><a xlink:title=" ">
<polygon fill="white" stroke="#bfbfbf" points="1495,-0.5 1495,-19.5 1545,-19.5 1545,-0.5 1495,-0.5"/>
<text text-anchor="middle" x="1520" y="-7.5" font-family="Helvetica,sans-Serif" font-size="10.00">cstring</text>
</a>
</g>
</g>
<!-- Node17&#45;&gt;Node33 -->
<g id="edge54" class="edge">
<title>Node17&#45;&gt;Node33</title>
<path fill="none" stroke="midnightblue" d="M1331.81,-224.43C1366.51,-203.59 1453.65,-146.73 1500,-76 1509.2,-61.96 1514.35,-43.46 1517.11,-29.79"/>
<polygon fill="midnightblue" stroke="midnightblue" points="1520.61,-30.11 1518.91,-19.65 1513.72,-28.89 1520.61,-30.11"/>
</g>
<!-- Node38 -->
<g id="node38" class="node">
<title>Node38</title>
<g id="a_node38"><a xlink:title=" ">
<polygon fill="white" stroke="#bfbfbf" points="1284.5,-168.5 1284.5,-187.5 1349.5,-187.5 1349.5,-168.5 1284.5,-168.5"/>
<text text-anchor="middle" x="1317" y="-175.5" font-family="Helvetica,sans-Serif" font-size="10.00">functional</text>
</a>
</g>
</g>
<!-- Node17&#45;&gt;Node38 -->
<g id="edge55" class="edge">
<title>Node17&#45;&gt;Node38</title>
<path fill="none" stroke="midnightblue" d="M1317,-224.08C1317,-217.01 1317,-206.86 1317,-197.99"/>
<polygon fill="midnightblue" stroke="midnightblue" points="1320.5,-197.75 1317,-187.75 1313.5,-197.75 1320.5,-197.75"/>
</g>
<!-- Node18&#45;&gt;Node5 -->
<g id="edge50" class="edge">
<title>Node18&#45;&gt;Node5</title>
<path fill="none" stroke="midnightblue" d="M855.87,-168.8C785.6,-158.34 665.15,-140.43 597.62,-130.38"/>
<polygon fill="midnightblue" stroke="midnightblue" points="598.06,-126.91 587.66,-128.9 597.03,-133.83 598.06,-126.91"/>
</g>
<!-- Node18&#45;&gt;Node14 -->
<g id="edge51" class="edge">
<title>Node18&#45;&gt;Node14</title>
<path fill="none" stroke="midnightblue" d="M873.13,-168.44C828.56,-158.37 754.97,-141.75 710.24,-131.64"/>
<polygon fill="midnightblue" stroke="midnightblue" points="710.86,-128.19 700.34,-129.4 709.32,-135.02 710.86,-128.19"/>
</g>
<!-- Node19 -->
<g id="node19" class="node">
<title>Node19</title>
<g id="a_node19"><a xlink:href="include_2ccf_2ds_2hash_8h.html" target="_top" xlink:title=" ">
<polygon fill="white" stroke="black" points="990,-112.5 990,-131.5 1070,-131.5 1070,-112.5 990,-112.5"/>
<text text-anchor="middle" x="1030" y="-119.5" font-family="Helvetica,sans-Serif" font-size="10.00">ccf/ds/hash.h</text>
</a>
</g>
</g>
<!-- Node18&#45;&gt;Node19 -->
<g id="edge20" class="edge">
<title>Node18&#45;&gt;Node19</title>
<path fill="none" stroke="midnightblue" d="M929.86,-168.44C949.27,-159.64 979.73,-145.81 1001.96,-135.72"/>
<polygon fill="midnightblue" stroke="midnightblue" points="1003.57,-138.84 1011.23,-131.52 1000.68,-132.46 1003.57,-138.84"/>
</g>
<!-- Node23 -->
<g id="node23" class="node">
<title>Node23</title>
<g id="a_node23"><a xlink:title=" ">
<polygon fill="white" stroke="#bfbfbf" points="1142.5,-0.5 1142.5,-19.5 1189.5,-19.5 1189.5,-0.5 1142.5,-0.5"/>
<text text-anchor="middle" x="1166" y="-7.5" font-family="Helvetica,sans-Serif" font-size="10.00">vector</text>
</a>
</g>
</g>
<!-- Node18&#45;&gt;Node23 -->
<g id="edge53" class="edge">
<title>Node18&#45;&gt;Node23</title>
<path fill="none" stroke="midnightblue" d="M913.31,-168.38C919.77,-146.05 940.19,-85.95 980,-56 1025.09,-22.08 1092.21,-13.36 1132.29,-11.33"/>
<polygon fill="midnightblue" stroke="midnightblue" points="1132.49,-14.83 1142.35,-10.94 1132.22,-7.83 1132.49,-14.83"/>
</g>
<!-- Node26 -->
<g id="node26" class="node">
<title>Node26</title>
<g id="a_node26"><a xlink:href="nonstd_8h.html" target="_top" xlink:title=" ">
<polygon fill="white" stroke="black" points="594,-56.5 594,-75.5 684,-75.5 684,-56.5 594,-56.5"/>
<text text-anchor="middle" x="639" y="-63.5" font-family="Helvetica,sans-Serif" font-size="10.00">ccf/ds/nonstd.h</text>
</a>
</g>
</g>
<!-- Node18&#45;&gt;Node26 -->
<g id="edge29" class="edge">
<title>Node18&#45;&gt;Node26</title>
<path fill="none" stroke="midnightblue" d="M867.43,-168.47C833.74,-161.06 786.35,-148.86 747,-132 729.73,-124.6 687.02,-97.87 660.78,-81.08"/>
<polygon fill="midnightblue" stroke="midnightblue" points="662.56,-78.06 652.25,-75.6 658.78,-83.95 662.56,-78.06"/>
</g>
<!-- Node29 -->
<g id="node29" class="node">
<title>Node29</title>
<g id="a_node29"><a xlink:title=" ">
<polygon fill="white" stroke="#bfbfbf" points="881,-0.5 881,-19.5 925,-19.5 925,-0.5 881,-0.5"/>
<text text-anchor="middle" x="903" y="-7.5" font-family="Helvetica,sans-Serif" font-size="10.00">string</text>
</a>
</g>
</g>
<!-- Node18&#45;&gt;Node29 -->
<g id="edge52" class="edge">
<title>Node18&#45;&gt;Node29</title>
<path fill="none" stroke="midnightblue" d="M910.57,-168.08C909.31,-141.95 905.61,-65.21 903.9,-29.58"/>
<polygon fill="midnightblue" stroke="midnightblue" points="907.39,-29.39 903.41,-19.57 900.4,-29.73 907.39,-29.39"/>
</g>
<!-- Node31 -->
<g id="node31" class="node">
<title>Node31</title>
<g id="a_node31"><a xlink:href="serializer_8h.html" target="_top" xlink:title=" ">
<polygon fill="white" stroke="black" points="756,-112.5 756,-131.5 826,-131.5 826,-112.5 756,-112.5"/>
<text text-anchor="middle" x="791" y="-119.5" font-family="Helvetica,sans-Serif" font-size="10.00">serializer.h</text>
</a>
</g>
</g>
<!-- Node18&#45;&gt;Node31 -->
<g id="edge37" class="edge">
<title>Node18&#45;&gt;Node31</title>
<path fill="none" stroke="midnightblue" d="M891.99,-168.44C872.41,-159.64 841.69,-145.81 819.27,-135.72"/>
<polygon fill="midnightblue" stroke="midnightblue" points="820.48,-132.43 809.93,-131.52 817.61,-138.81 820.48,-132.43"/>
</g>
<!-- Node18&#45;&gt;Node37 -->
<g id="edge49" class="edge">
<title>Node18&#45;&gt;Node37</title>
<path fill="none" stroke="midnightblue" d="M943.01,-168.44C979.72,-158.63 1039.72,-142.59 1077.74,-132.43"/>
<polygon fill="midnightblue" stroke="midnightblue" points="1079.09,-135.69 1087.84,-129.73 1077.28,-128.93 1079.09,-135.69"/>
</g>
<!-- Node20 -->
<g id="node20" class="node">
<title>Node20</title>
<g id="a_node20"><a xlink:href="siphash_8h.html" target="_top" xlink:title=" ">
<polygon fill="white" stroke="black" points="1232.5,-56.5 1232.5,-75.5 1327.5,-75.5 1327.5,-56.5 1232.5,-56.5"/>
<text text-anchor="middle" x="1280" y="-63.5" font-family="Helvetica,sans-Serif" font-size="10.00">ccf/ds/siphash.h</text>
</a>
</g>
</g>
<!-- Node19&#45;&gt;Node20 -->
<g id="edge21" class="edge">
<title>Node19&#45;&gt;Node20</title>
<path fill="none" stroke="midnightblue" d="M1069.61,-112.44C1113.23,-103.02 1183.4,-87.87 1230.58,-77.68"/>
<polygon fill="midnightblue" stroke="midnightblue" points="1231.54,-81.05 1240.57,-75.52 1230.06,-74.21 1231.54,-81.05"/>
</g>
<!-- Node22 -->
<g id="node22" class="node">
<title>Node22</title>
<g id="a_node22"><a xlink:title=" ">
<polygon fill="white" stroke="#bfbfbf" points="1331,-0.5 1331,-19.5 1381,-19.5 1381,-0.5 1331,-0.5"/>
<text text-anchor="middle" x="1356" y="-7.5" font-family="Helvetica,sans-Serif" font-size="10.00">cstdint</text>
</a>
</g>
</g>
<!-- Node19&#45;&gt;Node22 -->
<g id="edge26" class="edge">
<title>Node19&#45;&gt;Node22</title>
<path fill="none" stroke="midnightblue" d="M1070.09,-113.49C1073.1,-112.97 1076.1,-112.47 1079,-112 1135.93,-102.79 1292.11,-113.4 1336,-76 1349.32,-64.65 1353.92,-44.65 1355.43,-29.83"/>
<polygon fill="midnightblue" stroke="midnightblue" points="1358.93,-29.93 1356.08,-19.73 1351.95,-29.48 1358.93,-29.93"/>
</g>
<!-- Node19&#45;&gt;Node23 -->
<g id="edge28" class="edge">
<title>Node19&#45;&gt;Node23</title>
<path fill="none" stroke="midnightblue" d="M1061.19,-112.42C1091.65,-103.46 1135.1,-88.93 1147,-76 1158.56,-63.44 1163.12,-44.22 1164.9,-29.93"/>
<polygon fill="midnightblue" stroke="midnightblue" points="1168.41,-30.03 1165.81,-19.76 1161.43,-29.4 1168.41,-30.03"/>
</g>
<!-- Node24 -->
<g id="node24" class="node">
<title>Node24</title>
<g id="a_node24"><a xlink:title=" ">
<polygon fill="white" stroke="#bfbfbf" points="821,-0.5 821,-19.5 863,-19.5 863,-0.5 821,-0.5"/>
<text text-anchor="middle" x="842" y="-7.5" font-family="Helvetica,sans-Serif" font-size="10.00">array</text>
</a>
</g>
</g>
<!-- Node19&#45;&gt;Node24 -->
<g id="edge25" class="edge">
<title>Node19&#45;&gt;Node24</title>
<path fill="none" stroke="midnightblue" d="M1015.25,-112.37C982.71,-93.33 904.58,-47.62 865.33,-24.65"/>
<polygon fill="midnightblue" stroke="midnightblue" points="867.08,-21.62 856.68,-19.59 863.55,-27.66 867.08,-21.62"/>
</g>
<!-- Node25 -->
<g id="node25" class="node">
<title>Node25</title>
<g id="a_node25"><a xlink:title=" ">
<polygon fill="white" stroke="#bfbfbf" points="989.5,-56.5 989.5,-75.5 1138.5,-75.5 1138.5,-56.5 989.5,-56.5"/>
<text text-anchor="middle" x="1064" y="-63.5" font-family="Helvetica,sans-Serif" font-size="10.00">small_vector/SmallVector.h</text>
</a>
</g>
</g>
<!-- Node19&#45;&gt;Node25 -->
<g id="edge27" class="edge">
<title>Node19&#45;&gt;Node25</title>
<path fill="none" stroke="midnightblue" d="M1035.61,-112.08C1040.37,-104.53 1047.32,-93.49 1053.15,-84.23"/>
<polygon fill="midnightblue" stroke="midnightblue" points="1056.12,-86.08 1058.49,-75.75 1050.2,-82.35 1056.12,-86.08"/>
</g>
<!-- Node21 -->
<g id="node21" class="node">
<title>Node21</title>
<g id="a_node21"><a xlink:title=" ">
<polygon fill="white" stroke="#bfbfbf" points="1253.5,-0.5 1253.5,-19.5 1306.5,-19.5 1306.5,-0.5 1253.5,-0.5"/>
<text text-anchor="middle" x="1280" y="-7.5" font-family="Helvetica,sans-Serif" font-size="10.00">cstddef</text>
</a>
</g>
</g>
<!-- Node20&#45;&gt;Node21 -->
<g id="edge22" class="edge">
<title>Node20&#45;&gt;Node21</title>
<path fill="none" stroke="midnightblue" d="M1280,-56.08C1280,-49.01 1280,-38.86 1280,-29.99"/>
<polygon fill="midnightblue" stroke="midnightblue" points="1283.5,-29.75 1280,-19.75 1276.5,-29.75 1283.5,-29.75"/>
</g>
<!-- Node20&#45;&gt;Node22 -->
<g id="edge23" class="edge">
<title>Node20&#45;&gt;Node22</title>
<path fill="none" stroke="midnightblue" d="M1292.21,-56.32C1303.78,-48.11 1321.38,-35.6 1335.16,-25.81"/>
<polygon fill="midnightblue" stroke="midnightblue" points="1337.44,-28.48 1343.57,-19.83 1333.39,-22.77 1337.44,-28.48"/>
</g>
<!-- Node20&#45;&gt;Node23 -->
<g id="edge24" class="edge">
<title>Node20&#45;&gt;Node23</title>
<path fill="none" stroke="midnightblue" d="M1261.94,-56.44C1243.43,-47.68 1214.42,-33.94 1193.14,-23.86"/>
<polygon fill="midnightblue" stroke="midnightblue" points="1194.51,-20.63 1183.98,-19.52 1191.52,-26.96 1194.51,-20.63"/>
</g>
<!-- Node26&#45;&gt;Node16 -->
<g id="edge35" class="edge">
<title>Node26&#45;&gt;Node16</title>
<path fill="none" stroke="midnightblue" d="M621.17,-56.32C603.28,-47.62 575.52,-34.12 554.95,-24.11"/>
<polygon fill="midnightblue" stroke="midnightblue" points="556.31,-20.88 545.79,-19.65 553.25,-27.18 556.31,-20.88"/>
</g>
<!-- Node26&#45;&gt;Node23 -->
<g id="edge36" class="edge">
<title>Node26&#45;&gt;Node23</title>
<path fill="none" stroke="midnightblue" d="M684.05,-57.25C687.07,-56.8 690.08,-56.38 693,-56 857.05,-34.55 1054.38,-19.09 1132.15,-13.4"/>
<polygon fill="midnightblue" stroke="midnightblue" points="1132.59,-16.88 1142.31,-12.66 1132.08,-9.89 1132.59,-16.88"/>
</g>
<!-- Node26&#45;&gt;Node24 -->
<g id="edge31" class="edge">
<title>Node26&#45;&gt;Node24</title>
<path fill="none" stroke="midnightblue" d="M673.24,-56.49C706.16,-48.22 757.56,-35.08 810.77,-20.27"/>
<polygon fill="midnightblue" stroke="midnightblue" points="812.04,-23.55 820.72,-17.49 810.15,-16.81 812.04,-23.55"/>
</g>
<!-- Node27 -->
<g id="node27" class="node">
<title>Node27</title>
<g id="a_node27"><a xlink:title=" ">
<polygon fill="white" stroke="#bfbfbf" points="739,-0.5 739,-19.5 803,-19.5 803,-0.5 739,-0.5"/>
<text text-anchor="middle" x="771" y="-7.5" font-family="Helvetica,sans-Serif" font-size="10.00">algorithm</text>
</a>
</g>
</g>
<!-- Node26&#45;&gt;Node27 -->
<g id="edge30" class="edge">
<title>Node26&#45;&gt;Node27</title>
<path fill="none" stroke="midnightblue" d="M659.92,-56.44C681.74,-47.52 716.15,-33.44 740.89,-23.32"/>
<polygon fill="midnightblue" stroke="midnightblue" points="742.25,-26.54 750.18,-19.52 739.6,-20.06 742.25,-26.54"/>
</g>
<!-- Node28 -->
<g id="node28" class="node">
<title>Node28</title>
<g id="a_node28"><a xlink:title=" ">
<polygon fill="white" stroke="#bfbfbf" points="580.5,-0.5 580.5,-19.5 629.5,-19.5 629.5,-0.5 580.5,-0.5"/>
<text text-anchor="middle" x="605" y="-7.5" font-family="Helvetica,sans-Serif" font-size="10.00">cctype</text>
</a>
</g>
</g>
<!-- Node26&#45;&gt;Node28 -->
<g id="edge32" class="edge">
<title>Node26&#45;&gt;Node28</title>
<path fill="none" stroke="midnightblue" d="M633.39,-56.08C628.63,-48.53 621.68,-37.49 615.85,-28.23"/>
<polygon fill="midnightblue" stroke="midnightblue" points="618.8,-26.35 610.51,-19.75 612.88,-30.08 618.8,-26.35"/>
</g>
<!-- Node26&#45;&gt;Node29 -->
<g id="edge33" class="edge">
<title>Node26&#45;&gt;Node29</title>
<path fill="none" stroke="midnightblue" d="M684.18,-56.78C737.46,-47.01 823.81,-30.9 870.77,-20.09"/>
<polygon fill="midnightblue" stroke="midnightblue" points="871.79,-23.45 880.71,-17.74 870.18,-16.63 871.79,-23.45"/>
</g>
<!-- Node30 -->
<g id="node30" class="node">
<title>Node30</title>
<g id="a_node30"><a xlink:title=" ">
<polygon fill="white" stroke="#bfbfbf" points="647.5,-0.5 647.5,-19.5 720.5,-19.5 720.5,-0.5 647.5,-0.5"/>
<text text-anchor="middle" x="684" y="-7.5" font-family="Helvetica,sans-Serif" font-size="10.00">string_view</text>
</a>
</g>
</g>
<!-- Node26&#45;&gt;Node30 -->
<g id="edge34" class="edge">
<title>Node26&#45;&gt;Node30</title>
<path fill="none" stroke="midnightblue" d="M646.43,-56.08C652.85,-48.38 662.31,-37.03 670.12,-27.65"/>
<polygon fill="midnightblue" stroke="midnightblue" points="672.99,-29.67 676.71,-19.75 667.62,-25.19 672.99,-29.67"/>
</g>
<!-- Node31&#45;&gt;Node16 -->
<g id="edge47" class="edge">
<title>Node31&#45;&gt;Node16</title>
<path fill="none" stroke="midnightblue" d="M755.66,-116.01C704.7,-108.36 613.53,-92.83 585,-76 565.28,-64.36 548.82,-43.51 538.73,-28.56"/>
<polygon fill="midnightblue" stroke="midnightblue" points="541.42,-26.26 533.06,-19.74 535.53,-30.04 541.42,-26.26"/>
</g>
<!-- Node31&#45;&gt;Node23 -->
<g id="edge48" class="edge">
<title>Node31&#45;&gt;Node23</title>
<path fill="none" stroke="midnightblue" d="M808.49,-112.47C837.07,-98.83 895.83,-72.03 948,-56 1011.99,-36.34 1089.19,-22.68 1132.43,-15.91"/>
<polygon fill="midnightblue" stroke="midnightblue" points="1133.05,-19.35 1142.41,-14.37 1131.99,-12.43 1133.05,-19.35"/>
</g>
<!-- Node31&#45;&gt;Node26 -->
<g id="edge38" class="edge">
<title>Node31&#45;&gt;Node26</title>
<path fill="none" stroke="midnightblue" d="M766.92,-112.44C741.46,-103.4 701.11,-89.06 672.54,-78.92"/>
<polygon fill="midnightblue" stroke="midnightblue" points="673.57,-75.57 662.97,-75.52 671.22,-82.16 673.57,-75.57"/>
</g>
<!-- Node32 -->
<g id="node32" class="node">
<title>Node32</title>
<g id="a_node32"><a xlink:href="serialized_8h.html" target="_top" xlink:title=" ">
<polygon fill="white" stroke="black" points="1384.5,-56.5 1384.5,-75.5 1457.5,-75.5 1457.5,-56.5 1384.5,-56.5"/>
<text text-anchor="middle" x="1421" y="-63.5" font-family="Helvetica,sans-Serif" font-size="10.00">serialized.h</text>
</a>
</g>
</g>
<!-- Node31&#45;&gt;Node32 -->
<g id="edge39" class="edge">
<title>Node31&#45;&gt;Node32</title>
<path fill="none" stroke="midnightblue" d="M826.09,-118.39C912.72,-111.87 1143.65,-94.12 1336,-76 1348.35,-74.84 1361.7,-73.47 1374.08,-72.16"/>
<polygon fill="midnightblue" stroke="midnightblue" points="1374.63,-75.63 1384.2,-71.08 1373.89,-68.67 1374.63,-75.63"/>
</g>
<!-- Node35 -->
<g id="node35" class="node">
<title>Node35</title>
<g id="a_node35"><a xlink:title=" ">
<polygon fill="white" stroke="#bfbfbf" points="762,-56.5 762,-75.5 820,-75.5 820,-56.5 762,-56.5"/>
<text text-anchor="middle" x="791" y="-63.5" font-family="Helvetica,sans-Serif" font-size="10.00">memory</text>
</a>
</g>
</g>
<!-- Node31&#45;&gt;Node35 -->
<g id="edge45" class="edge">
<title>Node31&#45;&gt;Node35</title>
<path fill="none" stroke="midnightblue" d="M791,-112.08C791,-105.01 791,-94.86 791,-85.99"/>
<polygon fill="midnightblue" stroke="midnightblue" points="794.5,-85.75 791,-75.75 787.5,-85.75 794.5,-85.75"/>
</g>
<!-- Node36 -->
<g id="node36" class="node">
<title>Node36</title>
<g id="a_node36"><a xlink:title=" ">
<polygon fill="white" stroke="#bfbfbf" points="702.5,-56.5 702.5,-75.5 743.5,-75.5 743.5,-56.5 702.5,-56.5"/>
<text text-anchor="middle" x="723" y="-63.5" font-family="Helvetica,sans-Serif" font-size="10.00">tuple</text>
</a>
</g>
</g>
<!-- Node31&#45;&gt;Node36 -->
<g id="edge46" class="edge">
<title>Node31&#45;&gt;Node36</title>
<path fill="none" stroke="midnightblue" d="M780.07,-112.32C769.83,-104.18 754.28,-91.84 742,-82.09"/>
<polygon fill="midnightblue" stroke="midnightblue" points="744.13,-79.31 734.12,-75.83 739.78,-84.79 744.13,-79.31"/>
</g>
<!-- Node32&#45;&gt;Node22 -->
<g id="edge40" class="edge">
<title>Node32&#45;&gt;Node22</title>
<path fill="none" stroke="midnightblue" d="M1410.56,-56.32C1400.85,-48.26 1386.18,-36.08 1374.5,-26.37"/>
<polygon fill="midnightblue" stroke="midnightblue" points="1376.56,-23.53 1366.63,-19.83 1372.09,-28.92 1376.56,-23.53"/>
</g>
<!-- Node32&#45;&gt;Node23 -->
<g id="edge44" class="edge">
<title>Node32&#45;&gt;Node23</title>
<path fill="none" stroke="midnightblue" d="M1384.46,-57.26C1334.94,-46.78 1247.21,-28.2 1199.38,-18.07"/>
<polygon fill="midnightblue" stroke="midnightblue" points="1200.03,-14.63 1189.52,-15.98 1198.58,-21.48 1200.03,-14.63"/>
</g>
<!-- Node32&#45;&gt;Node29 -->
<g id="edge43" class="edge">
<title>Node32&#45;&gt;Node29</title>
<path fill="none" stroke="midnightblue" d="M1384.18,-61.09C1369.23,-59.5 1351.79,-57.66 1336,-56 1186.22,-40.29 1007.26,-21.77 935.3,-14.34"/>
<polygon fill="midnightblue" stroke="midnightblue" points="935.39,-10.83 925.08,-13.28 934.67,-17.79 935.39,-10.83"/>
</g>
<!-- Node32&#45;&gt;Node33 -->
<g id="edge41" class="edge">
<title>Node32&#45;&gt;Node33</title>
<path fill="none" stroke="midnightblue" d="M1436.91,-56.32C1452.64,-47.74 1476.94,-34.49 1495.21,-24.52"/>
<polygon fill="midnightblue" stroke="midnightblue" points="1497.03,-27.52 1504.13,-19.65 1493.68,-21.37 1497.03,-27.52"/>
</g>
<!-- Node32&#45;&gt;Node34 -->
<g id="edge42" class="edge">
<title>Node32&#45;&gt;Node34</title>
<path fill="none" stroke="midnightblue" d="M1424.14,-56.08C1426.68,-48.85 1430.36,-38.41 1433.53,-29.4"/>
<polygon fill="midnightblue" stroke="midnightblue" points="1436.9,-30.35 1436.92,-19.75 1430.3,-28.02 1436.9,-30.35"/>
</g>
<!-- Node40&#45;&gt;Node18 -->
<g id="edge67" class="edge">
<title>Node40&#45;&gt;Node18</title>
<path fill="none" stroke="midnightblue" d="M1202.88,-398.69C1132.82,-392.74 1012.76,-371.92 944,-300 917.13,-271.89 911.69,-224.12 910.86,-197.8"/>
<polygon fill="midnightblue" stroke="midnightblue" points="914.35,-197.61 910.73,-187.65 907.35,-197.69 914.35,-197.61"/>
</g>
<!-- Node40&#45;&gt;Node23 -->
<g id="edge69" class="edge">
<title>Node40&#45;&gt;Node23</title>
<path fill="none" stroke="midnightblue" d="M1241.69,-392.38C1229.08,-384.7 1212.55,-372.19 1205,-356 1171.76,-284.7 1204,-257.67 1204,-179 1204,-179 1204,-179 1204,-121 1204,-86.81 1187.4,-49.76 1176.14,-28.57"/>
<polygon fill="midnightblue" stroke="midnightblue" points="1179.18,-26.83 1171.28,-19.77 1173.05,-30.22 1179.18,-26.83"/>
</g>
<!-- Node41 -->
<g id="node41" class="node">
<title>Node41</title>
<g id="a_node41"><a xlink:href="oversized_8h.html" target="_top" xlink:title=" ">
<polygon fill="white" stroke="black" points="1214.5,-336.5 1214.5,-355.5 1301.5,-355.5 1301.5,-336.5 1214.5,-336.5"/>
<text text-anchor="middle" x="1258" y="-343.5" font-family="Helvetica,sans-Serif" font-size="10.00">ds/oversized.h</text>
</a>
</g>
</g>
<!-- Node40&#45;&gt;Node41 -->
<g id="edge61" class="edge">
<title>Node40&#45;&gt;Node41</title>
<path fill="none" stroke="midnightblue" d="M1258,-392.08C1258,-385.01 1258,-374.86 1258,-365.99"/>
<polygon fill="midnightblue" stroke="midnightblue" points="1261.5,-365.75 1258,-355.75 1254.5,-365.75 1261.5,-365.75"/>
</g>
<!-- Node40&#45;&gt;Node43 -->
<g id="edge68" class="edge">
<title>Node40&#45;&gt;Node43</title>
<path fill="none" stroke="midnightblue" d="M1271.98,-392.32C1285.55,-383.9 1306.38,-370.97 1322.32,-361.07"/>
<polygon fill="midnightblue" stroke="midnightblue" points="1324.41,-363.9 1331.06,-355.65 1320.71,-357.95 1324.41,-363.9"/>
</g>
<!-- Node41&#45;&gt;Node2 -->
<g id="edge62" class="edge">
<title>Node41&#45;&gt;Node2</title>
<path fill="none" stroke="midnightblue" d="M1217.12,-336.44C1172.02,-327 1099.39,-311.8 1050.7,-301.61"/>
<polygon fill="midnightblue" stroke="midnightblue" points="1051.19,-298.14 1040.69,-299.52 1049.76,-304.99 1051.19,-298.14"/>
</g>
<!-- Node41&#45;&gt;Node5 -->
<g id="edge65" class="edge">
<title>Node41&#45;&gt;Node5</title>
<path fill="none" stroke="midnightblue" d="M1246.86,-336.31C1217.41,-313.81 1134.27,-253.33 1055,-224 967.01,-191.44 939.08,-205.97 847,-188 757.48,-170.53 653.55,-147.26 594.8,-133.82"/>
<polygon fill="midnightblue" stroke="midnightblue" points="595.25,-130.33 584.72,-131.51 593.69,-137.16 595.25,-130.33"/>
</g>
<!-- Node41&#45;&gt;Node17 -->
<g id="edge63" class="edge">
<title>Node41&#45;&gt;Node17</title>
<path fill="none" stroke="midnightblue" d="M1262.63,-336.37C1272.28,-318.38 1294.71,-276.55 1307.55,-252.63"/>
<polygon fill="midnightblue" stroke="midnightblue" points="1310.75,-254.06 1312.39,-243.59 1304.58,-250.75 1310.75,-254.06"/>
</g>
<!-- Node41&#45;&gt;Node32 -->
<g id="edge64" class="edge">
<title>Node41&#45;&gt;Node32</title>
<path fill="none" stroke="midnightblue" d="M1256.95,-336.46C1254.79,-317.98 1250,-272.91 1250,-235 1250,-235 1250,-235 1250,-177 1250,-117.6 1323.89,-88.76 1374.53,-75.97"/>
<polygon fill="midnightblue" stroke="midnightblue" points="1375.41,-79.36 1384.32,-73.62 1373.78,-72.55 1375.41,-79.36"/>
</g>
<!-- Node41&#45;&gt;Node42 -->
<g id="edge66" class="edge">
<title>Node41&#45;&gt;Node42</title>
<path fill="none" stroke="midnightblue" d="M1277.81,-336.44C1298.29,-327.6 1330.48,-313.69 1353.86,-303.59"/>
<polygon fill="midnightblue" stroke="midnightblue" points="1355.49,-306.7 1363.29,-299.52 1352.72,-300.27 1355.49,-306.7"/>
</g>
</g>
</svg>
