<?xml version="1.0" encoding="UTF-8" standalone="no"?>
<!DOCTYPE svg PUBLIC "-//W3C//DTD SVG 1.1//EN"
 "http://www.w3.org/Graphics/SVG/1.1/DTD/svg11.dtd">
<!-- Generated by graphviz version 2.43.0 (0)
 -->
<!-- Title: src/ds/ring_buffer.h Pages: 1 -->
<!--zoomable 252 -->
<svg id="main" version="1.1" xmlns="http://www.w3.org/2000/svg" xmlns:xlink="http://www.w3.org/1999/xlink" xml:space="preserve" onload="init(evt)">
<style type="text/css"><![CDATA[
.edge:hover path { stroke: red; }
.edge:hover polygon { stroke: red; fill: red; }
]]></style>
<script type="text/javascript"><![CDATA[
var edges = document.getElementsByTagName('g');
if (edges && edges.length) {
  for (var i=0;i<edges.length;i++) {
    if (edges[i].id.substr(0,4)=='edge') {
      edges[i].setAttribute('class','edge');
    }
  }
}
]]></script>
        <defs>
                <circle id="rim" cx="0" cy="0" r="7"/>
                <circle id="rim2" cx="0" cy="0" r="3.5"/>
                <g id="zoomPlus">
                        <use xlink:href="#rim" fill="#404040">
                                <set attributeName="fill" to="#808080" begin="zoomplus.mouseover" end="zoomplus.mouseout"/>
                        </use>
                        <path d="M-4,0h8M0,-4v8" fill="none" stroke="white" stroke-width="1.5" pointer-events="none"/>
                </g>
                <g id="zoomMin">
                        <use xlink:href="#rim" fill="#404040">
                                <set attributeName="fill" to="#808080" begin="zoomminus.mouseover" end="zoomminus.mouseout"/>
                        </use>
                        <path d="M-4,0h8" fill="none" stroke="white" stroke-width="1.5" pointer-events="none"/>
                </g>
                <g id="dirArrow">
                        <path fill="none" stroke="white" stroke-width="1.5" d="M0,-3.0v7 M-2.5,-0.5L0,-3.0L2.5,-0.5"/>
                </g>
               <g id="resetDef">
                       <use xlink:href="#rim2" fill="#404040">
                               <set attributeName="fill" to="#808080" begin="reset.mouseover" end="reset.mouseout"/>
                       </use>
               </g>
        </defs>

<script type="text/javascript">
var viewWidth = 1146;
var viewHeight = 252;
var sectionId = 'dynsection-0';
</script>
<script xlink:href="svgpan.js"/>
<svg id="graph" class="graph">
<g id="viewport">
<title>src/ds/ring_buffer.h</title>
<polygon fill="white" stroke="transparent" points="-4,4 -4,-248 1142,-248 1142,4 -4,4"/>
<!-- Node1 -->
<g id="node1" class="node">
<title>Node1</title>
<g id="a_node1"><a xlink:title=" ">
<polygon fill="#bfbfbf" stroke="black" points="990,-224.5 990,-243.5 1099,-243.5 1099,-224.5 990,-224.5"/>
<text text-anchor="middle" x="1044.5" y="-231.5" font-family="Helvetica,sans-Serif" font-size="10.00">src/ds/ring_buffer.h</text>
</a>
</g>
</g>
<!-- Node2 -->
<g id="node2" class="node">
<title>Node2</title>
<g id="a_node2"><a xlink:href="ring__buffer__types_8h.html" target="_top" xlink:title=" ">
<polygon fill="white" stroke="black" points="500.5,-168.5 500.5,-187.5 610.5,-187.5 610.5,-168.5 500.5,-168.5"/>
<text text-anchor="middle" x="555.5" y="-175.5" font-family="Helvetica,sans-Serif" font-size="10.00">ring_buffer_types.h</text>
</a>
</g>
</g>
<!-- Node1&#45;&gt;Node2 -->
<g id="edge1" class="edge">
<title>Node1&#45;&gt;Node2</title>
<path fill="none" stroke="midnightblue" d="M989.83,-226.96C899.08,-216.94 717.75,-196.92 620.56,-186.18"/>
<polygon fill="midnightblue" stroke="midnightblue" points="620.89,-182.7 610.57,-185.08 620.12,-189.66 620.89,-182.7"/>
</g>
<!-- Node18 -->
<g id="node18" class="node">
<title>Node18</title>
<g id="a_node18"><a xlink:title=" ">
<polygon fill="white" stroke="#bfbfbf" points="936.5,-0.5 936.5,-19.5 986.5,-19.5 986.5,-0.5 936.5,-0.5"/>
<text text-anchor="middle" x="961.5" y="-7.5" font-family="Helvetica,sans-Serif" font-size="10.00">cstring</text>
</a>
</g>
</g>
<!-- Node1&#45;&gt;Node18 -->
<g id="edge36" class="edge">
<title>Node1&#45;&gt;Node18</title>
<path fill="none" stroke="midnightblue" d="M1044.25,-224.31C1043.15,-197.56 1037.22,-114.68 1005.5,-56 999.37,-44.67 989.56,-34.23 980.75,-26.26"/>
<polygon fill="midnightblue" stroke="midnightblue" points="982.95,-23.54 973.08,-19.69 978.39,-28.85 982.95,-23.54"/>
</g>
<!-- Node25 -->
<g id="node25" class="node">
<title>Node25</title>
<g id="a_node25"><a xlink:title=" ">
<polygon fill="white" stroke="#bfbfbf" points="1073,-168.5 1073,-187.5 1138,-187.5 1138,-168.5 1073,-168.5"/>
<text text-anchor="middle" x="1105.5" y="-175.5" font-family="Helvetica,sans-Serif" font-size="10.00">functional</text>
</a>
</g>
</g>
<!-- Node1&#45;&gt;Node25 -->
<g id="edge37" class="edge">
<title>Node1&#45;&gt;Node25</title>
<path fill="none" stroke="midnightblue" d="M1054.3,-224.32C1063.32,-216.34 1076.91,-204.31 1087.82,-194.65"/>
<polygon fill="midnightblue" stroke="midnightblue" points="1090.35,-197.08 1095.52,-187.83 1085.71,-191.84 1090.35,-197.08"/>
</g>
<!-- Node3 -->
<g id="node3" class="node">
<title>Node3</title>
<g id="a_node3"><a xlink:href="include_2ccf_2ds_2hash_8h.html" target="_top" xlink:title=" ">
<polygon fill="white" stroke="black" points="724.5,-112.5 724.5,-131.5 804.5,-131.5 804.5,-112.5 724.5,-112.5"/>
<text text-anchor="middle" x="764.5" y="-119.5" font-family="Helvetica,sans-Serif" font-size="10.00">ccf/ds/hash.h</text>
</a>
</g>
</g>
<!-- Node2&#45;&gt;Node3 -->
<g id="edge2" class="edge">
<title>Node2&#45;&gt;Node3</title>
<path fill="none" stroke="midnightblue" d="M588.62,-168.44C624.62,-159.14 682.27,-144.25 721.69,-134.06"/>
<polygon fill="midnightblue" stroke="midnightblue" points="722.73,-137.41 731.54,-131.52 720.98,-130.63 722.73,-137.41"/>
</g>
<!-- Node7 -->
<g id="node7" class="node">
<title>Node7</title>
<g id="a_node7"><a xlink:title=" ">
<polygon fill="white" stroke="#bfbfbf" points="551,-0.5 551,-19.5 598,-19.5 598,-0.5 551,-0.5"/>
<text text-anchor="middle" x="574.5" y="-7.5" font-family="Helvetica,sans-Serif" font-size="10.00">vector</text>
</a>
</g>
</g>
<!-- Node2&#45;&gt;Node7 -->
<g id="edge35" class="edge">
<title>Node2&#45;&gt;Node7</title>
<path fill="none" stroke="midnightblue" d="M610.67,-170.85C635.39,-165.03 662.33,-153.76 677.5,-132 710.74,-84.31 626.05,-111.25 594.5,-76 583.07,-63.23 578.17,-44.03 576.07,-29.81"/>
<polygon fill="midnightblue" stroke="midnightblue" points="579.53,-29.23 574.92,-19.69 572.57,-30.02 579.53,-29.23"/>
</g>
<!-- Node10 -->
<g id="node10" class="node">
<title>Node10</title>
<g id="a_node10"><a xlink:href="nonstd_8h.html" target="_top" xlink:title=" ">
<polygon fill="white" stroke="black" points="153.5,-56.5 153.5,-75.5 243.5,-75.5 243.5,-56.5 153.5,-56.5"/>
<text text-anchor="middle" x="198.5" y="-63.5" font-family="Helvetica,sans-Serif" font-size="10.00">ccf/ds/nonstd.h</text>
</a>
</g>
</g>
<!-- Node2&#45;&gt;Node10 -->
<g id="edge11" class="edge">
<title>Node2&#45;&gt;Node10</title>
<path fill="none" stroke="midnightblue" d="M500.06,-172.07C449.88,-166.37 374.55,-154.7 312.5,-132 277.68,-119.26 241.06,-96.45 219,-81.52"/>
<polygon fill="midnightblue" stroke="midnightblue" points="220.7,-78.45 210.48,-75.66 216.73,-84.21 220.7,-78.45"/>
</g>
<!-- Node13 -->
<g id="node13" class="node">
<title>Node13</title>
<g id="a_node13"><a xlink:title=" ">
<polygon fill="white" stroke="#bfbfbf" points="461.5,-0.5 461.5,-19.5 505.5,-19.5 505.5,-0.5 461.5,-0.5"/>
<text text-anchor="middle" x="483.5" y="-7.5" font-family="Helvetica,sans-Serif" font-size="10.00">string</text>
</a>
</g>
</g>
<!-- Node2&#45;&gt;Node13 -->
<g id="edge34" class="edge">
<title>Node2&#45;&gt;Node13</title>
<path fill="none" stroke="midnightblue" d="M500.41,-169.7C477.28,-163.61 452.55,-152.45 438.5,-132 415.46,-98.45 447.75,-51.62 468.46,-27.22"/>
<polygon fill="midnightblue" stroke="midnightblue" points="471.21,-29.4 475.2,-19.59 465.96,-24.77 471.21,-29.4"/>
</g>
<!-- Node16 -->
<g id="node16" class="node">
<title>Node16</title>
<g id="a_node16"><a xlink:href="serializer_8h.html" target="_top" xlink:title=" ">
<polygon fill="white" stroke="black" points="321.5,-112.5 321.5,-131.5 391.5,-131.5 391.5,-112.5 321.5,-112.5"/>
<text text-anchor="middle" x="356.5" y="-119.5" font-family="Helvetica,sans-Serif" font-size="10.00">serializer.h</text>
</a>
</g>
</g>
<!-- Node2&#45;&gt;Node16 -->
<g id="edge19" class="edge">
<title>Node2&#45;&gt;Node16</title>
<path fill="none" stroke="midnightblue" d="M523.97,-168.44C489.91,-159.2 435.49,-144.44 397.98,-134.26"/>
<polygon fill="midnightblue" stroke="midnightblue" points="398.45,-130.76 387.88,-131.52 396.62,-137.51 398.45,-130.76"/>
</g>
<!-- Node22 -->
<g id="node22" class="node">
<title>Node22</title>
<g id="a_node22"><a xlink:title=" ">
<polygon fill="white" stroke="#bfbfbf" points="447.5,-112.5 447.5,-131.5 497.5,-131.5 497.5,-112.5 447.5,-112.5"/>
<text text-anchor="middle" x="472.5" y="-119.5" font-family="Helvetica,sans-Serif" font-size="10.00">atomic</text>
</a>
</g>
</g>
<!-- Node2&#45;&gt;Node22 -->
<g id="edge31" class="edge">
<title>Node2&#45;&gt;Node22</title>
<path fill="none" stroke="midnightblue" d="M542.16,-168.32C529.34,-159.98 509.72,-147.21 494.56,-137.35"/>
<polygon fill="midnightblue" stroke="midnightblue" points="496.09,-134.17 485.8,-131.65 492.28,-140.04 496.09,-134.17"/>
</g>
<!-- Node23 -->
<g id="node23" class="node">
<title>Node23</title>
<g id="a_node23"><a xlink:title=" ">
<polygon fill="white" stroke="#bfbfbf" points="516,-112.5 516,-131.5 595,-131.5 595,-112.5 516,-112.5"/>
<text text-anchor="middle" x="555.5" y="-119.5" font-family="Helvetica,sans-Serif" font-size="10.00">fmt/format.h</text>
</a>
</g>
</g>
<!-- Node2&#45;&gt;Node23 -->
<g id="edge32" class="edge">
<title>Node2&#45;&gt;Node23</title>
<path fill="none" stroke="midnightblue" d="M555.5,-168.08C555.5,-161.01 555.5,-150.86 555.5,-141.99"/>
<polygon fill="midnightblue" stroke="midnightblue" points="559,-141.75 555.5,-131.75 552,-141.75 559,-141.75"/>
</g>
<!-- Node24 -->
<g id="node24" class="node">
<title>Node24</title>
<g id="a_node24"><a xlink:title=" ">
<polygon fill="white" stroke="#bfbfbf" points="612.5,-112.5 612.5,-131.5 668.5,-131.5 668.5,-112.5 612.5,-112.5"/>
<text text-anchor="middle" x="640.5" y="-119.5" font-family="Helvetica,sans-Serif" font-size="10.00">optional</text>
</a>
</g>
</g>
<!-- Node2&#45;&gt;Node24 -->
<g id="edge33" class="edge">
<title>Node2&#45;&gt;Node24</title>
<path fill="none" stroke="midnightblue" d="M569.16,-168.32C582.42,-159.9 602.77,-146.97 618.35,-137.07"/>
<polygon fill="midnightblue" stroke="midnightblue" points="620.31,-139.97 626.88,-131.65 616.56,-134.06 620.31,-139.97"/>
</g>
<!-- Node4 -->
<g id="node4" class="node">
<title>Node4</title>
<g id="a_node4"><a xlink:href="siphash_8h.html" target="_top" xlink:title=" ">
<polygon fill="white" stroke="black" points="717,-56.5 717,-75.5 812,-75.5 812,-56.5 717,-56.5"/>
<text text-anchor="middle" x="764.5" y="-63.5" font-family="Helvetica,sans-Serif" font-size="10.00">ccf/ds/siphash.h</text>
</a>
</g>
</g>
<!-- Node3&#45;&gt;Node4 -->
<g id="edge3" class="edge">
<title>Node3&#45;&gt;Node4</title>
<path fill="none" stroke="midnightblue" d="M764.5,-112.08C764.5,-105.01 764.5,-94.86 764.5,-85.99"/>
<polygon fill="midnightblue" stroke="midnightblue" points="768,-85.75 764.5,-75.75 761,-85.75 768,-85.75"/>
</g>
<!-- Node6 -->
<g id="node6" class="node">
<title>Node6</title>
<g id="a_node6"><a xlink:title=" ">
<polygon fill="white" stroke="#bfbfbf" points="797.5,-0.5 797.5,-19.5 847.5,-19.5 847.5,-0.5 797.5,-0.5"/>
<text text-anchor="middle" x="822.5" y="-7.5" font-family="Helvetica,sans-Serif" font-size="10.00">cstdint</text>
</a>
</g>
</g>
<!-- Node3&#45;&gt;Node6 -->
<g id="edge8" class="edge">
<title>Node3&#45;&gt;Node6</title>
<path fill="none" stroke="midnightblue" d="M804.88,-118.8C862.76,-114.7 964.86,-103.66 987.5,-76 1024.47,-30.82 916.15,-16.91 857.49,-12.73"/>
<polygon fill="midnightblue" stroke="midnightblue" points="857.71,-9.24 847.5,-12.08 857.25,-16.22 857.71,-9.24"/>
</g>
<!-- Node3&#45;&gt;Node7 -->
<g id="edge10" class="edge">
<title>Node3&#45;&gt;Node7</title>
<path fill="none" stroke="midnightblue" d="M725.97,-112.47C688.18,-103.55 633.81,-89.06 616.5,-76 600.44,-63.89 588.81,-43.72 581.91,-29.06"/>
<polygon fill="midnightblue" stroke="midnightblue" points="584.96,-27.29 577.73,-19.55 578.55,-30.11 584.96,-27.29"/>
</g>
<!-- Node8 -->
<g id="node8" class="node">
<title>Node8</title>
<g id="a_node8"><a xlink:title=" ">
<polygon fill="white" stroke="#bfbfbf" points="365.5,-0.5 365.5,-19.5 407.5,-19.5 407.5,-0.5 365.5,-0.5"/>
<text text-anchor="middle" x="386.5" y="-7.5" font-family="Helvetica,sans-Serif" font-size="10.00">array</text>
</a>
</g>
</g>
<!-- Node3&#45;&gt;Node8 -->
<g id="edge7" class="edge">
<title>Node3&#45;&gt;Node8</title>
<path fill="none" stroke="midnightblue" d="M730.51,-112.47C696.11,-103.73 641.44,-89.54 594.5,-76 531.16,-57.73 457.69,-34.22 417.22,-21.07"/>
<polygon fill="midnightblue" stroke="midnightblue" points="418.26,-17.72 407.67,-17.95 416.09,-24.38 418.26,-17.72"/>
</g>
<!-- Node9 -->
<g id="node9" class="node">
<title>Node9</title>
<g id="a_node9"><a xlink:title=" ">
<polygon fill="white" stroke="#bfbfbf" points="830,-56.5 830,-75.5 979,-75.5 979,-56.5 830,-56.5"/>
<text text-anchor="middle" x="904.5" y="-63.5" font-family="Helvetica,sans-Serif" font-size="10.00">small_vector/SmallVector.h</text>
</a>
</g>
</g>
<!-- Node3&#45;&gt;Node9 -->
<g id="edge9" class="edge">
<title>Node3&#45;&gt;Node9</title>
<path fill="none" stroke="midnightblue" d="M786.68,-112.44C809.93,-103.48 846.65,-89.31 872.92,-79.18"/>
<polygon fill="midnightblue" stroke="midnightblue" points="874.35,-82.38 882.42,-75.52 871.83,-75.85 874.35,-82.38"/>
</g>
<!-- Node5 -->
<g id="node5" class="node">
<title>Node5</title>
<g id="a_node5"><a xlink:title=" ">
<polygon fill="white" stroke="#bfbfbf" points="726,-0.5 726,-19.5 779,-19.5 779,-0.5 726,-0.5"/>
<text text-anchor="middle" x="752.5" y="-7.5" font-family="Helvetica,sans-Serif" font-size="10.00">cstddef</text>
</a>
</g>
</g>
<!-- Node4&#45;&gt;Node5 -->
<g id="edge4" class="edge">
<title>Node4&#45;&gt;Node5</title>
<path fill="none" stroke="midnightblue" d="M762.52,-56.08C760.93,-48.93 758.64,-38.64 756.65,-29.69"/>
<polygon fill="midnightblue" stroke="midnightblue" points="760.03,-28.75 754.44,-19.75 753.2,-30.27 760.03,-28.75"/>
</g>
<!-- Node4&#45;&gt;Node6 -->
<g id="edge5" class="edge">
<title>Node4&#45;&gt;Node6</title>
<path fill="none" stroke="midnightblue" d="M773.82,-56.32C782.39,-48.34 795.31,-36.31 805.69,-26.65"/>
<polygon fill="midnightblue" stroke="midnightblue" points="808.08,-29.21 813.01,-19.83 803.31,-24.09 808.08,-29.21"/>
</g>
<!-- Node4&#45;&gt;Node7 -->
<g id="edge6" class="edge">
<title>Node4&#45;&gt;Node7</title>
<path fill="none" stroke="midnightblue" d="M734.39,-56.44C700.01,-46.67 643.91,-30.73 608.13,-20.56"/>
<polygon fill="midnightblue" stroke="midnightblue" points="608.74,-17.09 598.16,-17.73 606.82,-23.83 608.74,-17.09"/>
</g>
<!-- Node10&#45;&gt;Node7 -->
<g id="edge18" class="edge">
<title>Node10&#45;&gt;Node7</title>
<path fill="none" stroke="midnightblue" d="M243.52,-58.7C304.83,-50.09 418,-34.11 514.5,-20 523.02,-18.75 532.22,-17.39 540.79,-16.1"/>
<polygon fill="midnightblue" stroke="midnightblue" points="541.48,-19.54 550.85,-14.59 540.44,-12.61 541.48,-19.54"/>
</g>
<!-- Node10&#45;&gt;Node8 -->
<g id="edge13" class="edge">
<title>Node10&#45;&gt;Node8</title>
<path fill="none" stroke="midnightblue" d="M228.29,-56.44C263.06,-46.46 320.29,-30.02 355.55,-19.89"/>
<polygon fill="midnightblue" stroke="midnightblue" points="356.67,-23.21 365.31,-17.09 354.73,-16.48 356.67,-23.21"/>
</g>
<!-- Node11 -->
<g id="node11" class="node">
<title>Node11</title>
<g id="a_node11"><a xlink:title=" ">
<polygon fill="white" stroke="#bfbfbf" points="91.5,-0.5 91.5,-19.5 155.5,-19.5 155.5,-0.5 91.5,-0.5"/>
<text text-anchor="middle" x="123.5" y="-7.5" font-family="Helvetica,sans-Serif" font-size="10.00">algorithm</text>
</a>
</g>
</g>
<!-- Node10&#45;&gt;Node11 -->
<g id="edge12" class="edge">
<title>Node10&#45;&gt;Node11</title>
<path fill="none" stroke="midnightblue" d="M186.45,-56.32C175.04,-48.11 157.67,-35.6 144.07,-25.81"/>
<polygon fill="midnightblue" stroke="midnightblue" points="145.93,-22.84 135.77,-19.83 141.84,-28.52 145.93,-22.84"/>
</g>
<!-- Node12 -->
<g id="node12" class="node">
<title>Node12</title>
<g id="a_node12"><a xlink:title=" ">
<polygon fill="white" stroke="#bfbfbf" points="174,-0.5 174,-19.5 223,-19.5 223,-0.5 174,-0.5"/>
<text text-anchor="middle" x="198.5" y="-7.5" font-family="Helvetica,sans-Serif" font-size="10.00">cctype</text>
</a>
</g>
</g>
<!-- Node10&#45;&gt;Node12 -->
<g id="edge14" class="edge">
<title>Node10&#45;&gt;Node12</title>
<path fill="none" stroke="midnightblue" d="M198.5,-56.08C198.5,-49.01 198.5,-38.86 198.5,-29.99"/>
<polygon fill="midnightblue" stroke="midnightblue" points="202,-29.75 198.5,-19.75 195,-29.75 202,-29.75"/>
</g>
<!-- Node10&#45;&gt;Node13 -->
<g id="edge15" class="edge">
<title>Node10&#45;&gt;Node13</title>
<path fill="none" stroke="midnightblue" d="M243.66,-56.44C301.54,-45.48 400.46,-26.73 451.28,-17.1"/>
<polygon fill="midnightblue" stroke="midnightblue" points="452.19,-20.49 461.36,-15.19 450.89,-13.62 452.19,-20.49"/>
</g>
<!-- Node14 -->
<g id="node14" class="node">
<title>Node14</title>
<g id="a_node14"><a xlink:title=" ">
<polygon fill="white" stroke="#bfbfbf" points="0,-0.5 0,-19.5 73,-19.5 73,-0.5 0,-0.5"/>
<text text-anchor="middle" x="36.5" y="-7.5" font-family="Helvetica,sans-Serif" font-size="10.00">string_view</text>
</a>
</g>
</g>
<!-- Node10&#45;&gt;Node14 -->
<g id="edge16" class="edge">
<title>Node10&#45;&gt;Node14</title>
<path fill="none" stroke="midnightblue" d="M172.83,-56.44C145.58,-47.36 102.32,-32.94 71.85,-22.78"/>
<polygon fill="midnightblue" stroke="midnightblue" points="72.64,-19.36 62.05,-19.52 70.43,-26 72.64,-19.36"/>
</g>
<!-- Node15 -->
<g id="node15" class="node">
<title>Node15</title>
<g id="a_node15"><a xlink:title=" ">
<polygon fill="white" stroke="#bfbfbf" points="241,-0.5 241,-19.5 310,-19.5 310,-0.5 241,-0.5"/>
<text text-anchor="middle" x="275.5" y="-7.5" font-family="Helvetica,sans-Serif" font-size="10.00">type_traits</text>
</a>
</g>
</g>
<!-- Node10&#45;&gt;Node15 -->
<g id="edge17" class="edge">
<title>Node10&#45;&gt;Node15</title>
<path fill="none" stroke="midnightblue" d="M210.87,-56.32C222.66,-48.06 240.63,-35.45 254.64,-25.63"/>
<polygon fill="midnightblue" stroke="midnightblue" points="256.98,-28.26 263.16,-19.65 252.96,-22.53 256.98,-28.26"/>
</g>
<!-- Node16&#45;&gt;Node7 -->
<g id="edge30" class="edge">
<title>Node16&#45;&gt;Node7</title>
<path fill="none" stroke="midnightblue" d="M373.61,-112.37C411.57,-93.21 503.08,-47.04 548.31,-24.22"/>
<polygon fill="midnightblue" stroke="midnightblue" points="550.12,-27.22 557.47,-19.59 546.97,-20.97 550.12,-27.22"/>
</g>
<!-- Node16&#45;&gt;Node10 -->
<g id="edge20" class="edge">
<title>Node16&#45;&gt;Node10</title>
<path fill="none" stroke="midnightblue" d="M331.46,-112.44C304.88,-103.36 262.69,-88.94 232.98,-78.78"/>
<polygon fill="midnightblue" stroke="midnightblue" points="234.01,-75.44 223.42,-75.52 231.75,-82.06 234.01,-75.44"/>
</g>
<!-- Node16&#45;&gt;Node15 -->
<g id="edge29" class="edge">
<title>Node16&#45;&gt;Node15</title>
<path fill="none" stroke="midnightblue" d="M336.74,-112.47C321.79,-105 301.93,-92.72 290.5,-76 281.21,-62.41 277.61,-43.86 276.25,-30.06"/>
<polygon fill="midnightblue" stroke="midnightblue" points="279.72,-29.53 275.55,-19.79 272.74,-30.01 279.72,-29.53"/>
</g>
<!-- Node17 -->
<g id="node17" class="node">
<title>Node17</title>
<g id="a_node17"><a xlink:href="serialized_8h.html" target="_top" xlink:title=" ">
<polygon fill="white" stroke="black" points="626,-56.5 626,-75.5 699,-75.5 699,-56.5 626,-56.5"/>
<text text-anchor="middle" x="662.5" y="-63.5" font-family="Helvetica,sans-Serif" font-size="10.00">serialized.h</text>
</a>
</g>
</g>
<!-- Node16&#45;&gt;Node17 -->
<g id="edge21" class="edge">
<title>Node16&#45;&gt;Node17</title>
<path fill="none" stroke="midnightblue" d="M391.6,-114.81C446.92,-105.04 554.41,-86.07 616.06,-75.2"/>
<polygon fill="midnightblue" stroke="midnightblue" points="616.67,-78.64 625.91,-73.46 615.46,-71.75 616.67,-78.64"/>
</g>
<!-- Node20 -->
<g id="node20" class="node">
<title>Node20</title>
<g id="a_node20"><a xlink:title=" ">
<polygon fill="white" stroke="#bfbfbf" points="359.5,-56.5 359.5,-75.5 417.5,-75.5 417.5,-56.5 359.5,-56.5"/>
<text text-anchor="middle" x="388.5" y="-63.5" font-family="Helvetica,sans-Serif" font-size="10.00">memory</text>
</a>
</g>
</g>
<!-- Node16&#45;&gt;Node20 -->
<g id="edge27" class="edge">
<title>Node16&#45;&gt;Node20</title>
<path fill="none" stroke="midnightblue" d="M361.78,-112.08C366.21,-104.61 372.66,-93.72 378.12,-84.52"/>
<polygon fill="midnightblue" stroke="midnightblue" points="381.23,-86.14 383.31,-75.75 375.21,-82.57 381.23,-86.14"/>
</g>
<!-- Node21 -->
<g id="node21" class="node">
<title>Node21</title>
<g id="a_node21"><a xlink:title=" ">
<polygon fill="white" stroke="#bfbfbf" points="300,-56.5 300,-75.5 341,-75.5 341,-56.5 300,-56.5"/>
<text text-anchor="middle" x="320.5" y="-63.5" font-family="Helvetica,sans-Serif" font-size="10.00">tuple</text>
</a>
</g>
</g>
<!-- Node16&#45;&gt;Node21 -->
<g id="edge28" class="edge">
<title>Node16&#45;&gt;Node21</title>
<path fill="none" stroke="midnightblue" d="M350.56,-112.08C345.52,-104.53 338.16,-93.49 331.99,-84.23"/>
<polygon fill="midnightblue" stroke="midnightblue" points="334.79,-82.13 326.33,-75.75 328.97,-86.01 334.79,-82.13"/>
</g>
<!-- Node17&#45;&gt;Node6 -->
<g id="edge22" class="edge">
<title>Node17&#45;&gt;Node6</title>
<path fill="none" stroke="midnightblue" d="M687.85,-56.44C714.77,-47.36 757.5,-32.94 787.59,-22.78"/>
<polygon fill="midnightblue" stroke="midnightblue" points="788.91,-26.03 797.27,-19.52 786.67,-19.4 788.91,-26.03"/>
</g>
<!-- Node17&#45;&gt;Node7 -->
<g id="edge26" class="edge">
<title>Node17&#45;&gt;Node7</title>
<path fill="none" stroke="midnightblue" d="M648.36,-56.32C634.63,-47.9 613.56,-34.97 597.44,-25.07"/>
<polygon fill="midnightblue" stroke="midnightblue" points="598.96,-21.9 588.6,-19.65 595.3,-27.87 598.96,-21.9"/>
</g>
<!-- Node17&#45;&gt;Node13 -->
<g id="edge25" class="edge">
<title>Node17&#45;&gt;Node13</title>
<path fill="none" stroke="midnightblue" d="M634.14,-56.44C601.8,-46.69 549.06,-30.78 515.33,-20.6"/>
<polygon fill="midnightblue" stroke="midnightblue" points="516.11,-17.18 505.52,-17.64 514.09,-23.88 516.11,-17.18"/>
</g>
<!-- Node17&#45;&gt;Node18 -->
<g id="edge23" class="edge">
<title>Node17&#45;&gt;Node18</title>
<path fill="none" stroke="midnightblue" d="M699.32,-57.57C702.09,-57.03 704.84,-56.5 707.5,-56 785.4,-41.31 877.01,-25.42 926.13,-17.01"/>
<polygon fill="midnightblue" stroke="midnightblue" points="926.96,-20.42 936.23,-15.29 925.78,-13.52 926.96,-20.42"/>
</g>
<!-- Node19 -->
<g id="node19" class="node">
<title>Node19</title>
<g id="a_node19"><a xlink:title=" ">
<polygon fill="white" stroke="#bfbfbf" points="630,-0.5 630,-19.5 695,-19.5 695,-0.5 630,-0.5"/>
<text text-anchor="middle" x="662.5" y="-7.5" font-family="Helvetica,sans-Serif" font-size="10.00">stdexcept</text>
</a>
</g>
</g>
<!-- Node17&#45;&gt;Node19 -->
<g id="edge24" class="edge">
<title>Node17&#45;&gt;Node19</title>
<path fill="none" stroke="midnightblue" d="M662.5,-56.08C662.5,-49.01 662.5,-38.86 662.5,-29.99"/>
<polygon fill="midnightblue" stroke="midnightblue" points="666,-29.75 662.5,-19.75 659,-29.75 666,-29.75"/>
</g>
</g>
</svg>
        <g id="navigator" transform="translate(0 0)" fill="#404254">
                <rect fill="#f2f5e9" fill-opacity="0.5" stroke="#606060" stroke-width=".5" x="0" y="0" width="60" height="60"/>
                <use id="zoomplus" xlink:href="#zoomPlus" x="17" y="9" onmousedown="handleZoom(evt,'in')"/>
                <use id="zoomminus" xlink:href="#zoomMin" x="42" y="9" onmousedown="handleZoom(evt,'out')"/>
                <use id="reset" xlink:href="#resetDef" x="30" y="36" onmousedown="handleReset()"/>
                <g id="arrowUp" xlink:href="#dirArrow" transform="translate(30 24)" onmousedown="handlePan(0,-1)">
                  <use xlink:href="#rim" fill="#404040">
                        <set attributeName="fill" to="#808080" begin="arrowUp.mouseover" end="arrowUp.mouseout"/>
                  </use>
                  <path fill="none" stroke="white" stroke-width="1.5" d="M0,-3.0v7 M-2.5,-0.5L0,-3.0L2.5,-0.5"/>
                </g>
                <g id="arrowRight" xlink:href="#dirArrow" transform="rotate(90) translate(36 -43)" onmousedown="handlePan(1,0)">
                  <use xlink:href="#rim" fill="#404040">
                        <set attributeName="fill" to="#808080" begin="arrowRight.mouseover" end="arrowRight.mouseout"/>
                  </use>
                  <path fill="none" stroke="white" stroke-width="1.5" d="M0,-3.0v7 M-2.5,-0.5L0,-3.0L2.5,-0.5"/>
                </g>
                <g id="arrowDown" xlink:href="#dirArrow" transform="rotate(180) translate(-30 -48)" onmousedown="handlePan(0,1)">
                  <use xlink:href="#rim" fill="#404040">
                        <set attributeName="fill" to="#808080" begin="arrowDown.mouseover" end="arrowDown.mouseout"/>
                  </use>
                  <path fill="none" stroke="white" stroke-width="1.5" d="M0,-3.0v7 M-2.5,-0.5L0,-3.0L2.5,-0.5"/>
                </g>
                <g id="arrowLeft" xlink:href="#dirArrow" transform="rotate(270) translate(-36 17)" onmousedown="handlePan(-1,0)">
                  <use xlink:href="#rim" fill="#404040">
                        <set attributeName="fill" to="#808080" begin="arrowLeft.mouseover" end="arrowLeft.mouseout"/>
                  </use>
                  <path fill="none" stroke="white" stroke-width="1.5" d="M0,-3.0v7 M-2.5,-0.5L0,-3.0L2.5,-0.5"/>
                </g>
        </g>
        <svg viewBox="0 0 15 15" width="100%" height="30px" preserveAspectRatio="xMaxYMin meet">
         <g id="arrow_out" transform="scale(0.3 0.3)">
          <a xlink:href="ring__buffer_8h__incl_org.svg" target="_base">
           <rect id="button" ry="5" rx="5" y="6" x="6" height="38" width="38"
                fill="#f2f5e9" fill-opacity="0.5" stroke="#606060" stroke-width="1.0"/>
           <path id="arrow"
             d="M 11.500037,31.436501 C 11.940474,20.09759 22.043105,11.32322 32.158766,21.979434 L 37.068811,17.246167 C 37.068811,17.246167 37.088388,32 37.088388,32 L 22.160133,31.978069 C 22.160133,31.978069 26.997745,27.140456 26.997745,27.140456 C 18.528582,18.264221 13.291696,25.230495 11.500037,31.436501 z"
             style="fill:#404040;"/>
          </a>
         </g>
        </svg>
</svg>
