<?xml version="1.0" encoding="UTF-8" standalone="no"?>
<!DOCTYPE svg PUBLIC "-//W3C//DTD SVG 1.1//EN"
 "http://www.w3.org/Graphics/SVG/1.1/DTD/svg11.dtd">
<!-- Generated by graphviz version 2.43.0 (0)
 -->
<!-- Title: src/enclave/rpc_sessions.h Pages: 1 -->
<svg width="698pt" height="509pt"
 viewBox="0.00 0.00 697.50 509.00" xmlns="http://www.w3.org/2000/svg" xmlns:xlink="http://www.w3.org/1999/xlink">
<g id="graph0" class="graph" transform="scale(1 1) rotate(0) translate(4 505)">
<title>src/enclave/rpc_sessions.h</title>
<polygon fill="white" stroke="transparent" points="-4,4 -4,-505 693.5,-505 693.5,4 -4,4"/>
<!-- Node1 -->
<g id="node1" class="node">
<title>Node1</title>
<g id="a_node1"><a xlink:title=" ">
<polygon fill="#bfbfbf" stroke="black" points="330,-481.5 330,-500.5 476,-500.5 476,-481.5 330,-481.5"/>
<text text-anchor="middle" x="403" y="-488.5" font-family="Helvetica,sans-Serif" font-size="10.00">src/enclave/rpc_sessions.h</text>
</a>
</g>
</g>
<!-- Node2 -->
<g id="node2" class="node">
<title>Node2</title>
<g id="a_node2"><a xlink:href="enclave_2enclave_8h.html" target="_top" xlink:title=" ">
<polygon fill="white" stroke="black" points="178,-56.5 178,-75.5 300,-75.5 300,-56.5 178,-56.5"/>
<text text-anchor="middle" x="239" y="-63.5" font-family="Helvetica,sans-Serif" font-size="10.00">src/enclave/enclave.h</text>
</a>
</g>
</g>
<!-- Node1&#45;&gt;Node2 -->
<g id="edge1" class="edge">
<title>Node1&#45;&gt;Node2</title>
<path fill="none" stroke="midnightblue" d="M319.43,-490.14C253.74,-487.45 161.25,-477.38 87,-445 41.38,-425.11 0,-424.27 0,-374.5 0,-374.5 0,-374.5 0,-177 0,-98.78 106.95,-75.99 177.76,-69.47"/>
<polygon fill="midnightblue" stroke="midnightblue" points="319.61,-493.65 329.73,-490.51 319.86,-486.65 319.61,-493.65"/>
</g>
<!-- Node4 -->
<g id="node4" class="node">
<title>Node4</title>
<g id="a_node4"><a xlink:href="http__endpoint_8h.html" target="_top" xlink:title=" ">
<polygon fill="white" stroke="black" points="556.5,-425.5 556.5,-444.5 689.5,-444.5 689.5,-425.5 556.5,-425.5"/>
<text text-anchor="middle" x="623" y="-432.5" font-family="Helvetica,sans-Serif" font-size="10.00">src/http/http_endpoint.h</text>
</a>
</g>
</g>
<!-- Node1&#45;&gt;Node4 -->
<g id="edge3" class="edge">
<title>Node1&#45;&gt;Node4</title>
<path fill="none" stroke="midnightblue" d="M442.67,-478.89C482.5,-468.7 543.35,-453.8 583.22,-444.52"/>
<polygon fill="midnightblue" stroke="midnightblue" points="441.58,-475.56 432.77,-481.44 443.33,-482.34 441.58,-475.56"/>
</g>
<!-- Node5 -->
<g id="node5" class="node">
<title>Node5</title>
<g id="a_node5"><a xlink:href="node__client_8h.html" target="_top" xlink:title=" ">
<polygon fill="white" stroke="black" points="206,-425.5 206,-444.5 332,-444.5 332,-425.5 206,-425.5"/>
<text text-anchor="middle" x="269" y="-432.5" font-family="Helvetica,sans-Serif" font-size="10.00">src/node/node_client.h</text>
</a>
</g>
</g>
<!-- Node1&#45;&gt;Node5 -->
<g id="edge5" class="edge">
<title>Node1&#45;&gt;Node5</title>
<path fill="none" stroke="midnightblue" d="M372.32,-477.64C347.18,-467.5 312.25,-453.43 290.13,-444.52"/>
<polygon fill="midnightblue" stroke="midnightblue" points="371.18,-480.95 381.77,-481.44 373.8,-474.46 371.18,-480.95"/>
</g>
<!-- Node8 -->
<g id="node8" class="node">
<title>Node8</title>
<g id="a_node8"><a xlink:href="node__state_8h.html" target="_top" xlink:title=" ">
<polygon fill="white" stroke="black" points="177,-168.5 177,-187.5 301,-187.5 301,-168.5 177,-168.5"/>
<text text-anchor="middle" x="239" y="-175.5" font-family="Helvetica,sans-Serif" font-size="10.00">src/node/node_state.h</text>
</a>
</g>
</g>
<!-- Node1&#45;&gt;Node8 -->
<g id="edge21" class="edge">
<title>Node1&#45;&gt;Node8</title>
<path fill="none" stroke="midnightblue" d="M319.36,-480.49C211.61,-465.85 38,-433.17 38,-374.5 38,-374.5 38,-374.5 38,-305.5 38,-233.76 130.86,-201.1 190.34,-187.54"/>
<polygon fill="midnightblue" stroke="midnightblue" points="319.2,-484 329.58,-481.85 320.13,-477.06 319.2,-484"/>
</g>
<!-- Node14 -->
<g id="node14" class="node">
<title>Node14</title>
<g id="a_node14"><a xlink:href="resharing_8h.html" target="_top" xlink:title=" ">
<polygon fill="white" stroke="black" points="459,-230 459,-249 575,-249 575,-230 459,-230"/>
<text text-anchor="middle" x="517" y="-237" font-family="Helvetica,sans-Serif" font-size="10.00">src/node/resharing.h</text>
</a>
</g>
</g>
<!-- Node1&#45;&gt;Node14 -->
<g id="edge22" class="edge">
<title>Node1&#45;&gt;Node14</title>
<path fill="none" stroke="midnightblue" d="M418.11,-473.82C443.21,-445.63 492.4,-384.53 509,-322 515.86,-296.17 516.96,-264.32 517.06,-249.23"/>
<polygon fill="midnightblue" stroke="midnightblue" points="415.28,-471.72 411.15,-481.48 420.47,-476.43 415.28,-471.72"/>
</g>
<!-- Node3 -->
<g id="node3" class="node">
<title>Node3</title>
<g id="a_node3"><a xlink:href="enclave_2main_8cpp.html" target="_top" xlink:title=" ">
<polygon fill="white" stroke="black" points="179,-0.5 179,-19.5 299,-19.5 299,-0.5 179,-0.5"/>
<text text-anchor="middle" x="239" y="-7.5" font-family="Helvetica,sans-Serif" font-size="10.00">src/enclave/main.cpp</text>
</a>
</g>
</g>
<!-- Node2&#45;&gt;Node3 -->
<g id="edge2" class="edge">
<title>Node2&#45;&gt;Node3</title>
<path fill="none" stroke="midnightblue" d="M239,-45.8C239,-36.91 239,-26.78 239,-19.75"/>
<polygon fill="midnightblue" stroke="midnightblue" points="235.5,-46.08 239,-56.08 242.5,-46.08 235.5,-46.08"/>
</g>
<!-- Node4&#45;&gt;Node1 -->
<g id="edge4" class="edge">
<title>Node4&#45;&gt;Node1</title>
<path fill="none" stroke="midnightblue" d="M583.5,-447.06C543.73,-457.25 482.88,-472.14 442.95,-481.44"/>
<polygon fill="midnightblue" stroke="midnightblue" points="584.57,-450.4 593.38,-444.52 582.83,-443.62 584.57,-450.4"/>
</g>
<!-- Node6 -->
<g id="node6" class="node">
<title>Node6</title>
<g id="a_node6"><a xlink:href="orc__requests_8h.html" target="_top" xlink:title=" ">
<polygon fill="white" stroke="black" points="351.5,-358.5 351.5,-388.5 470.5,-388.5 470.5,-358.5 351.5,-358.5"/>
<text text-anchor="start" x="359.5" y="-376.5" font-family="Helvetica,sans-Serif" font-size="10.00">src/consensus/aft/orc</text>
<text text-anchor="middle" x="411" y="-365.5" font-family="Helvetica,sans-Serif" font-size="10.00">_requests.h</text>
</a>
</g>
</g>
<!-- Node5&#45;&gt;Node6 -->
<g id="edge6" class="edge">
<title>Node5&#45;&gt;Node6</title>
<path fill="none" stroke="midnightblue" d="M298.62,-421.59C321.64,-411.94 353.59,-398.56 377.53,-388.52"/>
<polygon fill="midnightblue" stroke="midnightblue" points="297.22,-418.38 289.35,-425.48 299.92,-424.84 297.22,-418.38"/>
</g>
<!-- Node7 -->
<g id="node7" class="node">
<title>Node7</title>
<g id="a_node7"><a xlink:href="raft_8h.html" target="_top" xlink:title=" ">
<polygon fill="white" stroke="black" points="194.5,-297 194.5,-316 323.5,-316 323.5,-297 194.5,-297"/>
<text text-anchor="middle" x="259" y="-304" font-family="Helvetica,sans-Serif" font-size="10.00">src/consensus/aft/raft.h</text>
</a>
</g>
</g>
<!-- Node5&#45;&gt;Node7 -->
<g id="edge16" class="edge">
<title>Node5&#45;&gt;Node7</title>
<path fill="none" stroke="midnightblue" d="M233.55,-421.2C219.22,-414.06 204.16,-403.61 196,-389 189.28,-376.97 190.04,-370.42 196,-358 205.28,-338.67 225.97,-324.4 241.12,-316.06"/>
<polygon fill="midnightblue" stroke="midnightblue" points="232.24,-424.44 242.79,-425.41 235.15,-418.08 232.24,-424.44"/>
</g>
<!-- Node12 -->
<g id="node12" class="node">
<title>Node12</title>
<g id="a_node12"><a xlink:href="http__node__client_8h.html" target="_top" xlink:title=" ">
<polygon fill="white" stroke="black" points="66,-291.5 66,-321.5 176,-321.5 176,-291.5 66,-291.5"/>
<text text-anchor="start" x="74" y="-309.5" font-family="Helvetica,sans-Serif" font-size="10.00">src/node/http_node</text>
<text text-anchor="middle" x="121" y="-298.5" font-family="Helvetica,sans-Serif" font-size="10.00">_client.h</text>
</a>
</g>
</g>
<!-- Node5&#45;&gt;Node12 -->
<g id="edge17" class="edge">
<title>Node5&#45;&gt;Node12</title>
<path fill="none" stroke="midnightblue" d="M239.68,-421.06C223.51,-413.12 203.6,-402 188,-389 163.8,-368.83 141.87,-338.97 130.09,-321.55"/>
<polygon fill="midnightblue" stroke="midnightblue" points="238.18,-424.22 248.72,-425.35 241.19,-417.9 238.18,-424.22"/>
</g>
<!-- Node13 -->
<g id="node13" class="node">
<title>Node13</title>
<g id="a_node13"><a xlink:href="retired__nodes__cleanup_8h.html" target="_top" xlink:title=" ">
<polygon fill="white" stroke="black" points="205,-358.5 205,-388.5 333,-388.5 333,-358.5 205,-358.5"/>
<text text-anchor="start" x="213" y="-376.5" font-family="Helvetica,sans-Serif" font-size="10.00">src/node/retired_nodes</text>
<text text-anchor="middle" x="269" y="-365.5" font-family="Helvetica,sans-Serif" font-size="10.00">_cleanup.h</text>
</a>
</g>
</g>
<!-- Node5&#45;&gt;Node13 -->
<g id="edge19" class="edge">
<title>Node5&#45;&gt;Node13</title>
<path fill="none" stroke="midnightblue" d="M269,-415.23C269,-406.59 269,-396.5 269,-388.52"/>
<polygon fill="midnightblue" stroke="midnightblue" points="265.5,-415.48 269,-425.48 272.5,-415.48 265.5,-415.48"/>
</g>
<!-- Node6&#45;&gt;Node7 -->
<g id="edge7" class="edge">
<title>Node6&#45;&gt;Node7</title>
<path fill="none" stroke="midnightblue" d="M368.81,-354.46C339.44,-341.9 301.62,-325.72 278.89,-316.01"/>
<polygon fill="midnightblue" stroke="midnightblue" points="367.45,-357.68 378.02,-358.4 370.2,-351.25 367.45,-357.68"/>
</g>
<!-- Node10 -->
<g id="node10" class="node">
<title>Node10</title>
<g id="a_node10"><a xlink:href="node__frontend_8h.html" target="_top" xlink:title=" ">
<polygon fill="white" stroke="black" points="342,-297 342,-316 500,-316 500,-297 342,-297"/>
<text text-anchor="middle" x="421" y="-304" font-family="Helvetica,sans-Serif" font-size="10.00">src/node/rpc/node_frontend.h</text>
</a>
</g>
</g>
<!-- Node6&#45;&gt;Node10 -->
<g id="edge12" class="edge">
<title>Node6&#45;&gt;Node10</title>
<path fill="none" stroke="midnightblue" d="M414.73,-348.25C416.46,-337.02 418.4,-324.38 419.66,-316.19"/>
<polygon fill="midnightblue" stroke="midnightblue" points="411.23,-347.98 413.17,-358.4 418.15,-349.04 411.23,-347.98"/>
</g>
<!-- Node7&#45;&gt;Node8 -->
<g id="edge8" class="edge">
<title>Node7&#45;&gt;Node8</title>
<path fill="none" stroke="midnightblue" d="M256.04,-286.81C251.66,-259.08 243.61,-208.13 240.38,-187.76"/>
<polygon fill="midnightblue" stroke="midnightblue" points="252.61,-287.47 257.63,-296.81 259.52,-286.38 252.61,-287.47"/>
</g>
<!-- Node8&#45;&gt;Node2 -->
<g id="edge9" class="edge">
<title>Node8&#45;&gt;Node2</title>
<path fill="none" stroke="midnightblue" d="M253.98,-160.47C260.22,-152.48 266.77,-142.38 270,-132 276.61,-110.75 259.04,-87.63 247.72,-75.51"/>
<polygon fill="midnightblue" stroke="midnightblue" points="251.21,-158.32 247.48,-168.23 256.58,-162.81 251.21,-158.32"/>
</g>
<!-- Node9 -->
<g id="node9" class="node">
<title>Node9</title>
<g id="a_node9"><a xlink:href="gov__effects_8h.html" target="_top" xlink:title=" ">
<polygon fill="white" stroke="black" points="117,-112.5 117,-131.5 261,-131.5 261,-112.5 117,-112.5"/>
<text text-anchor="middle" x="189" y="-119.5" font-family="Helvetica,sans-Serif" font-size="10.00">src/node/rpc/gov_effects.h</text>
</a>
</g>
</g>
<!-- Node8&#45;&gt;Node9 -->
<g id="edge10" class="edge">
<title>Node8&#45;&gt;Node9</title>
<path fill="none" stroke="midnightblue" d="M223.92,-160.72C215.11,-151.2 204.33,-139.56 197.1,-131.75"/>
<polygon fill="midnightblue" stroke="midnightblue" points="221.38,-163.12 230.74,-168.08 226.52,-158.37 221.38,-163.12"/>
</g>
<!-- Node9&#45;&gt;Node2 -->
<g id="edge11" class="edge">
<title>Node9&#45;&gt;Node2</title>
<path fill="none" stroke="midnightblue" d="M204.08,-104.72C212.89,-95.2 223.67,-83.56 230.9,-75.75"/>
<polygon fill="midnightblue" stroke="midnightblue" points="201.48,-102.37 197.26,-112.08 206.62,-107.12 201.48,-102.37"/>
</g>
<!-- Node10&#45;&gt;Node2 -->
<g id="edge13" class="edge">
<title>Node10&#45;&gt;Node2</title>
<path fill="none" stroke="midnightblue" d="M419.34,-286.39C417.16,-269.13 412.19,-243.51 401,-224 361.44,-155.04 282.75,-96.72 251.87,-75.53"/>
<polygon fill="midnightblue" stroke="midnightblue" points="415.91,-287.25 420.44,-296.83 422.87,-286.52 415.91,-287.25"/>
</g>
<!-- Node11 -->
<g id="node11" class="node">
<title>Node11</title>
<g id="a_node11"><a xlink:href="jwt__key__auto__refresh_8h.html" target="_top" xlink:title=" ">
<polygon fill="white" stroke="black" points="267.5,-224.5 267.5,-254.5 392.5,-254.5 392.5,-224.5 267.5,-224.5"/>
<text text-anchor="start" x="275.5" y="-242.5" font-family="Helvetica,sans-Serif" font-size="10.00">src/node/jwt_key_auto</text>
<text text-anchor="middle" x="330" y="-231.5" font-family="Helvetica,sans-Serif" font-size="10.00">_refresh.h</text>
</a>
</g>
</g>
<!-- Node10&#45;&gt;Node11 -->
<g id="edge14" class="edge">
<title>Node10&#45;&gt;Node11</title>
<path fill="none" stroke="midnightblue" d="M400.49,-290.85C385.3,-280 364.72,-265.3 349.72,-254.59"/>
<polygon fill="midnightblue" stroke="midnightblue" points="398.56,-293.77 408.73,-296.73 402.62,-288.07 398.56,-293.77"/>
</g>
<!-- Node11&#45;&gt;Node8 -->
<g id="edge15" class="edge">
<title>Node11&#45;&gt;Node8</title>
<path fill="none" stroke="midnightblue" d="M299.83,-218.78C283.71,-208.23 264.67,-195.78 252.24,-187.66"/>
<polygon fill="midnightblue" stroke="midnightblue" points="298.15,-221.86 308.43,-224.4 301.98,-216 298.15,-221.86"/>
</g>
<!-- Node12&#45;&gt;Node8 -->
<g id="edge18" class="edge">
<title>Node12&#45;&gt;Node8</title>
<path fill="none" stroke="midnightblue" d="M140.96,-284.1C167.28,-255.89 212.38,-207.53 230.8,-187.79"/>
<polygon fill="midnightblue" stroke="midnightblue" points="138.34,-281.78 134.08,-291.48 143.46,-286.55 138.34,-281.78"/>
</g>
<!-- Node13&#45;&gt;Node7 -->
<g id="edge20" class="edge">
<title>Node13&#45;&gt;Node7</title>
<path fill="none" stroke="midnightblue" d="M265.27,-348.25C263.54,-337.02 261.6,-324.38 260.34,-316.19"/>
<polygon fill="midnightblue" stroke="midnightblue" points="261.85,-349.04 266.83,-358.4 268.77,-347.98 261.85,-349.04"/>
</g>
<!-- Node14&#45;&gt;Node8 -->
<g id="edge23" class="edge">
<title>Node14&#45;&gt;Node8</title>
<path fill="none" stroke="midnightblue" d="M467.15,-227.83C413.24,-216.29 328.37,-198.13 278.76,-187.51"/>
<polygon fill="midnightblue" stroke="midnightblue" points="466.66,-231.3 477.17,-229.98 468.12,-224.46 466.66,-231.3"/>
</g>
</g>
</svg>
