<?xml version="1.0" encoding="UTF-8" standalone="no"?>
<!DOCTYPE svg PUBLIC "-//W3C//DTD SVG 1.1//EN"
 "http://www.w3.org/Graphics/SVG/1.1/DTD/svg11.dtd">
<!-- Generated by graphviz version 2.43.0 (0)
 -->
<!-- Title: src/enclave/rpc_handler.h Pages: 1 -->
<svg width="1292pt" height="699pt"
 viewBox="0.00 0.00 1292.00 699.00" xmlns="http://www.w3.org/2000/svg" xmlns:xlink="http://www.w3.org/1999/xlink">
<g id="graph0" class="graph" transform="scale(1 1) rotate(0) translate(4 695)">
<title>src/enclave/rpc_handler.h</title>
<polygon fill="white" stroke="transparent" points="-4,4 -4,-695 1288,-695 1288,4 -4,4"/>
<!-- Node1 -->
<g id="node1" class="node">
<title>Node1</title>
<g id="a_node1"><a xlink:title=" ">
<polygon fill="#bfbfbf" stroke="black" points="751,-671.5 751,-690.5 891,-690.5 891,-671.5 751,-671.5"/>
<text text-anchor="middle" x="821" y="-678.5" font-family="Helvetica,sans-Serif" font-size="10.00">src/enclave/rpc_handler.h</text>
</a>
</g>
</g>
<!-- Node2 -->
<g id="node2" class="node">
<title>Node2</title>
<g id="a_node2"><a xlink:href="raft__types_8h.html" target="_top" xlink:title=" ">
<polygon fill="white" stroke="black" points="452,-492.5 452,-522.5 572,-522.5 572,-492.5 452,-492.5"/>
<text text-anchor="start" x="460" y="-510.5" font-family="Helvetica,sans-Serif" font-size="10.00">src/consensus/aft/raft</text>
<text text-anchor="middle" x="512" y="-499.5" font-family="Helvetica,sans-Serif" font-size="10.00">_types.h</text>
</a>
</g>
</g>
<!-- Node1&#45;&gt;Node2 -->
<g id="edge1" class="edge">
<title>Node1&#45;&gt;Node2</title>
<path fill="none" stroke="midnightblue" d="M796.6,-666.46C739.11,-634.55 595.63,-554.92 537.28,-522.53"/>
<polygon fill="midnightblue" stroke="midnightblue" points="795.23,-669.7 805.68,-671.5 798.63,-663.58 795.23,-669.7"/>
</g>
<!-- Node20 -->
<g id="node20" class="node">
<title>Node20</title>
<g id="a_node20"><a xlink:href="rpc__map_8h.html" target="_top" xlink:title=" ">
<polygon fill="white" stroke="black" points="902,-615.5 902,-634.5 1028,-634.5 1028,-615.5 902,-615.5"/>
<text text-anchor="middle" x="965" y="-622.5" font-family="Helvetica,sans-Serif" font-size="10.00">src/enclave/rpc_map.h</text>
</a>
</g>
</g>
<!-- Node1&#45;&gt;Node20 -->
<g id="edge30" class="edge">
<title>Node1&#45;&gt;Node20</title>
<path fill="none" stroke="midnightblue" d="M853.25,-667.91C880.32,-657.75 918.32,-643.51 942.29,-634.52"/>
<polygon fill="midnightblue" stroke="midnightblue" points="851.95,-664.66 843.82,-671.44 854.41,-671.21 851.95,-664.66"/>
</g>
<!-- Node22 -->
<g id="node22" class="node">
<title>Node22</title>
<g id="a_node22"><a xlink:href="rpc__sessions_8h.html" target="_top" xlink:title=" ">
<polygon fill="white" stroke="black" points="840,-498 840,-517 986,-517 986,-498 840,-498"/>
<text text-anchor="middle" x="913" y="-505" font-family="Helvetica,sans-Serif" font-size="10.00">src/enclave/rpc_sessions.h</text>
</a>
</g>
</g>
<!-- Node1&#45;&gt;Node22 -->
<g id="edge48" class="edge">
<title>Node1&#45;&gt;Node22</title>
<path fill="none" stroke="midnightblue" d="M819.79,-661.25C819.08,-636.04 821.04,-590.73 841,-559 853.36,-539.36 876.42,-525.24 893.12,-517.01"/>
<polygon fill="midnightblue" stroke="midnightblue" points="816.3,-661.47 820.26,-671.29 823.29,-661.14 816.3,-661.47"/>
</g>
<!-- Node24 -->
<g id="node24" class="node">
<title>Node24</title>
<g id="a_node24"><a xlink:href="frontend_8h.html" target="_top" xlink:title=" ">
<polygon fill="white" stroke="black" points="1024.5,-364 1024.5,-383 1153.5,-383 1153.5,-364 1024.5,-364"/>
<text text-anchor="middle" x="1089" y="-371" font-family="Helvetica,sans-Serif" font-size="10.00">src/node/rpc/frontend.h</text>
</a>
</g>
</g>
<!-- Node1&#45;&gt;Node24 -->
<g id="edge55" class="edge">
<title>Node1&#45;&gt;Node24</title>
<path fill="none" stroke="midnightblue" d="M901.12,-673.49C1014.46,-662.04 1208,-633.23 1208,-570 1208,-570 1208,-570 1208,-506.5 1208,-446.18 1138.6,-401.01 1105.8,-383.03"/>
<polygon fill="midnightblue" stroke="midnightblue" points="900.69,-670.02 891.08,-674.48 901.38,-676.98 900.69,-670.02"/>
</g>
<!-- Node27 -->
<g id="node27" class="node">
<title>Node27</title>
<g id="a_node27"><a xlink:href="node__to__node_8h.html" target="_top" xlink:title=" ">
<polygon fill="white" stroke="black" points="7,-498 7,-517 145,-517 145,-498 7,-498"/>
<text text-anchor="middle" x="76" y="-505" font-family="Helvetica,sans-Serif" font-size="10.00">src/node/node_to_node.h</text>
</a>
</g>
</g>
<!-- Node1&#45;&gt;Node27 -->
<g id="edge49" class="edge">
<title>Node1&#45;&gt;Node27</title>
<path fill="none" stroke="midnightblue" d="M774.26,-669.24C637.04,-637.65 237.24,-545.62 113.17,-517.06"/>
<polygon fill="midnightblue" stroke="midnightblue" points="773.53,-672.66 784.06,-671.5 775.1,-665.84 773.53,-672.66"/>
</g>
<!-- Node3 -->
<g id="node3" class="node">
<title>Node3</title>
<g id="a_node3"><a xlink:href="request__message_8h.html" target="_top" xlink:title=" ">
<polygon fill="white" stroke="black" points="315.5,-425.5 315.5,-455.5 440.5,-455.5 440.5,-425.5 315.5,-425.5"/>
<text text-anchor="start" x="323.5" y="-443.5" font-family="Helvetica,sans-Serif" font-size="10.00">src/consensus/aft/impl</text>
<text text-anchor="middle" x="378" y="-432.5" font-family="Helvetica,sans-Serif" font-size="10.00">/request_message.h</text>
</a>
</g>
</g>
<!-- Node2&#45;&gt;Node3 -->
<g id="edge2" class="edge">
<title>Node2&#45;&gt;Node3</title>
<path fill="none" stroke="midnightblue" d="M473.85,-487.99C452.61,-477.69 426.59,-465.07 407.02,-455.58"/>
<polygon fill="midnightblue" stroke="midnightblue" points="472.4,-491.18 482.92,-492.4 475.45,-484.88 472.4,-491.18"/>
</g>
<!-- Node4 -->
<g id="node4" class="node">
<title>Node4</title>
<g id="a_node4"><a xlink:href="state_8h.html" target="_top" xlink:title=" ">
<polygon fill="white" stroke="black" points="583.5,-425.5 583.5,-455.5 708.5,-455.5 708.5,-425.5 583.5,-425.5"/>
<text text-anchor="start" x="591.5" y="-443.5" font-family="Helvetica,sans-Serif" font-size="10.00">src/consensus/aft/impl</text>
<text text-anchor="middle" x="646" y="-432.5" font-family="Helvetica,sans-Serif" font-size="10.00">/state.h</text>
</a>
</g>
</g>
<!-- Node2&#45;&gt;Node4 -->
<g id="edge3" class="edge">
<title>Node2&#45;&gt;Node4</title>
<path fill="none" stroke="midnightblue" d="M550.15,-487.99C571.39,-477.69 597.41,-465.07 616.98,-455.58"/>
<polygon fill="midnightblue" stroke="midnightblue" points="548.55,-484.88 541.08,-492.4 551.6,-491.18 548.55,-484.88"/>
</g>
<!-- Node5 -->
<g id="node5" class="node">
<title>Node5</title>
<g id="a_node5"><a xlink:href="raft_8h.html" target="_top" xlink:title=" ">
<polygon fill="white" stroke="black" points="360.5,-302.5 360.5,-321.5 489.5,-321.5 489.5,-302.5 360.5,-302.5"/>
<text text-anchor="middle" x="425" y="-309.5" font-family="Helvetica,sans-Serif" font-size="10.00">src/consensus/aft/raft.h</text>
</a>
</g>
</g>
<!-- Node2&#45;&gt;Node5 -->
<g id="edge12" class="edge">
<title>Node2&#45;&gt;Node5</title>
<path fill="none" stroke="midnightblue" d="M441.85,-502.09C337.9,-494.82 153,-478.84 133,-456 110.49,-430.29 148.69,-367.1 160,-358 190.08,-333.78 292.02,-322.07 360.34,-316.81"/>
<polygon fill="midnightblue" stroke="midnightblue" points="441.74,-505.59 451.95,-502.78 442.22,-498.6 441.74,-505.59"/>
</g>
<!-- Node11 -->
<g id="node11" class="node">
<title>Node11</title>
<g id="a_node11"><a xlink:href="node__connections_8h.html" target="_top" xlink:title=" ">
<polygon fill="white" stroke="black" points="142.5,-431 142.5,-450 297.5,-450 297.5,-431 142.5,-431"/>
<text text-anchor="middle" x="220" y="-438" font-family="Helvetica,sans-Serif" font-size="10.00">src/host/node_connections.h</text>
</a>
</g>
</g>
<!-- Node2&#45;&gt;Node11 -->
<g id="edge13" class="edge">
<title>Node2&#45;&gt;Node11</title>
<path fill="none" stroke="midnightblue" d="M442.08,-490.94C384.43,-478.1 304.83,-460.38 258.24,-450.01"/>
<polygon fill="midnightblue" stroke="midnightblue" points="441.33,-494.35 451.85,-493.11 442.85,-487.52 441.33,-494.35"/>
</g>
<!-- Node13 -->
<g id="node13" class="node">
<title>Node13</title>
<g id="a_node13"><a xlink:href="node__client_8h.html" target="_top" xlink:title=" ">
<polygon fill="white" stroke="black" points="765,-431 765,-450 891,-450 891,-431 765,-431"/>
<text text-anchor="middle" x="828" y="-438" font-family="Helvetica,sans-Serif" font-size="10.00">src/node/node_client.h</text>
</a>
</g>
</g>
<!-- Node2&#45;&gt;Node13 -->
<g id="edge15" class="edge">
<title>Node2&#45;&gt;Node13</title>
<path fill="none" stroke="midnightblue" d="M582.01,-492.1C644.77,-479.19 734.72,-460.69 786.67,-450"/>
<polygon fill="midnightblue" stroke="midnightblue" points="581.27,-488.68 572.18,-494.12 582.68,-495.53 581.27,-488.68"/>
</g>
<!-- Node19 -->
<g id="node19" class="node">
<title>Node19</title>
<g id="a_node19"><a xlink:href="resharing__tracker_8h.html" target="_top" xlink:title=" ">
<polygon fill="white" stroke="black" points="458.5,-425.5 458.5,-455.5 565.5,-455.5 565.5,-425.5 458.5,-425.5"/>
<text text-anchor="start" x="466.5" y="-443.5" font-family="Helvetica,sans-Serif" font-size="10.00">src/node/resharing</text>
<text text-anchor="middle" x="512" y="-432.5" font-family="Helvetica,sans-Serif" font-size="10.00">_tracker.h</text>
</a>
</g>
</g>
<!-- Node2&#45;&gt;Node19 -->
<g id="edge27" class="edge">
<title>Node2&#45;&gt;Node19</title>
<path fill="none" stroke="midnightblue" d="M512,-482.11C512,-473.15 512,-463.32 512,-455.58"/>
<polygon fill="midnightblue" stroke="midnightblue" points="508.5,-482.4 512,-492.4 515.5,-482.4 508.5,-482.4"/>
</g>
<!-- Node4&#45;&gt;Node5 -->
<g id="edge4" class="edge">
<title>Node4&#45;&gt;Node5</title>
<path fill="none" stroke="midnightblue" d="M573.31,-424.49C502.93,-409.9 406.68,-389.84 406,-389 389.72,-368.93 408.07,-336.79 418.62,-321.55"/>
<polygon fill="midnightblue" stroke="midnightblue" points="572.99,-427.99 583.5,-426.59 574.41,-421.14 572.99,-427.99"/>
</g>
<!-- Node10 -->
<g id="node10" class="node">
<title>Node10</title>
<g id="a_node10"><a xlink:href="resharing_8h.html" target="_top" xlink:title=" ">
<polygon fill="white" stroke="black" points="415,-364 415,-383 531,-383 531,-364 415,-364"/>
<text text-anchor="middle" x="473" y="-371" font-family="Helvetica,sans-Serif" font-size="10.00">src/node/resharing.h</text>
</a>
</g>
</g>
<!-- Node4&#45;&gt;Node10 -->
<g id="edge10" class="edge">
<title>Node4&#45;&gt;Node10</title>
<path fill="none" stroke="midnightblue" d="M598.85,-421.78C565.3,-409.18 521.73,-392.81 495.64,-383.01"/>
<polygon fill="midnightblue" stroke="midnightblue" points="597.87,-425.16 608.46,-425.4 600.33,-418.6 597.87,-425.16"/>
</g>
<!-- Node6 -->
<g id="node6" class="node">
<title>Node6</title>
<g id="a_node6"><a xlink:href="node__state_8h.html" target="_top" xlink:title=" ">
<polygon fill="white" stroke="black" points="606,-174 606,-193 730,-193 730,-174 606,-174"/>
<text text-anchor="middle" x="668" y="-181" font-family="Helvetica,sans-Serif" font-size="10.00">src/node/node_state.h</text>
</a>
</g>
</g>
<!-- Node5&#45;&gt;Node6 -->
<g id="edge5" class="edge">
<title>Node5&#45;&gt;Node6</title>
<path fill="none" stroke="midnightblue" d="M441.38,-295.35C459.76,-278.5 491.05,-251.86 522,-235 557.8,-215.5 602.56,-201.35 633.02,-193.08"/>
<polygon fill="midnightblue" stroke="midnightblue" points="438.83,-292.95 433.9,-302.33 443.6,-298.07 438.83,-292.95"/>
</g>
<!-- Node7 -->
<g id="node7" class="node">
<title>Node7</title>
<g id="a_node7"><a xlink:href="enclave_2enclave_8h.html" target="_top" xlink:title=" ">
<polygon fill="white" stroke="black" points="988,-56.5 988,-75.5 1110,-75.5 1110,-56.5 988,-56.5"/>
<text text-anchor="middle" x="1049" y="-63.5" font-family="Helvetica,sans-Serif" font-size="10.00">src/enclave/enclave.h</text>
</a>
</g>
</g>
<!-- Node6&#45;&gt;Node7 -->
<g id="edge6" class="edge">
<title>Node6&#45;&gt;Node7</title>
<path fill="none" stroke="midnightblue" d="M682.13,-166.03C697.35,-149.48 723.16,-124.67 751,-112 827.56,-77.17 925.47,-68.34 987.73,-66.59"/>
<polygon fill="midnightblue" stroke="midnightblue" points="679.23,-164.03 675.19,-173.82 684.45,-168.69 679.23,-164.03"/>
</g>
<!-- Node9 -->
<g id="node9" class="node">
<title>Node9</title>
<g id="a_node9"><a xlink:href="gov__effects_8h.html" target="_top" xlink:title=" ">
<polygon fill="white" stroke="black" points="760,-112.5 760,-131.5 904,-131.5 904,-112.5 760,-112.5"/>
<text text-anchor="middle" x="832" y="-119.5" font-family="Helvetica,sans-Serif" font-size="10.00">src/node/rpc/gov_effects.h</text>
</a>
</g>
</g>
<!-- Node6&#45;&gt;Node9 -->
<g id="edge8" class="edge">
<title>Node6&#45;&gt;Node9</title>
<path fill="none" stroke="midnightblue" d="M701.26,-170.43C733.14,-158.87 780.43,-141.71 808.55,-131.51"/>
<polygon fill="midnightblue" stroke="midnightblue" points="699.7,-167.27 691.5,-173.98 702.09,-173.85 699.7,-167.27"/>
</g>
<!-- Node8 -->
<g id="node8" class="node">
<title>Node8</title>
<g id="a_node8"><a xlink:href="enclave_2main_8cpp.html" target="_top" xlink:title=" ">
<polygon fill="white" stroke="black" points="989,-0.5 989,-19.5 1109,-19.5 1109,-0.5 989,-0.5"/>
<text text-anchor="middle" x="1049" y="-7.5" font-family="Helvetica,sans-Serif" font-size="10.00">src/enclave/main.cpp</text>
</a>
</g>
</g>
<!-- Node7&#45;&gt;Node8 -->
<g id="edge7" class="edge">
<title>Node7&#45;&gt;Node8</title>
<path fill="none" stroke="midnightblue" d="M1049,-45.8C1049,-36.91 1049,-26.78 1049,-19.75"/>
<polygon fill="midnightblue" stroke="midnightblue" points="1045.5,-46.08 1049,-56.08 1052.5,-46.08 1045.5,-46.08"/>
</g>
<!-- Node9&#45;&gt;Node7 -->
<g id="edge9" class="edge">
<title>Node9&#45;&gt;Node7</title>
<path fill="none" stroke="midnightblue" d="M876.11,-110.02C917.1,-99.82 977.3,-84.84 1014.78,-75.52"/>
<polygon fill="midnightblue" stroke="midnightblue" points="875.24,-106.63 866.38,-112.44 876.93,-113.43 875.24,-106.63"/>
</g>
<!-- Node10&#45;&gt;Node6 -->
<g id="edge11" class="edge">
<title>Node10&#45;&gt;Node6</title>
<path fill="none" stroke="midnightblue" d="M485.08,-355.54C505.09,-328.16 547.27,-273.43 591,-235 610.45,-217.9 636.12,-202.22 652.35,-193.01"/>
<polygon fill="midnightblue" stroke="midnightblue" points="482.2,-353.55 479.18,-363.71 487.87,-357.66 482.2,-353.55"/>
</g>
<!-- Node12 -->
<g id="node12" class="node">
<title>Node12</title>
<g id="a_node12"><a xlink:href="host_2main_8cpp.html" target="_top" xlink:title=" ">
<polygon fill="white" stroke="black" points="168.5,-364 168.5,-383 271.5,-383 271.5,-364 168.5,-364"/>
<text text-anchor="middle" x="220" y="-371" font-family="Helvetica,sans-Serif" font-size="10.00">src/host/main.cpp</text>
</a>
</g>
</g>
<!-- Node11&#45;&gt;Node12 -->
<g id="edge14" class="edge">
<title>Node11&#45;&gt;Node12</title>
<path fill="none" stroke="midnightblue" d="M220,-420.54C220,-408.17 220,-392.62 220,-383.13"/>
<polygon fill="midnightblue" stroke="midnightblue" points="216.5,-420.73 220,-430.73 223.5,-420.73 216.5,-420.73"/>
</g>
<!-- Node13&#45;&gt;Node5 -->
<g id="edge22" class="edge">
<title>Node13&#45;&gt;Node5</title>
<path fill="none" stroke="midnightblue" d="M799.68,-426.48C779.53,-416.88 752.07,-403.08 729,-389 708.89,-376.72 707.72,-367.12 686,-358 622.52,-331.33 544,-320.47 489.75,-316.04"/>
<polygon fill="midnightblue" stroke="midnightblue" points="798.39,-429.74 808.92,-430.84 801.37,-423.41 798.39,-429.74"/>
</g>
<!-- Node14 -->
<g id="node14" class="node">
<title>Node14</title>
<g id="a_node14"><a xlink:href="orc__requests_8h.html" target="_top" xlink:title=" ">
<polygon fill="white" stroke="black" points="771.5,-358.5 771.5,-388.5 890.5,-388.5 890.5,-358.5 771.5,-358.5"/>
<text text-anchor="start" x="779.5" y="-376.5" font-family="Helvetica,sans-Serif" font-size="10.00">src/consensus/aft/orc</text>
<text text-anchor="middle" x="831" y="-365.5" font-family="Helvetica,sans-Serif" font-size="10.00">_requests.h</text>
</a>
</g>
</g>
<!-- Node13&#45;&gt;Node14 -->
<g id="edge16" class="edge">
<title>Node13&#45;&gt;Node14</title>
<path fill="none" stroke="midnightblue" d="M828.87,-420.74C829.34,-410.49 829.92,-398 830.35,-388.59"/>
<polygon fill="midnightblue" stroke="midnightblue" points="825.37,-420.58 828.4,-430.73 832.36,-420.91 825.37,-420.58"/>
</g>
<!-- Node17 -->
<g id="node17" class="node">
<title>Node17</title>
<g id="a_node17"><a xlink:href="http__node__client_8h.html" target="_top" xlink:title=" ">
<polygon fill="white" stroke="black" points="600,-235.5 600,-265.5 710,-265.5 710,-235.5 600,-235.5"/>
<text text-anchor="start" x="608" y="-253.5" font-family="Helvetica,sans-Serif" font-size="10.00">src/node/http_node</text>
<text text-anchor="middle" x="655" y="-242.5" font-family="Helvetica,sans-Serif" font-size="10.00">_client.h</text>
</a>
</g>
</g>
<!-- Node13&#45;&gt;Node17 -->
<g id="edge23" class="edge">
<title>Node13&#45;&gt;Node17</title>
<path fill="none" stroke="midnightblue" d="M806.57,-424.89C793.35,-415.4 776.42,-402.35 763,-389 721.9,-348.11 682.01,-291.7 664.4,-265.68"/>
<polygon fill="midnightblue" stroke="midnightblue" points="804.84,-427.96 815.04,-430.85 808.87,-422.23 804.84,-427.96"/>
</g>
<!-- Node18 -->
<g id="node18" class="node">
<title>Node18</title>
<g id="a_node18"><a xlink:href="retired__nodes__cleanup_8h.html" target="_top" xlink:title=" ">
<polygon fill="white" stroke="black" points="549,-358.5 549,-388.5 677,-388.5 677,-358.5 549,-358.5"/>
<text text-anchor="start" x="557" y="-376.5" font-family="Helvetica,sans-Serif" font-size="10.00">src/node/retired_nodes</text>
<text text-anchor="middle" x="613" y="-365.5" font-family="Helvetica,sans-Serif" font-size="10.00">_cleanup.h</text>
</a>
</g>
</g>
<!-- Node13&#45;&gt;Node18 -->
<g id="edge25" class="edge">
<title>Node13&#45;&gt;Node18</title>
<path fill="none" stroke="midnightblue" d="M789.69,-427.92C753.23,-416.9 698.32,-400.29 659.4,-388.53"/>
<polygon fill="midnightblue" stroke="midnightblue" points="788.86,-431.32 799.45,-430.87 790.89,-424.62 788.86,-431.32"/>
</g>
<!-- Node14&#45;&gt;Node5 -->
<g id="edge17" class="edge">
<title>Node14&#45;&gt;Node5</title>
<path fill="none" stroke="midnightblue" d="M760.81,-362.21C682.27,-350.7 556.46,-332.27 483.18,-321.53"/>
<polygon fill="midnightblue" stroke="midnightblue" points="760.69,-365.73 771.09,-363.72 761.71,-358.81 760.69,-365.73"/>
</g>
<!-- Node15 -->
<g id="node15" class="node">
<title>Node15</title>
<g id="a_node15"><a xlink:href="node__frontend_8h.html" target="_top" xlink:title=" ">
<polygon fill="white" stroke="black" points="769,-302.5 769,-321.5 927,-321.5 927,-302.5 769,-302.5"/>
<text text-anchor="middle" x="848" y="-309.5" font-family="Helvetica,sans-Serif" font-size="10.00">src/node/rpc/node_frontend.h</text>
</a>
</g>
</g>
<!-- Node14&#45;&gt;Node15 -->
<g id="edge18" class="edge">
<title>Node14&#45;&gt;Node15</title>
<path fill="none" stroke="midnightblue" d="M837.83,-348.59C840.55,-339.08 843.51,-328.73 845.53,-321.66"/>
<polygon fill="midnightblue" stroke="midnightblue" points="834.41,-347.82 835.03,-358.4 841.14,-349.75 834.41,-347.82"/>
</g>
<!-- Node15&#45;&gt;Node7 -->
<g id="edge19" class="edge">
<title>Node15&#45;&gt;Node7</title>
<path fill="none" stroke="midnightblue" d="M868.83,-296.34C879.35,-288.23 891.8,-277.48 901,-266 949.36,-205.65 930.33,-169.54 982,-112 996.14,-96.26 1016.91,-83.43 1031.57,-75.56"/>
<polygon fill="midnightblue" stroke="midnightblue" points="866.49,-293.72 860.55,-302.49 870.67,-299.33 866.49,-293.72"/>
</g>
<!-- Node16 -->
<g id="node16" class="node">
<title>Node16</title>
<g id="a_node16"><a xlink:href="jwt__key__auto__refresh_8h.html" target="_top" xlink:title=" ">
<polygon fill="white" stroke="black" points="766.5,-235.5 766.5,-265.5 891.5,-265.5 891.5,-235.5 766.5,-235.5"/>
<text text-anchor="start" x="774.5" y="-253.5" font-family="Helvetica,sans-Serif" font-size="10.00">src/node/jwt_key_auto</text>
<text text-anchor="middle" x="829" y="-242.5" font-family="Helvetica,sans-Serif" font-size="10.00">_refresh.h</text>
</a>
</g>
</g>
<!-- Node15&#45;&gt;Node16 -->
<g id="edge20" class="edge">
<title>Node15&#45;&gt;Node16</title>
<path fill="none" stroke="midnightblue" d="M842.19,-292.82C839.39,-284.04 836.08,-273.68 833.48,-265.52"/>
<polygon fill="midnightblue" stroke="midnightblue" points="838.9,-294.01 845.28,-302.48 845.57,-291.88 838.9,-294.01"/>
</g>
<!-- Node16&#45;&gt;Node6 -->
<g id="edge21" class="edge">
<title>Node16&#45;&gt;Node6</title>
<path fill="none" stroke="midnightblue" d="M784.72,-231.62C753.55,-219.04 713.24,-202.77 689.07,-193.01"/>
<polygon fill="midnightblue" stroke="midnightblue" points="783.48,-234.9 794.07,-235.4 786.1,-228.41 783.48,-234.9"/>
</g>
<!-- Node17&#45;&gt;Node6 -->
<g id="edge24" class="edge">
<title>Node17&#45;&gt;Node6</title>
<path fill="none" stroke="midnightblue" d="M659.85,-225.25C662.1,-214.02 664.62,-201.38 666.26,-193.19"/>
<polygon fill="midnightblue" stroke="midnightblue" points="656.35,-224.9 657.82,-235.4 663.21,-226.28 656.35,-224.9"/>
</g>
<!-- Node18&#45;&gt;Node5 -->
<g id="edge26" class="edge">
<title>Node18&#45;&gt;Node5</title>
<path fill="none" stroke="midnightblue" d="M558.84,-355.36C523.87,-344.29 479.87,-330.37 452.08,-321.57"/>
<polygon fill="midnightblue" stroke="midnightblue" points="557.86,-358.72 568.45,-358.4 559.97,-352.05 557.86,-358.72"/>
</g>
<!-- Node19&#45;&gt;Node5 -->
<g id="edge28" class="edge">
<title>Node19&#45;&gt;Node5</title>
<path fill="none" stroke="midnightblue" d="M448.37,-424C416.33,-414.77 382.31,-402.29 373,-389 365.09,-377.72 367.27,-370.53 373,-358 380.39,-341.82 396.8,-329.23 409.22,-321.53"/>
<polygon fill="midnightblue" stroke="midnightblue" points="447.65,-427.43 458.23,-426.76 449.54,-420.69 447.65,-427.43"/>
</g>
<!-- Node19&#45;&gt;Node10 -->
<g id="edge29" class="edge">
<title>Node19&#45;&gt;Node10</title>
<path fill="none" stroke="midnightblue" d="M498.28,-416.63C491.34,-405.07 483.33,-391.71 478.22,-383.19"/>
<polygon fill="midnightblue" stroke="midnightblue" points="495.39,-418.62 503.54,-425.4 501.39,-415.02 495.39,-418.62"/>
</g>
<!-- Node20&#45;&gt;Node7 -->
<g id="edge31" class="edge">
<title>Node20&#45;&gt;Node7</title>
<path fill="none" stroke="midnightblue" d="M1007.45,-612.6C1094.26,-586.41 1284,-513.31 1284,-374.5 1284,-374.5 1284,-374.5 1284,-182.5 1284,-104.99 1179.76,-79.49 1110.13,-71.11"/>
<polygon fill="midnightblue" stroke="midnightblue" points="1006.24,-609.3 997.64,-615.49 1008.22,-616.02 1006.24,-609.3"/>
</g>
<!-- Node21 -->
<g id="node21" class="node">
<title>Node21</title>
<g id="a_node21"><a xlink:href="http__endpoint_8h.html" target="_top" xlink:title=" ">
<polygon fill="white" stroke="black" points="849.5,-559.5 849.5,-578.5 982.5,-578.5 982.5,-559.5 849.5,-559.5"/>
<text text-anchor="middle" x="916" y="-566.5" font-family="Helvetica,sans-Serif" font-size="10.00">src/http/http_endpoint.h</text>
</a>
</g>
</g>
<!-- Node20&#45;&gt;Node21 -->
<g id="edge32" class="edge">
<title>Node20&#45;&gt;Node21</title>
<path fill="none" stroke="midnightblue" d="M949.97,-607.43C941.38,-597.97 930.96,-586.48 923.94,-578.75"/>
<polygon fill="midnightblue" stroke="midnightblue" points="947.6,-610.03 956.91,-615.08 952.78,-605.33 947.6,-610.03"/>
</g>
<!-- Node23 -->
<g id="node23" class="node">
<title>Node23</title>
<g id="a_node23"><a xlink:href="forwarder_8h.html" target="_top" xlink:title=" ">
<polygon fill="white" stroke="black" points="947,-431 947,-450 1081,-450 1081,-431 947,-431"/>
<text text-anchor="middle" x="1014" y="-438" font-family="Helvetica,sans-Serif" font-size="10.00">src/node/rpc/forwarder.h</text>
</a>
</g>
</g>
<!-- Node20&#45;&gt;Node23 -->
<g id="edge39" class="edge">
<title>Node20&#45;&gt;Node23</title>
<path fill="none" stroke="midnightblue" d="M977.48,-606.74C982.74,-598.67 988.46,-588.72 992,-579 1008.97,-532.44 1012.87,-472.28 1013.75,-450.15"/>
<polygon fill="midnightblue" stroke="midnightblue" points="974.44,-604.98 971.67,-615.21 980.22,-608.94 974.44,-604.98"/>
</g>
<!-- Node21&#45;&gt;Node22 -->
<g id="edge33" class="edge">
<title>Node21&#45;&gt;Node22</title>
<path fill="none" stroke="midnightblue" d="M908.74,-549.32C907.31,-538.5 907.12,-525.4 908.53,-517.01"/>
<polygon fill="midnightblue" stroke="midnightblue" points="905.37,-550.3 910.67,-559.48 912.24,-549 905.37,-550.3"/>
</g>
<!-- Node22&#45;&gt;Node6 -->
<g id="edge37" class="edge">
<title>Node22&#45;&gt;Node6</title>
<path fill="none" stroke="midnightblue" d="M917.49,-488.01C923.8,-457.16 931.3,-394.92 900,-358 858.45,-308.99 809.51,-362.95 760,-322 727.06,-294.76 743.67,-269.9 719,-235 707.35,-218.52 690.02,-202.67 678.87,-193.26"/>
<polygon fill="midnightblue" stroke="midnightblue" points="914.06,-487.33 915.3,-497.85 920.89,-488.86 914.06,-487.33"/>
</g>
<!-- Node22&#45;&gt;Node7 -->
<g id="edge34" class="edge">
<title>Node22&#45;&gt;Node7</title>
<path fill="none" stroke="midnightblue" d="M970.42,-496C1065.67,-476.92 1246,-433.08 1246,-374.5 1246,-374.5 1246,-374.5 1246,-182.5 1246,-146.25 1233.58,-134.29 1205,-112 1177.88,-90.85 1141.18,-79.64 1110.19,-73.7"/>
<polygon fill="midnightblue" stroke="midnightblue" points="969.49,-492.61 960.36,-497.98 970.85,-499.48 969.49,-492.61"/>
</g>
<!-- Node22&#45;&gt;Node10 -->
<g id="edge38" class="edge">
<title>Node22&#45;&gt;Node10</title>
<path fill="none" stroke="midnightblue" d="M862.66,-495.42C830.87,-487.21 789.6,-474.26 756,-456 736.85,-445.59 737.7,-434.32 718,-425 645.04,-390.48 619,-405.54 540,-389 530.91,-387.1 521.14,-385.01 511.95,-383.02"/>
<polygon fill="midnightblue" stroke="midnightblue" points="862.08,-498.88 872.63,-497.92 863.78,-492.09 862.08,-498.88"/>
</g>
<!-- Node22&#45;&gt;Node13 -->
<g id="edge36" class="edge">
<title>Node22&#45;&gt;Node13</title>
<path fill="none" stroke="midnightblue" d="M893.47,-491.57C876.7,-478.74 853.09,-460.69 839.28,-450.13"/>
<polygon fill="midnightblue" stroke="midnightblue" points="891.47,-494.44 901.54,-497.73 895.72,-488.88 891.47,-494.44"/>
</g>
<!-- Node22&#45;&gt;Node21 -->
<g id="edge35" class="edge">
<title>Node22&#45;&gt;Node21</title>
<path fill="none" stroke="midnightblue" d="M920.26,-527.16C921.69,-537.98 921.88,-551.08 920.47,-559.48"/>
<polygon fill="midnightblue" stroke="midnightblue" points="923.63,-526.18 918.33,-517.01 916.75,-527.49 923.63,-526.18"/>
</g>
<!-- Node23&#45;&gt;Node7 -->
<g id="edge40" class="edge">
<title>Node23&#45;&gt;Node7</title>
<path fill="none" stroke="midnightblue" d="M1009.68,-420.92C1004.35,-396.36 996,-351.68 996,-313 996,-313 996,-313 996,-182.5 996,-149.93 1001.7,-141.26 1016,-112 1022.72,-98.25 1033.72,-84.33 1041.15,-75.69"/>
<polygon fill="midnightblue" stroke="midnightblue" points="1006.33,-421.98 1011.94,-430.97 1013.16,-420.45 1006.33,-421.98"/>
</g>
<!-- Node23&#45;&gt;Node24 -->
<g id="edge41" class="edge">
<title>Node23&#45;&gt;Node24</title>
<path fill="none" stroke="midnightblue" d="M1032.05,-423.86C1046.79,-411.08 1067.09,-393.49 1079.05,-383.13"/>
<polygon fill="midnightblue" stroke="midnightblue" points="1029.38,-421.54 1024.11,-430.73 1033.96,-426.83 1029.38,-421.54"/>
</g>
<!-- Node24&#45;&gt;Node6 -->
<g id="edge42" class="edge">
<title>Node24&#45;&gt;Node6</title>
<path fill="none" stroke="midnightblue" d="M1072.83,-356.92C1042.05,-328.17 971.76,-266.81 901,-235 846.07,-210.31 778.31,-197.37 730.06,-190.8"/>
<polygon fill="midnightblue" stroke="midnightblue" points="1070.44,-359.47 1080.11,-363.8 1075.25,-354.39 1070.44,-359.47"/>
</g>
<!-- Node24&#45;&gt;Node15 -->
<g id="edge45" class="edge">
<title>Node24&#45;&gt;Node15</title>
<path fill="none" stroke="midnightblue" d="M1044.61,-361.54C997.82,-349.99 925.12,-332.04 882.47,-321.51"/>
<polygon fill="midnightblue" stroke="midnightblue" points="1043.92,-364.98 1054.47,-363.98 1045.6,-358.18 1043.92,-364.98"/>
</g>
<!-- Node25 -->
<g id="node25" class="node">
<title>Node25</title>
<g id="a_node25"><a xlink:href="member__frontend_8h.html" target="_top" xlink:title=" ">
<polygon fill="white" stroke="black" points="1098,-168.5 1098,-198.5 1218,-198.5 1218,-168.5 1098,-168.5"/>
<text text-anchor="start" x="1106" y="-186.5" font-family="Helvetica,sans-Serif" font-size="10.00">src/node/rpc/member</text>
<text text-anchor="middle" x="1158" y="-175.5" font-family="Helvetica,sans-Serif" font-size="10.00">_frontend.h</text>
</a>
</g>
</g>
<!-- Node24&#45;&gt;Node25 -->
<g id="edge43" class="edge">
<title>Node24&#45;&gt;Node25</title>
<path fill="none" stroke="midnightblue" d="M1095.66,-354.36C1109.35,-317.05 1140.43,-232.38 1152.79,-198.7"/>
<polygon fill="midnightblue" stroke="midnightblue" points="1092.3,-353.34 1092.14,-363.93 1098.88,-355.75 1092.3,-353.34"/>
</g>
<!-- Node26 -->
<g id="node26" class="node">
<title>Node26</title>
<g id="a_node26"><a xlink:href="user__frontend_8h.html" target="_top" xlink:title=" ">
<polygon fill="white" stroke="black" points="1024.5,-112.5 1024.5,-131.5 1179.5,-131.5 1179.5,-112.5 1024.5,-112.5"/>
<text text-anchor="middle" x="1102" y="-119.5" font-family="Helvetica,sans-Serif" font-size="10.00">src/node/rpc/user_frontend.h</text>
</a>
</g>
</g>
<!-- Node24&#45;&gt;Node26 -->
<g id="edge46" class="edge">
<title>Node24&#45;&gt;Node26</title>
<path fill="none" stroke="midnightblue" d="M1087.26,-353.82C1084.28,-317.71 1079.39,-235.88 1089,-168 1090.82,-155.12 1095.45,-140.76 1098.66,-131.8"/>
<polygon fill="midnightblue" stroke="midnightblue" points="1083.78,-354.21 1088.14,-363.87 1090.75,-353.6 1083.78,-354.21"/>
</g>
<!-- Node25&#45;&gt;Node7 -->
<g id="edge44" class="edge">
<title>Node25&#45;&gt;Node7</title>
<path fill="none" stroke="midnightblue" d="M1179.05,-160.32C1190.26,-145.74 1199.73,-126.72 1189,-112 1170.95,-87.24 1139.06,-75.81 1110.27,-70.65"/>
<polygon fill="midnightblue" stroke="midnightblue" points="1176.09,-158.4 1172.38,-168.32 1181.47,-162.88 1176.09,-158.4"/>
</g>
<!-- Node26&#45;&gt;Node7 -->
<g id="edge47" class="edge">
<title>Node26&#45;&gt;Node7</title>
<path fill="none" stroke="midnightblue" d="M1086.02,-104.72C1076.68,-95.2 1065.25,-83.56 1057.59,-75.75"/>
<polygon fill="midnightblue" stroke="midnightblue" points="1083.75,-107.4 1093.25,-112.08 1088.74,-102.49 1083.75,-107.4"/>
</g>
<!-- Node27&#45;&gt;Node5 -->
<g id="edge50" class="edge">
<title>Node27&#45;&gt;Node5</title>
<path fill="none" stroke="midnightblue" d="M77.65,-487.48C81.53,-455.31 94.24,-390.51 135,-358 168.86,-331 285.63,-320.01 360.27,-315.68"/>
<polygon fill="midnightblue" stroke="midnightblue" points="74.14,-487.42 76.59,-497.73 81.1,-488.15 74.14,-487.42"/>
</g>
<!-- Node27&#45;&gt;Node6 -->
<g id="edge51" class="edge">
<title>Node27&#45;&gt;Node6</title>
<path fill="none" stroke="midnightblue" d="M59.47,-490.67C37.12,-467.46 0,-421.81 0,-374.5 0,-374.5 0,-374.5 0,-311 0,-239.81 72.88,-255.69 141,-235 226.41,-209.05 485.63,-193.41 605.71,-187.37"/>
<polygon fill="midnightblue" stroke="midnightblue" points="57.14,-493.29 66.68,-497.91 62.11,-488.35 57.14,-493.29"/>
</g>
<!-- Node27&#45;&gt;Node23 -->
<g id="edge54" class="edge">
<title>Node27&#45;&gt;Node23</title>
<path fill="none" stroke="midnightblue" d="M155.3,-503.36C302.36,-497.17 627.22,-481.68 900,-456 917.18,-454.38 935.77,-452.2 952.85,-450.03"/>
<polygon fill="midnightblue" stroke="midnightblue" points="154.87,-499.88 145.03,-503.79 155.16,-506.87 154.87,-499.88"/>
</g>
<!-- Node28 -->
<g id="node28" class="node">
<title>Node28</title>
<g id="a_node28"><a xlink:href="node__to__node__channel__manager_8h.html" target="_top" xlink:title=" ">
<polygon fill="white" stroke="black" points="149.5,-235.5 149.5,-265.5 278.5,-265.5 278.5,-235.5 149.5,-235.5"/>
<text text-anchor="start" x="157.5" y="-253.5" font-family="Helvetica,sans-Serif" font-size="10.00">src/node/node_to_node</text>
<text text-anchor="middle" x="214" y="-242.5" font-family="Helvetica,sans-Serif" font-size="10.00">_channel_manager.h</text>
</a>
</g>
</g>
<!-- Node27&#45;&gt;Node28 -->
<g id="edge52" class="edge">
<title>Node27&#45;&gt;Node28</title>
<path fill="none" stroke="midnightblue" d="M75.23,-487.75C74.94,-471.09 75.5,-446.17 80,-425 86.65,-393.76 88.46,-384.7 106,-358 131.01,-319.93 171.54,-284.67 195.19,-265.82"/>
<polygon fill="midnightblue" stroke="midnightblue" points="71.73,-487.92 75.52,-497.82 78.73,-487.72 71.73,-487.92"/>
</g>
<!-- Node28&#45;&gt;Node6 -->
<g id="edge53" class="edge">
<title>Node28&#45;&gt;Node6</title>
<path fill="none" stroke="midnightblue" d="M288.64,-238.81C378.08,-226.01 526.16,-204.81 608.36,-193.04"/>
<polygon fill="midnightblue" stroke="midnightblue" points="287.97,-235.37 278.56,-240.26 288.96,-242.3 287.97,-235.37"/>
</g>
</g>
</svg>
