<?xml version="1.0" encoding="UTF-8" standalone="no"?>
<!DOCTYPE svg PUBLIC "-//W3C//DTD SVG 1.1//EN"
 "http://www.w3.org/Graphics/SVG/1.1/DTD/svg11.dtd">
<!-- Generated by graphviz version 2.43.0 (0)
 -->
<!-- Title: src/host/rpc_connections.h Pages: 1 -->
<!--zoomable 308 -->
<svg id="main" version="1.1" xmlns="http://www.w3.org/2000/svg" xmlns:xlink="http://www.w3.org/1999/xlink" xml:space="preserve" onload="init(evt)">
<style type="text/css"><![CDATA[
.edge:hover path { stroke: red; }
.edge:hover polygon { stroke: red; fill: red; }
]]></style>
<script type="text/javascript"><![CDATA[
var edges = document.getElementsByTagName('g');
if (edges && edges.length) {
  for (var i=0;i<edges.length;i++) {
    if (edges[i].id.substr(0,4)=='edge') {
      edges[i].setAttribute('class','edge');
    }
  }
}
]]></script>
        <defs>
                <circle id="rim" cx="0" cy="0" r="7"/>
                <circle id="rim2" cx="0" cy="0" r="3.5"/>
                <g id="zoomPlus">
                        <use xlink:href="#rim" fill="#404040">
                                <set attributeName="fill" to="#808080" begin="zoomplus.mouseover" end="zoomplus.mouseout"/>
                        </use>
                        <path d="M-4,0h8M0,-4v8" fill="none" stroke="white" stroke-width="1.5" pointer-events="none"/>
                </g>
                <g id="zoomMin">
                        <use xlink:href="#rim" fill="#404040">
                                <set attributeName="fill" to="#808080" begin="zoomminus.mouseover" end="zoomminus.mouseout"/>
                        </use>
                        <path d="M-4,0h8" fill="none" stroke="white" stroke-width="1.5" pointer-events="none"/>
                </g>
                <g id="dirArrow">
                        <path fill="none" stroke="white" stroke-width="1.5" d="M0,-3.0v7 M-2.5,-0.5L0,-3.0L2.5,-0.5"/>
                </g>
               <g id="resetDef">
                       <use xlink:href="#rim2" fill="#404040">
                               <set attributeName="fill" to="#808080" begin="reset.mouseover" end="reset.mouseout"/>
                       </use>
               </g>
        </defs>

<script type="text/javascript">
var viewWidth = 1752;
var viewHeight = 308;
var sectionId = 'dynsection-0';
</script>
<script xlink:href="svgpan.js"/>
<svg id="graph" class="graph">
<g id="viewport">
<title>src/host/rpc_connections.h</title>
<polygon fill="white" stroke="transparent" points="-4,4 -4,-304 1748.44,-304 1748.44,4 -4,4"/>
<!-- Node1 -->
<g id="node1" class="node">
<title>Node1</title>
<g id="a_node1"><a xlink:title=" ">
<polygon fill="#bfbfbf" stroke="black" points="1466.94,-280.5 1466.94,-299.5 1612.94,-299.5 1612.94,-280.5 1466.94,-280.5"/>
<text text-anchor="middle" x="1539.94" y="-287.5" font-family="Helvetica,sans-Serif" font-size="10.00">src/host/rpc_connections.h</text>
</a>
</g>
</g>
<!-- Node2 -->
<g id="node2" class="node">
<title>Node2</title>
<g id="a_node2"><a xlink:href="msg__types_8h.html" target="_top" xlink:title=" ">
<polygon fill="white" stroke="black" points="1044.44,-224.5 1044.44,-243.5 1147.44,-243.5 1147.44,-224.5 1044.44,-224.5"/>
<text text-anchor="middle" x="1095.94" y="-231.5" font-family="Helvetica,sans-Serif" font-size="10.00">../tls/msg_types.h</text>
</a>
</g>
</g>
<!-- Node1&#45;&gt;Node2 -->
<g id="edge1" class="edge">
<title>Node1&#45;&gt;Node2</title>
<path fill="none" stroke="midnightblue" d="M1469.59,-280.44C1383.64,-269.99 1239.62,-252.47 1157.76,-242.52"/>
<polygon fill="midnightblue" stroke="midnightblue" points="1157.95,-239.02 1147.6,-241.28 1157.11,-245.97 1157.95,-239.02"/>
</g>
<!-- Node26 -->
<g id="node26" class="node">
<title>Node26</title>
<g id="a_node26"><a xlink:href="tcp_8h.html" target="_top" xlink:title=" ">
<polygon fill="white" stroke="black" points="1519.44,-224.5 1519.44,-243.5 1560.44,-243.5 1560.44,-224.5 1519.44,-224.5"/>
<text text-anchor="middle" x="1539.94" y="-231.5" font-family="Helvetica,sans-Serif" font-size="10.00">tcp.h</text>
</a>
</g>
</g>
<!-- Node1&#45;&gt;Node26 -->
<g id="edge37" class="edge">
<title>Node1&#45;&gt;Node26</title>
<path fill="none" stroke="midnightblue" d="M1539.94,-280.08C1539.94,-273.01 1539.94,-262.86 1539.94,-253.99"/>
<polygon fill="midnightblue" stroke="midnightblue" points="1543.44,-253.75 1539.94,-243.75 1536.44,-253.75 1543.44,-253.75"/>
</g>
<!-- Node43 -->
<g id="node43" class="node">
<title>Node43</title>
<g id="a_node43"><a xlink:title=" ">
<polygon fill="white" stroke="#bfbfbf" points="1578.44,-224.5 1578.44,-243.5 1671.44,-243.5 1671.44,-224.5 1578.44,-224.5"/>
<text text-anchor="middle" x="1624.94" y="-231.5" font-family="Helvetica,sans-Serif" font-size="10.00">unordered_map</text>
</a>
</g>
</g>
<!-- Node1&#45;&gt;Node43 -->
<g id="edge63" class="edge">
<title>Node1&#45;&gt;Node43</title>
<path fill="none" stroke="midnightblue" d="M1553.6,-280.32C1566.86,-271.9 1587.21,-258.97 1602.79,-249.07"/>
<polygon fill="midnightblue" stroke="midnightblue" points="1604.75,-251.97 1611.32,-243.65 1601,-246.06 1604.75,-251.97"/>
</g>
<!-- Node3 -->
<g id="node3" class="node">
<title>Node3</title>
<g id="a_node3"><a xlink:href="ring__buffer__types_8h.html" target="_top" xlink:title=" ">
<polygon fill="white" stroke="black" points="603.44,-168.5 603.44,-187.5 728.44,-187.5 728.44,-168.5 603.44,-168.5"/>
<text text-anchor="middle" x="665.94" y="-175.5" font-family="Helvetica,sans-Serif" font-size="10.00">ds/ring_buffer_types.h</text>
</a>
</g>
</g>
<!-- Node2&#45;&gt;Node3 -->
<g id="edge2" class="edge">
<title>Node2&#45;&gt;Node3</title>
<path fill="none" stroke="midnightblue" d="M1044.07,-226.49C967.9,-216.92 825.46,-199.03 738.81,-188.15"/>
<polygon fill="midnightblue" stroke="midnightblue" points="739.15,-184.67 728.79,-186.89 738.28,-191.61 739.15,-184.67"/>
</g>
<!-- Node4 -->
<g id="node4" class="node">
<title>Node4</title>
<g id="a_node4"><a xlink:href="include_2ccf_2ds_2hash_8h.html" target="_top" xlink:title=" ">
<polygon fill="white" stroke="black" points="237.94,-112.5 237.94,-131.5 317.94,-131.5 317.94,-112.5 237.94,-112.5"/>
<text text-anchor="middle" x="277.94" y="-119.5" font-family="Helvetica,sans-Serif" font-size="10.00">ccf/ds/hash.h</text>
</a>
</g>
</g>
<!-- Node3&#45;&gt;Node4 -->
<g id="edge3" class="edge">
<title>Node3&#45;&gt;Node4</title>
<path fill="none" stroke="midnightblue" d="M603.38,-169.16C536.2,-160.61 426.39,-146.23 331.94,-132 330.67,-131.81 329.39,-131.61 328.09,-131.41"/>
<polygon fill="midnightblue" stroke="midnightblue" points="328.45,-127.93 318.02,-129.82 327.35,-134.84 328.45,-127.93"/>
</g>
<!-- Node8 -->
<g id="node8" class="node">
<title>Node8</title>
<g id="a_node8"><a xlink:title=" ">
<polygon fill="white" stroke="#bfbfbf" points="282.44,-0.5 282.44,-19.5 329.44,-19.5 329.44,-0.5 282.44,-0.5"/>
<text text-anchor="middle" x="305.94" y="-7.5" font-family="Helvetica,sans-Serif" font-size="10.00">vector</text>
</a>
</g>
</g>
<!-- Node3&#45;&gt;Node8 -->
<g id="edge36" class="edge">
<title>Node3&#45;&gt;Node8</title>
<path fill="none" stroke="midnightblue" d="M614.59,-168.45C551.22,-156.06 442.15,-128.62 362.94,-76 344.07,-63.47 327.64,-43.12 317.33,-28.52"/>
<polygon fill="midnightblue" stroke="midnightblue" points="319.99,-26.21 311.47,-19.91 314.2,-30.15 319.99,-26.21"/>
</g>
<!-- Node11 -->
<g id="node11" class="node">
<title>Node11</title>
<g id="a_node11"><a xlink:href="nonstd_8h.html" target="_top" xlink:title=" ">
<polygon fill="white" stroke="black" points="541.94,-56.5 541.94,-75.5 631.94,-75.5 631.94,-56.5 541.94,-56.5"/>
<text text-anchor="middle" x="586.94" y="-63.5" font-family="Helvetica,sans-Serif" font-size="10.00">ccf/ds/nonstd.h</text>
</a>
</g>
</g>
<!-- Node3&#45;&gt;Node11 -->
<g id="edge12" class="edge">
<title>Node3&#45;&gt;Node11</title>
<path fill="none" stroke="midnightblue" d="M656.03,-168.38C646.53,-159.79 632.17,-145.91 621.94,-132 611.05,-117.19 601.37,-98.57 594.97,-85.06"/>
<polygon fill="midnightblue" stroke="midnightblue" points="598.11,-83.49 590.75,-75.87 591.75,-86.42 598.11,-83.49"/>
</g>
<!-- Node14 -->
<g id="node14" class="node">
<title>Node14</title>
<g id="a_node14"><a xlink:title=" ">
<polygon fill="white" stroke="#bfbfbf" points="627.94,-0.5 627.94,-19.5 671.94,-19.5 671.94,-0.5 627.94,-0.5"/>
<text text-anchor="middle" x="649.94" y="-7.5" font-family="Helvetica,sans-Serif" font-size="10.00">string</text>
</a>
</g>
</g>
<!-- Node3&#45;&gt;Node14 -->
<g id="edge35" class="edge">
<title>Node3&#45;&gt;Node14</title>
<path fill="none" stroke="midnightblue" d="M685.17,-168.42C724.87,-149.51 809.59,-102.21 776.94,-56 771.24,-47.94 717.82,-30.94 682.1,-20.29"/>
<polygon fill="midnightblue" stroke="midnightblue" points="682.69,-16.82 672.11,-17.34 680.71,-23.53 682.69,-16.82"/>
</g>
<!-- Node17 -->
<g id="node17" class="node">
<title>Node17</title>
<g id="a_node17"><a xlink:href="serializer_8h.html" target="_top" xlink:title=" ">
<polygon fill="white" stroke="black" points="630.94,-112.5 630.94,-131.5 700.94,-131.5 700.94,-112.5 630.94,-112.5"/>
<text text-anchor="middle" x="665.94" y="-119.5" font-family="Helvetica,sans-Serif" font-size="10.00">serializer.h</text>
</a>
</g>
</g>
<!-- Node3&#45;&gt;Node17 -->
<g id="edge20" class="edge">
<title>Node3&#45;&gt;Node17</title>
<path fill="none" stroke="midnightblue" d="M665.94,-168.08C665.94,-161.01 665.94,-150.86 665.94,-141.99"/>
<polygon fill="midnightblue" stroke="midnightblue" points="669.44,-141.75 665.94,-131.75 662.44,-141.75 669.44,-141.75"/>
</g>
<!-- Node23 -->
<g id="node23" class="node">
<title>Node23</title>
<g id="a_node23"><a xlink:title=" ">
<polygon fill="white" stroke="#bfbfbf" points="169.94,-112.5 169.94,-131.5 219.94,-131.5 219.94,-112.5 169.94,-112.5"/>
<text text-anchor="middle" x="194.94" y="-119.5" font-family="Helvetica,sans-Serif" font-size="10.00">atomic</text>
</a>
</g>
</g>
<!-- Node3&#45;&gt;Node23 -->
<g id="edge32" class="edge">
<title>Node3&#45;&gt;Node23</title>
<path fill="none" stroke="midnightblue" d="M603.27,-173.63C520.02,-168.47 368.31,-156.69 230.02,-131.93"/>
<polygon fill="midnightblue" stroke="midnightblue" points="230.56,-128.47 220.09,-130.13 229.31,-135.36 230.56,-128.47"/>
</g>
<!-- Node24 -->
<g id="node24" class="node">
<title>Node24</title>
<g id="a_node24"><a xlink:title=" ">
<polygon fill="white" stroke="#bfbfbf" points="978.44,-0.5 978.44,-19.5 1057.44,-19.5 1057.44,-0.5 978.44,-0.5"/>
<text text-anchor="middle" x="1017.94" y="-7.5" font-family="Helvetica,sans-Serif" font-size="10.00">fmt/format.h</text>
</a>
</g>
</g>
<!-- Node3&#45;&gt;Node24 -->
<g id="edge33" class="edge">
<title>Node3&#45;&gt;Node24</title>
<path fill="none" stroke="midnightblue" d="M687,-168.34C708.29,-159.5 742.1,-145.23 770.94,-132 852.61,-94.52 947.69,-46.76 992.32,-24.08"/>
<polygon fill="midnightblue" stroke="midnightblue" points="993.98,-27.16 1001.31,-19.51 990.81,-20.93 993.98,-27.16"/>
</g>
<!-- Node25 -->
<g id="node25" class="node">
<title>Node25</title>
<g id="a_node25"><a xlink:title=" ">
<polygon fill="white" stroke="#bfbfbf" points="1632.94,-56.5 1632.94,-75.5 1688.94,-75.5 1688.94,-56.5 1632.94,-56.5"/>
<text text-anchor="middle" x="1660.94" y="-63.5" font-family="Helvetica,sans-Serif" font-size="10.00">optional</text>
</a>
</g>
</g>
<!-- Node3&#45;&gt;Node25 -->
<g id="edge34" class="edge">
<title>Node3&#45;&gt;Node25</title>
<path fill="none" stroke="midnightblue" d="M728.86,-177.36C857.96,-177.18 1161.79,-172.08 1412.94,-132 1453.45,-125.54 1564.21,-94.68 1623.04,-77.91"/>
<polygon fill="midnightblue" stroke="midnightblue" points="1624.05,-81.26 1632.71,-75.15 1622.13,-74.53 1624.05,-81.26"/>
</g>
<!-- Node5 -->
<g id="node5" class="node">
<title>Node5</title>
<g id="a_node5"><a xlink:href="siphash_8h.html" target="_top" xlink:title=" ">
<polygon fill="white" stroke="black" points="184.44,-56.5 184.44,-75.5 279.44,-75.5 279.44,-56.5 184.44,-56.5"/>
<text text-anchor="middle" x="231.94" y="-63.5" font-family="Helvetica,sans-Serif" font-size="10.00">ccf/ds/siphash.h</text>
</a>
</g>
</g>
<!-- Node4&#45;&gt;Node5 -->
<g id="edge4" class="edge">
<title>Node4&#45;&gt;Node5</title>
<path fill="none" stroke="midnightblue" d="M270.34,-112.08C263.71,-104.3 253.92,-92.8 245.88,-83.37"/>
<polygon fill="midnightblue" stroke="midnightblue" points="248.54,-81.09 239.39,-75.75 243.21,-85.63 248.54,-81.09"/>
</g>
<!-- Node7 -->
<g id="node7" class="node">
<title>Node7</title>
<g id="a_node7"><a xlink:title=" ">
<polygon fill="white" stroke="#bfbfbf" points="139.94,-0.5 139.94,-19.5 189.94,-19.5 189.94,-0.5 139.94,-0.5"/>
<text text-anchor="middle" x="164.94" y="-7.5" font-family="Helvetica,sans-Serif" font-size="10.00">cstdint</text>
</a>
</g>
</g>
<!-- Node4&#45;&gt;Node7 -->
<g id="edge9" class="edge">
<title>Node4&#45;&gt;Node7</title>
<path fill="none" stroke="midnightblue" d="M237.84,-113.57C234.83,-113.03 231.84,-112.5 228.94,-112 179.91,-103.51 40.17,-113.91 7.94,-76 -27.95,-33.79 73.32,-18.53 129.82,-13.39"/>
<polygon fill="midnightblue" stroke="midnightblue" points="130.13,-16.88 139.8,-12.55 129.54,-9.9 130.13,-16.88"/>
</g>
<!-- Node4&#45;&gt;Node8 -->
<g id="edge11" class="edge">
<title>Node4&#45;&gt;Node8</title>
<path fill="none" stroke="midnightblue" d="M280.14,-112.37C284.66,-94.62 295.08,-53.67 301.21,-29.6"/>
<polygon fill="midnightblue" stroke="midnightblue" points="304.68,-30.15 303.75,-19.59 297.89,-28.42 304.68,-30.15"/>
</g>
<!-- Node9 -->
<g id="node9" class="node">
<title>Node9</title>
<g id="a_node9"><a xlink:title=" ">
<polygon fill="white" stroke="#bfbfbf" points="499.94,-0.5 499.94,-19.5 541.94,-19.5 541.94,-0.5 499.94,-0.5"/>
<text text-anchor="middle" x="520.94" y="-7.5" font-family="Helvetica,sans-Serif" font-size="10.00">array</text>
</a>
</g>
</g>
<!-- Node4&#45;&gt;Node9 -->
<g id="edge8" class="edge">
<title>Node4&#45;&gt;Node9</title>
<path fill="none" stroke="midnightblue" d="M318.32,-117.19C373.5,-111.23 468.62,-98.05 494.94,-76 508.75,-64.43 515.28,-44.47 518.34,-29.71"/>
<polygon fill="midnightblue" stroke="midnightblue" points="521.82,-30.11 520.06,-19.67 514.92,-28.93 521.82,-30.11"/>
</g>
<!-- Node10 -->
<g id="node10" class="node">
<title>Node10</title>
<g id="a_node10"><a xlink:title=" ">
<polygon fill="white" stroke="#bfbfbf" points="17.44,-56.5 17.44,-75.5 166.44,-75.5 166.44,-56.5 17.44,-56.5"/>
<text text-anchor="middle" x="91.94" y="-63.5" font-family="Helvetica,sans-Serif" font-size="10.00">small_vector/SmallVector.h</text>
</a>
</g>
</g>
<!-- Node4&#45;&gt;Node10 -->
<g id="edge10" class="edge">
<title>Node4&#45;&gt;Node10</title>
<path fill="none" stroke="midnightblue" d="M248.47,-112.44C216.77,-103.24 166.21,-88.56 131.17,-78.39"/>
<polygon fill="midnightblue" stroke="midnightblue" points="131.85,-74.94 121.27,-75.52 129.9,-81.67 131.85,-74.94"/>
</g>
<!-- Node6 -->
<g id="node6" class="node">
<title>Node6</title>
<g id="a_node6"><a xlink:title=" ">
<polygon fill="white" stroke="#bfbfbf" points="208.44,-0.5 208.44,-19.5 261.44,-19.5 261.44,-0.5 208.44,-0.5"/>
<text text-anchor="middle" x="234.94" y="-7.5" font-family="Helvetica,sans-Serif" font-size="10.00">cstddef</text>
</a>
</g>
</g>
<!-- Node5&#45;&gt;Node6 -->
<g id="edge5" class="edge">
<title>Node5&#45;&gt;Node6</title>
<path fill="none" stroke="midnightblue" d="M232.44,-56.08C232.83,-49.01 233.39,-38.86 233.89,-29.99"/>
<polygon fill="midnightblue" stroke="midnightblue" points="237.39,-29.93 234.45,-19.75 230.4,-29.54 237.39,-29.93"/>
</g>
<!-- Node5&#45;&gt;Node7 -->
<g id="edge6" class="edge">
<title>Node5&#45;&gt;Node7</title>
<path fill="none" stroke="midnightblue" d="M221.18,-56.32C211.17,-48.26 196.05,-36.08 184.01,-26.37"/>
<polygon fill="midnightblue" stroke="midnightblue" points="185.88,-23.38 175.9,-19.83 181.49,-28.83 185.88,-23.38"/>
</g>
<!-- Node5&#45;&gt;Node8 -->
<g id="edge7" class="edge">
<title>Node5&#45;&gt;Node8</title>
<path fill="none" stroke="midnightblue" d="M243.83,-56.32C255.09,-48.11 272.23,-35.6 285.65,-25.81"/>
<polygon fill="midnightblue" stroke="midnightblue" points="287.82,-28.56 293.83,-19.83 283.69,-22.9 287.82,-28.56"/>
</g>
<!-- Node11&#45;&gt;Node8 -->
<g id="edge19" class="edge">
<title>Node11&#45;&gt;Node8</title>
<path fill="none" stroke="midnightblue" d="M541.9,-58.03C494.07,-50.37 416.08,-37.1 339.49,-19.96"/>
<polygon fill="midnightblue" stroke="midnightblue" points="340.2,-16.53 329.67,-17.74 338.65,-23.36 340.2,-16.53"/>
</g>
<!-- Node11&#45;&gt;Node9 -->
<g id="edge14" class="edge">
<title>Node11&#45;&gt;Node9</title>
<path fill="none" stroke="midnightblue" d="M576.34,-56.32C566.48,-48.26 551.59,-36.08 539.72,-26.37"/>
<polygon fill="midnightblue" stroke="midnightblue" points="541.69,-23.46 531.74,-19.83 537.26,-28.88 541.69,-23.46"/>
</g>
<!-- Node12 -->
<g id="node12" class="node">
<title>Node12</title>
<g id="a_node12"><a xlink:title=" ">
<polygon fill="white" stroke="#bfbfbf" points="781.94,-0.5 781.94,-19.5 845.94,-19.5 845.94,-0.5 781.94,-0.5"/>
<text text-anchor="middle" x="813.94" y="-7.5" font-family="Helvetica,sans-Serif" font-size="10.00">algorithm</text>
</a>
</g>
</g>
<!-- Node11&#45;&gt;Node12 -->
<g id="edge13" class="edge">
<title>Node11&#45;&gt;Node12</title>
<path fill="none" stroke="midnightblue" d="M622.91,-56.44C663.42,-46.81 729.16,-31.17 771.98,-20.98"/>
<polygon fill="midnightblue" stroke="midnightblue" points="772.89,-24.36 781.81,-18.64 771.27,-17.55 772.89,-24.36"/>
</g>
<!-- Node13 -->
<g id="node13" class="node">
<title>Node13</title>
<g id="a_node13"><a xlink:title=" ">
<polygon fill="white" stroke="#bfbfbf" points="560.44,-0.5 560.44,-19.5 609.44,-19.5 609.44,-0.5 560.44,-0.5"/>
<text text-anchor="middle" x="584.94" y="-7.5" font-family="Helvetica,sans-Serif" font-size="10.00">cctype</text>
</a>
</g>
</g>
<!-- Node11&#45;&gt;Node13 -->
<g id="edge15" class="edge">
<title>Node11&#45;&gt;Node13</title>
<path fill="none" stroke="midnightblue" d="M586.61,-56.08C586.35,-49.01 585.97,-38.86 585.64,-29.99"/>
<polygon fill="midnightblue" stroke="midnightblue" points="589.13,-29.61 585.26,-19.75 582.14,-29.87 589.13,-29.61"/>
</g>
<!-- Node11&#45;&gt;Node14 -->
<g id="edge16" class="edge">
<title>Node11&#45;&gt;Node14</title>
<path fill="none" stroke="midnightblue" d="M597.06,-56.32C606.47,-48.26 620.68,-36.08 632.01,-26.37"/>
<polygon fill="midnightblue" stroke="midnightblue" points="634.32,-29 639.63,-19.83 629.76,-23.68 634.32,-29"/>
</g>
<!-- Node15 -->
<g id="node15" class="node">
<title>Node15</title>
<g id="a_node15"><a xlink:title=" ">
<polygon fill="white" stroke="#bfbfbf" points="690.44,-0.5 690.44,-19.5 763.44,-19.5 763.44,-0.5 690.44,-0.5"/>
<text text-anchor="middle" x="726.94" y="-7.5" font-family="Helvetica,sans-Serif" font-size="10.00">string_view</text>
</a>
</g>
</g>
<!-- Node11&#45;&gt;Node15 -->
<g id="edge17" class="edge">
<title>Node11&#45;&gt;Node15</title>
<path fill="none" stroke="midnightblue" d="M609.12,-56.44C632.37,-47.48 669.09,-33.31 695.36,-23.18"/>
<polygon fill="midnightblue" stroke="midnightblue" points="696.79,-26.38 704.86,-19.52 694.27,-19.85 696.79,-26.38"/>
</g>
<!-- Node16 -->
<g id="node16" class="node">
<title>Node16</title>
<g id="a_node16"><a xlink:title=" ">
<polygon fill="white" stroke="#bfbfbf" points="864.44,-0.5 864.44,-19.5 933.44,-19.5 933.44,-0.5 864.44,-0.5"/>
<text text-anchor="middle" x="898.94" y="-7.5" font-family="Helvetica,sans-Serif" font-size="10.00">type_traits</text>
</a>
</g>
</g>
<!-- Node11&#45;&gt;Node16 -->
<g id="edge18" class="edge">
<title>Node11&#45;&gt;Node16</title>
<path fill="none" stroke="midnightblue" d="M632.2,-57.6C693.09,-47.61 799.21,-30.08 854.37,-20.04"/>
<polygon fill="midnightblue" stroke="midnightblue" points="855.18,-23.45 864.38,-18.19 853.91,-16.56 855.18,-23.45"/>
</g>
<!-- Node17&#45;&gt;Node8 -->
<g id="edge31" class="edge">
<title>Node17&#45;&gt;Node8</title>
<path fill="none" stroke="midnightblue" d="M630.64,-119.63C578.94,-116.61 480.38,-106.92 402.94,-76 372.55,-63.86 341.91,-41.19 323.43,-26.09"/>
<polygon fill="midnightblue" stroke="midnightblue" points="325.53,-23.28 315.61,-19.56 321.04,-28.65 325.53,-23.28"/>
</g>
<!-- Node17&#45;&gt;Node11 -->
<g id="edge21" class="edge">
<title>Node17&#45;&gt;Node11</title>
<path fill="none" stroke="midnightblue" d="M653.25,-112.32C641.04,-103.98 622.36,-91.21 607.94,-81.35"/>
<polygon fill="midnightblue" stroke="midnightblue" points="609.83,-78.41 599.6,-75.65 605.88,-84.19 609.83,-78.41"/>
</g>
<!-- Node17&#45;&gt;Node16 -->
<g id="edge30" class="edge">
<title>Node17&#45;&gt;Node16</title>
<path fill="none" stroke="midnightblue" d="M689.2,-112.38C711.87,-103.8 747.18,-89.92 776.94,-76 811.87,-59.67 851.01,-38.23 875.32,-24.53"/>
<polygon fill="midnightblue" stroke="midnightblue" points="877.2,-27.49 884.17,-19.52 873.74,-21.4 877.2,-27.49"/>
</g>
<!-- Node18 -->
<g id="node18" class="node">
<title>Node18</title>
<g id="a_node18"><a xlink:href="serialized_8h.html" target="_top" xlink:title=" ">
<polygon fill="white" stroke="black" points="412.44,-56.5 412.44,-75.5 485.44,-75.5 485.44,-56.5 412.44,-56.5"/>
<text text-anchor="middle" x="448.94" y="-63.5" font-family="Helvetica,sans-Serif" font-size="10.00">serialized.h</text>
</a>
</g>
</g>
<!-- Node17&#45;&gt;Node18 -->
<g id="edge22" class="edge">
<title>Node17&#45;&gt;Node18</title>
<path fill="none" stroke="midnightblue" d="M631.56,-112.44C594.02,-103.1 533.81,-88.12 492.87,-77.93"/>
<polygon fill="midnightblue" stroke="midnightblue" points="493.71,-74.53 483.16,-75.52 492.02,-81.33 493.71,-74.53"/>
</g>
<!-- Node21 -->
<g id="node21" class="node">
<title>Node21</title>
<g id="a_node21"><a xlink:title=" ">
<polygon fill="white" stroke="#bfbfbf" points="709.94,-56.5 709.94,-75.5 767.94,-75.5 767.94,-56.5 709.94,-56.5"/>
<text text-anchor="middle" x="738.94" y="-63.5" font-family="Helvetica,sans-Serif" font-size="10.00">memory</text>
</a>
</g>
</g>
<!-- Node17&#45;&gt;Node21 -->
<g id="edge28" class="edge">
<title>Node17&#45;&gt;Node21</title>
<path fill="none" stroke="midnightblue" d="M677.67,-112.32C688.78,-104.11 705.68,-91.6 718.92,-81.81"/>
<polygon fill="midnightblue" stroke="midnightblue" points="721.04,-84.59 727,-75.83 716.88,-78.97 721.04,-84.59"/>
</g>
<!-- Node22 -->
<g id="node22" class="node">
<title>Node22</title>
<g id="a_node22"><a xlink:title=" ">
<polygon fill="white" stroke="#bfbfbf" points="650.44,-56.5 650.44,-75.5 691.44,-75.5 691.44,-56.5 650.44,-56.5"/>
<text text-anchor="middle" x="670.94" y="-63.5" font-family="Helvetica,sans-Serif" font-size="10.00">tuple</text>
</a>
</g>
</g>
<!-- Node17&#45;&gt;Node22 -->
<g id="edge29" class="edge">
<title>Node17&#45;&gt;Node22</title>
<path fill="none" stroke="midnightblue" d="M666.77,-112.08C667.42,-105.01 668.36,-94.86 669.18,-85.99"/>
<polygon fill="midnightblue" stroke="midnightblue" points="672.69,-86.03 670.13,-75.75 665.72,-85.39 672.69,-86.03"/>
</g>
<!-- Node18&#45;&gt;Node7 -->
<g id="edge23" class="edge">
<title>Node18&#45;&gt;Node7</title>
<path fill="none" stroke="midnightblue" d="M412.32,-59.36C365.35,-51.91 281.19,-37.88 200.02,-20.1"/>
<polygon fill="midnightblue" stroke="midnightblue" points="200.66,-16.65 190.14,-17.91 199.14,-23.49 200.66,-16.65"/>
</g>
<!-- Node18&#45;&gt;Node8 -->
<g id="edge27" class="edge">
<title>Node18&#45;&gt;Node8</title>
<path fill="none" stroke="midnightblue" d="M426.28,-56.44C402.54,-47.48 365.03,-33.31 338.2,-23.18"/>
<polygon fill="midnightblue" stroke="midnightblue" points="339.08,-19.77 328.49,-19.52 336.61,-26.32 339.08,-19.77"/>
</g>
<!-- Node18&#45;&gt;Node14 -->
<g id="edge26" class="edge">
<title>Node18&#45;&gt;Node14</title>
<path fill="none" stroke="midnightblue" d="M482.23,-56.44C514.54,-48.07 565.2,-34.81 617.77,-20.28"/>
<polygon fill="midnightblue" stroke="midnightblue" points="618.91,-23.6 627.61,-17.55 617.04,-16.85 618.91,-23.6"/>
</g>
<!-- Node19 -->
<g id="node19" class="node">
<title>Node19</title>
<g id="a_node19"><a xlink:title=" ">
<polygon fill="white" stroke="#bfbfbf" points="347.94,-0.5 347.94,-19.5 397.94,-19.5 397.94,-0.5 347.94,-0.5"/>
<text text-anchor="middle" x="372.94" y="-7.5" font-family="Helvetica,sans-Serif" font-size="10.00">cstring</text>
</a>
</g>
</g>
<!-- Node18&#45;&gt;Node19 -->
<g id="edge24" class="edge">
<title>Node18&#45;&gt;Node19</title>
<path fill="none" stroke="midnightblue" d="M436.73,-56.32C425.16,-48.11 407.56,-35.6 393.78,-25.81"/>
<polygon fill="midnightblue" stroke="midnightblue" points="395.55,-22.77 385.37,-19.83 391.5,-28.48 395.55,-22.77"/>
</g>
<!-- Node20 -->
<g id="node20" class="node">
<title>Node20</title>
<g id="a_node20"><a xlink:title=" ">
<polygon fill="white" stroke="#bfbfbf" points="416.44,-0.5 416.44,-19.5 481.44,-19.5 481.44,-0.5 416.44,-0.5"/>
<text text-anchor="middle" x="448.94" y="-7.5" font-family="Helvetica,sans-Serif" font-size="10.00">stdexcept</text>
</a>
</g>
</g>
<!-- Node18&#45;&gt;Node20 -->
<g id="edge25" class="edge">
<title>Node18&#45;&gt;Node20</title>
<path fill="none" stroke="midnightblue" d="M448.94,-56.08C448.94,-49.01 448.94,-38.86 448.94,-29.99"/>
<polygon fill="midnightblue" stroke="midnightblue" points="452.44,-29.75 448.94,-19.75 445.44,-29.75 452.44,-29.75"/>
</g>
<!-- Node26&#45;&gt;Node25 -->
<g id="edge62" class="edge">
<title>Node26&#45;&gt;Node25</title>
<path fill="none" stroke="midnightblue" d="M1538.7,-224.4C1537.46,-215.36 1535.64,-200.71 1534.94,-188 1532.95,-152.06 1537.07,-137.03 1562.94,-112 1579.63,-95.85 1603.16,-84.79 1622.97,-77.67"/>
<polygon fill="midnightblue" stroke="midnightblue" points="1624.3,-80.92 1632.65,-74.4 1622.05,-74.29 1624.3,-80.92"/>
</g>
<!-- Node27 -->
<g id="node27" class="node">
<title>Node27</title>
<g id="a_node27"><a xlink:href="before__io_8h.html" target="_top" xlink:title=" ">
<polygon fill="white" stroke="black" points="1610.44,-168.5 1610.44,-187.5 1681.44,-187.5 1681.44,-168.5 1610.44,-168.5"/>
<text text-anchor="middle" x="1645.94" y="-175.5" font-family="Helvetica,sans-Serif" font-size="10.00">before_io.h</text>
</a>
</g>
</g>
<!-- Node26&#45;&gt;Node27 -->
<g id="edge38" class="edge">
<title>Node26&#45;&gt;Node27</title>
<path fill="none" stroke="midnightblue" d="M1556.97,-224.32C1573.97,-215.66 1600.32,-202.24 1619.93,-192.25"/>
<polygon fill="midnightblue" stroke="midnightblue" points="1621.63,-195.31 1628.95,-187.65 1618.45,-189.08 1621.63,-195.31"/>
</g>
<!-- Node28 -->
<g id="node28" class="node">
<title>Node28</title>
<g id="a_node28"><a xlink:href="proxy_8h.html" target="_top" xlink:title=" ">
<polygon fill="white" stroke="black" points="1690.94,-112.5 1690.94,-131.5 1742.94,-131.5 1742.94,-112.5 1690.94,-112.5"/>
<text text-anchor="middle" x="1716.94" y="-119.5" font-family="Helvetica,sans-Serif" font-size="10.00">proxy.h</text>
</a>
</g>
</g>
<!-- Node26&#45;&gt;Node28 -->
<g id="edge61" class="edge">
<title>Node26&#45;&gt;Node28</title>
<path fill="none" stroke="midnightblue" d="M1560.59,-226.8C1563.73,-225.86 1566.92,-224.9 1569.94,-224 1623.7,-207.94 1649.5,-225.82 1690.94,-188 1704.25,-175.86 1710.86,-155.99 1714.07,-141.41"/>
<polygon fill="midnightblue" stroke="midnightblue" points="1717.52,-141.98 1715.92,-131.5 1710.64,-140.69 1717.52,-141.98"/>
</g>
<!-- Node30 -->
<g id="node30" class="node">
<title>Node30</title>
<g id="a_node30"><a xlink:href="logger_8h.html" target="_top" xlink:title=" ">
<polygon fill="white" stroke="black" points="1316.44,-112.5 1316.44,-131.5 1403.44,-131.5 1403.44,-112.5 1316.44,-112.5"/>
<text text-anchor="middle" x="1359.94" y="-119.5" font-family="Helvetica,sans-Serif" font-size="10.00">ccf/ds/logger.h</text>
</a>
</g>
</g>
<!-- Node26&#45;&gt;Node30 -->
<g id="edge41" class="edge">
<title>Node26&#45;&gt;Node30</title>
<path fill="none" stroke="midnightblue" d="M1525.82,-224.37C1494.8,-205.41 1420.49,-160 1382.75,-136.94"/>
<polygon fill="midnightblue" stroke="midnightblue" points="1384.36,-133.82 1374,-131.59 1380.71,-139.79 1384.36,-133.82"/>
</g>
<!-- Node41 -->
<g id="node41" class="node">
<title>Node41</title>
<g id="a_node41"><a xlink:href="dns_8h.html" target="_top" xlink:title=" ">
<polygon fill="white" stroke="black" points="1543.44,-168.5 1543.44,-187.5 1586.44,-187.5 1586.44,-168.5 1543.44,-168.5"/>
<text text-anchor="middle" x="1564.94" y="-175.5" font-family="Helvetica,sans-Serif" font-size="10.00">dns.h</text>
</a>
</g>
</g>
<!-- Node26&#45;&gt;Node41 -->
<g id="edge57" class="edge">
<title>Node26&#45;&gt;Node41</title>
<path fill="none" stroke="midnightblue" d="M1544.07,-224.08C1547.45,-216.77 1552.36,-206.18 1556.56,-197.1"/>
<polygon fill="midnightblue" stroke="midnightblue" points="1559.86,-198.3 1560.89,-187.75 1553.51,-195.36 1559.86,-198.3"/>
</g>
<!-- Node27&#45;&gt;Node28 -->
<g id="edge39" class="edge">
<title>Node27&#45;&gt;Node28</title>
<path fill="none" stroke="midnightblue" d="M1657.35,-168.32C1668.05,-160.18 1684.28,-147.84 1697.1,-138.09"/>
<polygon fill="midnightblue" stroke="midnightblue" points="1699.48,-140.67 1705.33,-131.83 1695.25,-135.1 1699.48,-140.67"/>
</g>
<!-- Node29 -->
<g id="node29" class="node">
<title>Node29</title>
<g id="a_node29"><a xlink:title=" ">
<polygon fill="white" stroke="#bfbfbf" points="1707.44,-56.5 1707.44,-75.5 1744.44,-75.5 1744.44,-56.5 1707.44,-56.5"/>
<text text-anchor="middle" x="1725.94" y="-63.5" font-family="Helvetica,sans-Serif" font-size="10.00">uv.h</text>
</a>
</g>
</g>
<!-- Node28&#45;&gt;Node29 -->
<g id="edge40" class="edge">
<title>Node28&#45;&gt;Node29</title>
<path fill="none" stroke="midnightblue" d="M1718.43,-112.08C1719.62,-104.93 1721.33,-94.64 1722.82,-85.69"/>
<polygon fill="midnightblue" stroke="midnightblue" points="1726.29,-86.19 1724.48,-75.75 1719.39,-85.04 1726.29,-86.19"/>
</g>
<!-- Node30&#45;&gt;Node16 -->
<g id="edge56" class="edge">
<title>Node30&#45;&gt;Node16</title>
<path fill="none" stroke="midnightblue" d="M1316.23,-119.97C1225.43,-117.21 1019.69,-107.57 957.94,-76 936.81,-65.2 919.56,-43.5 909.29,-28.14"/>
<polygon fill="midnightblue" stroke="midnightblue" points="912.14,-26.11 903.82,-19.56 906.24,-29.88 912.14,-26.11"/>
</g>
<!-- Node30&#45;&gt;Node24 -->
<g id="edge51" class="edge">
<title>Node30&#45;&gt;Node24</title>
<path fill="none" stroke="midnightblue" d="M1316.13,-119.21C1218.51,-114.77 989.88,-101.72 966.94,-76 951.97,-59.22 974.47,-38.61 994.16,-25.16"/>
<polygon fill="midnightblue" stroke="midnightblue" points="996.1,-28.07 1002.58,-19.69 992.29,-22.2 996.1,-28.07"/>
</g>
<!-- Node30&#45;&gt;Node25 -->
<g id="edge54" class="edge">
<title>Node30&#45;&gt;Node25</title>
<path fill="none" stroke="midnightblue" d="M1403.56,-114.52C1454.05,-106.81 1539.91,-93.04 1622.87,-76.11"/>
<polygon fill="midnightblue" stroke="midnightblue" points="1623.62,-79.53 1632.7,-74.08 1622.2,-72.67 1623.62,-79.53"/>
</g>
<!-- Node31 -->
<g id="node31" class="node">
<title>Node31</title>
<g id="a_node31"><a xlink:href="enum__formatter_8h.html" target="_top" xlink:title=" ">
<polygon fill="white" stroke="black" points="975.94,-56.5 975.94,-75.5 1111.94,-75.5 1111.94,-56.5 975.94,-56.5"/>
<text text-anchor="middle" x="1043.94" y="-63.5" font-family="Helvetica,sans-Serif" font-size="10.00">ccf/ds/enum_formatter.h</text>
</a>
</g>
</g>
<!-- Node30&#45;&gt;Node31 -->
<g id="edge42" class="edge">
<title>Node30&#45;&gt;Node31</title>
<path fill="none" stroke="midnightblue" d="M1316.33,-113.55C1261.16,-104.12 1165.88,-87.84 1103.89,-77.25"/>
<polygon fill="midnightblue" stroke="midnightblue" points="1104.31,-73.77 1093.86,-75.53 1103.13,-80.67 1104.31,-73.77"/>
</g>
<!-- Node32 -->
<g id="node32" class="node">
<title>Node32</title>
<g id="a_node32"><a xlink:href="thread__ids_8h.html" target="_top" xlink:title=" ">
<polygon fill="white" stroke="black" points="1506.94,-56.5 1506.94,-75.5 1614.94,-75.5 1614.94,-56.5 1506.94,-56.5"/>
<text text-anchor="middle" x="1560.94" y="-63.5" font-family="Helvetica,sans-Serif" font-size="10.00">ccf/ds/thread_ids.h</text>
</a>
</g>
</g>
<!-- Node30&#45;&gt;Node32 -->
<g id="edge44" class="edge">
<title>Node30&#45;&gt;Node32</title>
<path fill="none" stroke="midnightblue" d="M1391.79,-112.44C1426.34,-103.16 1481.62,-88.31 1519.52,-78.13"/>
<polygon fill="midnightblue" stroke="midnightblue" points="1520.49,-81.49 1529.24,-75.52 1518.67,-74.73 1520.49,-81.49"/>
</g>
<!-- Node37 -->
<g id="node37" class="node">
<title>Node37</title>
<g id="a_node37"><a xlink:title=" ">
<polygon fill="white" stroke="#bfbfbf" points="1130.44,-56.5 1130.44,-75.5 1209.44,-75.5 1209.44,-56.5 1130.44,-56.5"/>
<text text-anchor="middle" x="1169.94" y="-63.5" font-family="Helvetica,sans-Serif" font-size="10.00">fmt/chrono.h</text>
</a>
</g>
</g>
<!-- Node30&#45;&gt;Node37 -->
<g id="edge50" class="edge">
<title>Node30&#45;&gt;Node37</title>
<path fill="none" stroke="midnightblue" d="M1329.83,-112.44C1297.31,-103.2 1245.36,-88.44 1209.55,-78.26"/>
<polygon fill="midnightblue" stroke="midnightblue" points="1210.48,-74.88 1199.91,-75.52 1208.57,-81.62 1210.48,-74.88"/>
</g>
<!-- Node38 -->
<g id="node38" class="node">
<title>Node38</title>
<g id="a_node38"><a xlink:title=" ">
<polygon fill="white" stroke="#bfbfbf" points="1226.94,-56.5 1226.94,-75.5 1286.94,-75.5 1286.94,-56.5 1226.94,-56.5"/>
<text text-anchor="middle" x="1256.94" y="-63.5" font-family="Helvetica,sans-Serif" font-size="10.00">iostream</text>
</a>
</g>
</g>
<!-- Node30&#45;&gt;Node38 -->
<g id="edge52" class="edge">
<title>Node30&#45;&gt;Node38</title>
<path fill="none" stroke="midnightblue" d="M1343.39,-112.32C1326.95,-103.7 1301.51,-90.36 1282.47,-80.39"/>
<polygon fill="midnightblue" stroke="midnightblue" points="1283.93,-77.2 1273.45,-75.65 1280.68,-83.4 1283.93,-77.2"/>
</g>
<!-- Node39 -->
<g id="node39" class="node">
<title>Node39</title>
<g id="a_node39"><a xlink:title=" ">
<polygon fill="white" stroke="#bfbfbf" points="1304.94,-56.5 1304.94,-75.5 1414.94,-75.5 1414.94,-56.5 1304.94,-56.5"/>
<text text-anchor="middle" x="1359.94" y="-63.5" font-family="Helvetica,sans-Serif" font-size="10.00">nlohmann/json.hpp</text>
</a>
</g>
</g>
<!-- Node30&#45;&gt;Node39 -->
<g id="edge53" class="edge">
<title>Node30&#45;&gt;Node39</title>
<path fill="none" stroke="midnightblue" d="M1359.94,-112.08C1359.94,-105.01 1359.94,-94.86 1359.94,-85.99"/>
<polygon fill="midnightblue" stroke="midnightblue" points="1363.44,-85.75 1359.94,-75.75 1356.44,-85.75 1363.44,-85.75"/>
</g>
<!-- Node40 -->
<g id="node40" class="node">
<title>Node40</title>
<g id="a_node40"><a xlink:title=" ">
<polygon fill="white" stroke="#bfbfbf" points="1432.94,-56.5 1432.94,-75.5 1488.94,-75.5 1488.94,-56.5 1432.94,-56.5"/>
<text text-anchor="middle" x="1460.94" y="-63.5" font-family="Helvetica,sans-Serif" font-size="10.00">sstream</text>
</a>
</g>
</g>
<!-- Node30&#45;&gt;Node40 -->
<g id="edge55" class="edge">
<title>Node30&#45;&gt;Node40</title>
<path fill="none" stroke="midnightblue" d="M1376.17,-112.32C1392.29,-103.7 1417.24,-90.36 1435.9,-80.39"/>
<polygon fill="midnightblue" stroke="midnightblue" points="1437.58,-83.46 1444.75,-75.65 1434.28,-77.28 1437.58,-83.46"/>
</g>
<!-- Node31&#45;&gt;Node24 -->
<g id="edge43" class="edge">
<title>Node31&#45;&gt;Node24</title>
<path fill="none" stroke="midnightblue" d="M1039.65,-56.08C1036.09,-48.69 1030.92,-37.95 1026.52,-28.81"/>
<polygon fill="midnightblue" stroke="midnightblue" points="1029.65,-27.24 1022.15,-19.75 1023.34,-30.28 1029.65,-27.24"/>
</g>
<!-- Node32&#45;&gt;Node24 -->
<g id="edge45" class="edge">
<title>Node32&#45;&gt;Node24</title>
<path fill="none" stroke="midnightblue" d="M1506.67,-57.08C1503.72,-56.7 1500.79,-56.34 1497.94,-56 1341.19,-37.47 1154.9,-21.82 1067.66,-14.86"/>
<polygon fill="midnightblue" stroke="midnightblue" points="1067.77,-11.36 1057.52,-14.06 1067.21,-18.34 1067.77,-11.36"/>
</g>
<!-- Node33 -->
<g id="node33" class="node">
<title>Node33</title>
<g id="a_node33"><a xlink:title=" ">
<polygon fill="white" stroke="#bfbfbf" points="1404.94,-0.5 1404.94,-19.5 1490.94,-19.5 1490.94,-0.5 1404.94,-0.5"/>
<text text-anchor="middle" x="1447.94" y="-7.5" font-family="Helvetica,sans-Serif" font-size="10.00">fmt/ostream.h</text>
</a>
</g>
</g>
<!-- Node32&#45;&gt;Node33 -->
<g id="edge46" class="edge">
<title>Node32&#45;&gt;Node33</title>
<path fill="none" stroke="midnightblue" d="M1543.03,-56.44C1524.69,-47.68 1495.93,-33.94 1474.85,-23.86"/>
<polygon fill="midnightblue" stroke="midnightblue" points="1476.29,-20.67 1465.76,-19.52 1473.28,-26.99 1476.29,-20.67"/>
</g>
<!-- Node34 -->
<g id="node34" class="node">
<title>Node34</title>
<g id="a_node34"><a xlink:title=" ">
<polygon fill="white" stroke="#bfbfbf" points="1508.94,-0.5 1508.94,-19.5 1552.94,-19.5 1552.94,-0.5 1508.94,-0.5"/>
<text text-anchor="middle" x="1530.94" y="-7.5" font-family="Helvetica,sans-Serif" font-size="10.00">limits</text>
</a>
</g>
</g>
<!-- Node32&#45;&gt;Node34 -->
<g id="edge47" class="edge">
<title>Node32&#45;&gt;Node34</title>
<path fill="none" stroke="midnightblue" d="M1555.99,-56.08C1551.84,-48.61 1545.79,-37.72 1540.67,-28.52"/>
<polygon fill="midnightblue" stroke="midnightblue" points="1543.72,-26.79 1535.8,-19.75 1537.6,-30.19 1543.72,-26.79"/>
</g>
<!-- Node35 -->
<g id="node35" class="node">
<title>Node35</title>
<g id="a_node35"><a xlink:title=" ">
<polygon fill="white" stroke="#bfbfbf" points="1570.94,-0.5 1570.94,-19.5 1608.94,-19.5 1608.94,-0.5 1570.94,-0.5"/>
<text text-anchor="middle" x="1589.94" y="-7.5" font-family="Helvetica,sans-Serif" font-size="10.00">map</text>
</a>
</g>
</g>
<!-- Node32&#45;&gt;Node35 -->
<g id="edge48" class="edge">
<title>Node32&#45;&gt;Node35</title>
<path fill="none" stroke="midnightblue" d="M1565.73,-56.08C1569.7,-48.69 1575.47,-37.95 1580.37,-28.81"/>
<polygon fill="midnightblue" stroke="midnightblue" points="1583.59,-30.22 1585.24,-19.75 1577.43,-26.91 1583.59,-30.22"/>
</g>
<!-- Node36 -->
<g id="node36" class="node">
<title>Node36</title>
<g id="a_node36"><a xlink:title=" ">
<polygon fill="white" stroke="#bfbfbf" points="1626.94,-0.5 1626.94,-19.5 1674.94,-19.5 1674.94,-0.5 1626.94,-0.5"/>
<text text-anchor="middle" x="1650.94" y="-7.5" font-family="Helvetica,sans-Serif" font-size="10.00">thread</text>
</a>
</g>
</g>
<!-- Node32&#45;&gt;Node36 -->
<g id="edge49" class="edge">
<title>Node32&#45;&gt;Node36</title>
<path fill="none" stroke="midnightblue" d="M1575.4,-56.32C1589.44,-47.9 1610.99,-34.97 1627.48,-25.07"/>
<polygon fill="midnightblue" stroke="midnightblue" points="1629.74,-27.8 1636.52,-19.65 1626.14,-21.8 1629.74,-27.8"/>
</g>
<!-- Node41&#45;&gt;Node29 -->
<g id="edge60" class="edge">
<title>Node41&#45;&gt;Node29</title>
<path fill="none" stroke="midnightblue" d="M1564.06,-168.18C1563.21,-154.39 1563.69,-127.66 1577.94,-112 1613.44,-72.99 1641.65,-90.41 1697.66,-75.81"/>
<polygon fill="midnightblue" stroke="midnightblue" points="1698.63,-79.17 1707.28,-73.05 1696.7,-72.44 1698.63,-79.17"/>
</g>
<!-- Node41&#45;&gt;Node30 -->
<g id="edge58" class="edge">
<title>Node41&#45;&gt;Node30</title>
<path fill="none" stroke="midnightblue" d="M1543.39,-171.32C1509.98,-162.52 1445.09,-145.43 1402.13,-134.11"/>
<polygon fill="midnightblue" stroke="midnightblue" points="1402.81,-130.67 1392.25,-131.51 1401.03,-137.44 1402.81,-130.67"/>
</g>
<!-- Node42 -->
<g id="node42" class="node">
<title>Node42</title>
<g id="a_node42"><a xlink:title=" ">
<polygon fill="white" stroke="#bfbfbf" points="1586.94,-112.5 1586.94,-131.5 1672.94,-131.5 1672.94,-112.5 1586.94,-112.5"/>
<text text-anchor="middle" x="1629.94" y="-119.5" font-family="Helvetica,sans-Serif" font-size="10.00">unordered_set</text>
</a>
</g>
</g>
<!-- Node41&#45;&gt;Node42 -->
<g id="edge59" class="edge">
<title>Node41&#45;&gt;Node42</title>
<path fill="none" stroke="midnightblue" d="M1575.38,-168.32C1585.09,-160.26 1599.76,-148.08 1611.44,-138.37"/>
<polygon fill="midnightblue" stroke="midnightblue" points="1613.85,-140.92 1619.31,-131.83 1609.38,-135.53 1613.85,-140.92"/>
</g>
</g>
</svg>
        <g id="navigator" transform="translate(0 0)" fill="#404254">
                <rect fill="#f2f5e9" fill-opacity="0.5" stroke="#606060" stroke-width=".5" x="0" y="0" width="60" height="60"/>
                <use id="zoomplus" xlink:href="#zoomPlus" x="17" y="9" onmousedown="handleZoom(evt,'in')"/>
                <use id="zoomminus" xlink:href="#zoomMin" x="42" y="9" onmousedown="handleZoom(evt,'out')"/>
                <use id="reset" xlink:href="#resetDef" x="30" y="36" onmousedown="handleReset()"/>
                <g id="arrowUp" xlink:href="#dirArrow" transform="translate(30 24)" onmousedown="handlePan(0,-1)">
                  <use xlink:href="#rim" fill="#404040">
                        <set attributeName="fill" to="#808080" begin="arrowUp.mouseover" end="arrowUp.mouseout"/>
                  </use>
                  <path fill="none" stroke="white" stroke-width="1.5" d="M0,-3.0v7 M-2.5,-0.5L0,-3.0L2.5,-0.5"/>
                </g>
                <g id="arrowRight" xlink:href="#dirArrow" transform="rotate(90) translate(36 -43)" onmousedown="handlePan(1,0)">
                  <use xlink:href="#rim" fill="#404040">
                        <set attributeName="fill" to="#808080" begin="arrowRight.mouseover" end="arrowRight.mouseout"/>
                  </use>
                  <path fill="none" stroke="white" stroke-width="1.5" d="M0,-3.0v7 M-2.5,-0.5L0,-3.0L2.5,-0.5"/>
                </g>
                <g id="arrowDown" xlink:href="#dirArrow" transform="rotate(180) translate(-30 -48)" onmousedown="handlePan(0,1)">
                  <use xlink:href="#rim" fill="#404040">
                        <set attributeName="fill" to="#808080" begin="arrowDown.mouseover" end="arrowDown.mouseout"/>
                  </use>
                  <path fill="none" stroke="white" stroke-width="1.5" d="M0,-3.0v7 M-2.5,-0.5L0,-3.0L2.5,-0.5"/>
                </g>
                <g id="arrowLeft" xlink:href="#dirArrow" transform="rotate(270) translate(-36 17)" onmousedown="handlePan(-1,0)">
                  <use xlink:href="#rim" fill="#404040">
                        <set attributeName="fill" to="#808080" begin="arrowLeft.mouseover" end="arrowLeft.mouseout"/>
                  </use>
                  <path fill="none" stroke="white" stroke-width="1.5" d="M0,-3.0v7 M-2.5,-0.5L0,-3.0L2.5,-0.5"/>
                </g>
        </g>
        <svg viewBox="0 0 15 15" width="100%" height="30px" preserveAspectRatio="xMaxYMin meet">
         <g id="arrow_out" transform="scale(0.3 0.3)">
          <a xlink:href="rpc__connections_8h__incl_org.svg" target="_base">
           <rect id="button" ry="5" rx="5" y="6" x="6" height="38" width="38"
                fill="#f2f5e9" fill-opacity="0.5" stroke="#606060" stroke-width="1.0"/>
           <path id="arrow"
             d="M 11.500037,31.436501 C 11.940474,20.09759 22.043105,11.32322 32.158766,21.979434 L 37.068811,17.246167 C 37.068811,17.246167 37.088388,32 37.088388,32 L 22.160133,31.978069 C 22.160133,31.978069 26.997745,27.140456 26.997745,27.140456 C 18.528582,18.264221 13.291696,25.230495 11.500037,31.436501 z"
             style="fill:#404040;"/>
          </a>
         </g>
        </svg>
</svg>
