<?xml version="1.0" encoding="UTF-8" standalone="no"?>
<!DOCTYPE svg PUBLIC "-//W3C//DTD SVG 1.1//EN"
 "http://www.w3.org/Graphics/SVG/1.1/DTD/svg11.dtd">
<!-- Generated by graphviz version 2.43.0 (0)
 -->
<!-- Title: src/node/session_metrics.h Pages: 1 -->
<!--zoomable 598 -->
<svg id="main" version="1.1" xmlns="http://www.w3.org/2000/svg" xmlns:xlink="http://www.w3.org/1999/xlink" xml:space="preserve" onload="init(evt)">
<style type="text/css"><![CDATA[
.edge:hover path { stroke: red; }
.edge:hover polygon { stroke: red; fill: red; }
]]></style>
<script type="text/javascript"><![CDATA[
var edges = document.getElementsByTagName('g');
if (edges && edges.length) {
  for (var i=0;i<edges.length;i++) {
    if (edges[i].id.substr(0,4)=='edge') {
      edges[i].setAttribute('class','edge');
    }
  }
}
]]></script>
        <defs>
                <circle id="rim" cx="0" cy="0" r="7"/>
                <circle id="rim2" cx="0" cy="0" r="3.5"/>
                <g id="zoomPlus">
                        <use xlink:href="#rim" fill="#404040">
                                <set attributeName="fill" to="#808080" begin="zoomplus.mouseover" end="zoomplus.mouseout"/>
                        </use>
                        <path d="M-4,0h8M0,-4v8" fill="none" stroke="white" stroke-width="1.5" pointer-events="none"/>
                </g>
                <g id="zoomMin">
                        <use xlink:href="#rim" fill="#404040">
                                <set attributeName="fill" to="#808080" begin="zoomminus.mouseover" end="zoomminus.mouseout"/>
                        </use>
                        <path d="M-4,0h8" fill="none" stroke="white" stroke-width="1.5" pointer-events="none"/>
                </g>
                <g id="dirArrow">
                        <path fill="none" stroke="white" stroke-width="1.5" d="M0,-3.0v7 M-2.5,-0.5L0,-3.0L2.5,-0.5"/>
                </g>
               <g id="resetDef">
                       <use xlink:href="#rim2" fill="#404040">
                               <set attributeName="fill" to="#808080" begin="reset.mouseover" end="reset.mouseout"/>
                       </use>
               </g>
        </defs>

<script type="text/javascript">
var viewWidth = 1729;
var viewHeight = 598;
var sectionId = 'dynsection-1';
</script>
<script xlink:href="svgpan.js"/>
<svg id="graph" class="graph">
<g id="viewport">
<title>src/node/session_metrics.h</title>
<polygon fill="white" stroke="transparent" points="-4,4 -4,-594 1725.18,-594 1725.18,4 -4,4"/>
<!-- Node1 -->
<g id="node1" class="node">
<title>Node1</title>
<g id="a_node1"><a xlink:title=" ">
<polygon fill="#bfbfbf" stroke="black" points="537.5,-570.5 537.5,-589.5 686.5,-589.5 686.5,-570.5 537.5,-570.5"/>
<text text-anchor="middle" x="612" y="-577.5" font-family="Helvetica,sans-Serif" font-size="10.00">src/node/session_metrics.h</text>
</a>
</g>
</g>
<!-- Node2 -->
<g id="node2" class="node">
<title>Node2</title>
<g id="a_node2"><a xlink:href="rpc__sessions_8h.html" target="_top" xlink:title=" ">
<polygon fill="white" stroke="black" points="194,-514.5 194,-533.5 340,-533.5 340,-514.5 194,-514.5"/>
<text text-anchor="middle" x="267" y="-521.5" font-family="Helvetica,sans-Serif" font-size="10.00">src/enclave/rpc_sessions.h</text>
</a>
</g>
</g>
<!-- Node1&#45;&gt;Node2 -->
<g id="edge1" class="edge">
<title>Node1&#45;&gt;Node2</title>
<path fill="none" stroke="midnightblue" d="M547.18,-568.85C481.99,-558.65 382.62,-543.1 321.41,-533.52"/>
<polygon fill="midnightblue" stroke="midnightblue" points="546.91,-572.35 557.33,-570.44 548,-565.44 546.91,-572.35"/>
</g>
<!-- Node11 -->
<g id="node11" class="node">
<title>Node11</title>
<g id="a_node11"><a xlink:href="node__frontend_8h.html" target="_top" xlink:title=" ">
<polygon fill="white" stroke="black" points="348,-319 348,-338 506,-338 506,-319 348,-319"/>
<text text-anchor="middle" x="427" y="-326" font-family="Helvetica,sans-Serif" font-size="10.00">src/node/rpc/node_frontend.h</text>
</a>
</g>
</g>
<!-- Node1&#45;&gt;Node11 -->
<g id="edge25" class="edge">
<title>Node1&#45;&gt;Node11</title>
<path fill="none" stroke="midnightblue" d="M612.23,-559.77C611.67,-520.85 604.93,-432.03 558,-380 537.76,-357.56 506.39,-345.01 479.42,-338.03"/>
<polygon fill="midnightblue" stroke="midnightblue" points="608.73,-560.15 612.25,-570.15 615.73,-560.14 608.73,-560.15"/>
</g>
<!-- Node16 -->
<g id="node16" class="node">
<title>Node16</title>
<g id="a_node16"><a xlink:href="node__interface_8h.html" target="_top" xlink:title=" ">
<polygon fill="white" stroke="black" points="637.5,-386 637.5,-405 798.5,-405 798.5,-386 637.5,-386"/>
<text text-anchor="middle" x="718" y="-393" font-family="Helvetica,sans-Serif" font-size="10.00">src/node/rpc/node_interface.h</text>
</a>
</g>
</g>
<!-- Node1&#45;&gt;Node16 -->
<g id="edge26" class="edge">
<title>Node1&#45;&gt;Node16</title>
<path fill="none" stroke="midnightblue" d="M622.33,-561.21C644.62,-522.83 696.54,-433.45 712.94,-405.21"/>
<polygon fill="midnightblue" stroke="midnightblue" points="619.11,-559.79 617.11,-570.2 625.16,-563.31 619.11,-559.79"/>
</g>
<!-- Node31 -->
<g id="node31" class="node">
<title>Node31</title>
<g id="a_node31"><a xlink:href="node__operation__interface_8h.html" target="_top" xlink:title=" ">
<polygon fill="white" stroke="black" points="861.5,-447.5 861.5,-477.5 1016.5,-477.5 1016.5,-447.5 861.5,-447.5"/>
<text text-anchor="start" x="869.5" y="-465.5" font-family="Helvetica,sans-Serif" font-size="10.00">src/node/rpc/node_operation</text>
<text text-anchor="middle" x="939" y="-454.5" font-family="Helvetica,sans-Serif" font-size="10.00">_interface.h</text>
</a>
</g>
</g>
<!-- Node1&#45;&gt;Node31 -->
<g id="edge55" class="edge">
<title>Node1&#45;&gt;Node31</title>
<path fill="none" stroke="midnightblue" d="M645.83,-567.05C706.65,-545.57 834.2,-500.52 899.15,-477.58"/>
<polygon fill="midnightblue" stroke="midnightblue" points="644.57,-563.78 636.31,-570.41 646.91,-570.38 644.57,-563.78"/>
</g>
<!-- Node3 -->
<g id="node3" class="node">
<title>Node3</title>
<g id="a_node3"><a xlink:href="enclave_2enclave_8h.html" target="_top" xlink:title=" ">
<polygon fill="white" stroke="black" points="561,-56.5 561,-75.5 683,-75.5 683,-56.5 561,-56.5"/>
<text text-anchor="middle" x="622" y="-63.5" font-family="Helvetica,sans-Serif" font-size="10.00">src/enclave/enclave.h</text>
</a>
</g>
</g>
<!-- Node2&#45;&gt;Node3 -->
<g id="edge2" class="edge">
<title>Node2&#45;&gt;Node3</title>
<path fill="none" stroke="midnightblue" d="M183.7,-515.08C126.79,-508.16 57.71,-496.31 35,-478 4.31,-453.26 0,-435.92 0,-396.5 0,-396.5 0,-396.5 0,-193.5 0,-79.79 404.23,-67.21 560.94,-66.6"/>
<polygon fill="midnightblue" stroke="midnightblue" points="183.47,-518.58 193.81,-516.28 184.29,-511.63 183.47,-518.58"/>
</g>
<!-- Node5 -->
<g id="node5" class="node">
<title>Node5</title>
<g id="a_node5"><a xlink:href="http__endpoint_8h.html" target="_top" xlink:title=" ">
<polygon fill="white" stroke="black" points="200.5,-453 200.5,-472 333.5,-472 333.5,-453 200.5,-453"/>
<text text-anchor="middle" x="267" y="-460" font-family="Helvetica,sans-Serif" font-size="10.00">src/http/http_endpoint.h</text>
</a>
</g>
</g>
<!-- Node2&#45;&gt;Node5 -->
<g id="edge4" class="edge">
<title>Node2&#45;&gt;Node5</title>
<path fill="none" stroke="midnightblue" d="M260.68,-504.32C259.8,-493.5 260.27,-480.4 262.1,-472.01"/>
<polygon fill="midnightblue" stroke="midnightblue" points="257.25,-505.05 262.1,-514.48 264.19,-504.09 257.25,-505.05"/>
</g>
<!-- Node6 -->
<g id="node6" class="node">
<title>Node6</title>
<g id="a_node6"><a xlink:href="node__client_8h.html" target="_top" xlink:title=" ">
<polygon fill="white" stroke="black" points="352,-453 352,-472 478,-472 478,-453 352,-453"/>
<text text-anchor="middle" x="415" y="-460" font-family="Helvetica,sans-Serif" font-size="10.00">src/node/node_client.h</text>
</a>
</g>
</g>
<!-- Node2&#45;&gt;Node6 -->
<g id="edge6" class="edge">
<title>Node2&#45;&gt;Node6</title>
<path fill="none" stroke="midnightblue" d="M297.77,-510.63C326.52,-499.07 368.68,-482.12 393.83,-472.01"/>
<polygon fill="midnightblue" stroke="midnightblue" points="296.18,-507.5 288.2,-514.48 298.79,-513.99 296.18,-507.5"/>
</g>
<!-- Node9 -->
<g id="node9" class="node">
<title>Node9</title>
<g id="a_node9"><a xlink:href="node__state_8h.html" target="_top" xlink:title=" ">
<polygon fill="white" stroke="black" points="174,-185 174,-204 298,-204 298,-185 174,-185"/>
<text text-anchor="middle" x="236" y="-192" font-family="Helvetica,sans-Serif" font-size="10.00">src/node/node_state.h</text>
</a>
</g>
</g>
<!-- Node2&#45;&gt;Node9 -->
<g id="edge22" class="edge">
<title>Node2&#45;&gt;Node9</title>
<path fill="none" stroke="midnightblue" d="M183.95,-514.34C133.37,-507.39 75.11,-495.79 57,-478 30.47,-451.94 38,-433.69 38,-396.5 38,-396.5 38,-396.5 38,-327.5 38,-253.55 134.8,-218.48 193.04,-204.07"/>
<polygon fill="midnightblue" stroke="midnightblue" points="183.57,-517.83 193.94,-515.67 184.49,-510.89 183.57,-517.83"/>
</g>
<!-- Node15 -->
<g id="node15" class="node">
<title>Node15</title>
<g id="a_node15"><a xlink:href="resharing_8h.html" target="_top" xlink:title=" ">
<polygon fill="white" stroke="black" points="66,-453 66,-472 182,-472 182,-453 66,-453"/>
<text text-anchor="middle" x="124" y="-460" font-family="Helvetica,sans-Serif" font-size="10.00">src/node/resharing.h</text>
</a>
</g>
</g>
<!-- Node2&#45;&gt;Node15 -->
<g id="edge23" class="edge">
<title>Node2&#45;&gt;Node15</title>
<path fill="none" stroke="midnightblue" d="M237.27,-510.63C209.49,-499.07 168.75,-482.12 144.45,-472.01"/>
<polygon fill="midnightblue" stroke="midnightblue" points="235.93,-513.86 246.51,-514.48 238.62,-507.4 235.93,-513.86"/>
</g>
<!-- Node4 -->
<g id="node4" class="node">
<title>Node4</title>
<g id="a_node4"><a xlink:href="enclave_2main_8cpp.html" target="_top" xlink:title=" ">
<polygon fill="white" stroke="black" points="562,-0.5 562,-19.5 682,-19.5 682,-0.5 562,-0.5"/>
<text text-anchor="middle" x="622" y="-7.5" font-family="Helvetica,sans-Serif" font-size="10.00">src/enclave/main.cpp</text>
</a>
</g>
</g>
<!-- Node3&#45;&gt;Node4 -->
<g id="edge3" class="edge">
<title>Node3&#45;&gt;Node4</title>
<path fill="none" stroke="midnightblue" d="M622,-45.8C622,-36.91 622,-26.78 622,-19.75"/>
<polygon fill="midnightblue" stroke="midnightblue" points="618.5,-46.08 622,-56.08 625.5,-46.08 618.5,-46.08"/>
</g>
<!-- Node5&#45;&gt;Node2 -->
<g id="edge5" class="edge">
<title>Node5&#45;&gt;Node2</title>
<path fill="none" stroke="midnightblue" d="M273.31,-482.16C274.2,-492.98 273.73,-506.08 271.9,-514.48"/>
<polygon fill="midnightblue" stroke="midnightblue" points="276.75,-481.43 271.9,-472.01 269.81,-482.4 276.75,-481.43"/>
</g>
<!-- Node7 -->
<g id="node7" class="node">
<title>Node7</title>
<g id="a_node7"><a xlink:href="orc__requests_8h.html" target="_top" xlink:title=" ">
<polygon fill="white" stroke="black" points="429.5,-380.5 429.5,-410.5 548.5,-410.5 548.5,-380.5 429.5,-380.5"/>
<text text-anchor="start" x="437.5" y="-398.5" font-family="Helvetica,sans-Serif" font-size="10.00">src/consensus/aft/orc</text>
<text text-anchor="middle" x="489" y="-387.5" font-family="Helvetica,sans-Serif" font-size="10.00">_requests.h</text>
</a>
</g>
</g>
<!-- Node6&#45;&gt;Node7 -->
<g id="edge7" class="edge">
<title>Node6&#45;&gt;Node7</title>
<path fill="none" stroke="midnightblue" d="M432.73,-445.93C444.97,-435.18 461.1,-421 472.96,-410.59"/>
<polygon fill="midnightblue" stroke="midnightblue" points="430.18,-443.5 424.98,-452.73 434.8,-448.76 430.18,-443.5"/>
</g>
<!-- Node8 -->
<g id="node8" class="node">
<title>Node8</title>
<g id="a_node8"><a xlink:href="raft_8h.html" target="_top" xlink:title=" ">
<polygon fill="white" stroke="black" points="200.5,-319 200.5,-338 329.5,-338 329.5,-319 200.5,-319"/>
<text text-anchor="middle" x="265" y="-326" font-family="Helvetica,sans-Serif" font-size="10.00">src/consensus/aft/raft.h</text>
</a>
</g>
</g>
<!-- Node6&#45;&gt;Node8 -->
<g id="edge17" class="edge">
<title>Node6&#45;&gt;Node8</title>
<path fill="none" stroke="midnightblue" d="M411.68,-442.74C407.59,-424.59 398.97,-397.36 382,-380 360.81,-358.33 328.79,-345.39 303.61,-338.04"/>
<polygon fill="midnightblue" stroke="midnightblue" points="408.28,-443.58 413.69,-452.7 415.15,-442.2 408.28,-443.58"/>
</g>
<!-- Node13 -->
<g id="node13" class="node">
<title>Node13</title>
<g id="a_node13"><a xlink:href="http__node__client_8h.html" target="_top" xlink:title=" ">
<polygon fill="white" stroke="black" points="117,-380.5 117,-410.5 227,-410.5 227,-380.5 117,-380.5"/>
<text text-anchor="start" x="125" y="-398.5" font-family="Helvetica,sans-Serif" font-size="10.00">src/node/http_node</text>
<text text-anchor="middle" x="172" y="-387.5" font-family="Helvetica,sans-Serif" font-size="10.00">_client.h</text>
</a>
</g>
</g>
<!-- Node6&#45;&gt;Node13 -->
<g id="edge18" class="edge">
<title>Node6&#45;&gt;Node13</title>
<path fill="none" stroke="midnightblue" d="M373.27,-450.34C332.13,-439.33 269.1,-422.47 224.56,-410.56"/>
<polygon fill="midnightblue" stroke="midnightblue" points="372.42,-453.73 382.98,-452.94 374.23,-446.97 372.42,-453.73"/>
</g>
<!-- Node14 -->
<g id="node14" class="node">
<title>Node14</title>
<g id="a_node14"><a xlink:href="retired__nodes__cleanup_8h.html" target="_top" xlink:title=" ">
<polygon fill="white" stroke="black" points="245,-380.5 245,-410.5 373,-410.5 373,-380.5 245,-380.5"/>
<text text-anchor="start" x="253" y="-398.5" font-family="Helvetica,sans-Serif" font-size="10.00">src/node/retired_nodes</text>
<text text-anchor="middle" x="309" y="-387.5" font-family="Helvetica,sans-Serif" font-size="10.00">_cleanup.h</text>
</a>
</g>
</g>
<!-- Node6&#45;&gt;Node14 -->
<g id="edge20" class="edge">
<title>Node6&#45;&gt;Node14</title>
<path fill="none" stroke="midnightblue" d="M392.09,-447.45C374.31,-436.55 349.77,-421.5 331.98,-410.59"/>
<polygon fill="midnightblue" stroke="midnightblue" points="390.35,-450.49 400.7,-452.73 394.01,-444.52 390.35,-450.49"/>
</g>
<!-- Node7&#45;&gt;Node8 -->
<g id="edge8" class="edge">
<title>Node7&#45;&gt;Node8</title>
<path fill="none" stroke="midnightblue" d="M431,-377.67C387.22,-364.97 328.97,-348.06 294.39,-338.03"/>
<polygon fill="midnightblue" stroke="midnightblue" points="430.09,-381.05 440.67,-380.48 432.04,-374.33 430.09,-381.05"/>
</g>
<!-- Node7&#45;&gt;Node11 -->
<g id="edge13" class="edge">
<title>Node7&#45;&gt;Node11</title>
<path fill="none" stroke="midnightblue" d="M468.49,-373C457.17,-361.13 443.74,-347.05 435.29,-338.19"/>
<polygon fill="midnightblue" stroke="midnightblue" points="466.11,-375.58 475.55,-380.4 471.18,-370.74 466.11,-375.58"/>
</g>
<!-- Node8&#45;&gt;Node9 -->
<g id="edge9" class="edge">
<title>Node8&#45;&gt;Node9</title>
<path fill="none" stroke="midnightblue" d="M260.89,-308.78C254.51,-279.75 242.49,-225.04 237.87,-204.02"/>
<polygon fill="midnightblue" stroke="midnightblue" points="257.53,-309.82 263.1,-318.84 264.37,-308.32 257.53,-309.82"/>
</g>
<!-- Node9&#45;&gt;Node3 -->
<g id="edge10" class="edge">
<title>Node9&#45;&gt;Node3</title>
<path fill="none" stroke="midnightblue" d="M232.41,-175C229.98,-156.41 229.71,-128.25 246,-112 267.85,-90.21 459.89,-76.18 560.74,-70.24"/>
<polygon fill="midnightblue" stroke="midnightblue" points="228.97,-175.6 234.03,-184.91 235.87,-174.48 228.97,-175.6"/>
</g>
<!-- Node10 -->
<g id="node10" class="node">
<title>Node10</title>
<g id="a_node10"><a xlink:href="gov__effects_8h.html" target="_top" xlink:title=" ">
<polygon fill="white" stroke="black" points="255,-118 255,-137 399,-137 399,-118 255,-118"/>
<text text-anchor="middle" x="327" y="-125" font-family="Helvetica,sans-Serif" font-size="10.00">src/node/rpc/gov_effects.h</text>
</a>
</g>
</g>
<!-- Node9&#45;&gt;Node10 -->
<g id="edge11" class="edge">
<title>Node9&#45;&gt;Node10</title>
<path fill="none" stroke="midnightblue" d="M256.41,-178.92C274.4,-166.07 300.01,-147.78 314.92,-137.13"/>
<polygon fill="midnightblue" stroke="midnightblue" points="254.38,-176.07 248.27,-184.73 258.44,-181.77 254.38,-176.07"/>
</g>
<!-- Node10&#45;&gt;Node3 -->
<g id="edge12" class="edge">
<title>Node10&#45;&gt;Node3</title>
<path fill="none" stroke="midnightblue" d="M379.19,-115.97C436.36,-104.44 526.95,-86.17 579.81,-75.51"/>
<polygon fill="midnightblue" stroke="midnightblue" points="378.38,-112.57 369.27,-117.98 379.76,-119.43 378.38,-112.57"/>
</g>
<!-- Node11&#45;&gt;Node3 -->
<g id="edge14" class="edge">
<title>Node11&#45;&gt;Node3</title>
<path fill="none" stroke="midnightblue" d="M428.49,-308.46C430.51,-291.24 435.19,-265.65 446,-246 489.28,-167.34 576.87,-99.37 609.43,-75.82"/>
<polygon fill="midnightblue" stroke="midnightblue" points="424.97,-308.57 427.48,-318.86 431.93,-309.25 424.97,-308.57"/>
</g>
<!-- Node12 -->
<g id="node12" class="node">
<title>Node12</title>
<g id="a_node12"><a xlink:href="jwt__key__auto__refresh_8h.html" target="_top" xlink:title=" ">
<polygon fill="white" stroke="black" points="271.5,-246.5 271.5,-276.5 396.5,-276.5 396.5,-246.5 271.5,-246.5"/>
<text text-anchor="start" x="279.5" y="-264.5" font-family="Helvetica,sans-Serif" font-size="10.00">src/node/jwt_key_auto</text>
<text text-anchor="middle" x="334" y="-253.5" font-family="Helvetica,sans-Serif" font-size="10.00">_refresh.h</text>
</a>
</g>
</g>
<!-- Node11&#45;&gt;Node12 -->
<g id="edge15" class="edge">
<title>Node11&#45;&gt;Node12</title>
<path fill="none" stroke="midnightblue" d="M406.04,-312.85C390.52,-302 369.49,-287.3 354.16,-276.59"/>
<polygon fill="midnightblue" stroke="midnightblue" points="404.26,-315.87 414.46,-318.73 408.27,-310.14 404.26,-315.87"/>
</g>
<!-- Node12&#45;&gt;Node9 -->
<g id="edge16" class="edge">
<title>Node12&#45;&gt;Node9</title>
<path fill="none" stroke="midnightblue" d="M304.31,-240.81C285.77,-228.51 262.84,-213.3 248.83,-204.01"/>
<polygon fill="midnightblue" stroke="midnightblue" points="302.47,-243.79 312.74,-246.4 306.34,-237.95 302.47,-243.79"/>
</g>
<!-- Node13&#45;&gt;Node9 -->
<g id="edge19" class="edge">
<title>Node13&#45;&gt;Node9</title>
<path fill="none" stroke="midnightblue" d="M177.13,-370.4C180.8,-354.07 186.11,-332.07 192,-313 204.79,-271.58 224.28,-223.56 232.33,-204.22"/>
<polygon fill="midnightblue" stroke="midnightblue" points="173.7,-369.71 174.97,-380.23 180.54,-371.21 173.7,-369.71"/>
</g>
<!-- Node14&#45;&gt;Node8 -->
<g id="edge21" class="edge">
<title>Node14&#45;&gt;Node8</title>
<path fill="none" stroke="midnightblue" d="M293.75,-371.97C285.87,-360.33 276.71,-346.8 270.89,-338.19"/>
<polygon fill="midnightblue" stroke="midnightblue" points="290.95,-374.08 299.45,-380.4 296.75,-370.15 290.95,-374.08"/>
</g>
<!-- Node15&#45;&gt;Node9 -->
<g id="edge24" class="edge">
<title>Node15&#45;&gt;Node9</title>
<path fill="none" stroke="midnightblue" d="M115.3,-443.17C108.57,-426.47 101.41,-401.24 108,-380 132.14,-302.18 202.18,-228.45 227.08,-204"/>
<polygon fill="midnightblue" stroke="midnightblue" points="112.29,-445.03 119.51,-452.78 118.71,-442.22 112.29,-445.03"/>
</g>
<!-- Node16&#45;&gt;Node11 -->
<g id="edge52" class="edge">
<title>Node16&#45;&gt;Node11</title>
<path fill="none" stroke="midnightblue" d="M669.75,-383.72C612.45,-370.92 518.03,-349.83 465.43,-338.08"/>
<polygon fill="midnightblue" stroke="midnightblue" points="669.14,-387.17 679.66,-385.94 670.66,-380.34 669.14,-387.17"/>
</g>
<!-- Node17 -->
<g id="node17" class="node">
<title>Node17</title>
<g id="a_node17"><a xlink:href="wrap_8cpp.html" target="_top" xlink:title=" ">
<polygon fill="white" stroke="black" points="882.5,-185 882.5,-204 971.5,-204 971.5,-185 882.5,-185"/>
<text text-anchor="middle" x="927" y="-192" font-family="Helvetica,sans-Serif" font-size="10.00">src/js/wrap.cpp</text>
</a>
</g>
</g>
<!-- Node16&#45;&gt;Node17 -->
<g id="edge27" class="edge">
<title>Node16&#45;&gt;Node17</title>
<path fill="none" stroke="midnightblue" d="M714.42,-375.94C709.6,-344.97 704.98,-282.57 737,-246 755.94,-224.36 832.26,-209.33 882.22,-201.58"/>
<polygon fill="midnightblue" stroke="midnightblue" points="710.98,-376.56 716.14,-385.82 717.87,-375.37 710.98,-376.56"/>
</g>
<!-- Node18 -->
<g id="node18" class="node">
<title>Node18</title>
<g id="a_node18"><a xlink:href="wrap_8h.html" target="_top" xlink:title=" ">
<polygon fill="white" stroke="black" points="1001,-319 1001,-338 1079,-338 1079,-319 1001,-319"/>
<text text-anchor="middle" x="1040" y="-326" font-family="Helvetica,sans-Serif" font-size="10.00">src/js/wrap.h</text>
</a>
</g>
</g>
<!-- Node16&#45;&gt;Node18 -->
<g id="edge28" class="edge">
<title>Node16&#45;&gt;Node18</title>
<path fill="none" stroke="midnightblue" d="M770.38,-383.93C834.79,-370.92 942.66,-349.15 1000.51,-337.47"/>
<polygon fill="midnightblue" stroke="midnightblue" points="769.54,-380.53 760.43,-385.94 770.92,-387.39 769.54,-380.53"/>
</g>
<!-- Node25 -->
<g id="node25" class="node">
<title>Node25</title>
<g id="a_node25"><a xlink:href="member__frontend_8h.html" target="_top" xlink:title=" ">
<polygon fill="white" stroke="black" points="1586,-246.5 1586,-276.5 1706,-276.5 1706,-246.5 1586,-246.5"/>
<text text-anchor="start" x="1594" y="-264.5" font-family="Helvetica,sans-Serif" font-size="10.00">src/node/rpc/member</text>
<text text-anchor="middle" x="1646" y="-253.5" font-family="Helvetica,sans-Serif" font-size="10.00">_frontend.h</text>
</a>
</g>
</g>
<!-- Node16&#45;&gt;Node25 -->
<g id="edge48" class="edge">
<title>Node16&#45;&gt;Node25</title>
<path fill="none" stroke="midnightblue" d="M808.94,-394.27C885.81,-391.26 997.54,-380.14 1088,-344 1109.88,-335.26 1108.89,-321.14 1131,-313 1317.63,-244.33 1380.19,-305.51 1577,-277 1579.91,-276.58 1582.88,-276.11 1585.87,-275.6"/>
<polygon fill="midnightblue" stroke="midnightblue" points="808.67,-390.78 798.8,-394.63 808.92,-397.77 808.67,-390.78"/>
</g>
<!-- Node26 -->
<g id="node26" class="node">
<title>Node26</title>
<g id="a_node26"><a xlink:href="historical__queries_8h.html" target="_top" xlink:title=" ">
<polygon fill="white" stroke="black" points="631,-179.5 631,-209.5 737,-209.5 737,-179.5 631,-179.5"/>
<text text-anchor="start" x="639" y="-197.5" font-family="Helvetica,sans-Serif" font-size="10.00">src/node/historical</text>
<text text-anchor="middle" x="684" y="-186.5" font-family="Helvetica,sans-Serif" font-size="10.00">_queries.h</text>
</a>
</g>
</g>
<!-- Node16&#45;&gt;Node26 -->
<g id="edge44" class="edge">
<title>Node16&#45;&gt;Node26</title>
<path fill="none" stroke="midnightblue" d="M712.15,-375.78C709.37,-366.33 706.18,-354.63 704,-344 693.97,-295.07 687.74,-236 685.24,-209.53"/>
<polygon fill="midnightblue" stroke="midnightblue" points="708.9,-377.1 715.15,-385.65 715.59,-375.06 708.9,-377.1"/>
</g>
<!-- Node28 -->
<g id="node28" class="node">
<title>Node28</title>
<g id="a_node28"><a xlink:href="network__identity__subsystem_8h.html" target="_top" xlink:title=" ">
<polygon fill="white" stroke="black" points="524.5,-313.5 524.5,-343.5 651.5,-343.5 651.5,-313.5 524.5,-313.5"/>
<text text-anchor="start" x="532.5" y="-331.5" font-family="Helvetica,sans-Serif" font-size="10.00">src/node/rpc/network</text>
<text text-anchor="middle" x="588" y="-320.5" font-family="Helvetica,sans-Serif" font-size="10.00">_identity_subsystem.h</text>
</a>
</g>
</g>
<!-- Node16&#45;&gt;Node28 -->
<g id="edge49" class="edge">
<title>Node16&#45;&gt;Node28</title>
<path fill="none" stroke="midnightblue" d="M691.68,-381.34C669.8,-370.4 638.72,-354.86 616.3,-343.65"/>
<polygon fill="midnightblue" stroke="midnightblue" points="690.23,-384.53 700.74,-385.87 693.36,-378.27 690.23,-384.53"/>
</g>
<!-- Node30 -->
<g id="node30" class="node">
<title>Node30</title>
<g id="a_node30"><a xlink:href="node__operation_8h.html" target="_top" xlink:title=" ">
<polygon fill="white" stroke="black" points="1173,-319 1173,-338 1337,-338 1337,-319 1173,-319"/>
<text text-anchor="middle" x="1255" y="-326" font-family="Helvetica,sans-Serif" font-size="10.00">src/node/rpc/node_operation.h</text>
</a>
</g>
</g>
<!-- Node16&#45;&gt;Node30 -->
<g id="edge53" class="edge">
<title>Node16&#45;&gt;Node30</title>
<path fill="none" stroke="midnightblue" d="M798.69,-384.73C903.51,-372.05 1084.84,-350.1 1184.43,-338.04"/>
<polygon fill="midnightblue" stroke="midnightblue" points="797.99,-381.29 788.48,-385.97 798.83,-388.24 797.99,-381.29"/>
</g>
<!-- Node18&#45;&gt;Node3 -->
<g id="edge30" class="edge">
<title>Node18&#45;&gt;Node3</title>
<path fill="none" stroke="midnightblue" d="M1072.77,-315.88C1076.53,-314.8 1080.33,-313.8 1084,-313 1225.52,-282.04 1493.27,-359.31 1403,-246 1312.58,-132.51 850.85,-85.12 683.05,-71.46"/>
<polygon fill="midnightblue" stroke="midnightblue" points="1071.55,-312.6 1063.04,-318.92 1073.63,-319.28 1071.55,-312.6"/>
</g>
<!-- Node18&#45;&gt;Node9 -->
<g id="edge41" class="edge">
<title>Node18&#45;&gt;Node9</title>
<path fill="none" stroke="midnightblue" d="M990.74,-319.83C930.71,-310.36 826.24,-293.47 737,-277 668.77,-264.41 652.36,-257.88 584,-246 484.3,-228.68 367.82,-212.62 298.09,-203.45"/>
<polygon fill="midnightblue" stroke="midnightblue" points="990.28,-323.3 1000.7,-321.4 991.37,-316.38 990.28,-323.3"/>
</g>
<!-- Node18&#45;&gt;Node17 -->
<g id="edge40" class="edge">
<title>Node18&#45;&gt;Node17</title>
<path fill="none" stroke="midnightblue" d="M990.68,-323.22C959.96,-317.7 922.67,-305.21 903,-277 886.89,-253.89 908.18,-219.9 920.03,-204.12"/>
<polygon fill="midnightblue" stroke="midnightblue" points="990.39,-326.71 1000.81,-324.83 991.49,-319.8 990.39,-326.71"/>
</g>
<!-- Node19 -->
<g id="node19" class="node">
<title>Node19</title>
<g id="a_node19"><a xlink:href="js__generic__base_8cpp.html" target="_top" xlink:title=" ">
<polygon fill="white" stroke="black" points="1450,-246.5 1450,-276.5 1568,-276.5 1568,-246.5 1450,-246.5"/>
<text text-anchor="start" x="1458" y="-264.5" font-family="Helvetica,sans-Serif" font-size="10.00">src/apps/js_generic</text>
<text text-anchor="middle" x="1509" y="-253.5" font-family="Helvetica,sans-Serif" font-size="10.00">/js_generic_base.cpp</text>
</a>
</g>
</g>
<!-- Node18&#45;&gt;Node19 -->
<g id="edge29" class="edge">
<title>Node18&#45;&gt;Node19</title>
<path fill="none" stroke="midnightblue" d="M1077.57,-316.41C1082.73,-315.13 1087.97,-313.95 1093,-313 1243.64,-284.68 1284.45,-299.96 1436,-277 1440.47,-276.32 1445.08,-275.56 1449.72,-274.75"/>
<polygon fill="midnightblue" stroke="midnightblue" points="1076.64,-313.04 1067.86,-318.97 1078.42,-319.81 1076.64,-313.04"/>
</g>
<!-- Node20 -->
<g id="node20" class="node">
<title>Node20</title>
<g id="a_node20"><a xlink:href="js_2consensus_8cpp.html" target="_top" xlink:title=" ">
<polygon fill="white" stroke="black" points="912,-252 912,-271 1028,-271 1028,-252 912,-252"/>
<text text-anchor="middle" x="970" y="-259" font-family="Helvetica,sans-Serif" font-size="10.00">src/js/consensus.cpp</text>
</a>
</g>
</g>
<!-- Node18&#45;&gt;Node20 -->
<g id="edge31" class="edge">
<title>Node18&#45;&gt;Node20</title>
<path fill="none" stroke="midnightblue" d="M1023.15,-311.86C1009.39,-299.08 990.45,-281.49 979.29,-271.13"/>
<polygon fill="midnightblue" stroke="midnightblue" points="1020.85,-314.49 1030.56,-318.73 1025.61,-309.36 1020.85,-314.49"/>
</g>
<!-- Node21 -->
<g id="node21" class="node">
<title>Node21</title>
<g id="a_node21"><a xlink:href="conv_8cpp.html" target="_top" xlink:title=" ">
<polygon fill="white" stroke="black" points="1192,-252 1192,-271 1280,-271 1280,-252 1192,-252"/>
<text text-anchor="middle" x="1236" y="-259" font-family="Helvetica,sans-Serif" font-size="10.00">src/js/conv.cpp</text>
</a>
</g>
</g>
<!-- Node18&#45;&gt;Node21 -->
<g id="edge33" class="edge">
<title>Node18&#45;&gt;Node21</title>
<path fill="none" stroke="midnightblue" d="M1075.88,-315.6C1114.74,-302.71 1175.77,-282.47 1210.18,-271.06"/>
<polygon fill="midnightblue" stroke="midnightblue" points="1074.42,-312.4 1066.03,-318.87 1076.62,-319.04 1074.42,-312.4"/>
</g>
<!-- Node22 -->
<g id="node22" class="node">
<title>Node22</title>
<g id="a_node22"><a xlink:href="js_2crypto_8cpp.html" target="_top" xlink:title=" ">
<polygon fill="white" stroke="black" points="1298,-252 1298,-271 1394,-271 1394,-252 1298,-252"/>
<text text-anchor="middle" x="1346" y="-259" font-family="Helvetica,sans-Serif" font-size="10.00">src/js/crypto.cpp</text>
</a>
</g>
</g>
<!-- Node18&#45;&gt;Node22 -->
<g id="edge35" class="edge">
<title>Node18&#45;&gt;Node22</title>
<path fill="none" stroke="midnightblue" d="M1079.27,-316.35C1083.89,-315.16 1088.54,-314.02 1093,-313 1179.35,-293.3 1202.48,-295.93 1289,-277 1297.18,-275.21 1305.97,-273.08 1314.13,-271.01"/>
<polygon fill="midnightblue" stroke="midnightblue" points="1078.09,-313.05 1069.32,-319 1079.89,-319.81 1078.09,-313.05"/>
</g>
<!-- Node23 -->
<g id="node23" class="node">
<title>Node23</title>
<g id="a_node23"><a xlink:href="js_2historical_8cpp.html" target="_top" xlink:title=" ">
<polygon fill="white" stroke="black" points="746,-252 746,-271 856,-271 856,-252 746,-252"/>
<text text-anchor="middle" x="801" y="-259" font-family="Helvetica,sans-Serif" font-size="10.00">src/js/historical.cpp</text>
</a>
</g>
</g>
<!-- Node18&#45;&gt;Node23 -->
<g id="edge37" class="edge">
<title>Node18&#45;&gt;Node23</title>
<path fill="none" stroke="midnightblue" d="M998.35,-316.17C951.09,-303.32 875.06,-282.64 832.49,-271.06"/>
<polygon fill="midnightblue" stroke="midnightblue" points="997.69,-319.62 1008.26,-318.87 999.53,-312.87 997.69,-319.62"/>
</g>
<!-- Node24 -->
<g id="node24" class="node">
<title>Node24</title>
<g id="a_node24"><a xlink:href="openenclave_8cpp.html" target="_top" xlink:title=" ">
<polygon fill="white" stroke="black" points="1046,-252 1046,-271 1174,-271 1174,-252 1046,-252"/>
<text text-anchor="middle" x="1110" y="-259" font-family="Helvetica,sans-Serif" font-size="10.00">src/js/openenclave.cpp</text>
</a>
</g>
</g>
<!-- Node18&#45;&gt;Node24 -->
<g id="edge39" class="edge">
<title>Node18&#45;&gt;Node24</title>
<path fill="none" stroke="midnightblue" d="M1056.85,-311.86C1070.61,-299.08 1089.55,-281.49 1100.71,-271.13"/>
<polygon fill="midnightblue" stroke="midnightblue" points="1054.39,-309.36 1049.44,-318.73 1059.15,-314.49 1054.39,-309.36"/>
</g>
<!-- Node18&#45;&gt;Node25 -->
<g id="edge42" class="edge">
<title>Node18&#45;&gt;Node25</title>
<path fill="none" stroke="midnightblue" d="M1077.19,-316.36C1082.46,-315.06 1087.84,-313.89 1093,-313 1305.57,-276.37 1363.43,-307.25 1577,-277 1579.91,-276.59 1582.88,-276.13 1585.87,-275.63"/>
<polygon fill="midnightblue" stroke="midnightblue" points="1076.07,-313.03 1067.28,-318.96 1077.84,-319.81 1076.07,-313.03"/>
</g>
<!-- Node20&#45;&gt;Node17 -->
<g id="edge32" class="edge">
<title>Node20&#45;&gt;Node17</title>
<path fill="none" stroke="midnightblue" d="M958.45,-243.03C950.12,-230.45 939.24,-214.01 932.71,-204.13"/>
<polygon fill="midnightblue" stroke="midnightblue" points="955.76,-245.32 964.2,-251.73 961.6,-241.46 955.76,-245.32"/>
</g>
<!-- Node21&#45;&gt;Node17 -->
<g id="edge34" class="edge">
<title>Node21&#45;&gt;Node17</title>
<path fill="none" stroke="midnightblue" d="M1196.55,-249.37C1191.99,-248.18 1187.4,-247.03 1183,-246 1109.36,-228.69 1022.85,-212.47 971.61,-203.29"/>
<polygon fill="midnightblue" stroke="midnightblue" points="1195.82,-252.8 1206.38,-251.99 1197.62,-246.03 1195.82,-252.8"/>
</g>
<!-- Node22&#45;&gt;Node17 -->
<g id="edge36" class="edge">
<title>Node22&#45;&gt;Node17</title>
<path fill="none" stroke="midnightblue" d="M1304.96,-249.49C1299.61,-248.22 1294.19,-247.02 1289,-246 1175.52,-223.72 1040.15,-207.57 971.57,-200.11"/>
<polygon fill="midnightblue" stroke="midnightblue" points="1304.53,-252.98 1315.08,-251.97 1306.2,-246.19 1304.53,-252.98"/>
</g>
<!-- Node23&#45;&gt;Node17 -->
<g id="edge38" class="edge">
<title>Node23&#45;&gt;Node17</title>
<path fill="none" stroke="midnightblue" d="M826.64,-247.27C851.59,-234.4 888.8,-215.21 910.2,-204.17"/>
<polygon fill="midnightblue" stroke="midnightblue" points="825.01,-244.17 817.73,-251.87 828.22,-250.39 825.01,-244.17"/>
</g>
<!-- Node25&#45;&gt;Node3 -->
<g id="edge43" class="edge">
<title>Node25&#45;&gt;Node3</title>
<path fill="none" stroke="midnightblue" d="M1624.51,-238.85C1588.94,-204.64 1514.01,-139.19 1436,-112 1365.62,-87.47 860.04,-72.84 683.02,-68.43"/>
<polygon fill="midnightblue" stroke="midnightblue" points="1622.28,-241.57 1631.88,-246.04 1627.17,-236.55 1622.28,-241.57"/>
</g>
<!-- Node26&#45;&gt;Node3 -->
<g id="edge45" class="edge">
<title>Node26&#45;&gt;Node3</title>
<path fill="none" stroke="midnightblue" d="M672.61,-170.26C658.68,-141.83 635.78,-95.11 626.31,-75.79"/>
<polygon fill="midnightblue" stroke="midnightblue" points="669.58,-172.04 677.13,-179.48 675.87,-168.96 669.58,-172.04"/>
</g>
<!-- Node27 -->
<g id="node27" class="node">
<title>Node27</title>
<g id="a_node27"><a xlink:href="historical__transaction__fetcher_8h.html" target="_top" xlink:title=" ">
<polygon fill="white" stroke="black" points="669.5,-112.5 669.5,-142.5 794.5,-142.5 794.5,-112.5 669.5,-112.5"/>
<text text-anchor="start" x="677.5" y="-130.5" font-family="Helvetica,sans-Serif" font-size="10.00">src/indexing/historical</text>
<text text-anchor="middle" x="732" y="-119.5" font-family="Helvetica,sans-Serif" font-size="10.00">_transaction_fetcher.h</text>
</a>
</g>
</g>
<!-- Node26&#45;&gt;Node27 -->
<g id="edge46" class="edge">
<title>Node26&#45;&gt;Node27</title>
<path fill="none" stroke="midnightblue" d="M700.5,-171.16C707.5,-161.68 715.44,-150.92 721.61,-142.58"/>
<polygon fill="midnightblue" stroke="midnightblue" points="697.54,-169.27 694.42,-179.4 703.17,-173.43 697.54,-169.27"/>
</g>
<!-- Node27&#45;&gt;Node3 -->
<g id="edge47" class="edge">
<title>Node27&#45;&gt;Node3</title>
<path fill="none" stroke="midnightblue" d="M696.88,-107.51C677.11,-96.81 653.38,-83.97 638.01,-75.66"/>
<polygon fill="midnightblue" stroke="midnightblue" points="695.47,-110.72 705.93,-112.4 698.8,-104.56 695.47,-110.72"/>
</g>
<!-- Node28&#45;&gt;Node3 -->
<g id="edge50" class="edge">
<title>Node28&#45;&gt;Node3</title>
<path fill="none" stroke="midnightblue" d="M591.14,-303.46C598.43,-247.62 616.23,-111.24 620.87,-75.63"/>
<polygon fill="midnightblue" stroke="midnightblue" points="587.65,-303.13 589.83,-313.49 594.59,-304.03 587.65,-303.13"/>
</g>
<!-- Node29 -->
<g id="node29" class="node">
<title>Node29</title>
<g id="a_node29"><a xlink:href="historical__queries__adapter_8cpp.html" target="_top" xlink:title=" ">
<polygon fill="white" stroke="black" points="455,-246.5 455,-276.5 575,-276.5 575,-246.5 455,-246.5"/>
<text text-anchor="start" x="463" y="-264.5" font-family="Helvetica,sans-Serif" font-size="10.00">src/node/historical</text>
<text text-anchor="middle" x="515" y="-253.5" font-family="Helvetica,sans-Serif" font-size="10.00">_queries_adapter.cpp</text>
</a>
</g>
</g>
<!-- Node28&#45;&gt;Node29 -->
<g id="edge51" class="edge">
<title>Node28&#45;&gt;Node29</title>
<path fill="none" stroke="midnightblue" d="M564.53,-306.6C553.5,-296.78 540.66,-285.34 530.81,-276.58"/>
<polygon fill="midnightblue" stroke="midnightblue" points="562.36,-309.36 572.16,-313.4 567.02,-304.13 562.36,-309.36"/>
</g>
<!-- Node30&#45;&gt;Node3 -->
<g id="edge54" class="edge">
<title>Node30&#45;&gt;Node3</title>
<path fill="none" stroke="midnightblue" d="M1347.21,-323.86C1474.43,-317.88 1690.94,-303.85 1715,-277 1724.2,-266.74 1721.91,-257.92 1715,-246 1654.89,-142.32 1595.97,-145.83 1481,-112 1331.29,-67.94 853.49,-65.83 683.09,-66.54"/>
<polygon fill="midnightblue" stroke="midnightblue" points="1346.9,-320.37 1337.07,-324.33 1347.22,-327.36 1346.9,-320.37"/>
</g>
<!-- Node31&#45;&gt;Node16 -->
<g id="edge57" class="edge">
<title>Node31&#45;&gt;Node16</title>
<path fill="none" stroke="midnightblue" d="M881.51,-444.59C838.35,-431.9 781.05,-415.04 747,-405.03"/>
<polygon fill="midnightblue" stroke="midnightblue" points="880.74,-448.01 891.32,-447.48 882.71,-441.3 880.74,-448.01"/>
</g>
<!-- Node31&#45;&gt;Node25 -->
<g id="edge56" class="edge">
<title>Node31&#45;&gt;Node25</title>
<path fill="none" stroke="midnightblue" d="M971.2,-442.01C1008.33,-419.29 1070.94,-380.22 1123,-344 1141.75,-330.95 1142.68,-321.2 1164,-313 1335.97,-246.86 1394.74,-303.99 1577,-277 1579.91,-276.57 1582.87,-276.09 1585.87,-275.58"/>
<polygon fill="midnightblue" stroke="midnightblue" points="969.04,-439.22 962.33,-447.42 972.69,-445.2 969.04,-439.22"/>
</g>
<!-- Node31&#45;&gt;Node30 -->
<g id="edge58" class="edge">
<title>Node31&#45;&gt;Node30</title>
<path fill="none" stroke="midnightblue" d="M1026.53,-451.24C1068.25,-443.94 1117.89,-431.61 1159,-411 1196.91,-391.99 1232.5,-354.99 1247.51,-338.18"/>
<polygon fill="midnightblue" stroke="midnightblue" points="1025.94,-447.79 1016.66,-452.9 1027.1,-454.7 1025.94,-447.79"/>
</g>
</g>
</svg>
        <g id="navigator" transform="translate(0 0)" fill="#404254">
                <rect fill="#f2f5e9" fill-opacity="0.5" stroke="#606060" stroke-width=".5" x="0" y="0" width="60" height="60"/>
                <use id="zoomplus" xlink:href="#zoomPlus" x="17" y="9" onmousedown="handleZoom(evt,'in')"/>
                <use id="zoomminus" xlink:href="#zoomMin" x="42" y="9" onmousedown="handleZoom(evt,'out')"/>
                <use id="reset" xlink:href="#resetDef" x="30" y="36" onmousedown="handleReset()"/>
                <g id="arrowUp" xlink:href="#dirArrow" transform="translate(30 24)" onmousedown="handlePan(0,-1)">
                  <use xlink:href="#rim" fill="#404040">
                        <set attributeName="fill" to="#808080" begin="arrowUp.mouseover" end="arrowUp.mouseout"/>
                  </use>
                  <path fill="none" stroke="white" stroke-width="1.5" d="M0,-3.0v7 M-2.5,-0.5L0,-3.0L2.5,-0.5"/>
                </g>
                <g id="arrowRight" xlink:href="#dirArrow" transform="rotate(90) translate(36 -43)" onmousedown="handlePan(1,0)">
                  <use xlink:href="#rim" fill="#404040">
                        <set attributeName="fill" to="#808080" begin="arrowRight.mouseover" end="arrowRight.mouseout"/>
                  </use>
                  <path fill="none" stroke="white" stroke-width="1.5" d="M0,-3.0v7 M-2.5,-0.5L0,-3.0L2.5,-0.5"/>
                </g>
                <g id="arrowDown" xlink:href="#dirArrow" transform="rotate(180) translate(-30 -48)" onmousedown="handlePan(0,1)">
                  <use xlink:href="#rim" fill="#404040">
                        <set attributeName="fill" to="#808080" begin="arrowDown.mouseover" end="arrowDown.mouseout"/>
                  </use>
                  <path fill="none" stroke="white" stroke-width="1.5" d="M0,-3.0v7 M-2.5,-0.5L0,-3.0L2.5,-0.5"/>
                </g>
                <g id="arrowLeft" xlink:href="#dirArrow" transform="rotate(270) translate(-36 17)" onmousedown="handlePan(-1,0)">
                  <use xlink:href="#rim" fill="#404040">
                        <set attributeName="fill" to="#808080" begin="arrowLeft.mouseover" end="arrowLeft.mouseout"/>
                  </use>
                  <path fill="none" stroke="white" stroke-width="1.5" d="M0,-3.0v7 M-2.5,-0.5L0,-3.0L2.5,-0.5"/>
                </g>
        </g>
        <svg viewBox="0 0 15 15" width="100%" height="30px" preserveAspectRatio="xMaxYMin meet">
         <g id="arrow_out" transform="scale(0.3 0.3)">
          <a xlink:href="session__metrics_8h__dep__incl_org.svg" target="_base">
           <rect id="button" ry="5" rx="5" y="6" x="6" height="38" width="38"
                fill="#f2f5e9" fill-opacity="0.5" stroke="#606060" stroke-width="1.0"/>
           <path id="arrow"
             d="M 11.500037,31.436501 C 11.940474,20.09759 22.043105,11.32322 32.158766,21.979434 L 37.068811,17.246167 C 37.068811,17.246167 37.088388,32 37.088388,32 L 22.160133,31.978069 C 22.160133,31.978069 26.997745,27.140456 26.997745,27.140456 C 18.528582,18.264221 13.291696,25.230495 11.500037,31.436501 z"
             style="fill:#404040;"/>
          </a>
         </g>
        </svg>
</svg>
