<?xml version="1.0" encoding="UTF-8" standalone="no"?>
<!DOCTYPE svg PUBLIC "-//W3C//DTD SVG 1.1//EN"
 "http://www.w3.org/Graphics/SVG/1.1/DTD/svg11.dtd">
<!-- Generated by graphviz version 2.43.0 (0)
 -->
<!-- Title: src/service/tables/snapshot_evidence.h Pages: 1 -->
<!--zoomable 654 -->
<svg id="main" version="1.1" xmlns="http://www.w3.org/2000/svg" xmlns:xlink="http://www.w3.org/1999/xlink" xml:space="preserve" onload="init(evt)">
<style type="text/css"><![CDATA[
.edge:hover path { stroke: red; }
.edge:hover polygon { stroke: red; fill: red; }
]]></style>
<script type="text/javascript"><![CDATA[
var edges = document.getElementsByTagName('g');
if (edges && edges.length) {
  for (var i=0;i<edges.length;i++) {
    if (edges[i].id.substr(0,4)=='edge') {
      edges[i].setAttribute('class','edge');
    }
  }
}
]]></script>
        <defs>
                <circle id="rim" cx="0" cy="0" r="7"/>
                <circle id="rim2" cx="0" cy="0" r="3.5"/>
                <g id="zoomPlus">
                        <use xlink:href="#rim" fill="#404040">
                                <set attributeName="fill" to="#808080" begin="zoomplus.mouseover" end="zoomplus.mouseout"/>
                        </use>
                        <path d="M-4,0h8M0,-4v8" fill="none" stroke="white" stroke-width="1.5" pointer-events="none"/>
                </g>
                <g id="zoomMin">
                        <use xlink:href="#rim" fill="#404040">
                                <set attributeName="fill" to="#808080" begin="zoomminus.mouseover" end="zoomminus.mouseout"/>
                        </use>
                        <path d="M-4,0h8" fill="none" stroke="white" stroke-width="1.5" pointer-events="none"/>
                </g>
                <g id="dirArrow">
                        <path fill="none" stroke="white" stroke-width="1.5" d="M0,-3.0v7 M-2.5,-0.5L0,-3.0L2.5,-0.5"/>
                </g>
               <g id="resetDef">
                       <use xlink:href="#rim2" fill="#404040">
                               <set attributeName="fill" to="#808080" begin="reset.mouseover" end="reset.mouseout"/>
                       </use>
               </g>
        </defs>

<script type="text/javascript">
var viewWidth = 2304;
var viewHeight = 654;
var sectionId = 'dynsection-1';
</script>
<script xlink:href="svgpan.js"/>
<svg id="graph" class="graph">
<g id="viewport">
<title>src/service/tables/snapshot_evidence.h</title>
<polygon fill="white" stroke="transparent" points="-4,4 -4,-650 2300,-650 2300,4 -4,4"/>
<!-- Node1 -->
<g id="node1" class="node">
<title>Node1</title>
<g id="a_node1"><a xlink:title=" ">
<polygon fill="#bfbfbf" stroke="black" points="636,-615.5 636,-645.5 758,-645.5 758,-615.5 636,-615.5"/>
<text text-anchor="start" x="644" y="-633.5" font-family="Helvetica,sans-Serif" font-size="10.00">src/service/tables</text>
<text text-anchor="middle" x="697" y="-622.5" font-family="Helvetica,sans-Serif" font-size="10.00">/snapshot_evidence.h</text>
</a>
</g>
</g>
<!-- Node2 -->
<g id="node2" class="node">
<title>Node2</title>
<g id="a_node2"><a xlink:href="deserialise_8h.html" target="_top" xlink:title=" ">
<polygon fill="white" stroke="black" points="641.5,-559.5 641.5,-578.5 752.5,-578.5 752.5,-559.5 641.5,-559.5"/>
<text text-anchor="middle" x="697" y="-566.5" font-family="Helvetica,sans-Serif" font-size="10.00">src/kv/deserialise.h</text>
</a>
</g>
</g>
<!-- Node1&#45;&gt;Node2 -->
<g id="edge1" class="edge">
<title>Node1&#45;&gt;Node2</title>
<path fill="none" stroke="midnightblue" d="M697,-605.29C697,-595.86 697,-585.65 697,-578.66"/>
<polygon fill="midnightblue" stroke="midnightblue" points="693.5,-605.4 697,-615.4 700.5,-605.4 693.5,-605.4"/>
</g>
<!-- Node14 -->
<g id="node14" class="node">
<title>Node14</title>
<g id="a_node14"><a xlink:href="snapshotter_8h.html" target="_top" xlink:title=" ">
<polygon fill="white" stroke="black" points="557.5,-241 557.5,-260 684.5,-260 684.5,-241 557.5,-241"/>
<text text-anchor="middle" x="621" y="-248" font-family="Helvetica,sans-Serif" font-size="10.00">src/node/snapshotter.h</text>
</a>
</g>
</g>
<!-- Node1&#45;&gt;Node14 -->
<g id="edge71" class="edge">
<title>Node1&#45;&gt;Node14</title>
<path fill="none" stroke="midnightblue" d="M664.51,-609.41C653.27,-601.14 641.4,-590.74 633,-579 615.16,-554.08 610,-544.64 610,-514 610,-514 610,-514 610,-383.5 610,-336.82 616.92,-281.17 619.78,-260.13"/>
<polygon fill="midnightblue" stroke="midnightblue" points="662.71,-612.42 672.91,-615.3 666.73,-606.69 662.71,-612.42"/>
</g>
<!-- Node25 -->
<g id="node25" class="node">
<title>Node25</title>
<g id="a_node25"><a xlink:href="network__tables_8h.html" target="_top" xlink:title=" ">
<polygon fill="white" stroke="black" points="864,-436.5 864,-466.5 976,-466.5 976,-436.5 864,-436.5"/>
<text text-anchor="start" x="872" y="-454.5" font-family="Helvetica,sans-Serif" font-size="10.00">src/service/network</text>
<text text-anchor="middle" x="920" y="-443.5" font-family="Helvetica,sans-Serif" font-size="10.00">_tables.h</text>
</a>
</g>
</g>
<!-- Node1&#45;&gt;Node25 -->
<g id="edge72" class="edge">
<title>Node1&#45;&gt;Node25</title>
<path fill="none" stroke="midnightblue" d="M723.43,-609.11C735.26,-599.94 749.36,-588.97 762,-579 813.32,-538.52 873.47,-490.09 902.53,-466.62"/>
<polygon fill="midnightblue" stroke="midnightblue" points="721.03,-606.53 715.27,-615.42 725.32,-612.07 721.03,-606.53"/>
</g>
<!-- Node3 -->
<g id="node3" class="node">
<title>Node3</title>
<g id="a_node3"><a xlink:href="store_8h.html" target="_top" xlink:title=" ">
<polygon fill="white" stroke="black" points="655.5,-503.5 655.5,-522.5 738.5,-522.5 738.5,-503.5 655.5,-503.5"/>
<text text-anchor="middle" x="697" y="-510.5" font-family="Helvetica,sans-Serif" font-size="10.00">src/kv/store.h</text>
</a>
</g>
</g>
<!-- Node2&#45;&gt;Node3 -->
<g id="edge2" class="edge">
<title>Node2&#45;&gt;Node3</title>
<path fill="none" stroke="midnightblue" d="M697,-548.8C697,-539.91 697,-529.78 697,-522.75"/>
<polygon fill="midnightblue" stroke="midnightblue" points="693.5,-549.08 697,-559.08 700.5,-549.08 693.5,-549.08"/>
</g>
<!-- Node4 -->
<g id="node4" class="node">
<title>Node4</title>
<g id="a_node4"><a xlink:href="indexer_8h.html" target="_top" xlink:title=" ">
<polygon fill="white" stroke="black" points="638.5,-442 638.5,-461 761.5,-461 761.5,-442 638.5,-442"/>
<text text-anchor="middle" x="700" y="-449" font-family="Helvetica,sans-Serif" font-size="10.00">src/indexing/indexer.h</text>
</a>
</g>
</g>
<!-- Node3&#45;&gt;Node4 -->
<g id="edge3" class="edge">
<title>Node3&#45;&gt;Node4</title>
<path fill="none" stroke="midnightblue" d="M697.94,-493.32C698.49,-482.5 699.15,-469.4 699.57,-461.01"/>
<polygon fill="midnightblue" stroke="midnightblue" points="694.44,-493.31 697.43,-503.48 701.43,-493.66 694.44,-493.31"/>
</g>
<!-- Node9 -->
<g id="node9" class="node">
<title>Node9</title>
<g id="a_node9"><a xlink:href="visit__each__entry__in__map_8cpp.html" target="_top" xlink:title=" ">
<polygon fill="white" stroke="black" points="197.5,-436.5 197.5,-466.5 358.5,-466.5 358.5,-436.5 197.5,-436.5"/>
<text text-anchor="start" x="205.5" y="-454.5" font-family="Helvetica,sans-Serif" font-size="10.00">src/indexing/strategies</text>
<text text-anchor="middle" x="278" y="-443.5" font-family="Helvetica,sans-Serif" font-size="10.00">/visit_each_entry_in_map.cpp</text>
</a>
</g>
</g>
<!-- Node3&#45;&gt;Node9 -->
<g id="edge9" class="edge">
<title>Node3&#45;&gt;Node9</title>
<path fill="none" stroke="midnightblue" d="M645.44,-505.33C580.62,-496.86 465.97,-481.59 368,-467 365.03,-466.56 362,-466.1 358.94,-465.63"/>
<polygon fill="midnightblue" stroke="midnightblue" points="645.04,-508.81 655.41,-506.63 645.94,-501.87 645.04,-508.81"/>
</g>
<!-- Node10 -->
<g id="node10" class="node">
<title>Node10</title>
<g id="a_node10"><a xlink:href="historical__queries_8h.html" target="_top" xlink:title=" ">
<polygon fill="white" stroke="black" points="0,-302.5 0,-332.5 106,-332.5 106,-302.5 0,-302.5"/>
<text text-anchor="start" x="8" y="-320.5" font-family="Helvetica,sans-Serif" font-size="10.00">src/node/historical</text>
<text text-anchor="middle" x="53" y="-309.5" font-family="Helvetica,sans-Serif" font-size="10.00">_queries.h</text>
</a>
</g>
</g>
<!-- Node3&#45;&gt;Node10 -->
<g id="edge10" class="edge">
<title>Node3&#45;&gt;Node10</title>
<path fill="none" stroke="midnightblue" d="M645.3,-512.11C532.52,-511.6 268.19,-506.12 189,-467 126.63,-436.19 79.04,-363.55 60.95,-332.73"/>
<polygon fill="midnightblue" stroke="midnightblue" points="645.39,-515.61 655.4,-512.14 645.42,-508.61 645.39,-515.61"/>
</g>
<!-- Node12 -->
<g id="node12" class="node">
<title>Node12</title>
<g id="a_node12"><a xlink:href="history_8h.html" target="_top" xlink:title=" ">
<polygon fill="white" stroke="black" points="377,-442 377,-461 479,-461 479,-442 377,-442"/>
<text text-anchor="middle" x="428" y="-449" font-family="Helvetica,sans-Serif" font-size="10.00">src/node/history.h</text>
</a>
</g>
</g>
<!-- Node3&#45;&gt;Node12 -->
<g id="edge14" class="edge">
<title>Node3&#45;&gt;Node12</title>
<path fill="none" stroke="midnightblue" d="M648.44,-501.26C596.25,-489.72 514.38,-471.61 466.47,-461.01"/>
<polygon fill="midnightblue" stroke="midnightblue" points="647.94,-504.73 658.46,-503.48 649.45,-497.9 647.94,-504.73"/>
</g>
<!-- Node20 -->
<g id="node20" class="node">
<title>Node20</title>
<g id="a_node20"><a xlink:href="frontend_8h.html" target="_top" xlink:title=" ">
<polygon fill="white" stroke="black" points="1008.5,-375 1008.5,-394 1137.5,-394 1137.5,-375 1008.5,-375"/>
<text text-anchor="middle" x="1073" y="-382" font-family="Helvetica,sans-Serif" font-size="10.00">src/node/rpc/frontend.h</text>
</a>
</g>
</g>
<!-- Node3&#45;&gt;Node20 -->
<g id="edge27" class="edge">
<title>Node3&#45;&gt;Node20</title>
<path fill="none" stroke="midnightblue" d="M721.21,-498.27C751.61,-481.52 805.77,-453.3 855,-436 887.07,-424.73 977.17,-405.27 1030.97,-394.08"/>
<polygon fill="midnightblue" stroke="midnightblue" points="719.25,-495.35 712.21,-503.27 722.65,-501.47 719.25,-495.35"/>
</g>
<!-- Node3&#45;&gt;Node25 -->
<g id="edge37" class="edge">
<title>Node3&#45;&gt;Node25</title>
<path fill="none" stroke="midnightblue" d="M738.76,-500.86C775.17,-491.14 828.16,-477.01 867.44,-466.52"/>
<polygon fill="midnightblue" stroke="midnightblue" points="737.71,-497.52 728.95,-503.48 739.51,-504.28 737.71,-497.52"/>
</g>
<!-- Node5 -->
<g id="node5" class="node">
<title>Node5</title>
<g id="a_node5"><a xlink:href="node__state_8h.html" target="_top" xlink:title=" ">
<polygon fill="white" stroke="black" points="912,-179.5 912,-198.5 1036,-198.5 1036,-179.5 912,-179.5"/>
<text text-anchor="middle" x="974" y="-186.5" font-family="Helvetica,sans-Serif" font-size="10.00">src/node/node_state.h</text>
</a>
</g>
</g>
<!-- Node4&#45;&gt;Node5 -->
<g id="edge4" class="edge">
<title>Node4&#45;&gt;Node5</title>
<path fill="none" stroke="midnightblue" d="M700.84,-431.49C703.16,-400.82 711.79,-340.02 744,-302 794.53,-242.36 884.29,-211.79 935.46,-198.5"/>
<polygon fill="midnightblue" stroke="midnightblue" points="697.34,-431.47 700.23,-441.66 704.33,-431.89 697.34,-431.47"/>
</g>
<!-- Node6 -->
<g id="node6" class="node">
<title>Node6</title>
<g id="a_node6"><a xlink:href="enclave_2enclave_8h.html" target="_top" xlink:title=" ">
<polygon fill="white" stroke="black" points="813,-56.5 813,-75.5 935,-75.5 935,-56.5 813,-56.5"/>
<text text-anchor="middle" x="874" y="-63.5" font-family="Helvetica,sans-Serif" font-size="10.00">src/enclave/enclave.h</text>
</a>
</g>
</g>
<!-- Node5&#45;&gt;Node6 -->
<g id="edge5" class="edge">
<title>Node5&#45;&gt;Node6</title>
<path fill="none" stroke="midnightblue" d="M973.39,-168.93C971.96,-152.35 967.64,-128.48 955,-112 941.49,-94.39 919.01,-82.69 901.15,-75.64"/>
<polygon fill="midnightblue" stroke="midnightblue" points="969.91,-169.28 973.98,-179.06 976.89,-168.87 969.91,-169.28"/>
</g>
<!-- Node8 -->
<g id="node8" class="node">
<title>Node8</title>
<g id="a_node8"><a xlink:href="gov__effects_8h.html" target="_top" xlink:title=" ">
<polygon fill="white" stroke="black" points="802,-118 802,-137 946,-137 946,-118 802,-118"/>
<text text-anchor="middle" x="874" y="-125" font-family="Helvetica,sans-Serif" font-size="10.00">src/node/rpc/gov_effects.h</text>
</a>
</g>
</g>
<!-- Node5&#45;&gt;Node8 -->
<g id="edge7" class="edge">
<title>Node5&#45;&gt;Node8</title>
<path fill="none" stroke="midnightblue" d="M950.88,-174.24C931.56,-162.75 904.63,-146.72 888.3,-137.01"/>
<polygon fill="midnightblue" stroke="midnightblue" points="949.29,-177.37 959.67,-179.48 952.87,-171.35 949.29,-177.37"/>
</g>
<!-- Node7 -->
<g id="node7" class="node">
<title>Node7</title>
<g id="a_node7"><a xlink:href="enclave_2main_8cpp.html" target="_top" xlink:title=" ">
<polygon fill="white" stroke="black" points="814,-0.5 814,-19.5 934,-19.5 934,-0.5 814,-0.5"/>
<text text-anchor="middle" x="874" y="-7.5" font-family="Helvetica,sans-Serif" font-size="10.00">src/enclave/main.cpp</text>
</a>
</g>
</g>
<!-- Node6&#45;&gt;Node7 -->
<g id="edge6" class="edge">
<title>Node6&#45;&gt;Node7</title>
<path fill="none" stroke="midnightblue" d="M874,-45.8C874,-36.91 874,-26.78 874,-19.75"/>
<polygon fill="midnightblue" stroke="midnightblue" points="870.5,-46.08 874,-56.08 877.5,-46.08 870.5,-46.08"/>
</g>
<!-- Node8&#45;&gt;Node6 -->
<g id="edge8" class="edge">
<title>Node8&#45;&gt;Node6</title>
<path fill="none" stroke="midnightblue" d="M874,-107.82C874,-97 874,-83.9 874,-75.51"/>
<polygon fill="midnightblue" stroke="midnightblue" points="870.5,-107.98 874,-117.98 877.5,-107.98 870.5,-107.98"/>
</g>
<!-- Node10&#45;&gt;Node6 -->
<g id="edge11" class="edge">
<title>Node10&#45;&gt;Node6</title>
<path fill="none" stroke="midnightblue" d="M56.88,-292.52C60.67,-275.11 67.85,-251.77 81,-235 154.46,-141.3 203.61,-141.37 319,-112 411.04,-88.57 688.78,-74.6 812.91,-69.37"/>
<polygon fill="midnightblue" stroke="midnightblue" points="53.42,-291.99 54.94,-302.48 60.29,-293.33 53.42,-291.99"/>
</g>
<!-- Node11 -->
<g id="node11" class="node">
<title>Node11</title>
<g id="a_node11"><a xlink:href="historical__transaction__fetcher_8h.html" target="_top" xlink:title=" ">
<polygon fill="white" stroke="black" points="327.5,-112.5 327.5,-142.5 452.5,-142.5 452.5,-112.5 327.5,-112.5"/>
<text text-anchor="start" x="335.5" y="-130.5" font-family="Helvetica,sans-Serif" font-size="10.00">src/indexing/historical</text>
<text text-anchor="middle" x="390" y="-119.5" font-family="Helvetica,sans-Serif" font-size="10.00">_transaction_fetcher.h</text>
</a>
</g>
</g>
<!-- Node10&#45;&gt;Node11 -->
<g id="edge12" class="edge">
<title>Node10&#45;&gt;Node11</title>
<path fill="none" stroke="midnightblue" d="M64.95,-293.71C75.46,-275.6 92.3,-250.79 113,-235 177.62,-185.71 267.78,-156.72 327.47,-141.74"/>
<polygon fill="midnightblue" stroke="midnightblue" points="61.87,-292.04 60.04,-302.48 67.98,-295.46 61.87,-292.04"/>
</g>
<!-- Node11&#45;&gt;Node6 -->
<g id="edge13" class="edge">
<title>Node11&#45;&gt;Node6</title>
<path fill="none" stroke="midnightblue" d="M462.92,-117.54C558.29,-105.81 723.71,-85.48 812.86,-74.52"/>
<polygon fill="midnightblue" stroke="midnightblue" points="462.28,-114.09 452.78,-118.78 463.13,-121.04 462.28,-114.09"/>
</g>
<!-- Node12&#45;&gt;Node5 -->
<g id="edge16" class="edge">
<title>Node12&#45;&gt;Node5</title>
<path fill="none" stroke="midnightblue" d="M421.16,-432.54C411.12,-402.94 396.12,-343.1 421,-302 454.25,-247.07 487.54,-253.6 549,-235 673.81,-197.23 827.56,-190.11 911.69,-189.36"/>
<polygon fill="midnightblue" stroke="midnightblue" points="417.88,-433.76 424.55,-441.99 424.47,-431.39 417.88,-433.76"/>
</g>
<!-- Node12&#45;&gt;Node10 -->
<g id="edge15" class="edge">
<title>Node12&#45;&gt;Node10</title>
<path fill="none" stroke="midnightblue" d="M381.99,-439.48C344.89,-430.18 291.57,-415.87 246,-400 187.09,-379.49 120.49,-349.88 82.95,-332.57"/>
<polygon fill="midnightblue" stroke="midnightblue" points="381.46,-442.96 392.01,-441.97 383.15,-436.16 381.46,-442.96"/>
</g>
<!-- Node13 -->
<g id="node13" class="node">
<title>Node13</title>
<g id="a_node13"><a xlink:href="snapshot__serdes_8h.html" target="_top" xlink:title=" ">
<polygon fill="white" stroke="black" points="430,-308 430,-327 582,-327 582,-308 430,-308"/>
<text text-anchor="middle" x="506" y="-315" font-family="Helvetica,sans-Serif" font-size="10.00">src/node/snapshot_serdes.h</text>
</a>
</g>
</g>
<!-- Node12&#45;&gt;Node13 -->
<g id="edge17" class="edge">
<title>Node12&#45;&gt;Node13</title>
<path fill="none" stroke="midnightblue" d="M438.39,-432.92C455.36,-404.2 488.38,-348.32 500.96,-327.02"/>
<polygon fill="midnightblue" stroke="midnightblue" points="435.19,-431.45 433.12,-441.84 441.22,-435.01 435.19,-431.45"/>
</g>
<!-- Node15 -->
<g id="node15" class="node">
<title>Node15</title>
<g id="a_node15"><a xlink:href="tx__receipt_8h.html" target="_top" xlink:title=" ">
<polygon fill="white" stroke="black" points="254.5,-375 254.5,-394 373.5,-394 373.5,-375 254.5,-375"/>
<text text-anchor="middle" x="314" y="-382" font-family="Helvetica,sans-Serif" font-size="10.00">src/node/tx_receipt.h</text>
</a>
</g>
</g>
<!-- Node12&#45;&gt;Node15 -->
<g id="edge20" class="edge">
<title>Node12&#45;&gt;Node15</title>
<path fill="none" stroke="midnightblue" d="M403.65,-436.62C381.06,-423.74 348.16,-404.98 329.13,-394.13"/>
<polygon fill="midnightblue" stroke="midnightblue" points="402.2,-439.82 412.63,-441.73 405.67,-433.74 402.2,-439.82"/>
</g>
<!-- Node13&#45;&gt;Node14 -->
<g id="edge18" class="edge">
<title>Node13&#45;&gt;Node14</title>
<path fill="none" stroke="midnightblue" d="M530.26,-302.79C553.05,-289.9 586.46,-271.02 605.74,-260.13"/>
<polygon fill="midnightblue" stroke="midnightblue" points="528.49,-299.77 521.51,-307.73 531.94,-305.86 528.49,-299.77"/>
</g>
<!-- Node14&#45;&gt;Node5 -->
<g id="edge19" class="edge">
<title>Node14&#45;&gt;Node5</title>
<path fill="none" stroke="midnightblue" d="M681.76,-239.26C750.06,-227.75 859.73,-209.26 923.52,-198.51"/>
<polygon fill="midnightblue" stroke="midnightblue" points="680.86,-235.86 671.58,-240.98 682.02,-242.76 680.86,-235.86"/>
</g>
<!-- Node15&#45;&gt;Node10 -->
<g id="edge24" class="edge">
<title>Node15&#45;&gt;Node10</title>
<path fill="none" stroke="midnightblue" d="M269.8,-372.49C224.55,-361.22 154.22,-343.71 106.01,-331.7"/>
<polygon fill="midnightblue" stroke="midnightblue" points="269.06,-375.92 279.61,-374.94 270.75,-369.12 269.06,-375.92"/>
</g>
<!-- Node15&#45;&gt;Node13 -->
<g id="edge26" class="edge">
<title>Node15&#45;&gt;Node13</title>
<path fill="none" stroke="midnightblue" d="M349.15,-371.6C387.21,-358.71 447,-338.47 480.7,-327.06"/>
<polygon fill="midnightblue" stroke="midnightblue" points="347.85,-368.35 339.5,-374.87 350.09,-374.98 347.85,-368.35"/>
</g>
<!-- Node16 -->
<g id="node16" class="node">
<title>Node16</title>
<g id="a_node16"><a xlink:href="src_2apps_2js__v8_2tmpl_2receipt_8h.html" target="_top" xlink:title=" ">
<polygon fill="white" stroke="black" points="124.5,-302.5 124.5,-332.5 235.5,-332.5 235.5,-302.5 124.5,-302.5"/>
<text text-anchor="start" x="132.5" y="-320.5" font-family="Helvetica,sans-Serif" font-size="10.00">src/apps/js_v8/tmpl</text>
<text text-anchor="middle" x="180" y="-309.5" font-family="Helvetica,sans-Serif" font-size="10.00">/receipt.h</text>
</a>
</g>
</g>
<!-- Node15&#45;&gt;Node16 -->
<g id="edge21" class="edge">
<title>Node15&#45;&gt;Node16</title>
<path fill="none" stroke="midnightblue" d="M287.15,-370.47C264.49,-359.49 232.14,-343.79 208.92,-332.53"/>
<polygon fill="midnightblue" stroke="midnightblue" points="285.68,-373.65 296.21,-374.87 288.74,-367.35 285.68,-373.65"/>
</g>
<!-- Node19 -->
<g id="node19" class="node">
<title>Node19</title>
<g id="a_node19"><a xlink:href="historical__queries__adapter_8cpp.html" target="_top" xlink:title=" ">
<polygon fill="white" stroke="black" points="254,-302.5 254,-332.5 374,-332.5 374,-302.5 254,-302.5"/>
<text text-anchor="start" x="262" y="-320.5" font-family="Helvetica,sans-Serif" font-size="10.00">src/node/historical</text>
<text text-anchor="middle" x="314" y="-309.5" font-family="Helvetica,sans-Serif" font-size="10.00">_queries_adapter.cpp</text>
</a>
</g>
</g>
<!-- Node15&#45;&gt;Node19 -->
<g id="edge25" class="edge">
<title>Node15&#45;&gt;Node19</title>
<path fill="none" stroke="midnightblue" d="M314,-364.41C314,-354.22 314,-341.9 314,-332.59"/>
<polygon fill="midnightblue" stroke="midnightblue" points="310.5,-364.73 314,-374.73 317.5,-364.73 310.5,-364.73"/>
</g>
<!-- Node17 -->
<g id="node17" class="node">
<title>Node17</title>
<g id="a_node17"><a xlink:href="historical__state_8cpp.html" target="_top" xlink:title=" ">
<polygon fill="white" stroke="black" points="121.5,-235.5 121.5,-265.5 236.5,-265.5 236.5,-235.5 121.5,-235.5"/>
<text text-anchor="start" x="129.5" y="-253.5" font-family="Helvetica,sans-Serif" font-size="10.00">src/apps/js_v8/tmpl</text>
<text text-anchor="middle" x="179" y="-242.5" font-family="Helvetica,sans-Serif" font-size="10.00">/historical_state.cpp</text>
</a>
</g>
</g>
<!-- Node16&#45;&gt;Node17 -->
<g id="edge22" class="edge">
<title>Node16&#45;&gt;Node17</title>
<path fill="none" stroke="midnightblue" d="M179.62,-292.11C179.49,-283.15 179.34,-273.32 179.22,-265.58"/>
<polygon fill="midnightblue" stroke="midnightblue" points="176.13,-292.45 179.78,-302.4 183.13,-292.34 176.13,-292.45"/>
</g>
<!-- Node18 -->
<g id="node18" class="node">
<title>Node18</title>
<g id="a_node18"><a xlink:href="receipt_8cpp.html" target="_top" xlink:title=" ">
<polygon fill="white" stroke="black" points="254.5,-235.5 254.5,-265.5 365.5,-265.5 365.5,-235.5 254.5,-235.5"/>
<text text-anchor="start" x="262.5" y="-253.5" font-family="Helvetica,sans-Serif" font-size="10.00">src/apps/js_v8/tmpl</text>
<text text-anchor="middle" x="310" y="-242.5" font-family="Helvetica,sans-Serif" font-size="10.00">/receipt.cpp</text>
</a>
</g>
</g>
<!-- Node16&#45;&gt;Node18 -->
<g id="edge23" class="edge">
<title>Node16&#45;&gt;Node18</title>
<path fill="none" stroke="midnightblue" d="M217.29,-297.85C237.85,-287.58 262.95,-275.03 281.85,-265.58"/>
<polygon fill="midnightblue" stroke="midnightblue" points="215.59,-294.79 208.21,-302.4 218.72,-301.05 215.59,-294.79"/>
</g>
<!-- Node20&#45;&gt;Node5 -->
<g id="edge28" class="edge">
<title>Node20&#45;&gt;Node5</title>
<path fill="none" stroke="midnightblue" d="M1040.23,-370.56C1023.69,-362.31 1004.88,-349.95 994,-333 965.84,-289.12 970.24,-222.14 972.88,-198.57"/>
<polygon fill="midnightblue" stroke="midnightblue" points="1039.09,-373.89 1049.63,-374.95 1042.05,-367.55 1039.09,-373.89"/>
</g>
<!-- Node21 -->
<g id="node21" class="node">
<title>Node21</title>
<g id="a_node21"><a xlink:href="member__frontend_8h.html" target="_top" xlink:title=" ">
<polygon fill="white" stroke="black" points="2176,-235.5 2176,-265.5 2296,-265.5 2296,-235.5 2176,-235.5"/>
<text text-anchor="start" x="2184" y="-253.5" font-family="Helvetica,sans-Serif" font-size="10.00">src/node/rpc/member</text>
<text text-anchor="middle" x="2236" y="-242.5" font-family="Helvetica,sans-Serif" font-size="10.00">_frontend.h</text>
</a>
</g>
</g>
<!-- Node20&#45;&gt;Node21 -->
<g id="edge29" class="edge">
<title>Node20&#45;&gt;Node21</title>
<path fill="none" stroke="midnightblue" d="M1121.13,-373.05C1129.71,-371.48 1138.6,-370.04 1147,-369 1450.89,-331.47 1531.25,-371.6 1835,-333 1959.56,-317.17 2103.28,-284.35 2180.32,-265.54"/>
<polygon fill="midnightblue" stroke="midnightblue" points="1120.41,-369.62 1111.24,-374.94 1121.72,-376.5 1120.41,-369.62"/>
</g>
<!-- Node22 -->
<g id="node22" class="node">
<title>Node22</title>
<g id="a_node22"><a xlink:href="node__frontend_8h.html" target="_top" xlink:title=" ">
<polygon fill="white" stroke="black" points="1174,-308 1174,-327 1332,-327 1332,-308 1174,-308"/>
<text text-anchor="middle" x="1253" y="-315" font-family="Helvetica,sans-Serif" font-size="10.00">src/node/rpc/node_frontend.h</text>
</a>
</g>
</g>
<!-- Node20&#45;&gt;Node22 -->
<g id="edge31" class="edge">
<title>Node20&#45;&gt;Node22</title>
<path fill="none" stroke="midnightblue" d="M1106.41,-371.44C1142.12,-358.54 1197.83,-338.42 1229.29,-327.06"/>
<polygon fill="midnightblue" stroke="midnightblue" points="1105.12,-368.18 1096.9,-374.87 1107.5,-374.76 1105.12,-368.18"/>
</g>
<!-- Node24 -->
<g id="node24" class="node">
<title>Node24</title>
<g id="a_node24"><a xlink:href="user__frontend_8h.html" target="_top" xlink:title=" ">
<polygon fill="white" stroke="black" points="752.5,-308 752.5,-327 907.5,-327 907.5,-308 752.5,-308"/>
<text text-anchor="middle" x="830" y="-315" font-family="Helvetica,sans-Serif" font-size="10.00">src/node/rpc/user_frontend.h</text>
</a>
</g>
</g>
<!-- Node20&#45;&gt;Node24 -->
<g id="edge35" class="edge">
<title>Node20&#45;&gt;Node24</title>
<path fill="none" stroke="midnightblue" d="M1031.22,-372.32C983.23,-359.49 905.56,-338.71 862.09,-327.08"/>
<polygon fill="midnightblue" stroke="midnightblue" points="1030.42,-375.73 1040.98,-374.94 1032.23,-368.97 1030.42,-375.73"/>
</g>
<!-- Node21&#45;&gt;Node6 -->
<g id="edge30" class="edge">
<title>Node21&#45;&gt;Node6</title>
<path fill="none" stroke="midnightblue" d="M2230.85,-225.53C2222.53,-193.36 2202.75,-137.32 2162,-112 2109.38,-79.3 1183.58,-69.5 935.01,-67.45"/>
<polygon fill="midnightblue" stroke="midnightblue" points="2227.5,-226.55 2233.25,-235.45 2234.3,-224.91 2227.5,-226.55"/>
</g>
<!-- Node22&#45;&gt;Node6 -->
<g id="edge32" class="edge">
<title>Node22&#45;&gt;Node6</title>
<path fill="none" stroke="midnightblue" d="M1239.33,-299.88C1224.56,-282.5 1199.78,-255.01 1175,-235 1093.82,-169.44 1067.31,-160.67 975,-112 948.17,-97.85 915.99,-84.03 895.28,-75.52"/>
<polygon fill="midnightblue" stroke="midnightblue" points="1236.99,-302.53 1246.1,-307.95 1242.36,-298.04 1236.99,-302.53"/>
</g>
<!-- Node23 -->
<g id="node23" class="node">
<title>Node23</title>
<g id="a_node23"><a xlink:href="jwt__key__auto__refresh_8h.html" target="_top" xlink:title=" ">
<polygon fill="white" stroke="black" points="1040.5,-235.5 1040.5,-265.5 1165.5,-265.5 1165.5,-235.5 1040.5,-235.5"/>
<text text-anchor="start" x="1048.5" y="-253.5" font-family="Helvetica,sans-Serif" font-size="10.00">src/node/jwt_key_auto</text>
<text text-anchor="middle" x="1103" y="-242.5" font-family="Helvetica,sans-Serif" font-size="10.00">_refresh.h</text>
</a>
</g>
</g>
<!-- Node22&#45;&gt;Node23 -->
<g id="edge33" class="edge">
<title>Node22&#45;&gt;Node23</title>
<path fill="none" stroke="midnightblue" d="M1223.62,-303.77C1198.23,-292.77 1161.6,-276.89 1135.37,-265.53"/>
<polygon fill="midnightblue" stroke="midnightblue" points="1222.51,-307.1 1233.08,-307.87 1225.3,-300.68 1222.51,-307.1"/>
</g>
<!-- Node23&#45;&gt;Node5 -->
<g id="edge34" class="edge">
<title>Node23&#45;&gt;Node5</title>
<path fill="none" stroke="midnightblue" d="M1063.07,-231.08C1039.64,-220.28 1011.12,-207.12 992.77,-198.66"/>
<polygon fill="midnightblue" stroke="midnightblue" points="1061.88,-234.39 1072.43,-235.4 1064.81,-228.03 1061.88,-234.39"/>
</g>
<!-- Node24&#45;&gt;Node6 -->
<g id="edge36" class="edge">
<title>Node24&#45;&gt;Node6</title>
<path fill="none" stroke="midnightblue" d="M819.38,-298.89C798.45,-261.66 756.89,-173.37 793,-112 803.77,-93.7 824.97,-82.31 842.98,-75.56"/>
<polygon fill="midnightblue" stroke="midnightblue" points="816.38,-300.7 824.43,-307.59 822.44,-297.18 816.38,-300.7"/>
</g>
<!-- Node26 -->
<g id="node26" class="node">
<title>Node26</title>
<g id="a_node26"><a xlink:href="kv__module__loader_8cpp.html" target="_top" xlink:title=" ">
<polygon fill="white" stroke="black" points="1155.5,-369.5 1155.5,-399.5 1298.5,-399.5 1298.5,-369.5 1155.5,-369.5"/>
<text text-anchor="start" x="1163.5" y="-387.5" font-family="Helvetica,sans-Serif" font-size="10.00">src/apps/js_v8/kv_module</text>
<text text-anchor="middle" x="1227" y="-376.5" font-family="Helvetica,sans-Serif" font-size="10.00">_loader.cpp</text>
</a>
</g>
</g>
<!-- Node25&#45;&gt;Node26 -->
<g id="edge38" class="edge">
<title>Node25&#45;&gt;Node26</title>
<path fill="none" stroke="midnightblue" d="M986.35,-436.45C1037.9,-425.54 1109.08,-410.47 1160.64,-399.55"/>
<polygon fill="midnightblue" stroke="midnightblue" points="985.37,-433.08 976.31,-438.58 986.82,-439.93 985.37,-433.08"/>
</g>
<!-- Node27 -->
<g id="node27" class="node">
<title>Node27</title>
<g id="a_node27"><a xlink:href="network__state_8h.html" target="_top" xlink:title=" ">
<polygon fill="white" stroke="black" points="850,-375 850,-394 990,-394 990,-375 850,-375"/>
<text text-anchor="middle" x="920" y="-382" font-family="Helvetica,sans-Serif" font-size="10.00">src/node/network_state.h</text>
</a>
</g>
</g>
<!-- Node25&#45;&gt;Node27 -->
<g id="edge39" class="edge">
<title>Node25&#45;&gt;Node27</title>
<path fill="none" stroke="midnightblue" d="M920,-426.25C920,-415.02 920,-402.38 920,-394.19"/>
<polygon fill="midnightblue" stroke="midnightblue" points="916.5,-426.4 920,-436.4 923.5,-426.4 916.5,-426.4"/>
</g>
<!-- Node38 -->
<g id="node38" class="node">
<title>Node38</title>
<g id="a_node38"><a xlink:href="genesis__gen_8h.html" target="_top" xlink:title=" ">
<polygon fill="white" stroke="black" points="1342,-369.5 1342,-399.5 1452,-399.5 1452,-369.5 1342,-369.5"/>
<text text-anchor="start" x="1350" y="-387.5" font-family="Helvetica,sans-Serif" font-size="10.00">src/service/genesis</text>
<text text-anchor="middle" x="1397" y="-376.5" font-family="Helvetica,sans-Serif" font-size="10.00">_gen.h</text>
</a>
</g>
</g>
<!-- Node25&#45;&gt;Node38 -->
<g id="edge65" class="edge">
<title>Node25&#45;&gt;Node38</title>
<path fill="none" stroke="midnightblue" d="M986.38,-442.52C1063.71,-433.07 1195.27,-416.51 1308,-400 1319,-398.39 1330.74,-396.56 1341.97,-394.75"/>
<polygon fill="midnightblue" stroke="midnightblue" points="985.8,-439.06 976.3,-443.75 986.65,-446.01 985.8,-439.06"/>
</g>
<!-- Node27&#45;&gt;Node5 -->
<g id="edge56" class="edge">
<title>Node27&#45;&gt;Node5</title>
<path fill="none" stroke="midnightblue" d="M924.81,-364.71C932.11,-336.46 946.53,-281.43 960,-235 963.69,-222.27 968.32,-207.63 971.22,-198.6"/>
<polygon fill="midnightblue" stroke="midnightblue" points="921.33,-364.21 922.23,-374.76 928.11,-365.95 921.33,-364.21"/>
</g>
<!-- Node27&#45;&gt;Node6 -->
<g id="edge40" class="edge">
<title>Node27&#45;&gt;Node6</title>
<path fill="none" stroke="midnightblue" d="M839.79,-378.04C806.02,-371.73 768.87,-358.86 744,-333 718.14,-306.12 724,-288.8 724,-251.5 724,-251.5 724,-251.5 724,-188 724,-126.27 801.91,-90.67 845.43,-75.6"/>
<polygon fill="midnightblue" stroke="midnightblue" points="839.23,-381.5 849.67,-379.73 840.4,-374.6 839.23,-381.5"/>
</g>
<!-- Node27&#45;&gt;Node14 -->
<g id="edge64" class="edge">
<title>Node27&#45;&gt;Node14</title>
<path fill="none" stroke="midnightblue" d="M839.84,-373.96C799.18,-366.75 750.07,-354.31 710,-333 674.11,-313.92 641.51,-276.95 627.82,-260.17"/>
<polygon fill="midnightblue" stroke="midnightblue" points="839.27,-377.41 849.71,-375.63 840.44,-370.51 839.27,-377.41"/>
</g>
<!-- Node27&#45;&gt;Node22 -->
<g id="edge57" class="edge">
<title>Node27&#45;&gt;Node22</title>
<path fill="none" stroke="midnightblue" d="M974.01,-372.96C1039.55,-360.16 1148.78,-338.84 1209.29,-327.03"/>
<polygon fill="midnightblue" stroke="midnightblue" points="973.02,-369.58 963.88,-374.94 974.36,-376.45 973.02,-369.58"/>
</g>
<!-- Node27&#45;&gt;Node24 -->
<g id="edge58" class="edge">
<title>Node27&#45;&gt;Node24</title>
<path fill="none" stroke="midnightblue" d="M899.32,-368.57C881.56,-355.74 856.56,-337.69 841.95,-327.13"/>
<polygon fill="midnightblue" stroke="midnightblue" points="897.71,-371.72 907.86,-374.73 901.8,-366.04 897.71,-371.72"/>
</g>
<!-- Node28 -->
<g id="node28" class="node">
<title>Node28</title>
<g id="a_node28"><a xlink:href="wrap_8h.html" target="_top" xlink:title=" ">
<polygon fill="white" stroke="black" points="1748,-308 1748,-327 1826,-327 1826,-308 1748,-308"/>
<text text-anchor="middle" x="1787" y="-315" font-family="Helvetica,sans-Serif" font-size="10.00">src/js/wrap.h</text>
</a>
</g>
</g>
<!-- Node27&#45;&gt;Node28 -->
<g id="edge41" class="edge">
<title>Node27&#45;&gt;Node28</title>
<path fill="none" stroke="midnightblue" d="M971.78,-373.22C981.15,-371.61 990.84,-370.12 1000,-369 1147.28,-350.99 1609.34,-327.28 1747.56,-320.43"/>
<polygon fill="midnightblue" stroke="midnightblue" points="971.03,-369.79 961.8,-374.99 972.25,-376.69 971.03,-369.79"/>
</g>
<!-- Node36 -->
<g id="node36" class="node">
<title>Node36</title>
<g id="a_node36"><a xlink:href="secret__broadcast_8h.html" target="_top" xlink:title=" ">
<polygon fill="white" stroke="black" points="1002.5,-308 1002.5,-327 1155.5,-327 1155.5,-308 1002.5,-308"/>
<text text-anchor="middle" x="1079" y="-315" font-family="Helvetica,sans-Serif" font-size="10.00">src/node/secret_broadcast.h</text>
</a>
</g>
</g>
<!-- Node27&#45;&gt;Node36 -->
<g id="edge59" class="edge">
<title>Node27&#45;&gt;Node36</title>
<path fill="none" stroke="midnightblue" d="M950.73,-370.94C982.31,-358.03 1030.62,-338.28 1058.05,-327.06"/>
<polygon fill="midnightblue" stroke="midnightblue" points="949.05,-367.84 941.11,-374.87 951.69,-374.32 949.05,-367.84"/>
</g>
<!-- Node37 -->
<g id="node37" class="node">
<title>Node37</title>
<g id="a_node37"><a xlink:href="share__manager_8h.html" target="_top" xlink:title=" ">
<polygon fill="white" stroke="black" points="1350.5,-308 1350.5,-327 1495.5,-327 1495.5,-308 1350.5,-308"/>
<text text-anchor="middle" x="1423" y="-315" font-family="Helvetica,sans-Serif" font-size="10.00">src/node/share_manager.h</text>
</a>
</g>
</g>
<!-- Node27&#45;&gt;Node37 -->
<g id="edge61" class="edge">
<title>Node27&#45;&gt;Node37</title>
<path fill="none" stroke="midnightblue" d="M973.97,-373.16C982.66,-371.65 991.56,-370.21 1000,-369 1150.86,-347.4 1190.1,-354.28 1341,-333 1353.02,-331.3 1365.99,-329.16 1377.98,-327.04"/>
<polygon fill="midnightblue" stroke="midnightblue" points="973.15,-369.75 963.92,-374.94 974.37,-376.64 973.15,-369.75"/>
</g>
<!-- Node28&#45;&gt;Node5 -->
<g id="edge54" class="edge">
<title>Node28&#45;&gt;Node5</title>
<path fill="none" stroke="midnightblue" d="M1737.84,-314.27C1635.13,-309.1 1401.13,-294.5 1327,-266 1305.01,-257.55 1305.84,-243.83 1284,-235 1202.58,-202.06 1100.51,-192.77 1036.26,-190.4"/>
<polygon fill="midnightblue" stroke="midnightblue" points="1737.79,-317.77 1747.95,-314.77 1738.14,-310.78 1737.79,-317.77"/>
</g>
<!-- Node28&#45;&gt;Node6 -->
<g id="edge43" class="edge">
<title>Node28&#45;&gt;Node6</title>
<path fill="none" stroke="midnightblue" d="M1819.78,-304.91C1823.53,-303.82 1827.33,-302.82 1831,-302 1963.5,-272.47 2207.22,-345.95 2129,-235 2059.14,-135.9 1177.57,-82.84 935.27,-70.06"/>
<polygon fill="midnightblue" stroke="midnightblue" points="1818.55,-301.63 1810.05,-307.95 1820.64,-308.31 1818.55,-301.63"/>
</g>
<!-- Node28&#45;&gt;Node21 -->
<g id="edge55" class="edge">
<title>Node28&#45;&gt;Node21</title>
<path fill="none" stroke="midnightblue" d="M1836.37,-310.8C1908.22,-302.3 2045.71,-285.21 2162,-266 2166.52,-265.25 2171.19,-264.44 2175.88,-263.59"/>
<polygon fill="midnightblue" stroke="midnightblue" points="1835.78,-307.35 1826.26,-312 1836.6,-314.3 1835.78,-307.35"/>
</g>
<!-- Node29 -->
<g id="node29" class="node">
<title>Node29</title>
<g id="a_node29"><a xlink:href="js__generic__base_8cpp.html" target="_top" xlink:title=" ">
<polygon fill="white" stroke="black" points="1482,-235.5 1482,-265.5 1600,-265.5 1600,-235.5 1482,-235.5"/>
<text text-anchor="start" x="1490" y="-253.5" font-family="Helvetica,sans-Serif" font-size="10.00">src/apps/js_generic</text>
<text text-anchor="middle" x="1541" y="-242.5" font-family="Helvetica,sans-Serif" font-size="10.00">/js_generic_base.cpp</text>
</a>
</g>
</g>
<!-- Node28&#45;&gt;Node29 -->
<g id="edge42" class="edge">
<title>Node28&#45;&gt;Node29</title>
<path fill="none" stroke="midnightblue" d="M1744.76,-305.34C1703.1,-294.33 1639.3,-277.47 1594.21,-265.56"/>
<polygon fill="midnightblue" stroke="midnightblue" points="1744.02,-308.76 1754.59,-307.94 1745.81,-302 1744.02,-308.76"/>
</g>
<!-- Node30 -->
<g id="node30" class="node">
<title>Node30</title>
<g id="a_node30"><a xlink:href="js_2consensus_8cpp.html" target="_top" xlink:title=" ">
<polygon fill="white" stroke="black" points="1860,-241 1860,-260 1976,-260 1976,-241 1860,-241"/>
<text text-anchor="middle" x="1918" y="-248" font-family="Helvetica,sans-Serif" font-size="10.00">src/js/consensus.cpp</text>
</a>
</g>
</g>
<!-- Node28&#45;&gt;Node30 -->
<g id="edge44" class="edge">
<title>Node28&#45;&gt;Node30</title>
<path fill="none" stroke="midnightblue" d="M1813.66,-303.27C1839.6,-290.4 1878.28,-271.21 1900.53,-260.17"/>
<polygon fill="midnightblue" stroke="midnightblue" points="1811.8,-300.29 1804.4,-307.87 1814.91,-306.56 1811.8,-300.29"/>
</g>
<!-- Node31 -->
<g id="node31" class="node">
<title>Node31</title>
<g id="a_node31"><a xlink:href="wrap_8cpp.html" target="_top" xlink:title=" ">
<polygon fill="white" stroke="black" points="1873.5,-179.5 1873.5,-198.5 1962.5,-198.5 1962.5,-179.5 1873.5,-179.5"/>
<text text-anchor="middle" x="1918" y="-186.5" font-family="Helvetica,sans-Serif" font-size="10.00">src/js/wrap.cpp</text>
</a>
</g>
</g>
<!-- Node28&#45;&gt;Node31 -->
<g id="edge53" class="edge">
<title>Node28&#45;&gt;Node31</title>
<path fill="none" stroke="midnightblue" d="M1836.57,-310.78C1889.1,-303.57 1966.94,-289.24 1985,-266 1993.45,-255.12 1991.48,-247.16 1985,-235 1975.71,-217.56 1956.33,-205.68 1940.79,-198.53"/>
<polygon fill="midnightblue" stroke="midnightblue" points="1835.88,-307.34 1826.43,-312.12 1836.8,-314.28 1835.88,-307.34"/>
</g>
<!-- Node32 -->
<g id="node32" class="node">
<title>Node32</title>
<g id="a_node32"><a xlink:href="conv_8cpp.html" target="_top" xlink:title=" ">
<polygon fill="white" stroke="black" points="2032,-241 2032,-260 2120,-260 2120,-241 2032,-241"/>
<text text-anchor="middle" x="2076" y="-248" font-family="Helvetica,sans-Serif" font-size="10.00">src/js/conv.cpp</text>
</a>
</g>
</g>
<!-- Node28&#45;&gt;Node32 -->
<g id="edge46" class="edge">
<title>Node28&#45;&gt;Node32</title>
<path fill="none" stroke="midnightblue" d="M1836.2,-306.19C1883.03,-296.27 1955.44,-280.65 2018,-266 2025.98,-264.13 2034.56,-262.03 2042.61,-260.03"/>
<polygon fill="midnightblue" stroke="midnightblue" points="1835.38,-302.78 1826.32,-308.28 1836.83,-309.63 1835.38,-302.78"/>
</g>
<!-- Node33 -->
<g id="node33" class="node">
<title>Node33</title>
<g id="a_node33"><a xlink:href="js_2crypto_8cpp.html" target="_top" xlink:title=" ">
<polygon fill="white" stroke="black" points="1618,-241 1618,-260 1714,-260 1714,-241 1618,-241"/>
<text text-anchor="middle" x="1666" y="-248" font-family="Helvetica,sans-Serif" font-size="10.00">src/js/crypto.cpp</text>
</a>
</g>
</g>
<!-- Node28&#45;&gt;Node33 -->
<g id="edge48" class="edge">
<title>Node28&#45;&gt;Node33</title>
<path fill="none" stroke="midnightblue" d="M1761.79,-302.96C1737.8,-290.07 1702.44,-271.07 1682.06,-260.13"/>
<polygon fill="midnightblue" stroke="midnightblue" points="1760.22,-306.08 1770.68,-307.73 1763.53,-299.92 1760.22,-306.08"/>
</g>
<!-- Node34 -->
<g id="node34" class="node">
<title>Node34</title>
<g id="a_node34"><a xlink:href="js_2historical_8cpp.html" target="_top" xlink:title=" ">
<polygon fill="white" stroke="black" points="1732,-241 1732,-260 1842,-260 1842,-241 1732,-241"/>
<text text-anchor="middle" x="1787" y="-248" font-family="Helvetica,sans-Serif" font-size="10.00">src/js/historical.cpp</text>
</a>
</g>
</g>
<!-- Node28&#45;&gt;Node34 -->
<g id="edge50" class="edge">
<title>Node28&#45;&gt;Node34</title>
<path fill="none" stroke="midnightblue" d="M1787,-297.54C1787,-285.17 1787,-269.62 1787,-260.13"/>
<polygon fill="midnightblue" stroke="midnightblue" points="1783.5,-297.73 1787,-307.73 1790.5,-297.73 1783.5,-297.73"/>
</g>
<!-- Node35 -->
<g id="node35" class="node">
<title>Node35</title>
<g id="a_node35"><a xlink:href="openenclave_8cpp.html" target="_top" xlink:title=" ">
<polygon fill="white" stroke="black" points="1336,-241 1336,-260 1464,-260 1464,-241 1336,-241"/>
<text text-anchor="middle" x="1400" y="-248" font-family="Helvetica,sans-Serif" font-size="10.00">src/js/openenclave.cpp</text>
</a>
</g>
</g>
<!-- Node28&#45;&gt;Node35 -->
<g id="edge52" class="edge">
<title>Node28&#45;&gt;Node35</title>
<path fill="none" stroke="midnightblue" d="M1737.5,-309.11C1675.54,-299.73 1566.24,-282.75 1473,-266 1462.83,-264.17 1451.88,-262.07 1441.64,-260.04"/>
<polygon fill="midnightblue" stroke="midnightblue" points="1737.35,-312.63 1747.76,-310.66 1738.39,-305.71 1737.35,-312.63"/>
</g>
<!-- Node30&#45;&gt;Node31 -->
<g id="edge45" class="edge">
<title>Node30&#45;&gt;Node31</title>
<path fill="none" stroke="midnightblue" d="M1918,-230.82C1918,-220 1918,-206.9 1918,-198.51"/>
<polygon fill="midnightblue" stroke="midnightblue" points="1914.5,-230.98 1918,-240.98 1921.5,-230.98 1914.5,-230.98"/>
</g>
<!-- Node32&#45;&gt;Node31 -->
<g id="edge47" class="edge">
<title>Node32&#45;&gt;Node31</title>
<path fill="none" stroke="midnightblue" d="M2043.96,-237.43C2013.25,-225.87 1967.68,-208.71 1940.6,-198.51"/>
<polygon fill="midnightblue" stroke="midnightblue" points="2042.77,-240.73 2053.36,-240.98 2045.24,-234.18 2042.77,-240.73"/>
</g>
<!-- Node33&#45;&gt;Node31 -->
<g id="edge49" class="edge">
<title>Node33&#45;&gt;Node31</title>
<path fill="none" stroke="midnightblue" d="M1708.83,-238.5C1713.61,-237.3 1718.4,-236.11 1723,-235 1777.36,-221.81 1840.47,-207.42 1879.83,-198.54"/>
<polygon fill="midnightblue" stroke="midnightblue" points="1707.97,-235.1 1699.12,-240.94 1709.68,-241.89 1707.97,-235.1"/>
</g>
<!-- Node34&#45;&gt;Node31 -->
<g id="edge51" class="edge">
<title>Node34&#45;&gt;Node31</title>
<path fill="none" stroke="midnightblue" d="M1814.9,-236.83C1840.33,-225.28 1877.2,-208.53 1899.27,-198.51"/>
<polygon fill="midnightblue" stroke="midnightblue" points="1813.43,-233.65 1805.77,-240.98 1816.32,-240.03 1813.43,-233.65"/>
</g>
<!-- Node36&#45;&gt;Node5 -->
<g id="edge60" class="edge">
<title>Node36&#45;&gt;Node5</title>
<path fill="none" stroke="midnightblue" d="M1063.28,-300.42C1053.94,-290.68 1042.01,-277.87 1032,-266 1012.1,-242.4 990.5,-212.97 980.17,-198.65"/>
<polygon fill="midnightblue" stroke="midnightblue" points="1060.94,-303.04 1070.41,-307.8 1065.98,-298.18 1060.94,-303.04"/>
</g>
<!-- Node37&#45;&gt;Node5 -->
<g id="edge62" class="edge">
<title>Node37&#45;&gt;Node5</title>
<path fill="none" stroke="midnightblue" d="M1382.3,-305.08C1348.32,-295.33 1298.72,-280.61 1256,-266 1219.53,-253.52 1211.9,-246.13 1175,-235 1123.13,-219.36 1062.26,-206.47 1021.21,-198.55"/>
<polygon fill="midnightblue" stroke="midnightblue" points="1381.74,-308.56 1392.32,-307.94 1383.66,-301.83 1381.74,-308.56"/>
</g>
<!-- Node37&#45;&gt;Node21 -->
<g id="edge63" class="edge">
<title>Node37&#45;&gt;Node21</title>
<path fill="none" stroke="midnightblue" d="M1505.58,-312.29C1637.54,-305.19 1904,-289.27 2129,-266 2144.2,-264.43 2160.56,-262.39 2175.81,-260.34"/>
<polygon fill="midnightblue" stroke="midnightblue" points="1505.34,-308.8 1495.55,-312.83 1505.72,-315.79 1505.34,-308.8"/>
</g>
<!-- Node38&#45;&gt;Node5 -->
<g id="edge66" class="edge">
<title>Node38&#45;&gt;Node5</title>
<path fill="none" stroke="midnightblue" d="M1451.9,-365.8C1488.9,-351 1527.23,-328.15 1505,-302 1472.77,-264.09 1330.95,-282.47 1284,-266 1257.52,-256.71 1255.42,-244.46 1229,-235 1165.41,-212.22 1088.63,-200.68 1036.04,-195.03"/>
<polygon fill="midnightblue" stroke="midnightblue" points="1450.64,-362.53 1442.56,-369.38 1453.15,-369.07 1450.64,-362.53"/>
</g>
<!-- Node38&#45;&gt;Node21 -->
<g id="edge67" class="edge">
<title>Node38&#45;&gt;Node21</title>
<path fill="none" stroke="midnightblue" d="M1462.28,-380.98C1603.16,-375.13 1931.67,-359.08 2040,-333 2103.42,-317.73 2172.84,-284.62 2209.64,-265.63"/>
<polygon fill="midnightblue" stroke="midnightblue" points="1461.92,-377.5 1452.07,-381.4 1462.2,-384.49 1461.92,-377.5"/>
</g>
<!-- Node38&#45;&gt;Node22 -->
<g id="edge68" class="edge">
<title>Node38&#45;&gt;Node22</title>
<path fill="none" stroke="midnightblue" d="M1356.31,-365.13C1328.59,-352.62 1293.19,-336.64 1271.85,-327.01"/>
<polygon fill="midnightblue" stroke="midnightblue" points="1355.2,-368.47 1365.75,-369.4 1358.08,-362.09 1355.2,-368.47"/>
</g>
<!-- Node38&#45;&gt;Node36 -->
<g id="edge69" class="edge">
<title>Node38&#45;&gt;Node36</title>
<path fill="none" stroke="midnightblue" d="M1332.1,-370.23C1268.84,-357.3 1174.54,-338.03 1120.69,-327.02"/>
<polygon fill="midnightblue" stroke="midnightblue" points="1331.47,-373.68 1341.97,-372.25 1332.88,-366.82 1331.47,-373.68"/>
</g>
<!-- Node38&#45;&gt;Node37 -->
<g id="edge70" class="edge">
<title>Node38&#45;&gt;Node37</title>
<path fill="none" stroke="midnightblue" d="M1406.42,-359.94C1410.98,-348.54 1416.18,-335.55 1419.52,-327.19"/>
<polygon fill="midnightblue" stroke="midnightblue" points="1403.11,-358.81 1402.64,-369.4 1409.61,-361.41 1403.11,-358.81"/>
</g>
</g>
</svg>
        <g id="navigator" transform="translate(0 0)" fill="#404254">
                <rect fill="#f2f5e9" fill-opacity="0.5" stroke="#606060" stroke-width=".5" x="0" y="0" width="60" height="60"/>
                <use id="zoomplus" xlink:href="#zoomPlus" x="17" y="9" onmousedown="handleZoom(evt,'in')"/>
                <use id="zoomminus" xlink:href="#zoomMin" x="42" y="9" onmousedown="handleZoom(evt,'out')"/>
                <use id="reset" xlink:href="#resetDef" x="30" y="36" onmousedown="handleReset()"/>
                <g id="arrowUp" xlink:href="#dirArrow" transform="translate(30 24)" onmousedown="handlePan(0,-1)">
                  <use xlink:href="#rim" fill="#404040">
                        <set attributeName="fill" to="#808080" begin="arrowUp.mouseover" end="arrowUp.mouseout"/>
                  </use>
                  <path fill="none" stroke="white" stroke-width="1.5" d="M0,-3.0v7 M-2.5,-0.5L0,-3.0L2.5,-0.5"/>
                </g>
                <g id="arrowRight" xlink:href="#dirArrow" transform="rotate(90) translate(36 -43)" onmousedown="handlePan(1,0)">
                  <use xlink:href="#rim" fill="#404040">
                        <set attributeName="fill" to="#808080" begin="arrowRight.mouseover" end="arrowRight.mouseout"/>
                  </use>
                  <path fill="none" stroke="white" stroke-width="1.5" d="M0,-3.0v7 M-2.5,-0.5L0,-3.0L2.5,-0.5"/>
                </g>
                <g id="arrowDown" xlink:href="#dirArrow" transform="rotate(180) translate(-30 -48)" onmousedown="handlePan(0,1)">
                  <use xlink:href="#rim" fill="#404040">
                        <set attributeName="fill" to="#808080" begin="arrowDown.mouseover" end="arrowDown.mouseout"/>
                  </use>
                  <path fill="none" stroke="white" stroke-width="1.5" d="M0,-3.0v7 M-2.5,-0.5L0,-3.0L2.5,-0.5"/>
                </g>
                <g id="arrowLeft" xlink:href="#dirArrow" transform="rotate(270) translate(-36 17)" onmousedown="handlePan(-1,0)">
                  <use xlink:href="#rim" fill="#404040">
                        <set attributeName="fill" to="#808080" begin="arrowLeft.mouseover" end="arrowLeft.mouseout"/>
                  </use>
                  <path fill="none" stroke="white" stroke-width="1.5" d="M0,-3.0v7 M-2.5,-0.5L0,-3.0L2.5,-0.5"/>
                </g>
        </g>
        <svg viewBox="0 0 15 15" width="100%" height="30px" preserveAspectRatio="xMaxYMin meet">
         <g id="arrow_out" transform="scale(0.3 0.3)">
          <a xlink:href="snapshot__evidence_8h__dep__incl_org.svg" target="_base">
           <rect id="button" ry="5" rx="5" y="6" x="6" height="38" width="38"
                fill="#f2f5e9" fill-opacity="0.5" stroke="#606060" stroke-width="1.0"/>
           <path id="arrow"
             d="M 11.500037,31.436501 C 11.940474,20.09759 22.043105,11.32322 32.158766,21.979434 L 37.068811,17.246167 C 37.068811,17.246167 37.088388,32 37.088388,32 L 22.160133,31.978069 C 22.160133,31.978069 26.997745,27.140456 26.997745,27.140456 C 18.528582,18.264221 13.291696,25.230495 11.500037,31.436501 z"
             style="fill:#404040;"/>
          </a>
         </g>
        </svg>
</svg>
