<?xml version="1.0" encoding="UTF-8" standalone="no"?>
<!DOCTYPE svg PUBLIC "-//W3C//DTD SVG 1.1//EN"
 "http://www.w3.org/Graphics/SVG/1.1/DTD/svg11.dtd">
<!-- Generated by graphviz version 2.43.0 (0)
 -->
<!-- Title: src/enclave/endpoint.h Pages: 1 -->
<svg width="1268pt" height="934pt"
 viewBox="0.00 0.00 1268.00 934.00" xmlns="http://www.w3.org/2000/svg" xmlns:xlink="http://www.w3.org/1999/xlink">
<g id="graph0" class="graph" transform="scale(1 1) rotate(0) translate(4 930)">
<title>src/enclave/endpoint.h</title>
<polygon fill="white" stroke="transparent" points="-4,4 -4,-930 1264,-930 1264,4 -4,4"/>
<!-- Node1 -->
<g id="node1" class="node">
<title>Node1</title>
<g id="a_node1"><a xlink:title=" ">
<polygon fill="#bfbfbf" stroke="black" points="497,-906.5 497,-925.5 624,-925.5 624,-906.5 497,-906.5"/>
<text text-anchor="middle" x="560.5" y="-913.5" font-family="Helvetica,sans-Serif" font-size="10.00">src/enclave/endpoint.h</text>
</a>
</g>
</g>
<!-- Node2 -->
<g id="node2" class="node">
<title>Node2</title>
<g id="a_node2"><a xlink:href="tls__endpoint_8h.html" target="_top" xlink:title=" ">
<polygon fill="white" stroke="black" points="488.5,-850.5 488.5,-869.5 632.5,-869.5 632.5,-850.5 488.5,-850.5"/>
<text text-anchor="middle" x="560.5" y="-857.5" font-family="Helvetica,sans-Serif" font-size="10.00">src/enclave/tls_endpoint.h</text>
</a>
</g>
</g>
<!-- Node1&#45;&gt;Node2 -->
<g id="edge1" class="edge">
<title>Node1&#45;&gt;Node2</title>
<path fill="none" stroke="midnightblue" d="M560.5,-895.8C560.5,-886.91 560.5,-876.78 560.5,-869.75"/>
<polygon fill="midnightblue" stroke="midnightblue" points="557,-896.08 560.5,-906.08 564,-896.08 557,-896.08"/>
</g>
<!-- Node3 -->
<g id="node3" class="node">
<title>Node3</title>
<g id="a_node3"><a xlink:href="http__parser_8h.html" target="_top" xlink:title=" ">
<polygon fill="white" stroke="black" points="500.5,-738.5 500.5,-757.5 620.5,-757.5 620.5,-738.5 500.5,-738.5"/>
<text text-anchor="middle" x="560.5" y="-745.5" font-family="Helvetica,sans-Serif" font-size="10.00">src/http/http_parser.h</text>
</a>
</g>
</g>
<!-- Node2&#45;&gt;Node3 -->
<g id="edge2" class="edge">
<title>Node2&#45;&gt;Node3</title>
<path fill="none" stroke="midnightblue" d="M549.08,-841.44C544.52,-833.42 539.81,-823.58 537.5,-814 532.51,-793.28 545.58,-769.95 554.01,-757.66"/>
<polygon fill="midnightblue" stroke="midnightblue" points="546.21,-843.46 554.4,-850.19 552.19,-839.83 546.21,-843.46"/>
</g>
<!-- Node32 -->
<g id="node32" class="node">
<title>Node32</title>
<g id="a_node32"><a xlink:href="http__proc_8h.html" target="_top" xlink:title=" ">
<polygon fill="white" stroke="black" points="547,-794.5 547,-813.5 658,-813.5 658,-794.5 547,-794.5"/>
<text text-anchor="middle" x="602.5" y="-801.5" font-family="Helvetica,sans-Serif" font-size="10.00">src/http/http_proc.h</text>
</a>
</g>
</g>
<!-- Node2&#45;&gt;Node32 -->
<g id="edge52" class="edge">
<title>Node2&#45;&gt;Node32</title>
<path fill="none" stroke="midnightblue" d="M573.61,-842.14C580.93,-832.74 589.74,-821.4 595.69,-813.75"/>
<polygon fill="midnightblue" stroke="midnightblue" points="570.81,-840.04 567.44,-850.08 576.34,-844.34 570.81,-840.04"/>
</g>
<!-- Node4 -->
<g id="node4" class="node">
<title>Node4</title>
<g id="a_node4"><a xlink:href="rpc__tls__client_8h.html" target="_top" xlink:title=" ">
<polygon fill="white" stroke="black" points="289,-615.5 289,-645.5 390,-645.5 390,-615.5 289,-615.5"/>
<text text-anchor="start" x="297" y="-633.5" font-family="Helvetica,sans-Serif" font-size="10.00">src/clients/rpc_tls</text>
<text text-anchor="middle" x="339.5" y="-622.5" font-family="Helvetica,sans-Serif" font-size="10.00">_client.h</text>
</a>
</g>
</g>
<!-- Node3&#45;&gt;Node4 -->
<g id="edge3" class="edge">
<title>Node3&#45;&gt;Node4</title>
<path fill="none" stroke="midnightblue" d="M521.68,-735.2C497.65,-727.23 466.52,-715.68 440.5,-702 409.27,-685.58 376.34,-661.04 356.88,-645.67"/>
<polygon fill="midnightblue" stroke="midnightblue" points="520.91,-738.63 531.51,-738.39 523.08,-731.97 520.91,-738.63"/>
</g>
<!-- Node9 -->
<g id="node9" class="node">
<title>Node9</title>
<g id="a_node9"><a xlink:href="http__endpoint_8h.html" target="_top" xlink:title=" ">
<polygon fill="white" stroke="black" points="388,-559.5 388,-578.5 521,-578.5 521,-559.5 388,-559.5"/>
<text text-anchor="middle" x="454.5" y="-566.5" font-family="Helvetica,sans-Serif" font-size="10.00">src/http/http_endpoint.h</text>
</a>
</g>
</g>
<!-- Node3&#45;&gt;Node9 -->
<g id="edge9" class="edge">
<title>Node3&#45;&gt;Node9</title>
<path fill="none" stroke="midnightblue" d="M535.94,-732.97C523.78,-725.08 509.58,-714.35 499.5,-702 467.95,-663.37 458.04,-601.44 455.37,-578.72"/>
<polygon fill="midnightblue" stroke="midnightblue" points="534.4,-736.13 544.74,-738.42 538.09,-730.18 534.4,-736.13"/>
</g>
<!-- Node23 -->
<g id="node23" class="node">
<title>Node23</title>
<g id="a_node23"><a xlink:href="http__jwt_8h.html" target="_top" xlink:title=" ">
<polygon fill="white" stroke="black" points="1024,-682.5 1024,-701.5 1129,-701.5 1129,-682.5 1024,-682.5"/>
<text text-anchor="middle" x="1076.5" y="-689.5" font-family="Helvetica,sans-Serif" font-size="10.00">src/http/http_jwt.h</text>
</a>
</g>
</g>
<!-- Node3&#45;&gt;Node23 -->
<g id="edge33" class="edge">
<title>Node3&#45;&gt;Node23</title>
<path fill="none" stroke="midnightblue" d="M630.86,-739.64C735.59,-728.68 930.18,-708.31 1023.67,-698.53"/>
<polygon fill="midnightblue" stroke="midnightblue" points="630.28,-736.18 620.7,-740.7 631.01,-743.14 630.28,-736.18"/>
</g>
<!-- Node28 -->
<g id="node28" class="node">
<title>Node28</title>
<g id="a_node28"><a xlink:href="http__rpc__context_8h.html" target="_top" xlink:title=" ">
<polygon fill="white" stroke="black" points="656,-621 656,-640 803,-640 803,-621 656,-621"/>
<text text-anchor="middle" x="729.5" y="-628" font-family="Helvetica,sans-Serif" font-size="10.00">src/http/http_rpc_context.h</text>
</a>
</g>
</g>
<!-- Node3&#45;&gt;Node28 -->
<g id="edge42" class="edge">
<title>Node3&#45;&gt;Node28</title>
<path fill="none" stroke="midnightblue" d="M581.85,-732.41C617.42,-708.1 687.76,-660.03 716.65,-640.28"/>
<polygon fill="midnightblue" stroke="midnightblue" points="579.48,-729.79 573.2,-738.32 583.43,-735.57 579.48,-729.79"/>
</g>
<!-- Node30 -->
<g id="node30" class="node">
<title>Node30</title>
<g id="a_node30"><a xlink:href="http__sig_8h.html" target="_top" xlink:title=" ">
<polygon fill="white" stroke="black" points="508.5,-682.5 508.5,-701.5 612.5,-701.5 612.5,-682.5 508.5,-682.5"/>
<text text-anchor="middle" x="560.5" y="-689.5" font-family="Helvetica,sans-Serif" font-size="10.00">src/http/http_sig.h</text>
</a>
</g>
</g>
<!-- Node3&#45;&gt;Node30 -->
<g id="edge48" class="edge">
<title>Node3&#45;&gt;Node30</title>
<path fill="none" stroke="midnightblue" d="M560.5,-727.8C560.5,-718.91 560.5,-708.78 560.5,-701.75"/>
<polygon fill="midnightblue" stroke="midnightblue" points="557,-728.08 560.5,-738.08 564,-728.08 557,-728.08"/>
</g>
<!-- Node5 -->
<g id="node5" class="node">
<title>Node5</title>
<g id="a_node5"><a xlink:href="perf__client_8h.html" target="_top" xlink:title=" ">
<polygon fill="white" stroke="black" points="154,-492.5 154,-522.5 265,-522.5 265,-492.5 154,-492.5"/>
<text text-anchor="start" x="162" y="-510.5" font-family="Helvetica,sans-Serif" font-size="10.00">src/clients/perf/perf</text>
<text text-anchor="middle" x="209.5" y="-499.5" font-family="Helvetica,sans-Serif" font-size="10.00">_client.h</text>
</a>
</g>
</g>
<!-- Node4&#45;&gt;Node5 -->
<g id="edge4" class="edge">
<title>Node4&#45;&gt;Node5</title>
<path fill="none" stroke="midnightblue" d="M279.42,-613.3C260.81,-605.63 241.74,-594.61 228.5,-579 214.89,-562.95 210.94,-538.07 209.85,-522.56"/>
<polygon fill="midnightblue" stroke="midnightblue" points="278.19,-616.58 288.78,-616.91 280.7,-610.05 278.19,-616.58"/>
</g>
<!-- Node8 -->
<g id="node8" class="node">
<title>Node8</title>
<g id="a_node8"><a xlink:href="timing_8h.html" target="_top" xlink:title=" ">
<polygon fill="white" stroke="black" points="237.5,-559.5 237.5,-578.5 369.5,-578.5 369.5,-559.5 237.5,-559.5"/>
<text text-anchor="middle" x="303.5" y="-566.5" font-family="Helvetica,sans-Serif" font-size="10.00">src/clients/perf/timing.h</text>
</a>
</g>
</g>
<!-- Node4&#45;&gt;Node8 -->
<g id="edge7" class="edge">
<title>Node4&#45;&gt;Node8</title>
<path fill="none" stroke="midnightblue" d="M325.77,-606.8C319.81,-596.96 313.2,-586.03 308.74,-578.66"/>
<polygon fill="midnightblue" stroke="midnightblue" points="322.8,-608.66 330.97,-615.4 328.79,-605.03 322.8,-608.66"/>
</g>
<!-- Node6 -->
<g id="node6" class="node">
<title>Node6</title>
<g id="a_node6"><a xlink:href="tpcc__client_8cpp.html" target="_top" xlink:title=" ">
<polygon fill="white" stroke="black" points="151.5,-425.5 151.5,-455.5 267.5,-455.5 267.5,-425.5 151.5,-425.5"/>
<text text-anchor="start" x="159.5" y="-443.5" font-family="Helvetica,sans-Serif" font-size="10.00">src/apps/tpcc/clients</text>
<text text-anchor="middle" x="209.5" y="-432.5" font-family="Helvetica,sans-Serif" font-size="10.00">/tpcc_client.cpp</text>
</a>
</g>
</g>
<!-- Node5&#45;&gt;Node6 -->
<g id="edge5" class="edge">
<title>Node5&#45;&gt;Node6</title>
<path fill="none" stroke="midnightblue" d="M209.5,-482.11C209.5,-473.15 209.5,-463.32 209.5,-455.58"/>
<polygon fill="midnightblue" stroke="midnightblue" points="206,-482.4 209.5,-492.4 213,-482.4 206,-482.4"/>
</g>
<!-- Node7 -->
<g id="node7" class="node">
<title>Node7</title>
<g id="a_node7"><a xlink:href="scenario__perf__client_8cpp.html" target="_top" xlink:title=" ">
<polygon fill="white" stroke="black" points="0,-425.5 0,-455.5 133,-455.5 133,-425.5 0,-425.5"/>
<text text-anchor="start" x="8" y="-443.5" font-family="Helvetica,sans-Serif" font-size="10.00">src/clients/perf/scenario</text>
<text text-anchor="middle" x="66.5" y="-432.5" font-family="Helvetica,sans-Serif" font-size="10.00">_perf_client.cpp</text>
</a>
</g>
</g>
<!-- Node5&#45;&gt;Node7 -->
<g id="edge6" class="edge">
<title>Node5&#45;&gt;Node7</title>
<path fill="none" stroke="midnightblue" d="M169.09,-488.13C146.37,-477.8 118.44,-465.11 97.47,-455.58"/>
<polygon fill="midnightblue" stroke="midnightblue" points="167.92,-491.44 178.47,-492.4 170.82,-485.07 167.92,-491.44"/>
</g>
<!-- Node8&#45;&gt;Node5 -->
<g id="edge8" class="edge">
<title>Node8&#45;&gt;Node5</title>
<path fill="none" stroke="midnightblue" d="M281.4,-554.01C266.4,-544.52 246.66,-532.02 231.65,-522.52"/>
<polygon fill="midnightblue" stroke="midnightblue" points="279.71,-557.08 290.03,-559.48 283.45,-551.17 279.71,-557.08"/>
</g>
<!-- Node10 -->
<g id="node10" class="node">
<title>Node10</title>
<g id="a_node10"><a xlink:href="rpc__sessions_8h.html" target="_top" xlink:title=" ">
<polygon fill="white" stroke="black" points="339.5,-498 339.5,-517 485.5,-517 485.5,-498 339.5,-498"/>
<text text-anchor="middle" x="412.5" y="-505" font-family="Helvetica,sans-Serif" font-size="10.00">src/enclave/rpc_sessions.h</text>
</a>
</g>
</g>
<!-- Node9&#45;&gt;Node10 -->
<g id="edge10" class="edge">
<title>Node9&#45;&gt;Node10</title>
<path fill="none" stroke="midnightblue" d="M436.87,-551.67C427.79,-540.45 418,-526.02 413.61,-517.01"/>
<polygon fill="midnightblue" stroke="midnightblue" points="434.41,-554.17 443.58,-559.48 439.72,-549.61 434.41,-554.17"/>
</g>
<!-- Node10&#45;&gt;Node9 -->
<g id="edge13" class="edge">
<title>Node10&#45;&gt;Node9</title>
<path fill="none" stroke="midnightblue" d="M430.11,-524.81C439.19,-536.02 448.99,-550.46 453.38,-559.48"/>
<polygon fill="midnightblue" stroke="midnightblue" points="432.58,-522.31 423.4,-517.01 427.27,-526.87 432.58,-522.31"/>
</g>
<!-- Node11 -->
<g id="node11" class="node">
<title>Node11</title>
<g id="a_node11"><a xlink:href="enclave_2enclave_8h.html" target="_top" xlink:title=" ">
<polygon fill="white" stroke="black" points="860.5,-56.5 860.5,-75.5 982.5,-75.5 982.5,-56.5 860.5,-56.5"/>
<text text-anchor="middle" x="921.5" y="-63.5" font-family="Helvetica,sans-Serif" font-size="10.00">src/enclave/enclave.h</text>
</a>
</g>
</g>
<!-- Node10&#45;&gt;Node11 -->
<g id="edge11" class="edge">
<title>Node10&#45;&gt;Node11</title>
<path fill="none" stroke="midnightblue" d="M386.94,-492.63C352.51,-471.87 295.5,-429.22 295.5,-374.5 295.5,-374.5 295.5,-374.5 295.5,-182.5 295.5,-125.45 702.82,-85.28 860.34,-71.89"/>
<polygon fill="midnightblue" stroke="midnightblue" points="385.58,-495.89 395.98,-497.9 389.1,-489.84 385.58,-495.89"/>
</g>
<!-- Node13 -->
<g id="node13" class="node">
<title>Node13</title>
<g id="a_node13"><a xlink:href="node__client_8h.html" target="_top" xlink:title=" ">
<polygon fill="white" stroke="black" points="438.5,-431 438.5,-450 564.5,-450 564.5,-431 438.5,-431"/>
<text text-anchor="middle" x="501.5" y="-438" font-family="Helvetica,sans-Serif" font-size="10.00">src/node/node_client.h</text>
</a>
</g>
</g>
<!-- Node10&#45;&gt;Node13 -->
<g id="edge14" class="edge">
<title>Node10&#45;&gt;Node13</title>
<path fill="none" stroke="midnightblue" d="M432.95,-491.57C450.51,-478.74 475.23,-460.69 489.69,-450.13"/>
<polygon fill="midnightblue" stroke="midnightblue" points="430.51,-489.01 424.5,-497.73 434.64,-494.66 430.51,-489.01"/>
</g>
<!-- Node16 -->
<g id="node16" class="node">
<title>Node16</title>
<g id="a_node16"><a xlink:href="node__state_8h.html" target="_top" xlink:title=" ">
<polygon fill="white" stroke="black" points="643.5,-174 643.5,-193 767.5,-193 767.5,-174 643.5,-174"/>
<text text-anchor="middle" x="705.5" y="-181" font-family="Helvetica,sans-Serif" font-size="10.00">src/node/node_state.h</text>
</a>
</g>
</g>
<!-- Node10&#45;&gt;Node16 -->
<g id="edge30" class="edge">
<title>Node10&#45;&gt;Node16</title>
<path fill="none" stroke="midnightblue" d="M395.32,-490.8C372.08,-467.75 333.5,-422.28 333.5,-374.5 333.5,-374.5 333.5,-374.5 333.5,-311 333.5,-273.24 340.95,-257.21 371.5,-235 413.78,-204.27 559.11,-191.85 643.49,-187.14"/>
<polygon fill="midnightblue" stroke="midnightblue" points="393.17,-493.59 402.81,-497.98 398.02,-488.53 393.17,-493.59"/>
</g>
<!-- Node22 -->
<g id="node22" class="node">
<title>Node22</title>
<g id="a_node22"><a xlink:href="resharing_8h.html" target="_top" xlink:title=" ">
<polygon fill="white" stroke="black" points="380.5,-241 380.5,-260 496.5,-260 496.5,-241 380.5,-241"/>
<text text-anchor="middle" x="438.5" y="-248" font-family="Helvetica,sans-Serif" font-size="10.00">src/node/resharing.h</text>
</a>
</g>
</g>
<!-- Node10&#45;&gt;Node22 -->
<g id="edge31" class="edge">
<title>Node10&#45;&gt;Node22</title>
<path fill="none" stroke="midnightblue" d="M412.61,-487.71C412.95,-459.47 414.29,-404.44 419.5,-358 423.63,-321.23 432.65,-277.99 436.6,-260"/>
<polygon fill="midnightblue" stroke="midnightblue" points="409.11,-487.73 412.52,-497.76 416.11,-487.8 409.11,-487.73"/>
</g>
<!-- Node12 -->
<g id="node12" class="node">
<title>Node12</title>
<g id="a_node12"><a xlink:href="enclave_2main_8cpp.html" target="_top" xlink:title=" ">
<polygon fill="white" stroke="black" points="861.5,-0.5 861.5,-19.5 981.5,-19.5 981.5,-0.5 861.5,-0.5"/>
<text text-anchor="middle" x="921.5" y="-7.5" font-family="Helvetica,sans-Serif" font-size="10.00">src/enclave/main.cpp</text>
</a>
</g>
</g>
<!-- Node11&#45;&gt;Node12 -->
<g id="edge12" class="edge">
<title>Node11&#45;&gt;Node12</title>
<path fill="none" stroke="midnightblue" d="M921.5,-45.8C921.5,-36.91 921.5,-26.78 921.5,-19.75"/>
<polygon fill="midnightblue" stroke="midnightblue" points="918,-46.08 921.5,-56.08 925,-46.08 918,-46.08"/>
</g>
<!-- Node14 -->
<g id="node14" class="node">
<title>Node14</title>
<g id="a_node14"><a xlink:href="orc__requests_8h.html" target="_top" xlink:title=" ">
<polygon fill="white" stroke="black" points="584,-358.5 584,-388.5 703,-388.5 703,-358.5 584,-358.5"/>
<text text-anchor="start" x="592" y="-376.5" font-family="Helvetica,sans-Serif" font-size="10.00">src/consensus/aft/orc</text>
<text text-anchor="middle" x="643.5" y="-365.5" font-family="Helvetica,sans-Serif" font-size="10.00">_requests.h</text>
</a>
</g>
</g>
<!-- Node13&#45;&gt;Node14 -->
<g id="edge15" class="edge">
<title>Node13&#45;&gt;Node14</title>
<path fill="none" stroke="midnightblue" d="M529.64,-426.62C553.66,-415.63 588.14,-399.84 612.85,-388.53"/>
<polygon fill="midnightblue" stroke="midnightblue" points="527.99,-423.52 520.36,-430.87 530.91,-429.89 527.99,-423.52"/>
</g>
<!-- Node15 -->
<g id="node15" class="node">
<title>Node15</title>
<g id="a_node15"><a xlink:href="raft_8h.html" target="_top" xlink:title=" ">
<polygon fill="white" stroke="black" points="480,-302.5 480,-321.5 609,-321.5 609,-302.5 480,-302.5"/>
<text text-anchor="middle" x="544.5" y="-309.5" font-family="Helvetica,sans-Serif" font-size="10.00">src/consensus/aft/raft.h</text>
</a>
</g>
</g>
<!-- Node13&#45;&gt;Node15 -->
<g id="edge25" class="edge">
<title>Node13&#45;&gt;Node15</title>
<path fill="none" stroke="midnightblue" d="M469.82,-426.28C454.37,-418.01 437.27,-405.73 428.5,-389 422.1,-376.8 420.72,-369.37 428.5,-358 441.62,-338.84 464.17,-327.84 485.93,-321.52"/>
<polygon fill="midnightblue" stroke="midnightblue" points="468.63,-429.59 479.14,-430.91 471.74,-423.32 468.63,-429.59"/>
</g>
<!-- Node20 -->
<g id="node20" class="node">
<title>Node20</title>
<g id="a_node20"><a xlink:href="http__node__client_8h.html" target="_top" xlink:title=" ">
<polygon fill="white" stroke="black" points="639.5,-235.5 639.5,-265.5 749.5,-265.5 749.5,-235.5 639.5,-235.5"/>
<text text-anchor="start" x="647.5" y="-253.5" font-family="Helvetica,sans-Serif" font-size="10.00">src/node/http_node</text>
<text text-anchor="middle" x="694.5" y="-242.5" font-family="Helvetica,sans-Serif" font-size="10.00">_client.h</text>
</a>
</g>
</g>
<!-- Node13&#45;&gt;Node20 -->
<g id="edge26" class="edge">
<title>Node13&#45;&gt;Node20</title>
<path fill="none" stroke="midnightblue" d="M574.76,-431.5C628.35,-423.96 694.52,-410.55 711.5,-389 740.23,-352.54 715.98,-292.9 702.3,-265.76"/>
<polygon fill="midnightblue" stroke="midnightblue" points="574.01,-428.07 564.57,-432.88 574.95,-435.01 574.01,-428.07"/>
</g>
<!-- Node21 -->
<g id="node21" class="node">
<title>Node21</title>
<g id="a_node21"><a xlink:href="retired__nodes__cleanup_8h.html" target="_top" xlink:title=" ">
<polygon fill="white" stroke="black" points="437.5,-358.5 437.5,-388.5 565.5,-388.5 565.5,-358.5 437.5,-358.5"/>
<text text-anchor="start" x="445.5" y="-376.5" font-family="Helvetica,sans-Serif" font-size="10.00">src/node/retired_nodes</text>
<text text-anchor="middle" x="501.5" y="-365.5" font-family="Helvetica,sans-Serif" font-size="10.00">_cleanup.h</text>
</a>
</g>
</g>
<!-- Node13&#45;&gt;Node21 -->
<g id="edge28" class="edge">
<title>Node13&#45;&gt;Node21</title>
<path fill="none" stroke="midnightblue" d="M501.5,-420.41C501.5,-410.22 501.5,-397.9 501.5,-388.59"/>
<polygon fill="midnightblue" stroke="midnightblue" points="498,-420.73 501.5,-430.73 505,-420.73 498,-420.73"/>
</g>
<!-- Node14&#45;&gt;Node15 -->
<g id="edge16" class="edge">
<title>Node14&#45;&gt;Node15</title>
<path fill="none" stroke="midnightblue" d="M611.17,-353.07C593.52,-342.46 572.55,-329.86 558.91,-321.66"/>
<polygon fill="midnightblue" stroke="midnightblue" points="609.66,-356.25 620.04,-358.4 613.27,-350.25 609.66,-356.25"/>
</g>
<!-- Node18 -->
<g id="node18" class="node">
<title>Node18</title>
<g id="a_node18"><a xlink:href="node__frontend_8h.html" target="_top" xlink:title=" ">
<polygon fill="white" stroke="black" points="797.5,-302.5 797.5,-321.5 955.5,-321.5 955.5,-302.5 797.5,-302.5"/>
<text text-anchor="middle" x="876.5" y="-309.5" font-family="Helvetica,sans-Serif" font-size="10.00">src/node/rpc/node_frontend.h</text>
</a>
</g>
</g>
<!-- Node14&#45;&gt;Node18 -->
<g id="edge21" class="edge">
<title>Node14&#45;&gt;Node18</title>
<path fill="none" stroke="midnightblue" d="M708.14,-355.99C751.97,-344.8 808.1,-330.47 843.19,-321.51"/>
<polygon fill="midnightblue" stroke="midnightblue" points="707.25,-352.61 698.42,-358.47 708.98,-359.39 707.25,-352.61"/>
</g>
<!-- Node15&#45;&gt;Node16 -->
<g id="edge17" class="edge">
<title>Node15&#45;&gt;Node16</title>
<path fill="none" stroke="midnightblue" d="M561.12,-295.13C578.04,-279.26 605.3,-254.48 630.5,-235 650.99,-219.16 676.22,-202.76 691.57,-193.1"/>
<polygon fill="midnightblue" stroke="midnightblue" points="558.56,-292.73 553.7,-302.15 563.37,-297.82 558.56,-292.73"/>
</g>
<!-- Node16&#45;&gt;Node11 -->
<g id="edge18" class="edge">
<title>Node16&#45;&gt;Node11</title>
<path fill="none" stroke="midnightblue" d="M730.81,-168.96C775.72,-144.95 868.09,-95.56 905.37,-75.62"/>
<polygon fill="midnightblue" stroke="midnightblue" points="728.9,-166.02 721.74,-173.82 732.2,-172.19 728.9,-166.02"/>
</g>
<!-- Node17 -->
<g id="node17" class="node">
<title>Node17</title>
<g id="a_node17"><a xlink:href="gov__effects_8h.html" target="_top" xlink:title=" ">
<polygon fill="white" stroke="black" points="645.5,-112.5 645.5,-131.5 789.5,-131.5 789.5,-112.5 645.5,-112.5"/>
<text text-anchor="middle" x="717.5" y="-119.5" font-family="Helvetica,sans-Serif" font-size="10.00">src/node/rpc/gov_effects.h</text>
</a>
</g>
</g>
<!-- Node16&#45;&gt;Node17 -->
<g id="edge19" class="edge">
<title>Node16&#45;&gt;Node17</title>
<path fill="none" stroke="midnightblue" d="M709.2,-164.16C711.39,-153.27 714.07,-139.99 715.78,-131.51"/>
<polygon fill="midnightblue" stroke="midnightblue" points="705.77,-163.48 707.22,-173.98 712.63,-164.86 705.77,-163.48"/>
</g>
<!-- Node17&#45;&gt;Node11 -->
<g id="edge20" class="edge">
<title>Node17&#45;&gt;Node11</title>
<path fill="none" stroke="midnightblue" d="M759.7,-109.83C798.22,-99.63 854.32,-84.78 889.33,-75.52"/>
<polygon fill="midnightblue" stroke="midnightblue" points="758.6,-106.5 749.82,-112.44 760.39,-113.27 758.6,-106.5"/>
</g>
<!-- Node18&#45;&gt;Node11 -->
<g id="edge22" class="edge">
<title>Node18&#45;&gt;Node11</title>
<path fill="none" stroke="midnightblue" d="M888.79,-293.77C893.91,-285.72 899.38,-275.76 902.5,-266 925.13,-195.26 923.2,-103.73 921.96,-75.6"/>
<polygon fill="midnightblue" stroke="midnightblue" points="885.78,-291.98 883.1,-302.23 891.59,-295.89 885.78,-291.98"/>
</g>
<!-- Node19 -->
<g id="node19" class="node">
<title>Node19</title>
<g id="a_node19"><a xlink:href="jwt__key__auto__refresh_8h.html" target="_top" xlink:title=" ">
<polygon fill="white" stroke="black" points="768,-235.5 768,-265.5 893,-265.5 893,-235.5 768,-235.5"/>
<text text-anchor="start" x="776" y="-253.5" font-family="Helvetica,sans-Serif" font-size="10.00">src/node/jwt_key_auto</text>
<text text-anchor="middle" x="830.5" y="-242.5" font-family="Helvetica,sans-Serif" font-size="10.00">_refresh.h</text>
</a>
</g>
</g>
<!-- Node18&#45;&gt;Node19 -->
<g id="edge23" class="edge">
<title>Node18&#45;&gt;Node19</title>
<path fill="none" stroke="midnightblue" d="M863.77,-294.53C856.72,-285.42 848.06,-274.21 841.34,-265.52"/>
<polygon fill="midnightblue" stroke="midnightblue" points="861.02,-296.7 869.91,-302.48 866.56,-292.42 861.02,-296.7"/>
</g>
<!-- Node19&#45;&gt;Node16 -->
<g id="edge24" class="edge">
<title>Node19&#45;&gt;Node16</title>
<path fill="none" stroke="midnightblue" d="M794.23,-230.64C770.31,-218.2 740.14,-202.51 721.86,-193.01"/>
<polygon fill="midnightblue" stroke="midnightblue" points="792.89,-233.89 803.38,-235.4 796.12,-227.68 792.89,-233.89"/>
</g>
<!-- Node20&#45;&gt;Node16 -->
<g id="edge27" class="edge">
<title>Node20&#45;&gt;Node16</title>
<path fill="none" stroke="midnightblue" d="M698.6,-225.25C700.5,-214.02 702.64,-201.38 704.03,-193.19"/>
<polygon fill="midnightblue" stroke="midnightblue" points="695.1,-224.95 696.89,-235.4 702.01,-226.12 695.1,-224.95"/>
</g>
<!-- Node21&#45;&gt;Node15 -->
<g id="edge29" class="edge">
<title>Node21&#45;&gt;Node15</title>
<path fill="none" stroke="midnightblue" d="M517.69,-350.1C524.85,-340.19 532.86,-329.11 538.24,-321.66"/>
<polygon fill="midnightblue" stroke="midnightblue" points="514.71,-348.24 511.69,-358.4 520.38,-352.34 514.71,-348.24"/>
</g>
<!-- Node22&#45;&gt;Node16 -->
<g id="edge32" class="edge">
<title>Node22&#45;&gt;Node16</title>
<path fill="none" stroke="midnightblue" d="M483.42,-238.56C536.06,-225.75 622.18,-204.78 670.24,-193.08"/>
<polygon fill="midnightblue" stroke="midnightblue" points="482.57,-235.17 473.68,-240.94 484.22,-241.97 482.57,-235.17"/>
</g>
<!-- Node24 -->
<g id="node24" class="node">
<title>Node24</title>
<g id="a_node24"><a xlink:href="jwt__auth_8cpp.html" target="_top" xlink:title=" ">
<polygon fill="white" stroke="black" points="1105,-615.5 1105,-645.5 1260,-645.5 1260,-615.5 1105,-615.5"/>
<text text-anchor="start" x="1113" y="-633.5" font-family="Helvetica,sans-Serif" font-size="10.00">src/endpoints/authentication</text>
<text text-anchor="middle" x="1182.5" y="-622.5" font-family="Helvetica,sans-Serif" font-size="10.00">/jwt_auth.cpp</text>
</a>
</g>
</g>
<!-- Node23&#45;&gt;Node24 -->
<g id="edge34" class="edge">
<title>Node23&#45;&gt;Node24</title>
<path fill="none" stroke="midnightblue" d="M1100.48,-677.54C1117.49,-667.99 1140.28,-655.2 1157.52,-645.52"/>
<polygon fill="midnightblue" stroke="midnightblue" points="1098.69,-674.53 1091.69,-682.48 1102.12,-680.63 1098.69,-674.53"/>
</g>
<!-- Node25 -->
<g id="node25" class="node">
<title>Node25</title>
<g id="a_node25"><a xlink:href="frontend_8h.html" target="_top" xlink:title=" ">
<polygon fill="white" stroke="black" points="1012,-364 1012,-383 1141,-383 1141,-364 1012,-364"/>
<text text-anchor="middle" x="1076.5" y="-371" font-family="Helvetica,sans-Serif" font-size="10.00">src/node/rpc/frontend.h</text>
</a>
</g>
</g>
<!-- Node23&#45;&gt;Node25 -->
<g id="edge35" class="edge">
<title>Node23&#45;&gt;Node25</title>
<path fill="none" stroke="midnightblue" d="M1076.5,-672.44C1076.5,-648.69 1076.5,-606.29 1076.5,-570 1076.5,-570 1076.5,-570 1076.5,-506.5 1076.5,-459.98 1076.5,-404.24 1076.5,-383.15"/>
<polygon fill="midnightblue" stroke="midnightblue" points="1073,-672.49 1076.5,-682.49 1080,-672.49 1073,-672.49"/>
</g>
<!-- Node25&#45;&gt;Node16 -->
<g id="edge36" class="edge">
<title>Node25&#45;&gt;Node16</title>
<path fill="none" stroke="midnightblue" d="M1061.31,-356.74C1032.85,-328.14 968.41,-267.64 902.5,-235 858.84,-213.38 805,-200.39 764.65,-193.01"/>
<polygon fill="midnightblue" stroke="midnightblue" points="1058.85,-359.23 1068.35,-363.91 1063.84,-354.32 1058.85,-359.23"/>
</g>
<!-- Node25&#45;&gt;Node18 -->
<g id="edge39" class="edge">
<title>Node25&#45;&gt;Node18</title>
<path fill="none" stroke="midnightblue" d="M1037.94,-361.03C999.07,-349.46 939.98,-331.88 905.1,-321.51"/>
<polygon fill="midnightblue" stroke="midnightblue" points="1037.26,-364.48 1047.84,-363.98 1039.26,-357.77 1037.26,-364.48"/>
</g>
<!-- Node26 -->
<g id="node26" class="node">
<title>Node26</title>
<g id="a_node26"><a xlink:href="member__frontend_8h.html" target="_top" xlink:title=" ">
<polygon fill="white" stroke="black" points="1113.5,-168.5 1113.5,-198.5 1233.5,-198.5 1233.5,-168.5 1113.5,-168.5"/>
<text text-anchor="start" x="1121.5" y="-186.5" font-family="Helvetica,sans-Serif" font-size="10.00">src/node/rpc/member</text>
<text text-anchor="middle" x="1173.5" y="-175.5" font-family="Helvetica,sans-Serif" font-size="10.00">_frontend.h</text>
</a>
</g>
</g>
<!-- Node25&#45;&gt;Node26 -->
<g id="edge37" class="edge">
<title>Node25&#45;&gt;Node26</title>
<path fill="none" stroke="midnightblue" d="M1085.61,-354.84C1104.73,-317.78 1148.72,-232.53 1166.17,-198.7"/>
<polygon fill="midnightblue" stroke="midnightblue" points="1082.39,-353.44 1080.92,-363.93 1088.62,-356.65 1082.39,-353.44"/>
</g>
<!-- Node27 -->
<g id="node27" class="node">
<title>Node27</title>
<g id="a_node27"><a xlink:href="user__frontend_8h.html" target="_top" xlink:title=" ">
<polygon fill="white" stroke="black" points="999,-112.5 999,-131.5 1154,-131.5 1154,-112.5 999,-112.5"/>
<text text-anchor="middle" x="1076.5" y="-119.5" font-family="Helvetica,sans-Serif" font-size="10.00">src/node/rpc/user_frontend.h</text>
</a>
</g>
</g>
<!-- Node25&#45;&gt;Node27 -->
<g id="edge40" class="edge">
<title>Node25&#45;&gt;Node27</title>
<path fill="none" stroke="midnightblue" d="M1076.5,-353.84C1076.5,-303.64 1076.5,-167.1 1076.5,-131.55"/>
<polygon fill="midnightblue" stroke="midnightblue" points="1073,-353.91 1076.5,-363.91 1080,-353.91 1073,-353.91"/>
</g>
<!-- Node26&#45;&gt;Node11 -->
<g id="edge38" class="edge">
<title>Node26&#45;&gt;Node11</title>
<path fill="none" stroke="midnightblue" d="M1176.65,-158.01C1177.17,-142.82 1174.99,-124 1163.5,-112 1139.15,-86.58 1045.91,-75.24 982.54,-70.39"/>
<polygon fill="midnightblue" stroke="midnightblue" points="1173.14,-158.04 1175.89,-168.27 1180.12,-158.55 1173.14,-158.04"/>
</g>
<!-- Node27&#45;&gt;Node11 -->
<g id="edge41" class="edge">
<title>Node27&#45;&gt;Node11</title>
<path fill="none" stroke="midnightblue" d="M1042.17,-109.04C1013,-98.88 971.86,-84.55 945.95,-75.52"/>
<polygon fill="midnightblue" stroke="midnightblue" points="1041.34,-112.46 1051.94,-112.44 1043.65,-105.85 1041.34,-112.46"/>
</g>
<!-- Node28&#45;&gt;Node9 -->
<g id="edge43" class="edge">
<title>Node28&#45;&gt;Node9</title>
<path fill="none" stroke="midnightblue" d="M680.19,-618.83C626.86,-607.29 542.91,-589.13 493.83,-578.51"/>
<polygon fill="midnightblue" stroke="midnightblue" points="679.59,-622.28 690.1,-620.98 681.07,-615.44 679.59,-622.28"/>
</g>
<!-- Node28&#45;&gt;Node19 -->
<g id="edge44" class="edge">
<title>Node28&#45;&gt;Node19</title>
<path fill="none" stroke="midnightblue" d="M739.32,-611.8C751.16,-588.75 769.5,-546.85 769.5,-508.5 769.5,-508.5 769.5,-508.5 769.5,-372.5 769.5,-340.05 773.56,-330.81 788.5,-302 795.54,-288.44 806.71,-275.24 815.77,-265.73"/>
<polygon fill="midnightblue" stroke="midnightblue" points="736.18,-610.25 734.57,-620.72 742.35,-613.54 736.18,-610.25"/>
</g>
<!-- Node29 -->
<g id="node29" class="node">
<title>Node29</title>
<g id="a_node29"><a xlink:href="forwarder_8h.html" target="_top" xlink:title=" ">
<polygon fill="white" stroke="black" points="914.5,-431 914.5,-450 1048.5,-450 1048.5,-431 914.5,-431"/>
<text text-anchor="middle" x="981.5" y="-438" font-family="Helvetica,sans-Serif" font-size="10.00">src/node/rpc/forwarder.h</text>
</a>
</g>
</g>
<!-- Node28&#45;&gt;Node29 -->
<g id="edge45" class="edge">
<title>Node28&#45;&gt;Node29</title>
<path fill="none" stroke="midnightblue" d="M749.07,-614.9C799.05,-577.62 930.24,-479.74 969.95,-450.12"/>
<polygon fill="midnightblue" stroke="midnightblue" points="746.91,-612.15 740.98,-620.93 751.09,-617.76 746.91,-612.15"/>
</g>
<!-- Node29&#45;&gt;Node11 -->
<g id="edge46" class="edge">
<title>Node29&#45;&gt;Node11</title>
<path fill="none" stroke="midnightblue" d="M980.02,-420.74C975.78,-370.3 962.18,-227.75 935.5,-112 932.52,-99.08 927.71,-84.49 924.57,-75.52"/>
<polygon fill="midnightblue" stroke="midnightblue" points="976.53,-421.11 980.84,-430.8 983.51,-420.54 976.53,-421.11"/>
</g>
<!-- Node29&#45;&gt;Node25 -->
<g id="edge47" class="edge">
<title>Node29&#45;&gt;Node25</title>
<path fill="none" stroke="midnightblue" d="M1002.81,-424.92C1021.59,-412.07 1048.32,-393.78 1063.89,-383.13"/>
<polygon fill="midnightblue" stroke="midnightblue" points="1000.59,-422.2 994.31,-430.73 1004.54,-427.98 1000.59,-422.2"/>
</g>
<!-- Node30&#45;&gt;Node4 -->
<g id="edge49" class="edge">
<title>Node30&#45;&gt;Node4</title>
<path fill="none" stroke="midnightblue" d="M519.02,-679.83C482.54,-670.01 429.33,-655.69 390.31,-645.18"/>
<polygon fill="midnightblue" stroke="midnightblue" points="518.27,-683.25 528.84,-682.48 520.09,-676.5 518.27,-683.25"/>
</g>
<!-- Node30&#45;&gt;Node28 -->
<g id="edge51" class="edge">
<title>Node30&#45;&gt;Node28</title>
<path fill="none" stroke="midnightblue" d="M594.35,-679.08C627.2,-667.52 676.24,-650.25 705.33,-640.01"/>
<polygon fill="midnightblue" stroke="midnightblue" points="592.98,-675.85 584.71,-682.48 595.31,-682.46 592.98,-675.85"/>
</g>
<!-- Node31 -->
<g id="node31" class="node">
<title>Node31</title>
<g id="a_node31"><a xlink:href="sig__auth_8cpp.html" target="_top" xlink:title=" ">
<polygon fill="white" stroke="black" points="483,-615.5 483,-645.5 638,-645.5 638,-615.5 483,-615.5"/>
<text text-anchor="start" x="491" y="-633.5" font-family="Helvetica,sans-Serif" font-size="10.00">src/endpoints/authentication</text>
<text text-anchor="middle" x="560.5" y="-622.5" font-family="Helvetica,sans-Serif" font-size="10.00">/sig_auth.cpp</text>
</a>
</g>
</g>
<!-- Node30&#45;&gt;Node31 -->
<g id="edge50" class="edge">
<title>Node30&#45;&gt;Node31</title>
<path fill="none" stroke="midnightblue" d="M560.5,-672.23C560.5,-663.59 560.5,-653.5 560.5,-645.52"/>
<polygon fill="midnightblue" stroke="midnightblue" points="557,-672.48 560.5,-682.48 564,-672.48 557,-672.48"/>
</g>
<!-- Node32&#45;&gt;Node3 -->
<g id="edge53" class="edge">
<title>Node32&#45;&gt;Node3</title>
<path fill="none" stroke="midnightblue" d="M589.39,-786.14C582.07,-776.74 573.26,-765.4 567.31,-757.75"/>
<polygon fill="midnightblue" stroke="midnightblue" points="586.66,-788.34 595.56,-794.08 592.19,-784.04 586.66,-788.34"/>
</g>
</g>
</svg>
