<?xml version="1.0" encoding="UTF-8" standalone="no"?>
<!DOCTYPE svg PUBLIC "-//W3C//DTD SVG 1.1//EN"
 "http://www.w3.org/Graphics/SVG/1.1/DTD/svg11.dtd">
<!-- Generated by graphviz version 2.43.0 (0)
 -->
<!-- Title: src/crypto/openssl/key_pair.h Pages: 1 -->
<!--zoomable 498 -->
<svg id="main" version="1.1" xmlns="http://www.w3.org/2000/svg" xmlns:xlink="http://www.w3.org/1999/xlink" xml:space="preserve" onload="init(evt)">
<style type="text/css"><![CDATA[
.edge:hover path { stroke: red; }
.edge:hover polygon { stroke: red; fill: red; }
]]></style>
<script type="text/javascript"><![CDATA[
var edges = document.getElementsByTagName('g');
if (edges && edges.length) {
  for (var i=0;i<edges.length;i++) {
    if (edges[i].id.substr(0,4)=='edge') {
      edges[i].setAttribute('class','edge');
    }
  }
}
]]></script>
        <defs>
                <circle id="rim" cx="0" cy="0" r="7"/>
                <circle id="rim2" cx="0" cy="0" r="3.5"/>
                <g id="zoomPlus">
                        <use xlink:href="#rim" fill="#404040">
                                <set attributeName="fill" to="#808080" begin="zoomplus.mouseover" end="zoomplus.mouseout"/>
                        </use>
                        <path d="M-4,0h8M0,-4v8" fill="none" stroke="white" stroke-width="1.5" pointer-events="none"/>
                </g>
                <g id="zoomMin">
                        <use xlink:href="#rim" fill="#404040">
                                <set attributeName="fill" to="#808080" begin="zoomminus.mouseover" end="zoomminus.mouseout"/>
                        </use>
                        <path d="M-4,0h8" fill="none" stroke="white" stroke-width="1.5" pointer-events="none"/>
                </g>
                <g id="dirArrow">
                        <path fill="none" stroke="white" stroke-width="1.5" d="M0,-3.0v7 M-2.5,-0.5L0,-3.0L2.5,-0.5"/>
                </g>
               <g id="resetDef">
                       <use xlink:href="#rim2" fill="#404040">
                               <set attributeName="fill" to="#808080" begin="reset.mouseover" end="reset.mouseout"/>
                       </use>
               </g>
        </defs>

<script type="text/javascript">
var viewWidth = 2286;
var viewHeight = 498;
var sectionId = 'dynsection-0';
</script>
<script xlink:href="svgpan.js"/>
<svg id="graph" class="graph">
<g id="viewport">
<title>src/crypto/openssl/key_pair.h</title>
<polygon fill="white" stroke="transparent" points="-4,4 -4,-494 2281.5,-494 2281.5,4 -4,4"/>
<!-- Node1 -->
<g id="node1" class="node">
<title>Node1</title>
<g id="a_node1"><a xlink:title=" ">
<polygon fill="#bfbfbf" stroke="black" points="1074,-459.5 1074,-489.5 1179,-489.5 1179,-459.5 1074,-459.5"/>
<text text-anchor="start" x="1082" y="-477.5" font-family="Helvetica,sans-Serif" font-size="10.00">src/crypto/openssl</text>
<text text-anchor="middle" x="1126.5" y="-466.5" font-family="Helvetica,sans-Serif" font-size="10.00">/key_pair.h</text>
</a>
</g>
</g>
<!-- Node2 -->
<g id="node2" class="node">
<title>Node2</title>
<g id="a_node2"><a xlink:href="include_2ccf_2crypto_2key__pair_8h.html" target="_top" xlink:title=" ">
<polygon fill="white" stroke="black" points="668,-398 668,-417 785,-417 785,-398 668,-398"/>
<text text-anchor="middle" x="726.5" y="-405" font-family="Helvetica,sans-Serif" font-size="10.00">ccf/crypto/key_pair.h</text>
</a>
</g>
</g>
<!-- Node1&#45;&gt;Node2 -->
<g id="edge1" class="edge">
<title>Node1&#45;&gt;Node2</title>
<path fill="none" stroke="midnightblue" d="M1073.8,-464.94C1000.4,-453.01 867.62,-431.43 789.22,-418.69"/>
<polygon fill="midnightblue" stroke="midnightblue" points="789.43,-415.18 779,-417.03 788.31,-422.09 789.43,-415.18"/>
</g>
<!-- Node7 -->
<g id="node7" class="node">
<title>Node7</title>
<g id="a_node7"><a xlink:title=" ">
<polygon fill="white" stroke="#bfbfbf" points="869.5,-0.5 869.5,-19.5 913.5,-19.5 913.5,-0.5 869.5,-0.5"/>
<text text-anchor="middle" x="891.5" y="-7.5" font-family="Helvetica,sans-Serif" font-size="10.00">string</text>
</a>
</g>
</g>
<!-- Node1&#45;&gt;Node7 -->
<g id="edge77" class="edge">
<title>Node1&#45;&gt;Node7</title>
<path fill="none" stroke="midnightblue" d="M1126.5,-459.46C1126.5,-436.12 1126.5,-387.85 1126.5,-347 1126.5,-347 1126.5,-347 1126.5,-289 1126.5,-258.12 1071.93,-151.91 968.5,-56 954.4,-42.92 935.85,-31.94 920.49,-24.1"/>
<polygon fill="midnightblue" stroke="midnightblue" points="921.93,-20.91 911.41,-19.63 918.84,-27.19 921.93,-20.91"/>
</g>
<!-- Node20 -->
<g id="node20" class="node">
<title>Node20</title>
<g id="a_node20"><a xlink:title=" ">
<polygon fill="white" stroke="#bfbfbf" points="1193,-224.5 1193,-243.5 1258,-243.5 1258,-224.5 1193,-224.5"/>
<text text-anchor="middle" x="1225.5" y="-231.5" font-family="Helvetica,sans-Serif" font-size="10.00">stdexcept</text>
</a>
</g>
</g>
<!-- Node1&#45;&gt;Node20 -->
<g id="edge76" class="edge">
<title>Node1&#45;&gt;Node20</title>
<path fill="none" stroke="midnightblue" d="M1132.4,-459.29C1149.47,-418.17 1198.91,-299.05 1217.93,-253.24"/>
<polygon fill="midnightblue" stroke="midnightblue" points="1221.19,-254.52 1221.79,-243.95 1214.72,-251.84 1221.19,-254.52"/>
</g>
<!-- Node26 -->
<g id="node26" class="node">
<title>Node26</title>
<g id="a_node26"><a xlink:href="include_2ccf_2crypto_2public__key_8h.html" target="_top" xlink:title=" ">
<polygon fill="white" stroke="black" points="836,-336.5 836,-355.5 963,-355.5 963,-336.5 836,-336.5"/>
<text text-anchor="middle" x="899.5" y="-343.5" font-family="Helvetica,sans-Serif" font-size="10.00">ccf/crypto/public_key.h</text>
</a>
</g>
</g>
<!-- Node1&#45;&gt;Node26 -->
<g id="edge54" class="edge">
<title>Node1&#45;&gt;Node26</title>
<path fill="none" stroke="midnightblue" d="M1101.34,-459.48C1057.35,-434.97 967.05,-384.64 923.73,-360.5"/>
<polygon fill="midnightblue" stroke="midnightblue" points="925.43,-357.44 914.99,-355.63 922.02,-363.56 925.43,-357.44"/>
</g>
<!-- Node30 -->
<g id="node30" class="node">
<title>Node30</title>
<g id="a_node30"><a xlink:title=" ">
<polygon fill="white" stroke="#bfbfbf" points="1042.5,-280.5 1042.5,-299.5 1098.5,-299.5 1098.5,-280.5 1042.5,-280.5"/>
<text text-anchor="middle" x="1070.5" y="-287.5" font-family="Helvetica,sans-Serif" font-size="10.00">optional</text>
</a>
</g>
</g>
<!-- Node1&#45;&gt;Node30 -->
<g id="edge75" class="edge">
<title>Node1&#45;&gt;Node30</title>
<path fill="none" stroke="midnightblue" d="M1122.2,-459.48C1112.22,-426.96 1087.48,-346.34 1076.23,-309.68"/>
<polygon fill="midnightblue" stroke="midnightblue" points="1079.49,-308.35 1073.21,-299.82 1072.79,-310.41 1079.49,-308.35"/>
</g>
<!-- Node31 -->
<g id="node31" class="node">
<title>Node31</title>
<g id="a_node31"><a xlink:href="src_2crypto_2openssl_2public__key_8h.html" target="_top" xlink:title=" ">
<polygon fill="white" stroke="black" points="1192.5,-392.5 1192.5,-422.5 1312.5,-422.5 1312.5,-392.5 1192.5,-392.5"/>
<text text-anchor="start" x="1200.5" y="-410.5" font-family="Helvetica,sans-Serif" font-size="10.00">crypto/openssl/public</text>
<text text-anchor="middle" x="1252.5" y="-399.5" font-family="Helvetica,sans-Serif" font-size="10.00">_key.h</text>
</a>
</g>
</g>
<!-- Node1&#45;&gt;Node31 -->
<g id="edge55" class="edge">
<title>Node1&#45;&gt;Node31</title>
<path fill="none" stroke="midnightblue" d="M1153.84,-459.4C1172.09,-449.98 1196.28,-437.5 1216.14,-427.26"/>
<polygon fill="midnightblue" stroke="midnightblue" points="1217.93,-430.27 1225.21,-422.58 1214.72,-424.05 1217.93,-430.27"/>
</g>
<!-- Node32 -->
<g id="node32" class="node">
<title>Node32</title>
<g id="a_node32"><a xlink:href="openssl__wrappers_8h.html" target="_top" xlink:title=" ">
<polygon fill="white" stroke="black" points="1539,-336.5 1539,-355.5 1652,-355.5 1652,-336.5 1539,-336.5"/>
<text text-anchor="middle" x="1595.5" y="-343.5" font-family="Helvetica,sans-Serif" font-size="10.00">openssl_wrappers.h</text>
</a>
</g>
</g>
<!-- Node1&#45;&gt;Node32 -->
<g id="edge74" class="edge">
<title>Node1&#45;&gt;Node32</title>
<path fill="none" stroke="midnightblue" d="M1179.12,-460.13C1218.4,-450.09 1273.37,-435.91 1321.5,-423 1404.82,-400.66 1502.05,-373.41 1555.39,-358.36"/>
<polygon fill="midnightblue" stroke="midnightblue" points="1556.46,-361.69 1565.14,-355.61 1554.56,-354.95 1556.46,-361.69"/>
</g>
<!-- Node3 -->
<g id="node3" class="node">
<title>Node3</title>
<g id="a_node3"><a xlink:href="curve_8h.html" target="_top" xlink:title=" ">
<polygon fill="white" stroke="black" points="594.5,-280.5 594.5,-299.5 698.5,-299.5 698.5,-280.5 594.5,-280.5"/>
<text text-anchor="middle" x="646.5" y="-287.5" font-family="Helvetica,sans-Serif" font-size="10.00">ccf/crypto/curve.h</text>
</a>
</g>
</g>
<!-- Node2&#45;&gt;Node3 -->
<g id="edge2" class="edge">
<title>Node2&#45;&gt;Node3</title>
<path fill="none" stroke="midnightblue" d="M720.49,-397.82C707.34,-378.84 675.83,-333.35 658.47,-308.29"/>
<polygon fill="midnightblue" stroke="midnightblue" points="661.15,-306.01 652.58,-299.78 655.4,-310 661.15,-306.01"/>
</g>
<!-- Node2&#45;&gt;Node7 -->
<g id="edge52" class="edge">
<title>Node2&#45;&gt;Node7</title>
<path fill="none" stroke="midnightblue" d="M729.09,-397.71C738.88,-365.29 775.93,-249.97 830.5,-168 861.18,-121.91 894.48,-127.62 914.5,-76 920.7,-60.01 912.76,-41.57 904.57,-28.42"/>
<polygon fill="midnightblue" stroke="midnightblue" points="907.28,-26.18 898.75,-19.89 901.49,-30.13 907.28,-26.18"/>
</g>
<!-- Node8 -->
<g id="node8" class="node">
<title>Node8</title>
<g id="a_node8"><a xlink:title=" ">
<polygon fill="white" stroke="#bfbfbf" points="1037,-0.5 1037,-19.5 1084,-19.5 1084,-0.5 1037,-0.5"/>
<text text-anchor="middle" x="1060.5" y="-7.5" font-family="Helvetica,sans-Serif" font-size="10.00">vector</text>
</a>
</g>
</g>
<!-- Node2&#45;&gt;Node8 -->
<g id="edge53" class="edge">
<title>Node2&#45;&gt;Node8</title>
<path fill="none" stroke="midnightblue" d="M667.75,-406.16C528.41,-403.76 189.5,-387.97 189.5,-291 189.5,-291 189.5,-291 189.5,-177 189.5,-106.95 227.92,-87.48 290.5,-56 353.33,-24.39 852.29,-24.29 922.5,-20 957.99,-17.83 998.59,-15.16 1026.52,-13.29"/>
<polygon fill="midnightblue" stroke="midnightblue" points="1026.83,-16.78 1036.57,-12.62 1026.36,-9.8 1026.83,-16.78"/>
</g>
<!-- Node21 -->
<g id="node21" class="node">
<title>Node21</title>
<g id="a_node21"><a xlink:href="pem_8h.html" target="_top" xlink:title=" ">
<polygon fill="white" stroke="black" points="850.5,-280.5 850.5,-299.5 948.5,-299.5 948.5,-280.5 850.5,-280.5"/>
<text text-anchor="middle" x="899.5" y="-287.5" font-family="Helvetica,sans-Serif" font-size="10.00">ccf/crypto/pem.h</text>
</a>
</g>
</g>
<!-- Node2&#45;&gt;Node21 -->
<g id="edge27" class="edge">
<title>Node2&#45;&gt;Node21</title>
<path fill="none" stroke="midnightblue" d="M738.49,-397.83C757.27,-384.33 794.85,-357.58 827.5,-336 843.74,-325.27 862.39,-313.63 876.64,-304.88"/>
<polygon fill="midnightblue" stroke="midnightblue" points="878.59,-307.79 885.29,-299.59 874.94,-301.82 878.59,-307.79"/>
</g>
<!-- Node2&#45;&gt;Node26 -->
<g id="edge35" class="edge">
<title>Node2&#45;&gt;Node26</title>
<path fill="none" stroke="midnightblue" d="M751.29,-397.98C781.09,-387.72 831.29,-370.46 864.9,-358.9"/>
<polygon fill="midnightblue" stroke="midnightblue" points="866.44,-362.07 874.76,-355.51 864.16,-355.45 866.44,-362.07"/>
</g>
<!-- Node28 -->
<g id="node28" class="node">
<title>Node28</title>
<g id="a_node28"><a xlink:href="san_8h.html" target="_top" xlink:title=" ">
<polygon fill="white" stroke="black" points="276.5,-224.5 276.5,-243.5 370.5,-243.5 370.5,-224.5 276.5,-224.5"/>
<text text-anchor="middle" x="323.5" y="-231.5" font-family="Helvetica,sans-Serif" font-size="10.00">ccf/crypto/san.h</text>
</a>
</g>
</g>
<!-- Node2&#45;&gt;Node28 -->
<g id="edge49" class="edge">
<title>Node2&#45;&gt;Node28</title>
<path fill="none" stroke="midnightblue" d="M703.36,-397.88C677.26,-388.08 633.62,-371.42 596.5,-356 506.03,-318.4 400.36,-270.38 351.23,-247.81"/>
<polygon fill="midnightblue" stroke="midnightblue" points="352.46,-244.52 341.91,-243.52 349.53,-250.88 352.46,-244.52"/>
</g>
<!-- Node29 -->
<g id="node29" class="node">
<title>Node29</title>
<g id="a_node29"><a xlink:title=" ">
<polygon fill="white" stroke="#bfbfbf" points="488.5,-280.5 488.5,-299.5 538.5,-299.5 538.5,-280.5 488.5,-280.5"/>
<text text-anchor="middle" x="513.5" y="-287.5" font-family="Helvetica,sans-Serif" font-size="10.00">cstdint</text>
</a>
</g>
</g>
<!-- Node2&#45;&gt;Node29 -->
<g id="edge50" class="edge">
<title>Node2&#45;&gt;Node29</title>
<path fill="none" stroke="midnightblue" d="M710.49,-397.82C673.62,-377.83 582.53,-328.43 538.33,-304.47"/>
<polygon fill="midnightblue" stroke="midnightblue" points="539.86,-301.31 529.4,-299.62 536.53,-307.47 539.86,-301.31"/>
</g>
<!-- Node2&#45;&gt;Node30 -->
<g id="edge51" class="edge">
<title>Node2&#45;&gt;Node30</title>
<path fill="none" stroke="midnightblue" d="M785.01,-400.87C836.06,-394.48 911.31,-381.44 972.5,-356 1002.77,-343.41 1033.62,-321.04 1052.42,-306.12"/>
<polygon fill="midnightblue" stroke="midnightblue" points="1054.83,-308.67 1060.39,-299.65 1050.42,-303.23 1054.83,-308.67"/>
</g>
<!-- Node4 -->
<g id="node4" class="node">
<title>Node4</title>
<g id="a_node4"><a xlink:href="md__type_8h.html" target="_top" xlink:title=" ">
<polygon fill="white" stroke="black" points="465,-224.5 465,-243.5 584,-243.5 584,-224.5 465,-224.5"/>
<text text-anchor="middle" x="524.5" y="-231.5" font-family="Helvetica,sans-Serif" font-size="10.00">ccf/crypto/md_type.h</text>
</a>
</g>
</g>
<!-- Node3&#45;&gt;Node4 -->
<g id="edge3" class="edge">
<title>Node3&#45;&gt;Node4</title>
<path fill="none" stroke="midnightblue" d="M627.17,-280.44C607.18,-271.6 575.76,-257.69 552.94,-247.59"/>
<polygon fill="midnightblue" stroke="midnightblue" points="554.3,-244.36 543.74,-243.52 551.47,-250.76 554.3,-244.36"/>
</g>
<!-- Node5 -->
<g id="node5" class="node">
<title>Node5</title>
<g id="a_node5"><a xlink:href="json_8h.html" target="_top" xlink:title=" ">
<polygon fill="white" stroke="black" points="468,-168.5 468,-187.5 545,-187.5 545,-168.5 468,-168.5"/>
<text text-anchor="middle" x="506.5" y="-175.5" font-family="Helvetica,sans-Serif" font-size="10.00">ccf/ds/json.h</text>
</a>
</g>
</g>
<!-- Node3&#45;&gt;Node5 -->
<g id="edge23" class="edge">
<title>Node3&#45;&gt;Node5</title>
<path fill="none" stroke="midnightblue" d="M596.76,-280.49C543.46,-270.87 465.28,-255.1 456.5,-244 442.79,-226.67 464.09,-206.45 482.98,-193.23"/>
<polygon fill="midnightblue" stroke="midnightblue" points="484.96,-196.12 491.36,-187.68 481.09,-190.28 484.96,-196.12"/>
</g>
<!-- Node3&#45;&gt;Node7 -->
<g id="edge26" class="edge">
<title>Node3&#45;&gt;Node7</title>
<path fill="none" stroke="midnightblue" d="M651.89,-280.4C662.75,-263.04 687.99,-222.48 708.5,-188 743.1,-129.81 733.75,-100.8 784.5,-56 805.95,-37.06 836.52,-25.29 859.5,-18.56"/>
<polygon fill="midnightblue" stroke="midnightblue" points="860.44,-21.93 869.15,-15.89 858.58,-15.18 860.44,-21.93"/>
</g>
<!-- Node16 -->
<g id="node16" class="node">
<title>Node16</title>
<g id="a_node16"><a xlink:title=" ">
<polygon fill="white" stroke="#bfbfbf" points="461,-56.5 461,-75.5 540,-75.5 540,-56.5 461,-56.5"/>
<text text-anchor="middle" x="500.5" y="-63.5" font-family="Helvetica,sans-Serif" font-size="10.00">fmt/format.h</text>
</a>
</g>
</g>
<!-- Node3&#45;&gt;Node16 -->
<g id="edge24" class="edge">
<title>Node3&#45;&gt;Node16</title>
<path fill="none" stroke="midnightblue" d="M594.41,-280.65C538.6,-271.18 456.73,-255.55 447.5,-244 427.42,-218.87 471.32,-124.49 491.29,-84.78"/>
<polygon fill="midnightblue" stroke="midnightblue" points="494.48,-86.24 495.9,-75.74 488.24,-83.06 494.48,-86.24"/>
</g>
<!-- Node19 -->
<g id="node19" class="node">
<title>Node19</title>
<g id="a_node19"><a xlink:href="enum__formatter_8h.html" target="_top" xlink:title=" ">
<polygon fill="white" stroke="black" points="563.5,-168.5 563.5,-187.5 699.5,-187.5 699.5,-168.5 563.5,-168.5"/>
<text text-anchor="middle" x="631.5" y="-175.5" font-family="Helvetica,sans-Serif" font-size="10.00">ccf/ds/enum_formatter.h</text>
</a>
</g>
</g>
<!-- Node3&#45;&gt;Node19 -->
<g id="edge21" class="edge">
<title>Node3&#45;&gt;Node19</title>
<path fill="none" stroke="midnightblue" d="M645.32,-280.37C642.9,-262.62 637.32,-221.67 634.04,-197.6"/>
<polygon fill="midnightblue" stroke="midnightblue" points="637.49,-197.03 632.67,-187.59 630.55,-197.97 637.49,-197.03"/>
</g>
<!-- Node3&#45;&gt;Node20 -->
<g id="edge25" class="edge">
<title>Node3&#45;&gt;Node20</title>
<path fill="none" stroke="midnightblue" d="M698.65,-284.14C811.92,-273.57 1078.63,-248.7 1182.78,-238.98"/>
<polygon fill="midnightblue" stroke="midnightblue" points="1183.29,-242.45 1192.92,-238.04 1182.64,-235.48 1183.29,-242.45"/>
</g>
<!-- Node4&#45;&gt;Node5 -->
<g id="edge4" class="edge">
<title>Node4&#45;&gt;Node5</title>
<path fill="none" stroke="midnightblue" d="M521.53,-224.08C519.12,-216.85 515.64,-206.41 512.63,-197.4"/>
<polygon fill="midnightblue" stroke="midnightblue" points="515.9,-196.13 509.42,-187.75 509.26,-198.34 515.9,-196.13"/>
</g>
<!-- Node6 -->
<g id="node6" class="node">
<title>Node6</title>
<g id="a_node6"><a xlink:href="include_2ccf_2crypto_2base64_8h.html" target="_top" xlink:title=" ">
<polygon fill="white" stroke="black" points="793.5,-56.5 793.5,-75.5 905.5,-75.5 905.5,-56.5 793.5,-56.5"/>
<text text-anchor="middle" x="849.5" y="-63.5" font-family="Helvetica,sans-Serif" font-size="10.00">ccf/crypto/base64.h</text>
</a>
</g>
</g>
<!-- Node5&#45;&gt;Node6 -->
<g id="edge5" class="edge">
<title>Node5&#45;&gt;Node6</title>
<path fill="none" stroke="midnightblue" d="M533.13,-168.46C594.04,-148.93 743.6,-100.96 813.01,-78.7"/>
<polygon fill="midnightblue" stroke="midnightblue" points="814.2,-82 822.65,-75.61 812.06,-75.33 814.2,-82"/>
</g>
<!-- Node9 -->
<g id="node9" class="node">
<title>Node9</title>
<g id="a_node9"><a xlink:href="include_2ccf_2ds_2json__schema_8h.html" target="_top" xlink:title=" ">
<polygon fill="white" stroke="black" points="294,-112.5 294,-131.5 415,-131.5 415,-112.5 294,-112.5"/>
<text text-anchor="middle" x="354.5" y="-119.5" font-family="Helvetica,sans-Serif" font-size="10.00">ccf/ds/json_schema.h</text>
</a>
</g>
</g>
<!-- Node5&#45;&gt;Node9 -->
<g id="edge8" class="edge">
<title>Node5&#45;&gt;Node9</title>
<path fill="none" stroke="midnightblue" d="M482.42,-168.44C456.96,-159.4 416.61,-145.06 388.04,-134.92"/>
<polygon fill="midnightblue" stroke="midnightblue" points="389.07,-131.57 378.47,-131.52 386.72,-138.16 389.07,-131.57"/>
</g>
<!-- Node5&#45;&gt;Node16 -->
<g id="edge19" class="edge">
<title>Node5&#45;&gt;Node16</title>
<path fill="none" stroke="midnightblue" d="M506.03,-168.37C505.06,-150.62 502.83,-109.67 501.51,-85.6"/>
<polygon fill="midnightblue" stroke="midnightblue" points="505.01,-85.39 500.97,-75.59 498.02,-85.77 505.01,-85.39"/>
</g>
<!-- Node18 -->
<g id="node18" class="node">
<title>Node18</title>
<g id="a_node18"><a xlink:title=" ">
<polygon fill="white" stroke="#bfbfbf" points="547.5,-112.5 547.5,-131.5 603.5,-131.5 603.5,-112.5 547.5,-112.5"/>
<text text-anchor="middle" x="575.5" y="-119.5" font-family="Helvetica,sans-Serif" font-size="10.00">sstream</text>
</a>
</g>
</g>
<!-- Node5&#45;&gt;Node18 -->
<g id="edge20" class="edge">
<title>Node5&#45;&gt;Node18</title>
<path fill="none" stroke="midnightblue" d="M517.59,-168.32C527.99,-160.18 543.76,-147.84 556.22,-138.09"/>
<polygon fill="midnightblue" stroke="midnightblue" points="558.49,-140.75 564.21,-131.83 554.18,-135.24 558.49,-140.75"/>
</g>
<!-- Node6&#45;&gt;Node7 -->
<g id="edge6" class="edge">
<title>Node6&#45;&gt;Node7</title>
<path fill="none" stroke="midnightblue" d="M856.44,-56.08C862.43,-48.38 871.25,-37.03 878.55,-27.65"/>
<polygon fill="midnightblue" stroke="midnightblue" points="881.32,-29.79 884.69,-19.75 875.79,-25.5 881.32,-29.79"/>
</g>
<!-- Node6&#45;&gt;Node8 -->
<g id="edge7" class="edge">
<title>Node6&#45;&gt;Node8</title>
<path fill="none" stroke="midnightblue" d="M882.93,-56.44C922.3,-46.37 987.29,-29.74 1026.78,-19.63"/>
<polygon fill="midnightblue" stroke="midnightblue" points="1027.9,-22.96 1036.72,-17.09 1026.16,-16.18 1027.9,-22.96"/>
</g>
<!-- Node10 -->
<g id="node10" class="node">
<title>Node10</title>
<g id="a_node10"><a xlink:href="nonstd_8h.html" target="_top" xlink:title=" ">
<polygon fill="white" stroke="black" points="109.5,-56.5 109.5,-75.5 199.5,-75.5 199.5,-56.5 109.5,-56.5"/>
<text text-anchor="middle" x="154.5" y="-63.5" font-family="Helvetica,sans-Serif" font-size="10.00">ccf/ds/nonstd.h</text>
</a>
</g>
</g>
<!-- Node9&#45;&gt;Node10 -->
<g id="edge9" class="edge">
<title>Node9&#45;&gt;Node10</title>
<path fill="none" stroke="midnightblue" d="M322.81,-112.44C288.43,-103.16 233.42,-88.31 195.71,-78.13"/>
<polygon fill="midnightblue" stroke="midnightblue" points="196.61,-74.74 186.04,-75.52 194.78,-81.5 196.61,-74.74"/>
</g>
<!-- Node9&#45;&gt;Node16 -->
<g id="edge17" class="edge">
<title>Node9&#45;&gt;Node16</title>
<path fill="none" stroke="midnightblue" d="M377.63,-112.44C401.98,-103.44 440.51,-89.19 467.92,-79.05"/>
<polygon fill="midnightblue" stroke="midnightblue" points="469.31,-82.27 477.47,-75.52 466.88,-75.7 469.31,-82.27"/>
</g>
<!-- Node17 -->
<g id="node17" class="node">
<title>Node17</title>
<g id="a_node17"><a xlink:title=" ">
<polygon fill="white" stroke="#bfbfbf" points="299.5,-56.5 299.5,-75.5 409.5,-75.5 409.5,-56.5 299.5,-56.5"/>
<text text-anchor="middle" x="354.5" y="-63.5" font-family="Helvetica,sans-Serif" font-size="10.00">nlohmann/json.hpp</text>
</a>
</g>
</g>
<!-- Node9&#45;&gt;Node17 -->
<g id="edge18" class="edge">
<title>Node9&#45;&gt;Node17</title>
<path fill="none" stroke="midnightblue" d="M354.5,-112.08C354.5,-105.01 354.5,-94.86 354.5,-85.99"/>
<polygon fill="midnightblue" stroke="midnightblue" points="358,-85.75 354.5,-75.75 351,-85.75 358,-85.75"/>
</g>
<!-- Node10&#45;&gt;Node7 -->
<g id="edge13" class="edge">
<title>Node10&#45;&gt;Node7</title>
<path fill="none" stroke="midnightblue" d="M199.55,-57.72C204.25,-57.09 208.97,-56.5 213.5,-56 461.32,-28.92 762.01,-15.89 859.41,-12.16"/>
<polygon fill="midnightblue" stroke="midnightblue" points="859.63,-15.65 869.49,-11.78 859.37,-8.66 859.63,-15.65"/>
</g>
<!-- Node10&#45;&gt;Node8 -->
<g id="edge16" class="edge">
<title>Node10&#45;&gt;Node8</title>
<path fill="none" stroke="midnightblue" d="M199.54,-57.65C204.24,-57.03 208.96,-56.46 213.5,-56 527.41,-24.17 607.51,-38.27 922.5,-20 957.99,-17.94 998.6,-15.25 1026.53,-13.35"/>
<polygon fill="midnightblue" stroke="midnightblue" points="1026.84,-16.84 1036.57,-12.67 1026.36,-9.86 1026.84,-16.84"/>
</g>
<!-- Node11 -->
<g id="node11" class="node">
<title>Node11</title>
<g id="a_node11"><a xlink:title=" ">
<polygon fill="white" stroke="#bfbfbf" points="87.5,-0.5 87.5,-19.5 151.5,-19.5 151.5,-0.5 87.5,-0.5"/>
<text text-anchor="middle" x="119.5" y="-7.5" font-family="Helvetica,sans-Serif" font-size="10.00">algorithm</text>
</a>
</g>
</g>
<!-- Node10&#45;&gt;Node11 -->
<g id="edge10" class="edge">
<title>Node10&#45;&gt;Node11</title>
<path fill="none" stroke="midnightblue" d="M148.72,-56.08C143.83,-48.53 136.67,-37.49 130.67,-28.23"/>
<polygon fill="midnightblue" stroke="midnightblue" points="133.55,-26.24 125.17,-19.75 127.67,-30.05 133.55,-26.24"/>
</g>
<!-- Node12 -->
<g id="node12" class="node">
<title>Node12</title>
<g id="a_node12"><a xlink:title=" ">
<polygon fill="white" stroke="#bfbfbf" points="169.5,-0.5 169.5,-19.5 211.5,-19.5 211.5,-0.5 169.5,-0.5"/>
<text text-anchor="middle" x="190.5" y="-7.5" font-family="Helvetica,sans-Serif" font-size="10.00">array</text>
</a>
</g>
</g>
<!-- Node10&#45;&gt;Node12 -->
<g id="edge11" class="edge">
<title>Node10&#45;&gt;Node12</title>
<path fill="none" stroke="midnightblue" d="M160.44,-56.08C165.48,-48.53 172.84,-37.49 179.01,-28.23"/>
<polygon fill="midnightblue" stroke="midnightblue" points="182.03,-30.01 184.67,-19.75 176.21,-26.13 182.03,-30.01"/>
</g>
<!-- Node13 -->
<g id="node13" class="node">
<title>Node13</title>
<g id="a_node13"><a xlink:title=" ">
<polygon fill="white" stroke="#bfbfbf" points="230,-0.5 230,-19.5 279,-19.5 279,-0.5 230,-0.5"/>
<text text-anchor="middle" x="254.5" y="-7.5" font-family="Helvetica,sans-Serif" font-size="10.00">cctype</text>
</a>
</g>
</g>
<!-- Node10&#45;&gt;Node13 -->
<g id="edge12" class="edge">
<title>Node10&#45;&gt;Node13</title>
<path fill="none" stroke="midnightblue" d="M170.57,-56.32C186.46,-47.74 211.01,-34.49 229.46,-24.52"/>
<polygon fill="midnightblue" stroke="midnightblue" points="231.34,-27.49 238.47,-19.65 228.01,-21.33 231.34,-27.49"/>
</g>
<!-- Node14 -->
<g id="node14" class="node">
<title>Node14</title>
<g id="a_node14"><a xlink:title=" ">
<polygon fill="white" stroke="#bfbfbf" points="513,-0.5 513,-19.5 586,-19.5 586,-0.5 513,-0.5"/>
<text text-anchor="middle" x="549.5" y="-7.5" font-family="Helvetica,sans-Serif" font-size="10.00">string_view</text>
</a>
</g>
</g>
<!-- Node10&#45;&gt;Node14 -->
<g id="edge14" class="edge">
<title>Node10&#45;&gt;Node14</title>
<path fill="none" stroke="midnightblue" d="M199.59,-58.04C204.28,-57.34 208.99,-56.65 213.5,-56 316.64,-41.23 437.81,-25.37 502.75,-16.99"/>
<polygon fill="midnightblue" stroke="midnightblue" points="503.21,-20.46 512.68,-15.71 502.31,-13.52 503.21,-20.46"/>
</g>
<!-- Node15 -->
<g id="node15" class="node">
<title>Node15</title>
<g id="a_node15"><a xlink:title=" ">
<polygon fill="white" stroke="#bfbfbf" points="0,-0.5 0,-19.5 69,-19.5 69,-0.5 0,-0.5"/>
<text text-anchor="middle" x="34.5" y="-7.5" font-family="Helvetica,sans-Serif" font-size="10.00">type_traits</text>
</a>
</g>
</g>
<!-- Node10&#45;&gt;Node15 -->
<g id="edge15" class="edge">
<title>Node10&#45;&gt;Node15</title>
<path fill="none" stroke="midnightblue" d="M135.49,-56.44C115.91,-47.64 85.19,-33.81 62.77,-23.72"/>
<polygon fill="midnightblue" stroke="midnightblue" points="63.98,-20.43 53.43,-19.52 61.11,-26.81 63.98,-20.43"/>
</g>
<!-- Node19&#45;&gt;Node16 -->
<g id="edge22" class="edge">
<title>Node19&#45;&gt;Node16</title>
<path fill="none" stroke="midnightblue" d="M631.29,-168.27C630.49,-154.59 627.03,-128.03 612.5,-112 596.26,-94.1 571.92,-83.19 550.08,-76.61"/>
<polygon fill="midnightblue" stroke="midnightblue" points="550.83,-73.19 540.25,-73.88 548.95,-79.93 550.83,-73.19"/>
</g>
<!-- Node21&#45;&gt;Node5 -->
<g id="edge28" class="edge">
<title>Node21&#45;&gt;Node5</title>
<path fill="none" stroke="midnightblue" d="M868.99,-280.46C798.83,-260.82 626.01,-212.45 547.04,-190.35"/>
<polygon fill="midnightblue" stroke="midnightblue" points="547.56,-186.86 536.99,-187.53 545.68,-193.6 547.56,-186.86"/>
</g>
<!-- Node21&#45;&gt;Node8 -->
<g id="edge34" class="edge">
<title>Node21&#45;&gt;Node8</title>
<path fill="none" stroke="midnightblue" d="M874.55,-280.42C845.5,-269.09 803.74,-247.75 822.5,-224 865.26,-169.85 906.74,-205.39 973.5,-188 1062,-164.95 1116.33,-204.94 1171.5,-132 1191.88,-105.06 1190.37,-84.01 1171.5,-56 1154.45,-30.69 1120.46,-19.61 1094.56,-14.76"/>
<polygon fill="midnightblue" stroke="midnightblue" points="1094.82,-11.26 1084.38,-13.09 1093.69,-18.16 1094.82,-11.26"/>
</g>
<!-- Node21&#45;&gt;Node14 -->
<g id="edge33" class="edge">
<title>Node21&#45;&gt;Node14</title>
<path fill="none" stroke="midnightblue" d="M919.82,-280.31C943.53,-268.85 977.77,-247.39 963.5,-224 881.82,-90.12 686.14,-36.83 596.18,-18.87"/>
<polygon fill="midnightblue" stroke="midnightblue" points="596.75,-15.41 586.27,-16.95 595.42,-22.28 596.75,-15.41"/>
</g>
<!-- Node22 -->
<g id="node22" class="node">
<title>Node22</title>
<g id="a_node22"><a xlink:title=" ">
<polygon fill="white" stroke="#bfbfbf" points="1010.5,-224.5 1010.5,-243.5 1060.5,-243.5 1060.5,-224.5 1010.5,-224.5"/>
<text text-anchor="middle" x="1035.5" y="-231.5" font-family="Helvetica,sans-Serif" font-size="10.00">cstring</text>
</a>
</g>
</g>
<!-- Node21&#45;&gt;Node22 -->
<g id="edge29" class="edge">
<title>Node21&#45;&gt;Node22</title>
<path fill="none" stroke="midnightblue" d="M921.05,-280.44C943.53,-271.52 978.99,-257.44 1004.48,-247.32"/>
<polygon fill="midnightblue" stroke="midnightblue" points="1006.05,-250.46 1014.05,-243.52 1003.47,-243.95 1006.05,-250.46"/>
</g>
<!-- Node23 -->
<g id="node23" class="node">
<title>Node23</title>
<g id="a_node23"><a xlink:title=" ">
<polygon fill="white" stroke="#bfbfbf" points="831,-224.5 831,-243.5 896,-243.5 896,-224.5 831,-224.5"/>
<text text-anchor="middle" x="863.5" y="-231.5" font-family="Helvetica,sans-Serif" font-size="10.00">exception</text>
</a>
</g>
</g>
<!-- Node21&#45;&gt;Node23 -->
<g id="edge30" class="edge">
<title>Node21&#45;&gt;Node23</title>
<path fill="none" stroke="midnightblue" d="M893.56,-280.08C888.52,-272.53 881.16,-261.49 874.99,-252.23"/>
<polygon fill="midnightblue" stroke="midnightblue" points="877.79,-250.13 869.33,-243.75 871.97,-254.01 877.79,-250.13"/>
</g>
<!-- Node24 -->
<g id="node24" class="node">
<title>Node24</title>
<g id="a_node24"><a xlink:title=" ">
<polygon fill="white" stroke="#bfbfbf" points="1276.5,-224.5 1276.5,-243.5 1334.5,-243.5 1334.5,-224.5 1276.5,-224.5"/>
<text text-anchor="middle" x="1305.5" y="-231.5" font-family="Helvetica,sans-Serif" font-size="10.00">memory</text>
</a>
</g>
</g>
<!-- Node21&#45;&gt;Node24 -->
<g id="edge31" class="edge">
<title>Node21&#45;&gt;Node24</title>
<path fill="none" stroke="midnightblue" d="M948.57,-284.75C1017.42,-278.39 1146.77,-265.06 1266.07,-244.09"/>
<polygon fill="midnightblue" stroke="midnightblue" points="1266.88,-247.5 1276.11,-242.3 1265.65,-240.61 1266.88,-247.5"/>
</g>
<!-- Node25 -->
<g id="node25" class="node">
<title>Node25</title>
<g id="a_node25"><a xlink:title=" ">
<polygon fill="white" stroke="#bfbfbf" points="914.5,-224.5 914.5,-243.5 954.5,-243.5 954.5,-224.5 914.5,-224.5"/>
<text text-anchor="middle" x="934.5" y="-231.5" font-family="Helvetica,sans-Serif" font-size="10.00">span</text>
</a>
</g>
</g>
<!-- Node21&#45;&gt;Node25 -->
<g id="edge32" class="edge">
<title>Node21&#45;&gt;Node25</title>
<path fill="none" stroke="midnightblue" d="M905.28,-280.08C910.17,-272.53 917.33,-261.49 923.33,-252.23"/>
<polygon fill="midnightblue" stroke="midnightblue" points="926.33,-254.05 928.83,-243.75 920.45,-250.24 926.33,-254.05"/>
</g>
<!-- Node26&#45;&gt;Node3 -->
<g id="edge36" class="edge">
<title>Node26&#45;&gt;Node3</title>
<path fill="none" stroke="midnightblue" d="M859.41,-336.44C815.18,-327 743.96,-311.8 696.22,-301.61"/>
<polygon fill="midnightblue" stroke="midnightblue" points="696.91,-298.18 686.4,-299.52 695.45,-305.03 696.91,-298.18"/>
</g>
<!-- Node26&#45;&gt;Node7 -->
<g id="edge47" class="edge">
<title>Node26&#45;&gt;Node7</title>
<path fill="none" stroke="midnightblue" d="M909.97,-336.49C926.45,-323.35 959.74,-297.77 990.5,-280 1023.91,-260.7 1048.63,-276.45 1069.5,-244 1074.31,-236.52 1073.12,-232.12 1069.5,-224 1059.77,-202.15 1044.85,-206.34 1029.5,-188 985.17,-135.04 993.29,-107.7 947.5,-56 937.32,-44.51 923.98,-33.66 912.88,-25.5"/>
<polygon fill="midnightblue" stroke="midnightblue" points="914.73,-22.52 904.55,-19.57 910.67,-28.22 914.73,-22.52"/>
</g>
<!-- Node26&#45;&gt;Node8 -->
<g id="edge48" class="edge">
<title>Node26&#45;&gt;Node8</title>
<path fill="none" stroke="midnightblue" d="M884.98,-336.33C855.32,-317.4 792.25,-270.39 813.5,-224 859.66,-123.23 979.64,-52.03 1033.56,-24.1"/>
<polygon fill="midnightblue" stroke="midnightblue" points="1035.21,-27.19 1042.53,-19.54 1032.03,-20.95 1035.21,-27.19"/>
</g>
<!-- Node26&#45;&gt;Node21 -->
<g id="edge39" class="edge">
<title>Node26&#45;&gt;Node21</title>
<path fill="none" stroke="midnightblue" d="M899.5,-336.08C899.5,-329.01 899.5,-318.86 899.5,-309.99"/>
<polygon fill="midnightblue" stroke="midnightblue" points="903,-309.75 899.5,-299.75 896,-309.75 903,-309.75"/>
</g>
<!-- Node27 -->
<g id="node27" class="node">
<title>Node27</title>
<g id="a_node27"><a xlink:href="hash__bytes_8h.html" target="_top" xlink:title=" ">
<polygon fill="white" stroke="black" points="1185.5,-168.5 1185.5,-187.5 1317.5,-187.5 1317.5,-168.5 1185.5,-168.5"/>
<text text-anchor="middle" x="1251.5" y="-175.5" font-family="Helvetica,sans-Serif" font-size="10.00">ccf/crypto/hash_bytes.h</text>
</a>
</g>
</g>
<!-- Node26&#45;&gt;Node27 -->
<g id="edge37" class="edge">
<title>Node26&#45;&gt;Node27</title>
<path fill="none" stroke="midnightblue" d="M916.8,-336.49C942.28,-323.97 991.45,-299.94 1033.5,-280 1101.54,-247.74 1182.03,-210.75 1223.57,-191.75"/>
<polygon fill="midnightblue" stroke="midnightblue" points="1225.15,-194.88 1232.78,-187.54 1222.23,-188.51 1225.15,-194.88"/>
</g>
<!-- Node26&#45;&gt;Node28 -->
<g id="edge40" class="edge">
<title>Node26&#45;&gt;Node28</title>
<path fill="none" stroke="midnightblue" d="M835.81,-342.24C771.34,-337.99 669.45,-327.21 585.5,-300 567.34,-294.12 565.48,-286.39 547.5,-280 517.42,-269.31 436.59,-254.27 380.74,-244.58"/>
<polygon fill="midnightblue" stroke="midnightblue" points="381.07,-241.08 370.62,-242.83 379.88,-247.98 381.07,-241.08"/>
</g>
<!-- Node26&#45;&gt;Node29 -->
<g id="edge45" class="edge">
<title>Node26&#45;&gt;Node29</title>
<path fill="none" stroke="midnightblue" d="M835.89,-338.64C766.09,-331.22 650.85,-317.68 552.5,-300 551.23,-299.77 549.94,-299.53 548.64,-299.28"/>
<polygon fill="midnightblue" stroke="midnightblue" points="549.11,-295.8 538.6,-297.17 547.67,-302.65 549.11,-295.8"/>
</g>
<!-- Node26&#45;&gt;Node30 -->
<g id="edge46" class="edge">
<title>Node26&#45;&gt;Node30</title>
<path fill="none" stroke="midnightblue" d="M926.6,-336.44C955.49,-327.32 1001.42,-312.81 1033.61,-302.65"/>
<polygon fill="midnightblue" stroke="midnightblue" points="1035.05,-305.87 1043.53,-299.52 1032.94,-299.19 1035.05,-305.87"/>
</g>
<!-- Node27&#45;&gt;Node8 -->
<g id="edge38" class="edge">
<title>Node27&#45;&gt;Node8</title>
<path fill="none" stroke="midnightblue" d="M1251.08,-168.27C1249.53,-146.17 1242.38,-87.57 1209.5,-56 1178.28,-26.03 1127.8,-15.94 1094.38,-12.6"/>
<polygon fill="midnightblue" stroke="midnightblue" points="1094.44,-9.09 1084.18,-11.73 1093.85,-16.06 1094.44,-9.09"/>
</g>
<!-- Node28&#45;&gt;Node5 -->
<g id="edge41" class="edge">
<title>Node28&#45;&gt;Node5</title>
<path fill="none" stroke="midnightblue" d="M352.5,-224.44C383.68,-215.24 433.43,-200.56 467.91,-190.39"/>
<polygon fill="midnightblue" stroke="midnightblue" points="469.04,-193.7 477.64,-187.52 467.06,-186.99 469.04,-193.7"/>
</g>
<!-- Node28&#45;&gt;Node7 -->
<g id="edge44" class="edge">
<title>Node28&#45;&gt;Node7</title>
<path fill="none" stroke="midnightblue" d="M317.52,-224.43C298.31,-195.82 242.22,-102.76 290.5,-56 311.09,-36.06 736.8,-17.28 858.98,-12.29"/>
<polygon fill="midnightblue" stroke="midnightblue" points="859.35,-15.78 869.2,-11.88 859.06,-8.78 859.35,-15.78"/>
</g>
<!-- Node28&#45;&gt;Node10 -->
<g id="edge42" class="edge">
<title>Node28&#45;&gt;Node10</title>
<path fill="none" stroke="midnightblue" d="M306.4,-224.45C291.07,-216.3 268.46,-203.08 251.5,-188 215.28,-155.8 182.04,-109.06 165.49,-84.14"/>
<polygon fill="midnightblue" stroke="midnightblue" points="168.4,-82.2 160,-75.74 162.54,-86.03 168.4,-82.2"/>
</g>
<!-- Node28&#45;&gt;Node16 -->
<g id="edge43" class="edge">
<title>Node28&#45;&gt;Node16</title>
<path fill="none" stroke="midnightblue" d="M333.02,-224.08C361.72,-197.15 447.71,-116.51 484.02,-82.45"/>
<polygon fill="midnightblue" stroke="midnightblue" points="486.46,-84.96 491.36,-75.57 481.68,-79.86 486.46,-84.96"/>
</g>
<!-- Node31&#45;&gt;Node7 -->
<g id="edge73" class="edge">
<title>Node31&#45;&gt;Node7</title>
<path fill="none" stroke="midnightblue" d="M1248.88,-392.44C1243.29,-367.34 1235.54,-314.24 1259.5,-280 1285.23,-243.24 1371.69,-258.91 1343.5,-224 1295.8,-164.92 1242.21,-226.04 1176.5,-188 1108.14,-148.43 1124.8,-97.35 1057.5,-56 1015.65,-30.29 959.05,-19.04 923.93,-14.28"/>
<polygon fill="midnightblue" stroke="midnightblue" points="924.12,-10.78 913.76,-13.01 923.25,-17.73 924.12,-10.78"/>
</g>
<!-- Node31&#45;&gt;Node20 -->
<g id="edge72" class="edge">
<title>Node31&#45;&gt;Node20</title>
<path fill="none" stroke="midnightblue" d="M1242.83,-392.2C1236.85,-382.46 1229.71,-369.02 1226.5,-356 1217.81,-320.77 1220.39,-277.99 1222.99,-253.89"/>
<polygon fill="midnightblue" stroke="midnightblue" points="1226.5,-254.02 1224.22,-243.68 1219.55,-253.19 1226.5,-254.02"/>
</g>
<!-- Node31&#45;&gt;Node26 -->
<g id="edge56" class="edge">
<title>Node31&#45;&gt;Node26</title>
<path fill="none" stroke="midnightblue" d="M1192.22,-396.34C1127.45,-385.42 1025.1,-368.17 960.18,-357.23"/>
<polygon fill="midnightblue" stroke="midnightblue" points="960.54,-353.74 950.09,-355.53 959.37,-360.64 960.54,-353.74"/>
</g>
<!-- Node31&#45;&gt;Node32 -->
<g id="edge57" class="edge">
<title>Node31&#45;&gt;Node32</title>
<path fill="none" stroke="midnightblue" d="M1312.64,-396.07C1375.52,-385.16 1473.59,-368.15 1536.17,-357.29"/>
<polygon fill="midnightblue" stroke="midnightblue" points="1537.02,-360.7 1546.28,-355.54 1535.82,-353.8 1537.02,-360.7"/>
</g>
<!-- Node36 -->
<g id="node36" class="node">
<title>Node36</title>
<g id="a_node36"><a xlink:title=" ">
<polygon fill="white" stroke="#bfbfbf" points="1370,-280.5 1370,-299.5 1449,-299.5 1449,-280.5 1370,-280.5"/>
<text text-anchor="middle" x="1409.5" y="-287.5" font-family="Helvetica,sans-Serif" font-size="10.00">openssl/err.h</text>
</a>
</g>
</g>
<!-- Node31&#45;&gt;Node36 -->
<g id="edge70" class="edge">
<title>Node31&#45;&gt;Node36</title>
<path fill="none" stroke="midnightblue" d="M1271.75,-392.34C1301.71,-370.3 1359.2,-328.01 1389.57,-305.66"/>
<polygon fill="midnightblue" stroke="midnightblue" points="1391.73,-308.41 1397.72,-299.67 1387.59,-302.78 1391.73,-308.41"/>
</g>
<!-- Node37 -->
<g id="node37" class="node">
<title>Node37</title>
<g id="a_node37"><a xlink:title=" ">
<polygon fill="white" stroke="#bfbfbf" points="1268.5,-280.5 1268.5,-299.5 1352.5,-299.5 1352.5,-280.5 1268.5,-280.5"/>
<text text-anchor="middle" x="1310.5" y="-287.5" font-family="Helvetica,sans-Serif" font-size="10.00">openssl/evp.h</text>
</a>
</g>
</g>
<!-- Node31&#45;&gt;Node37 -->
<g id="edge71" class="edge">
<title>Node31&#45;&gt;Node37</title>
<path fill="none" stroke="midnightblue" d="M1259.61,-392.34C1270.2,-371.24 1290.11,-331.6 1301.64,-308.65"/>
<polygon fill="midnightblue" stroke="midnightblue" points="1304.79,-310.18 1306.15,-299.67 1298.53,-307.04 1304.79,-310.18"/>
</g>
<!-- Node32&#45;&gt;Node16 -->
<g id="edge59" class="edge">
<title>Node32&#45;&gt;Node16</title>
<path fill="none" stroke="midnightblue" d="M1575.62,-336.37C1555.52,-327.55 1523.63,-313.29 1496.5,-300 1428.32,-266.6 1415.61,-247.79 1343.5,-224 1305.12,-211.34 725.17,-107.17 550.14,-75.86"/>
<polygon fill="midnightblue" stroke="midnightblue" points="550.63,-72.4 540.17,-74.08 549.4,-79.29 550.63,-72.4"/>
</g>
<!-- Node32&#45;&gt;Node21 -->
<g id="edge58" class="edge">
<title>Node32&#45;&gt;Node21</title>
<path fill="none" stroke="midnightblue" d="M1538.84,-340.6C1409.13,-330.54 1091.63,-305.91 959.12,-295.63"/>
<polygon fill="midnightblue" stroke="midnightblue" points="959.01,-292.11 948.77,-294.82 958.47,-299.09 959.01,-292.11"/>
</g>
<!-- Node32&#45;&gt;Node24 -->
<g id="edge60" class="edge">
<title>Node32&#45;&gt;Node24</title>
<path fill="none" stroke="midnightblue" d="M1602.94,-336.38C1613.69,-322.86 1630.78,-296.5 1616.5,-280 1581.76,-239.87 1420.13,-234.75 1344.6,-234.6"/>
<polygon fill="midnightblue" stroke="midnightblue" points="1344.53,-231.1 1334.53,-234.61 1344.53,-238.1 1344.53,-231.1"/>
</g>
<!-- Node33 -->
<g id="node33" class="node">
<title>Node33</title>
<g id="a_node33"><a xlink:title=" ">
<polygon fill="white" stroke="#bfbfbf" points="1664,-280.5 1664,-299.5 1753,-299.5 1753,-280.5 1664,-280.5"/>
<text text-anchor="middle" x="1708.5" y="-287.5" font-family="Helvetica,sans-Serif" font-size="10.00">openssl/asn1.h</text>
</a>
</g>
</g>
<!-- Node32&#45;&gt;Node33 -->
<g id="edge61" class="edge">
<title>Node32&#45;&gt;Node33</title>
<path fill="none" stroke="midnightblue" d="M1613.41,-336.44C1631.75,-327.68 1660.51,-313.94 1681.59,-303.86"/>
<polygon fill="midnightblue" stroke="midnightblue" points="1683.17,-306.99 1690.68,-299.52 1680.15,-300.67 1683.17,-306.99"/>
</g>
<!-- Node34 -->
<g id="node34" class="node">
<title>Node34</title>
<g id="a_node34"><a xlink:title=" ">
<polygon fill="white" stroke="#bfbfbf" points="1771,-280.5 1771,-299.5 1848,-299.5 1848,-280.5 1771,-280.5"/>
<text text-anchor="middle" x="1809.5" y="-287.5" font-family="Helvetica,sans-Serif" font-size="10.00">openssl/ec.h</text>
</a>
</g>
</g>
<!-- Node32&#45;&gt;Node34 -->
<g id="edge62" class="edge">
<title>Node32&#45;&gt;Node34</title>
<path fill="none" stroke="midnightblue" d="M1629.41,-336.44C1666.35,-327.12 1725.55,-312.18 1765.92,-302"/>
<polygon fill="midnightblue" stroke="midnightblue" points="1766.91,-305.36 1775.75,-299.52 1765.2,-298.57 1766.91,-305.36"/>
</g>
<!-- Node35 -->
<g id="node35" class="node">
<title>Node35</title>
<g id="a_node35"><a xlink:title=" ">
<polygon fill="white" stroke="#bfbfbf" points="1866,-280.5 1866,-299.5 1965,-299.5 1965,-280.5 1866,-280.5"/>
<text text-anchor="middle" x="1915.5" y="-287.5" font-family="Helvetica,sans-Serif" font-size="10.00">openssl/engine.h</text>
</a>
</g>
</g>
<!-- Node32&#45;&gt;Node35 -->
<g id="edge63" class="edge">
<title>Node32&#45;&gt;Node35</title>
<path fill="none" stroke="midnightblue" d="M1646.2,-336.44C1703.1,-326.84 1795.3,-311.28 1855.68,-301.1"/>
<polygon fill="midnightblue" stroke="midnightblue" points="1856.54,-304.5 1865.82,-299.38 1855.38,-297.6 1856.54,-304.5"/>
</g>
<!-- Node32&#45;&gt;Node36 -->
<g id="edge64" class="edge">
<title>Node32&#45;&gt;Node36</title>
<path fill="none" stroke="midnightblue" d="M1566.03,-336.44C1534.33,-327.24 1483.77,-312.56 1448.73,-302.39"/>
<polygon fill="midnightblue" stroke="midnightblue" points="1449.41,-298.94 1438.83,-299.52 1447.46,-305.67 1449.41,-298.94"/>
</g>
<!-- Node32&#45;&gt;Node37 -->
<g id="edge65" class="edge">
<title>Node32&#45;&gt;Node37</title>
<path fill="none" stroke="midnightblue" d="M1550.34,-336.44C1499.32,-326.78 1416.41,-311.07 1362.67,-300.89"/>
<polygon fill="midnightblue" stroke="midnightblue" points="1363.14,-297.41 1352.66,-298.99 1361.83,-304.29 1363.14,-297.41"/>
</g>
<!-- Node38 -->
<g id="node38" class="node">
<title>Node38</title>
<g id="a_node38"><a xlink:title=" ">
<polygon fill="white" stroke="#bfbfbf" points="1983.5,-280.5 1983.5,-299.5 2071.5,-299.5 2071.5,-280.5 1983.5,-280.5"/>
<text text-anchor="middle" x="2027.5" y="-287.5" font-family="Helvetica,sans-Serif" font-size="10.00">openssl/pem.h</text>
</a>
</g>
</g>
<!-- Node32&#45;&gt;Node38 -->
<g id="edge66" class="edge">
<title>Node32&#45;&gt;Node38</title>
<path fill="none" stroke="midnightblue" d="M1652.12,-339.17C1724.28,-331.54 1853.1,-317.26 1973.17,-300.13"/>
<polygon fill="midnightblue" stroke="midnightblue" points="1973.88,-303.57 1983.28,-298.68 1972.88,-296.64 1973.88,-303.57"/>
</g>
<!-- Node39 -->
<g id="node39" class="node">
<title>Node39</title>
<g id="a_node39"><a xlink:title=" ">
<polygon fill="white" stroke="#bfbfbf" points="2089.5,-280.5 2089.5,-299.5 2169.5,-299.5 2169.5,-280.5 2089.5,-280.5"/>
<text text-anchor="middle" x="2129.5" y="-287.5" font-family="Helvetica,sans-Serif" font-size="10.00">openssl/ssl.h</text>
</a>
</g>
</g>
<!-- Node32&#45;&gt;Node39 -->
<g id="edge67" class="edge">
<title>Node32&#45;&gt;Node39</title>
<path fill="none" stroke="midnightblue" d="M1652.07,-341.39C1740.89,-335.37 1918.67,-321.86 2079.37,-300.04"/>
<polygon fill="midnightblue" stroke="midnightblue" points="2080,-303.49 2089.44,-298.66 2079.05,-296.55 2080,-303.49"/>
</g>
<!-- Node40 -->
<g id="node40" class="node">
<title>Node40</title>
<g id="a_node40"><a xlink:title=" ">
<polygon fill="white" stroke="#bfbfbf" points="2187.5,-280.5 2187.5,-299.5 2277.5,-299.5 2277.5,-280.5 2187.5,-280.5"/>
<text text-anchor="middle" x="2232.5" y="-287.5" font-family="Helvetica,sans-Serif" font-size="10.00">openssl/x509.h</text>
</a>
</g>
</g>
<!-- Node32&#45;&gt;Node40 -->
<g id="edge68" class="edge">
<title>Node32&#45;&gt;Node40</title>
<path fill="none" stroke="midnightblue" d="M1652.35,-342.28C1755.09,-337 1978.69,-323.84 2177.42,-300.03"/>
<polygon fill="midnightblue" stroke="midnightblue" points="2177.95,-303.49 2187.46,-298.81 2177.11,-296.54 2177.95,-303.49"/>
</g>
<!-- Node41 -->
<g id="node41" class="node">
<title>Node41</title>
<g id="a_node41"><a xlink:title=" ">
<polygon fill="white" stroke="#bfbfbf" points="1505.5,-280.5 1505.5,-299.5 1607.5,-299.5 1607.5,-280.5 1505.5,-280.5"/>
<text text-anchor="middle" x="1556.5" y="-287.5" font-family="Helvetica,sans-Serif" font-size="10.00">openssl/x509v3.h</text>
</a>
</g>
</g>
<!-- Node32&#45;&gt;Node41 -->
<g id="edge69" class="edge">
<title>Node32&#45;&gt;Node41</title>
<path fill="none" stroke="midnightblue" d="M1589.06,-336.08C1583.55,-328.46 1575.47,-317.26 1568.74,-307.94"/>
<polygon fill="midnightblue" stroke="midnightblue" points="1571.51,-305.81 1562.82,-299.75 1565.84,-309.91 1571.51,-305.81"/>
</g>
</g>
</svg>
        <g id="navigator" transform="translate(0 0)" fill="#404254">
                <rect fill="#f2f5e9" fill-opacity="0.5" stroke="#606060" stroke-width=".5" x="0" y="0" width="60" height="60"/>
                <use id="zoomplus" xlink:href="#zoomPlus" x="17" y="9" onmousedown="handleZoom(evt,'in')"/>
                <use id="zoomminus" xlink:href="#zoomMin" x="42" y="9" onmousedown="handleZoom(evt,'out')"/>
                <use id="reset" xlink:href="#resetDef" x="30" y="36" onmousedown="handleReset()"/>
                <g id="arrowUp" xlink:href="#dirArrow" transform="translate(30 24)" onmousedown="handlePan(0,-1)">
                  <use xlink:href="#rim" fill="#404040">
                        <set attributeName="fill" to="#808080" begin="arrowUp.mouseover" end="arrowUp.mouseout"/>
                  </use>
                  <path fill="none" stroke="white" stroke-width="1.5" d="M0,-3.0v7 M-2.5,-0.5L0,-3.0L2.5,-0.5"/>
                </g>
                <g id="arrowRight" xlink:href="#dirArrow" transform="rotate(90) translate(36 -43)" onmousedown="handlePan(1,0)">
                  <use xlink:href="#rim" fill="#404040">
                        <set attributeName="fill" to="#808080" begin="arrowRight.mouseover" end="arrowRight.mouseout"/>
                  </use>
                  <path fill="none" stroke="white" stroke-width="1.5" d="M0,-3.0v7 M-2.5,-0.5L0,-3.0L2.5,-0.5"/>
                </g>
                <g id="arrowDown" xlink:href="#dirArrow" transform="rotate(180) translate(-30 -48)" onmousedown="handlePan(0,1)">
                  <use xlink:href="#rim" fill="#404040">
                        <set attributeName="fill" to="#808080" begin="arrowDown.mouseover" end="arrowDown.mouseout"/>
                  </use>
                  <path fill="none" stroke="white" stroke-width="1.5" d="M0,-3.0v7 M-2.5,-0.5L0,-3.0L2.5,-0.5"/>
                </g>
                <g id="arrowLeft" xlink:href="#dirArrow" transform="rotate(270) translate(-36 17)" onmousedown="handlePan(-1,0)">
                  <use xlink:href="#rim" fill="#404040">
                        <set attributeName="fill" to="#808080" begin="arrowLeft.mouseover" end="arrowLeft.mouseout"/>
                  </use>
                  <path fill="none" stroke="white" stroke-width="1.5" d="M0,-3.0v7 M-2.5,-0.5L0,-3.0L2.5,-0.5"/>
                </g>
        </g>
        <svg viewBox="0 0 15 15" width="100%" height="30px" preserveAspectRatio="xMaxYMin meet">
         <g id="arrow_out" transform="scale(0.3 0.3)">
          <a xlink:href="src_2crypto_2openssl_2key__pair_8h__incl_org.svg" target="_base">
           <rect id="button" ry="5" rx="5" y="6" x="6" height="38" width="38"
                fill="#f2f5e9" fill-opacity="0.5" stroke="#606060" stroke-width="1.0"/>
           <path id="arrow"
             d="M 11.500037,31.436501 C 11.940474,20.09759 22.043105,11.32322 32.158766,21.979434 L 37.068811,17.246167 C 37.068811,17.246167 37.088388,32 37.088388,32 L 22.160133,31.978069 C 22.160133,31.978069 26.997745,27.140456 26.997745,27.140456 C 18.528582,18.264221 13.291696,25.230495 11.500037,31.436501 z"
             style="fill:#404040;"/>
          </a>
         </g>
        </svg>
</svg>
