<?xml version="1.0" encoding="UTF-8" standalone="no"?>
<!DOCTYPE svg PUBLIC "-//W3C//DTD SVG 1.1//EN"
 "http://www.w3.org/Graphics/SVG/1.1/DTD/svg11.dtd">
<!-- Generated by graphviz version 2.43.0 (0)
 -->
<!-- Title: ccf::historical::State Pages: 1 -->
<svg width="815pt" height="154pt"
 viewBox="0.00 0.00 815.00 154.00" xmlns="http://www.w3.org/2000/svg" xmlns:xlink="http://www.w3.org/1999/xlink">
<g id="graph0" class="graph" transform="scale(1 1) rotate(0) translate(4 150)">
<title>ccf::historical::State</title>
<polygon fill="white" stroke="transparent" points="-4,4 -4,-150 811,-150 811,4 -4,4"/>
<!-- Node1 -->
<g id="node1" class="node">
<title>Node1</title>
<g id="a_node1"><a xlink:title=" ">
<polygon fill="#bfbfbf" stroke="black" points="694,-60.5 694,-79.5 807,-79.5 807,-60.5 694,-60.5"/>
<text text-anchor="middle" x="750.5" y="-67.5" font-family="Helvetica,sans-Serif" font-size="10.00">ccf::historical::State</text>
</a>
</g>
</g>
<!-- Node2 -->
<g id="node2" class="node">
<title>Node2</title>
<g id="a_node2"><a xlink:title=" ">
<polygon fill="white" stroke="black" points="430.5,-99 430.5,-129 578.5,-129 578.5,-99 430.5,-99"/>
<text text-anchor="start" x="438.5" y="-117" font-family="Helvetica,sans-Serif" font-size="10.00">std::shared_ptr&lt; ReadOnly</text>
<text text-anchor="middle" x="504.5" y="-106" font-family="Helvetica,sans-Serif" font-size="10.00">Store &gt;</text>
</a>
</g>
</g>
<!-- Node2&#45;&gt;Node1 -->
<g id="edge1" class="edge">
<title>Node2&#45;&gt;Node1</title>
<path fill="none" stroke="#9a32cd" stroke-dasharray="5,2" d="M588.69,-100.41C616.49,-95.72 647.61,-90.31 676,-85 685.09,-83.3 694.79,-81.39 704.06,-79.52"/>
<polygon fill="#9a32cd" stroke="#9a32cd" points="587.89,-97 578.61,-102.11 589.05,-103.9 587.89,-97"/>
<text text-anchor="middle" x="639.5" y="-100" font-family="Helvetica,sans-Serif" font-size="10.00"> store</text>
</g>
<!-- Node3 -->
<g id="node3" class="node">
<title>Node3</title>
<g id="a_node3"><a xlink:title=" ">
<polygon fill="white" stroke="black" points="424,-60.5 424,-79.5 585,-79.5 585,-60.5 424,-60.5"/>
<text text-anchor="middle" x="504.5" y="-67.5" font-family="Helvetica,sans-Serif" font-size="10.00">std::shared_ptr&lt; TxReceipt &gt;</text>
</a>
</g>
</g>
<!-- Node3&#45;&gt;Node1 -->
<g id="edge2" class="edge">
<title>Node3&#45;&gt;Node1</title>
<path fill="none" stroke="#9a32cd" stroke-dasharray="5,2" d="M595.2,-70C628.29,-70 664.79,-70 693.98,-70"/>
<polygon fill="#9a32cd" stroke="#9a32cd" points="595.06,-66.5 585.06,-70 595.06,-73.5 595.06,-66.5"/>
<text text-anchor="middle" x="639.5" y="-73" font-family="Helvetica,sans-Serif" font-size="10.00"> receipt</text>
</g>
<!-- Node4 -->
<g id="node4" class="node">
<title>Node4</title>
<g id="a_node4"><a xlink:href="structccf_1_1TxReceipt.html" target="_top" xlink:title=" ">
<polygon fill="white" stroke="black" points="286,-60.5 286,-79.5 371,-79.5 371,-60.5 286,-60.5"/>
<text text-anchor="middle" x="328.5" y="-67.5" font-family="Helvetica,sans-Serif" font-size="10.00">ccf::TxReceipt</text>
</a>
</g>
</g>
<!-- Node4&#45;&gt;Node3 -->
<g id="edge3" class="edge">
<title>Node4&#45;&gt;Node3</title>
<path fill="none" stroke="#9a32cd" stroke-dasharray="5,2" d="M381.57,-70C394.92,-70 409.59,-70 423.98,-70"/>
<polygon fill="#9a32cd" stroke="#9a32cd" points="381.18,-66.5 371.18,-70 381.18,-73.5 381.18,-66.5"/>
<text text-anchor="middle" x="397.5" y="-73" font-family="Helvetica,sans-Serif" font-size="10.00"> ptr</text>
</g>
<!-- Node5 -->
<g id="node5" class="node">
<title>Node5</title>
<g id="a_node5"><a xlink:title=" ">
<polygon fill="white" stroke="black" points="27,-126.5 27,-145.5 152,-145.5 152,-126.5 27,-126.5"/>
<text text-anchor="middle" x="89.5" y="-133.5" font-family="Helvetica,sans-Serif" font-size="10.00">std::vector&lt; uint8_t &gt;</text>
</a>
</g>
</g>
<!-- Node5&#45;&gt;Node4 -->
<g id="edge4" class="edge">
<title>Node5&#45;&gt;Node4</title>
<path fill="none" stroke="#9a32cd" stroke-dasharray="5,2" d="M156.29,-124.45C190.11,-117.69 231.74,-108.09 268,-96 281.69,-91.44 296.56,-84.94 308.02,-79.58"/>
<polygon fill="#9a32cd" stroke="#9a32cd" points="155.19,-121.09 146.05,-126.45 156.54,-127.96 155.19,-121.09"/>
<text text-anchor="middle" x="232.5" y="-117" font-family="Helvetica,sans-Serif" font-size="10.00"> signature</text>
</g>
<!-- Node6 -->
<g id="node6" class="node">
<title>Node6</title>
<g id="a_node6"><a xlink:title=" ">
<polygon fill="white" stroke="black" points="31.5,-77 31.5,-107 147.5,-107 147.5,-77 31.5,-77"/>
<text text-anchor="start" x="39.5" y="-95" font-family="Helvetica,sans-Serif" font-size="10.00">std::shared_ptr&lt; ccf</text>
<text text-anchor="middle" x="89.5" y="-84" font-family="Helvetica,sans-Serif" font-size="10.00">::HistoryTree::Path &gt;</text>
</a>
</g>
</g>
<!-- Node6&#45;&gt;Node4 -->
<g id="edge5" class="edge">
<title>Node6&#45;&gt;Node4</title>
<path fill="none" stroke="#9a32cd" stroke-dasharray="5,2" d="M157.54,-85.78C198.78,-81.95 250.33,-77.16 285.78,-73.87"/>
<polygon fill="#9a32cd" stroke="#9a32cd" points="157.2,-82.29 147.57,-86.7 157.85,-89.26 157.2,-82.29"/>
<text text-anchor="middle" x="232.5" y="-84" font-family="Helvetica,sans-Serif" font-size="10.00"> path</text>
</g>
<!-- Node7 -->
<g id="node7" class="node">
<title>Node7</title>
<g id="a_node7"><a xlink:href="structccf_1_1EntityId.html" target="_top" xlink:title=" ">
<polygon fill="white" stroke="black" points="0,-38.5 0,-57.5 179,-57.5 179,-38.5 0,-38.5"/>
<text text-anchor="middle" x="89.5" y="-45.5" font-family="Helvetica,sans-Serif" font-size="10.00">ccf::EntityId&lt; NodeIdFormatter &gt;</text>
</a>
</g>
</g>
<!-- Node7&#45;&gt;Node4 -->
<g id="edge6" class="edge">
<title>Node7&#45;&gt;Node4</title>
<path fill="none" stroke="#9a32cd" stroke-dasharray="5,2" d="M189.26,-52.93C214.94,-54.69 242.54,-57.01 268,-60 273.83,-60.68 279.95,-61.55 285.96,-62.48"/>
<polygon fill="#9a32cd" stroke="#9a32cd" points="189.35,-49.43 179.14,-52.26 188.89,-56.42 189.35,-49.43"/>
<text text-anchor="middle" x="232.5" y="-63" font-family="Helvetica,sans-Serif" font-size="10.00"> node_id</text>
</g>
<!-- Node8 -->
<g id="node8" class="node">
<title>Node8</title>
<g id="a_node8"><a xlink:href="classccf_1_1ClaimsDigest.html" target="_top" xlink:title=" ">
<polygon fill="white" stroke="black" points="39,-0.5 39,-19.5 140,-19.5 140,-0.5 39,-0.5"/>
<text text-anchor="middle" x="89.5" y="-7.5" font-family="Helvetica,sans-Serif" font-size="10.00">ccf::ClaimsDigest</text>
</a>
</g>
</g>
<!-- Node8&#45;&gt;Node4 -->
<g id="edge7" class="edge">
<title>Node8&#45;&gt;Node4</title>
<path fill="none" stroke="#9a32cd" stroke-dasharray="5,2" d="M150.16,-14.96C185.15,-19.05 229.84,-26.31 268,-39 283.92,-44.29 300.75,-53.44 312.44,-60.43"/>
<polygon fill="#9a32cd" stroke="#9a32cd" points="150.43,-11.47 140.1,-13.85 149.65,-18.43 150.43,-11.47"/>
<text text-anchor="middle" x="232.5" y="-42" font-family="Helvetica,sans-Serif" font-size="10.00"> claims_digest</text>
</g>
<!-- Node9 -->
<g id="node9" class="node">
<title>Node9</title>
<g id="a_node9"><a xlink:href="structccf_1_1TxID.html" target="_top" xlink:title=" ">
<polygon fill="white" stroke="black" points="475,-22.5 475,-41.5 534,-41.5 534,-22.5 475,-22.5"/>
<text text-anchor="middle" x="504.5" y="-29.5" font-family="Helvetica,sans-Serif" font-size="10.00">ccf::TxID</text>
</a>
</g>
</g>
<!-- Node9&#45;&gt;Node1 -->
<g id="edge8" class="edge">
<title>Node9&#45;&gt;Node1</title>
<path fill="none" stroke="#9a32cd" stroke-dasharray="5,2" d="M544.41,-36.49C579.04,-40.67 631.03,-47.39 676,-55 685.5,-56.61 695.65,-58.54 705.28,-60.47"/>
<polygon fill="#9a32cd" stroke="#9a32cd" points="544.59,-32.99 534.25,-35.28 543.76,-39.94 544.59,-32.99"/>
<text text-anchor="middle" x="639.5" y="-58" font-family="Helvetica,sans-Serif" font-size="10.00"> transaction_id</text>
</g>
</g>
</svg>
