<?xml version="1.0" encoding="UTF-8" standalone="no"?>
<!DOCTYPE svg PUBLIC "-//W3C//DTD SVG 1.1//EN"
 "http://www.w3.org/Graphics/SVG/1.1/DTD/svg11.dtd">
<!-- Generated by graphviz version 2.43.0 (0)
 -->
<!-- Title: src/ds/thread_messaging.h Pages: 1 -->
<svg width="1537pt" height="967pt"
 viewBox="0.00 0.00 1536.50 967.00" xmlns="http://www.w3.org/2000/svg" xmlns:xlink="http://www.w3.org/1999/xlink">
<g id="graph0" class="graph" transform="scale(1 1) rotate(0) translate(4 963)">
<title>src/ds/thread_messaging.h</title>
<polygon fill="white" stroke="transparent" points="-4,4 -4,-963 1532.5,-963 1532.5,4 -4,4"/>
<!-- Node1 -->
<g id="node1" class="node">
<title>Node1</title>
<g id="a_node1"><a xlink:title=" ">
<polygon fill="#bfbfbf" stroke="black" points="676,-939.5 676,-958.5 823,-958.5 823,-939.5 676,-939.5"/>
<text text-anchor="middle" x="749.5" y="-946.5" font-family="Helvetica,sans-Serif" font-size="10.00">src/ds/thread_messaging.h</text>
</a>
</g>
</g>
<!-- Node2 -->
<g id="node2" class="node">
<title>Node2</title>
<g id="a_node2"><a xlink:href="orc__requests_8h.html" target="_top" xlink:title=" ">
<polygon fill="white" stroke="black" points="1055,-369.5 1055,-399.5 1174,-399.5 1174,-369.5 1055,-369.5"/>
<text text-anchor="start" x="1063" y="-387.5" font-family="Helvetica,sans-Serif" font-size="10.00">src/consensus/aft/orc</text>
<text text-anchor="middle" x="1114.5" y="-376.5" font-family="Helvetica,sans-Serif" font-size="10.00">_requests.h</text>
</a>
</g>
</g>
<!-- Node1&#45;&gt;Node2 -->
<g id="edge1" class="edge">
<title>Node1&#45;&gt;Node2</title>
<path fill="none" stroke="midnightblue" d="M833.23,-945.4C978.64,-938.59 1262.5,-914.13 1262.5,-827 1262.5,-827 1262.5,-827 1262.5,-702 1262.5,-574.01 1161.96,-441.99 1126.61,-399.54"/>
<polygon fill="midnightblue" stroke="midnightblue" points="832.83,-941.91 823,-945.86 833.15,-948.91 832.83,-941.91"/>
</g>
<!-- Node10 -->
<g id="node10" class="node">
<title>Node10</title>
<g id="a_node10"><a xlink:href="openssl_2symmetric__key_8cpp.html" target="_top" xlink:title=" ">
<polygon fill="white" stroke="black" points="1291,-872.5 1291,-902.5 1404,-902.5 1404,-872.5 1291,-872.5"/>
<text text-anchor="start" x="1299" y="-890.5" font-family="Helvetica,sans-Serif" font-size="10.00">src/crypto/openssl</text>
<text text-anchor="middle" x="1347.5" y="-879.5" font-family="Helvetica,sans-Serif" font-size="10.00">/symmetric_key.cpp</text>
</a>
</g>
</g>
<!-- Node1&#45;&gt;Node10 -->
<g id="edge12" class="edge">
<title>Node1&#45;&gt;Node10</title>
<path fill="none" stroke="midnightblue" d="M833.27,-943.86C937.53,-938.01 1120.82,-925.47 1276.5,-903 1281.11,-902.34 1285.87,-901.56 1290.64,-900.72"/>
<polygon fill="midnightblue" stroke="midnightblue" points="832.92,-940.37 823.13,-944.42 833.3,-947.36 832.92,-940.37"/>
</g>
<!-- Node11 -->
<g id="node11" class="node">
<title>Node11</title>
<g id="a_node11"><a xlink:href="tls__endpoint_8h.html" target="_top" xlink:title=" ">
<polygon fill="white" stroke="black" points="772.5,-878 772.5,-897 916.5,-897 916.5,-878 772.5,-878"/>
<text text-anchor="middle" x="844.5" y="-885" font-family="Helvetica,sans-Serif" font-size="10.00">src/enclave/tls_endpoint.h</text>
</a>
</g>
</g>
<!-- Node1&#45;&gt;Node11 -->
<g id="edge13" class="edge">
<title>Node1&#45;&gt;Node11</title>
<path fill="none" stroke="midnightblue" d="M771.71,-934.09C790.05,-922.6 815.48,-906.68 830.91,-897.01"/>
<polygon fill="midnightblue" stroke="midnightblue" points="769.73,-931.2 763.11,-939.48 773.44,-937.13 769.73,-931.2"/>
</g>
<!-- Node34 -->
<g id="node34" class="node">
<title>Node34</title>
<g id="a_node34"><a xlink:href="channels_8h.html" target="_top" xlink:title=" ">
<polygon fill="white" stroke="black" points="137,-878 137,-897 250,-897 250,-878 137,-878"/>
<text text-anchor="middle" x="193.5" y="-885" font-family="Helvetica,sans-Serif" font-size="10.00">src/node/channels.h</text>
</a>
</g>
</g>
<!-- Node1&#45;&gt;Node34 -->
<g id="edge56" class="edge">
<title>Node1&#45;&gt;Node34</title>
<path fill="none" stroke="midnightblue" d="M665.81,-939.65C578.57,-930.86 437.89,-916.46 316.5,-903 294.81,-900.59 270.98,-897.82 250.12,-895.34"/>
<polygon fill="midnightblue" stroke="midnightblue" points="665.62,-943.15 675.92,-940.66 666.32,-936.18 665.62,-943.15"/>
</g>
<!-- Node36 -->
<g id="node36" class="node">
<title>Node36</title>
<g id="a_node36"><a xlink:href="history_8h.html" target="_top" xlink:title=" ">
<polygon fill="white" stroke="black" points="367.5,-442 367.5,-461 469.5,-461 469.5,-442 367.5,-442"/>
<text text-anchor="middle" x="418.5" y="-449" font-family="Helvetica,sans-Serif" font-size="10.00">src/node/history.h</text>
</a>
</g>
</g>
<!-- Node1&#45;&gt;Node36 -->
<g id="edge59" class="edge">
<title>Node1&#45;&gt;Node36</title>
<path fill="none" stroke="midnightblue" d="M665.88,-939.43C597.66,-927.27 512.5,-897.89 512.5,-827 512.5,-827 512.5,-827 512.5,-579 512.5,-525.37 457.4,-479.71 431.57,-461.25"/>
<polygon fill="midnightblue" stroke="midnightblue" points="665.37,-942.9 675.81,-941.11 666.53,-935.99 665.37,-942.9"/>
</g>
<!-- Node40 -->
<g id="node40" class="node">
<title>Node40</title>
<g id="a_node40"><a xlink:href="snapshotter_8h.html" target="_top" xlink:title=" ">
<polygon fill="white" stroke="black" points="509,-241 509,-260 636,-260 636,-241 509,-241"/>
<text text-anchor="middle" x="572.5" y="-248" font-family="Helvetica,sans-Serif" font-size="10.00">src/node/snapshotter.h</text>
</a>
</g>
</g>
<!-- Node1&#45;&gt;Node40 -->
<g id="edge75" class="edge">
<title>Node1&#45;&gt;Node40</title>
<path fill="none" stroke="midnightblue" d="M665.46,-940.86C543.15,-928.12 330.5,-896.04 330.5,-827 330.5,-827 330.5,-827 330.5,-383.5 330.5,-346.31 323.12,-328.22 349.5,-302 371.71,-279.93 451.22,-265.88 508.99,-258.35"/>
<polygon fill="midnightblue" stroke="midnightblue" points="665.25,-944.36 675.56,-941.89 665.96,-937.4 665.25,-944.36"/>
</g>
<!-- Node3 -->
<g id="node3" class="node">
<title>Node3</title>
<g id="a_node3"><a xlink:href="raft_8h.html" target="_top" xlink:title=" ">
<polygon fill="white" stroke="black" points="801,-308 801,-327 930,-327 930,-308 801,-308"/>
<text text-anchor="middle" x="865.5" y="-315" font-family="Helvetica,sans-Serif" font-size="10.00">src/consensus/aft/raft.h</text>
</a>
</g>
</g>
<!-- Node2&#45;&gt;Node3 -->
<g id="edge2" class="edge">
<title>Node2&#45;&gt;Node3</title>
<path fill="none" stroke="midnightblue" d="M1050.95,-366.91C1002.18,-354.18 936.86,-337.13 898.17,-327.03"/>
<polygon fill="midnightblue" stroke="midnightblue" points="1050.22,-370.34 1060.78,-369.48 1051.99,-363.56 1050.22,-370.34"/>
</g>
<!-- Node8 -->
<g id="node8" class="node">
<title>Node8</title>
<g id="a_node8"><a xlink:href="node__frontend_8h.html" target="_top" xlink:title=" ">
<polygon fill="white" stroke="black" points="1035.5,-308 1035.5,-327 1193.5,-327 1193.5,-308 1035.5,-308"/>
<text text-anchor="middle" x="1114.5" y="-315" font-family="Helvetica,sans-Serif" font-size="10.00">src/node/rpc/node_frontend.h</text>
</a>
</g>
</g>
<!-- Node2&#45;&gt;Node8 -->
<g id="edge8" class="edge">
<title>Node2&#45;&gt;Node8</title>
<path fill="none" stroke="midnightblue" d="M1114.5,-359.25C1114.5,-348.02 1114.5,-335.38 1114.5,-327.19"/>
<polygon fill="midnightblue" stroke="midnightblue" points="1111,-359.4 1114.5,-369.4 1118,-359.4 1111,-359.4"/>
</g>
<!-- Node4 -->
<g id="node4" class="node">
<title>Node4</title>
<g id="a_node4"><a xlink:href="node__state_8h.html" target="_top" xlink:title=" ">
<polygon fill="white" stroke="black" points="740.5,-174 740.5,-193 864.5,-193 864.5,-174 740.5,-174"/>
<text text-anchor="middle" x="802.5" y="-181" font-family="Helvetica,sans-Serif" font-size="10.00">src/node/node_state.h</text>
</a>
</g>
</g>
<!-- Node3&#45;&gt;Node4 -->
<g id="edge3" class="edge">
<title>Node3&#45;&gt;Node4</title>
<path fill="none" stroke="midnightblue" d="M848.27,-300.87C839.03,-291.59 828.2,-279.1 821.5,-266 808.93,-241.42 804.55,-208.43 803.13,-193.06"/>
<polygon fill="midnightblue" stroke="midnightblue" points="845.9,-303.45 855.53,-307.86 850.75,-298.4 845.9,-303.45"/>
</g>
<!-- Node5 -->
<g id="node5" class="node">
<title>Node5</title>
<g id="a_node5"><a xlink:href="enclave_2enclave_8h.html" target="_top" xlink:title=" ">
<polygon fill="white" stroke="black" points="1053.5,-56.5 1053.5,-75.5 1175.5,-75.5 1175.5,-56.5 1053.5,-56.5"/>
<text text-anchor="middle" x="1114.5" y="-63.5" font-family="Helvetica,sans-Serif" font-size="10.00">src/enclave/enclave.h</text>
</a>
</g>
</g>
<!-- Node4&#45;&gt;Node5 -->
<g id="edge4" class="edge">
<title>Node4&#45;&gt;Node5</title>
<path fill="none" stroke="midnightblue" d="M835.18,-170.4C898.43,-146.99 1036.17,-96 1091.15,-75.64"/>
<polygon fill="midnightblue" stroke="midnightblue" points="833.86,-167.16 825.7,-173.91 836.29,-173.72 833.86,-167.16"/>
</g>
<!-- Node7 -->
<g id="node7" class="node">
<title>Node7</title>
<g id="a_node7"><a xlink:href="gov__effects_8h.html" target="_top" xlink:title=" ">
<polygon fill="white" stroke="black" points="774.5,-112.5 774.5,-131.5 918.5,-131.5 918.5,-112.5 774.5,-112.5"/>
<text text-anchor="middle" x="846.5" y="-119.5" font-family="Helvetica,sans-Serif" font-size="10.00">src/node/rpc/gov_effects.h</text>
</a>
</g>
</g>
<!-- Node4&#45;&gt;Node7 -->
<g id="edge6" class="edge">
<title>Node4&#45;&gt;Node7</title>
<path fill="none" stroke="midnightblue" d="M814.82,-165.84C823.08,-154.67 833.61,-140.43 840.21,-131.51"/>
<polygon fill="midnightblue" stroke="midnightblue" points="811.94,-163.85 808.8,-173.98 817.56,-168.02 811.94,-163.85"/>
</g>
<!-- Node6 -->
<g id="node6" class="node">
<title>Node6</title>
<g id="a_node6"><a xlink:href="enclave_2main_8cpp.html" target="_top" xlink:title=" ">
<polygon fill="white" stroke="black" points="1054.5,-0.5 1054.5,-19.5 1174.5,-19.5 1174.5,-0.5 1054.5,-0.5"/>
<text text-anchor="middle" x="1114.5" y="-7.5" font-family="Helvetica,sans-Serif" font-size="10.00">src/enclave/main.cpp</text>
</a>
</g>
</g>
<!-- Node5&#45;&gt;Node6 -->
<g id="edge5" class="edge">
<title>Node5&#45;&gt;Node6</title>
<path fill="none" stroke="midnightblue" d="M1114.5,-45.8C1114.5,-36.91 1114.5,-26.78 1114.5,-19.75"/>
<polygon fill="midnightblue" stroke="midnightblue" points="1111,-46.08 1114.5,-56.08 1118,-46.08 1111,-46.08"/>
</g>
<!-- Node7&#45;&gt;Node5 -->
<g id="edge7" class="edge">
<title>Node7&#45;&gt;Node5</title>
<path fill="none" stroke="midnightblue" d="M899.06,-110.41C949.71,-100.2 1025.37,-84.96 1072.23,-75.52"/>
<polygon fill="midnightblue" stroke="midnightblue" points="898.08,-107.04 888.97,-112.44 899.46,-113.9 898.08,-107.04"/>
</g>
<!-- Node8&#45;&gt;Node5 -->
<g id="edge9" class="edge">
<title>Node8&#45;&gt;Node5</title>
<path fill="none" stroke="midnightblue" d="M1114.5,-297.84C1114.5,-247.64 1114.5,-111.1 1114.5,-75.55"/>
<polygon fill="midnightblue" stroke="midnightblue" points="1111,-297.91 1114.5,-307.91 1118,-297.91 1111,-297.91"/>
</g>
<!-- Node9 -->
<g id="node9" class="node">
<title>Node9</title>
<g id="a_node9"><a xlink:href="jwt__key__auto__refresh_8h.html" target="_top" xlink:title=" ">
<polygon fill="white" stroke="black" points="959,-235.5 959,-265.5 1084,-265.5 1084,-235.5 959,-235.5"/>
<text text-anchor="start" x="967" y="-253.5" font-family="Helvetica,sans-Serif" font-size="10.00">src/node/jwt_key_auto</text>
<text text-anchor="middle" x="1021.5" y="-242.5" font-family="Helvetica,sans-Serif" font-size="10.00">_refresh.h</text>
</a>
</g>
</g>
<!-- Node8&#45;&gt;Node9 -->
<g id="edge10" class="edge">
<title>Node8&#45;&gt;Node9</title>
<path fill="none" stroke="midnightblue" d="M1093.54,-301.85C1078.02,-291 1056.99,-276.3 1041.66,-265.59"/>
<polygon fill="midnightblue" stroke="midnightblue" points="1091.76,-304.87 1101.96,-307.73 1095.77,-299.14 1091.76,-304.87"/>
</g>
<!-- Node9&#45;&gt;Node4 -->
<g id="edge11" class="edge">
<title>Node9&#45;&gt;Node4</title>
<path fill="none" stroke="midnightblue" d="M964.53,-232.59C921.76,-219.9 864.98,-203.04 831.24,-193.03"/>
<polygon fill="midnightblue" stroke="midnightblue" points="963.67,-235.99 974.25,-235.48 965.66,-229.28 963.67,-235.99"/>
</g>
<!-- Node12 -->
<g id="node12" class="node">
<title>Node12</title>
<g id="a_node12"><a xlink:href="http__parser_8h.html" target="_top" xlink:title=" ">
<polygon fill="white" stroke="black" points="868.5,-755 868.5,-774 988.5,-774 988.5,-755 868.5,-755"/>
<text text-anchor="middle" x="928.5" y="-762" font-family="Helvetica,sans-Serif" font-size="10.00">src/http/http_parser.h</text>
</a>
</g>
</g>
<!-- Node11&#45;&gt;Node12 -->
<g id="edge14" class="edge">
<title>Node11&#45;&gt;Node12</title>
<path fill="none" stroke="midnightblue" d="M846.57,-867.87C848.97,-852.83 854.01,-831.67 864.5,-816 876.86,-797.53 898.13,-782.72 912.73,-774.03"/>
<polygon fill="midnightblue" stroke="midnightblue" points="843.08,-867.6 845.22,-877.98 850.02,-868.54 843.08,-867.6"/>
</g>
<!-- Node33 -->
<g id="node33" class="node">
<title>Node33</title>
<g id="a_node33"><a xlink:href="http__proc_8h.html" target="_top" xlink:title=" ">
<polygon fill="white" stroke="black" points="873,-816.5 873,-835.5 984,-835.5 984,-816.5 873,-816.5"/>
<text text-anchor="middle" x="928.5" y="-823.5" font-family="Helvetica,sans-Serif" font-size="10.00">src/http/http_proc.h</text>
</a>
</g>
</g>
<!-- Node11&#45;&gt;Node33 -->
<g id="edge54" class="edge">
<title>Node11&#45;&gt;Node33</title>
<path fill="none" stroke="midnightblue" d="M864.81,-872.11C880.97,-860.67 903.02,-845.05 916.49,-835.51"/>
<polygon fill="midnightblue" stroke="midnightblue" points="862.67,-869.34 856.54,-877.98 866.72,-875.05 862.67,-869.34"/>
</g>
<!-- Node13 -->
<g id="node13" class="node">
<title>Node13</title>
<g id="a_node13"><a xlink:href="rpc__tls__client_8h.html" target="_top" xlink:title=" ">
<polygon fill="white" stroke="black" points="743,-626.5 743,-656.5 844,-656.5 844,-626.5 743,-626.5"/>
<text text-anchor="start" x="751" y="-644.5" font-family="Helvetica,sans-Serif" font-size="10.00">src/clients/rpc_tls</text>
<text text-anchor="middle" x="793.5" y="-633.5" font-family="Helvetica,sans-Serif" font-size="10.00">_client.h</text>
</a>
</g>
</g>
<!-- Node12&#45;&gt;Node13 -->
<g id="edge15" class="edge">
<title>Node12&#45;&gt;Node13</title>
<path fill="none" stroke="midnightblue" d="M909.41,-748.27C897.24,-738.41 881.23,-725.2 867.5,-713 846.14,-694.03 822.38,-671.03 807.68,-656.58"/>
<polygon fill="midnightblue" stroke="midnightblue" points="907.52,-751.24 917.51,-754.78 911.91,-745.79 907.52,-751.24"/>
</g>
<!-- Node18 -->
<g id="node18" class="node">
<title>Node18</title>
<g id="a_node18"><a xlink:href="http__endpoint_8h.html" target="_top" xlink:title=" ">
<polygon fill="white" stroke="black" points="876,-570.5 876,-589.5 1009,-589.5 1009,-570.5 876,-570.5"/>
<text text-anchor="middle" x="942.5" y="-577.5" font-family="Helvetica,sans-Serif" font-size="10.00">src/http/http_endpoint.h</text>
</a>
</g>
</g>
<!-- Node12&#45;&gt;Node18 -->
<g id="edge21" class="edge">
<title>Node12&#45;&gt;Node18</title>
<path fill="none" stroke="midnightblue" d="M918.98,-745.93C905.85,-719.24 885.53,-667.24 901.5,-626 907.38,-610.82 921.02,-597.62 930.96,-589.51"/>
<polygon fill="midnightblue" stroke="midnightblue" points="915.88,-747.55 923.57,-754.84 922.1,-744.35 915.88,-747.55"/>
</g>
<!-- Node24 -->
<g id="node24" class="node">
<title>Node24</title>
<g id="a_node24"><a xlink:href="http__jwt_8h.html" target="_top" xlink:title=" ">
<polygon fill="white" stroke="black" points="1316,-693.5 1316,-712.5 1421,-712.5 1421,-693.5 1316,-693.5"/>
<text text-anchor="middle" x="1368.5" y="-700.5" font-family="Helvetica,sans-Serif" font-size="10.00">src/http/http_jwt.h</text>
</a>
</g>
</g>
<!-- Node12&#45;&gt;Node24 -->
<g id="edge35" class="edge">
<title>Node12&#45;&gt;Node24</title>
<path fill="none" stroke="midnightblue" d="M998.69,-754.01C1087.01,-742.06 1236.7,-721.82 1315.84,-711.12"/>
<polygon fill="midnightblue" stroke="midnightblue" points="998.2,-750.54 988.76,-755.35 999.14,-757.48 998.2,-750.54"/>
</g>
<!-- Node29 -->
<g id="node29" class="node">
<title>Node29</title>
<g id="a_node29"><a xlink:href="http__rpc__context_8h.html" target="_top" xlink:title=" ">
<polygon fill="white" stroke="black" points="1083,-632 1083,-651 1230,-651 1230,-632 1083,-632"/>
<text text-anchor="middle" x="1156.5" y="-639" font-family="Helvetica,sans-Serif" font-size="10.00">src/http/http_rpc_context.h</text>
</a>
</g>
</g>
<!-- Node12&#45;&gt;Node29 -->
<g id="edge44" class="edge">
<title>Node12&#45;&gt;Node29</title>
<path fill="none" stroke="midnightblue" d="M957.4,-750.68C979.13,-740.85 1009.49,-726.68 1035.5,-713 1075.09,-692.17 1120.28,-664.86 1142.57,-651.15"/>
<polygon fill="midnightblue" stroke="midnightblue" points="955.76,-747.58 948.08,-754.87 958.63,-753.96 955.76,-747.58"/>
</g>
<!-- Node31 -->
<g id="node31" class="node">
<title>Node31</title>
<g id="a_node31"><a xlink:href="http__sig_8h.html" target="_top" xlink:title=" ">
<polygon fill="white" stroke="black" points="922.5,-693.5 922.5,-712.5 1026.5,-712.5 1026.5,-693.5 922.5,-693.5"/>
<text text-anchor="middle" x="974.5" y="-700.5" font-family="Helvetica,sans-Serif" font-size="10.00">src/http/http_sig.h</text>
</a>
</g>
</g>
<!-- Node12&#45;&gt;Node31 -->
<g id="edge50" class="edge">
<title>Node12&#45;&gt;Node31</title>
<path fill="none" stroke="midnightblue" d="M941.38,-746.84C950.02,-735.67 961.03,-721.43 967.92,-712.51"/>
<polygon fill="midnightblue" stroke="midnightblue" points="938.44,-744.92 935.09,-754.98 943.98,-749.2 938.44,-744.92"/>
</g>
<!-- Node14 -->
<g id="node14" class="node">
<title>Node14</title>
<g id="a_node14"><a xlink:href="perf__client_8h.html" target="_top" xlink:title=" ">
<polygon fill="white" stroke="black" points="642,-503.5 642,-533.5 753,-533.5 753,-503.5 642,-503.5"/>
<text text-anchor="start" x="650" y="-521.5" font-family="Helvetica,sans-Serif" font-size="10.00">src/clients/perf/perf</text>
<text text-anchor="middle" x="697.5" y="-510.5" font-family="Helvetica,sans-Serif" font-size="10.00">_client.h</text>
</a>
</g>
</g>
<!-- Node13&#45;&gt;Node14 -->
<g id="edge16" class="edge">
<title>Node13&#45;&gt;Node14</title>
<path fill="none" stroke="midnightblue" d="M752.66,-621.31C739.44,-613.3 725.79,-602.83 716.5,-590 704.31,-573.16 699.94,-548.96 698.37,-533.75"/>
<polygon fill="midnightblue" stroke="midnightblue" points="751.28,-624.55 761.7,-626.46 754.74,-618.47 751.28,-624.55"/>
</g>
<!-- Node17 -->
<g id="node17" class="node">
<title>Node17</title>
<g id="a_node17"><a xlink:href="timing_8h.html" target="_top" xlink:title=" ">
<polygon fill="white" stroke="black" points="725.5,-570.5 725.5,-589.5 857.5,-589.5 857.5,-570.5 725.5,-570.5"/>
<text text-anchor="middle" x="791.5" y="-577.5" font-family="Helvetica,sans-Serif" font-size="10.00">src/clients/perf/timing.h</text>
</a>
</g>
</g>
<!-- Node13&#45;&gt;Node17 -->
<g id="edge19" class="edge">
<title>Node13&#45;&gt;Node17</title>
<path fill="none" stroke="midnightblue" d="M792.69,-616.29C792.37,-606.86 792.03,-596.65 791.79,-589.66"/>
<polygon fill="midnightblue" stroke="midnightblue" points="789.19,-616.52 793.03,-626.4 796.19,-616.29 789.19,-616.52"/>
</g>
<!-- Node15 -->
<g id="node15" class="node">
<title>Node15</title>
<g id="a_node15"><a xlink:href="tpcc__client_8cpp.html" target="_top" xlink:title=" ">
<polygon fill="white" stroke="black" points="639.5,-436.5 639.5,-466.5 755.5,-466.5 755.5,-436.5 639.5,-436.5"/>
<text text-anchor="start" x="647.5" y="-454.5" font-family="Helvetica,sans-Serif" font-size="10.00">src/apps/tpcc/clients</text>
<text text-anchor="middle" x="697.5" y="-443.5" font-family="Helvetica,sans-Serif" font-size="10.00">/tpcc_client.cpp</text>
</a>
</g>
</g>
<!-- Node14&#45;&gt;Node15 -->
<g id="edge17" class="edge">
<title>Node14&#45;&gt;Node15</title>
<path fill="none" stroke="midnightblue" d="M697.5,-493.11C697.5,-484.15 697.5,-474.32 697.5,-466.58"/>
<polygon fill="midnightblue" stroke="midnightblue" points="694,-493.4 697.5,-503.4 701,-493.4 694,-493.4"/>
</g>
<!-- Node16 -->
<g id="node16" class="node">
<title>Node16</title>
<g id="a_node16"><a xlink:href="scenario__perf__client_8cpp.html" target="_top" xlink:title=" ">
<polygon fill="white" stroke="black" points="488,-436.5 488,-466.5 621,-466.5 621,-436.5 488,-436.5"/>
<text text-anchor="start" x="496" y="-454.5" font-family="Helvetica,sans-Serif" font-size="10.00">src/clients/perf/scenario</text>
<text text-anchor="middle" x="554.5" y="-443.5" font-family="Helvetica,sans-Serif" font-size="10.00">_perf_client.cpp</text>
</a>
</g>
</g>
<!-- Node14&#45;&gt;Node16 -->
<g id="edge18" class="edge">
<title>Node14&#45;&gt;Node16</title>
<path fill="none" stroke="midnightblue" d="M657.09,-499.13C634.37,-488.8 606.44,-476.11 585.47,-466.58"/>
<polygon fill="midnightblue" stroke="midnightblue" points="655.92,-502.44 666.47,-503.4 658.82,-496.07 655.92,-502.44"/>
</g>
<!-- Node17&#45;&gt;Node14 -->
<g id="edge20" class="edge">
<title>Node17&#45;&gt;Node14</title>
<path fill="none" stroke="midnightblue" d="M769.4,-565.01C754.4,-555.52 734.66,-543.02 719.65,-533.52"/>
<polygon fill="midnightblue" stroke="midnightblue" points="767.71,-568.08 778.03,-570.48 771.45,-562.17 767.71,-568.08"/>
</g>
<!-- Node19 -->
<g id="node19" class="node">
<title>Node19</title>
<g id="a_node19"><a xlink:href="rpc__sessions_8h.html" target="_top" xlink:title=" ">
<polygon fill="white" stroke="black" points="869.5,-509 869.5,-528 1015.5,-528 1015.5,-509 869.5,-509"/>
<text text-anchor="middle" x="942.5" y="-516" font-family="Helvetica,sans-Serif" font-size="10.00">src/enclave/rpc_sessions.h</text>
</a>
</g>
</g>
<!-- Node18&#45;&gt;Node19 -->
<g id="edge22" class="edge">
<title>Node18&#45;&gt;Node19</title>
<path fill="none" stroke="midnightblue" d="M936.18,-560.32C935.3,-549.5 935.77,-536.4 937.6,-528.01"/>
<polygon fill="midnightblue" stroke="midnightblue" points="932.75,-561.05 937.6,-570.48 939.69,-560.09 932.75,-561.05"/>
</g>
<!-- Node19&#45;&gt;Node4 -->
<g id="edge32" class="edge">
<title>Node19&#45;&gt;Node4</title>
<path fill="none" stroke="midnightblue" d="M912.09,-504.99C888.33,-495.07 854.59,-480.65 825.5,-467 797.97,-454.08 791.77,-449.47 764.5,-436 731.35,-419.62 709.19,-431.29 689.5,-400 641.02,-322.95 754.23,-222.91 791.27,-193.19"/>
<polygon fill="midnightblue" stroke="midnightblue" points="911.04,-508.34 921.61,-508.95 913.72,-501.88 911.04,-508.34"/>
</g>
<!-- Node19&#45;&gt;Node5 -->
<g id="edge23" class="edge">
<title>Node19&#45;&gt;Node5</title>
<path fill="none" stroke="midnightblue" d="M991.91,-506.29C1046.64,-491.31 1133.73,-459.49 1183.5,-400 1268.94,-297.89 1150.32,-117.29 1120.84,-75.71"/>
<polygon fill="midnightblue" stroke="midnightblue" points="990.85,-502.95 982.08,-508.89 992.64,-509.71 990.85,-502.95"/>
</g>
<!-- Node19&#45;&gt;Node18 -->
<g id="edge24" class="edge">
<title>Node19&#45;&gt;Node18</title>
<path fill="none" stroke="midnightblue" d="M948.81,-538.16C949.7,-548.98 949.23,-562.08 947.4,-570.48"/>
<polygon fill="midnightblue" stroke="midnightblue" points="952.25,-537.43 947.4,-528.01 945.31,-538.4 952.25,-537.43"/>
</g>
<!-- Node20 -->
<g id="node20" class="node">
<title>Node20</title>
<g id="a_node20"><a xlink:href="node__client_8h.html" target="_top" xlink:title=" ">
<polygon fill="white" stroke="black" points="879.5,-442 879.5,-461 1005.5,-461 1005.5,-442 879.5,-442"/>
<text text-anchor="middle" x="942.5" y="-449" font-family="Helvetica,sans-Serif" font-size="10.00">src/node/node_client.h</text>
</a>
</g>
</g>
<!-- Node19&#45;&gt;Node20 -->
<g id="edge25" class="edge">
<title>Node19&#45;&gt;Node20</title>
<path fill="none" stroke="midnightblue" d="M942.5,-498.54C942.5,-486.17 942.5,-470.62 942.5,-461.13"/>
<polygon fill="midnightblue" stroke="midnightblue" points="939,-498.73 942.5,-508.73 946,-498.73 939,-498.73"/>
</g>
<!-- Node23 -->
<g id="node23" class="node">
<title>Node23</title>
<g id="a_node23"><a xlink:href="resharing_8h.html" target="_top" xlink:title=" ">
<polygon fill="white" stroke="black" points="698.5,-375 698.5,-394 814.5,-394 814.5,-375 698.5,-375"/>
<text text-anchor="middle" x="756.5" y="-382" font-family="Helvetica,sans-Serif" font-size="10.00">src/node/resharing.h</text>
</a>
</g>
</g>
<!-- Node19&#45;&gt;Node23 -->
<g id="edge33" class="edge">
<title>Node19&#45;&gt;Node23</title>
<path fill="none" stroke="midnightblue" d="M922.02,-503.21C907.59,-493.12 887.84,-479.28 870.5,-467 833.17,-440.57 789.19,-409 768.46,-394.1"/>
<polygon fill="midnightblue" stroke="midnightblue" points="920.04,-506.1 930.25,-508.96 924.05,-500.36 920.04,-506.1"/>
</g>
<!-- Node20&#45;&gt;Node2 -->
<g id="edge26" class="edge">
<title>Node20&#45;&gt;Node2</title>
<path fill="none" stroke="midnightblue" d="M975.04,-438.2C1004.19,-427.19 1046.91,-411.04 1077.38,-399.53"/>
<polygon fill="midnightblue" stroke="midnightblue" points="973.46,-435.06 965.34,-441.87 975.93,-441.61 973.46,-435.06"/>
</g>
<!-- Node20&#45;&gt;Node3 -->
<g id="edge27" class="edge">
<title>Node20&#45;&gt;Node3</title>
<path fill="none" stroke="midnightblue" d="M907.01,-437.91C890.01,-429.87 871.27,-417.61 861.5,-400 848.37,-376.34 857.06,-342.62 862.32,-327.02"/>
<polygon fill="midnightblue" stroke="midnightblue" points="905.64,-441.13 916.2,-441.94 908.45,-434.72 905.64,-441.13"/>
</g>
<!-- Node21 -->
<g id="node21" class="node">
<title>Node21</title>
<g id="a_node21"><a xlink:href="http__node__client_8h.html" target="_top" xlink:title=" ">
<polygon fill="white" stroke="black" points="830.5,-235.5 830.5,-265.5 940.5,-265.5 940.5,-235.5 830.5,-235.5"/>
<text text-anchor="start" x="838.5" y="-253.5" font-family="Helvetica,sans-Serif" font-size="10.00">src/node/http_node</text>
<text text-anchor="middle" x="885.5" y="-242.5" font-family="Helvetica,sans-Serif" font-size="10.00">_client.h</text>
</a>
</g>
</g>
<!-- Node20&#45;&gt;Node21 -->
<g id="edge28" class="edge">
<title>Node20&#45;&gt;Node21</title>
<path fill="none" stroke="midnightblue" d="M970.08,-436.9C984.04,-428.4 999.67,-416 1007.5,-400 1013.56,-387.62 1012.82,-381.71 1007.5,-369 987.8,-321.94 938.77,-284.7 909.21,-265.58"/>
<polygon fill="midnightblue" stroke="midnightblue" points="968.2,-433.94 961.24,-441.93 971.66,-440.03 968.2,-433.94"/>
</g>
<!-- Node22 -->
<g id="node22" class="node">
<title>Node22</title>
<g id="a_node22"><a xlink:href="retired__nodes__cleanup_8h.html" target="_top" xlink:title=" ">
<polygon fill="white" stroke="black" points="870.5,-369.5 870.5,-399.5 998.5,-399.5 998.5,-369.5 870.5,-369.5"/>
<text text-anchor="start" x="878.5" y="-387.5" font-family="Helvetica,sans-Serif" font-size="10.00">src/node/retired_nodes</text>
<text text-anchor="middle" x="934.5" y="-376.5" font-family="Helvetica,sans-Serif" font-size="10.00">_cleanup.h</text>
</a>
</g>
</g>
<!-- Node20&#45;&gt;Node22 -->
<g id="edge30" class="edge">
<title>Node20&#45;&gt;Node22</title>
<path fill="none" stroke="midnightblue" d="M940.19,-431.74C938.93,-421.49 937.39,-409 936.23,-399.59"/>
<polygon fill="midnightblue" stroke="midnightblue" points="936.73,-432.24 941.42,-441.73 943.67,-431.38 936.73,-432.24"/>
</g>
<!-- Node21&#45;&gt;Node4 -->
<g id="edge29" class="edge">
<title>Node21&#45;&gt;Node4</title>
<path fill="none" stroke="midnightblue" d="M859.33,-229.01C843.92,-216.94 825.24,-202.3 813.6,-193.19"/>
<polygon fill="midnightblue" stroke="midnightblue" points="857.46,-231.99 867.49,-235.4 861.78,-226.47 857.46,-231.99"/>
</g>
<!-- Node22&#45;&gt;Node3 -->
<g id="edge31" class="edge">
<title>Node22&#45;&gt;Node3</title>
<path fill="none" stroke="midnightblue" d="M912.03,-362.34C899.36,-350.4 884.22,-336.14 874.73,-327.19"/>
<polygon fill="midnightblue" stroke="midnightblue" points="909.85,-365.09 919.53,-369.4 914.65,-359.99 909.85,-365.09"/>
</g>
<!-- Node23&#45;&gt;Node4 -->
<g id="edge34" class="edge">
<title>Node23&#45;&gt;Node4</title>
<path fill="none" stroke="midnightblue" d="M760.76,-365.07C770.38,-323.43 793.51,-223.39 800.48,-193.24"/>
<polygon fill="midnightblue" stroke="midnightblue" points="757.32,-364.42 758.48,-374.95 764.14,-365.99 757.32,-364.42"/>
</g>
<!-- Node25 -->
<g id="node25" class="node">
<title>Node25</title>
<g id="a_node25"><a xlink:href="jwt__auth_8cpp.html" target="_top" xlink:title=" ">
<polygon fill="white" stroke="black" points="1291,-626.5 1291,-656.5 1446,-656.5 1446,-626.5 1291,-626.5"/>
<text text-anchor="start" x="1299" y="-644.5" font-family="Helvetica,sans-Serif" font-size="10.00">src/endpoints/authentication</text>
<text text-anchor="middle" x="1368.5" y="-633.5" font-family="Helvetica,sans-Serif" font-size="10.00">/jwt_auth.cpp</text>
</a>
</g>
</g>
<!-- Node24&#45;&gt;Node25 -->
<g id="edge36" class="edge">
<title>Node24&#45;&gt;Node25</title>
<path fill="none" stroke="midnightblue" d="M1368.5,-683.23C1368.5,-674.59 1368.5,-664.5 1368.5,-656.52"/>
<polygon fill="midnightblue" stroke="midnightblue" points="1365,-683.48 1368.5,-693.48 1372,-683.48 1365,-683.48"/>
</g>
<!-- Node26 -->
<g id="node26" class="node">
<title>Node26</title>
<g id="a_node26"><a xlink:href="frontend_8h.html" target="_top" xlink:title=" ">
<polygon fill="white" stroke="black" points="1307,-375 1307,-394 1436,-394 1436,-375 1307,-375"/>
<text text-anchor="middle" x="1371.5" y="-382" font-family="Helvetica,sans-Serif" font-size="10.00">src/node/rpc/frontend.h</text>
</a>
</g>
</g>
<!-- Node24&#45;&gt;Node26 -->
<g id="edge37" class="edge">
<title>Node24&#45;&gt;Node26</title>
<path fill="none" stroke="midnightblue" d="M1408.52,-689.64C1425.28,-682.58 1443.59,-672.05 1455.5,-657 1477.1,-629.69 1474.5,-615.82 1474.5,-581 1474.5,-581 1474.5,-581 1474.5,-517.5 1474.5,-478.9 1468.14,-466.51 1444.5,-436 1429.87,-417.12 1406.2,-402.59 1389.79,-394.06"/>
<polygon fill="midnightblue" stroke="midnightblue" points="1406.93,-686.51 1398.89,-693.41 1409.48,-693.03 1406.93,-686.51"/>
</g>
<!-- Node26&#45;&gt;Node4 -->
<g id="edge38" class="edge">
<title>Node26&#45;&gt;Node4</title>
<path fill="none" stroke="midnightblue" d="M1350.53,-369.24C1305.56,-339.38 1195.64,-270.13 1093.5,-235 1017.13,-208.74 924.58,-195.68 864.67,-189.51"/>
<polygon fill="midnightblue" stroke="midnightblue" points="1348.61,-372.17 1358.87,-374.83 1352.51,-366.36 1348.61,-372.17"/>
</g>
<!-- Node26&#45;&gt;Node8 -->
<g id="edge41" class="edge">
<title>Node26&#45;&gt;Node8</title>
<path fill="none" stroke="midnightblue" d="M1327.63,-372.4C1276.91,-359.58 1194.51,-338.74 1148.44,-327.08"/>
<polygon fill="midnightblue" stroke="midnightblue" points="1327.08,-375.88 1337.64,-374.94 1328.8,-369.09 1327.08,-375.88"/>
</g>
<!-- Node27 -->
<g id="node27" class="node">
<title>Node27</title>
<g id="a_node27"><a xlink:href="member__frontend_8h.html" target="_top" xlink:title=" ">
<polygon fill="white" stroke="black" points="1408.5,-168.5 1408.5,-198.5 1528.5,-198.5 1528.5,-168.5 1408.5,-168.5"/>
<text text-anchor="start" x="1416.5" y="-186.5" font-family="Helvetica,sans-Serif" font-size="10.00">src/node/rpc/member</text>
<text text-anchor="middle" x="1468.5" y="-175.5" font-family="Helvetica,sans-Serif" font-size="10.00">_frontend.h</text>
</a>
</g>
</g>
<!-- Node26&#45;&gt;Node27 -->
<g id="edge39" class="edge">
<title>Node26&#45;&gt;Node27</title>
<path fill="none" stroke="midnightblue" d="M1380.1,-365.86C1399.11,-326.86 1444.4,-233.94 1461.66,-198.53"/>
<polygon fill="midnightblue" stroke="midnightblue" points="1376.9,-364.43 1375.67,-374.95 1383.2,-367.49 1376.9,-364.43"/>
</g>
<!-- Node28 -->
<g id="node28" class="node">
<title>Node28</title>
<g id="a_node28"><a xlink:href="user__frontend_8h.html" target="_top" xlink:title=" ">
<polygon fill="white" stroke="black" points="1294,-112.5 1294,-131.5 1449,-131.5 1449,-112.5 1294,-112.5"/>
<text text-anchor="middle" x="1371.5" y="-119.5" font-family="Helvetica,sans-Serif" font-size="10.00">src/node/rpc/user_frontend.h</text>
</a>
</g>
</g>
<!-- Node26&#45;&gt;Node28 -->
<g id="edge42" class="edge">
<title>Node26&#45;&gt;Node28</title>
<path fill="none" stroke="midnightblue" d="M1371.5,-364.72C1371.5,-312.77 1371.5,-168.61 1371.5,-131.7"/>
<polygon fill="midnightblue" stroke="midnightblue" points="1368,-364.83 1371.5,-374.83 1375,-364.83 1368,-364.83"/>
</g>
<!-- Node27&#45;&gt;Node5 -->
<g id="edge40" class="edge">
<title>Node27&#45;&gt;Node5</title>
<path fill="none" stroke="midnightblue" d="M1471.86,-158.07C1472.5,-142.75 1470.38,-123.75 1458.5,-112 1419.75,-73.67 1263.83,-67.04 1175.8,-66.45"/>
<polygon fill="midnightblue" stroke="midnightblue" points="1468.34,-158.16 1471,-168.41 1475.32,-158.74 1468.34,-158.16"/>
</g>
<!-- Node28&#45;&gt;Node5 -->
<g id="edge43" class="edge">
<title>Node28&#45;&gt;Node5</title>
<path fill="none" stroke="midnightblue" d="M1320.79,-110.35C1272.22,-100.14 1199.88,-84.94 1155.03,-75.52"/>
<polygon fill="midnightblue" stroke="midnightblue" points="1320.27,-113.81 1330.78,-112.44 1321.71,-106.96 1320.27,-113.81"/>
</g>
<!-- Node29&#45;&gt;Node9 -->
<g id="edge46" class="edge">
<title>Node29&#45;&gt;Node9</title>
<path fill="none" stroke="midnightblue" d="M1165.86,-622.78C1189.33,-575.65 1244.54,-445.63 1183.5,-369 1138.89,-313.01 1072.8,-387.6 1026.5,-333 1010.64,-314.3 1013.93,-283.65 1017.73,-265.75"/>
<polygon fill="midnightblue" stroke="midnightblue" points="1162.71,-621.26 1161.27,-631.76 1168.94,-624.45 1162.71,-621.26"/>
</g>
<!-- Node29&#45;&gt;Node18 -->
<g id="edge45" class="edge">
<title>Node29&#45;&gt;Node18</title>
<path fill="none" stroke="midnightblue" d="M1116.04,-629.25C1074.46,-617.69 1010.66,-599.95 973.1,-589.51"/>
<polygon fill="midnightblue" stroke="midnightblue" points="1115.27,-632.67 1125.84,-631.98 1117.14,-625.92 1115.27,-632.67"/>
</g>
<!-- Node30 -->
<g id="node30" class="node">
<title>Node30</title>
<g id="a_node30"><a xlink:href="forwarder_8h.html" target="_top" xlink:title=" ">
<polygon fill="white" stroke="black" points="1301.5,-442 1301.5,-461 1435.5,-461 1435.5,-442 1301.5,-442"/>
<text text-anchor="middle" x="1368.5" y="-449" font-family="Helvetica,sans-Serif" font-size="10.00">src/node/rpc/forwarder.h</text>
</a>
</g>
</g>
<!-- Node29&#45;&gt;Node30 -->
<g id="edge47" class="edge">
<title>Node29&#45;&gt;Node30</title>
<path fill="none" stroke="midnightblue" d="M1173.75,-625.2C1216.38,-587.4 1325.59,-490.56 1358.78,-461.12"/>
<polygon fill="midnightblue" stroke="midnightblue" points="1171.32,-622.68 1166.16,-631.93 1175.96,-627.92 1171.32,-622.68"/>
</g>
<!-- Node30&#45;&gt;Node5 -->
<g id="edge48" class="edge">
<title>Node30&#45;&gt;Node5</title>
<path fill="none" stroke="midnightblue" d="M1341.6,-436.93C1326.89,-428.24 1309.47,-415.65 1298.5,-400 1222.08,-291.04 1303.89,-212.38 1216.5,-112 1200.3,-93.39 1174.93,-82.15 1153.55,-75.56"/>
<polygon fill="midnightblue" stroke="midnightblue" points="1339.9,-439.99 1350.33,-441.84 1343.32,-433.89 1339.9,-439.99"/>
</g>
<!-- Node30&#45;&gt;Node26 -->
<g id="edge49" class="edge">
<title>Node30&#45;&gt;Node26</title>
<path fill="none" stroke="midnightblue" d="M1369.38,-431.54C1369.95,-419.17 1370.66,-403.62 1371.1,-394.13"/>
<polygon fill="midnightblue" stroke="midnightblue" points="1365.87,-431.58 1368.9,-441.73 1372.86,-431.91 1365.87,-431.58"/>
</g>
<!-- Node31&#45;&gt;Node13 -->
<g id="edge51" class="edge">
<title>Node31&#45;&gt;Node13</title>
<path fill="none" stroke="midnightblue" d="M938.7,-690.23C909.22,-680.54 867.36,-666.78 836.16,-656.52"/>
<polygon fill="midnightblue" stroke="midnightblue" points="937.97,-693.68 948.57,-693.48 940.16,-687.03 937.97,-693.68"/>
</g>
<!-- Node31&#45;&gt;Node29 -->
<g id="edge53" class="edge">
<title>Node31&#45;&gt;Node29</title>
<path fill="none" stroke="midnightblue" d="M1010.5,-690.23C1045.87,-678.67 1099,-661.3 1130.47,-651.01"/>
<polygon fill="midnightblue" stroke="midnightblue" points="1008.99,-687.04 1000.58,-693.48 1011.17,-693.69 1008.99,-687.04"/>
</g>
<!-- Node32 -->
<g id="node32" class="node">
<title>Node32</title>
<g id="a_node32"><a xlink:href="sig__auth_8cpp.html" target="_top" xlink:title=" ">
<polygon fill="white" stroke="black" points="910,-626.5 910,-656.5 1065,-656.5 1065,-626.5 910,-626.5"/>
<text text-anchor="start" x="918" y="-644.5" font-family="Helvetica,sans-Serif" font-size="10.00">src/endpoints/authentication</text>
<text text-anchor="middle" x="987.5" y="-633.5" font-family="Helvetica,sans-Serif" font-size="10.00">/sig_auth.cpp</text>
</a>
</g>
</g>
<!-- Node31&#45;&gt;Node32 -->
<g id="edge52" class="edge">
<title>Node31&#45;&gt;Node32</title>
<path fill="none" stroke="midnightblue" d="M978.54,-683.53C980.44,-674.81 982.67,-664.59 984.44,-656.52"/>
<polygon fill="midnightblue" stroke="midnightblue" points="975.08,-682.96 976.36,-693.48 981.92,-684.45 975.08,-682.96"/>
</g>
<!-- Node33&#45;&gt;Node12 -->
<g id="edge55" class="edge">
<title>Node33&#45;&gt;Node12</title>
<path fill="none" stroke="midnightblue" d="M928.5,-806.32C928.5,-795.5 928.5,-782.4 928.5,-774.01"/>
<polygon fill="midnightblue" stroke="midnightblue" points="925,-806.48 928.5,-816.48 932,-806.48 925,-806.48"/>
</g>
<!-- Node35 -->
<g id="node35" class="node">
<title>Node35</title>
<g id="a_node35"><a xlink:href="node__to__node__channel__manager_8h.html" target="_top" xlink:title=" ">
<polygon fill="white" stroke="black" points="0,-749.5 0,-779.5 129,-779.5 129,-749.5 0,-749.5"/>
<text text-anchor="start" x="8" y="-767.5" font-family="Helvetica,sans-Serif" font-size="10.00">src/node/node_to_node</text>
<text text-anchor="middle" x="64.5" y="-756.5" font-family="Helvetica,sans-Serif" font-size="10.00">_channel_manager.h</text>
</a>
</g>
</g>
<!-- Node34&#45;&gt;Node35 -->
<g id="edge57" class="edge">
<title>Node34&#45;&gt;Node35</title>
<path fill="none" stroke="midnightblue" d="M176.85,-870.88C151.53,-847.14 103.74,-802.31 79.47,-779.54"/>
<polygon fill="midnightblue" stroke="midnightblue" points="174.53,-873.51 184.22,-877.8 179.32,-868.4 174.53,-873.51"/>
</g>
<!-- Node35&#45;&gt;Node4 -->
<g id="edge58" class="edge">
<title>Node35&#45;&gt;Node4</title>
<path fill="none" stroke="midnightblue" d="M56.19,-739.45C48.58,-715.26 38.5,-676.75 38.5,-642.5 38.5,-642.5 38.5,-642.5 38.5,-316.5 38.5,-289.01 -84.63,-314.09 180.5,-235 233.19,-219.28 593.43,-196.74 740.33,-188.08"/>
<polygon fill="midnightblue" stroke="midnightblue" points="52.94,-740.76 59.36,-749.19 59.59,-738.59 52.94,-740.76"/>
</g>
<!-- Node36&#45;&gt;Node4 -->
<g id="edge64" class="edge">
<title>Node36&#45;&gt;Node4</title>
<path fill="none" stroke="midnightblue" d="M461.98,-439.12C514.57,-423.34 602.83,-390.1 657.5,-333 690.39,-298.64 667.65,-269.4 700.5,-235 720.29,-214.28 750.38,-200.83 772.76,-193.06"/>
<polygon fill="midnightblue" stroke="midnightblue" points="460.89,-435.79 452.28,-441.96 462.86,-442.51 460.89,-435.79"/>
</g>
<!-- Node37 -->
<g id="node37" class="node">
<title>Node37</title>
<g id="a_node37"><a xlink:href="historical__queries_8h.html" target="_top" xlink:title=" ">
<polygon fill="white" stroke="black" points="66.5,-302.5 66.5,-332.5 172.5,-332.5 172.5,-302.5 66.5,-302.5"/>
<text text-anchor="start" x="74.5" y="-320.5" font-family="Helvetica,sans-Serif" font-size="10.00">src/node/historical</text>
<text text-anchor="middle" x="119.5" y="-309.5" font-family="Helvetica,sans-Serif" font-size="10.00">_queries.h</text>
</a>
</g>
</g>
<!-- Node36&#45;&gt;Node37 -->
<g id="edge60" class="edge">
<title>Node36&#45;&gt;Node37</title>
<path fill="none" stroke="midnightblue" d="M389.51,-437.7C333.28,-412.88 209.82,-358.37 151.37,-332.57"/>
<polygon fill="midnightblue" stroke="midnightblue" points="388.32,-441 398.88,-441.84 391.15,-434.6 388.32,-441"/>
</g>
<!-- Node39 -->
<g id="node39" class="node">
<title>Node39</title>
<g id="a_node39"><a xlink:href="snapshot__serdes_8h.html" target="_top" xlink:title=" ">
<polygon fill="white" stroke="black" points="496.5,-308 496.5,-327 648.5,-327 648.5,-308 496.5,-308"/>
<text text-anchor="middle" x="572.5" y="-315" font-family="Helvetica,sans-Serif" font-size="10.00">src/node/snapshot_serdes.h</text>
</a>
</g>
</g>
<!-- Node36&#45;&gt;Node39 -->
<g id="edge65" class="edge">
<title>Node36&#45;&gt;Node39</title>
<path fill="none" stroke="midnightblue" d="M439.77,-436.03C453.7,-426.29 472.11,-412.91 487.5,-400 516.94,-375.3 548.98,-342.92 563.93,-327.47"/>
<polygon fill="midnightblue" stroke="midnightblue" points="437.58,-433.29 431.34,-441.86 441.56,-439.05 437.58,-433.29"/>
</g>
<!-- Node41 -->
<g id="node41" class="node">
<title>Node41</title>
<g id="a_node41"><a xlink:href="tx__receipt_8h.html" target="_top" xlink:title=" ">
<polygon fill="white" stroke="black" points="359,-375 359,-394 478,-394 478,-375 359,-375"/>
<text text-anchor="middle" x="418.5" y="-382" font-family="Helvetica,sans-Serif" font-size="10.00">src/node/tx_receipt.h</text>
</a>
</g>
</g>
<!-- Node36&#45;&gt;Node41 -->
<g id="edge68" class="edge">
<title>Node36&#45;&gt;Node41</title>
<path fill="none" stroke="midnightblue" d="M418.5,-431.54C418.5,-419.17 418.5,-403.62 418.5,-394.13"/>
<polygon fill="midnightblue" stroke="midnightblue" points="415,-431.73 418.5,-441.73 422,-431.73 415,-431.73"/>
</g>
<!-- Node37&#45;&gt;Node5 -->
<g id="edge61" class="edge">
<title>Node37&#45;&gt;Node5</title>
<path fill="none" stroke="midnightblue" d="M121.3,-292.27C123.89,-274.2 130.21,-250.11 145.5,-235 217.9,-163.46 265.68,-192.39 364.5,-168 494.49,-135.92 527.98,-131.07 660.5,-112 800.44,-91.87 965.96,-77.93 1053.34,-71.34"/>
<polygon fill="midnightblue" stroke="midnightblue" points="117.8,-292.03 120.14,-302.36 124.76,-292.83 117.8,-292.03"/>
</g>
<!-- Node38 -->
<g id="node38" class="node">
<title>Node38</title>
<g id="a_node38"><a xlink:href="historical__transaction__fetcher_8h.html" target="_top" xlink:title=" ">
<polygon fill="white" stroke="black" points="373,-168.5 373,-198.5 498,-198.5 498,-168.5 373,-168.5"/>
<text text-anchor="start" x="381" y="-186.5" font-family="Helvetica,sans-Serif" font-size="10.00">src/indexing/historical</text>
<text text-anchor="middle" x="435.5" y="-175.5" font-family="Helvetica,sans-Serif" font-size="10.00">_transaction_fetcher.h</text>
</a>
</g>
</g>
<!-- Node37&#45;&gt;Node38 -->
<g id="edge62" class="edge">
<title>Node37&#45;&gt;Node38</title>
<path fill="none" stroke="midnightblue" d="M130.7,-293.37C141.01,-274.64 158.08,-249.11 180.5,-235 238.84,-198.27 318.34,-187.39 372.99,-184.59"/>
<polygon fill="midnightblue" stroke="midnightblue" points="127.48,-291.97 125.94,-302.45 133.68,-295.22 127.48,-291.97"/>
</g>
<!-- Node38&#45;&gt;Node5 -->
<g id="edge63" class="edge">
<title>Node38&#45;&gt;Node5</title>
<path fill="none" stroke="midnightblue" d="M503.88,-166.17C570.39,-150.7 674.46,-127.57 765.5,-112 865.91,-94.83 983.59,-80.94 1053.43,-73.33"/>
<polygon fill="midnightblue" stroke="midnightblue" points="502.88,-162.81 493.94,-168.49 504.47,-169.63 502.88,-162.81"/>
</g>
<!-- Node39&#45;&gt;Node40 -->
<g id="edge66" class="edge">
<title>Node39&#45;&gt;Node40</title>
<path fill="none" stroke="midnightblue" d="M572.5,-297.54C572.5,-285.17 572.5,-269.62 572.5,-260.13"/>
<polygon fill="midnightblue" stroke="midnightblue" points="569,-297.73 572.5,-307.73 576,-297.73 569,-297.73"/>
</g>
<!-- Node40&#45;&gt;Node4 -->
<g id="edge67" class="edge">
<title>Node40&#45;&gt;Node4</title>
<path fill="none" stroke="midnightblue" d="M612.87,-238.09C658.37,-225.23 731.31,-204.62 772.2,-193.06"/>
<polygon fill="midnightblue" stroke="midnightblue" points="611.71,-234.78 603.04,-240.87 613.62,-241.52 611.71,-234.78"/>
</g>
<!-- Node41&#45;&gt;Node37 -->
<g id="edge72" class="edge">
<title>Node41&#45;&gt;Node37</title>
<path fill="none" stroke="midnightblue" d="M367.73,-372.87C319.9,-362.8 246.27,-347.16 182.5,-333 179.32,-332.29 176.06,-331.56 172.76,-330.82"/>
<polygon fill="midnightblue" stroke="midnightblue" points="367.02,-376.3 377.53,-374.93 368.46,-369.45 367.02,-376.3"/>
</g>
<!-- Node41&#45;&gt;Node39 -->
<g id="edge74" class="edge">
<title>Node41&#45;&gt;Node39</title>
<path fill="none" stroke="midnightblue" d="M448.24,-370.95C478.73,-358.08 525.34,-338.4 551.97,-327.17"/>
<polygon fill="midnightblue" stroke="midnightblue" points="446.8,-367.76 438.95,-374.87 449.52,-374.2 446.8,-367.76"/>
</g>
<!-- Node42 -->
<g id="node42" class="node">
<title>Node42</title>
<g id="a_node42"><a xlink:href="src_2apps_2js__v8_2tmpl_2receipt_8h.html" target="_top" xlink:title=" ">
<polygon fill="white" stroke="black" points="191,-302.5 191,-332.5 302,-332.5 302,-302.5 191,-302.5"/>
<text text-anchor="start" x="199" y="-320.5" font-family="Helvetica,sans-Serif" font-size="10.00">src/apps/js_v8/tmpl</text>
<text text-anchor="middle" x="246.5" y="-309.5" font-family="Helvetica,sans-Serif" font-size="10.00">/receipt.h</text>
</a>
</g>
</g>
<!-- Node41&#45;&gt;Node42 -->
<g id="edge69" class="edge">
<title>Node41&#45;&gt;Node42</title>
<path fill="none" stroke="midnightblue" d="M385.96,-371.2C356.81,-360.19 314.09,-344.04 283.62,-332.53"/>
<polygon fill="midnightblue" stroke="midnightblue" points="385.07,-374.61 395.66,-374.87 387.54,-368.06 385.07,-374.61"/>
</g>
<!-- Node45 -->
<g id="node45" class="node">
<title>Node45</title>
<g id="a_node45"><a xlink:href="historical__queries__adapter_8cpp.html" target="_top" xlink:title=" ">
<polygon fill="white" stroke="black" points="358.5,-302.5 358.5,-332.5 478.5,-332.5 478.5,-302.5 358.5,-302.5"/>
<text text-anchor="start" x="366.5" y="-320.5" font-family="Helvetica,sans-Serif" font-size="10.00">src/node/historical</text>
<text text-anchor="middle" x="418.5" y="-309.5" font-family="Helvetica,sans-Serif" font-size="10.00">_queries_adapter.cpp</text>
</a>
</g>
</g>
<!-- Node41&#45;&gt;Node45 -->
<g id="edge73" class="edge">
<title>Node41&#45;&gt;Node45</title>
<path fill="none" stroke="midnightblue" d="M418.5,-364.41C418.5,-354.22 418.5,-341.9 418.5,-332.59"/>
<polygon fill="midnightblue" stroke="midnightblue" points="415,-364.73 418.5,-374.73 422,-364.73 415,-364.73"/>
</g>
<!-- Node43 -->
<g id="node43" class="node">
<title>Node43</title>
<g id="a_node43"><a xlink:href="historical__state_8cpp.html" target="_top" xlink:title=" ">
<polygon fill="white" stroke="black" points="189,-235.5 189,-265.5 304,-265.5 304,-235.5 189,-235.5"/>
<text text-anchor="start" x="197" y="-253.5" font-family="Helvetica,sans-Serif" font-size="10.00">src/apps/js_v8/tmpl</text>
<text text-anchor="middle" x="246.5" y="-242.5" font-family="Helvetica,sans-Serif" font-size="10.00">/historical_state.cpp</text>
</a>
</g>
</g>
<!-- Node42&#45;&gt;Node43 -->
<g id="edge70" class="edge">
<title>Node42&#45;&gt;Node43</title>
<path fill="none" stroke="midnightblue" d="M246.5,-292.11C246.5,-283.15 246.5,-273.32 246.5,-265.58"/>
<polygon fill="midnightblue" stroke="midnightblue" points="243,-292.4 246.5,-302.4 250,-292.4 243,-292.4"/>
</g>
<!-- Node44 -->
<g id="node44" class="node">
<title>Node44</title>
<g id="a_node44"><a xlink:href="receipt_8cpp.html" target="_top" xlink:title=" ">
<polygon fill="white" stroke="black" points="322,-235.5 322,-265.5 433,-265.5 433,-235.5 322,-235.5"/>
<text text-anchor="start" x="330" y="-253.5" font-family="Helvetica,sans-Serif" font-size="10.00">src/apps/js_v8/tmpl</text>
<text text-anchor="middle" x="377.5" y="-242.5" font-family="Helvetica,sans-Serif" font-size="10.00">/receipt.cpp</text>
</a>
</g>
</g>
<!-- Node42&#45;&gt;Node44 -->
<g id="edge71" class="edge">
<title>Node42&#45;&gt;Node44</title>
<path fill="none" stroke="midnightblue" d="M284.08,-297.85C304.79,-287.58 330.09,-275.03 349.13,-265.58"/>
<polygon fill="midnightblue" stroke="midnightblue" points="282.33,-294.82 274.93,-302.4 285.44,-301.09 282.33,-294.82"/>
</g>
</g>
</svg>
